<?xml version="1.0" encoding="UTF-8"?>
<svg width="135px" height="89px" viewBox="0 0 135 89" version="1.1" xmlns="http://www.w3.org/2000/svg" xmlns:xlink="http://www.w3.org/1999/xlink">
    <!-- Generator: Sketch 50 (54983) - http://www.bohemiancoding.com/sketch -->
    <title>Group 5</title>
    <desc>Created with Sketch.</desc>
    <defs>
        <path d="M0,5.00783553 C0,2.24208434 2.23054312,0 5.00522566,0 L129.994774,0 C132.759084,0 135,2.24452473 135,5.00783553 L135,89 L0,89 L0,5.00783553 Z" id="path-1"></path>
    </defs>
    <g id="Page-1" stroke="none" stroke-width="1" fill="none" fill-rule="evenodd">
        <g id="⟶-Menu" transform="translate(-40.000000, -524.000000)">
            <g id="Menu" transform="translate(35.000000, 84.000000)">
                <g id="4" transform="translate(0.000000, 435.000000)">
                    <g id="Group-5" transform="translate(5.000000, 5.000000)">
                        <mask id="mask-2" fill="white">
                            <use xlink:href="#path-1"></use>
                        </mask>
                        <use id="Mask-Copy-3" fill="#FFEBAE" xlink:href="#path-1"></use>
                        <g id="Group-11" mask="url(#mask-2)">
                            <g transform="translate(38.000000, 7.000000)">
                                <path d="M23.4007656,2.17379212 C29.6377022,-1.18453703 36.5095455,-0.134874888 43.0650493,1.8590409 C46.7898349,2.99199786 50.0764978,5.49747652 53.1537528,7.76928741 C60.3909459,13.1148983 61.2062997,26.5946535 58.7498422,34.366871 C57.5825051,38.0613279 56.948341,42.3145235 56.2302653,46.145348 C55.304267,51.0855416 51.984188,64.7399949 51.5609169,67.622143 C51.346311,69.0801709 50.1128842,64.162091 49.5024828,63.1323312 C49.3962937,65.9665664 48.3492547,73.2154269 48.3492547,73.2154269 C47.6096442,73.3215725 46.6257245,71.3630386 45.9915605,70.8382076 C45.9915605,71.0482874 46.1527005,73.3517946 46.1527005,73.5618744 C45.941065,73.5618744 43.4333694,72.5041039 43.3279229,72.5041039 C42.5883124,72.7141838 42.1115755,72.2719104 41.5836005,72.5866616 C40.4207189,73.2154269 41.5836005,72.5866616 40.1036368,72.5866616 C38.5189693,72.4819903 36.932074,72.2719104 35.3466639,71.9571592 C32.8100076,71.3269196 32.7038186,72.3765818 30.4835018,73.1107556 C29.4268092,73.5309153 28.3701167,73.1107556 27.3126815,73.3215725 C26.3606929,73.5309153 26.2552464,74.0557463 25.5156359,74.3704976 C24.7752827,74.7899201 25.0923648,75 24.0349296,75 C22.7666015,75 21.7091664,73.8456665 20.4408383,73.6355866 C18.9608746,73.4262439 18.5383461,74.4751689 17.2692754,74.4751689 C16.0009473,74.3704976 15.1558903,72.691333 14.3093481,72.0618306 C13.6751841,72.7967415 13.5697376,73.951075 12.9355735,74.5798403 C11.3494208,73.0060842 10.6105529,70.6974172 11.0323388,68.4934216 C10.6105529,70.382666 8.70657555,72.7967415 6.91027245,73.6355866 C7.1761164,71.3984205 6.98750086,65.8847458 6.368931,61.3853513 C5.5387256,55.349794 3.95034515,52.0187384 2.78672094,45.9323197 C1.20131081,36.8030601 -2.18188759,25.3643964 2.04636782,16.3405454 C5.00703771,10.1494553 14.0984552,4.48245913 20.5470273,3.74754821 C20.5470273,3.74754821 22.661155,2.59395182 23.4007656,2.17379212" id="Fill-42" fill="#803825"></path>
                                <path d="M33.1756553,62.5332366 C33.1756553,62.5332366 32.8553582,57.8956156 33.187629,57.2015347 C33.187629,57.2015347 39.4738325,56.9991874 44.3134608,54.229559 C46.5218639,52.9656324 48.2827492,51.4510035 51.3644856,47.0454867 C51.848673,46.3521497 54.3040341,47.7678367 56.6224458,46.300819 C62.3144533,42.7389117 60.4173669,36.8715846 53.8827088,37.2904137 C54.0929973,33.937549 54.7253594,30.5846844 55.3577215,27.2318198 L55.3577215,23.2503395 C54.0929973,18.2214145 51.7745856,12.3533434 47.5583391,8.79143618 C42.7029953,4.84268856 36.3471946,2.90327917 30.0003742,3.00370888 L27.3945932,3.07735734 C24.7154731,3.27077753 22.0707775,3.83095217 19.5772502,4.75490555 L17.9241283,5.43038837 C15.9596898,6.3119381 14.111995,7.43228737 12.4416609,8.79143618 C8.22541444,12.3533434 5.90700274,18.2214145 4.64227847,23.2503395 L4.64227847,27.2318198 C5.2746406,30.5846844 5.90700274,33.937549 6.11729121,37.2904137 C-0.417366949,36.8715846 -2.31445335,42.7389117 3.37755421,46.300819 C5.69596591,47.7678367 8.15057868,46.3521497 8.63551438,47.0454867 C11.7172508,51.4510035 13.4781361,52.9656324 15.6857909,54.229559 C20.5261675,56.9991874 26.8116226,57.2015347 26.8116226,57.2015347 C27.1446418,57.8956156 26.8243447,62.5332366 26.8243447,62.5332366 C25.2744962,63.8179931 24.2342792,63.9481797 23.4993921,64.3618014 C23.4993921,64.3618014 28.1900973,69.6354773 30.6574321,70 C30.6574321,70 35.8053837,65.3876723 36.379374,64.3127024 C36.379374,64.3127024 34.7255038,63.8179931 33.1756553,62.5332366" id="Fill-43" fill="#F7CFC0"></path>
                                <path d="M45.6633824,73 C45.769798,75.0518519 46.1205493,80.2807407 45.9574254,81.6362963 C45.9091184,82.0459259 44.3128848,81.9948148 41.0994145,82 L41,75.7037037 L45.6633824,73" id="Fill-44" fill="#F7CFC0"></path>
                                <path d="M21,44 C21,44 21.1857919,44.2392473 21.5791893,44.5961022 C21.7762641,44.7741935 22.0222315,44.983871 22.3291266,45.1955645 C22.6322608,45.4106183 22.9895529,45.6344086 23.3949854,45.8528226 C23.7966569,46.0759409 24.254743,46.2842742 24.7557041,46.4650538 C25.2536565,46.6498656 25.7974927,46.8057796 26.3669035,46.9341398 C26.6489762,47.0094086 26.9423318,47.0598118 27.241705,47.1034946 C27.5395738,47.1552419 27.8412035,47.2009409 28.1503552,47.2251344 C28.7558713,47.3051075 29.4087756,47.3091398 30.0090263,47.328629 C30.6529043,47.3104839 31.3088174,47.311828 31.904555,47.2358871 C32.2091935,47.2137097 32.5108232,47.1747312 32.808692,47.1229839 C33.107313,47.077957 33.4044296,47.0369624 33.6857501,46.9623656 C34.8268282,46.7130376 35.8573339,46.3447581 36.6584204,45.8951613 C37.0585875,45.672043 37.417384,45.4495968 37.7145006,45.2278226 C38.0176348,45.0134409 38.2560802,44.797043 38.4463853,44.6142473 C38.8269954,44.2473118 39,44 39,44 C39,44 38.8879231,44.2748656 38.5607188,44.6955645 C38.2297534,45.1081989 37.7017133,45.688172 36.8953615,46.2083333 C36.0957794,46.7284946 35.0562474,47.2291667 33.8587547,47.5336022 C33.5623903,47.6229839 33.2532386,47.6787634 32.940326,47.7379032 C32.6304221,47.8057796 32.3099875,47.8561828 31.9805265,47.8817204 C31.3178437,47.9697581 30.6807355,47.9751344 30.0353531,48 C29.3478479,47.9731183 28.7077309,47.9590054 28.056331,47.8676075 C27.7321354,47.8407258 27.4147096,47.7822581 27.1033013,47.7157258 C26.7903886,47.6579301 26.4834935,47.5927419 26.1878813,47.5026882 C25.5898872,47.3528226 25.0340159,47.1391129 24.5270372,46.9079301 C24.0185541,46.6814516 23.5589636,46.4287634 23.1603009,46.1659946 C22.753364,45.9146505 22.4193899,45.6377688 22.1418303,45.3797043 C21.8597576,45.1263441 21.6408692,44.8837366 21.4686168,44.6801075 C21.127873,44.2694892 21,44 21,44" id="Fill-45" fill="#EC957A"></path>
                                <path d="M6.96610193,43.1433399 C6.71835525,41.4469215 5.14185539,39.3279884 3.54612055,40.2048127 C3.09679116,40.452104 3.03216159,41.1268559 3.0067714,41.5493708 C2.92598444,42.8557754 3.56535554,44.5161599 5.07107063,44.9047605 C6.65988087,45.3159706 7.14075565,44.3338708 6.96610193,43.1433399" id="Fill-46" fill="#F2B8A5"></path>
                                <path d="M53.0338894,43.1433399 C53.2808269,41.4469215 54.8578417,39.3279884 56.4540885,40.2048127 C56.9025761,40.452104 56.9671952,41.1268559 56.9933506,41.5493708 C57.0733553,42.8557754 56.4340873,44.5161599 54.9301536,44.9047605 C53.3400611,45.3159706 52.8592639,44.3338708 53.0338894,43.1433399" id="Fill-47" fill="#F2B8A5"></path>
                                <path d="M21.0049694,23 C21.0049694,23 20.9993594,22.925266 21.0000607,22.7976304 C21.0014632,22.7346523 21.0007619,22.6573992 21.0084756,22.571749 C21.0077744,22.4860988 21.0189944,22.3903721 21.071588,22.2837292 C21.1129616,22.1754069 21.1627502,22.0519698 21.2286675,21.9285328 C21.2938836,21.8059354 21.3780334,21.7202852 21.4691956,21.6178409 C21.5589554,21.5162362 21.6522214,21.4079139 21.7686286,21.3508138 C21.8808283,21.2836371 21.9937292,21.2047046 22.1115389,21.1467647 C22.2335561,21.1106573 22.3555732,21.0753896 22.4761879,21.0392821 C22.5946988,20.9914188 22.719521,21.0132512 22.8345257,21.0031747 C23.0666388,20.9855408 23.2826232,21.0443204 23.4586365,21.1064588 C23.6360522,21.1492839 23.7720944,21.2727209 23.8632566,21.3315005 C23.9537176,21.4003565 24,21.4465405 24,21.4465405 C24,21.4465405 23.9368877,21.4683729 23.8338042,21.4952435 C23.7300195,21.5296715 23.5946786,21.5305112 23.4333915,21.5876114 C23.3534493,21.6119629 23.2685982,21.6371541 23.1809422,21.6514292 C23.092585,21.6640248 23.0028252,21.7186058 22.9095592,21.7370794 C22.7209235,21.7824236 22.5371965,21.8705929 22.3478595,21.9369298 C22.255996,21.973877 22.171145,22.0267786 22.0820865,22.068764 C21.9895217,22.1073905 21.9074757,22.1527348 21.8338446,22.2115143 C21.7637198,22.2702939 21.6634414,22.3038822 21.605939,22.3593029 C21.5512417,22.416403 21.4874281,22.4642664 21.4236145,22.5138091 C21.3569959,22.5541151 21.2973899,22.6212918 21.2546137,22.6943463 L21.1283891,22.8606085 C21.0540568,22.9512969 21.0049694,23 21.0049694,23" id="Fill-48" fill="#6F2820"></path>
                                <path d="M29.0176045,33 C29.0176045,33 29.0619678,33.1753019 29.1387234,33.4830541 C29.1950578,33.6209583 29.2647715,33.7876899 29.3436397,33.9793533 C29.4499708,34.15933 29.5499643,34.3696922 29.6886877,34.5808337 C29.8281152,34.7919751 29.980218,35.0171406 30.160488,35.240748 C30.3273786,35.4729256 30.540745,35.6871835 30.7414362,35.9209194 C30.9505775,36.1499805 31.183661,36.3595637 31.4181528,36.5722633 L31.7962973,36.8613167 C31.9251621,36.9368913 32.0329016,37.0116868 32.187117,37.0942735 C32.3251362,37.1815349 32.48921,37.2586677 32.6638466,37.4316323 C32.7553899,37.5165563 32.8363706,37.6131671 32.8884799,37.7526295 C32.9574895,37.885859 32.9779107,38.0074016 32.9842483,38.1234905 C33.0250907,38.3782626 32.9757981,38.5512271 32.9567853,38.75224 L32.9476309,38.8246981 L32.9349557,38.8807947 L32.9335473,38.8846903 L32.9314348,38.8924815 L32.9265056,38.9072848 L32.9159429,38.9376704 L32.8751004,39.058434 L32.7934156,39.2968446 C32.7131391,39.4659135 32.6046955,39.6458901 32.5039978,39.8032723 C32.3962583,39.9489677 32.2786603,40.0564862 32.1709208,40.1780288 C31.9399499,40.3930658 31.7117957,40.5839501 31.4695579,40.6961434 C31.2421079,40.8340475 31.0097286,40.9049474 30.8048124,40.9540319 C30.6048254,41.0202571 30.4097676,40.9859758 30.266115,41 C30.1182372,40.9875341 30.0055685,40.928321 29.9316296,40.9111804 C29.858395,40.8870277 29.8196651,40.8745617 29.8196651,40.8745617 C29.8196651,40.8745617 29.9935974,40.8776782 30.2597773,40.8449552 C30.3928673,40.7888586 30.5555328,40.7724971 30.7231275,40.6696533 C30.8949474,40.5792754 31.0787382,40.4709778 31.2611208,40.3120374 C31.3582975,40.2450331 31.4491367,40.1608882 31.5343424,40.0603818 C31.6167315,39.9614336 31.728696,39.8874172 31.799114,39.7674328 C31.873757,39.6552396 31.9681171,39.5446046 32.0321974,39.4292949 C32.0807858,39.3077522 32.1483871,39.2158161 32.2040173,39.0857032 L32.2680976,38.8402805 L32.3011941,38.7171796 L32.30894,38.6860148 L32.3131651,38.6704324 L32.3152776,38.6626412 L32.316686,38.6587456 L32.3054191,38.707051 L32.3075317,38.6501753 C32.3082358,38.5068173 32.3392198,38.329178 32.3110526,38.2325672 L32.2772519,38.0993377 L32.206834,38.0058434 C32.1413453,37.9396182 32.0026219,37.8656019 31.8575609,37.781457 C31.7202459,37.7051032 31.5519469,37.5890144 31.39914,37.4877289 L30.99142,37.1573822 C30.7322819,36.9174133 30.5048318,36.6532918 30.293578,36.3930658 C30.0872533,36.1266069 29.8950123,35.8640436 29.7422053,35.5897935 C29.5739064,35.3280093 29.4499708,35.0545384 29.3394146,34.8028827 C29.2253375,34.5535645 29.1626655,34.2987924 29.0936559,34.087651 C29.0499968,33.8554733 29.0169003,33.6567978 29,33.4994157 C29.0112669,33.1815349 29.0176045,33 29.0176045,33" id="Fill-49" fill="#EC957A"></path>
                                <path d="M14.12994,40.5267258 C15.1326862,41.0722154 17.9903116,41.5059174 17.9999766,39.6845371 C18.0096416,37.8614758 15.020733,37.7555718 13.9221419,38.2615574 C12.4707775,38.9306016 12.8799302,39.8459146 14.12994,40.5267258" id="Fill-50" fill="#F2BABA"></path>
                                <path d="M7.77201806,31.4376943 C16.0204657,28.1086621 20.9836979,19.0258118 22.5886601,10.7858775 C28.4255643,15.8964767 36.8089391,19.0908816 44.6622961,17.5995111 C44.5564417,19.6234071 45.0872049,21.7527611 46.2538402,23.4565434 C47.2095122,24.8402122 48.8010563,26.9695662 50.2867459,27.8214574 C51.0299635,28.2477769 52.8250165,29.81768 53.2499253,30.4571593 C53.779943,31.2028446 53.860452,33.0517252 53.909652,33.6074364 C54.0609791,35.3074792 53.6427795,37.3425941 53.9610883,38.9394226 C57.8367032,34.0913465 57.6093398,24.0945269 55.4870325,17.5995111 C53.683034,11.7439746 48.0585842,5.78148427 42.3275344,3.43822257 C37.8704655,1.73518813 30.5299807,1.80100589 25.9663118,2.33353137 C22.6758782,2.65289707 11.2816151,7.66102995 9.69007099,9.89658987 C9.69007099,9.89658987 5.0794385,16.4290021 4.07158481,22.744515 C3.6429488,25.4318241 5.24194746,35.7472614 6.13947397,38.9394226 C6.13947397,38.9394226 6.67098262,40.842902 6.98929144,39.5497327 C7.30760027,38.2565634 7.77201806,31.4376943 7.77201806,31.4376943" id="Fill-51" fill="#803825"></path>
                                <path d="M23.9232307,34.9733121 C25.3051714,34.7356846 25.0939807,33.0194865 24.7233016,32.1964658 C24.5226267,31.7498771 24.1747316,31.2112549 23.613017,31.0445385 C23.0144974,30.8680152 22.2967996,31.239921 22.1241665,31.7423333 C21.7745189,32.7622454 22.0996299,35.2863768 23.9232307,34.9733121" id="Fill-52" fill="#0A0B09"></path>
                                <path d="M37.9950318,23 C37.9950318,23 37.946657,22.9512969 37.872342,22.8606085 L37.7454458,22.6943463 C37.7026796,22.6212918 37.6437886,22.5541151 37.5771856,22.5138091 C37.5126858,22.4642664 37.4488872,22.416403 37.3949037,22.3593029 C37.3367137,22.3038822 37.2371597,22.2702939 37.1670513,22.2115143 C37.0927364,22.1527348 37.0107095,22.1073905 36.9181664,22.068764 C36.8298298,22.0267786 36.7442975,21.973877 36.6524555,21.9369298 C36.4631628,21.8705929 36.2794787,21.7824236 36.090887,21.7370794 C35.9976428,21.7186058 35.9079041,21.6640248 35.8202685,21.6514292 C35.7319319,21.6371541 35.6478018,21.6119629 35.5671771,21.5876114 C35.4059278,21.5305112 35.2706185,21.5296715 35.166858,21.4952435 C35.0637987,21.4683729 35,21.4465405 35,21.4465405 C35,21.4465405 35.0469726,21.4003565 35.1374125,21.3315005 C35.2285535,21.2727209 35.3645638,21.1492839 35.5419381,21.1064588 C35.7179102,21.0443204 35.9338442,20.9855408 36.165903,21.0031747 C36.2815819,21.0132512 36.4056738,20.9914188 36.5241571,21.0392821 C36.6447436,21.0753896 36.7667322,21.1106573 36.8887209,21.1467647 C37.006503,21.2047046 37.1193776,21.2836371 37.2315511,21.3508138 C37.347931,21.4079139 37.4411752,21.5162362 37.530914,21.6170012 C37.622055,21.7194455 37.7061851,21.8059354 37.7713859,21.9285328 C37.8372878,22.0519698 37.8877659,22.1754069 37.9284288,22.2837292 C37.9810101,22.3903721 37.9929285,22.4860988 37.9922274,22.571749 C37.9992383,22.6573992 37.9992383,22.7346523 37.9999394,22.7976304 C38.0006404,22.925266 37.9950318,23 37.9950318,23" id="Fill-53" fill="#6F2820"></path>
                                <path d="M45.8699529,40.5267258 C44.8680398,41.0722154 42.0096881,41.5059174 42.0000234,39.6845371 C41.9903586,37.8614758 44.9799899,37.7555718 46.0785506,38.2615574 C47.5290694,38.9306016 47.1199281,39.8459146 45.8699529,40.5267258" id="Fill-54" fill="#F2BABA"></path>
                                <path d="M36.076807,34.9733121 C34.6948179,34.7356846 34.906016,33.0194865 35.2767081,32.1964658 C35.47739,31.7498771 35.8252973,31.2112549 36.3870316,31.0445385 C36.9846958,30.8680152 37.7032951,31.239921 37.8759342,31.7423333 C38.2255941,32.7622454 37.8995954,35.2863768 36.076807,34.9733121" id="Fill-55" fill="#0A0B09"></path>
                                <path d="M36.2033927,64 C38.8241613,64.8435364 45.3398359,67.8756295 44.986153,73.2129539 C44.9407527,73.8941602 40.1026922,75.5986256 40.1107471,76.1037328 L40.2147284,81.9997914 C36.663986,82.0048642 34.607792,81.9157276 33.0180494,81.9157276 L30.2603476,81.9012339 L24.6665919,81.9490633 C23.4100288,81.9737027 21.8510413,82.0026902 19.7845956,81.9997914 L19.8893092,76.1037328 C19.8980963,75.5986256 15.0600358,73.8941602 15.0139033,73.2129539 C14.6594881,67.8756295 21.1751627,64.8435364 23.7966636,64 C23.7966636,64 29.8671224,69.9496855 30.7692702,69.4489263 C31.6721503,68.9481672 36.2033927,64 36.2033927,64" id="Fill-56" fill="#D4ABC5"></path>
                                <path d="M15.3366176,73 C15.230202,75.0518519 14.8794507,80.2807407 15.0425746,81.6362963 C15.0908816,82.0459259 16.6871152,81.9948148 19.8998854,82 L20,75.6548148 L15.3366176,73" id="Fill-57" fill="#F7CFC0"></path>
                            </g>
                        </g>
                    </g>
                </g>
            </g>
        </g>
    </g>
</svg>