<?xml version="1.0" encoding="UTF-8"?>
<svg width="50px" height="50px" viewBox="0 0 50 50" version="1.1" xmlns="http://www.w3.org/2000/svg" xmlns:xlink="http://www.w3.org/1999/xlink">
    <!-- Generator: Sketch 49.3 (51167) - http://www.bohemiancoding.com/sketch -->
    <title>Icon</title>
    <desc>Created with Sketch.</desc>
    <defs></defs>
    <g id="Zilla-Slab/Lato" stroke="none" stroke-width="1" fill="none" fill-rule="evenodd">
        <g id="⟶-Achievements" transform="translate(-25.000000, -514.000000)">
            <g id="5" transform="translate(25.000000, 514.000000)">
                <g id="Icon">
                    <ellipse id="Oval-2" fill="#2E4A6E" cx="25" cy="24.8470588" rx="25" ry="24.8470588"></ellipse>
                    <path d="M32.0769231,22.8461538 L30.5384615,22.8461538 L30.5384615,18.5384615 C30.5384615,15.4796923 28.0587692,13 25,13 C21.9412308,13 19.4615385,15.4796923 19.4615385,18.5384615 L19.4615385,22.8461538 L17.9230769,22.8461538 C17.4132308,22.8461538 17,23.2593846 17,23.7692308 L17,31.7692308 C17,32.2790769 17.4132308,32.6923077 17.9230769,32.6923077 L32.0769231,32.6923077 C32.5867692,32.6923077 33,32.2790769 33,31.7692308 L33,23.7692308 C33,23.2593846 32.5867692,22.8461538 32.0769231,22.8461538 Z M25.9230769,28.1286154 L25.9230769,29.9230769 C25.9230769,30.4329231 25.5098462,30.8461538 25,30.8461538 C24.4901538,30.8461538 24.0769231,30.4329231 24.0769231,29.9230769 L24.0769231,28.1286154 C23.5273846,27.8089231 23.1538462,27.22 23.1538462,26.5384615 C23.1538462,25.5187692 23.9803077,24.6923077 25,24.6923077 C26.0196923,24.6923077 26.8461538,25.5187692 26.8461538,26.5384615 C26.8461538,27.22 26.4726154,27.8089231 25.9230769,28.1286154 Z M28.6923077,22.8461538 L21.3076923,22.8461538 L21.3076923,18.5384615 C21.3076923,16.4993846 22.9609231,14.8461538 25,14.8461538 C27.0390769,14.8461538 28.6923077,16.4993846 28.6923077,18.5384615 L28.6923077,22.8461538 Z" id="Shape" fill="#7AA2D6" fill-rule="nonzero" opacity="0.5"></path>
                </g>
            </g>
        </g>
    </g>
</svg>