<?xml version="1.0" encoding="UTF-8"?>
<svg width="50px" height="50px" viewBox="0 0 50 50" version="1.1" xmlns="http://www.w3.org/2000/svg" xmlns:xlink="http://www.w3.org/1999/xlink">
    <!-- Generator: Sketch 49.3 (51167) - http://www.bohemiancoding.com/sketch -->
    <title>002-medal copy</title>
    <desc>Created with Sketch.</desc>
    <defs>
        <rect id="path-1" x="0" y="0" width="50" height="50" rx="25"></rect>
    </defs>
    <g id="Zilla-Slab/Lato" stroke="none" stroke-width="1" fill="none" fill-rule="evenodd">
        <g id="⟶-Achievements" transform="translate(-25.000000, -289.000000)">
            <g id="2" transform="translate(25.000000, 289.000000)">
                <g id="Icon">
                    <g id="002-medal-copy">
                        <mask id="mask-2" fill="white">
                            <use xlink:href="#path-1"></use>
                        </mask>
                        <use id="Mask" fill="#5BED72" xlink:href="#path-1"></use>
                        <g id="001-crown" mask="url(#mask-2)">
                            <g transform="translate(8.333333, 11.666667)">
                                <path d="M30.0724609,26.1294271 L3.2608724,26.1294271 C2.66041667,26.1294271 2.17389323,25.6429036 2.17389323,25.0424479 L2.17389323,20.6946615 C2.17389323,20.0942057 2.66041667,19.6076823 3.2608724,19.6076823 L30.0724609,19.6076823 C30.6729167,19.6076823 31.1594401,20.0942057 31.1594401,20.6946615 L31.1594401,25.042513 C31.1594401,25.6429036 30.6729167,26.1294271 30.0724609,26.1294271 Z" id="Shape" fill="#FFC033" fill-rule="nonzero"></path>
                                <path d="M31.1594401,21.7815755 L2.17389323,21.7815755 L2.17389323,1.12942708 C2.17389323,0.676497396 2.45449219,0.271028646 2.87838542,0.111848958 C3.30332031,-0.0459635417 3.78066406,0.0729166667 4.07890625,0.413671875 L10.7527995,8.04075521 L15.7623047,0.5265625 C16.192513,-0.118815104 17.1408854,-0.118815104 17.5710938,0.5265625 L22.580599,8.04075521 L29.2544922,0.413606771 C29.553125,0.0728515625 30.0315104,-0.0460286458 30.455013,0.111783854 C30.8788411,0.270963542 31.1594401,0.676497396 31.1594401,1.12936198 L31.1594401,21.7815755 Z" id="Shape" fill="#FFE14D" fill-rule="nonzero"></path>
                                <g id="Group" stroke-width="1" fill="none" fill-rule="evenodd" transform="translate(0.000000, 10.872396)">
                                    <path d="M16.6666667,6.56139323 C14.8685547,6.56139323 13.4057943,5.09863281 13.4057943,3.30052083 C13.4057943,1.50240885 14.8685547,0.0396484375 16.6666667,0.0396484375 C18.4647786,0.0396484375 19.9275391,1.50240885 19.9275391,3.30052083 C19.9275391,5.09863281 18.4647786,6.56139323 16.6666667,6.56139323 Z" id="Shape" fill="#F37B2A" fill-rule="nonzero"></path>
                                    <path d="M3.2608724,6.56139323 C1.46276042,6.56139323 0,5.09863281 0,3.30052083 C0,1.50240885 1.46276042,0.0396484375 3.2608724,0.0396484375 C5.05898438,0.0396484375 6.52174479,1.50240885 6.52174479,3.30052083 C6.52174479,5.09863281 5.05898438,6.56139323 3.2608724,6.56139323 Z" id="Shape" fill="#F37B2A" fill-rule="nonzero"></path>
                                </g>
                                <path d="M30.0724609,19.6076823 L16.6666667,19.6076823 L16.6666667,26.1294271 L30.0724609,26.1294271 C30.6729167,26.1294271 31.1594401,25.6429036 31.1594401,25.0424479 L31.1594401,20.6946615 C31.1594401,20.0942057 30.6729167,19.6076823 30.0724609,19.6076823 Z" id="Shape" fill="#F9A926" fill-rule="nonzero"></path>
                                <path d="M31.1594401,21.7815755 L31.1594401,1.12942708 C31.1594401,0.676497396 30.8788411,0.271028646 30.4549479,0.111848958 C30.0313802,-0.0459635417 29.5530599,0.0729166667 29.2544271,0.413671875 L22.5805339,8.0406901 L17.5710286,0.526497396 C17.3559245,0.203776042 17.0113281,0.0424479167 16.6666667,0.0424479167 L16.6666667,21.7815755 L31.1594401,21.7815755 Z" id="Shape" fill="#FFCC33" fill-rule="nonzero"></path>
                                <g id="Group" stroke-width="1" fill="none" fill-rule="evenodd" transform="translate(16.666667, 10.872396)">
                                    <path d="M3.2608724,3.30052083 C3.2608724,1.50240885 1.79811198,0.0396484375 0,0.0396484375 L0,6.56139323 C1.79811198,6.56139323 3.2608724,5.09863281 3.2608724,3.30052083 Z" id="Shape" fill="#E56722" fill-rule="nonzero"></path>
                                    <path d="M13.4057943,6.56139323 C11.6076823,6.56139323 10.1449219,5.09863281 10.1449219,3.30052083 C10.1449219,1.50240885 11.6076823,0.0396484375 13.4057943,0.0396484375 C15.2039062,0.0396484375 16.6666667,1.50240885 16.6666667,3.30052083 C16.6666667,5.09863281 15.2039062,6.56139323 13.4057943,6.56139323 Z" id="Shape" fill="#E56722" fill-rule="nonzero"></path>
                                </g>
                            </g>
                        </g>
                    </g>
                </g>
            </g>
        </g>
    </g>
</svg>