<?xml version="1.0" encoding="UTF-8"?>
<svg width="50px" height="50px" viewBox="0 0 50 50" version="1.1" xmlns="http://www.w3.org/2000/svg" xmlns:xlink="http://www.w3.org/1999/xlink">
    <!-- Generator: Sketch 49.3 (51167) - http://www.bohemiancoding.com/sketch -->
    <title>002-medal</title>
    <desc>Created with Sketch.</desc>
    <defs>
        <rect id="path-1" x="0" y="0" width="50" height="50" rx="25"></rect>
    </defs>
    <g id="Zilla-Slab/Lato" stroke="none" stroke-width="1" fill="none" fill-rule="evenodd">
        <g id="⟶-Achievements" transform="translate(-25.000000, -214.000000)">
            <g id="1" transform="translate(25.000000, 214.000000)">
                <g id="Icon">
                    <g id="002-medal">
                        <mask id="mask-2" fill="white">
                            <use xlink:href="#path-1"></use>
                        </mask>
                        <use id="Mask" fill="#6665FF" xlink:href="#path-1"></use>
                        <g mask="url(#mask-2)" fill-rule="nonzero">
                            <g transform="translate(11.666667, 3.333333)">
                                <polygon id="Shape" fill="#F1543F" points="9.34196864 7.7572695 18.5029339 7.7572695 26.555748 0 17.3947121 0"></polygon>
                                <path d="M20.2021742,11.8945412 L7.19941128,11.8945412 L7.19941128,6.20580146 L20.2021035,6.20580146 L20.2021035,11.8945412 L20.2021742,11.8945412 Z M8.67699316,10.4169593 L18.7245216,10.4169593 L18.7245216,7.68345404 L8.67699316,7.68345404 L8.67699316,10.4169593 Z" id="Shape" fill="#F8B64C"></path>
                                <polygon id="Shape" fill="#FF7058" points="18.5029339 7.7572695 9.34196864 7.7572695 1.21526832 0 10.4501197 0"></polygon>
                                <circle id="Oval" fill="#FFD15C" cx="13.7008281" cy="21.7942973" r="13.667597"></circle>
                                <path d="M13.7008281,32.1373705 C8.01215909,32.1373705 3.35775497,27.4829663 3.35775497,21.7942973 C3.35775497,16.1056283 8.01215909,11.4512242 13.7008281,11.4512242 C19.3894971,11.4512242 24.0439012,16.1056283 24.0439012,21.7942973 C24.0439012,27.4829663 19.3894971,32.1373705 13.7008281,32.1373705 Z" id="Shape" fill="#F8B64C"></path>
                                <polygon id="Shape" fill="#FFD15C" points="13.7008281 12.4855598 15.8433148 18.9869059 22.714021 18.9869059 17.0992381 23.0502207 19.2417248 29.5515668 13.7008281 25.488252 8.15986071 29.5515668 10.3023474 23.0502207 4.68756452 18.9869059 11.5582707 18.9869059"></polygon>
                            </g>
                        </g>
                    </g>
                </g>
            </g>
        </g>
    </g>
</svg>