<?xml version="1.0" encoding="UTF-8"?>
<svg width="50px" height="67px" viewBox="0 0 50 67" version="1.1" xmlns="http://www.w3.org/2000/svg" xmlns:xlink="http://www.w3.org/1999/xlink">
    <!-- Generator: Sketch 50.2 (55047) - http://www.bohemiancoding.com/sketch -->
    <title>bookmark</title>
    <desc>Created with Sketch.</desc>
    <defs></defs>
    <g id="Zilla-Slab/Lato" stroke="none" stroke-width="1" fill="none" fill-rule="evenodd">
        <g id="⟶-Congrats" transform="translate(-163.000000, -549.000000)" fill-rule="nonzero">
            <g id="bookmark" transform="translate(163.000000, 549.000000)">
                <path d="M4.13630512,0 L45.4962841,0 C47.7793695,0 49.6323529,1.85431844 49.6323529,4.14380507 L49.6323529,62.1561291 C49.6323529,64.5739406 47.8103274,66.2999342 45.4962841,66.2999342 C43.5605888,66.2999342 28.8903295,57.1112086 26.8842109,55.9406582 C24.8762017,54.7701079 24.8452438,54.7016837 22.7481421,55.9406582 C20.6512767,57.1857885 6.10910265,66.2999342 4.1360688,66.2999342 C1.79295817,66.2999342 0,64.636209 0,62.1561291 L0,4.14380507 C0.000236319781,1.85431844 1.85321972,0 4.13630512,0 Z" id="Shape" fill="#278AB5"></path>
                <path d="M45.4292644,0 L24.4402985,0 L24.4402985,55.0443766 C24.9818781,55.0401145 25.5001922,55.3469874 26.5392191,55.9458157 C28.5666646,57.1124536 43.3492919,66.2336345 45.3956855,66.2999342 L45.4942635,66.2999342 C47.8114469,66.2667843 49.6268657,64.557436 49.6268657,62.1621227 L49.6268657,4.14420465 C49.6271055,1.85449725 47.7464477,0 45.4292644,0 Z" id="Shape" fill-opacity="0.1" fill="#000000"></path>
                <path d="M17.1641791,15.7965015 L13.4846005,15.5243014 L11.5668045,11.5671642 L9.62734895,15.5243014 L5.97014925,15.7965015 L8.4180865,18.8509162 L7.71866444,22.761194 L11.5668045,20.9614267 L15.4149446,22.761194 L14.7029743,18.8509162 C14.7028944,18.8509962 17.1641791,15.7965015 17.1641791,15.7965015 Z" id="Shape" fill="#EFC75E"></path>
                <path d="M29.8507463,8.3338149 L26.1711676,8.06161478 L24.2533717,4.10447761 L22.3139161,8.06161478 L18.6567164,8.3338149 L21.1046537,11.3882297 L20.4052316,15.2985075 L24.2533717,13.4987401 L28.1015118,15.2985075 L27.3895415,11.3882297 C27.3894616,11.3883096 29.8507463,8.3338149 29.8507463,8.3338149 Z" id="Shape" fill-opacity="0.3" fill="#000000"></path>
                <path d="M42.5373134,15.7965015 L38.8577348,15.5243014 L36.9399388,11.5671642 L35.0004833,15.5243014 L31.3432836,15.7965015 L33.7912208,18.8509162 L33.0917988,22.761194 L36.9399388,20.9614267 L40.7880789,22.761194 L40.0761087,18.8509162 C40.0760287,18.8509962 42.5373134,15.7965015 42.5373134,15.7965015 Z" id="Shape" fill-opacity="0.3" fill="#000000"></path>
                <g id="crown" transform="translate(14.000000, 23.000000)">
                    <path d="M1.71958115,19.1658639 L21.2322513,19.1658639 C21.9797513,19.1658639 22.5857592,19.770788 22.5857592,20.5169634 C22.5857592,21.2631387 21.9797513,21.8680628 21.2322513,21.8680628 L1.71958115,21.8680628 C0.972081152,21.8680628 0.366073298,21.2631387 0.366073298,20.5169634 C0.366073298,19.770788 0.972081152,19.1658639 1.71958115,19.1658639 Z" id="Shape" fill="#CE7419"></path>
                    <g id="Group" transform="translate(1.685864, 2.649215)">
                        <path d="M0.0337172775,3.71371728 C5.18282723,10.3656545 8.47748691,9.31078534 9.79246073,0.00481675393 C11.1074346,9.31078534 14.4020942,10.3656545 19.5512042,3.71371728 L19.5512042,16.5166492 L0.0337172775,16.5166492 L0.0337172775,3.71371728 Z" id="Shape" fill="#FCBA29"></path>
                        <path d="M9.79246073,0.00481675393 C11.1074346,9.31078534 14.4020942,10.3656545 19.5512042,3.71371728 L19.5512042,16.5166492 L9.79246073,16.5166492 L9.79246073,0.00481675393 Z" id="Shape" fill="#E99A23"></path>
                    </g>
                    <g id="Group" fill="#FCBA29">
                        <circle id="Oval" cx="1.11267016" cy="5.37549738" r="1.11267016"></circle>
                        <circle id="Oval" cx="21.8439791" cy="5.49591623" r="1.11267016"></circle>
                        <circle id="Oval" cx="11.4783246" cy="1.32942408" r="1.32460733"></circle>
                    </g>
                    <g id="Group" transform="translate(3.913613, 11.379581)" fill="#CE7419">
                        <polygon id="Shape" points="7.56471204 0.00722513089 8.51842932 1.27884817 9.47696335 2.5504712 8.51842932 3.82209424 7.56471204 5.09371728 6.61099476 3.82209424 5.65246073 2.5504712 6.61099476 1.27884817"></polygon>
                        <polygon id="Shape" points="13.7060733 1.1391623 14.3900524 2.04471204 15.0692147 2.95507853 14.3900524 3.86062827 13.7060733 4.76617801 13.0220942 3.86062827 12.3429319 2.95507853 13.0220942 2.04471204"></polygon>
                        <polygon id="Shape" points="1.42335079 1.1391623 2.10732984 2.04471204 2.78649215 2.95507853 2.10732984 3.86062827 1.42335079 4.76617801 0.739371728 3.86062827 0.0553926702 2.95507853 0.739371728 2.04471204"></polygon>
                    </g>
                    <g id="Group" transform="translate(4.756545, 2.649215)" fill="#FCBA29">
                        <circle id="Oval" cx="1.16324607" cy="1.13675393" r="1.11267016"></circle>
                        <circle id="Oval" cx="12.2803141" cy="1.13675393" r="1.11267016"></circle>
                    </g>
                    <g id="Group" transform="translate(4.154450, 4.816754)" fill="#CE7419">
                        <path d="M2.06879581,0.0385340314 C2.28073298,3.27057592 0.0361256545,4.27246073 0.0361256545,4.27246073 C2.70460733,6.64230366 4.71801047,6.28586387 6.05225131,3.08272251 C3.52827225,3.59811518 2.3,0.597277487 2.09287958,0.0337172775 L2.06879581,0.0385340314 Z" id="Shape"></path>
                        <path d="M8.59549738,3.08272251 C9.92492147,6.28586387 11.9431414,6.64230366 14.611623,4.27246073 C14.611623,4.27246073 12.3718325,3.27057592 12.5789529,0.0385340314 L12.5548691,0.0385340314 C12.3477487,0.597277487 11.1194764,3.59811518 8.59549738,3.08272251 Z" id="Shape"></path>
                    </g>
                </g>
            </g>
        </g>
    </g>
</svg>