<?xml version="1.0" encoding="UTF-8"?>
<svg width="29px" height="29px" viewBox="0 0 29 29" version="1.1" xmlns="http://www.w3.org/2000/svg" xmlns:xlink="http://www.w3.org/1999/xlink">
    <!-- Generator: Sketch 50.2 (55047) - http://www.bohemiancoding.com/sketch -->
    <title>Group 7</title>
    <desc>Created with Sketch.</desc>
    <defs>
        <rect id="path-1" x="0" y="0" width="25" height="25" rx="5"></rect>
        <filter x="-14.0%" y="-10.0%" width="128.0%" height="128.0%" filterUnits="objectBoundingBox" id="filter-2">
            <feOffset dx="0" dy="1" in="SourceAlpha" result="shadowOffsetOuter1"></feOffset>
            <feGaussianBlur stdDeviation="1" in="shadowOffsetOuter1" result="shadowBlurOuter1"></feGaussianBlur>
            <feColorMatrix values="0 0 0 0 0.121568627   0 0 0 0 0.192156863   0 0 0 0 0.290196078  0 0 0 0.13 0" type="matrix" in="shadowBlurOuter1"></feColorMatrix>
        </filter>
    </defs>
    <g id="Page-1" stroke="none" stroke-width="1" fill="none" fill-rule="evenodd">
        <g id="⟶-More" transform="translate(-18.000000, -330.000000)">
            <g id="General" transform="translate(20.000000, 200.000000)">
                <g id="achievments" transform="translate(0.000000, 131.000000)">
                    <g id="Group-7">
                        <g id="Rectangle-3">
                            <use fill="black" fill-opacity="1" filter="url(#filter-2)" xlink:href="#path-1"></use>
                            <use fill="#3FC9DD" fill-rule="evenodd" xlink:href="#path-1"></use>
                        </g>
                        <path d="M18.7811196,9.21857516 C18.6353271,9.07280998 18.4583128,8.99985897 18.2499674,8.99985897 L15.9999242,8.99985897 L15.9999242,8.24990844 C15.9999242,7.90616857 15.877719,7.61198394 15.6328433,7.36713563 C15.3880771,7.12236942 15.0936736,7 14.7499884,7 L10.2500389,7 C9.90629907,7 9.61197762,7.12234206 9.36718405,7.36713563 C9.12236311,7.61195657 9.00002105,7.9061412 9.00002105,8.24990844 L9.00002105,8.99988634 L6.7499779,8.99988634 C6.54168719,8.99988634 6.3646182,9.07275525 6.21874355,9.21860253 C6.07286891,9.3644498 6,9.54154616 6,9.7498916 L6,10.7498621 C6,11.1195973 6.10805833,11.4920141 6.32422972,11.8670578 C6.54034638,12.2420193 6.83195885,12.5806696 7.1992313,12.8826255 C7.56636693,13.1847181 8.01687905,13.4386511 8.55076765,13.644397 C9.08468362,13.8501429 9.64582623,13.9660546 10.2344144,13.9919951 C10.4532127,14.273401 10.7005237,14.5206847 10.9765663,14.7341197 C11.174541,14.9111887 11.3111668,15.0998598 11.3867174,15.3006529 C11.4621858,15.5010356 11.4999474,15.7341176 11.4999474,15.9997895 C11.4999474,16.281086 11.4205933,16.5179988 11.2616663,16.7105282 C11.1029035,16.9034406 10.8489705,16.9997053 10.5000316,16.9997053 C10.1093634,16.9997053 9.76176524,17.1182439 9.45704567,17.3551568 C9.15238083,17.5922612 9.00002105,17.8904135 9.00002105,18.2498053 L9.00002105,18.7496811 C9.00002105,18.8227142 9.02341681,18.8826402 9.07029043,18.9294591 C9.11719141,18.976278 9.17703532,18.9996737 9.24998632,18.9996737 L15.7500137,18.9996737 C15.8230741,18.9996737 15.8828086,18.976278 15.929819,18.9294591 C15.9764464,18.8826402 15.9998695,18.8227142 15.9998695,18.7496811 L15.9998695,18.2498053 C15.9998695,17.8903862 15.8476192,17.5923433 15.5427081,17.3551568 C15.2379885,17.1182439 14.8903904,16.9997053 14.4997222,16.9997053 C14.1508927,16.9997053 13.8968503,16.9034133 13.7382242,16.7105282 C13.5794067,16.5179988 13.5001894,16.2811133 13.5001894,15.9997895 C13.5001894,15.7340082 13.5378416,15.5010356 13.61331,15.3006529 C13.6889974,15.0998598 13.8257052,14.9112982 14.023461,14.7341197 C14.299531,14.5206026 14.5469241,14.2731821 14.7654761,13.9919951 C15.3543106,13.9660546 15.9153164,13.8501156 16.4493418,13.644397 C16.9830115,13.4386511 17.4337152,13.1847181 17.8007961,12.8826255 C18.1680685,12.5805602 18.459681,12.2420193 18.6757976,11.8670578 C18.8919143,11.4920141 19,11.1196247 19,10.7498621 L19,9.7498916 C18.9998905,9.54165562 18.9269395,9.36450453 18.7811196,9.21857516 Z M7.73826423,12.0153951 C7.24607755,11.5779354 7.00002526,11.1560454 7.00002526,10.74978 L7.00002526,9.99980214 L8.99999369,9.99980214 C8.99999369,11.0884303 9.19263249,12.0545249 9.57807429,12.89825 C8.84380302,12.7472584 8.23050563,12.4528549 7.73826423,12.0153951 Z M17.9998653,10.7498621 C17.9998653,11.1561275 17.7539772,11.5781269 17.2617905,12.0155593 C16.7694123,12.453019 16.1561423,12.7473405 15.4218984,12.8983321 C15.8073401,12.0546343 15.9999516,11.0885124 15.9999516,9.99988423 L17.9998653,9.99988423 L17.9998653,10.7498621 L17.9998653,10.7498621 Z" id="Shape" fill="#FFFFFF" fill-rule="nonzero"></path>
                    </g>
                </g>
            </g>
        </g>
    </g>
</svg>