<?xml version="1.0" encoding="UTF-8"?>
<svg width="29px" height="27px" viewBox="0 0 29 27" version="1.1" xmlns="http://www.w3.org/2000/svg" xmlns:xlink="http://www.w3.org/1999/xlink">
    <!-- Generator: Sketch 49.3 (51167) - http://www.bohemiancoding.com/sketch -->
    <title>Achievments</title>
    <desc>Created with Sketch.</desc>
    <defs></defs>
    <g id="Zilla-Slab/Lato" stroke="none" stroke-width="1" fill="none" fill-rule="evenodd" opacity="0.700000048">
        <g id="⟶-Congrats" transform="translate(-321.000000, -615.000000)" fill-rule="nonzero" stroke="#FFFFFF" stroke-width="2">
            <path d="M348.804522,620.656137 C348.667291,620.518998 348.526935,620.461224 348.32685,620.461224 L342.307523,620.461224 L342.307523,617.788257 C342.307523,617.286892 342.140424,616.884942 341.781544,616.526102 C341.422804,616.167361 341.0203,616 340.519205,616 L330.480856,616 C329.979655,616 329.577329,616.16729 329.218517,616.526102 C328.85957,616.885049 328.692355,617.287099 328.692355,617.788257 L328.692355,620.461285 L322.673028,620.461285 C322.472735,620.461285 322.332298,620.519098 322.195007,620.656363 C322.057806,620.793538 322,620.933961 322,621.134374 L322,623.365077 C322,624.006874 322.191706,624.667469 322.589675,625.35792 C323.010531,626.088103 323.582279,626.751795 324.310597,627.350587 C325.042684,627.952975 325.954563,628.466946 327.049752,628.889001 C328.139416,629.308906 329.284627,629.545372 330.490031,629.598497 L330.951762,629.618847 L331.235453,629.983715 C331.672184,630.545413 332.164221,631.037423 332.768227,631.507671 C333.324187,632.004923 333.723729,632.556767 333.952353,633.164388 C334.165712,633.730896 334.269113,634.369294 334.269113,635.076454 C334.269113,635.929323 334.016236,636.683771 333.509702,637.297401 C332.9448,637.983813 332.09317,638.307035 331.038532,638.307035 C330.388869,638.307035 329.829525,638.497691 329.326042,638.889138 C328.884856,639.23249 328.692355,639.609289 328.692355,640.09572 L328.692355,640.768503 L342.307401,640.768503 L342.307401,640.09572 C342.307401,639.609122 342.115065,639.232697 341.673786,638.889432 C341.169925,638.497691 340.610582,638.307035 339.960919,638.307035 C338.906366,638.307035 338.054426,637.983664 337.490782,637.298285 C336.983703,636.68357 336.731192,635.929325 336.731192,635.076454 C336.731192,634.368818 336.8344,633.73076 337.047807,633.164125 C337.276662,632.55699 337.67584,632.00581 338.286701,631.462015 C338.835772,631.037354 339.327998,630.545061 339.7642,629.983848 L340.047899,629.618843 L340.509743,629.598497 C341.715342,629.545385 342.860311,629.308964 343.950347,628.889057 C345.045702,628.466765 345.957859,627.952669 346.68964,627.350443 C347.418004,626.751395 347.989684,626.087837 348.410339,625.358002 C348.808296,624.667397 349,624.006821 349,623.365077 L349,621.134899 C348.999895,620.934573 348.941889,620.793673 348.804522,620.656137 Z M325.541976,625.440732 C325.541983,625.440738 325.54199,625.440744 325.541997,625.44075 L325.541955,625.440713 C325.541962,625.440719 325.541969,625.440726 325.541976,625.440732 Z M324.213377,626.935665 L324.213336,626.935628 C322.921868,625.78776 322.230826,624.603012 322.230826,623.364894 L322.230826,620.691866 L328.692294,620.691866 L328.692294,621.691866 C328.692294,623.98256 329.093905,625.99632 329.891439,627.742108 L330.710001,629.533924 L328.780438,629.13714 C326.976207,628.766127 325.447626,628.032553 324.213377,626.935665 Z M348.76893,623.365077 C348.76893,624.603328 348.077987,625.788436 346.786642,626.936123 C345.552167,628.032907 344.023717,628.7663 342.219508,629.137321 L340.289902,629.53413 L341.108505,627.74228 C341.905997,625.996641 342.307584,623.982845 342.307584,621.692049 L342.307584,620.692049 L348.76893,620.692049 L348.76893,623.365077 Z" id="Achievments"></path>
        </g>
    </g>
</svg>