<?xml version="1.0" encoding="UTF-8"?>
<svg width="50px" height="67px" viewBox="0 0 50 67" version="1.1" xmlns="http://www.w3.org/2000/svg" xmlns:xlink="http://www.w3.org/1999/xlink">
    <!-- Generator: Sketch 50.2 (55047) - http://www.bohemiancoding.com/sketch -->
    <title>bookmark</title>
    <desc>Created with Sketch.</desc>
    <defs></defs>
    <g id="Zilla-Slab/Lato" stroke="none" stroke-width="1" fill="none" fill-rule="evenodd">
        <g id="⟶-Congrats" transform="translate(-163.000000, -549.000000)" fill-rule="nonzero">
            <g id="bookmark" transform="translate(163.000000, 549.000000)">
                <path d="M4.13630512,0 L45.4962841,0 C47.7793695,0 49.6323529,1.85431844 49.6323529,4.14380507 L49.6323529,62.1561291 C49.6323529,64.5739406 47.8103274,66.2999342 45.4962841,66.2999342 C43.5605888,66.2999342 28.8903295,57.1112086 26.8842109,55.9406582 C24.8762017,54.7701079 24.8452438,54.7016837 22.7481421,55.9406582 C20.6512767,57.1857885 6.10910265,66.2999342 4.1360688,66.2999342 C1.79295817,66.2999342 0,64.636209 0,62.1561291 L0,4.14380507 C0.000236319781,1.85431844 1.85321972,0 4.13630512,0 Z" id="Shape" fill="#FF6B7D"></path>
                <path d="M45.4292644,0 L24.4402985,0 L24.4402985,55.0443766 C24.9818781,55.0401145 25.5001922,55.3469874 26.5392191,55.9458157 C28.5666646,57.1124536 43.3492919,66.2336345 45.3956855,66.2999342 L45.4942635,66.2999342 C47.8114469,66.2667843 49.6268657,64.557436 49.6268657,62.1621227 L49.6268657,4.14420465 C49.6271055,1.85449725 47.7464477,0 45.4292644,0 Z" id="Shape" fill-opacity="0.1" fill="#000000"></path>
                <path d="M17.1641791,15.7965015 L13.4846005,15.5243014 L11.5668045,11.5671642 L9.62734895,15.5243014 L5.97014925,15.7965015 L8.4180865,18.8509162 L7.71866444,22.761194 L11.5668045,20.9614267 L15.4149446,22.761194 L14.7029743,18.8509162 C14.7028944,18.8509962 17.1641791,15.7965015 17.1641791,15.7965015 Z" id="Shape" fill="#EFC75E"></path>
                <path d="M29.8507463,8.3338149 L26.1711676,8.06161478 L24.2533717,4.10447761 L22.3139161,8.06161478 L18.6567164,8.3338149 L21.1046537,11.3882297 L20.4052316,15.2985075 L24.2533717,13.4987401 L28.1015118,15.2985075 L27.3895415,11.3882297 C27.3894616,11.3883096 29.8507463,8.3338149 29.8507463,8.3338149 Z" id="Shape" fill="#EFC75E"></path>
                <path d="M42.5373134,15.7965015 L38.8577348,15.5243014 L36.9399388,11.5671642 L35.0004833,15.5243014 L31.3432836,15.7965015 L33.7912208,18.8509162 L33.0917988,22.761194 L36.9399388,20.9614267 L40.7880789,22.761194 L40.0761087,18.8509162 C40.0760287,18.8509962 42.5373134,15.7965015 42.5373134,15.7965015 Z" id="Shape" fill="#EFC75E"></path>
                <g id="tooth" transform="translate(14.000000, 25.000000)">
                    <path d="M11.011543,5.50289063 C9.57248047,5.51572266 6.01654297,4.15376953 5.01892578,5.57554688 C3.92984375,7.12775391 4.11119141,10.5126563 4.86324219,11.6767969 C5.61529297,12.8410547 6.18576172,13.6386328 6.18576172,14.0698828 C6.18576172,14.5011328 6.081875,21.5508984 6.13384766,22.0898438 C6.18564453,22.6288477 6.36716797,23.0169141 6.60060547,23.0169141 C6.83392578,23.0169141 7.59705078,21.7449023 7.96009766,20.817832 C8.32314453,19.8908789 10.2479492,15.547793 11.0776953,15.547793 C12.7173828,15.547793 15.2858984,23.0169727 15.4223633,23.0169727 C15.6556836,23.0169727 15.8373242,22.6289063 15.8891211,22.0899023 C15.940918,21.5508984 15.837207,14.5011328 15.837207,14.0699414 C15.837207,13.6388086 16.4077344,12.8410547 17.1597266,11.6768555 C17.9117773,10.5127148 18.093125,7.1278125 17.004043,5.57560547 C16.0064258,4.15382813 12.9433789,5.66666016 11.0114258,5.50294922 L11.011543,5.50294922 L11.011543,5.50289063 Z" id="Shape" fill="#EEF3F7"></path>
                    <g id="Group" transform="translate(4.203125, 4.910156)" fill="#FFFFFF">
                        <path d="M5.79966797,0.481171875 C4.35761719,0.341777344 2.36103516,0.443144531 1.59439453,0.890566406 C0.827929688,1.33792969 0.167109375,5.03138672 1.25630859,6.69128906 C2.34539062,8.35125 2.65658203,8.8471875 2.42314453,10.3131445 C2.18982422,11.779043 2.03490234,17.2981055 2.39759766,18.106582 C2.16427734,18.106582 1.98275391,17.7185156 1.93083984,17.1795117 C1.87904297,16.6405078 1.98275391,9.59074219 1.98275391,9.15966797 C1.98275391,8.72841797 1.41222656,7.93078125 0.660234375,6.76658203 C-0.0918164063,5.60244141 -0.273164063,2.21753906 0.815917969,0.665332031 C1.62544922,-0.488320312 4.11919922,0.190839844 5.79984375,0.481113281 L5.79966797,0.481171875 Z" id="Shape"></path>
                        <path d="M11.2192969,18.1065234 C10.310918,15.9655078 8.82087891,10.1548828 6.84761719,10.6388086 C8.12507812,10.6388086 10.6140234,18.2120508 11.2192969,18.1065234 Z" id="Shape"></path>
                    </g>
                    <g id="Group" transform="translate(8.539063, 5.496094)" fill="#D9DADA">
                        <path d="M7.33628906,11.861543 C7.31824219,10.230293 7.29814453,8.76304688 7.29814453,8.57355469 C7.29814453,8.14230469 7.86867188,7.34466797 8.62066406,6.18046875 C9.03521484,5.53851563 9.27626953,4.2215625 9.22669922,2.90882813 C9.14185547,5.05658203 7.02966797,7.70255859 6.86759766,8.06753906 C6.70529297,8.43251953 7.32234375,10.5222656 7.33617188,11.8603125 L7.33628906,11.8614844 L7.33628906,11.861543 Z" id="Shape"></path>
                        <path d="M2.56851562,0.448886719 C1.61537109,0.480292969 0.591269531,-0.0606445313 0.04359375,0.251777344 C0.04359375,0.251777344 1.37197266,0.539707031 2.14265625,0.802792969 C3.51802734,1.27224609 4.87916016,-0.0476953125 5.77277344,0.141855469 C5.00835937,-0.251953125 3.48972656,0.41859375 2.56845703,0.448828125 L2.56845703,0.448945312 L2.56851562,0.448945312 L2.56851562,0.448886719 Z" id="Shape"></path>
                    </g>
                    <g id="Group" transform="translate(0.511719, 0.632813)" fill="#FEFEFE">
                        <path d="M5.75824219,4.47966797 C4.62111328,3.43541016 3.60375,3.43541016 2.53640625,4.47966797 C3.60375,3.43541016 3.60375,2.41804688 2.53640625,1.25794922 C3.60375,2.41804688 4.62111328,2.41804688 5.75824219,1.25794922 C4.62111328,2.41804688 4.62111328,3.43558594 5.75824219,4.47966797 Z" id="Shape"></path>
                        <path d="M13.3031836,0.0191601562 C13.9572656,0.619921875 14.5425,0.619921875 15.1565625,0.0191601562 C14.5425586,0.619921875 14.5425586,1.20498047 15.1565625,1.87236328 C14.5425586,1.20492188 13.9572656,1.20492188 13.3031836,1.87236328 C13.9572656,1.20492188 13.9572656,0.619746094 13.3031836,0.0191601562 Z" id="Shape"></path>
                        <path d="M17.6036719,7.0846875 C18.0271875,7.47339844 18.4059375,7.47339844 18.8033203,7.0846875 C18.4057617,7.47339844 18.4057617,7.85232422 18.8033203,8.28433594 C18.4057617,7.85232422 18.0270117,7.85232422 17.6036719,8.28433594 C18.0271875,7.85226563 18.0271875,7.47351563 17.6036719,7.0846875 Z" id="Shape"></path>
                        <path d="M0.0532617188,9.25511719 C0.70734375,9.85587891 1.29257813,9.85587891 1.90664063,9.25511719 C1.29263672,9.85587891 1.29263672,10.4410547 1.90664063,11.1084961 C1.29263672,10.4410547 0.70734375,10.4410547 0.0532617188,11.1084961 C0.70734375,10.4410547 0.70734375,9.85576172 0.0532617188,9.25511719 Z" id="Shape"></path>
                    </g>
                </g>
            </g>
        </g>
    </g>
</svg>