<?xml version="1.0" encoding="UTF-8"?>
<svg width="50px" height="67px" viewBox="0 0 50 67" version="1.1" xmlns="http://www.w3.org/2000/svg" xmlns:xlink="http://www.w3.org/1999/xlink">
    <!-- Generator: Sketch 50.2 (55047) - http://www.bohemiancoding.com/sketch -->
    <title>bookmark</title>
    <desc>Created with Sketch.</desc>
    <defs></defs>
    <g id="Zilla-Slab/Lato" stroke="none" stroke-width="1" fill="none" fill-rule="evenodd">
        <g id="⟶-Congrats" transform="translate(-163.000000, -549.000000)" fill-rule="nonzero">
            <g id="bookmark" transform="translate(163.000000, 549.000000)">
                <path d="M4.13630512,0 L45.4962841,0 C47.7793695,0 49.6323529,1.85431844 49.6323529,4.14380507 L49.6323529,62.1561291 C49.6323529,64.5739406 47.8103274,66.2999342 45.4962841,66.2999342 C43.5605888,66.2999342 28.8903295,57.1112086 26.8842109,55.9406582 C24.8762017,54.7701079 24.8452438,54.7016837 22.7481421,55.9406582 C20.6512767,57.1857885 6.10910265,66.2999342 4.1360688,66.2999342 C1.79295817,66.2999342 0,64.636209 0,62.1561291 L0,4.14380507 C0.000236319781,1.85431844 1.85321972,0 4.13630512,0 Z" id="Shape" fill="#35C9DF"></path>
                <path d="M45.4292644,0 L24.4402985,0 L24.4402985,55.0443766 C24.9818781,55.0401145 25.5001922,55.3469874 26.5392191,55.9458157 C28.5666646,57.1124536 43.3492919,66.2336345 45.3956855,66.2999342 L45.4942635,66.2999342 C47.8114469,66.2667843 49.6268657,64.557436 49.6268657,62.1621227 L49.6268657,4.14420465 C49.6271055,1.85449725 47.7464477,0 45.4292644,0 Z" id="Shape" fill-opacity="0.1" fill="#000000"></path>
                <path d="M17.1641791,15.7965015 L13.4846005,15.5243014 L11.5668045,11.5671642 L9.62734895,15.5243014 L5.97014925,15.7965015 L8.4180865,18.8509162 L7.71866444,22.761194 L11.5668045,20.9614267 L15.4149446,22.761194 L14.7029743,18.8509162 C14.7028944,18.8509962 17.1641791,15.7965015 17.1641791,15.7965015 Z" id="Shape" fill="#EFC75E"></path>
                <path d="M29.8507463,8.3338149 L26.1711676,8.06161478 L24.2533717,4.10447761 L22.3139161,8.06161478 L18.6567164,8.3338149 L21.1046537,11.3882297 L20.4052316,15.2985075 L24.2533717,13.4987401 L28.1015118,15.2985075 L27.3895415,11.3882297 C27.3894616,11.3883096 29.8507463,8.3338149 29.8507463,8.3338149 Z" id="Shape" fill="#EFC75E"></path>
                <path d="M42.5373134,15.7965015 L38.8577348,15.5243014 L36.9399388,11.5671642 L35.0004833,15.5243014 L31.3432836,15.7965015 L33.7912208,18.8509162 L33.0917988,22.761194 L36.9399388,20.9614267 L40.7880789,22.761194 L40.0761087,18.8509162 C40.0760287,18.8509962 42.5373134,15.7965015 42.5373134,15.7965015 Z" id="Shape" fill-opacity="0.301036005" fill="#000000"></path>
                <g id="badge" transform="translate(15.000000, 24.000000)">
                    <polygon id="Shape" fill="#FFD15C" points="17.6713615 11.5258216 19.9859155 9.76995305 17.6713615 8.00938967 19 5.42253521 16.1502347 4.84976526 16.2253521 1.93896714 13.4131455 2.657277 12.2206573 0 10 1.87793427 7.77934272 0 6.58685446 2.657277 3.77464789 1.9342723 3.84976526 4.84976526 1 5.42253521 2.3286385 8.00938967 0.014084507 9.76995305 2.3286385 11.5258216 1 14.1173709 3.84976526 14.6901408 3.77464789 17.600939 6.58685446 16.8826291 7.77934272 19.5399061 10 17.6619718 12.2206573 19.5399061 13.4131455 16.8826291 16.2253521 17.600939 16.1502347 14.6901408 19 14.1173709"></polygon>
                    <g id="Group" transform="translate(0.234742, 14.788732)" fill="#FF7058">
                        <polygon id="Shape" points="6.35211268 2.09389671 3.5399061 2.81220657 3.6056338 0.178403756 3.05164319 1.16431925 0.014084507 6.5399061 3.48356808 5.57746479 4.44600939 9.06103286 6.92957746 4.6713615 7.24882629 4.09859155"></polygon>
                        <polygon id="Shape" points="16.4741784 0.990610329 15.9201878 0.00469483568 15.9906103 2.81220657 13.1784038 2.09389671 12.3192488 4.00469484 12.6431925 4.57746479 15.1784038 9.06103286 16.1408451 5.57746479 19.6103286 6.5399061"></polygon>
                    </g>
                    <g id="Group" transform="translate(3.192488, 14.788732)" fill="#F1543F">
                        <polygon id="Shape" points="4.29107981 4.09859155 3.97183099 4.6713615 3.09389671 2.71830986 0.0328638498 3.50234742 0.0938967136 1.16431925 0.647887324 0.178403756 0.582159624 2.81220657 3.3943662 2.09389671"></polygon>
                        <polygon id="Shape" points="13.5821596 3.50234742 10.5211268 2.71830986 9.68544601 4.57746479 9.36150235 4.00469484 10.2206573 2.09389671 13.0328638 2.81220657 12.9624413 0.00469483568 13.5164319 0.990610329"></polygon>
                    </g>
                    <ellipse id="Oval" fill="#F8B64C" cx="10" cy="9.76995305" rx="6.20187793" ry="6.22065728"></ellipse>
                    <polygon id="Shape" fill="#F2F2F2" points="8.52112676 12.971831 6.17840376 10.6244131 7.2629108 9.53521127 8.52112676 10.7981221 12.7370892 6.56338028 13.8215962 7.65258216"></polygon>
                </g>
            </g>
        </g>
    </g>
</svg>