<?xml version="1.0" encoding="UTF-8"?>
<svg width="50px" height="67px" viewBox="0 0 50 67" version="1.1" xmlns="http://www.w3.org/2000/svg" xmlns:xlink="http://www.w3.org/1999/xlink">
    <!-- Generator: Sketch 50.2 (55047) - http://www.bohemiancoding.com/sketch -->
    <title>bookmark</title>
    <desc>Created with Sketch.</desc>
    <defs></defs>
    <g id="Zilla-Slab/Lato" stroke="none" stroke-width="1" fill="none" fill-rule="evenodd">
        <g id="⟶-Congrats" transform="translate(-163.000000, -549.000000)" fill-rule="nonzero">
            <g id="bookmark" transform="translate(163.000000, 549.000000)">
                <path d="M4.13630512,0 L45.4962841,0 C47.7793695,0 49.6323529,1.85431844 49.6323529,4.14380507 L49.6323529,62.1561291 C49.6323529,64.5739406 47.8103274,66.2999342 45.4962841,66.2999342 C43.5605888,66.2999342 28.8903295,57.1112086 26.8842109,55.9406582 C24.8762017,54.7701079 24.8452438,54.7016837 22.7481421,55.9406582 C20.6512767,57.1857885 6.10910265,66.2999342 4.1360688,66.2999342 C1.79295817,66.2999342 0,64.636209 0,62.1561291 L0,4.14380507 C0.000236319781,1.85431844 1.85321972,0 4.13630512,0 Z" id="Shape" fill="#90DFAA"></path>
                <path d="M45.4292644,0 L24.4402985,0 L24.4402985,55.0443766 C24.9818781,55.0401145 25.5001922,55.3469874 26.5392191,55.9458157 C28.5666646,57.1124536 43.3492919,66.2336345 45.3956855,66.2999342 L45.4942635,66.2999342 C47.8114469,66.2667843 49.6268657,64.557436 49.6268657,62.1621227 L49.6268657,4.14420465 C49.6271055,1.85449725 47.7464477,0 45.4292644,0 Z" id="Shape" fill-opacity="0.1" fill="#000000"></path>
                <path d="M17.1641791,15.7965015 L13.4846005,15.5243014 L11.5668045,11.5671642 L9.62734895,15.5243014 L5.97014925,15.7965015 L8.4180865,18.8509162 L7.71866444,22.761194 L11.5668045,20.9614267 L15.4149446,22.761194 L14.7029743,18.8509162 C14.7028944,18.8509962 17.1641791,15.7965015 17.1641791,15.7965015 Z" id="Shape" fill="#EFC75E"></path>
                <path d="M29.8507463,8.3338149 L26.1711676,8.06161478 L24.2533717,4.10447761 L22.3139161,8.06161478 L18.6567164,8.3338149 L21.1046537,11.3882297 L20.4052316,15.2985075 L24.2533717,13.4987401 L28.1015118,15.2985075 L27.3895415,11.3882297 C27.3894616,11.3883096 29.8507463,8.3338149 29.8507463,8.3338149 Z" id="Shape" fill-opacity="0.3" fill="#000000"></path>
                <path d="M42.5373134,15.7965015 L38.8577348,15.5243014 L36.9399388,11.5671642 L35.0004833,15.5243014 L31.3432836,15.7965015 L33.7912208,18.8509162 L33.0917988,22.761194 L36.9399388,20.9614267 L40.7880789,22.761194 L40.0761087,18.8509162 C40.0760287,18.8509962 42.5373134,15.7965015 42.5373134,15.7965015 Z" id="Shape" fill-opacity="0.3" fill="#000000"></path>
                <g id="toothbrush" transform="translate(16.000000, 24.000000)">
                    <path d="M16.7419825,6.02393762 L16.1201306,6.64448928 L15.6071813,7.15721442 L15.1387524,7.62452242 L14.6253099,8.13724756 L14.1568811,8.60406238 L13.6434386,9.11678752 L13.1750097,9.58414035 L12.6620604,10.0968655 L12.1931384,10.5642183 L12.1931384,10.5646667 L11.6801891,11.0769435 L11.0583372,11.6974951 L7.65738596,8.30255166 C7.60080507,8.24601559 7.60080507,8.15419493 7.65738596,8.09765887 L8.17665692,7.57955361 L8.68965107,7.06682846 L9.15807992,6.59952047 L9.67152242,6.08679532 L10.1399513,5.61948733 L10.6533938,5.10676218 L11.1218226,4.63945419 L11.6347719,4.12672904 L12.103694,3.65937622 L12.6166433,3.14665107 L13.1359142,2.62863548 C13.19254,2.57209942 13.2844503,2.57209942 13.3411209,2.62863548 L16.7419825,6.02393762 Z" id="Shape" fill="#F7E9E1"></path>
                    <path d="M6.37821832,7.40851072 C5.83437817,6.86561209 5.83437817,5.98542495 6.37821832,5.44252632 L10.0372807,1.78987524 C10.7630585,1.12906238 10.9715828,-0.72788499 11.846345,0.307563353 L12.5899669,1.20765692 C13.133807,1.75055556 13.133807,2.63074269 12.5899669,3.17364133 L8.34765497,7.40851072 C7.80381481,7.95136452 6.92205848,7.95136452 6.37821832,7.40851072 Z" id="Shape" fill="#6DD0E3"></path>
                    <path d="M8.0608499,7.10641715 C7.51700975,6.56351852 7.51700975,5.68333138 8.0608499,5.14043275 L11.7199123,1.48778168 C11.9179454,1.30745809 12.0774659,1.03809357 12.2225049,0.762721248 L11.8464347,0.307518519 C10.9717173,-0.727929825 10.7631481,1.12901754 10.0373704,1.78983041 L6.37830799,5.44248148 C5.83446784,5.98533528 5.83446784,6.86556725 6.37830799,7.40846589 C6.92214815,7.95131969 7.80390448,7.95131969 8.34769981,7.40846589 L8.40046979,7.35574074 C8.27820663,7.29198635 8.16347563,7.20895322 8.0608499,7.10641715 Z" id="Shape" fill="#A1EFFF"></path>
                    <g id="Group" transform="translate(8.159844, 3.138402)" fill="#DED2CA">
                        <path d="M7.96077973,4.01831969 C7.88967251,4.08938207 7.79673099,4.12466667 7.70383431,4.12466667 C7.61093762,4.12466667 7.5179961,4.08938207 7.44733723,4.0188577 L3.94376023,0.520974659 L4.45670955,0.00824951267 L7.96028655,3.50613255 C8.10209747,3.64762963 8.10259064,3.87673294 7.96077973,4.01831969 Z" id="Shape"></path>
                        <path d="M6.97890838,4.99839766 C6.90775634,5.0694152 6.81485965,5.10469981 6.72196296,5.10469981 C6.62951462,5.10469981 6.53661793,5.0694152 6.46546589,4.99889084 L2.96193372,1.50105263 L3.47488304,0.988327485 L6.97890838,4.48621053 C7.1207193,4.62721442 7.1207193,4.85676608 6.97890838,4.99839766 Z" id="Shape"></path>
                        <path d="M5.99703704,5.9784308 C5.92637817,6.04949318 5.83348148,6.08477778 5.74053996,6.08477778 C5.64764327,6.08477778 5.55470175,6.04949318 5.48359454,5.9784308 L1.98001754,2.48104094 L2.49346004,1.96831579 L5.99703704,5.46570565 C6.13884795,5.60733723 6.13884795,5.83688889 5.99703704,5.9784308 Z" id="Shape"></path>
                        <path d="M5.01516569,6.95850877 C4.94450682,7.02952632 4.85161014,7.06481092 4.75866862,7.06481092 C4.66577193,7.06481092 4.57283041,7.02952632 4.50217154,6.95850877 L0.998146199,3.46111891 L1.51158869,2.94839376 L5.01516569,6.44578363 C5.15697661,6.58737037 5.15697661,6.81692203 5.01516569,6.95850877 Z" id="Shape"></path>
                        <path d="M4.03383236,7.93858674 C3.96272515,8.00960429 3.86978363,8.04488889 3.77688694,8.04488889 C3.68399025,8.04488889 3.59104873,8.00960429 3.52038986,7.93858674 L0.0168128655,4.44119688 L0.529807018,3.92847173 L4.03338402,7.42590643 L4.03338402,7.42635478 C4.17510526,7.56794152 4.17510526,7.797 4.03383236,7.93858674 Z" id="Shape"></path>
                    </g>
                    <path d="M0.254031189,22.7268246 C-0.0512007797,22.4221306 -0.0512007797,21.9279669 0.254031189,21.6232729 L16.3061481,5.59931189 C16.6112008,5.29479727 17.1056784,5.29479727 17.4107758,5.59931189 C17.7160078,5.90400585 17.7160078,6.39816959 17.4107758,6.70286355 L1.35861404,22.7268246 C1.0535614,23.0313392 0.559038986,23.0313392 0.254031189,22.7268246 Z" id="Shape" fill="#FFDC7B"></path>
                    <path d="M0.955688109,22.2998674 L17.0078051,6.27590643 C17.1787583,6.10522222 17.4092066,6.03034893 17.6324366,6.05092788 C17.6111404,5.88580312 17.5377466,5.72610331 17.4107758,5.59926706 C17.1057232,5.29475244 16.6112456,5.29475244 16.3061481,5.59926706 L0.254031189,21.6232729 C-0.051245614,21.9279669 -0.051245614,22.4221306 0.254031189,22.7268246 C0.388175439,22.8606998 0.558859649,22.9356179 0.73402729,22.9518031 C0.704122807,22.7200994 0.777516569,22.4777251 0.955688109,22.2998674 Z" id="Shape" fill="#F0AE59"></path>
                </g>
            </g>
        </g>
    </g>
</svg>