<?xml version="1.0" encoding="UTF-8"?>
<svg width="50px" height="50px" viewBox="0 0 50 50" version="1.1" xmlns="http://www.w3.org/2000/svg" xmlns:xlink="http://www.w3.org/1999/xlink">
    <!-- Generator: Sketch 49.3 (51167) - http://www.bohemiancoding.com/sketch -->
    <title>002-medal copy 2</title>
    <desc>Created with Sketch.</desc>
    <defs>
        <rect id="path-1" x="0" y="0" width="50" height="50" rx="25"></rect>
    </defs>
    <g id="Zilla-Slab/Lato" stroke="none" stroke-width="1" fill="none" fill-rule="evenodd">
        <g id="⟶-Achievements" transform="translate(-25.000000, -364.000000)">
            <g id="3" transform="translate(25.000000, 364.000000)">
                <g id="Icon">
                    <g id="002-medal-copy-2">
                        <mask id="mask-2" fill="white">
                            <use xlink:href="#path-1"></use>
                        </mask>
                        <use id="Mask" fill="#FE6BE9" xlink:href="#path-1"></use>
                        <g id="004-trophy" mask="url(#mask-2)">
                            <g transform="translate(10.000000, 8.333333)">
                                <path d="M16.1005208,26.3889323 L13.3235026,26.3889323 C12.939974,26.3889323 12.6287109,26.0776693 12.6287109,25.693099 L12.6287109,15.5691406 C12.6287109,15.185612 12.939974,14.8748698 13.3235026,14.8748698 L16.1005208,14.8748698 C16.4840495,14.8748698 16.7953125,15.185612 16.7953125,15.5691406 L16.7953125,25.693099 C16.7952474,26.0776693 16.4839844,26.3889323 16.1005208,26.3889323 Z" id="Shape" fill="#F6BB42" fill-rule="nonzero"></path>
                                <path d="M18.8785807,22.9161458 L10.5454427,22.9161458 C9.3969401,22.9161458 8.46210938,23.8499349 8.46210938,24.9994141 L8.46210938,26.3889323 C8.46210938,27.5363932 9.3969401,28.4722656 10.5454427,28.4722656 L18.8786458,28.4722656 C20.0270833,28.4722656 20.961849,27.5363932 20.961849,26.3889323 L20.961849,24.9994141 C20.9617839,23.8499349 20.0270182,22.9161458 18.8785807,22.9161458 Z" id="Shape" fill="#FFCE54" fill-rule="nonzero"></path>
                                <path d="M22.3503906,24.9994141 L7.07363281,24.9994141 C6.69010417,24.9994141 6.37890625,25.310612 6.37890625,25.693099 L6.37890625,32.6388021 C6.37890625,33.0212891 6.69016927,33.3325521 7.07363281,33.3325521 L22.3503906,33.3325521 C22.7339193,33.3325521 23.0451823,33.0212891 23.0451823,32.6388021 L23.0451823,25.693099 C23.0451172,25.310612 22.7338542,24.9994141 22.3503906,24.9994141 Z" id="Shape" fill="#434A54" fill-rule="nonzero"></path>
                                <g id="Group" stroke-width="1" fill="none" fill-rule="evenodd" transform="translate(0.000000, 2.018229)">
                                    <path d="M22.7216797,12.5647135 C22.4480469,12.5647135 22.1886068,12.4014323 22.078776,12.1324219 C21.9343099,11.7774089 22.1042318,11.3720052 22.4602214,11.2270833 C25.1436849,10.1335286 26.8770182,8.07825521 27.6125,5.11861979 C27.9899089,3.59941406 27.9970052,2.2108724 27.9604167,1.45403646 L23.7389323,1.45403646 C23.3554036,1.45403646 23.0451823,1.14277344 23.0451823,0.759309896 C23.0451823,0.37578125 23.3554687,0.0650390625 23.7389323,0.0650390625 L28.6002604,0.0650390625 C28.9471354,0.0650390625 29.2401042,0.320377604 29.2878906,0.663216146 C29.3011068,0.753255208 29.5869792,2.8858724 28.972526,5.40553385 C28.1434896,8.79700521 26.0733724,11.2546224 22.9841146,12.5134115 C22.8976562,12.5484375 22.8091146,12.5647135 22.7216797,12.5647135 Z" id="Shape" fill="#F6BB42" fill-rule="nonzero"></path>
                                    <path d="M6.70436198,12.5647135 C6.61686198,12.5647135 6.52838542,12.5484375 6.44244792,12.5133464 C3.353125,11.2545573 1.28255208,8.7969401 0.454036458,5.40546875 C-0.160872396,2.88580729 0.125455729,0.753190104 0.138151042,0.663151042 C0.1859375,0.3203125 0.479427083,0.0649739583 0.82578125,0.0649739583 L5.68710938,0.0649739583 C6.07063802,0.0649739583 6.38138021,0.375716146 6.38138021,0.759244792 C6.38138021,1.14270833 6.07063802,1.45397135 5.68710938,1.45397135 L1.465625,1.45397135 C1.42903646,2.21028646 1.43665365,3.59882812 1.8140625,5.11855469 C2.54902344,8.0781901 4.28235677,10.1334635 6.96634115,11.2270182 C7.321875,11.3720052 7.4922526,11.7773437 7.34778646,12.1323568 C7.23789063,12.4014974 6.97799479,12.5647135 6.70436198,12.5647135 Z" id="Shape" fill="#F6BB42" fill-rule="nonzero"></path>
                                </g>
                                <g id="Group" stroke-width="1" fill="none" fill-rule="evenodd" transform="translate(4.947917, 0.000000)">
                                    <path d="M14.6253906,29.8597005 L4.90325521,29.8597005 C4.51972656,29.8597005 4.20898438,29.5494141 4.20898438,29.1660156 C4.20898438,28.782487 4.51972656,28.4722656 4.90325521,28.4722656 L14.6254557,28.4722656 C15.0089844,28.4722656 15.3192057,28.7825521 15.3192057,29.1660156 C15.3192057,29.5494792 15.0089193,29.8597005 14.6253906,29.8597005 Z" id="Shape" fill="#FFCE54" fill-rule="nonzero"></path>
                                    <path d="M18.7919922,0 L0.736653646,0 C0.353125,0 0.0423828125,0.310742188 0.0423828125,0.694270833 L0.0423828125,9.72213542 C0.0423828125,12.3191406 1.05351562,14.7604818 2.88958333,16.5966146 C4.72571615,18.4321615 7.16751302,19.4433594 9.7640625,19.4433594 C12.3610677,19.4433594 14.8024089,18.4322266 16.6384766,16.5966146 C18.4746094,14.7604818 19.4857422,12.3191406 19.4857422,9.72213542 L19.4857422,0.694205729 C19.4858073,0.310742188 19.1755208,0 18.7919922,0 Z" id="Shape" fill="#FFCE54" fill-rule="nonzero"></path>
                                </g>
                                <path d="M23.7399089,0 L22.3503255,0 C22.7338542,0 23.0451172,0.310742188 23.0451172,0.694270833 L23.0451172,9.72213542 C23.0451172,12.3191406 22.0339844,14.7604818 20.1979167,16.5966146 C18.5255859,18.2673828 16.3527344,19.2561849 14.0177083,19.4189453 C14.2475911,19.4352214 14.4790365,19.4433594 14.7119792,19.4433594 C17.3089844,19.4433594 19.7503255,18.4322266 21.5863932,16.5966146 C23.422526,14.7604818 24.4336589,12.3191406 24.4336589,9.72213542 L24.4336589,0.694205729 C24.433724,0.310742188 24.1234375,0 23.7399089,0 Z" id="Shape" fill="#FFFFFF" fill-rule="nonzero" opacity="0.2"></path>
                                <path d="M19.7971354,7.77617188 C19.7157552,7.5249349 19.4980469,7.34179688 19.2366536,7.30364583 L16.539974,6.91197917 L15.335026,4.46861979 C15.2180339,4.23157552 14.9764323,4.08157552 14.7120443,4.08157552 C14.4480469,4.08157552 14.2064453,4.23164062 14.0895182,4.46861979 L12.8835938,6.91197917 L10.1874349,7.30364583 C9.92597656,7.34179688 9.70878906,7.52486979 9.62695313,7.77617188 C9.54557292,8.02740885 9.61373698,8.30364583 9.80292969,8.48828125 L11.7539714,10.389974 L11.2931641,13.0749349 C11.2483724,13.3353516 11.3557292,13.5988281 11.5693359,13.7544922 C11.7834635,13.9096354 12.0667318,13.9299479 12.3007161,13.8073568 L14.7121094,12.5393229 L17.1239583,13.8073568 C17.2246745,13.8607422 17.3355469,13.8867188 17.4464193,13.8867188 C17.5908854,13.8867188 17.7343099,13.8419271 17.854362,13.7544922 C18.0690104,13.5988281 18.1758464,13.3353516 18.1310547,13.0749349 L17.6702474,10.389974 L19.6212891,8.48828125 C19.8103516,8.30364583 19.8785156,8.02747396 19.7971354,7.77617188 Z" id="Shape" fill="#ED5564" fill-rule="nonzero"></path>
                            </g>
                        </g>
                    </g>
                </g>
            </g>
        </g>
    </g>
</svg>