<?xml version="1.0" encoding="UTF-8"?>
<svg width="135px" height="94px" viewBox="0 0 135 94" version="1.1" xmlns="http://www.w3.org/2000/svg" xmlns:xlink="http://www.w3.org/1999/xlink">
    <!-- Generator: Sketch 49.3 (51167) - http://www.bohemiancoding.com/sketch -->
    <title>Group 3</title>
    <desc>Created with Sketch.</desc>
    <defs>
        <path d="M0,5.0040358 C0,2.24038314 2.23054312,0 5.00522566,0 L129.994774,0 C132.759084,0 135,2.23089406 135,5.0040358 L135,94 L0,94 L0,5.0040358 Z" id="path-1"></path>
    </defs>
    <g id="Zilla-Slab/Lato" stroke="none" stroke-width="1" fill="none" fill-rule="evenodd">
        <g id="⟶-Questions" transform="translate(-40.000000, -284.000000)">
            <g id="Answers" transform="translate(35.000000, 279.000000)">
                <g id="1">
                    <g id="Group-3" transform="translate(5.000000, 5.000000)">
                        <mask id="mask-2" fill="white">
                            <use xlink:href="#path-1"></use>
                        </mask>
                        <use id="Mask-Copy-3" fill="#3FC9DD" xlink:href="#path-1"></use>
                        <g id="226507" mask="url(#mask-2)" fill-rule="nonzero">
                            <g transform="translate(72.500000, 50.000000) rotate(21.000000) translate(-72.500000, -50.000000) translate(35.000000, 4.000000)">
                                <polygon id="Shape" fill="#FFE9BF" points="45.1989833 24.1737188 48.873445 30.7975391 55.487799 34.4777188 60.3857656 29.5726094 56.7113038 22.9486094 50.0969498 19.2686094"></polygon>
                                <rect id="Rectangle-path" fill="#FFD37D" transform="translate(47.892243, 31.778801) rotate(45.000000) translate(-47.892243, -31.778801) " x="40.6170434" y="28.310776" width="14.5503987" height="6.93605067"></rect>
                                <polygon id="Shape" fill="#FFE9BF" points="54.9949163 14.3635 58.6695574 20.9873203 65.2837321 24.6675 70.181878 19.7620313 59.8928828 9.45839063"></polygon>
                                <rect id="Rectangle-path" fill="#FFD37D" transform="translate(57.691664, 21.967757) rotate(45.000000) translate(-57.691664, -21.967757) " x="50.4164646" y="18.4997319" width="14.5503987" height="6.93605067"></rect>
                                <path d="M68.7118421,18.2902109 L1.22332536,85.8773281 C-0.175119617,87.2778125 -0.175478469,89.5488828 1.22332536,90.9495469 C2.62177033,92.3500313 4.88953349,92.3500313 6.28815789,90.9495469 L73.7766746,23.3626094 C75.1751196,21.962125 75.1751196,19.6910547 73.7766746,18.2903906 C72.3782297,16.8895469 70.1104665,16.8895469 68.7118421,18.2902109 Z" id="Shape" fill="#3D7A94"></path>
                                <path d="M59.0476077,2.18697656 C61.960945,5.1045625 61.960945,9.83447656 59.0476077,12.7520625 C56.0962321,15.7073828 46.648744,25.1691875 43.6975478,28.1245078 C41.7247608,30.1001719 41.090311,32.9063516 41.7895335,35.4187422 C39.387201,35.9482812 36.7745813,35.2782266 34.9060407,33.4071406 C31.9927033,30.4895547 31.9927033,25.7596406 34.9060407,22.8420547 C37.8570574,19.886375 47.3050837,10.4251094 50.2561005,7.46960937 C52.2288876,5.49394531 52.8633373,2.68776562 52.1641148,0.175375 C54.5666268,-0.35434375 57.179067,0.315710937 59.0476077,2.18697656 Z" id="Shape" fill="#FC7576"></path>
                            </g>
                        </g>
                    </g>
                </g>
            </g>
        </g>
    </g>
</svg>