<?xml version="1.0" encoding="UTF-8"?>
<svg width="135px" height="94px" viewBox="0 0 135 94" version="1.1" xmlns="http://www.w3.org/2000/svg" xmlns:xlink="http://www.w3.org/1999/xlink">
    <!-- Generator: Sketch 49.3 (51167) - http://www.bohemiancoding.com/sketch -->
    <title>Group 4</title>
    <desc>Created with Sketch.</desc>
    <defs>
        <path d="M0,5.0040358 C0,2.24038314 2.23054312,0 5.00522566,0 L129.994774,0 C132.759084,0 135,2.23089406 135,5.0040358 L135,94 L0,94 L0,5.0040358 Z" id="path-1"></path>
    </defs>
    <g id="Zilla-Slab/Lato" stroke="none" stroke-width="1" fill="none" fill-rule="evenodd">
        <g id="⟶-Questions" transform="translate(-200.000000, -284.000000)">
            <g id="Answers" transform="translate(35.000000, 279.000000)">
                <g id="2" transform="translate(160.000000, 0.000000)">
                    <g id="Group-4" transform="translate(5.000000, 5.000000)">
                        <mask id="mask-2" fill="white">
                            <use xlink:href="#path-1"></use>
                        </mask>
                        <use id="Mask-Copy-3" fill="#87DBA2" xlink:href="#path-1"></use>
                        <g id="candy" mask="url(#mask-2)" fill-rule="nonzero">
                            <g transform="translate(33.000000, 13.000000)">
                                <path d="M55.1084906,4.28584906 C54.4784906,4.48264151 53.8867925,3.8909434 54.0822642,3.25962264 L54.7690566,1.05396226 C54.9909434,0.342075472 54.2183019,-0.262830189 53.5777358,0.116226415 C51.6798113,1.24018868 48.8771698,3.11169811 48.2801887,4.66490566 L45.6584906,17.6188679 C39.1643396,14.8267925 30.0167925,17.1949057 23.1911321,24.020566 C16.3866038,30.8250943 14.0092453,39.9369811 16.7603774,46.4271698 L4.97792453,48.1732075 C3.29924528,48.8190566 1.3445283,51.6203774 0.163773585,53.5381132 C-0.239056604,54.1918868 0.381698113,54.9935849 1.11471698,54.7650943 L3.23056604,54.1060377 C3.86188679,53.9092453 4.45490566,54.5022642 4.25811321,55.1335849 L3.43396226,57.7856604 C3.23716981,58.4169811 3.83018868,59.01 4.46150943,58.8132075 L7.10962264,57.9890566 C7.7409434,57.7922642 8.33396226,58.385283 8.13716981,59.0166038 L7.31301887,61.664717 C7.11622642,62.2960377 7.70924528,62.8890566 8.34056604,62.6922642 L10.9886792,61.8681132 C11.62,61.6713208 12.2130189,62.2643396 12.0162264,62.8956604 L11.1920755,65.5437736 C10.995283,66.1750943 11.5883019,66.7681132 12.2196226,66.5713208 L14.8677358,65.7471698 C15.4990566,65.5503774 16.0920755,66.1433962 15.895283,66.774717 L15.2362264,68.890566 C15.0077358,69.6235849 15.809434,70.2443396 16.4632075,69.8415094 C18.3809434,68.659434 21.1835849,66.7060377 21.8281132,65.0273585 L23.6375472,53.0784906 C30.1013208,55.585283 38.9939623,53.1749057 45.6677358,46.5011321 C52.3639623,39.8049057 54.7703774,30.8766038 52.2239623,24.4075472 L65.3364151,21.7250943 C66.8513208,21.1426415 68.67,18.4615094 69.8018868,16.5675472 C70.2139623,15.8767925 69.5562264,15.0460377 68.7888679,15.2850943 L66.7430189,15.9216981 C66.1130189,16.1184906 65.5213208,15.5267925 65.7167925,14.8954717 L66.5435849,12.2407547 C66.7403774,11.6107547 66.1486792,11.0190566 65.5173585,11.2145283 L62.8626415,12.0413208 C62.2326415,12.2381132 61.6409434,11.6464151 61.8364151,11.0150943 L62.6632075,8.36037736 C62.86,7.73037736 62.2683019,7.13867925 61.6369811,7.33415094 L58.9822642,8.1609434 C58.3522642,8.35773585 57.760566,7.76603774 57.9560377,7.13471698 L58.7828302,4.48 C58.9796226,3.85 58.3879245,3.25830189 57.7566038,3.45377358 L55.1084906,4.28584906 Z" id="Shape" fill="#D13834"></path>
                                <path d="M42.0145283,27.4016981 C40.0664151,25.4535849 37.5807547,24.3758491 35.0343396,24.1592453 L29.9296226,19.0545283 C27.5628302,20.2867925 25.2686792,21.9443396 23.1911321,24.0218868 C20.9445283,26.2684906 19.1918868,28.7686792 17.9345283,31.3415094 L22.895283,36.3022642 C23.1132075,38.8460377 24.1909434,41.3316981 26.1377358,43.2784906 C28.0845283,45.225283 30.5688679,46.3030189 33.1139623,46.5209434 L38.3481132,51.7550943 C40.9209434,50.4990566 43.4224528,48.7477358 45.6690566,46.4998113 C47.745283,44.4235849 49.4081132,42.1307547 50.6390566,39.765283 L45.2556604,34.3818868 C45.0403774,31.8354717 43.9626415,29.3498113 42.0145283,27.4016981 Z" id="Shape" fill="#E3E82A"></path>
                                <circle id="Oval" fill="#3DABEF" cx="34.0754717" cy="35.339434" r="5.94339623"></circle>
                                <path d="M49.3103774,22.3854717 C49.0092453,22.3854717 48.7054717,22.2837736 48.4584906,22.0737736 C47.9011321,21.6035849 47.8311321,20.7701887 48.3026415,20.2128302 C50.2058491,17.9622642 51.9201887,17.9028302 53.7362264,17.839434 C54.3120755,17.8196226 54.9077358,17.7998113 55.5866038,17.7139623 C56.3011321,17.6320755 56.9707547,18.1366038 57.060566,18.8603774 C57.1503774,19.5841509 56.6379245,20.2445283 55.9141509,20.3343396 C55.1164151,20.4333962 54.4322642,20.4584906 53.8273585,20.4783019 C52.1579245,20.5364151 51.4671698,20.5601887 50.319434,21.9166038 C50.0579245,22.2256604 49.6854717,22.3854717 49.3103774,22.3854717 Z" id="Shape" fill="#F75B57"></path>
                                <path d="M48.2379245,21.4371698 C47.7743396,21.4371698 47.3266038,21.1928302 47.0835849,20.7609434 C46.7269811,20.1256604 46.9541509,19.32 47.5907547,18.9633962 C50.2481132,17.4762264 51.9320755,13.7926415 51.5067925,10.3943396 C51.4156604,9.67056604 51.929434,9.01018868 52.6532075,8.92037736 C53.3716981,8.83716981 54.0373585,9.34169811 54.1271698,10.0667925 C54.6871698,14.5441509 52.4801887,19.255283 48.8798113,21.269434 C48.6777358,21.3830189 48.4558491,21.4371698 48.2379245,21.4371698 Z" id="Shape" fill="#F75B57"></path>
                                <path d="M12.5735849,53.2132075 C11.9171698,53.2132075 11.3492453,52.7245283 11.264717,52.0562264 C11.1735849,51.3324528 11.6873585,50.6720755 12.4111321,50.5822642 C13.2088679,50.4818868 13.8956604,50.4581132 14.500566,50.4383019 C16.1686792,50.3801887 16.859434,50.3550943 18.0058491,49 C18.4760377,48.4413208 19.3107547,48.3713208 19.8667925,48.8441509 C20.4241509,49.3143396 20.4941509,50.1477358 20.0226415,50.7050943 C18.1207547,52.9543396 16.4064151,53.0150943 14.5916981,53.0771698 C14.0145283,53.0983019 13.4188679,53.1181132 12.74,53.2039623 C12.6845283,53.2092453 12.6290566,53.2132075 12.5735849,53.2132075 Z" id="Shape" fill="#F75B57"></path>
                                <path d="M15.5056604,62.0081132 C14.8492453,62.0081132 14.28,61.519434 14.1967925,60.8511321 C13.6367925,56.3737736 15.8437736,51.6613208 19.4441509,49.6471698 C20.079434,49.2918868 20.8850943,49.5203774 21.2416981,50.1556604 C21.5983019,50.7909434 21.3711321,51.5966038 20.7345283,51.9532075 C18.0771698,53.4403774 16.3932075,57.1239623 16.8184906,60.5235849 C16.9096226,61.2473585 16.3958491,61.9077358 15.6720755,61.9975472 C15.6166038,62.0041509 15.5611321,62.0081132 15.5056604,62.0081132 Z" id="Shape" fill="#F75B57"></path>
                            </g>
                        </g>
                    </g>
                </g>
            </g>
        </g>
    </g>
</svg>