<?xml version="1.0" encoding="UTF-8"?>
<svg width="135px" height="94px" viewBox="0 0 135 94" version="1.1" xmlns="http://www.w3.org/2000/svg" xmlns:xlink="http://www.w3.org/1999/xlink">
    <!-- Generator: Sketch 49.3 (51167) - http://www.bohemiancoding.com/sketch -->
    <title>Group 2</title>
    <desc>Created with Sketch.</desc>
    <defs></defs>
    <g id="Zilla-Slab/Lato" stroke="none" stroke-width="1" fill="none" fill-rule="evenodd">
        <g id="⟶-Questions" transform="translate(-200.000000, -444.000000)">
            <g id="Answers" transform="translate(35.000000, 279.000000)">
                <g id="4" transform="translate(160.000000, 160.000000)">
                    <g id="Group-2" transform="translate(5.000000, 5.000000)">
                        <path d="M0,5.0040358 C0,2.24038314 2.23054312,0 5.00522566,0 L129.994774,0 C132.759084,0 135,2.23089406 135,5.0040358 L135,94 L0,94 L0,5.0040358 Z" id="Mask-Copy-4" fill="#278AB5"></path>
                        <g id="tv-screen" transform="translate(28.000000, 14.000000)" fill-rule="nonzero">
                            <g id="Group" transform="translate(35.312500, 47.275701)" fill="#605353">
                                <path d="M37.869375,3.75700935 L37.869375,7.40021262 C37.869375,8.15474533 38.48,8.76635514 39.2329687,8.76635514 C39.9860937,8.76635514 40.5965625,8.15458879 40.5965625,7.40021262 L40.5965625,3.75700935 L37.869375,3.75700935 Z" id="Shape"></path>
                                <path d="M32.4148437,7.40021262 C32.4148437,8.15474533 33.0254688,8.76635514 33.7784375,8.76635514 C34.5315625,8.76635514 35.1420312,8.15458879 35.1420312,7.40021262 L35.1420312,3.75700935 L32.4146875,3.75700935 L32.4146875,7.40021262 L32.4148437,7.40021262 Z" id="Shape"></path>
                                <path d="M26.9601563,7.40021262 C26.9601563,8.15474533 27.5707813,8.76635514 28.32375,8.76635514 C29.076875,8.76635514 29.6873437,8.15458879 29.6873437,7.40021262 L29.6873437,3.75700935 L26.96,3.75700935 L26.96,7.40021262 L26.9601563,7.40021262 Z" id="Shape"></path>
                                <rect id="Rectangle-path" x="0.14203125" y="0.113806075" width="9.0909375" height="18.2158598"></rect>
                            </g>
                            <path d="M80,51.0327103 C80,52.0345794 79.181875,52.8542336 78.181875,52.8542336 L1.818125,52.8542336 C0.818125,52.8542336 0,52.0345794 0,51.0327103 L0,1.85001402 C0,0.84814486 0.818125,0.0284906542 1.818125,0.0284906542 L78.1817188,0.0284906542 C79.1817188,0.0284906542 79.9998437,0.84814486 79.9998437,1.85001402 L79.9998437,51.0327103 L80,51.0327103 Z" id="Shape" fill="#463836"></path>
                            <rect id="Rectangle-path" fill="#6FC5D6" x="5.45453125" y="5.49321729" width="69.0909375" height="41.8962897"></rect>
                            <path d="M61.818125,66.9715093 L18.181875,66.9715093 C17.42875,66.9715093 16.8182812,66.359743 16.8182812,65.6053668 C16.8182812,64.8508341 17.42875,64.2392243 18.181875,64.2392243 L61.8182812,64.2392243 C62.5714063,64.2392243 63.181875,64.8509907 63.181875,65.6053668 C63.181875,66.3598995 62.57125,66.9715093 61.818125,66.9715093 Z" id="Shape" fill="#463836"></path>
                        </g>
                    </g>
                </g>
            </g>
        </g>
    </g>
</svg>