<?xml version="1.0" encoding="UTF-8"?>
<svg width="234px" height="186px" viewBox="0 0 234 186" version="1.1" xmlns="http://www.w3.org/2000/svg" xmlns:xlink="http://www.w3.org/1999/xlink">
    <!-- Generator: Sketch 51.2 (57519) - http://www.bohemiancoding.com/sketch -->
    <title>Group 3</title>
    <desc>Created with Sketch.</desc>
    <defs>
        <path d="M0.620689655,5.62318702 C0.620689655,2.86038401 2.84974278,0.620689655 5.61695898,0.620689655 L228.383041,0.620689655 C231.142404,0.620689655 233.37931,2.86283844 233.37931,5.62318702 L233.37931,185.854996 L0.620689655,185.854996 L0.620689655,5.62318702 Z" id="path-1"></path>
    </defs>
    <g id="Screens" stroke="none" stroke-width="1" fill="none" fill-rule="evenodd">
        <g id="⟶-Questions" transform="translate(-71.000000, -273.000000)">
            <g id="Answers" transform="translate(63.000000, 265.000000)">
                <g id="1">
                    <g id="Group-3" transform="translate(8.000000, 8.000000)">
                        <mask id="mask-2" fill="white">
                            <use xlink:href="#path-1"></use>
                        </mask>
                        <use id="Mask-Copy-3" fill="#3FC9DD" xlink:href="#path-1"></use>
                        <g id="apple" mask="url(#mask-2)" fill-rule="nonzero">
                            <g transform="translate(17.641026, 54.820513)">
                                <path d="M68.2567433,44.2546392 C68.2567433,53.8584502 62.041204,67.1307807 54.5259899,74.3813018 C51.1931005,77.6011748 47.603286,79.6328671 44.1858409,79.6328671 C42.0258704,79.6328671 39.8714852,79.2843009 38.0180872,78.7220118 C35.4786247,77.9497411 32.7779634,77.9497411 30.2385009,78.7220118 C28.385258,79.2843009 26.231028,79.6328671 24.0709023,79.6328671 C20.490707,79.6328671 16.7187488,77.4008583 13.2515012,73.9094279 C5.95302887,66.5664651 0,53.65221 0,44.2544833 C0,30.3889978 8.25495979,22.0118719 16.0171695,19.9898447 C19.7354466,19.0211547 24.0498022,19.6451756 27.5341161,20.556031 C31.1374284,21.4996229 34.8823909,21.6575378 38.5316271,21.0297756 C39.2676492,20.9027266 39.9977757,20.7448117 40.7223169,20.556031 C44.2067859,19.6451756 48.5191246,19.0211547 52.2392634,19.9898447 C60.0019386,22.0120278 68.2567433,30.3891537 68.2567433,44.2546392 Z" id="Shape" fill="#F94848"></path>
                                <path d="M55.2549872,74.3805224 C45.9089857,76.0179732 38.7103445,75.5643382 33.2862865,74.2620473 C24.4290933,72.1355749 17.8401654,64.7285419 16.7421155,55.7587287 C13.9918026,33.2936646 28.7959796,26.7532148 28.7959796,26.7532148 C33.1350374,28.7078983 38.0140011,27.6640702 38.0140011,27.6640702 C34.9005015,24.5790406 39.0472748,21.0297756 39.0472748,21.0297756 C35.3492177,21.6575378 31.5539965,21.4996229 27.9026349,20.556031 C24.3715494,19.6451756 19.9996319,19.0211547 16.2316104,19.9898447 C8.36524049,22.0120278 0,30.3891537 0,44.2546392 C0,58.1182541 13.1277015,79.6328671 24.3927746,79.6328671 C26.581642,79.6328671 28.7648493,79.2843009 30.6430428,78.7220118 C33.2164792,77.9497411 35.9531137,77.9497411 38.5267073,78.7220118 C40.4049008,79.2843009 42.5879509,79.6328671 44.7769755,79.6328671 C48.2399832,79.6328671 51.8778236,77.6011748 55.2554588,74.3813018 C55.2549872,74.3808342 55.2554588,74.3813018 55.2549872,74.3805224 Z" id="Shape" fill="#E23D3D"></path>
                                <path d="M71.5070644,0.879838276 C71.5070644,0.879838276 69.5968441,14.6427443 59.536258,18.6487479 C49.9186686,22.4789514 41.3458711,12.1236895 37.8294206,12.9390821 C37.6709314,12.9726439 37.5237297,13.0319364 37.3862693,13.1167999 C37.3805482,13.1187177 37.3786927,13.1207954 37.3786927,13.1207954 L37.3805482,13.1129643 C37.4989899,12.7418664 41.3556123,0.868331364 51.2597193,0.0903362582 C61.3201508,-0.699645214 66.7947548,4.03880526 71.5070644,0.879838276 Z" id="Shape" fill="#C7F492"></path>
                                <path d="M71.5070644,0.871824257 C71.5070644,0.871824257 65.3946656,8.50157191 56.7990227,8.50157191 C49.2405903,8.50157191 39.9591947,11.9800046 37.8294186,12.8212262 C37.5735176,12.9209946 37.4226056,12.9835478 37.3862693,12.9973254 C37.3805482,12.9992257 37.3786927,13.0012844 37.3786927,13.0012844 L37.3805482,12.9935247 C37.4989894,12.6258069 41.3555943,0.860422156 51.2596564,0.0895134292 C61.3201969,-0.693272486 66.7947762,4.00201774 71.5070644,0.871824257 Z" id="Shape" fill="#A3E261"></path>
                                <ellipse id="Oval" fill="#FC8181" transform="translate(56.880619, 38.191273) rotate(-95.675816) translate(-56.880619, -38.191273) " cx="56.8806194" cy="38.191273" rx="6.50064221" ry="4.06290138"></ellipse>
                                <path d="M40.6290138,26.0025689 C40.6290138,27.578737 38.1065396,28.891172 34.7584301,29.1893323 C34.2916286,29.2317041 33.8091084,29.25289 33.3148387,29.25289 C32.7989755,29.25289 32.2969258,29.2298347 31.8123414,29.1855936 C28.4955108,28.8757499 26.0025689,27.5690788 26.0025689,26.0025689 L40.6290138,26.0025689 Z" id="Shape" fill="#E23D3D"></path>
                                <path d="M38.7678172,12.0714196 L33.5529312,20.3665803 C33.9437351,22.0480493 34.2812896,23.9011891 34.5006152,25.8800915 C34.6206963,26.9484272 34.7065127,28.0528106 34.7466426,29.1869373 C34.2928656,29.2309058 33.8238083,29.25289 33.3433294,29.25289 C32.8418595,29.25289 32.3538176,29.228966 31.8827538,29.1830578 C31.8407717,28.0487694 31.7473925,26.9464874 31.619594,25.8800915 C30.6853381,18.1259688 27.8290123,12.4147613 27.7947475,12.3509101 C27.4247803,11.6200967 27.6899466,10.7134096 28.3877446,10.3260995 C29.0855425,9.93668795 29.9512689,10.2142386 30.3210817,10.9452137 C30.4050459,11.113005 31.4555243,13.2157302 32.5157265,16.5705857 L36.380703,10.4240585 C36.813489,9.73317233 37.7020585,9.54339685 38.3598809,9.99876102 C39.0195554,10.4520238 39.2026097,11.3805334 38.7678172,12.0714196 Z" id="Shape" fill="#B25719"></path>
                            </g>
                        </g>
                        <g id="Group-11" mask="url(#mask-2)">
                            <g transform="translate(104.820513, 36.871795)">
                                <path d="M43.5014232,4.05031352 C55.0957285,-2.20708609 67.8703089,-0.251305347 80.0568224,3.46385399 C86.9811033,5.57483362 93.0909253,10.2431614 98.8114636,14.4761082 C112.26522,24.4363061 113.780942,49.5524314 109.21445,64.0339989 C107.0444,70.9176878 105.865506,78.8424454 104.530621,85.9802211 C102.809214,95.1850262 96.6372725,120.626657 95.8504224,125.996813 C95.4514756,128.713481 93.1585668,119.549879 92.0238462,117.631181 C91.8264434,122.912064 89.8800247,136.418488 89.8800247,136.418488 C88.5051077,136.616263 86.6760263,132.967029 85.4971316,131.989139 C85.4971316,132.38057 85.7966868,136.672574 85.7966868,137.064005 C85.4032618,137.064005 80.74152,135.093117 80.5454977,135.093117 C79.1705807,135.484548 78.284339,134.660483 77.3028471,135.246942 C75.1410799,136.418488 77.3028471,135.246942 74.5516326,135.246942 C71.6057762,135.051913 68.6557786,134.660483 65.7085418,134.074023 C60.9929629,132.899731 60.7955602,134.855511 56.6680482,136.223459 C54.7036839,137.006321 52.7393195,136.223459 50.7735747,136.616263 C49.0038521,137.006321 48.8078298,137.984211 47.4329128,138.570671 C46.0566154,139.352159 46.6460627,139.74359 44.6803179,139.74359 C42.3225285,139.74359 40.3567837,137.59278 37.9989942,137.201349 C35.2477797,136.811292 34.4623101,138.765699 32.1031402,138.765699 C29.7453508,138.570671 28.1744115,135.441971 26.6007113,134.269052 C25.4218165,135.638373 25.2257942,137.789182 24.0468995,138.960728 C21.0982823,136.02843 19.7247457,131.726812 20.5088349,127.620221 C19.7247457,131.140352 16.1853007,135.638373 12.8460193,137.201349 C13.3402164,133.032954 12.9895849,122.759612 11.8396794,114.376125 C10.2963489,103.130385 7.34359034,96.9238032 5.18044277,85.5832965 C2.23320599,68.5732231 -4.05607308,47.2601575 3.80414531,30.4464863 C9.30795471,18.9109509 26.2086666,8.35193239 38.196397,6.98261119 C38.196397,6.98261119 42.1265062,4.83317519 43.5014232,4.05031352" id="Fill-42" fill="#803825"></path>
                                <path d="M60.963811,116.910141 C60.963811,116.910141 60.375231,108.302233 60.985814,107.013947 C60.985814,107.013947 72.5373844,106.638369 81.4307185,101.497651 C85.4888952,99.1516714 88.7247101,96.3403625 94.38773,88.1632646 C95.277476,86.876359 99.7894644,89.5040215 104.049794,86.7810838 C114.509466,80.1698132 111.023367,69.2794432 99.0152341,70.0568337 C99.4016616,63.8335679 100.563695,57.6103021 101.725728,51.3870363 L101.725728,43.9969945 C99.4016616,34.6627862 95.1413324,23.7710354 87.3935291,17.1597648 C78.4713161,9.83047819 66.7918533,6.23073248 55.1288927,6.41714048 L50.3404917,6.55383969 C45.4173224,6.9128477 40.5574117,7.95259013 35.9752888,9.66754378 L32.9375008,10.9213102 C29.327635,12.5575583 25.9322984,14.6370431 22.8628811,17.1597648 C15.1150778,23.7710354 10.8547486,34.6627862 8.53068266,43.9969945 L8.53068266,51.3870363 C9.69271564,57.6103021 10.8547486,63.8335679 11.2411762,70.0568337 C-0.766956359,69.2794432 -4.2530553,80.1698132 6.2066167,86.7810838 C10.4669459,89.5040215 14.9775591,86.876359 15.8686803,88.1632646 C21.5317002,96.3403625 24.7675151,99.1516714 28.8243166,101.497651 C37.7190258,106.638369 49.2692211,107.013947 49.2692211,107.013947 C49.8811793,108.302233 49.2925993,116.910141 49.2925993,116.910141 C46.4445871,119.294782 44.5330772,119.536422 43.1826436,120.304147 C43.1826436,120.304147 51.8023155,130.092639 56.3363069,130.769231 C56.3363069,130.769231 65.796218,122.208271 66.8509863,120.213014 C66.8509863,120.213014 63.8118232,119.294782 60.963811,116.910141" id="Fill-43" fill="#F7CFC0"></path>
                                <path d="M81.4470966,137.179487 C81.6380989,140.686926 82.2676526,149.625198 81.9748661,151.942387 C81.8881612,152.642608 79.0231265,152.555239 73.2553594,152.564103 L73.0769231,141.801203 L81.4470966,137.179487" id="Fill-44" fill="#F7CFC0"></path>
                                <path d="M38.4615385,80.7692308 C38.4615385,80.7692308 38.8055975,81.2293218 39.5341112,81.9155811 C39.8990646,82.2580645 40.3545598,82.6612903 40.9228841,83.0683933 C41.4842436,83.4819582 42.1458956,83.9123242 42.8966966,84.3323511 C43.6405328,84.7614247 44.4888403,85.1620658 45.4165461,85.5097188 C46.3386801,85.8651261 47.3457842,86.1649607 48.4002486,86.4118073 C48.9226055,86.556555 49.4658566,86.6534843 50.0202514,86.7374897 C50.5718602,86.8370037 51.1304339,86.9248863 51.702937,86.9714123 C52.8242631,87.1252068 54.0333451,87.1329611 55.1449205,87.1704404 C56.3372872,87.1355459 57.551941,87.1381307 58.6551587,86.9920906 C59.2193042,86.9494417 59.7778778,86.874483 60.3294866,86.774969 C60.8824885,86.6883788 61.4327044,86.609543 61.9536683,86.4660877 C64.066776,85.9866108 65.9751197,85.2783809 67.4586133,84.4137717 C68.1996635,83.9846981 68.8641015,83.5569169 69.4143174,83.130428 C69.9756769,82.7181555 70.4172426,82.3020058 70.7696594,81.9504756 C71.4744929,81.2448304 71.7948718,80.7692308 71.7948718,80.7692308 C71.7948718,80.7692308 71.587322,81.2978184 70.981388,82.1068548 C70.3684893,82.9003825 69.3906372,84.0157155 67.897393,85.0160256 C66.4166854,86.0163358 64.4916262,86.9791667 62.2740472,87.5646195 C61.7252242,87.7365074 61.1527211,87.8437758 60.5732532,87.9575062 C59.9993571,88.0880376 59.4059597,88.1849669 58.7958469,88.2340778 C57.5686564,88.4033809 56.3888264,88.41372 55.1936739,88.4615385 C53.920516,88.4098428 52.7351142,88.3827026 51.528818,88.2069376 C50.9284559,88.1552419 50.3406303,88.042804 49.7639483,87.9148573 C49.1844804,87.8037117 48.6161561,87.6783499 48.0687261,87.5051696 C46.9613295,87.2169665 45.9319382,86.8059864 44.9930888,86.3614041 C44.0514535,85.9258685 43.20036,85.4399297 42.4620956,84.934605 C41.7085088,84.451251 41.0900383,83.9187862 40.5760391,83.4225083 C40.0536822,82.9352771 39.6483333,82.4687242 39.3293473,82.0771299 C38.6983402,81.2874793 38.4615385,80.7692308 38.4615385,80.7692308" id="Fill-45" fill="#EC957A"></path>
                                <path d="M11.4841377,78.7188151 C11.0871078,75.6739617 8.56066569,71.8707483 6.00339831,73.4445355 C5.28331917,73.8883917 5.17974614,75.099485 5.13905673,75.857845 C5.00959045,78.2026738 6.03422362,81.182851 8.44722857,81.8803393 C10.9933988,82.6184087 11.7640315,80.8556656 11.4841377,78.7188151" id="Fill-46" fill="#F2B8A5"></path>
                                <path d="M97.4902074,78.7188151 C97.8859405,75.6739617 100.413208,71.8707483 102.971296,73.4445355 C103.690026,73.8883917 103.793582,75.099485 103.835498,75.857845 C103.96371,78.2026738 102.939242,81.182851 100.529092,81.8803393 C97.9808671,82.6184087 97.2103588,80.8556656 97.4902074,78.7188151" id="Fill-47" fill="#F2B8A5"></path>
                                <path d="M38.4721568,42.3076923 C38.4721568,42.3076923 38.4601697,42.2118795 38.4616681,42.0482441 C38.4646649,41.967503 38.4631665,41.8684605 38.4796488,41.7586526 C38.4781504,41.6488446 38.5021247,41.5261181 38.6145042,41.3893964 C38.7029094,41.2505216 38.8092953,41.092269 38.9501443,40.9340164 C39.0894949,40.7768403 39.2693021,40.6670323 39.4640932,40.5356934 C39.6558876,40.405431 39.8551739,40.2665563 40.1039072,40.193351 C40.3436501,40.1072271 40.5848915,40.0060315 40.8366216,39.9317497 C41.097342,39.8854581 41.3580624,39.8402431 41.6157861,39.7939515 C41.8690146,39.7325882 42.1357286,39.7605785 42.3814651,39.7476599 C42.8774333,39.7250524 43.3389385,39.8004108 43.7150352,39.8800753 C44.0941287,39.9349793 44.384817,40.093232 44.5796082,40.1685904 C44.7729009,40.2568673 44.8717949,40.3160775 44.8717949,40.3160775 C44.8717949,40.3160775 44.7369395,40.3440678 44.5166756,40.3785173 C44.2949134,40.4226558 44.0057235,40.4237324 43.661093,40.4969377 C43.4902762,40.5281576 43.3089706,40.560454 43.1216714,40.5787554 C42.9328739,40.5949036 42.7410795,40.6648792 42.5417932,40.6885633 C42.1387254,40.7466969 41.7461463,40.8597345 41.3415801,40.9447819 C41.1452906,40.99215 40.963985,41.0599725 40.773689,41.1138 C40.5759011,41.1633212 40.4005891,41.2214548 40.2432578,41.2968132 C40.0934184,41.3721716 39.8791482,41.4152336 39.7562799,41.4862858 C39.6394053,41.5594911 39.5030515,41.6208543 39.3666977,41.6843707 C39.2243503,41.736045 39.0969869,41.8221689 39.0055849,41.9158286 L38.7358741,42.1289852 C38.5770444,42.2452525 38.4721568,42.3076923 38.4721568,42.3076923" id="Fill-48" fill="#6F2820"></path>
                                <path d="M53.8800086,61.5384615 C53.8800086,61.5384615 53.9653227,61.8474873 54.1129296,62.3899993 C54.2212649,62.6330996 54.3553299,62.9270175 54.5069993,63.2648857 C54.7114823,63.5821522 54.9037775,63.9529831 55.1705532,64.3251875 C55.4386831,64.6973919 55.7311885,65.0943184 56.0778616,65.488498 C56.398805,65.8977855 56.809125,66.2754837 57.1950696,66.6875181 C57.5972645,67.0913118 58.0455019,67.4607693 58.4964477,67.8357206 L59.2236486,68.3452698 C59.4714656,68.4784943 59.678657,68.6103453 59.9752249,68.7559308 C60.2406465,68.909757 60.5561731,69.0457283 60.8920126,69.3506338 C61.0680575,69.5003396 61.2237895,69.6706472 61.3239997,69.9164944 C61.4567105,70.151354 61.495982,70.3656119 61.5081698,70.5702556 C61.5867129,71.0193731 61.4919195,71.3242786 61.4553563,71.6786282 L61.4377518,71.8063588 L61.4133764,71.9052471 L61.410668,71.9121143 L61.4066054,71.9258488 L61.3971261,71.9519443 L61.3768132,72.0055088 L61.2982701,72.2183932 L61.1411839,72.6386683 C60.986806,72.9367065 60.7782605,73.253973 60.5846111,73.5314095 C60.3774198,73.7882443 60.1512698,73.9777801 59.9440785,74.192038 C59.4999037,74.5711096 59.0611456,74.9076044 58.5953037,75.1053809 C58.1578998,75.3484812 57.7110166,75.473465 57.3169469,75.5599922 C56.9323564,75.6767353 56.5572454,75.6163036 56.2809903,75.6410256 C55.9966101,75.6190505 55.7799394,75.5146684 55.6377493,75.4844526 C55.4969134,75.4418757 55.4224328,75.4199005 55.4224328,75.4199005 C55.4224328,75.4199005 55.7569182,75.4253943 56.2688026,75.3677095 C56.5247448,75.2688212 56.837563,75.2399788 57.1598606,75.0586837 C57.4902834,74.8993637 57.8437274,74.7084544 58.194463,74.4282711 C58.3813414,74.3101545 58.5560321,74.1618221 58.7198893,73.9846473 C58.8783297,73.8102195 59.0936462,73.6797419 59.2290654,73.4682309 C59.3726097,73.2704544 59.5540713,73.0754248 59.6773028,72.8721545 C59.770742,72.6578966 59.9007444,72.4958297 60.0077255,72.2664639 L60.1309569,71.8338278 L60.1946039,71.616823 L60.2095001,71.5618851 L60.2176252,71.5344161 L60.2216878,71.5206816 L60.2243962,71.5138144 L60.2027291,71.5989682 L60.2067917,71.4987065 C60.2081459,71.245992 60.2677303,70.9328459 60.2135626,70.7625383 L60.1485614,70.5276787 L60.0131423,70.362865 C59.8872025,70.2461219 59.6204267,70.1156443 59.3414633,69.9673119 C59.0773959,69.832714 58.7537441,69.6280703 58.4598845,69.449522 L57.6758076,68.8671801 C57.1774651,68.4441581 56.7400612,67.9785592 56.3338038,67.5198276 C55.9370256,67.0501084 55.5673313,66.5872564 55.2734718,66.1038027 C54.94982,65.6423242 54.7114823,65.1602439 54.4988742,64.7166202 C54.2794951,64.2771169 54.1589721,63.8279994 54.0262613,63.455795 C53.9423014,63.0465074 53.8786544,62.6962782 53.8461538,62.4188417 C53.8678209,61.8584749 53.8800086,61.5384615 53.8800086,61.5384615" id="Fill-49" fill="#EC957A"></path>
                                <path d="M26.0973435,74.83201 C27.64003,75.7644707 32.0363768,76.5058416 32.0512461,73.392371 C32.0661153,70.2760269 27.4677943,70.0949945 25.7776543,70.9599273 C23.5447859,72.1035925 24.1742516,73.66823 26.0973435,74.83201" id="Fill-50" fill="#F2BABA"></path>
                                <path d="M13.344784,59.7528065 C28.5088387,53.5754526 37.63331,36.7213107 40.5838938,21.4312842 C51.3145353,30.9145147 66.7266418,36.8420543 81.1643567,34.0746663 C80.9697524,37.8302088 81.9455145,41.7814393 84.0902723,44.9429787 C85.8471922,47.5105152 88.7731078,51.4617456 91.5044192,53.0425153 C92.8707602,53.8335941 96.1708093,56.7467071 96.9519671,57.9333253 C97.9263587,59.3170193 98.0743675,62.7478031 98.1648174,63.7789812 C98.4430192,66.9335814 97.6741954,70.7099418 98.2593786,73.6730176 C105.38436,64.6769251 104.966372,46.1268212 101.064694,34.0746663 C97.7481999,23.2091297 87.4081373,12.1451294 76.8721001,7.7969717 C68.6781658,4.63682009 55.1833221,4.75895155 46.7934132,5.74710612 C40.7442367,6.33972129 19.7968734,15.6328154 16.8709578,19.7811216 C16.8709578,19.7811216 8.39471036,31.9026693 6.54185886,43.6217384 C5.75384879,48.6083105 8.69346896,67.7496417 10.3434935,73.6730176 C10.3434935,73.6730176 11.320626,77.2051151 11.9058091,74.8055094 C12.4909923,72.4059037 13.344784,59.7528065 13.344784,59.7528065" id="Fill-51" fill="#803825"></path>
                                <path d="M43.0311636,64.059795 C45.3934554,63.6789818 45.0324457,60.9286642 44.3988062,59.6097208 C44.0557721,58.8940337 43.4610797,58.0308572 42.5008838,57.7636835 C41.4777733,57.4807937 40.2509394,58.0767965 39.9558402,58.8819444 C39.3581519,60.5164188 39.9138972,64.5615012 43.0311636,64.059795" id="Fill-52" fill="#0A0B09"></path>
                                <path d="M70.5022046,42.3076923 C70.5022046,42.3076923 70.3988396,42.2452525 70.2400471,42.1289852 L69.9689012,41.9158286 C69.8775206,41.8221689 69.751685,41.736045 69.6093709,41.6843707 C69.4715509,41.6208543 69.335229,41.5594911 69.2198796,41.4862858 C69.0955421,41.4152336 68.8828199,41.3721716 68.7330156,41.2968132 C68.574223,41.2214548 68.398952,41.1633212 68.2012103,41.1138 C68.0124568,41.0599725 67.8296956,40.99215 67.6334519,40.9447819 C67.2289802,40.8597345 66.8364929,40.7466969 66.4335193,40.6885633 C66.2342796,40.6648792 66.04253,40.5949036 65.8552746,40.5787554 C65.6665212,40.560454 65.486756,40.5281576 65.314481,40.4969377 C64.9699311,40.4237324 64.6808088,40.4226558 64.4590984,40.3785173 C64.238886,40.3440678 64.1025641,40.3160775 64.1025641,40.3160775 C64.1025641,40.3160775 64.202933,40.2568673 64.3961806,40.1685904 C64.5909262,40.093232 64.8815466,39.9349793 65.2605515,39.8800753 C65.6365603,39.8004108 66.0979576,39.7250524 66.5938099,39.7476599 C66.8409871,39.7605785 67.1061407,39.7325882 67.35931,39.7939515 C67.6169734,39.8402431 67.8776329,39.8854581 68.1382925,39.9317497 C68.3899637,40.0060315 68.6311487,40.1072271 68.8708356,40.193351 C69.1195108,40.2665563 69.3187505,40.405431 69.5105,40.5346169 C69.7052456,40.6659558 69.8850108,40.7768403 70.0243288,40.9340164 C70.1651449,41.092269 70.273004,41.2505216 70.3598905,41.3893964 C70.4722438,41.5261181 70.4977105,41.6488446 70.4962124,41.7586526 C70.5111929,41.8684605 70.5111929,41.967503 70.5126909,42.0482441 C70.514189,42.2118795 70.5022046,42.3076923 70.5022046,42.3076923" id="Fill-53" fill="#6F2820"></path>
                                <path d="M82.8768506,74.83201 C81.3354459,75.7644707 76.9379817,76.5058416 76.9231129,73.392371 C76.908244,70.2760269 81.5076768,70.0949945 83.1977701,70.9599273 C85.4293376,72.1035925 84.7998894,73.66823 82.8768506,74.83201" id="Fill-54" fill="#F2BABA"></path>
                                <path d="M65.9432598,64.059795 C63.5808853,63.6789818 63.9419077,60.9286642 64.5755693,59.6097208 C64.9186155,58.8940337 65.5133286,58.0308572 66.4735582,57.7636835 C67.4952065,57.4807937 68.7235813,58.0767965 69.0186909,58.8819444 C69.6164001,60.5164188 69.0591374,64.5615012 65.9432598,64.059795" id="Fill-55" fill="#0A0B09"></path>
                                <path d="M65.5106529,117.948718 C70.4385939,119.570903 82.6902898,125.401852 82.0252449,135.665937 C81.9398769,136.975949 72.8426691,140.253767 72.8578151,141.225127 L73.0533355,152.563701 C66.3767258,152.573457 62.5103781,152.40204 59.5211185,152.40204 L54.3356963,152.374168 L43.8175231,152.466147 C41.4547551,152.513531 38.5233255,152.569276 34.6377011,152.563701 L34.8345985,141.225127 C34.8511213,140.253767 25.7539136,136.975949 25.6671686,135.665937 C25.0007468,125.401852 37.2524427,119.570903 42.1817606,117.948718 C42.1817606,117.948718 53.5962986,129.390421 55.2926449,128.427422 C56.9903681,127.464424 65.5106529,117.948718 65.5106529,117.948718" id="Fill-56" fill="#D4ABC5"></path>
                                <path d="M26.2452111,137.179487 C26.0542088,140.686926 25.4246551,149.625198 25.7174415,151.942387 C25.8041465,152.642608 28.6691812,152.555239 34.4356917,152.564103 L34.6153846,141.717632 L26.2452111,137.179487" id="Fill-57" fill="#F7CFC0"></path>
                            </g>
                        </g>
                    </g>
                </g>
            </g>
        </g>
    </g>
</svg>