<?xml version="1.0" encoding="UTF-8"?>
<svg width="90px" height="100px" viewBox="0 0 90 100" version="1.1" xmlns="http://www.w3.org/2000/svg" xmlns:xlink="http://www.w3.org/1999/xlink">
    <!-- Generator: Sketch 51.2 (57519) - http://www.bohemiancoding.com/sketch -->
    <title>Group 2</title>
    <desc>Created with Sketch.</desc>
    <defs></defs>
    <g id="Icons" stroke="none" stroke-width="1" fill="none" fill-rule="evenodd">
        <g id="Artboard" transform="translate(-83.000000, -49.000000)" fill-rule="nonzero">
            <g id="apple" transform="translate(83.000000, 49.000000)">
                <g id="Group-2">
                    <path d="M85.6164384,55.6720234 C85.6164384,67.7053426 77.8201048,84.335219 68.393551,93.4199286 C64.2130099,97.4543437 59.7102001,100 55.4235984,100 C52.7142839,100 50.0119753,99.5632558 47.6872037,98.8587225 C44.5018813,97.8910879 41.1143625,97.8910879 37.92904,98.8587225 C35.604463,99.5632558 32.902349,100 30.19284,100 C25.7020958,100 20.9708178,97.2033525 16.6217473,92.8286832 C7.467059,83.6281465 0,67.446929 0,55.6718281 C0,38.2987442 10.3544386,27.8024288 20.0908063,25.2688825 C24.7547504,24.0551399 30.1663735,24.8370214 34.5368507,25.9782989 C39.0565913,27.1605945 43.7540077,27.3584576 48.3313519,26.5718882 C49.254566,26.4126993 50.1703852,26.2148362 51.0791984,25.9782989 C55.4498703,24.8370214 60.8589635,24.0551399 65.5252429,25.2688825 C75.2621944,27.8026241 85.6164384,38.2989396 85.6164384,55.6720234 Z" id="Shape" fill="#F94848"></path>
                    <path d="M68.492566,93.418952 C56.907519,95.4706342 47.9842809,94.9022417 41.2607674,93.2705059 C30.2816337,90.6060926 22.1141795,81.3252777 20.753067,70.0863408 C17.3438545,41.9382144 35.6947062,33.743205 35.6947062,33.743205 C41.0732832,36.1923713 47.1211127,34.8844825 47.1211127,34.8844825 C43.2617041,31.0190227 48.4019304,26.5718882 48.4019304,26.5718882 C43.8179204,27.3584576 39.1134683,27.1605945 34.5873407,25.9782989 C30.210304,24.8370214 24.790995,24.0551399 20.1202589,25.2688825 C10.3693226,27.8026241 0,38.2989396 0,55.6720234 C0,73.0427633 16.2727386,100 30.2366141,100 C32.9498741,100 35.656118,99.5632558 37.9842751,98.8587225 C41.1742362,97.8910879 44.5664933,97.8910879 47.7566493,98.8587225 C50.0848064,99.5632558 52.7908554,100 55.5043103,100 C59.7969596,100 64.3063267,97.4543437 68.4931507,93.4199286 C68.492566,93.4193427 68.4931507,93.4199286 68.492566,93.418952 Z" id="Shape" fill="#E23D3D"></path>
                    <path d="M89.7260274,1.11243585 C89.7260274,1.11243585 87.3491504,18.513759 74.830816,23.5788057 C62.8637001,28.4215772 52.1966131,15.3287567 47.8211123,16.3597097 C47.623905,16.4021441 47.4407427,16.4771115 47.2697014,16.5844098 C47.2625827,16.5868346 47.260274,16.5894615 47.260274,16.5894615 L47.2625827,16.5795601 C47.4099591,16.1103573 52.2087341,1.09788693 64.5323624,0.114217914 C77.0505044,-0.884606231 83.8625254,5.10652002 89.7260274,1.11243585 Z" id="Shape" fill="#C7F492"></path>
                    <path d="M89.7260274,1.05637392 C89.7260274,1.05637392 82.1204017,10.3012032 71.4248884,10.3012032 C62.0199708,10.3012032 50.471179,14.515958 47.8211097,15.5352514 C47.5026936,15.6561389 47.3149146,15.7319335 47.2697014,15.7486275 C47.2625827,15.7509302 47.260274,15.7534247 47.260274,15.7534247 L47.2625827,15.7440223 C47.4099584,15.2984652 52.2087117,1.04255819 64.5322841,0.108461827 C77.0505618,-0.840025917 83.8625519,4.84917358 89.7260274,1.05637392 Z" id="Shape" fill="#A3E261"></path>
                    <ellipse id="Oval" fill="#FC8181" transform="translate(70.890411, 48.287671) rotate(-95.675816) translate(-70.890411, -48.287671) " cx="70.890411" cy="48.2876712" rx="7.87671233" ry="5.1369863"></ellipse>
                    <path d="M51.369863,32.8767123 C51.369863,34.8695626 48.1805373,36.5289582 43.9473082,36.9059413 C43.3571012,36.9595147 42.74702,36.9863014 42.1220832,36.9863014 C41.4698443,36.9863014 40.8350707,36.9571512 40.2223797,36.9012143 C36.0286984,36.509459 32.8767123,34.8573511 32.8767123,32.8767123 L51.369863,32.8767123 Z" id="Shape" fill="#E23D3D"></path>
                    <path d="M48.3317014,15.2626686 L41.7381872,25.7507712 C42.2323056,27.8767601 42.6590974,30.2198033 42.9364048,32.7218563 C43.0882311,34.0726216 43.1967341,35.4689642 43.247473,36.9029132 C42.6737336,36.9585053 42.0806745,36.9863014 41.4731743,36.9863014 C40.8391337,36.9863014 40.2220712,36.9560527 39.6264751,36.898008 C39.5733945,35.4638546 39.455329,34.070169 39.2937453,32.7218563 C38.1125057,22.9178226 34.5010702,15.6967774 34.457747,15.6160463 C33.9899738,14.6920321 34.3252405,13.5456495 35.2075111,13.0559486 C36.0897818,12.5635907 37.184375,12.9145158 37.6519531,13.8387343 C37.7581144,14.0508836 39.0863015,16.7094937 40.426783,20.9512523 L45.3135201,13.1798045 C45.8607192,12.3062728 46.9841945,12.0663275 47.8159214,12.6420736 C48.6499901,13.2151627 48.8814374,14.3891369 48.3317014,15.2626686 Z" id="Shape" fill="#B25719"></path>
                </g>
            </g>
        </g>
    </g>
</svg>