<?xml version="1.0" encoding="UTF-8"?>
<svg width="234px" height="186px" viewBox="0 0 234 186" version="1.1" xmlns="http://www.w3.org/2000/svg" xmlns:xlink="http://www.w3.org/1999/xlink">
    <!-- Generator: Sketch 51.2 (57519) - http://www.bohemiancoding.com/sketch -->
    <title>Group 3</title>
    <desc>Created with Sketch.</desc>
    <defs>
        <path d="M0.620689655,5.62318702 C0.620689655,2.86038401 2.84974278,0.620689655 5.61695898,0.620689655 L228.383041,0.620689655 C231.142404,0.620689655 233.37931,2.86283844 233.37931,5.62318702 L233.37931,185.854996 L0.620689655,185.854996 L0.620689655,5.62318702 Z" id="path-1"></path>
    </defs>
    <g id="Screens" stroke="none" stroke-width="1" fill="none" fill-rule="evenodd">
        <g id="⟶-Questions" transform="translate(-71.000000, -273.000000)">
            <g id="Answers" transform="translate(63.000000, 265.000000)">
                <g id="1">
                    <g id="Group-3" transform="translate(8.000000, 8.000000)">
                        <mask id="mask-2" fill="white">
                            <use xlink:href="#path-1"></use>
                        </mask>
                        <use id="Mask-Copy-3" fill="#3FC9DD" xlink:href="#path-1"></use>
                        <g id="apple" mask="url(#mask-2)" fill-rule="nonzero">
                            <g transform="translate(52.000000, 19.000000)">
                                <path d="M124.045802,80.6606873 C124.045802,98.0952215 112.750045,122.1895 99.0923357,135.351927 C93.035338,141.197209 86.5114197,144.885496 80.3007555,144.885496 C76.3753518,144.885496 72.4600986,144.252717 69.0918417,143.231951 C64.4767715,141.829988 59.5687481,141.829988 54.9536779,143.231951 C51.5857029,144.252717 47.6707317,144.885496 43.745046,144.885496 C37.2386091,144.885496 30.3836734,140.83356 24.082501,134.495298 C10.8186855,121.165055 0,97.7208178 0,80.6604043 C0,55.4893256 15.0020797,40.2816869 29.1086644,36.6109458 C35.866043,34.8524087 43.7066999,35.9852417 50.0388875,37.6387873 C56.587336,39.351762 63.3932112,39.638437 70.025119,38.4988121 C71.3627224,38.2681704 72.6896115,37.9814954 74.0063501,37.6387873 C80.3388197,35.9852417 88.1758112,34.8524087 94.9365732,36.6109458 C109.044004,40.2819699 124.045802,55.4896086 124.045802,80.6606873 Z" id="Shape" fill="#F94848"></path>
                                <path d="M99.2357941,135.350512 C82.4507413,138.323102 69.5222635,137.499584 59.7808676,135.135435 C43.8736953,131.275087 32.0402387,117.828532 30.0681841,101.544943 C25.1287297,60.76239 51.7164522,48.88901 51.7164522,48.88901 C59.5092301,52.4374968 68.2716579,50.5425556 68.2716579,50.5425556 C62.6799346,44.9420649 70.1273771,38.4988121 70.1273771,38.4988121 C63.4858114,39.638437 56.6697427,39.351762 50.1120402,37.6387873 C43.7703488,35.9852417 35.9185561,34.8524087 29.1513369,36.6109458 C15.0236445,40.2819699 0,55.4896086 0,80.6606873 C0,105.82837 23.576838,144.885496 43.8084684,144.885496 C47.7395885,144.885496 51.6605435,144.252717 55.0337054,143.231951 C59.6554965,141.829988 64.5703849,141.829988 69.1924583,143.231951 C72.5656203,144.252717 76.4862929,144.885496 80.4176954,144.885496 C86.6371216,144.885496 93.1705405,141.197209 99.2366412,135.351927 C99.2357941,135.351078 99.2366412,135.351927 99.2357941,135.350512 Z" id="Shape" fill="#E23D3D"></path>
                                <path d="M130,1.61175821 C130,1.61175821 126.55625,26.8237515 108.418999,34.1622696 C91.0803838,41.1787431 75.6253219,22.2091452 69.2858558,23.7028466 C69.000131,23.7643278 68.7347555,23.8729447 68.4869415,24.0284044 C68.4766275,24.0319176 68.4732824,24.0357236 68.4732824,24.0357236 L68.4766275,24.021378 C68.6901545,23.3415711 75.6428835,1.59067892 93.4980334,0.165485191 C111.635006,-1.28166613 121.504636,7.39860688 130,1.61175821 Z" id="Shape" fill="#C7F492"></path>
                                <path d="M130,1.53053259 C130,1.53053259 118.980552,14.9249493 103.484304,14.9249493 C89.8579424,14.9249493 73.1254181,21.0315178 69.2858521,22.508326 C68.8245133,22.6834746 68.5524488,22.79329 68.4869414,22.8174771 C68.4766275,22.8208133 68.4732824,22.8244275 68.4732824,22.8244275 L68.4766275,22.8108048 C68.6901535,22.1652573 75.642851,1.51051561 93.4979201,0.157145456 C111.635089,-1.21707572 121.504675,7.02574921 130,1.53053259 Z" id="Shape" fill="#A3E261"></path>
                                <ellipse id="Oval" fill="#FC8181" transform="translate(102.709924, 69.961832) rotate(-95.675816) translate(-102.709924, -69.961832) " cx="102.709924" cy="69.9618321" rx="11.4122137" ry="7.44274809"></ellipse>
                                <path d="M74.4274809,47.6335878 C74.4274809,50.5209389 69.8066105,52.9251623 63.6732755,53.4713562 C62.8181512,53.5489762 61.934232,53.5877863 61.0287892,53.5877863 C60.0837896,53.5877863 59.1640948,53.5455518 58.2763944,53.4645074 C52.2003585,52.8969109 47.6335878,50.5032461 47.6335878,47.6335878 L74.4274809,47.6335878 Z" id="Shape" fill="#E23D3D"></path>
                                <path d="M70.0256254,22.1133931 L60.4725796,37.3091326 C61.1884855,40.3893821 61.806845,43.784112 62.2086231,47.4092239 C62.4285974,49.3662869 62.5858026,51.3893848 62.6593158,53.4669689 C61.8280507,53.5475138 60.968794,53.5877863 60.0886143,53.5877863 C59.1699816,53.5877863 58.2759474,53.5439604 57.4130151,53.459862 C57.3361089,51.3819818 57.1650493,49.3627334 56.9309379,47.4092239 C55.219493,33.204601 49.9870467,22.7423539 49.9242777,22.6253861 C49.2465422,21.2866236 49.732295,19.6256815 51.0105772,18.9161759 C52.2888594,18.2028207 53.8747662,18.7112602 54.552219,20.0503189 C54.7060313,20.3576924 56.6303818,24.2096329 58.5725451,30.3553258 L65.6527185,19.0956251 C66.4455305,17.8300045 68.0732833,17.4823585 69.278335,18.3165311 C70.4867796,19.1468541 70.8221131,20.8477724 70.0256254,22.1133931 Z" id="Shape" fill="#B25719"></path>
                            </g>
                        </g>
                    </g>
                </g>
            </g>
        </g>
    </g>
</svg>