<?xml version="1.0" encoding="UTF-8"?>
<svg width="93px" height="93px" viewBox="0 0 93 93" version="1.1" xmlns="http://www.w3.org/2000/svg" xmlns:xlink="http://www.w3.org/1999/xlink">
    <!-- Generator: Sketch 50 (54983) - http://www.bohemiancoding.com/sketch -->
    <title>Artboard</title>
    <desc>Created with Sketch.</desc>
    <defs></defs>
    <g id="Artboard" stroke="none" stroke-width="1" fill="none" fill-rule="evenodd">
        <g id="apple" transform="translate(24.000000, 21.000000)" fill-rule="nonzero">
            <path d="M42.9545455,27.8498185 C42.9545455,33.8935779 39.043054,42.2459677 34.3136663,46.8087819 C32.2162508,48.8350752 29.9571502,50.1136364 27.8065232,50.1136364 C26.4472355,50.1136364 25.0914627,49.8942807 23.9251036,49.5404274 C22.3269984,49.0544309 20.6274494,49.0544309 19.0293442,49.5404274 C17.8630828,49.8942807 16.5074076,50.1136364 15.1480223,50.1136364 C12.8949751,50.1136364 10.5212499,48.7090144 8.33928172,46.5118277 C3.74629138,41.8908391 0,33.7637892 0,27.8497204 C0,19.1240532 5.19491597,13.852257 10.0797402,12.5797782 C12.4196833,11.9701734 15.1347438,12.3628751 17.327452,12.9360841 C19.5950469,13.5298944 21.9517834,13.6292716 24.2482786,13.2342155 C24.7114636,13.1542625 25.1709383,13.0548854 25.6268982,12.9360841 C27.819704,12.3628751 30.5334952,11.9701734 32.87461,12.5797782 C37.7597271,13.8523551 42.9545455,19.1241513 42.9545455,27.8498185 Z" id="Shape" fill="#F94848"></path>
            <path d="M34.7724304,46.8082914 C28.8909127,47.838753 24.360747,47.5532767 20.9473414,46.733734 C15.3734349,45.395527 11.2269668,40.7342185 10.5359548,35.0894392 C8.80515961,20.9519846 18.1215534,16.8360242 18.1215534,16.8360242 C20.8521591,18.066123 23.9225322,17.4092332 23.9225322,17.4092332 C21.9631806,15.467798 24.57278,13.2342155 24.57278,13.2342155 C22.2455615,13.6292716 19.8571967,13.5298944 17.559364,12.9360841 C15.337222,12.3628751 12.5859374,11.9701734 10.2146896,12.5797782 C5.26431654,13.8523551 0,19.1241513 0,27.8498185 C0,36.5743085 8.2613735,50.1136364 15.3505792,50.1136364 C16.728052,50.1136364 18.1019628,49.8942807 19.2839258,49.5404274 C20.9034111,49.0544309 22.6255983,49.0544309 24.2451826,49.5404274 C25.4271456,49.8942807 26.8009575,50.1136364 28.1785292,50.1136364 C30.3578292,50.1136364 32.6471529,48.8350752 34.7727273,46.8087819 C34.7724304,46.8084876 34.7727273,46.8087819 34.7724304,46.8082914 Z" id="Shape" fill="#E23D3D"></path>
            <path d="M45,0.553689664 C45,0.553689664 43.7978823,9.21480275 37.4666704,11.7358147 C31.4142401,14.1461941 26.0193061,7.62954026 23.8063741,8.1426737 C23.7066355,8.16379444 23.6140003,8.20110775 23.5274953,8.25451305 C23.5238949,8.25571995 23.5227273,8.25702743 23.5227273,8.25702743 L23.5238949,8.25209925 C23.5984313,8.0185642 26.0254364,0.546448267 32.2581746,0.0568493708 C38.5892892,-0.440292647 42.0345038,2.54165428 45,0.553689664 Z" id="Shape" fill="#C7F492"></path>
            <path d="M45,0.548646374 C45,0.548646374 41.1534158,5.35011106 35.744105,5.35011106 C30.9875197,5.35011106 25.146659,7.53911813 23.8063728,8.06850605 C23.6453322,8.13129113 23.550362,8.17065639 23.5274952,8.17932671 C23.5238949,8.18052262 23.5227273,8.18181818 23.5227273,8.18181818 L23.5238949,8.1769349 C23.598431,7.945527 26.0254251,0.541470935 32.258135,0.0563315576 C38.5893182,-0.436282235 42.0345172,2.51850359 45,0.548646374 Z" id="Shape" fill="#A3E261"></path>
            <ellipse id="Oval" fill="#FC8181" transform="translate(35.795455, 24.034091) rotate(-95.675816) translate(-35.795455, -24.034091) " cx="35.7954545" cy="24.0340909" rx="4.09090909" ry="2.55681818"></ellipse>
            <path d="M25.5681818,16.3636364 C25.5681818,17.3555323 23.9807674,18.1814587 21.8737738,18.3690935 C21.5800117,18.3957584 21.2763577,18.4090909 20.9653096,18.4090909 C20.6406725,18.4090909 20.3247284,18.3945821 20.0197753,18.3667407 C17.9324658,18.1717535 16.3636364,17.3494543 16.3636364,16.3636364 L25.5681818,16.3636364 Z" id="Shape" fill="#E23D3D"></path>
            <path d="M24.396915,7.59664641 L21.1151432,12.8168611 C21.3610794,13.8750238 21.5735053,15.0412203 21.7115287,16.2865603 C21.7870968,16.958873 21.8411018,17.6538708 21.8663559,18.3675864 C21.5807902,18.3952561 21.2856084,18.4090909 20.983239,18.4090909 C20.6676597,18.4090909 20.3605309,18.3940353 20.0640865,18.3651449 C20.0376668,17.6513276 19.9789024,16.9576523 19.8984778,16.2865603 C19.3105426,11.4068253 17.5130327,7.81271423 17.4914695,7.77253213 C17.258646,7.31262506 17.4255174,6.7420392 17.8646476,6.49830168 C18.3037777,6.25324171 18.8485866,6.4279067 19.081313,6.88791549 C19.1341524,6.99350796 19.7952273,8.31677074 20.4624215,10.4280097 L22.8946839,6.55994815 C23.1670398,6.12516762 23.7262241,6.0057403 24.1401973,6.29230482 C24.555336,6.57754689 24.6705336,7.16186588 24.396915,7.59664641 Z" id="Shape" fill="#B25719"></path>
        </g>
    </g>
</svg>