<?xml version="1.0" encoding="UTF-8"?>
<svg width="295px" height="94px" viewBox="0 0 295 94" version="1.1" xmlns="http://www.w3.org/2000/svg" xmlns:xlink="http://www.w3.org/1999/xlink">
    <!-- Generator: Sketch 50 (54983) - http://www.bohemiancoding.com/sketch -->
    <title>Group 4</title>
    <desc>Created with Sketch.</desc>
    <defs>
        <path d="M0,5.0040358 C0,2.24038314 2.24676836,0 4.99649982,0 L290.0035,0 C292.762991,0 295,2.23089406 295,5.0040358 L295,94 L0,94 L0,5.0040358 Z" id="path-1"></path>
    </defs>
    <g id="Page-1" stroke="none" stroke-width="1" fill="none" fill-rule="evenodd">
        <g id="⟶-Menu" transform="translate(-40.000000, -379.000000)">
            <g id="Menu" transform="translate(35.000000, 84.000000)">
                <g id="3" transform="translate(0.000000, 290.000000)">
                    <g id="Group-4" transform="translate(5.000000, 5.000000)">
                        <mask id="mask-2" fill="white">
                            <use xlink:href="#path-1"></use>
                        </mask>
                        <use id="Mask-Copy-3" fill="#3FC9DD" xlink:href="#path-1"></use>
                        <g id="Group" mask="url(#mask-2)">
                            <g transform="translate(-12.000000, -56.000000)">
                                <polygon id="Fill-35" fill="#00A8B5" points="10 199 308 199 308 0 10 0"></polygon>
                                <path d="M182.770259,88 C176.024882,72.945633 162.445223,61.6487263 146,58.0962755 C151.540175,44.5436348 164.809924,35 180.299124,35 C191.316867,35 201.211423,39.8284151 208,47.4942631 C194.951257,57.0070836 185.657737,71.3967418 182.770259,88" id="Fill-36" fill="#22B5BE"></path>
                                <path d="M307.818865,81 C301.806229,61.6494631 286.965644,46.1790351 268,39.2798525 C272.947504,35.3490944 279.212458,33 286.025709,33 C302.02773,33 315,45.953999 315,61.9334829 C315,69.2372175 312.28998,75.9081584 307.818865,81" id="Fill-37" fill="#00B0AC"></path>
                                <path d="M56.6407658,161 C44.8238404,161 34.2746701,155.56824 27.3534642,147.065471 C30.0236257,144.193309 31.6565908,140.34343 31.6565908,136.112375 C31.6565908,128.403088 26.2362392,121.960576 19,120.38886 C19.3277363,116.009146 20.4024064,111.836538 22.0969808,108 C29.5701302,115.667358 40.0087847,120.426977 51.5602183,120.426977 C62.6257637,120.426977 72.6693564,116.059334 80.0643825,108.95167 C80.0586662,109.280752 80.0554905,109.610469 80.0554905,109.940187 C80.0554905,121.500623 83.7412533,132.200237 90,140.9279 C83.6605895,152.868878 71.1005412,161 56.6407658,161" id="Fill-38" fill="#20B7CE"></path>
                                <path d="M16.7388272,154 C7.49470134,154 0,146.612738 0,137.500326 C0,128.387262 7.49470134,121 16.7388272,121 C17.9641514,121 19.157752,121.129647 20.3077326,121.375911 C20.2343718,122.342724 20.1973609,123.31931 20.1973609,124.304365 C20.1973609,133.567271 23.4959548,142.069236 29,148.732691 C25.9432986,151.97321 21.5813031,154 16.7388272,154" id="Fill-39" fill="#00B0AC"></path>
                                <path d="M26.6168508,149 C21.2289738,142.179872 18,133.478007 18,123.997309 C18,122.989093 18.0362297,121.989545 18.1080422,121 C25.4788494,122.649687 31,129.411803 31,137.503536 C31,141.944488 29.3366677,145.985354 26.6168508,149" id="Fill-40" fill="#47B8B7"></path>
                                <path d="M22.9484075,109 C15.5552694,101.571361 11,91.4185484 11,80.2240464 C11,57.4564198 29.839446,39 53.0795694,39 C75.0797086,39 93.1364512,55.5410349 95,76.6198138 C90.1167096,82.2991528 86.4214397,88.9921821 84.2909272,96.3298244 C77.4284687,90.193593 68.2984434,86.4519108 58.2752917,86.4519108 C42.5017051,86.4519108 28.9378755,95.7189375 22.9484075,109" id="Fill-41" fill="#69C3C9"></path>
                                <path d="M51.9629179,121 C40.2155783,121 29.5998899,116.23193 22,108.550959 C27.9560245,95.2682062 41.4441174,86 57.1296286,86 C67.0968138,86 76.1758595,89.7421584 83,95.8791708 C81.746916,100.220838 81.0376963,104.787799 80.9504971,109.504319 C73.4300554,116.624602 63.2161289,121 51.9629179,121" id="Fill-42" fill="#8DCFD6"></path>
                                <path d="M134.81629,163 C116.853641,163 100.954892,154.267001 91.2267236,140.860331 C94.0489867,135.606486 95.6476292,129.612395 95.6476292,123.249446 C95.6476292,114.758767 92.8010472,106.92545 88,100.631465 C91.7783768,94.4513636 93.9536313,87.2045494 93.9536313,79.4566459 C93.9536313,78.2488436 93.9011539,77.0543276 93.7974789,75.8730982 C103.631882,64.3315944 118.356928,57 134.81629,57 C138.701542,57 142.491438,57.4087168 146.141821,58.1850256 C144.321109,62.5689243 143.317638,67.369132 143.317638,72.4015364 C143.317638,88.5110512 153.606419,102.246086 168.040919,107.533464 L150.628003,107.533464 L153.80097,144.95003 L174.769553,144.95003 L177.758208,109.70232 C178.892233,109.80355 180.040977,109.854798 181.201881,109.854798 C182.011442,109.854798 182.815883,109.830123 183.612644,109.780141 C184.32429,114.078626 185.467914,118.230328 187,122.195387 C181.42843,145.588412 160.17954,163 134.81629,163 M131.427014,145.351787 L144.5131,145.351787 L141.087346,89.5904178 C140.974072,87.7543557 139.434946,86.3225816 137.574556,86.3225816 L137.649433,86.3225816 C138.194686,86.3225816 138.636265,85.8860265 138.636265,85.3469759 L138.636265,75.8205851 C138.636265,75.2815344 138.194686,74.8449794 137.649433,74.8449794 L124.773257,74.8449794 C124.228003,74.8449794 123.786425,75.2815344 123.786425,75.8205851 L123.786425,85.3469759 C123.786425,85.8860265 124.228003,86.3225816 124.773257,86.3225816 L124.848133,86.3225816 C122.987744,86.3225816 121.448618,87.7543557 121.335984,89.5904178 L118.210375,140.45541 L131.427014,140.45541 L118.210375,140.45541 L117.90959,145.351787 L131.427014,145.351787" id="Fill-43" fill="#58BBAA"></path>
                                <path d="M179.499683,109 C178.350564,109 177.21348,108.949417 176.090967,108.849499 L176.272773,106.708756 L166.472317,106.708756 C152.184341,101.489916 142,87.9329227 142,72.0322284 C142,67.0650569 142.993285,62.3270721 144.795515,58 C161.434942,61.5277285 175.174965,72.7460174 182,87.6956176 C181.369695,91.251448 181.041556,94.9090698 181.041556,98.642879 C181.041556,102.144379 181.330419,105.579683 181.885975,108.926311 C181.097301,108.975645 180.301026,109 179.499683,109" id="Fill-44" fill="#75C2B0"></path>
                                <path d="M90.7140705,141 C84.6003545,132.357574 81,121.762456 81,110.314922 C81,109.988425 81.0031021,109.661928 81.008686,109.336059 C83.5425216,106.867514 85.7580767,104.065551 87.5858631,101 C92.2403279,107.258178 95,115.04693 95,123.489305 C95,129.816054 93.4501662,135.776044 90.7140705,141" id="Fill-45" fill="#79C4B5"></path>
                                <path d="M88.4396629,101 C87.1127847,99.1944189 85.6245293,97.5188592 84,95.9966268 C85.9604327,88.924563 89.3607077,82.473781 93.8541629,77 C93.9509892,78.1450475 94,79.3029745 94,80.473781 C94,87.9843606 91.9684418,95.0091996 88.4396629,101" id="Fill-46" fill="#88C9B5"></path>
                                <path d="M82,108 C82.0764079,103.499883 82.6978587,99.1424634 83.7958683,95 C85.3342138,96.5071232 86.7435148,98.1660517 88,99.9537111 C86.3326101,102.9127 84.31148,105.617264 82,108" id="Fill-47" fill="#96CFBB"></path>
                                <path d="M246.384598,164 C231.856174,164 218.448515,159.214525 207.655972,151.135889 L217.120841,132.707318 C217.841834,131.06775 217.494429,129.229928 216.381967,127.969654 L217.850774,125.109971 C221.351645,126.37917 224.953417,126.984765 228.509209,126.984765 C230.162575,126.984765 231.80764,126.853447 233.425883,126.597184 C235.20314,131.195881 237.522579,135.622461 240.548322,139.26113 C241.717621,140.668022 243.324369,141.324615 244.908765,141.324615 C247.293343,141.324615 249.626831,139.836764 250.340161,137.178521 L255.616373,117.526648 C256.067872,115.845644 257.488145,115.004823 258.909057,115.004823 L258.909057,103.708247 C260.35232,98.3171775 260.284627,92.776303 258.909057,87.6096223 L258.909057,69.963862 C262.560001,81.6703301 273.500702,90.1690576 286.430041,90.1690576 C295.071739,90.1690576 302.825128,86.3716589 308.107088,80.3590577 C309.987161,86.4060821 311,92.8355875 311,99.4996813 C311,135.122048 282.070876,164 246.384598,164 M200.725116,145.139225 C194.338996,138.773466 189.279273,131.076674 186,122.505913 C186.930458,118.561259 187.422828,114.446401 187.422828,110.218073 C187.422828,109.941412 187.420912,109.664113 187.416441,109.38809 C191.432672,108.614841 195.223473,107.206673 198.678364,105.272594 C201.118501,112.792171 206.371085,119.367019 213.775152,123.299561 L212.100073,126.561486 C210.800498,126.840697 209.643333,127.694267 209.02324,128.967291 C209.022602,128.968566 209.022602,128.969204 209.021963,128.969841 C209.020047,128.973666 209.018131,128.978128 209.016216,128.981953 C209.014938,128.983866 209.0143,128.985778 209.013023,128.98769 C209.011745,128.991515 209.00983,128.99534 209.007914,128.998527 C209.006636,129.001077 209.005359,129.004265 209.004082,129.006814 C209.002805,129.010002 209.001528,129.013189 208.999612,129.016377 C208.998334,129.019564 208.997057,129.022114 208.99578,129.025301 C208.994503,129.027851 208.992587,129.031038 208.99131,129.034226 C208.990033,129.037413 208.988117,129.0406 208.986839,129.044425 C208.985562,129.046975 208.984285,129.049525 208.983008,129.052075 C208.981092,129.0559 208.979815,129.059087 208.977899,129.062912 C208.976622,129.065462 208.975983,129.068011 208.974706,129.070561 C208.97279,129.074386 208.970874,129.078211 208.968958,129.082036 C208.96832,129.084586 208.967043,129.087135 208.965765,129.089048 C208.964488,129.09351 208.962572,129.097335 208.960656,129.10116 C208.959379,129.10371 208.958741,129.105622 208.957463,129.108172 C208.954909,129.113909 208.952354,129.120284 208.949161,129.126659 L200.725116,145.139225 M228.519427,119.597782 C225.301461,119.597782 222.031767,118.948839 218.901291,117.577008 C211.60451,114.379467 206.694861,107.973548 205.102163,100.74147 C212.601383,94.1895702 217.482295,84.728903 217.976581,74.1207928 C220.276861,72.9956613 222.750206,72.2383489 225.298906,71.8858289 C224.353122,73.8396693 223.717703,75.9643512 223.459065,78.1942153 C222.807042,83.812861 224.480206,93.2875526 227.637503,97.2883037 C227.637503,97.2883037 227.930626,107.914263 231.09431,119.459452 C230.241763,119.551247 229.38283,119.59842 228.519427,119.597782 M217.534023,66.2799326 C216.364724,59.0484921 213.13654,52.50233 208.469564,47.2648903 C219.118419,39.5502488 232.220183,35 246.384598,35 C254.153951,35 261.600806,36.368007 268.50037,38.8770823 C261.863914,44.1470328 257.610758,52.2779411 257.610758,61.4013876 C257.610758,62.0898534 257.635026,62.7719445 257.682283,63.4482984 C255.426705,63.3157049 253.189647,62.8191171 251.074564,61.9578974 C248.73022,61.0023324 246.165554,60.4764211 243.476997,60.4764211 C242.660212,60.4764211 241.832571,60.5248687 240.99599,60.6243137 C237.486178,61.0431304 234.239474,62.390101 231.511324,64.4083256 C230.539995,64.3178051 229.568028,64.2725449 228.60053,64.2725449 C228.599892,64.2725449 228.599253,64.2725449 228.598614,64.2725449 C228.59606,64.2725449 228.594144,64.2725449 228.592228,64.2725449 C224.791848,64.2725449 221.045112,64.9661104 217.534023,66.2799326" id="Fill-48" fill="#7EC1DF"></path>
                                <path d="M187.649542,109 C187.536015,101.638913 185.885114,94.6446287 183,88.3175993 C185.92507,71.7914584 195.339585,57.4686362 208.558213,48 C213.193168,53.1427457 216.399203,59.570552 217.560478,66.6712467 C210.04041,69.4535622 203.607411,75.0732763 200.063332,82.8362185 C200.060796,82.841226 200.058893,82.8456076 200.05699,82.8499892 C200.017034,82.9376212 199.977711,83.0252532 199.938389,83.1135111 C199.932047,83.1279078 199.92507,83.1435564 199.918728,83.1579531 C199.916191,83.1635865 199.913654,83.16922 199.911117,83.1748535 C199.906678,83.1842427 199.902872,83.1936318 199.899067,83.202395 C199.89653,83.2080285 199.893359,83.2142879 199.891456,83.2199214 C199.887016,83.2286846 199.883211,83.2380737 199.878771,83.2474629 C199.876234,83.2543482 199.873698,83.2593558 199.870526,83.2662412 C199.867355,83.2743784 199.862916,83.2837676 199.859744,83.2919048 C199.857208,83.2975383 199.853402,83.3056756 199.850865,83.311309 C199.847694,83.3194463 199.843889,83.3282095 199.840083,83.3363468 C199.836912,83.3432321 199.834375,83.3501175 199.831204,83.3570029 C199.827399,83.3651401 199.824228,83.3726514 199.820422,83.3807887 C199.817885,83.3876741 199.814714,83.3951854 199.811543,83.4020707 C199.808372,83.4089561 199.804566,83.4183453 199.801395,83.4252306 C199.798858,83.432116 199.795053,83.4408792 199.791882,83.4477646 C199.788711,83.4552759 199.78554,83.4627872 199.782368,83.4702985 C199.779197,83.4778098 199.776026,83.4846952 199.772855,83.4922065 C199.769684,83.4997178 199.766513,83.5072291 199.763341,83.5141145 C199.76017,83.5216258 199.756365,83.530389 199.753194,83.5379003 C199.750657,83.5447857 199.746851,83.552297 199.744315,83.5585564 C199.741143,83.5666937 199.737338,83.5748309 199.734167,83.5823423 C199.730996,83.5892276 199.728459,83.596113 199.725288,83.6029984 C199.722117,83.6111356 199.718311,83.6205248 199.71514,83.6280361 C199.711969,83.6342955 199.709432,83.6411809 199.706895,83.6474403 C199.70309,83.6562035 199.699918,83.6637148 199.696113,83.672478 C199.693576,83.6787374 199.690405,83.6856228 199.687868,83.6918822 C199.684697,83.7006454 199.680892,83.7087827 199.677086,83.7175459 C199.674549,83.7238053 199.672012,83.7300647 199.669475,83.7363242 C199.66567,83.7444614 199.661865,83.7532246 199.658693,83.7619878 C199.656157,83.7676213 199.65362,83.7745067 199.651083,83.7801402 C199.647277,83.7889034 199.642838,83.7989185 199.639667,83.8076817 C199.63713,83.8133151 199.635227,83.8189486 199.63269,83.8239562 C199.628885,83.8327194 199.625079,83.8421085 199.621274,83.8508717 C199.618737,83.8571311 199.6162,83.8633906 199.613663,83.8702759 C199.609858,83.8784132 199.606052,83.8878023 199.602881,83.8965655 C199.600979,83.9009471 199.598442,83.9072066 199.596539,83.9122141 C199.592734,83.9216032 199.588294,83.9316183 199.584489,83.9416334 C199.582586,83.946015 199.580683,83.9497707 199.57878,83.9541523 C199.574341,83.9654192 199.570535,83.9754343 199.565462,83.9873272 C199.565462,83.9879532 199.564827,83.9892051 199.564193,83.9904569 C199.510918,84.121279 199.458911,84.2508491 199.407538,84.3816712 L199.406904,84.3829231 C199.384072,84.4411357 199.361239,84.4993484 199.339041,84.5575611 L199.338407,84.558813 C196.732355,91.3202467 196.712059,98.4948026 198.834194,104.958914 C195.403008,106.858024 191.638217,108.240731 187.649542,109 M205.213917,100.509712 C204.845429,98.8540938 204.655794,97.1552851 204.657063,95.4408279 C204.658965,92.2910839 205.305246,89.0925164 206.667573,86.0291525 C206.675818,86.0116261 206.683428,85.9940997 206.691039,85.9765733 C209.046571,80.7148985 213.132917,76.7245134 218,74.3703426 C217.509106,84.7866561 212.661683,94.0762727 205.213917,100.509712" id="Fill-49" fill="#89C2DF"></path>
                                <path d="M287.106738,90 C274.048437,90 262.998609,81.5496508 259.311248,69.9098208 L259.311248,63.4668415 C258.897815,63.4668415 258.485026,63.4547985 258.072238,63.4313465 C258.024509,62.7588427 258,62.0806343 258,61.3960876 C258,52.3245756 262.295579,44.2399518 268.998229,39 C288.050992,45.8207477 302.959746,61.1152967 309,80.2458428 C303.665356,86.2242176 295.834632,90 287.106738,90" id="Fill-50" fill="#87C3E0"></path>
                                <path d="M186.518814,123 C184.92727,119.040869 183.739263,114.895374 183,110.603314 C184.696583,110.502235 186.362585,110.299446 187.993352,110 C187.998006,110.273545 188,110.548353 188,110.822529 C188,115.012878 187.487435,119.090777 186.518814,123" id="Fill-51" fill="#8DC4E0"></path>
                                <path d="M182.904342,110 C182.309362,106.689737 182,103.291761 182,99.8283084 C182,96.1350707 182.351425,92.5171927 183.026459,89 C186.112619,95.2437274 187.878562,102.145925 188,109.410095 C186.335821,109.702886 184.635685,109.901168 182.904342,110" id="Fill-52" fill="#8FC5E0"></path>
                                <polyline id="Fill-53" fill="#E1F2F1" points="150 108 153.252671 146 174.747985 146 178 108 150 108"></polyline>
                                <path d="M138.107458,87 L124.892542,87 C122.960743,87 121.36254,88.4547101 121.245582,90.3201847 L118,142 L145,142 L141.755082,90.3201847 C141.63746,88.4547101 140.039257,87 138.107458,87" id="Fill-54" fill="#FAF9F6"></path>
                                <polyline id="Fill-55" fill="#00A595" points="117.305268 141 117 146 144 146 143.694732 141 117.305268 141"></polyline>
                                <path d="M137.003189,86 L123.996811,86 C123.446044,86 123,85.5435753 123,84.9799901 L123,75.0200099 C123,74.4564247 123.446044,74 123.996811,74 L137.003189,74 C137.553956,74 138,74.4564247 138,75.0200099 L138,84.9799901 C138,85.5435753 137.553956,86 137.003189,86" id="Fill-56" fill="#008FC5"></path>
                                <path d="M120,119.5 C120,124.746933 124.253203,129 129.500305,129 C134.746797,129 139,124.746933 139,119.5 C139,114.253677 134.746797,110 129.500305,110 C124.253203,110 120,114.253677 120,119.5" id="Fill-57" fill="#008FC5"></path>
                                <path d="M134.980267,117.630336 C134.831972,116.277616 133.798916,115.184223 132.516825,115.021897 C132.011872,114.95855 131.530071,115.035094 131.10083,115.219856 C130.398777,115.522073 129.60099,115.522073 128.899562,115.219856 C128.470322,115.035094 127.987895,114.95855 127.483568,115.021897 C126.201477,115.183563 125.16842,116.276957 125.0195,117.629676 C124.928145,118.463743 125.163414,119.869912 125.607047,120.463789 C125.607047,120.463789 125.712793,124.523928 127.420371,126.693558 C127.832092,127.21683 128.629253,127.041306 128.796319,126.384742 L129.537792,123.468147 C129.664187,122.96863 130.33558,122.96863 130.4626,123.468147 L131.204073,126.384742 C131.370514,127.041306 132.167675,127.21683 132.579396,126.693558 C134.2876,124.523928 134.393346,120.464449 134.393346,120.463789 C134.836978,119.869912 135.072247,118.464403 134.980267,117.630336" id="Fill-58" fill="#AFDCDE"></path>
                                <polygon id="Fill-59" fill="#EAF6F5" points="104 83 111 83 111 69 104 69"></polygon>
                                <polygon id="Fill-60" fill="#88C044" points="104 72 111 72 111 69 104 69"></polygon>
                                <path d="M102.386585,67 C101.068878,67 100,68.1950256 100,69.6695965 L100,83.3310086 C100,84.8049744 101.068878,86 102.386585,86 C102.599171,86 102.803642,85.9661157 103,85.9080284 L103,67.0925767 C102.803642,67.0344893 102.599171,67 102.386585,67" id="Fill-61" fill="#008FC5"></path>
                                <path d="M104,67 L104,86 C105.726052,85.6938835 107,84.6459995 107,83.3977039 L107,69.6022961 C107,68.3533895 105.726052,67.3061165 104,67" id="Fill-62" fill="#1CB8D6"></path>
                                <path d="M102.911432,87.5476091 C102.841928,87.420805 102.805729,87.2813835 102.805729,87.1400694 L102.805729,79.9141254 C102.805729,79.4094323 102.354679,79 101.79865,79 C101.289681,79 100.861075,79.3444531 100.798811,79.8024621 L100.007483,85.6423925 C99.9922793,85.7553176 100.000243,85.8701353 100.031375,85.9805369 L102.492962,94.7262381 C103.187275,97.1910332 103.538413,99.7245927 103.538413,102.268877 L103.538413,152.085875 C103.538413,152.591199 103.988738,153 104.545492,153 L106,153 L106,93.1711524 L102.911432,87.5476091" id="Fill-63" fill="#008FC5"></path>
                                <path d="M106.982529,95.5887427 L106,94 L106,155 L107.842762,155 C108.482529,155 109,154.583196 109,154.067981 L109,102.490447 C109,100.095112 108.309484,97.7325805 106.982529,95.5887427" id="Fill-64" fill="#1CB8D6"></path>
                                <path d="M172.884735,110 L154.115175,110 C152.877692,110 151.90447,111.028379 152.007487,112.227117 L153.02358,124 L173.976971,124 L174.992424,112.227117 C175.09608,111.028379 174.122858,110 172.884735,110" id="Fill-65" fill="#AFDCDE"></path>
                                <path d="M153,132 L153.707152,140.302482 C153.789149,141.262002 154.604192,142 155.582614,142 L169.417386,142 C170.396424,142 171.211467,141.262002 171.292848,140.302482 L172,132 C169.305179,133.846817 166.032676,134.932573 162.5,134.932573 C158.967941,134.932573 155.694821,133.846817 153,132" id="Fill-66" fill="#008FC5"></path>
                                <path d="M152,125 L152.588756,132.04284 C155.258314,133.905141 158.500748,135 161.999695,135 C165.499252,135 168.741076,133.905141 171.410633,132.04284 L172,125 L152,125" id="Fill-67" fill="#1CB8D6"></path>
                                <path d="M125.5,86 C125.223699,86 125,85.7591558 125,85.4630664 L125,78.5369336 C125,78.2402235 125.223699,78 125.5,78 C125.776301,78 126,78.2402235 126,78.5369336 L126,85.4630664 C126,85.7591558 125.776301,86 125.5,86" id="Fill-68" fill="#1CB8D6"></path>
                                <path d="M127.5,86 C127.223699,86 127,85.7591558 127,85.4630664 L127,78.5369336 C127,78.2402235 127.223699,78 127.5,78 C127.776301,78 128,78.2402235 128,78.5369336 L128,85.4630664 C128,85.7591558 127.776301,86 127.5,86" id="Fill-69" fill="#1CB8D6"></path>
                                <path d="M129.5,86 C129.223699,86 129,85.7591558 129,85.4630664 L129,78.5369336 C129,78.2402235 129.223699,78 129.5,78 C129.775723,78 130,78.2402235 130,78.5369336 L130,85.4630664 C130,85.7591558 129.775723,86 129.5,86" id="Fill-70" fill="#1CB8D6"></path>
                                <path d="M130.5,86 C130.224277,86 130,85.7591558 130,85.4630664 L130,78.5369336 C130,78.2402235 130.224277,78 130.5,78 C130.776301,78 131,78.2402235 131,78.5369336 L131,85.4630664 C131,85.7591558 130.776301,86 130.5,86" id="Fill-71" fill="#1CB8D6"></path>
                                <path d="M133.5,86 C133.224277,86 133,85.7591558 133,85.4630664 L133,78.5369336 C133,78.2402235 133.224277,78 133.5,78 C133.776301,78 134,78.2402235 134,78.5369336 L134,85.4630664 C134,85.7591558 133.776301,86 133.5,86" id="Fill-72" fill="#1CB8D6"></path>
                                <path d="M136.5,86 C136.223699,86 136,85.7591558 136,85.4630664 L136,78.5369336 C136,78.2402235 136.223699,78 136.5,78 C136.776301,78 137,78.2402235 137,78.5369336 L137,85.4630664 C137,85.7591558 136.776301,86 136.5,86" id="Fill-73" fill="#1CB8D6"></path>
                                <path d="M143,142 L130,142 L130,130.48317 C135.595505,130.48317 140.131645,126.002045 140.131645,120.473761 C140.131645,114.94612 135.595505,110.464353 130,110.464353 L130,87 L136.250776,87 C138.142407,87 139.707378,88.4547101 139.822555,90.3201847 L143,142" id="Fill-74" fill="#90D1DD"></path>
                                <polyline id="Fill-75" fill="#00A398" points="143 146 130 146 130 141 142.701193 141 143 146"></polyline>
                                <path d="M136.041811,86 L130,86 L130,74 L136.041811,74 C136.571238,74 137,74.4564247 137,75.0200099 L137,84.9799901 C137,85.5435753 136.571238,86 136.041811,86 M134.778518,76.1445345 C134.481491,76.1445345 134.241012,76.4005292 134.241012,76.716719 L134.241012,84.097569 C134.241012,84.4130974 134.481491,84.6697536 134.778518,84.6697536 C135.075544,84.6697536 135.316023,84.4130974 135.316023,84.097569 L135.316023,76.716719 C135.316023,76.4005292 135.075544,76.1445345 134.778518,76.1445345 M132.783222,76.1445345 C132.486818,76.1445345 132.245717,76.4005292 132.245717,76.716719 L132.245717,84.097569 C132.245717,84.4130974 132.486818,84.6697536 132.783222,84.6697536 C133.080249,84.6697536 133.320728,84.4130974 133.320728,84.097569 L133.320728,76.716719 C133.320728,76.4005292 133.080249,76.1445345 132.783222,76.1445345 M130.787927,76.1445345 C130.491522,76.1445345 130.250422,76.4005292 130.250422,76.716719 L130.250422,84.097569 C130.250422,84.4130974 130.491522,84.6697536 130.787927,84.6697536 C131.084953,84.6697536 131.325433,84.4130974 131.325433,84.097569 L131.325433,76.716719 C131.325433,76.4005292 131.084953,76.1445345 130.787927,76.1445345" id="Fill-76" fill="#007DB6"></path>
                                <path d="M130,129 L130,121.827564 C130.184393,121.827564 130.368786,121.942875 130.427168,122.174106 L131.112139,124.870785 C131.204624,125.23563 131.507514,125.439407 131.816763,125.439407 C132.022543,125.439407 132.231214,125.349721 132.382659,125.156316 C133.960694,123.150279 134.058382,119.396892 134.058382,119.396282 C134.468208,118.847184 134.685549,117.547653 134.600578,116.776475 C134.463584,115.525753 133.509249,114.514803 132.324855,114.364716 C132.216185,114.351294 132.108671,114.344583 132.00289,114.344583 C131.653757,114.344583 131.320809,114.417186 131.016763,114.547749 C130.692486,114.687464 130.346243,114.757626 130,114.757626 L130,110 C134.97052,110 139,114.253677 139,119.5 C139,124.746933 134.97052,129 130,129" id="Fill-77" fill="#007DB6"></path>
                                <path d="M131.966701,127 C131.63193,127 131.304043,126.779599 131.203924,126.384988 L130.462422,123.468298 C130.399222,123.218202 130.199611,123.093484 130,123.093484 L130,115.446742 C130.374818,115.446742 130.749637,115.370855 131.100677,115.219742 C131.429816,115.078526 131.790243,115 132.16819,115 C132.2827,115 132.399088,115.007259 132.516727,115.021776 C133.798869,115.184108 134.831966,116.277536 134.980266,117.6303 C135.07225,118.464394 134.836972,119.869948 134.393322,120.463844 C134.393322,120.464504 134.287572,124.524113 132.579301,126.693814 C132.415357,126.902997 132.189465,127 131.966701,127" id="Fill-78" fill="#68C4D3"></path>
                                <path d="M130.5,86 C130.224277,86 130,85.7591558 130,85.4630664 L130,78.5369336 C130,78.2402235 130.224277,78 130.5,78 C130.776301,78 131,78.2402235 131,78.5369336 L131,85.4630664 C131,85.7591558 130.776301,86 130.5,86" id="Fill-79" fill="#009CCA"></path>
                                <path d="M133.5,86 C133.224277,86 133,85.7591558 133,85.4630664 L133,78.5369336 C133,78.2402235 133.224277,78 133.5,78 C133.776301,78 134,78.2402235 134,78.5369336 L134,85.4630664 C134,85.7591558 133.776301,86 133.5,86" id="Fill-80" fill="#009CCA"></path>
                                <path d="M136.5,86 C136.223699,86 136,85.7591558 136,85.4630664 L136,78.5369336 C136,78.2402235 136.223699,78 136.5,78 C136.776301,78 137,78.2402235 137,78.5369336 L137,85.4630664 C137,85.7591558 136.776301,86 136.5,86" id="Fill-81" fill="#009CCA"></path>
                                <path d="M172.980272,146 L163,146 L163,142.269332 L169.835052,142.269332 C170.802437,142.269332 171.607779,141.487986 171.688191,140.472108 L172.974789,124.287458 L163,124.287458 L172.974789,124.287458 L173.941565,112.120699 C174.040253,110.881855 173.113683,109.81907 171.934911,109.81907 L163,109.81907 L163,108 L176,108 L172.980272,146" id="Fill-82" fill="#96D3DE"></path>
                                <path d="M173.021454,124 L163,124 L163,110 L171.976711,110 C173.160998,110 174.091903,111.028379 173.992753,112.227117 L173.021454,124" id="Fill-83" fill="#77C8D5"></path>
                                <path d="M169.553313,142 L163,142 L163,134.932573 C166.346745,134.932573 169.447011,133.846817 172,132 L171.330067,140.302482 C171.252969,141.262002 170.480823,142 169.553313,142" id="Fill-84" fill="#0080B9"></path>
                                <path d="M163,135 L163,125 L173,125 L172.410651,132.04284 C169.741175,133.905141 166.49945,135 163,135" id="Fill-85" fill="#00A2CE"></path>
                                <path d="M251.075149,62.5029111 C247.984148,61.2401996 244.513311,60.7158478 240.880334,61.1503292 C231.648672,62.2552826 224.210888,69.7268106 223.141149,78.9705314 C222.481607,84.6692203 224.174067,94.2788881 227.367779,98.3366339 C227.367779,98.3372805 228.130679,126.080081 240.427504,140.907404 C243.391894,144.481531 249.130758,143.281535 250.332275,138.795127 L255.669341,118.863293 C256.126047,117.158342 257.5627,116.305543 259,116.305543 L259,64.050751 C256.300461,64.050751 253.602213,63.5348044 251.075149,62.5029111" id="Fill-86" fill="#EAF6F5"></path>
                                <path d="M294.858882,78.9718245 C293.789769,69.7274572 286.351845,62.2552826 277.120008,61.1503292 C273.486317,60.7158478 270.015415,61.2401996 266.923708,62.5029111 C264.397243,63.5348044 261.698299,64.050751 259,64.050751 L259,116.305543 C260.436681,116.305543 261.873362,117.158342 262.330076,118.863293 L267.667242,138.795127 C268.868137,143.281535 274.607755,144.481531 277.572201,140.907404 C289.869259,126.080727 290.632172,98.3385736 290.632172,98.3366339 C293.825299,94.2788881 295.518438,84.6698668 294.858882,78.9718245" id="Fill-87" fill="#AFDCDE"></path>
                                <path d="M283,79 C283,82.3135602 280.314217,85 277,85 C273.68644,85 271,82.3135602 271,79 C271,75.6857831 273.68644,73 277,73 C280.314217,73 283,75.6857831 283,79" id="Fill-88" fill="#B4582D"></path>
                                <polyline id="Fill-89" fill="#008FC5" points="202 147.125813 214.89035 121 219 122.874854 206.10965 149 202 147.125813"></polyline>
                                <path d="M196.364551,155.544841 L208.742487,129.754535 C209.699808,127.426015 212.241766,126.367836 214.421644,127.389117 C216.600906,128.411716 217.592152,131.127005 216.635449,133.455525 L204.256896,159.245831 C203.300809,161.573693 200.758234,162.63253 198.578356,161.61059 C196.399094,160.588651 195.407848,157.873362 196.364551,155.544841" id="Fill-90" fill="#008FC5"></path>
                                <path d="M251.457802,105.297874 C257.136132,92.3624435 251.231552,77.2199546 238.297438,71.5422303 C225.362694,65.8645059 210.22027,71.7678519 204.54194,84.702652 C198.864241,97.6380824 204.768191,112.779941 217.702305,118.458296 C230.637049,124.13602 245.779472,118.232674 251.457802,105.297874 M199.614209,82.5397094 C206.484925,66.887366 224.808726,59.7431011 240.460371,66.613847 C256.112646,73.4852233 263.256881,91.8084731 256.386164,107.460816 C249.514818,123.11316 231.191647,130.256795 215.539372,123.386049 C199.887096,116.515933 192.742862,98.1920528 199.614209,82.5397094" id="Fill-91" fill="#008FC5"></path>
                                <path d="M250.944589,105.632733 C256.256339,93.5324696 250.733623,79.3671631 238.632725,74.0554122 C226.533102,68.7436612 212.367161,74.2663781 207.055411,86.3672784 C201.743661,98.4675413 207.267014,112.632848 219.366637,117.944599 C231.467535,123.25635 245.632839,117.733633 250.944589,105.632733 M202.445393,84.3430258 C208.873159,69.7009746 226.014929,63.0176269 240.656977,69.4453936 C255.299026,75.872523 261.982372,93.0142967 255.554607,107.656348 C249.127479,122.299036 231.985708,128.982384 217.343023,122.554617 C202.700974,116.127488 196.017628,98.9857143 202.445393,84.3430258" id="Fill-92" fill="#1CB8D6"></path>
                                <path d="M209,129.25 C209.005,129.24 209.009,129.23 209.013,129.221 C209.009,129.23 209.005,129.24 209,129.25 M209.018,129.21 C209.021,129.204 209.024,129.198 209.026,129.191 C209.024,129.198 209.021,129.204 209.018,129.21 M209.031,129.18 C209.034,129.174 209.037,129.168 209.04,129.162 C209.037,129.168 209.034,129.174 209.031,129.18 M209.045,129.15 C209.048,129.144 209.05,129.139 209.053,129.133 C209.05,129.139 209.048,129.145 209.045,129.15 M209.059,129.121 C209.061,129.115 209.064,129.11 209.066,129.105 C209.064,129.11 209.061,129.115 209.059,129.121 M209.073,129.091 C209.075,129.086 209.077,129.082 209.079,129.077 C209.077,129.081 209.075,129.086 209.073,129.091 M209.086,129.062 C209.088,129.058 209.09,129.053 209.092,129.049 C209.09,129.053 209.088,129.058 209.086,129.062 M209.1,129.032 C209.102,129.029 209.103,129.026 209.105,129.023 C209.103,129.026 209.102,129.029 209.1,129.032 M209.114,129.004 C209.115,129.003 209.115,129.002 209.116,129 C209.115,129.002 209.115,129.003 209.114,129.004" id="Fill-93" fill="#68A1C0"></path>
                                <path d="M213.857986,126 C213.400814,125.850775 212.932655,125.779606 212.46999,125.779606 C212.312513,125.779606 212.155646,125.788215 212,125.804285 L213.309257,123 C213.859817,123.272049 214.425025,123.530897 215,123.773675 L213.857986,126" id="Fill-94" fill="#007AA7"></path>
                                <path d="M198.564946,161 C196.956028,160.255002 195.99755,158.593482 196.000005,156.851054 C196.000618,156.245864 196.117207,155.630966 196.362655,155.041311 L208.676213,129.7062 C208.679281,129.699728 208.681736,129.693255 208.68419,129.68743 C208.685418,129.684841 208.686031,129.682899 208.687258,129.68031 C208.689099,129.676426 208.69094,129.672543 208.692167,129.668012 C208.693395,129.66607 208.694622,129.663481 208.695236,129.660892 C208.697076,129.657009 208.698917,129.653125 208.700758,129.649241 C208.701372,129.646652 208.702599,129.644063 208.703826,129.641474 C208.705667,129.638238 208.706894,129.634354 208.708735,129.630471 C208.709963,129.627882 208.71119,129.625293 208.712417,129.622704 C208.713644,129.61882 208.715485,129.615584 208.716712,129.612347 C208.71794,129.609111 208.719167,129.605875 208.721008,129.603286 C208.722235,129.600049 208.723462,129.596813 208.724689,129.594224 C208.72653,129.590988 208.727758,129.587752 208.728985,129.584515 C208.730212,129.581926 208.731439,129.57869 208.732667,129.576101 C208.734507,129.572865 208.736348,129.568981 208.737576,129.565097 C208.738803,129.563156 208.739416,129.561214 208.740644,129.559272 C208.742484,129.555388 208.744325,129.550858 208.746166,129.546974 C208.74678,129.546327 208.74678,129.54568 208.747393,129.544385 C209.410106,128.10617 210.712212,127.200004 212.130293,127.032363 L212.132134,127.027832 C212.288608,127.009709 212.446308,127 212.604623,127 C213.069749,127 213.540397,127.08026 214,127.248548 L198.564946,161" id="Fill-95" fill="#007AA7"></path>
                                <path d="M218,75 C220.199634,73.4897319 222.563492,72.4723331 225,72 C222.563492,72.4731888 220.199023,73.4897319 218,75" id="Fill-96" fill="#68A1C0"></path>
                                <path d="M207,86 C209.291795,80.559163 213.264651,76.4333945 218,74 C213.265885,76.4340416 209.291178,80.5598102 207,86" id="Fill-97" fill="#70A2BF"></path>
                                <path d="M225,71.356 C225.990082,71.121 226.991832,71.001 228,71 C226.991832,71.001 225.990082,71.121 225,71.356" id="Fill-98" fill="#BACBC6"></path>
                                <path d="M199,85 L199.000883,84.9985348 L199,85 M199.095322,84.7941392 L199.096205,84.792674 L199.095322,84.7941392 M199.31421,84.3347985 C199.315093,84.3333333 199.315975,84.3318681 199.315975,84.3311355 C199.315975,84.3318681 199.315093,84.3333333 199.31421,84.3347985 M199.33451,84.2923077 C199.337158,84.2871795 199.339806,84.2827839 199.342454,84.2776557 C199.339806,84.2820513 199.337158,84.2879121 199.33451,84.2923077 M199.359223,84.2432234 C199.361871,84.2373626 199.365402,84.2300366 199.368049,84.2249084 C199.364519,84.2315018 199.361871,84.23663 199.359223,84.2432234 M199.383054,84.1941392 C199.386584,84.1860806 199.390115,84.1787546 199.393645,84.1714286 C199.390115,84.1794872 199.386584,84.1860806 199.383054,84.1941392 M199.409532,84.1399267 C199.413063,84.1340659 199.415711,84.1274725 199.419241,84.1208791 C199.415711,84.1274725 199.413063,84.1333333 199.409532,84.1399267 M199.435128,84.0886447 C199.438658,84.0820513 199.442189,84.0739927 199.445719,84.0673993 C199.441306,84.0754579 199.438658,84.0805861 199.435128,84.0886447 M199.460724,84.0373626 C199.464254,84.0300366 199.467785,84.0227106 199.471315,84.0153846 C199.467785,84.021978 199.464254,84.0307692 199.460724,84.0373626 M199.48632,83.985348 C199.48985,83.978022 199.494263,83.9699634 199.497793,83.9626374 C199.494263,83.9699634 199.490733,83.9772894 199.48632,83.985348 M199.512798,83.9333333 C199.516328,83.9260073 199.519859,83.9179487 199.524272,83.9106227 C199.519859,83.9186813 199.516328,83.9252747 199.512798,83.9333333 M199.538394,83.8813187 C199.542807,83.8732601 199.546337,83.8652015 199.55075,83.8571429 C199.546337,83.8659341 199.542807,83.8725275 199.538394,83.8813187 M199.564872,83.829304 C199.568402,83.821978 199.573698,83.8131868 199.577229,83.8051282 C199.572816,83.8131868 199.568402,83.821978 199.564872,83.829304 M199.59135,83.7772894 C199.595763,83.7692308 199.600177,83.7604396 199.60459,83.7516484 C199.600177,83.7604396 199.595763,83.7684982 199.59135,83.7772894 M199.617829,83.7260073 C199.622242,83.7172161 199.626655,83.7084249 199.631068,83.6996337 C199.626655,83.7084249 199.622242,83.7164835 199.617829,83.7260073 M199.644307,83.6732601 C199.64872,83.6652015 199.654016,83.6542125 199.658429,83.6461538 C199.653133,83.6556777 199.649603,83.6637363 199.644307,83.6732601 M199.670786,83.6212454 C199.676081,83.6117216 199.680494,83.6029304 199.68579,83.5934066 C199.680494,83.6029304 199.676081,83.6117216 199.670786,83.6212454 M199.698147,83.5692308 C199.703442,83.559707 199.708738,83.5494505 199.713151,83.5399267 C199.707855,83.5501832 199.703442,83.559707 199.698147,83.5692308 M199.725508,83.5172161 C199.729921,83.5076923 199.736099,83.4967033 199.740512,83.4871795 C199.736099,83.4967033 199.730803,83.5069597 199.725508,83.5172161 M199.751986,83.4652015 C199.758164,83.4542125 199.76346,83.4432234 199.769638,83.432967 C199.76346,83.443956 199.758164,83.4542125 199.751986,83.4652015 M199.780229,83.4124542 C199.785525,83.4021978 199.790821,83.3912088 199.796999,83.3802198 C199.791703,83.3904762 199.785525,83.4021978 199.780229,83.4124542 M199.80759,83.3604396 C199.816417,83.3435897 199.826125,83.3252747 199.834951,83.3084249 C199.825243,83.3260073 199.816417,83.3421245 199.80759,83.3604396 M199.834951,83.3084249 C199.889673,83.2051282 199.944395,83.1025641 200,83 C199.944395,83.1025641 199.889673,83.2051282 199.834951,83.3084249" id="Fill-99" fill="#70A2BF"></path>
                                <path d="M217,67 C220.492608,65.0365195 224.219623,64 228,64 C224.219623,64.0009527 220.492608,65.0365195 217,67" id="Fill-100" fill="#68A1C0"></path>
                                <path d="M200,83 C203.443381,75.3162827 209.693599,69.7539206 217,67 C209.694831,69.7545402 203.442765,75.3175218 200,83" id="Fill-101" fill="#70A2BF"></path>
                                <path d="M215.526577,124 C214.925521,123.730175 214.334674,123.442489 213.75914,123.140132 L213.762969,123.131202 C199.793199,115.787244 193.407456,99.0459808 199.042198,84.2375054 L199.042836,84.2362297 C199.065806,84.1769065 199.088138,84.1175833 199.111109,84.0582601 L199.111747,84.0569843 C199.16343,83.9236666 199.215751,83.7909867 199.269349,83.6583068 C199.269987,83.6570311 199.270625,83.6557553 199.270625,83.6551174 C199.275091,83.6436355 199.279558,83.6321536 199.284024,83.6213096 C199.285938,83.6174823 199.287852,83.6123792 199.289767,83.6085519 C199.293595,83.5977079 199.297423,83.5887775 199.30189,83.5785714 C199.303804,83.5728304 199.305718,83.5683652 199.30827,83.5626243 C199.312099,83.5536939 199.315289,83.5447635 199.319118,83.5358331 C199.32167,83.5288164 199.324222,83.5230755 199.326774,83.5160587 C199.330603,83.5071284 199.334431,83.498198 199.338259,83.4886297 C199.340812,83.4828888 199.342726,83.4777857 199.345278,83.4720447 C199.349107,83.4624765 199.352935,83.4529082 199.356763,83.4439778 C199.359316,83.4369611 199.36123,83.4324959 199.36442,83.4254792 C199.368248,83.415911 199.371439,83.4082563 199.375267,83.399326 C199.377819,83.393585 199.380372,83.3859304 199.382924,83.3801895 C199.386114,83.371897 199.390581,83.3623287 199.393771,83.3540362 C199.396961,83.3470195 199.399514,83.3406406 199.402066,83.3342618 C199.405894,83.3253314 199.409085,83.3170389 199.412913,83.3087465 C199.415465,83.3017297 199.418017,83.2959888 199.421208,83.2889721 C199.424398,83.2806796 199.428226,83.2723871 199.431417,83.2634567 C199.434607,83.2558021 199.437159,83.2500611 199.44035,83.2424065 C199.444178,83.234114 199.447368,83.2264594 199.450559,83.2181669 C199.453111,83.2117881 199.456301,83.2041335 199.459492,83.1971168 C199.462682,83.1888243 199.465872,83.1811697 199.469701,83.1728772 C199.472891,83.1652226 199.476081,83.1582058 199.479272,83.1505512 C199.482462,83.1428966 199.485652,83.135242 199.488843,83.1282253 C199.492033,83.1199328 199.495223,83.1129161 199.498413,83.1052615 C199.502242,83.096969 199.504794,83.091228 199.507984,83.0822977 C199.511813,83.0740052 199.514365,83.0669884 199.518193,83.058696 C199.521384,83.0510413 199.523936,83.0446625 199.527126,83.0370079 C199.530955,83.0287154 199.534145,83.0210608 199.537973,83.0127683 C199.540526,83.0063895 199.544354,82.9987349 199.546906,82.9917181 C199.550735,82.9834256 199.553925,82.9751332 199.557753,82.9662028 C199.560944,82.9585482 199.563496,82.9534451 199.566686,82.9464284 C199.570515,82.937498 199.574343,82.9285676 199.577533,82.9202751 C199.580724,82.9138963 199.583276,82.9075175 199.585828,82.9011386 C199.590295,82.8915704 199.594123,82.88264 199.59859,82.8730717 C199.600504,82.8673308 199.603694,82.8609519 199.606246,82.855211 C199.610075,82.8462806 199.614541,82.8360745 199.618369,82.8271441 C199.620922,82.8207652 199.622836,82.8163001 199.626026,82.8099212 C199.632407,82.7939741 199.638788,82.7799407 199.645806,82.7646315 C199.685366,82.6746898 199.724926,82.5853861 199.765124,82.4960823 C199.767038,82.4916171 199.768953,82.487152 199.771505,82.4820489 C203.336368,74.5722882 209.810163,68.8447284 217.37441,66.0086965 C220.882485,64.6940177 224.626006,64.0006379 228.423124,64 C228.425038,64 228.426952,64 228.429504,64 C228.430142,64 228.43078,64 228.431418,64 C232.60946,64.0006379 236.856413,64.8400931 240.922794,66.6114968 C240.948955,66.6229787 240.973839,66.6338227 241,66.6453046 L240.054389,68.8000765 C236.268757,67.1383889 232.317227,66.3525159 228.425676,66.3525159 C217.248712,66.3525159 206.573903,72.8397955 201.800548,83.7099754 C195.38992,98.3092249 202.007281,115.391119 216.549394,121.880312 L215.526577,124" id="Fill-102" fill="#007AA7"></path>
                                <path d="M216.900273,123 C202.608892,116.455623 196.105628,99.2284664 202.405724,84.5050661 C207.096778,73.5424469 217.587533,67 228.571787,67 C232.396241,67 236.279638,67.792556 240,69.4683745 L238.00845,74.1214245 C237.988384,74.1124182 237.967691,74.1027685 237.947625,74.0937622 C234.892576,72.7286617 231.705845,72.0821367 228.567397,72.0814934 C228.566143,72.0814934 228.565516,72.0814934 228.564889,72.0814934 C228.563635,72.0814934 228.561127,72.0814934 228.559872,72.0814934 C227.476309,72.0821367 226.399642,72.1593337 225.335517,72.3105112 C222.832911,72.6656175 220.404925,73.4305112 218.145619,74.5659506 C213.332288,76.9847904 209.294005,81.0858817 206.964468,86.4941758 C206.956944,86.5121884 206.949419,86.530201 206.941267,86.5482137 C205.594337,89.6965652 204.95536,92.9838713 204.953479,96.2209994 C204.947208,105.539322 210.218295,114.441424 219.053606,118.420287 L216.900273,123" id="Fill-103" fill="#2A95AF"></path>
                                <path d="M207.578437,128.096365 C207.004879,127.56964 206.823627,126.74911 207.190388,126.0375 C207.657507,125.132627 208.835036,124.7461 209.820364,125.175077 L219.870719,129.547514 C220.854831,129.975373 221.276333,131.057311 220.809822,131.962743 C220.342703,132.867616 219.165175,133.253584 218.179846,132.825165 L208.129492,128.452729 C207.919045,128.361124 207.734144,128.239358 207.578437,128.096365" id="Fill-104" fill="#008FC5"></path>
                                <path d="M250.976246,104.646623 C256.295668,92.5289046 250.764975,78.3431641 238.646598,73.0237507 C226.529497,67.7043374 212.343093,73.2350209 207.023671,85.3533773 C201.704248,97.4710954 207.235579,111.656836 219.35268,116.976249 C231.471058,122.295663 245.656823,116.764979 250.976246,104.646623" id="Fill-106" fill="#EAF6F5"></path>
                                <path d="M240,94.9996752 C240,101.627331 234.627331,107 227.999675,107 C221.372669,107 216,101.627331 216,94.9996752 C216,88.372669 221.372669,83 227.999675,83 C234.627331,83 240,88.372669 240,94.9996752" id="Fill-107" fill="#B4582D"></path>
                                <path d="M234,94.4996841 C234,98.090052 231.08942,101 227.499684,101 C223.909948,101 221,98.090052 221,94.4996841 C221,90.909948 223.909948,88 227.499684,88 C231.08942,88 234,90.909948 234,94.4996841" id="Fill-108" fill="#502419"></path>
                                <path d="M225,79.5002863 C225,80.8809987 223.656665,82 222,82 C220.343335,82 219,80.8809987 219,79.5002863 C219,78.1195739 220.343335,77 222,77 C223.656665,77 225,78.1195739 225,79.5002863" id="Fill-109" fill="#88C044"></path>
                                <path d="M243,101 C243,103.209091 241.209091,105 239,105 C236.790909,105 235,103.209091 235,101 C235,98.7909091 236.790909,97 239,97 C241.209091,97 243,98.7909091 243,101" id="Fill-110" fill="#88C044"></path>
                                <path d="M226,112 C226,114.209091 224.209091,116 222,116 C219.790909,116 218,114.209091 218,112 C218,109.790909 219.790909,108 222,108 C224.209091,108 226,109.790909 226,112" id="Fill-111" fill="#88C044"></path>
                                <path d="M248,88.4997228 C248,89.3280355 247.32859,90 246.500277,90 C245.67141,90 245,89.3280355 245,88.4997228 C245,87.6714101 245.67141,87 246.500277,87 C247.32859,87 248,87.6714101 248,88.4997228" id="Fill-112" fill="#88C044"></path>
                                <path d="M213,97.5 C213,98.8807126 211.880713,100 210.5,100 C209.119287,100 208,98.8807126 208,97.5 C208,96.1192874 209.119287,95 210.5,95 C211.880713,95 213,96.1192874 213,97.5" id="Fill-113" fill="#88C044"></path>
                                <path d="M76.9879813,77.8206107 L76.9873379,77.8206107 C76.9873379,77.7417018 76.9905548,77.6634241 76.9892681,77.5838839 C76.8721735,70.9081891 70.7073372,65.3580511 64.2246729,65.0171645 C62.3620971,64.9193175 60.5831603,65.2431597 58.9702148,65.9028383 C54.2381786,67.8389476 51.7656817,67.8389476 47.0330021,65.9028383 C45.4200565,65.2431597 43.6411198,64.9193175 41.778544,65.0171645 C35.296523,65.3580511 29.1316868,70.9081891 29.0145922,77.5838839 C29.0126621,77.6634241 29.015879,77.7417018 29.015879,77.8206107 L29.0120187,77.8206107 C29.0120187,77.8206107 27.6982433,105 52.5422374,105 L53.4577626,105 C78.3017567,105 76.9879813,77.8206107 76.9879813,77.8206107" id="Fill-114" fill="#DD4246"></path>
                                <path d="M41.016327,63 C37.6932778,63 35,60.9854218 35,58.4997018 C35,56.0145782 37.6932778,54 41.016327,54 C44.3393762,54 52,58.4997018 52,58.4997018 C52,58.4997018 44.3393762,63 41.016327,63" id="Fill-115" fill="#009898"></path>
                                <path d="M75.9879811,77.8206107 L75.9873378,77.8206107 C75.9873378,77.7417018 75.9905547,77.6634241 75.9892679,77.5838839 C75.8721718,70.9081891 69.7072529,65.3580511 63.225145,65.0171645 C61.3619009,64.9193175 59.5829403,65.2431597 57.9699731,65.9028383 C55.6029582,66.8712086 53.8014791,67.3553937 52,67.3547625 L52,105 L52.457447,105 C77.3017741,105 75.9879811,77.8206107 75.9879811,77.8206107" id="Fill-116" fill="#D4242A"></path>
                                <polygon id="Fill-117" fill="#009898" points="51 69 52 69 52 59 51 59"></polygon>
                                <path d="M48,75.500318 C48,79.6422182 44.6422182,83 40.499682,83 C36.3577818,83 33,79.6422182 33,75.500318 C33,71.3577818 36.3577818,68 40.499682,68 C44.6422182,68 48,71.3577818 48,75.500318" id="Fill-118" fill="#EC979B"></path>
                                <path d="M109,51.5 C109,55.0898571 106.089857,58 102.5,58 C98.9101429,58 96,55.0898571 96,51.5 C96,47.9101429 98.9101429,45 102.5,45 C106.089857,45 109,47.9101429 109,51.5" id="Fill-120" fill="#98CEAB"></path>
                                <path d="M74,144.99969 C74,147.761536 71.7610554,150 69,150 C66.2383253,150 64,147.761536 64,144.99969 C64,142.238464 66.2383253,140 69,140 C71.7610554,140 74,142.238464 74,144.99969" id="Fill-122" fill="#98CEAB"></path>
                                <path d="M52,133.499693 C52,134.880441 50.6565297,136 48.9996321,136 C47.3427345,136 46,134.880441 46,133.499693 C46,132.118945 47.3427345,131 48.9996321,131 C50.6565297,131 52,132.118945 52,133.499693" id="Fill-123" fill="#98CEAB"></path>
                                <path d="M52,151.5 C52,152.881182 50.6566948,154 49,154 C47.3425814,154 46,152.881182 46,151.5 C46,150.119421 47.3425814,149 49,149 C50.6566948,149 52,150.119421 52,151.5" id="Fill-124" fill="#98CEAB"></path>
                                <path d="M313,152.999691 C313,155.761378 310.761378,158 308.000309,158 C305.238622,158 303,155.761378 303,152.999691 C303,150.238622 305.238622,148 308.000309,148 C310.761378,148 313,150.238622 313,152.999691" id="Fill-125" fill="#98CEAB"></path>
                            </g>
                        </g>
                    </g>
                </g>
            </g>
        </g>
    </g>
</svg>