<?xml version="1.0" encoding="UTF-8"?>
<svg width="149px" height="86px" viewBox="0 0 149 86" version="1.1" xmlns="http://www.w3.org/2000/svg" xmlns:xlink="http://www.w3.org/1999/xlink">
    <!-- Generator: Sketch 50.2 (55047) - http://www.bohemiancoding.com/sketch -->
    <title>Group 4</title>
    <desc>Created with Sketch.</desc>
    <defs>
        <path d="M0,4.99544665 C0,2.23653765 2.23656957,0 5.00010254,0 L143.999897,0 C146.761378,0 149,2.23413232 149,4.99544665 L149,86 L0,86 L0,4.99544665 Z" id="path-1"></path>
    </defs>
    <g id="Zilla-Slab/Lato" stroke="none" stroke-width="1" fill="none" fill-rule="evenodd">
        <g id="⟶-My-Courses" transform="translate(-201.000000, -167.000000)">
            <g id="Grid" transform="translate(20.000000, 162.000000)">
                <g id="2" transform="translate(176.000000, 0.000000)">
                    <g id="Group-4" transform="translate(5.000000, 5.000000)">
                        <mask id="mask-2" fill="white">
                            <use xlink:href="#path-1"></use>
                        </mask>
                        <use id="Mask-Copy-3" fill="#9b9b9b" xlink:href="#path-1"></use>
                        <g id="baby" mask="url(#mask-2)">
                            <g transform="translate(51.000000, 21.000000)">
                                <path d="M24.4997619,44.996835 C33.698262,45.1231194 38.8299879,41.4503473 41.6829462,37.5581964 C44.629967,33.5381421 45.5795898,28.4244323 44.6659561,23.5349583 C41.3590438,5.85028116 24.4997619,6.00004154 24.4997619,6.00004154 C24.4997619,6.00004154 7.64129794,5.85028116 4.33438562,23.5357678 C3.41993398,28.4252418 4.37037477,33.5381421 7.31739557,37.559006 C10.1695359,41.4503473 15.3012618,45.1231194 24.4997619,44.996835 Z" id="Shape" fill="#d2d2d2" fill-rule="nonzero"></path>
                                <path d="M23.302731,34.6104588 C23.0480475,34.1473928 23.1419673,33.5889445 23.5438765,33.221261 C24.2783126,32.5482 25.5424228,31.4474568 26.9139907,30.5128636 C25.8732575,30.0490284 24.6548381,29.8651866 23.3670364,30.1059502 C21.1307292,30.5236326 19.3665594,32.229746 19.0543394,34.2866203 C18.5805096,37.4034695 21.2694936,40.0649449 24.6218392,39.9987926 C26.7862259,39.956486 28.708621,38.6665165 29.5674374,36.8596363 C30.0861118,35.7673545 30.087804,34.745071 29.8373512,33.8120162 C29.1266065,34.350465 28.2415602,34.9358357 27.1373676,35.5696668 C25.7937218,36.3388794 24.0117834,35.9004282 23.302731,34.6104588 Z" id="Shape" fill="#7f7f7f" fill-rule="nonzero"></path>
                                <path d="M3.78863158,24.5435127 C3.40715789,24.2041139 2.95915789,24 2.47578947,24 C1.10821053,24 0,25.5664557 0,27.5 C0,29.4327532 1.10821053,31 2.47494737,31 C3.05347368,31 3.57894737,30.7072785 4,30.2373418 C3.61852632,28.3757911 3.552,26.4517405 3.78863158,24.5435127 Z" id="Shape" fill="#b9b9b9" fill-rule="nonzero"></path>
                                <path d="M46.8658727,21.9533267 C46.4394451,20.0438432 45.1238062,18.7408637 43.9278397,19.043714 C43.5559464,19.1377021 43.2476764,19.3891401 43,19.7305497 C43.4074921,20.9475743 43.7528757,22.2642102 44.005854,23.71259 C44.1232542,24.384966 44.2035407,25.0613585 44.2542879,25.7385544 C44.6481464,25.9666963 45.0662423,26.0614877 45.4722195,25.9586632 C46.668186,25.6558128 47.2923003,23.8628102 46.8658727,21.9533267 Z" id="Shape" fill="#b9b9b9" fill-rule="nonzero"></path>
                                <ellipse id="Oval" fill="#FFFFFF" fill-rule="nonzero" cx="16" cy="20" rx="5" ry="6"></ellipse>
                                <ellipse id="Oval" fill="#636363" fill-rule="nonzero" cx="16.5" cy="19.5" rx="2.5" ry="3.5"></ellipse>
                                <ellipse id="Oval" fill="#FFFFFF" fill-rule="nonzero" cx="31" cy="20" rx="5" ry="6"></ellipse>
                                <ellipse id="Oval" fill="#636363" fill-rule="nonzero" cx="30.5" cy="19.5" rx="2.5" ry="3.5"></ellipse>
                                <path d="M23.7503752,6 C23.3354177,6 23,5.657515 23,5.23381433 C23,2.2993232 25.305903,0 28.2496248,0 C28.6645823,0 29,0.342484996 29,0.766185672 C29,1.18988635 28.6645823,1.53237134 28.2496248,1.53237134 C26.1470735,1.53237134 24.5007504,3.15821734 24.5007504,5.23381433 C24.5007504,5.657515 24.1653327,6 23.7503752,6 Z" id="Shape" fill="#5E5F62" fill-rule="nonzero"></path>
                                <g id="Group" stroke-width="1" fill="none" fill-rule="evenodd" transform="translate(22.000000, 28.000000)">
                                    <path d="M5.81,1.55372727 C4.2375,2.49790909 2.76416667,3.92563636 1.85416667,4.89518182 C1.29166667,5.49490909 1.22333333,6.39245455 1.68416667,7.07072727 C2.195,7.82263636 3.20583333,8.07381818 4.02166667,7.65409091 C6.32666667,6.46936364 7.6075,5.87045455 8.56916667,4.87554545 C10.295,3.08945455 7.94916667,0.269181818 5.81,1.55372727 Z" id="Shape" fill="#a0a0a0" fill-rule="nonzero"></path>
                                    <path d="M3.18083333,8.67763636 C2.32583333,8.67763636 1.49583333,8.26854545 0.990833333,7.52563636 C0.313333333,6.52827273 0.4175,5.21918182 1.24166667,4.34127273 C2.225,3.29318182 3.74,1.83681818 5.375,0.855818182 C6.6925,0.0654545455 8.30333333,0.354272727 9.2925,1.55536364 C10.2775,2.74990909 10.2283333,4.34618182 9.17333333,5.43845455 C8.21333333,6.43336364 7.03083333,7.03718182 5.07083333,8.03945455 L4.4075,8.379 C4.01666667,8.58027273 3.59583333,8.67763636 3.18083333,8.67763636 Z M6.935,2.04872727 C6.71666667,2.04872727 6.48416667,2.10845455 6.24416667,2.25245455 C4.77416667,3.13445455 3.37916667,4.47872727 2.4675,5.44990909 C2.16583333,5.77145455 2.12916667,6.25090909 2.37833333,6.61745455 C2.65333333,7.02245455 3.19416667,7.15663636 3.63583333,6.93 L4.30333333,6.588 C6.16916667,5.634 7.1975,5.10872727 7.96583333,4.31345455 C8.54583333,3.71290909 8.34583333,3.00681818 7.99833333,2.58627273 C7.76083333,2.29827273 7.38,2.04872727 6.935,2.04872727 Z M5.81,1.55454545 L5.81833333,1.55454545 L5.81,1.55454545 Z" id="Shape" fill="#a0a0a0" fill-rule="nonzero"></path>
                                </g>
                            </g>
                        </g>
                    </g>
                </g>
            </g>
        </g>
    </g>
</svg>