<?xml version="1.0" encoding="UTF-8"?>
<svg width="34px" height="43px" viewBox="0 0 34 43" version="1.1" xmlns="http://www.w3.org/2000/svg" xmlns:xlink="http://www.w3.org/1999/xlink">
    <!-- Generator: Sketch 50.2 (55047) - http://www.bohemiancoding.com/sketch -->
    <title>bacteria</title>
    <desc>Created with Sketch.</desc>
    <defs></defs>
    <g id="Page-1" stroke="none" stroke-width="1" fill="none" fill-rule="evenodd">
        <g id="⟶-Questions" transform="translate(-239.000000, -217.000000)" fill-rule="nonzero">
            <g id="bacteria" transform="translate(239.000000, 217.000000)">
                <path d="M14.6016579,36.0148445 C12.7372158,34.1444585 9.70342102,34.1443746 7.83897885,36.0148445 L7.19489427,36.6609825 C6.5497227,37.3082109 5.69200238,37.6646227 4.77968161,37.6646227 C3.86727723,37.6646227 3.00955691,37.308127 2.36446895,36.6610664 C1.03273649,35.3250044 1.03273649,33.1511357 2.36446895,31.8151576 L7.19497789,26.9692489 L6.22880921,26 L1.39830027,30.8459087 C-0.466058282,32.7162948 -0.466141897,35.7597614 1.39830027,37.6302313 C2.30150703,38.5363175 3.50238237,39.0353276 4.77968161,39.0353276 C6.05698085,39.0353276 7.2578562,38.5363175 8.16106295,37.6302313 L8.80514753,36.9840934 C10.13688,35.6481153 12.3038404,35.6481153 13.6355729,36.9840934 C14.9673053,38.3200714 14.9673053,40.4939402 13.6355729,41.8300021 C13.3687581,42.0976675 13.3687581,42.5315856 13.6355729,42.799251 C13.9023876,43.0669163 14.3349268,43.0669163 14.6017415,42.799251 C16.4661001,40.928781 16.4661001,37.8853145 14.6016579,36.0148445 Z" id="Shape" fill="#FF7226"></path>
                <g id="Group" fill="#FF9E46">
                    <path d="M26.8950149,7.02370647 C27.1649005,7.29359204 27.6024179,7.29359204 27.8723035,7.02370647 L30.4781244,4.417801 C30.74801,4.14791542 30.74801,3.71039801 30.4781244,3.44051244 C30.2082388,3.17062687 29.7707214,3.17062687 29.5008358,3.44051244 L26.8950149,6.04641791 C26.6251294,6.31638806 26.6251294,6.75390547 26.8950149,7.02370647 Z" id="Shape"></path>
                    <path d="M20.1346816,29.4198955 L4.49924876,13.784209 C4.22936318,13.5143234 3.79193035,13.5143234 3.5219602,13.784209 C3.25199005,14.0540945 3.25207463,14.4916119 3.5219602,14.7614975 L19.1574776,30.3970995 C19.4273632,30.6669851 19.864796,30.6669851 20.1347662,30.3970995 C20.4045672,30.1272139 20.4045672,29.6897811 20.1346816,29.4198955 Z" id="Shape"></path>
                    <path d="M12.5193582,30.0011095 C12.5193582,29.6195821 12.2099751,29.310199 11.8283632,29.3101144 C11.4466667,29.3101144 11.1373682,29.6194975 11.1372836,30.001194 L11.1372836,33.1468706 C11.1372836,33.3376766 11.2146716,33.5104677 11.3396766,33.6354726 C11.4646816,33.7604776 11.6374726,33.8378657 11.8282786,33.8378657 C12.2099751,33.8378657 12.5192736,33.5284826 12.5193582,33.1467861 L12.5193582,30.0011095 Z" id="Shape"></path>
                    <path d="M3.91803483,21.3997015 L0.772358209,21.3997015 C0.390661692,21.3997015 0.0813631841,21.7090846 0.081278607,22.0907811 C0.081278607,22.2815871 0.158666667,22.4543781 0.283671642,22.5793831 C0.408676617,22.7043881 0.581467662,22.7817761 0.772273632,22.7817761 L3.91795025,22.7817761 C4.29964677,22.7817761 4.60894527,22.472393 4.60902985,22.0906965 C4.60902985,21.7091692 4.29964677,21.3997861 3.91803483,21.3997015 Z" id="Shape"></path>
                    <path d="M8.69368159,9.58969154 L24.3291144,25.2253781 C24.599,25.4952637 25.0364328,25.4952637 25.306403,25.2253781 C25.5762886,24.9554925 25.5762886,24.5179751 25.306403,24.2480896 L9.67097015,8.61248756 C9.40108458,8.34260199 8.96365174,8.34260199 8.69368159,8.61248756 C8.42396517,8.88228856 8.4238806,9.31980597 8.69368159,9.58969154 Z" id="Shape"></path>
                    <path d="M21.4808109,3.83667164 C21.4808109,4.02747761 21.558199,4.20026866 21.683204,4.32527363 C21.808209,4.45027861 21.981,4.52766667 22.171806,4.52766667 C22.5535025,4.52766667 22.862801,4.21828358 22.8628856,3.83658706 L22.8628856,0.690995025 C22.862801,0.309467662 22.5534179,8.45771144e-05 22.1718905,0 C21.790194,0 21.4808955,0.309383085 21.4808109,0.691079602 L21.4808109,3.83667164 Z" id="Shape"></path>
                    <path d="M29.5935323,12.2356866 C29.7185373,12.3606915 29.8913284,12.4380796 30.0821343,12.4380796 L33.2276418,12.4380796 C33.6093383,12.4380796 33.9186368,12.1286965 33.9187214,11.747 C33.9186368,11.3654726 33.6092537,11.0560896 33.2277264,11.056005 L30.0822189,11.056005 C29.7005224,11.056005 29.3912239,11.3653881 29.3911393,11.7470846 C29.3911393,11.9378905 29.4684428,12.110597 29.5935323,12.2356866 Z" id="Shape"></path>
                    <path d="M13.8654876,4.417801 L29.5009204,20.0534876 C29.770806,20.3233731 30.2082388,20.3233731 30.478209,20.0534876 C30.7480945,19.783602 30.7480945,19.3460846 30.478209,19.076199 L14.8426915,3.44068159 C14.572806,3.17079602 14.1353731,3.17079602 13.865403,3.44068159 C13.5956866,3.71039801 13.5956866,4.148 13.8654876,4.417801 Z" id="Shape"></path>
                </g>
                <path d="M5.7200631,16.1462816 L16.1462985,5.72003278 C19.7730635,2.09332241 25.6532465,2.09332241 29.2799262,5.72003278 C32.9066913,9.34674315 32.9066913,15.2269228 29.2799262,18.8537184 L18.8537761,29.2799672 C15.2270111,32.9066776 9.34682811,32.9066776 5.72014836,29.2799672 C2.09329809,25.6531716 2.09329809,19.772992 5.7200631,16.1462816 Z" id="Shape" fill="#FFD15D"></path>
                <path d="M26.1332328,6.8668062 C23.6442936,4.37773127 19.5942629,4.37773127 17.1051563,6.8668062 L15.1705984,8.80133947 L6.86676719,17.1051486 C4.37766055,19.5942235 4.37782799,23.6441189 6.86676719,26.1331938 C9.35570639,28.6222687 13.4057371,28.6222687 15.8948437,26.1331938 L26.1332328,15.8947677 C28.6222557,13.4058602 28.6222557,9.35588112 26.1332328,6.8668062 Z" id="Shape" fill="#F56E92"></path>
                <g id="Group" transform="translate(10.000000, 9.000000)" fill="#F23E6D">
                    <circle id="Oval" cx="13.8648806" cy="4.70041045" r="1"></circle>
                    <circle id="Oval" cx="13.8648806" cy="0.733682836" r="1"></circle>
                    <circle id="Oval" cx="0.725100746" cy="11.0978433" r="1"></circle>
                </g>
                <path d="M13.7000653,20 C13.520998,20 13.3417594,19.9317125 13.2050171,19.7949663 C12.9316181,19.5215594 12.9317038,19.0783335 13.2050171,18.8050123 C13.7515579,18.2585413 14.3280004,18.2415765 14.7093538,18.2302667 C15.0215649,18.2210132 15.1180385,18.2118453 15.2651478,18.0649888 C15.4120858,17.9180465 15.4211677,17.8215701 15.4304209,17.5093499 C15.4416448,17.1278998 15.458609,16.5513548 16.0052355,16.0048838 C16.5516907,15.4584128 17.1281332,15.441448 17.5094866,15.4302238 C17.821612,15.4209703 17.9180856,15.4118025 18.0650236,15.2649459 C18.2119616,15.1180036 18.2210435,15.0215273 18.2302967,14.7093927 C18.2415205,14.3280283 18.2583991,13.751569 18.80494,13.205098 C19.0784246,12.9316054 19.5214662,12.9316911 19.7949508,13.2050123 C20.0683497,13.4784192 20.0683497,13.9216451 19.7949508,14.1949663 C19.6480128,14.3419085 19.6389309,14.4383849 19.6296777,14.7505194 C19.6184538,15.1319696 19.6015753,15.7084288 19.0550344,16.2548999 C18.5085793,16.8013709 17.9321368,16.8183357 17.5506977,16.8295598 C17.2385723,16.8388133 17.1420987,16.8479812 16.9951607,16.9948377 C16.848137,17.1418657 16.8388838,17.2383421 16.8298019,17.5505623 C16.8185781,17.9320124 16.8016138,18.5084717 16.255073,19.0549427 C15.7084465,19.6014994 15.1320897,19.6184642 14.7506506,19.629774 C14.4384395,19.6390275 14.3419659,19.6481954 14.1949422,19.7950519 C14.0583713,19.9315412 13.8792183,20 13.7000653,20 Z" id="Shape" fill="#BD0D38"></path>
            </g>
        </g>
    </g>
</svg>