<?xml version="1.0" encoding="UTF-8"?>
<svg width="93px" height="93px" viewBox="0 0 93 93" version="1.1" xmlns="http://www.w3.org/2000/svg" xmlns:xlink="http://www.w3.org/1999/xlink">
    <!-- Generator: Sketch 50 (54983) - http://www.bohemiancoding.com/sketch -->
    <title>Artboard</title>
    <desc>Created with Sketch.</desc>
    <defs></defs>
    <g id="Artboard" stroke="none" stroke-width="1" fill="none" fill-rule="evenodd">
        <g id="bacteria" transform="translate(20.000000, 13.000000)" fill-rule="nonzero">
            <path d="M22.8150905,56.316821 C19.9018996,53.4562306 15.1615953,53.4561023 12.2484045,56.316821 L11.2420223,57.305032 C10.2339417,58.2949107 8.89375372,58.8400112 7.46825252,58.8400112 C6.04262067,58.8400112 4.70243267,58.2947825 3.69448273,57.3051603 C1.61365076,55.2617715 1.61365076,51.937031 3.69448273,49.8937705 L11.2421529,42.4823806 L9.73251439,41 L2.18484417,48.4113899 C-0.728216066,51.2719803 -0.728346714,55.9266939 2.18484417,58.7874126 C3.59610473,60.1731915 5.47247245,60.9363834 7.46825252,60.9363834 C9.46403258,60.9363834 11.3404003,60.1731915 12.7516609,58.7874126 L13.758043,57.7992016 C15.838875,55.7559411 19.2247506,55.7559411 21.3055826,57.7992016 C23.3864146,59.8424622 23.3864146,63.1672026 21.3055826,65.2105915 C20.8886846,65.619962 20.8886846,66.2836016 21.3055826,66.6929721 C21.7224806,67.1023426 22.3983231,67.1023426 22.8152212,66.6929721 C25.7282814,63.8322534 25.7282814,59.1775398 22.8150905,56.316821 Z" id="Shape" fill="#FF7226"></path>
            <g id="Group" fill="#FF9E46">
                <path d="M41.9245821,10.9487189 C42.3452861,11.3694229 43.0272985,11.3694229 43.4480025,10.9487189 L47.5100174,6.88657214 C47.9307214,6.46586816 47.9307214,5.78385572 47.5100174,5.36315174 C47.0893134,4.94244776 46.407301,4.94244776 45.986597,5.36315174 L41.9245821,9.42529851 C41.5038781,9.84613433 41.5038781,10.5281468 41.9245821,10.9487189 Z" id="Shape"></path>
                <path d="M31.3864154,45.8604254 L7.01353483,21.4871493 C6.59283085,21.0664453 5.91095025,21.0664453 5.49011443,21.4871493 C5.06927861,21.9078532 5.06941045,22.5898657 5.49011443,23.0105697 L29.8631269,47.3837139 C30.2838308,47.8044179 30.9657114,47.8044179 31.3865473,47.3837139 C31.8071194,46.96301 31.8071194,46.2811294 31.3864154,45.8604254 Z" id="Shape"></path>
                <path d="M19.5154701,46.7664353 C19.5154701,46.1717015 19.0331965,45.6894279 18.4383308,45.689296 C17.8433333,45.689296 17.3611915,46.1715697 17.3610597,46.7665672 L17.3610597,51.6701219 C17.3610597,51.9675547 17.481694,52.2369055 17.6765547,52.4317662 C17.8714154,52.6266269 18.1407662,52.7472612 18.438199,52.7472612 C19.0331965,52.7472612 19.5153383,52.2649876 19.5154701,51.66999 L19.5154701,46.7664353 Z" id="Shape"></path>
                <path d="M6.10752488,33.3583582 L1.20397015,33.3583582 C0.608972637,33.3583582 0.126830846,33.8406318 0.126699005,34.4356294 C0.126699005,34.7330622 0.247333333,35.0024129 0.44219403,35.1972736 C0.637054726,35.3921343 0.906405473,35.5127687 1.20383831,35.5127687 L6.10739303,35.5127687 C6.70239055,35.5127687 7.18453234,35.030495 7.18466418,34.4354975 C7.18466418,33.8407637 6.70239055,33.35849 6.10752488,33.3583582 Z" id="Shape"></path>
                <path d="M13.5519154,14.9486368 L37.924796,39.3219129 C38.3455,39.7426169 39.0273806,39.7426169 39.4482164,39.3219129 C39.8689204,38.901209 39.8689204,38.2191965 39.4482164,37.7984925 L15.0753358,13.4253483 C14.6546318,13.0046443 13.9727512,13.0046443 13.5519154,13.4253483 C13.1314751,13.8459204 13.1313433,14.5279328 13.5519154,14.9486368 Z" id="Shape"></path>
                <path d="M33.4847935,5.98069403 C33.4847935,6.27812687 33.6054279,6.54747761 33.8002886,6.74233831 C33.9951493,6.937199 34.2645,7.05783333 34.5619328,7.05783333 C35.1569303,7.05783333 35.6390721,6.5755597 35.639204,5.98056219 L35.639204,1.0771393 C35.6390721,0.482405473 35.1567985,0.000131840796 34.5620647,0 C33.9670672,0 33.4849254,0.482273632 33.4847935,1.07727114 L33.4847935,5.98069403 Z" id="Shape"></path>
                <path d="M46.1310945,19.0732761 C46.3259552,19.2681368 46.595306,19.3887711 46.8927388,19.3887711 L51.7960299,19.3887711 C52.3910274,19.3887711 52.8731692,18.9064975 52.873301,18.3115 C52.8731692,17.7167662 52.3908955,17.2344925 51.7961617,17.2343607 L46.8928706,17.2343607 C46.2978731,17.2343607 45.8157313,17.7166343 45.8155995,18.3116318 C45.8155995,18.6090647 45.936102,18.8782836 46.1310945,19.0732761 Z" id="Shape"></path>
                <path d="M21.6138483,6.88657214 L45.9867289,31.2598483 C46.4074328,31.6805522 47.0893134,31.6805522 47.5101493,31.2598483 C47.9308532,30.8391443 47.9308532,30.1571318 47.5101493,29.7364279 L23.1371368,5.36341542 C22.7164328,4.94271144 22.0345522,4.94271144 21.6137164,5.36341542 C21.1932761,5.78385572 21.1932761,6.466 21.6138483,6.88657214 Z" id="Shape"></path>
            </g>
            <path d="M9.31458285,25.3994025 L25.8527494,9.22074052 C31.605549,3.59308649 40.9327358,3.59308649 46.6854002,9.22074052 C52.4381999,14.8483945 52.4381999,23.9728112 46.6854002,29.6005975 L30.147369,45.7792595 C24.3945693,51.4069135 15.0673825,51.4069135 9.31471808,45.7792595 C3.56178318,40.1514732 3.56178318,31.0270565 9.31458285,25.3994025 Z" id="Shape" fill="#FFD15D"></path>
            <path d="M40.0781035,10.9219575 C36.1823726,7.02601416 29.8431942,7.02601416 25.9472012,10.9219575 L22.9191975,13.9499227 L9.92189647,26.9471891 C6.02590347,30.8431325 6.02616555,37.1820991 9.92189647,41.0780425 C13.8176274,44.9739858 20.1568058,44.9739858 24.0527988,41.0780425 L40.0781035,25.0526799 C43.9739655,21.1569986 43.9739655,14.8179009 40.0781035,10.9219575 Z" id="Shape" fill="#F56E92"></path>
            <g id="Group" transform="translate(16.000000, 14.000000)" fill="#F23E6D">
                <ellipse id="Oval" cx="21.2594836" cy="7.44231654" rx="1.07510697" ry="1.1101648"></ellipse>
                <ellipse id="Oval" cx="21.2594836" cy="1.16166449" rx="1.07510697" ry="1.1101648"></ellipse>
                <ellipse id="Oval" cx="1.11182114" cy="17.5715852" rx="1.07510697" ry="1.1101648"></ellipse>
            </g>
            <path d="M21.1001027,31 C20.8187112,31 20.5370504,30.8926911 20.3221697,30.6778041 C19.8925428,30.2481648 19.8926774,29.5516669 20.3221697,29.1221622 C21.1810195,28.263422 22.0868577,28.2367631 22.6861273,28.2189905 C23.1767448,28.2044493 23.3283462,28.1900427 23.559518,27.959268 C23.7904206,27.7283588 23.8046921,27.576753 23.8192329,27.0861213 C23.8368704,26.4866996 23.8635285,25.5807004 24.722513,24.7219603 C25.5812282,23.8632201 26.4870664,23.8365611 27.086336,23.8189232 C27.5768189,23.804382 27.7284202,23.7899754 27.9593228,23.5592007 C28.1902253,23.3282914 28.2044969,23.1766857 28.2190377,22.6861886 C28.2366751,22.0869016 28.2631986,21.181037 29.1220485,20.3222969 C29.55181,19.8925228 30.2480183,19.8926575 30.6777798,20.3221622 C31.1074067,20.7518016 31.1074067,21.4482994 30.6777798,21.8778041 C30.4468773,22.1087134 30.4326057,22.2603192 30.4180649,22.7508163 C30.4004275,23.3502379 30.373904,24.2561024 29.5150541,25.1148426 C28.6563389,25.9735828 27.7505007,26.0002417 27.1510965,26.0178797 C26.6606136,26.0324209 26.5090123,26.0468275 26.2781097,26.2776022 C26.0470725,26.5086461 26.0325317,26.6602518 26.0182602,27.1508836 C26.0006227,27.7503052 25.9739646,28.6561698 25.1151147,29.51491 C24.2561302,30.3737848 23.3504266,30.4004437 22.7510224,30.4182163 C22.2604049,30.4327575 22.1088036,30.4471641 21.8777664,30.6779388 C21.6631549,30.8924219 21.3816288,31 21.1001027,31 Z" id="Shape" fill="#BD0D38"></path>
        </g>
    </g>
</svg>