<?xml version="1.0" encoding="UTF-8"?>
<svg width="93px" height="93px" viewBox="0 0 93 93" version="1.1" xmlns="http://www.w3.org/2000/svg" xmlns:xlink="http://www.w3.org/1999/xlink">
    <!-- Generator: Sketch 50 (54983) - http://www.bohemiancoding.com/sketch -->
    <title>Artboard</title>
    <desc>Created with Sketch.</desc>
    <defs></defs>
    <g id="Artboard" stroke="none" stroke-width="1" fill="none" fill-rule="evenodd">
        <g id="sleep" transform="translate(47.000000, 47.000000) scale(-1, 1) translate(-47.000000, -47.000000) translate(18.000000, 18.000000)" fill-rule="nonzero">
            <path d="M43,26 C43,28.7613315 40.7614438,31 38,31 C35.2385562,31 33,28.7613315 33,26 C33,23.2386685 35.2385562,21 38,21 C40.7614438,21 43,23.2386685 43,26 Z" id="Shape" fill="#F4C064"></path>
            <path d="M33,26 L43,26 C43,28.7613315 40.7614186,31 37.9999438,31 C35.2384691,31 33,28.7613315 33,26 Z" id="Shape" fill="#F4AB53"></path>
            <path d="M58,57 C58,57.5522281 57.5765547,58 57.0543281,58 L0.945671875,58 C0.423445312,58 0,57.5522281 0,57 C0,56.4477719 0.423445312,56 0.945671875,56 L57.0543281,56 C57.5765547,56 58,56.4477719 58,57 Z" id="Shape" fill="#C1C1C1"></path>
            <path d="M11,47 L18.6000455,47 L18.6000455,55.5555434 C18.6000455,56.9056442 17.4658938,58 16.066697,58 L13.5333485,58 C12.1341517,58 11,56.9056442 11,55.5555434 L11,47 Z M41.3999545,47 L41.3999545,55.5555434 C41.3999545,56.9056442 42.5341062,58 43.933303,58 L46.4666515,58 C47.8658483,58 49,56.9056442 49,55.5555434 L49,47 L41.3999545,47 Z" id="Shape" fill="#CEA05D"></path>
            <path d="M11,48 L18.6000455,48 L18.6000455,54 L11,54 L11,48 Z M41.3999545,48 L41.3999545,54 L49,54 L49,48 L41.3999545,48 Z" id="Shape" fill="#99774F"></path>
            <path d="M52.9998673,37.3683912 L55.4998775,37.3683912 C56.8806612,37.3683912 57.9998877,38.4993971 57.9998877,39.894713 L57.9998877,47.4736782 C57.9998877,48.8689941 56.8806612,50 55.4998775,50 L5.50001021,50 C4.11922653,50 3,48.8689941 3,47.4736782 L3,39.894713 C3,38.4993971 4.11922653,37.3683912 5.50001021,37.3683912 L36.7499694,37.3683912 L36.7499694,31.0526435 C36.7499694,28.2622388 38.988647,26 41.7499898,26 L52.9999796,26 C55.7613223,26 58,28.2621253 58,31.0526435 L58,32.3157477 C57.9998877,35.1062659 55.76121,37.3683912 52.9998673,37.3683912 Z" id="Shape" fill="#B5E1F4"></path>
            <path d="M58,40.5 L58,43 L3,43 L3,40.5 C3,39.119222 4.11922881,38 5.50001531,38 L36.7500383,38 L36.7500383,33 L58,33 C58,35.7613315 55.7614301,38 52.9999694,38 L55.4999847,38 C56.8807712,38 58,39.119222 58,40.5 Z" id="Shape" fill="#D7F3FF"></path>
            <path d="M57,30.8889133 L57,32.1110867 C57,34.8110687 54.7877622,37 52.0587844,37 L36,37 L36,30.8889133 C36,28.1889313 38.2123488,26 40.9412156,26 L52.0588953,26 C54.7876512,26 57,28.1889313 57,30.8889133 Z" id="Shape" fill="#A2CCDB"></path>
            <path d="M36,33 L57,33 C57,35.7613315 54.7877622,38 52.0587844,38 L36,38 L36,33 Z" id="Shape" fill="#90B5BF"></path>
            <path d="M39,32.5454649 L39,41.4545351 C39,42.8604239 37.8735491,44 36.4838527,44 L2.51614726,44 C1.12645091,44 0,42.8604239 0,41.4545351 L0,32.5454649 C0,31.1395761 1.12645091,30 2.51614726,30 L36.4839658,30 C37.8735491,30 39,31.1396904 39,32.5454649 Z" id="Shape" fill="#8E5B8E"></path>
            <path d="M39,32.5454649 L39,41.4545351 C39,42.8604239 37.9056333,44 36.555519,44 L28,44 L28,30 L36.5556288,30 C37.9056333,30 39,31.1396904 39,32.5454649 Z" id="Shape" fill="#AF7AAE"></path>
            <path d="M24.526265,19 L19.4736215,19 C14.2415559,19 10,14.7466593 10,9.5000569 C10,4.25334068 14.2415559,0 19.473735,0 L24.5263785,0 C29.7584441,0 34,4.25334068 34,9.4999431 C34,14.7466593 29.7584441,19 24.526265,19 Z" id="Shape" fill="#90B5BF"></path>
            <path d="M34,17 C34,18.6568677 32.6568677,20 31,20 C29.3431323,20 28,18.6568677 28,17 C28,15.3431323 29.3431323,14 31,14 C32.6568677,14 34,15.3431323 34,17 Z" id="Shape" fill="#B5E1F4"></path>
            <path d="M24,14.0732126 C23.0806284,14.6582746 21.9752801,15 20.7857225,15 C17.5903893,15 15,12.5376445 15,9.5 C15,6.4623555 17.5902738,4 20.7857225,4 C21.9752801,4 23.0806284,4.34161559 24,4.92678739 C22.4495784,5.91353046 21.4285549,7.59316789 21.4285549,9.5 C21.4285549,11.4068321 22.4495784,13.0864695 24,14.0732126 Z" id="Shape" fill="#FFE77C"></path>
        </g>
    </g>
</svg>