<?xml version="1.0" encoding="UTF-8"?>
<svg width="93px" height="93px" viewBox="0 0 93 93" version="1.1" xmlns="http://www.w3.org/2000/svg" xmlns:xlink="http://www.w3.org/1999/xlink">
    <!-- Generator: Sketch 50 (54983) - http://www.bohemiancoding.com/sketch -->
    <title>Artboard</title>
    <desc>Created with Sketch.</desc>
    <defs></defs>
    <g id="Artboard" stroke="none" stroke-width="1" fill="none" fill-rule="evenodd">
        <g id="beverage" transform="translate(34.000000, 16.000000)" fill-rule="nonzero">
            <path d="M16.4123332,5 L8.58766683,5 C8.26315721,5 8,4.7213025 8,4.37762952 L8,0.622370485 C8,0.278697503 8.26315721,0 8.58766683,0 L16.4123332,0 C16.7368428,0 17,0.278697503 17,0.622370485 L17,4.37762952 C17,4.72142697 16.7368428,5 16.4123332,5 Z" id="Shape" fill="#DD4733"></path>
            <path d="M15.8281479,5 L13,5 L13,0 L15.8281479,0 C16.4753618,0 17,0.557270532 17,1.24474097 L17,3.75525903 C17,4.44272947 16.4753618,5 15.8281479,5 Z" id="Shape" fill="#D13D2A"></path>
            <g id="Group" transform="translate(0.000000, 5.000000)" fill="#E2E8ED">
                <rect id="Rectangle-path" x="9.45440476" y="0.0201694915" width="6.09166667" height="4.27830508"></rect>
                <path d="M12.4995238,3.5290678 C5.61869048,3.5290678 0.0408333333,9.08813559 0.0408333333,15.9455254 L0.0408333333,52.3931017 C0.0408333333,54.3848983 1.66095238,55.9995254 3.65952381,55.9995254 C4.8752381,55.9995254 5.95,55.4014407 6.60619048,54.4851525 C7.26238095,55.4014407 8.3372619,55.9995254 9.55285714,55.9995254 C10.7685714,55.9995254 11.8433333,55.4014407 12.4995238,54.4851525 C13.1557143,55.4014407 14.2305952,55.9995254 15.4461905,55.9995254 C16.6617857,55.9995254 17.7366667,55.4014407 18.3928571,54.4851525 C19.0490476,55.4014407 20.1239286,55.9995254 21.3395238,55.9995254 C23.3380952,55.9995254 24.9582143,54.3848983 24.9582143,52.3931017 L24.9582143,15.9455254 C24.9583333,9.08801695 19.3802381,3.5290678 12.4995238,3.5290678 Z" id="Shape"></path>
            </g>
            <path d="M25,20.4486558 L25,57.3482277 C25,59.3647383 23.3739119,60.9998799 21.3688332,60.9998799 C20.1501629,60.9998799 19.070643,60.3932931 18.4133517,59.4661163 C17.7548661,60.3934133 16.6765406,61 15.4566759,61 C14.2368112,61 13.1584857,60.3934133 12.5,59.4662364 C11.8413949,60.3934133 10.7631888,61 9.54320469,61 C8.32333999,61 7.24513392,60.3934133 6.58652881,59.4662364 C5.92935702,60.3934133 4.84983708,61 3.63116681,61 C2.62797053,61 1.7208059,60.5914849 1.06351466,59.9304855 C0.406223424,59.2694861 0,58.3558824 0,57.3483479 L0,20.4486558 C0,19.2528992 0.166144305,18.0954596 0.476336082,17 L24.5236639,17 C24.8337363,18.0954596 25,19.2528992 25,20.4486558 Z" id="SVGCleanerId_0" fill="#7C5032"></path>
            <path d="M15.5300346,8.88461299 L15.5300346,5 L13,5 L13,8.52261881 L13,9.70426277 C13,9.9186108 13.1122144,10.1189538 13.2985599,10.2276708 C14.1047794,10.6983819 14.8526761,11.2566837 15.5300346,11.8898768 C17.9564775,14.1539427 19.4708336,17.3670269 19.4708336,20.9313047 L19.4708336,57.3917149 C19.4708336,58.2870867 19.1413758,59.1064991 18.5945549,59.7376745 C19.2819732,60.5322814 20.3121426,61.0286289 21.4572809,60.9987198 C23.442291,60.9467351 25,59.2828674 25,57.3149246 L25,20.9313047 C24.9998802,15.1177968 20.9701001,10.2387086 15.5300346,8.88461299 Z" id="Shape" fill="#CFDDE8"></path>
            <path d="M25,20.4486558 L25,57.3482277 C25,59.3647383 23.3739119,60.9998799 21.3688332,60.9998799 C20.1501629,60.9998799 19.070643,60.3932931 18.4133517,59.4661163 C17.7548661,60.3934133 16.6765406,61 15.4566759,61 C14.2368112,61 13.1584857,60.3934133 12.5,59.4662364 C11.8413949,60.3934133 10.7631888,61 9.54320469,61 C8.32333999,61 7.24513392,60.3934133 6.58652881,59.4662364 C5.92935702,60.3934133 4.84983708,61 3.63116681,61 C2.62797053,61 1.7208059,60.5914849 1.06351466,59.9304855 C0.406223424,59.2694861 0,58.3558824 0,57.3483479 L0,20.4486558 C0,19.2528992 0.166144305,18.0954596 0.476336082,17 L24.5236639,17 C24.8337363,18.0954596 25,19.2528992 25,20.4486558 Z" id="SVGCleanerId_0_1_" fill="#7C5032"></path>
            <path d="M25,20.4486652 L25,57.3483379 C25,59.3648539 23.4727966,61 21.5896496,61 C20.5537898,61 19.6255095,60.5035585 19,59.7225609 C19.5122088,59.0837813 19.8208129,58.2544969 19.8208129,57.3483379 L19.8208129,20.4486652 C19.8208129,19.2529053 19.6647721,18.0954626 19.3734435,17 L24.5526306,17 C24.843847,18.0954626 25,19.2529053 25,20.4486652 Z" id="Shape" fill="#6D4429"></path>
            <rect id="Rectangle-path" fill="#DD4733" x="0" y="23" width="25" height="16"></rect>
            <rect id="Rectangle-path" fill="#D13D2A" x="19" y="23" width="5" height="16"></rect>
            <g id="Group" transform="translate(3.000000, 23.000000)" fill="#E2E8ED">
                <path d="M1.87232558,0.0951807229 C1.87232558,0.0951807229 -1.12348837,3.48168675 0.554186047,9.44156627 C0.554186047,9.44156627 2.47151163,14.7540964 1.87232558,16.7539759 L9.30151163,16.7539759 C9.30151163,16.7539759 10.8597674,14.5737349 8.38023256,9.44361446 C6.93616279,6.45578313 7.10686047,2.88566265 9.14244186,0.293975904 C9.19430233,0.227951807 9.24732558,0.161807229 9.30151163,0.0953012048 L1.87232558,0.0951807229 Z" id="Shape"></path>
                <ellipse id="Oval" cx="8.41465116" cy="26.2650602" rx="1" ry="1"></ellipse>
                <ellipse id="Oval" cx="9.82046512" cy="21.9759036" rx="1" ry="1"></ellipse>
                <ellipse id="Oval" cx="14.0437209" cy="24.4650602" rx="1" ry="1"></ellipse>
                <ellipse id="Oval" cx="14.0437209" cy="20.0578313" rx="1" ry="1"></ellipse>
                <ellipse id="Oval" cx="3.49034884" cy="20.9891566" rx="1" ry="1"></ellipse>
                <ellipse id="Oval" cx="3.49034884" cy="27.1963855" rx="1" ry="1"></ellipse>
                <ellipse id="Oval" cx="11.6182558" cy="29.0590361" rx="1" ry="1"></ellipse>
            </g>
        </g>
    </g>
</svg>