<?xml version="1.0" encoding="iso-8859-1"?>
<!-- Generator: Adobe Illustrator 19.0.0, SVG Export Plug-In . SVG Version: 6.00 Build 0)  -->
<svg version="1.1" id="Capa_1" xmlns="http://www.w3.org/2000/svg" xmlns:xlink="http://www.w3.org/1999/xlink" x="0px" y="0px"
	 viewBox="0 0 512 512" style="enable-background:new 0 0 512 512;" xml:space="preserve">
<path style="fill:#DD4733;" d="M289.283,40.169h-66.574c-2.761,0-5-2.239-5-5V5c0-2.761,2.239-5,5-5h66.574c2.761,0,5,2.239,5,5
	v30.169C294.283,37.931,292.044,40.169,289.283,40.169z"/>
<path style="fill:#D13D2A;" d="M284.283,40.169h-24.134V0h24.134c5.523,0,10,4.477,10,10v20.169
	C294.283,35.692,289.806,40.169,284.283,40.169z"/>
<g>
	<rect x="230.417" y="40.17" style="fill:#E2E8ED;" width="51.17" height="36.06"/>
	<path style="fill:#E2E8ED;" d="M255.996,69.745L255.996,69.745c-57.799,0-104.653,46.855-104.653,104.653v307.201l0,0
		c0,16.788,13.609,30.397,30.397,30.397c10.212,0,19.24-5.041,24.752-12.764c5.512,7.723,14.541,12.764,24.752,12.764
		c10.212,0,19.24-5.041,24.752-12.764c5.512,7.723,14.541,12.764,24.752,12.764s19.24-5.041,24.752-12.764
		c5.512,7.723,14.541,12.764,24.752,12.764c16.788,0,30.397-13.609,30.397-30.397l0,0V174.398
		C360.65,116.599,313.794,69.745,255.996,69.745z"/>
</g>
<path id="SVGCleanerId_0" style="fill:#7C5032;" d="M360.65,174.399v307.199c0,16.788-13.614,30.401-30.401,30.401
	c-10.203,0-19.241-5.05-24.744-12.769c-5.513,7.72-14.541,12.77-24.754,12.77s-19.241-5.05-24.754-12.769
	C250.483,506.95,241.456,512,231.242,512c-10.213,0-19.24-5.05-24.754-12.769C200.986,506.95,191.948,512,181.745,512
	c-8.399,0-15.994-3.401-21.497-8.904s-8.904-13.109-8.904-21.497v-307.2c0-9.955,1.391-19.591,3.988-28.711h201.33
	C359.258,154.808,360.65,164.444,360.65,174.399z"/>
<path style="fill:#CFDDE8;" d="M281.576,72.899v-32.73h-21.126v29.68v9.956c0,1.806,0.937,3.494,2.493,4.41
	c6.732,3.966,12.977,8.67,18.633,14.005c20.261,19.076,32.906,46.148,32.906,76.179v307.199c0,7.544-2.751,14.448-7.317,19.766
	c5.74,6.695,14.342,10.877,23.904,10.625c16.575-0.438,29.582-14.457,29.582-31.038V174.399
	C360.65,125.417,327.001,84.308,281.576,72.899z"/>
<g>
	<path id="SVGCleanerId_0_1_" style="fill:#7C5032;" d="M360.65,174.399v307.199c0,16.788-13.614,30.401-30.401,30.401
		c-10.203,0-19.241-5.05-24.744-12.769c-5.513,7.72-14.541,12.77-24.754,12.77s-19.241-5.05-24.754-12.769
		C250.483,506.95,241.456,512,231.242,512c-10.213,0-19.24-5.05-24.754-12.769C200.986,506.95,191.948,512,181.745,512
		c-8.399,0-15.994-3.401-21.497-8.904s-8.904-13.109-8.904-21.497v-307.2c0-9.955,1.391-19.591,3.988-28.711h201.33
		C359.258,154.808,360.65,164.444,360.65,174.399z"/>
</g>
<path style="fill:#6D4429;" d="M360.65,174.399v307.199c0,16.788-13.614,30.401-30.401,30.401c-9.234,0-17.509-4.133-23.085-10.635
	c4.566-5.318,7.317-12.222,7.317-19.766V174.399c0-9.955-1.391-19.591-3.988-28.711h46.169
	C359.258,154.808,360.65,164.444,360.65,174.399z"/>
<rect x="151.346" y="193.79" style="fill:#DD4733;" width="209.31" height="138.27"/>
<rect x="314.477" y="193.79" style="fill:#D13D2A;" width="46.17" height="138.27"/>
<g>
	<path style="fill:#E2E8ED;" d="M192.102,193.79c0,0-25.764,28.108-11.336,77.575c0,0,16.489,44.094,11.336,60.693h63.891
		c0,0,13.401-18.096-7.923-60.676c-12.419-24.799-10.951-54.431,6.555-75.942c0.446-0.548,0.902-1.097,1.368-1.649L192.102,193.79
		L192.102,193.79z"/>
	<circle style="fill:#E2E8ED;" cx="248.366" cy="411" r="7.729"/>
	<circle style="fill:#E2E8ED;" cx="260.456" cy="375.4" r="7.729"/>
	<circle style="fill:#E2E8ED;" cx="296.776" cy="396.06" r="7.729"/>
	<circle style="fill:#E2E8ED;" cx="296.776" cy="359.48" r="7.729"/>
	<circle style="fill:#E2E8ED;" cx="206.017" cy="367.21" r="7.729"/>
	<circle style="fill:#E2E8ED;" cx="206.017" cy="418.73" r="7.729"/>
	<circle style="fill:#E2E8ED;" cx="275.917" cy="434.19" r="7.729"/>
</g>
<g>
</g>
<g>
</g>
<g>
</g>
<g>
</g>
<g>
</g>
<g>
</g>
<g>
</g>
<g>
</g>
<g>
</g>
<g>
</g>
<g>
</g>
<g>
</g>
<g>
</g>
<g>
</g>
<g>
</g>
</svg>
