<?xml version="1.0" encoding="UTF-8"?>
<svg width="93px" height="93px" viewBox="0 0 93 93" version="1.1" xmlns="http://www.w3.org/2000/svg" xmlns:xlink="http://www.w3.org/1999/xlink">
    <!-- Generator: Sketch 50 (54983) - http://www.bohemiancoding.com/sketch -->
    <title>Artboard</title>
    <desc>Created with Sketch.</desc>
    <defs></defs>
    <g id="Artboard" stroke="none" stroke-width="1" fill="none" fill-rule="evenodd">
        <g id="broccoli" transform="translate(24.000000, 23.000000)" fill-rule="nonzero">
            <path d="M30,31.9394513 L22.5309419,24.4703703 L15.0605945,17 C15.0605945,17 15.6733544,32.06193 0,35.979682 C0,35.979682 1.3911877,39.3289673 4.5317891,42.4695783 C7.67110126,45.6101894 11.0203762,47 11.0203762,47 C14.9394055,31.3266896 30,31.9394513 30,31.9394513" id="Shape" fill="#77B255"></path>
            <g id="Group" transform="translate(10.000000, 21.000000)" fill="#5C913B">
                <path d="M6.73971875,1.14710449 C5.7845,6.05556738 0.0493242187,13.9090342 0.0493242187,13.9090342 C0.0493242187,13.9090342 7.69484766,6.05575195 11.5183281,2.12837256 C15.3405508,-1.79771484 6.73971875,1.14710449 6.73971875,1.14710449" id="Shape"></path>
                <path d="M22.9864336,9.98211621 C22.9864336,9.98211621 8.65177344,10.963292 0.04959375,17.8354907 C10.5622109,7.03720459 15.3408203,6.05612109 15.3408203,6.05612109 L22.9864336,9.98211621 Z" id="Shape"></path>
            </g>
            <path d="M39.2279228,37.5292827 C40.1124013,37.5902496 41.0155595,37.2881017 41.69184,36.596988 C42.9357682,35.3273366 42.9357682,33.2677085 41.69184,31.9981497 C41.5791266,31.8829796 41.4531741,31.7894907 41.3284911,31.6947046 C41.8735598,31.5578532 42.3920597,31.2828531 42.8177048,30.8492277 C43.2302014,30.4277401 43.4913556,29.9169331 43.6306378,29.3804606 C44.1558479,29.2381426 44.6557587,28.9699063 45.068074,28.5485114 C46.310642,27.2788599 46.310642,25.2192319 45.068074,23.9495804 C46.310642,22.6799289 46.310642,20.6203009 45.068074,19.3506495 C44.6012609,18.8736615 44.0257242,18.5755904 43.4223492,18.4563434 C43.9925359,17.2462691 43.8002974,15.7545236 42.8176141,14.7503287 C42.3918783,14.3153134 41.8734691,14.0416106 41.3284005,13.9048518 C41.4529928,13.8099731 41.5790359,13.7165768 41.6917494,13.6014067 C42.9356775,12.3303654 42.9356775,10.2721272 41.6917494,9.00108587 C40.7090661,7.99837345 39.2503204,7.80046237 38.0647892,8.38316967 C37.9494461,7.7666433 37.6577333,7.17856201 37.1909202,6.70157406 C36.5146396,6.01055307 35.6114814,5.70970228 34.727003,5.77066927 C34.7853093,4.86691239 34.4909667,3.94277141 33.8145955,3.25175042 C32.5720275,1.98209894 30.5563343,1.98209894 29.313857,3.25175042 C28.3311737,2.249038 26.8711586,2.05112692 25.6868969,2.63383422 C25.5701936,2.01730784 25.2784808,1.42922655 24.8116677,0.952238607 C23.5690997,-0.317412869 21.5534065,-0.317412869 20.3108385,0.952238607 C19.8440254,1.42922655 19.5523125,2.01730784 19.4369694,2.63383422 C18.2514382,2.05121957 16.7913324,2.249038 15.8100093,3.25175042 C15.3842736,3.68676565 15.1151397,4.21647429 14.9812075,4.77342349 C14.8883526,4.64611552 14.7969487,4.51732507 14.6842352,4.40215491 C13.4416673,3.13250343 11.4259741,3.13250343 10.1834061,4.40215491 C9.20063208,5.40588653 9.0070334,6.89763204 9.57731072,8.10770635 C8.97529591,8.22695334 8.39966856,8.52363465 7.93294613,9.0006226 C6.68901796,10.2716639 6.68901796,12.3299021 7.93294613,13.6009434 C8.35732168,14.0359586 8.87709106,14.3096615 9.42079956,14.4464203 C9.29620725,14.541299 9.17016409,14.6346952 9.05745067,14.7498654 C7.81488267,16.0209067 7.81488267,18.0791449 9.05745067,19.3501862 C9.52426377,19.8271741 10.0998004,20.1239481 10.7031754,20.2431024 C10.1329888,21.4531767 10.3265875,22.9449223 11.3079106,23.9491172 C12.2905939,24.9532194 13.750609,25.1510378 14.9348707,24.5670334 C15.051574,25.1835597 15.3433775,25.771641 15.8101,26.248629 C16.2358357,26.6836442 16.7542449,26.9586442 17.2979534,27.0954957 C17.1733611,27.1903744 17.0485874,27.2824735 16.9346045,27.3989408 C15.6920365,28.6685923 15.6920365,30.7282203 16.9346045,31.9978718 C17.9172878,33.001974 19.3773029,33.1997924 20.5615646,32.615788 C20.6782679,33.2323143 20.9699808,33.8203956 21.4367939,34.2973836 C22.2788348,35.1592604 23.4749753,35.42203 24.5465236,35.114508 C24.6313987,35.2282884 24.7109238,35.3434585 24.8117583,35.4478807 C25.4880389,36.1389017 26.3924666,36.4397525 27.276945,36.3787855 C27.2172786,37.2825424 27.5116211,38.2066834 28.1879923,38.8977044 C29.4305603,40.1673558 31.4462535,40.1673558 32.6901817,38.8977044 C32.8028951,38.7811444 32.8943897,38.6538364 32.9858844,38.5264358 C33.1210861,39.0819952 33.3889505,39.6118891 33.8146862,40.046719 C35.0572542,41.3177603 37.0729474,41.3177603 38.3154247,40.046719 C38.9917959,39.3558833 39.2875893,38.4331322 39.2279228,37.5292827" id="Shape" fill="#3E721D"></path>
            <g id="Group" transform="translate(11.000000, 1.000000)" fill="#5C913B">
                <path d="M3.55703906,7.5179475 C2.76126211,8.32819312 1.47208359,8.32819312 0.677660156,7.5179475 C-0.118116797,6.70770187 -0.118116797,5.39508375 0.677660156,4.58621625 C1.47208359,3.77597062 2.76126211,3.77597062 3.55703906,4.58621625 C4.35272578,5.39508375 4.35272578,6.70779375 3.55703906,7.5179475" id="Shape"></path>
                <path d="M9.31642852,7.5179475 C8.52065156,8.32819312 7.23147305,8.32819312 6.43704961,7.5179475 C5.64127266,6.70770187 5.64127266,5.39508375 6.43704961,4.58621625 C7.23147305,3.77597062 8.52065156,3.77597062 9.31642852,4.58621625 C10.1121152,5.39508375 10.1121152,6.70779375 9.31642852,7.5179475" id="Shape"></path>
                <path d="M13.1561719,3.60885 C12.3603949,4.41909562 11.0712164,4.41909562 10.276793,3.60885 C9.48101602,2.79860437 9.48101602,1.48598625 10.276793,0.67711875 C11.0712164,-0.133126875 12.3603949,-0.133126875 13.1561719,0.67711875 C13.9519488,1.48589437 13.9519488,2.79869625 13.1561719,3.60885" id="Shape"></path>
                <path d="M17.9549262,6.54067312 C17.1591492,7.35091875 15.8699707,7.35091875 15.0755473,6.54067312 C14.2797703,5.7304275 14.2797703,4.41780937 15.0755473,3.60894187 C15.8699707,2.79869625 17.1591492,2.79869625 17.9549262,3.60894187 C18.7507031,4.41780937 18.7507031,5.73051937 17.9549262,6.54067312" id="Shape"></path>
                <path d="M21.7943988,6.54067312 C20.9986219,7.35091875 19.7094434,7.35091875 18.9150199,6.54067312 C18.119243,5.7304275 18.119243,4.41780937 18.9150199,3.60894187 C19.7094434,2.79869625 20.9986219,2.79869625 21.7943988,3.60894187 C22.5901758,4.41780937 22.5901758,5.73051937 21.7943988,6.54067312" id="Shape"></path>
                <path d="M22.7543121,9.47249625 C21.9585352,10.2827419 20.6693566,10.2827419 19.8749332,9.47249625 C19.0791563,8.66225062 19.0791563,7.3496325 19.8749332,6.540765 C20.6693566,5.73051937 21.9585352,5.73051937 22.7543121,6.540765 C23.5500891,7.3496325 23.5500891,8.66225062 22.7543121,9.47249625" id="Shape"></path>
                <path d="M25.6337813,10.4497706 C24.8380043,11.2600162 23.5488258,11.2600162 22.7544023,10.4497706 C21.9586254,9.639525 21.9586254,8.32690687 22.7544023,7.51803937 C23.5488258,6.70779375 24.8380043,6.70779375 25.6337813,7.51803937 C26.429468,8.32690687 26.429468,9.63961687 25.6337813,10.4497706" id="Shape"></path>
                <path d="M29.4730734,12.4041356 C28.6772965,13.2143812 27.388118,13.2143812 26.5936945,12.4041356 C25.7979176,11.59389 25.7979176,10.2812719 26.5936945,9.47240437 C27.388118,8.66215875 28.6772965,8.66215875 29.4730734,9.47240437 C30.2688504,10.2812719 30.2688504,11.59389 29.4730734,12.4041356" id="Shape"></path>
                <path d="M28.5133406,15.3362344 C27.7175637,16.14648 26.4283852,16.14648 25.6339617,15.3362344 C24.8381848,14.5259888 24.8381848,13.2133706 25.6339617,12.4045031 C26.4283852,11.5942575 27.7175637,11.5942575 28.5133406,12.4045031 C29.3090273,13.2133706 29.3090273,14.5260806 28.5133406,15.3362344" id="Shape"></path>
                <path d="M31.3926293,20.22279 C30.5968523,21.0330356 29.3076738,21.0330356 28.5132504,20.22279 C27.7174734,19.4125444 27.7174734,18.0999263 28.5132504,17.2910588 C29.3076738,16.4808131 30.5968523,16.4808131 31.3926293,17.2910588 C32.1884063,18.0999263 32.1884063,19.4126363 31.3926293,20.22279" id="Shape"></path>
                <path d="M32.3525426,25.1091619 C31.5567656,25.9194075 30.2675871,25.9194075 29.4731637,25.1091619 C28.6773867,24.2989162 28.6773867,22.9862981 29.4731637,22.1774306 C30.2675871,21.367185 31.5567656,21.367185 32.3525426,22.1774306 C33.1482293,22.9862981 33.1482293,24.2991 32.3525426,25.1091619" id="Shape"></path>
                <path d="M24.6740484,15.3362344 C23.8782715,16.14648 22.589093,16.14648 21.7946695,15.3362344 C20.9988926,14.5259888 20.9988926,13.2133706 21.7946695,12.4045031 C22.589093,11.5942575 23.8782715,11.5942575 24.6740484,12.4045031 C25.4698254,13.2133706 25.4698254,14.5260806 24.6740484,15.3362344" id="Shape"></path>
                <path d="M20.8345758,11.4266775 C20.0387988,12.2369231 18.7496203,12.2369231 17.9551969,11.4266775 C17.1594199,10.6164319 17.1594199,9.30381375 17.9551969,8.49494625 C18.7496203,7.68470062 20.0387988,7.68470062 20.8345758,8.49494625 C21.6303527,9.30381375 21.6303527,10.6164319 20.8345758,11.4266775" id="Shape"></path>
                <path d="M16.0353703,8.49531375 C15.2395934,9.30555938 13.9504148,9.30555938 13.1559914,8.49531375 C12.3602145,7.68506812 12.3602145,6.37245 13.1559914,5.5635825 C13.9504148,4.75333687 15.2395934,4.75333687 16.0353703,5.5635825 C16.8311473,6.37235812 16.8311473,7.68506812 16.0353703,8.49531375" id="Shape"></path>
                <path d="M10.2763418,10.4497706 C9.48056484,11.2600162 8.19138633,11.2600162 7.39696289,10.4497706 C6.60118594,9.639525 6.60118594,8.32690687 7.39696289,7.51803937 C8.19138633,6.70779375 9.48056484,6.70779375 10.2763418,7.51803937 C11.0720285,8.32690687 11.0720285,9.63961687 10.2763418,10.4497706" id="Shape"></path>
                <path d="M12.1961684,8.49531375 C11.4003914,9.30555938 10.1112129,9.30555938 9.31678945,8.49531375 C8.5210125,7.68506812 8.5210125,6.37245 9.31678945,5.5635825 C10.1112129,4.75333687 11.4003914,4.75333687 12.1961684,5.5635825 C12.9918551,6.37235812 12.9918551,7.68506812 12.1961684,8.49531375" id="Shape"></path>
                <path d="M6.43695938,12.4041356 C5.64118242,13.2143812 4.35200391,13.2143812 3.55758047,12.4041356 C2.76180352,11.59389 2.76180352,10.2812719 3.55758047,9.47240437 C4.35200391,8.66215875 5.64118242,8.66215875 6.43695938,9.47240437 C7.23255586,10.2812719 7.23255586,11.59389 6.43695938,12.4041356" id="Shape"></path>
                <path d="M16.0353703,14.35896 C15.2395934,15.1692056 13.9504148,15.1692056 13.1559914,14.35896 C12.3602145,13.5487144 12.3602145,12.2360962 13.1559914,11.4272287 C13.9504148,10.6169831 15.2395934,10.6169831 16.0353703,11.4272287 C16.8311473,12.2360962 16.8311473,13.5487144 16.0353703,14.35896" id="Shape"></path>
                <path d="M22.7543121,21.20034 C21.9585352,22.0105856 20.6693566,22.0105856 19.8749332,21.20034 C19.0791563,20.3900944 19.0791563,19.0774762 19.8749332,18.2686087 C20.6693566,17.4583631 21.9585352,17.4583631 22.7543121,18.2686087 C23.5500891,19.0774762 23.5500891,20.3900944 22.7543121,21.20034" id="Shape"></path>
                <path d="M24.6740484,27.0638944 C23.8782715,27.87414 22.589093,27.87414 21.7946695,27.0638944 C20.9988926,26.2536487 20.9988926,24.9410306 21.7946695,24.1321631 C22.589093,23.3219175 23.8782715,23.3219175 24.6740484,24.1321631 C25.4698254,24.9409387 25.4698254,26.2536487 24.6740484,27.0638944" id="Shape"></path>
            </g>
        </g>
    </g>
</svg>