<?xml version="1.0" encoding="UTF-8"?>
<svg width="97px" height="100px" viewBox="0 0 97 100" version="1.1" xmlns="http://www.w3.org/2000/svg" xmlns:xlink="http://www.w3.org/1999/xlink">
    <!-- Generator: Sketch 51.2 (57519) - http://www.bohemiancoding.com/sketch -->
    <title>broccoli</title>
    <desc>Created with Sketch.</desc>
    <defs></defs>
    <g id="Icons" stroke="none" stroke-width="1" fill="none" fill-rule="evenodd">
        <g id="Artboard" transform="translate(-76.000000, -701.000000)" fill-rule="nonzero">
            <g id="broccoli" transform="translate(76.000000, 701.000000)">
                <path d="M64.6666667,67.6117233 L48.566697,51.5491834 L32.4639482,35.483871 C32.4639482,35.483871 33.7847861,67.8751183 0,76.3003915 C0,76.3003915 2.99878238,83.5031554 9.76852318,90.2571577 C16.5354849,97.0111599 23.7550332,100 23.7550332,100 C32.2027185,66.2939561 64.6666667,67.6117233 64.6666667,67.6117233" id="Shape" fill="#77B255"></path>
                <g id="Group" transform="translate(22.633333, 45.161290)" fill="#5C913B">
                    <path d="M14.2120156,2.46689138 C12.19775,13.0227256 0.104009766,29.9119015 0.104009766,29.9119015 C0.104009766,29.9119015 16.2260918,13.0231225 24.2886484,4.57714529 C32.3485527,-3.86605343 14.2120156,2.46689138 14.2120156,2.46689138" id="Shape"></path>
                    <path d="M48.4713926,21.4669166 C48.4713926,21.4669166 18.243957,23.576972 0.104578125,38.355894 C22.2724883,15.1337733 32.3491211,13.0239163 32.3491211,13.0239163 L48.4713926,21.4669166 Z" id="Shape"></path>
                </g>
                <path d="M82.9638571,79.7238892 C84.797071,79.8534021 86.6690015,79.2115457 88.0706941,77.743405 C90.6489213,75.0462696 90.6489213,70.670978 88.0706941,67.9740395 C87.8370787,67.7293822 87.5760233,67.5307827 87.3175992,67.3294275 C88.4473355,67.0387125 89.5220041,66.4545267 90.4042171,65.5333712 C91.2591782,64.6380002 91.8004593,63.552887 92.0891425,62.4132523 C93.177719,62.1109244 94.2138588,61.5411071 95.068444,60.6459329 C97.643852,57.9487976 97.643852,53.573506 95.068444,50.8763707 C97.643852,48.1792354 97.643852,43.8039438 95.068444,41.1068085 C94.100904,40.0935374 92.9080182,39.4603415 91.6574332,39.2070237 C92.8392303,36.6364489 92.4407873,33.4675166 90.4040292,31.3342938 C89.5216282,30.4101859 88.4471476,29.8287557 87.3174112,29.5382375 C87.5756474,29.3366855 87.8368907,29.1382828 88.0705061,28.8936255 C90.6487333,26.1935377 90.6487333,21.8211986 88.0705061,19.1211108 C86.033748,16.9910372 83.0102795,16.5706124 80.5530888,17.8084643 C80.314023,16.4987702 79.7094044,15.2495023 78.7418645,14.2362313 C77.3401719,12.7682874 75.4682414,12.1291866 73.6350275,12.2586995 C73.755876,10.3388383 73.1458071,8.37567491 71.7439266,6.90773102 C69.1685186,4.2105957 64.990693,4.2105957 62.4154729,6.90773102 C60.3787147,4.77765743 57.352615,4.35723263 54.8980555,5.59508449 C54.6561705,4.28539038 54.051552,3.03612249 53.084012,2.02285149 C50.508604,-0.674283829 46.3307783,-0.674283829 43.7553703,2.02285149 C42.7878303,3.03612249 42.1832118,4.28539038 41.944146,5.59508449 C39.4869553,4.35742946 36.4606676,4.77765743 34.4267286,6.90773102 C33.5443277,7.8318389 32.9865074,8.95710509 32.7089129,10.1402387 C32.5164574,9.86979694 32.327009,9.5962059 32.0933936,9.35154858 C29.5179855,6.65441327 25.3401599,6.65441327 22.7647519,9.35154858 C20.7278058,11.4837873 20.3265436,14.6527195 21.5085286,17.2232944 C20.2607629,17.4766121 19.0676891,18.1068557 18.1003371,19.1201267 C15.5221099,21.8202144 15.5221099,26.1925536 18.1003371,28.8926413 C18.9799189,29.8167492 20.0572186,30.3981794 21.1841358,30.6886977 C20.9258997,30.8902496 20.6646563,31.0886523 20.4310409,31.3333097 C17.8556329,34.0333974 17.8556329,38.4057366 20.4310409,41.1058243 C21.3985809,42.1190953 22.5914667,42.7495357 23.8420516,43.0026566 C22.6602546,45.5732315 23.0615168,48.7421637 25.0954557,50.8753866 C27.1322139,53.0084126 30.1583136,53.4286405 32.6128731,52.1880331 C32.8547581,53.4977272 33.4595645,54.7469951 34.4269166,55.7602661 C35.3093176,56.684374 36.3837982,57.2685597 37.5107154,57.5592748 C37.2524792,57.7608268 36.9938671,57.9564739 36.7576204,58.2038868 C34.1822124,60.9010221 34.1822124,65.2763137 36.7576204,67.9734491 C38.7943786,70.1064751 41.8204783,70.526703 44.2750378,69.2860956 C44.5169228,70.5957897 45.1215413,71.8450576 46.0890813,72.8583286 C47.834337,74.6892235 50.3135173,75.2474279 52.5344613,74.5941555 C52.7103777,74.8358604 52.8752053,75.0805177 53.0842,75.302343 C54.4858925,76.7702869 56.3604543,77.4093877 58.1936681,77.2798748 C58.0700004,79.199736 58.6800694,81.1628994 60.0819499,82.6308432 C62.6573579,85.3279786 66.8351835,85.3279786 69.4134107,82.6308432 C69.6470261,82.3832335 69.8366625,82.1127917 70.0262988,81.8421531 C70.3065246,83.0223343 70.8617136,84.1479942 71.7441146,85.0717084 C74.3195226,87.7717961 78.4973482,87.7717961 81.0725683,85.0717084 C82.4744488,83.6041582 83.0875248,81.6439472 82.9638571,79.7238892" id="Shape" fill="#3E721D"></path>
                <g id="Group" transform="translate(22.633333, 3.225806)" fill="#5C913B">
                    <path d="M7.66739531,15.5902137 C5.95205388,17.2704466 3.17315797,17.2704466 1.46073411,15.5902137 C-0.254607318,13.9099808 -0.254607318,11.1879617 1.46073411,9.51058669 C3.17315797,7.83035383 5.95205388,7.83035383 7.66739531,9.51058669 C9.38254224,11.1879617 9.38254224,13.9101714 7.66739531,15.5902137" id="Shape"></path>
                    <path d="M20.0820792,15.5902137 C18.3667378,17.2704466 15.5878419,17.2704466 13.875418,15.5902137 C12.1600766,13.9099808 12.1600766,11.1879617 13.875418,9.51058669 C15.5878419,7.83035383 18.3667378,7.83035383 20.0820792,9.51058669 C21.7972262,11.1879617 21.7972262,13.9101714 20.0820792,15.5902137" id="Shape"></path>
                    <path d="M28.3588594,7.48379032 C26.6435179,9.16402319 23.864622,9.16402319 22.1521982,7.48379032 C20.4368567,5.80355746 20.4368567,3.08153831 22.1521982,1.40416331 C23.864622,-0.276069556 26.6435179,-0.276069556 28.3588594,1.40416331 C30.0742008,3.08134778 30.0742008,5.80374798 28.3588594,7.48379032" id="Shape"></path>
                    <path d="M38.7028409,13.5636079 C36.9874994,15.2438407 34.2086035,15.2438407 32.4961797,13.5636079 C30.7808382,11.883375 30.7808382,9.16135585 32.4961797,7.48398085 C34.2086035,5.80374798 36.9874994,5.80374798 38.7028409,7.48398085 C40.4181823,9.16135585 40.4181823,11.8835655 38.7028409,13.5636079" id="Shape"></path>
                    <path d="M46.9790375,13.5636079 C45.263696,15.2438407 42.4848001,15.2438407 40.7723763,13.5636079 C39.0570348,11.883375 39.0570348,9.16135585 40.7723763,7.48398085 C42.4848001,5.80374798 45.263696,5.80374798 46.9790375,7.48398085 C48.6943789,9.16135585 48.6943789,11.8835655 46.9790375,13.5636079" id="Shape"></path>
                    <path d="M49.0481839,19.6434254 C47.3328424,21.3236583 44.5539465,21.3236583 42.8415227,19.6434254 C41.1261813,17.9631925 41.1261813,15.2411734 42.8415227,13.5637984 C44.5539465,11.8835655 47.3328424,11.8835655 49.0481839,13.5637984 C50.7635253,15.2411734 50.7635253,17.9631925 49.0481839,19.6434254" id="Shape"></path>
                    <path d="M55.2550396,21.6700312 C53.5396982,23.3502641 50.7608022,23.3502641 49.0483784,21.6700312 C47.333037,19.9897984 47.333037,17.2677792 49.0483784,15.5904042 C50.7608022,13.9101714 53.5396982,13.9101714 55.2550396,15.5904042 C56.9701865,17.2677792 56.9701865,19.9899889 55.2550396,21.6700312" id="Shape"></path>
                    <path d="M63.5308472,25.7228619 C61.8155058,27.4030948 59.0366098,27.4030948 57.324186,25.7228619 C55.6088446,24.042629 55.6088446,21.3206099 57.324186,19.6432349 C59.0366098,17.963002 61.8155058,17.963002 63.5308472,19.6432349 C65.2461886,21.3206099 65.2461886,24.042629 63.5308472,25.7228619" id="Shape"></path>
                    <path d="M61.4620898,31.803251 C59.7467484,33.4834839 56.9678524,33.4834839 55.2554286,31.803251 C53.5400872,30.1230181 53.5400872,27.400999 55.2554286,25.723624 C56.9678524,24.0433911 59.7467484,24.0433911 61.4620898,25.723624 C63.1772367,27.400999 63.1772367,30.1232087 61.4620898,31.803251" id="Shape"></path>
                    <path d="M67.6685565,41.9366613 C65.9532151,43.6168942 63.1743191,43.6168942 61.4618953,41.9366613 C59.7465539,40.2564284 59.7465539,37.5344093 61.4618953,35.8570343 C63.1743191,34.1768014 65.9532151,34.1768014 67.6685565,35.8570343 C69.3838979,37.5344093 69.3838979,40.256619 67.6685565,41.9366613" id="Shape"></path>
                    <path d="M69.7377029,52.0696905 C68.0223615,53.7499234 65.2434655,53.7499234 63.5310417,52.0696905 C61.8157003,50.3894577 61.8157003,47.6674385 63.5310417,45.9900635 C65.2434655,44.3098306 68.0223615,44.3098306 69.7377029,45.9900635 C71.4528498,47.6674385 71.4528498,50.3898387 69.7377029,52.0696905" id="Shape"></path>
                    <path d="M53.1862822,31.803251 C51.4709408,33.4834839 48.6920448,33.4834839 46.979621,31.803251 C45.2642796,30.1230181 45.2642796,27.400999 46.979621,25.723624 C48.6920448,24.0433911 51.4709408,24.0433911 53.1862822,25.723624 C54.9016236,27.400999 54.9016236,30.1232087 53.1862822,31.803251" id="Shape"></path>
                    <path d="M44.9100856,23.695875 C43.1947441,25.3761079 40.4158482,25.3761079 38.7034244,23.695875 C36.9880829,22.0156421 36.9880829,19.293623 38.7034244,17.616248 C40.4158482,15.9360151 43.1947441,15.9360151 44.9100856,17.616248 C46.625427,19.293623 46.625427,22.0156421 44.9100856,23.695875" id="Shape"></path>
                    <path d="M34.5651316,17.6170101 C32.8497901,19.2972429 30.0708942,19.2972429 28.3584704,17.6170101 C26.6431289,15.9367772 26.6431289,13.2147581 28.3584704,11.5373831 C30.0708942,9.8571502 32.8497901,9.8571502 34.5651316,11.5373831 C36.280473,13.2145675 36.280473,15.9367772 34.5651316,17.6170101" id="Shape"></path>
                    <path d="M22.1512257,21.6700312 C20.4358842,23.3502641 17.6569883,23.3502641 15.9445645,21.6700312 C14.229223,19.9897984 14.229223,17.2677792 15.9445645,15.5904042 C17.6569883,13.9101714 20.4358842,13.9101714 22.1512257,15.5904042 C23.8663726,17.2677792 23.8663726,19.9899889 22.1512257,21.6700312" id="Shape"></path>
                    <path d="M26.2895185,17.6170101 C24.574177,19.2972429 21.7952811,19.2972429 20.0828573,17.6170101 C18.3675158,15.9367772 18.3675158,13.2147581 20.0828573,11.5373831 C21.7952811,9.8571502 24.574177,9.8571502 26.2895185,11.5373831 C28.0046654,13.2145675 28.0046654,15.9367772 26.2895185,17.6170101" id="Shape"></path>
                    <path d="M13.8752235,25.7228619 C12.1598821,27.4030948 9.3809862,27.4030948 7.66856234,25.7228619 C5.95322091,24.042629 5.95322091,21.3206099 7.66856234,19.6432349 C9.3809862,17.963002 12.1598821,17.963002 13.8752235,19.6432349 C15.590176,21.3206099 15.590176,24.042629 13.8752235,25.7228619" id="Shape"></path>
                    <path d="M34.5651316,29.7766452 C32.8497901,31.456878 30.0708942,31.456878 28.3584704,29.7766452 C26.6431289,28.0964123 26.6431289,25.3743931 28.3584704,23.6970181 C30.0708942,22.0167853 32.8497901,22.0167853 34.5651316,23.6970181 C36.280473,25.3743931 36.280473,28.0964123 34.5651316,29.7766452" id="Shape"></path>
                    <path d="M49.0481839,43.9638387 C47.3328424,45.6440716 44.5539465,45.6440716 42.8415227,43.9638387 C41.1261813,42.2836058 41.1261813,39.5615867 42.8415227,37.8842117 C44.5539465,36.2039788 47.3328424,36.2039788 49.0481839,37.8842117 C50.7635253,39.5615867 50.7635253,42.2836058 49.0481839,43.9638387" id="Shape"></path>
                    <path d="M53.1862822,56.1232833 C51.4709408,57.8035161 48.6920448,57.8035161 46.979621,56.1232833 C45.2642796,54.4430504 45.2642796,51.7210312 46.979621,50.0436562 C48.6920448,48.3634234 51.4709408,48.3634234 53.1862822,50.0436562 C54.9016236,51.7208407 54.9016236,54.4430504 53.1862822,56.1232833" id="Shape"></path>
                </g>
            </g>
        </g>
    </g>
</svg>