<?xml version="1.0" encoding="UTF-8"?>
<svg width="68px" height="59px" viewBox="0 0 68 59" version="1.1" xmlns="http://www.w3.org/2000/svg" xmlns:xlink="http://www.w3.org/1999/xlink">
    <!-- Generator: Sketch 51.2 (57519) - http://www.bohemiancoding.com/sketch -->
    <title>Group 3</title>
    <desc>Created with Sketch.</desc>
    <defs></defs>
    <g id="Screens" stroke="none" stroke-width="1" fill="none" fill-rule="evenodd">
        <g id="⟶-Questions" transform="translate(-81.000000, -237.000000)" fill-rule="nonzero">
            <g id="Group-4" transform="translate(57.000000, 222.000000)">
                <g id="1">
                    <g id="Group-3" transform="translate(24.000000, 15.000000)">
                        <g id="day-and-night" transform="translate(52.000000, 23.500000) scale(-1, 1) translate(-52.000000, -23.500000) translate(36.000000, 0.000000)">
                            <path d="M24.060326,28.2085452 C23.9603411,27.7075444 23.5818384,27.3098411 23.0889503,27.1880919 C20.1574771,26.4631977 18.1101587,23.8321613 18.1101587,20.789418 C18.1101587,18.6786579 19.0787525,16.7464854 20.7678597,15.4884646 C21.6431779,14.8363893 21.3556599,13.4096657 20.3014816,13.1490333 C19.5835864,12.9714343 18.8463816,12.8814815 18.1101587,12.8814815 C13.0572375,12.8814815 8.94623656,17.0202978 8.94623656,22.1074074 C8.94623656,27.1945171 13.0572375,31.3333333 18.1101587,31.3333333 C20.0866203,31.3333333 21.969479,30.7087711 23.5554921,29.5275231 C23.9636139,29.223397 24.160311,28.7095459 24.060326,28.2085452 Z" id="Shape" fill="#B8C5CD"></path>
                            <path d="M23.7632706,27.5921278 C22.4364038,28.3142943 20.958433,28.6928707 19.4236549,28.6928707 C14.368628,28.6928707 10.2559139,24.5470142 10.2559139,19.4512513 C10.2559139,18.4975491 10.4001421,17.5771829 10.6673162,16.7111111 C9.58585021,18.2278919 8.94623656,20.0852924 8.94623656,22.0917139 C8.94623656,27.1874769 13.0589507,31.3333333 18.1139776,31.3333333 C20.0912629,31.3333333 21.9749062,30.7077087 23.5615803,29.5244514 C24.1710714,29.0696317 24.2638947,28.1647781 23.7632706,27.5921278 Z" id="Shape" fill="#CCD6DD"></path>
                            <g id="Group" fill="#ECEDEF">
                                <path d="M24.358209,2.61111111 L24.199005,2.61111111 C23.4956418,2.61111111 22.9253731,2.02654861 22.9253731,1.30555556 C22.9253731,0.5845625 23.4956418,0 24.199005,0 L24.358209,0 C25.0615721,0 25.6318408,0.5845625 25.6318408,1.30555556 C25.6318408,2.02654861 25.0615721,2.61111111 24.358209,2.61111111 Z" id="Shape"></path>
                                <path d="M30.7263682,37.8611111 L30.5671642,37.8611111 C29.863801,37.8611111 29.2935323,37.2765486 29.2935323,36.5555556 C29.2935323,35.8345625 29.863801,35.25 30.5671642,35.25 L30.7263682,35.25 C31.4297313,35.25 32,35.8345625 32,36.5555556 C32,37.2765486 31.4297313,37.8611111 30.7263682,37.8611111 Z" id="Shape"></path>
                                <path d="M9.07462687,40.4722222 L8.91542289,40.4722222 C8.2120597,40.4722222 7.64179104,39.8876597 7.64179104,39.1666667 C7.64179104,38.4456736 8.2120597,37.8611111 8.91542289,37.8611111 L9.07462687,37.8611111 C9.77799005,37.8611111 10.3482587,38.4456736 10.3482587,39.1666667 C10.3482587,39.8876597 9.77799005,40.4722222 9.07462687,40.4722222 Z" id="Shape"></path>
                                <path d="M26.9054726,20.8888889 L26.7462687,20.8888889 C26.0429055,20.8888889 25.4726368,20.3043264 25.4726368,19.5833333 C25.4726368,18.8623403 26.0429055,18.2777778 26.7462687,18.2777778 L26.9054726,18.2777778 C27.6088358,18.2777778 28.1791045,18.8623403 28.1791045,19.5833333 C28.1791045,20.3043264 27.6088358,20.8888889 26.9054726,20.8888889 Z" id="Shape"></path>
                                <path d="M23.0845771,47 L22.9253731,47 C22.22201,47 21.6517413,46.4154375 21.6517413,45.6944444 C21.6517413,44.9734514 22.22201,44.3888889 22.9253731,44.3888889 L23.0845771,44.3888889 C23.7879403,44.3888889 24.358209,44.9734514 24.358209,45.6944444 C24.358209,46.4154375 23.7879403,47 23.0845771,47 Z" id="Shape"></path>
                                <path d="M9.07462687,9.13888889 L8.91542289,9.13888889 C8.2120597,9.13888889 7.64179104,8.55432639 7.64179104,7.83333333 C7.64179104,7.11234028 8.2120597,6.52777778 8.91542289,6.52777778 L9.07462687,6.52777778 C9.77799005,6.52777778 10.3482587,7.11234028 10.3482587,7.83333333 C10.3482587,8.55432639 9.77799005,9.13888889 9.07462687,9.13888889 Z" id="Shape"></path>
                                <path d="M1.43283582,22.1944444 L1.27363184,22.1944444 C0.570268657,22.1944444 0,21.6098819 0,20.8888889 C0,20.1678958 0.570268657,19.5833333 1.27363184,19.5833333 L1.43283582,19.5833333 C2.136199,19.5833333 2.70646766,20.1678958 2.70646766,20.8888889 C2.70646766,21.6098819 2.136199,22.1944444 1.43283582,22.1944444 Z" id="Shape"></path>
                            </g>
                        </g>
                        <g id="toothbrush-(2)" transform="translate(0.000000, 36.000000)">
                            <path d="M30.16,17.8507463 L2.53817417,17.8507463 C1.13630982,17.8507463 0,18.926704 0,20.2537793 C0,21.5809506 1.13630982,22.6567164 2.53817417,22.6567164 L30.16,22.6567164 L30.16,17.8507463 Z" id="Shape" fill="#FF6361"></path>
                            <path d="M30.16,17.8507463 L2.53817417,17.8507463 C1.13630982,17.8507463 0,18.926704 0,20.2537793 C0,21.5809506 1.13630982,22.6567164 2.53817417,22.6567164 L30.16,22.6567164 L30.16,17.8507463 Z" id="Shape" fill="#000000" opacity="0.2"></path>
                            <path d="M3.42879538,21.7418969 C2.02693104,21.7418969 0.890621213,20.6287572 0.890621213,19.2554777 C0.890621213,19.0056642 0.928629971,18.7646874 0.998667442,18.5373134 C0.391743597,18.9916643 0,19.7076442 0,20.5135808 C0,21.8868603 1.13630982,23 2.53817417,23 L30.16,23 L30.16,21.7418969 L3.42879538,21.7418969 Z" id="Shape" fill="#000000" opacity="0.1"></path>
                            <path d="M50.546515,16.1343284 L28.8401517,16.1343284 C28.0373951,16.1343284 27.3866667,16.7683862 27.3866667,17.5505774 L27.3866667,21.5837509 C27.3866667,22.3659421 28.0373951,23 28.8401517,23 L50.546515,23 C51.3492715,23 52,22.3659421 52,21.5837509 L52,17.5505774 C52,16.7683862 51.3492715,16.1343284 50.546515,16.1343284 Z" id="Shape" fill="#FF6361"></path>
                            <path d="M51.7630508,21.9694108 L30.0112799,21.9694108 C29.2068441,21.9694108 28.5547543,21.3334525 28.5547543,20.5489168 L28.5547543,16.5036548 C28.5547543,16.3756558 28.5736335,16.2522844 28.6062431,16.1343284 C27.9148805,16.2448998 27.3866667,16.8286739 27.3866667,17.534244 L27.3866667,21.579506 C27.3866667,22.3640417 28.0387564,23 28.8431922,23 L50.5949632,23 C51.2680522,23 51.833015,22.5539726 52,21.948931 C51.9226659,21.961337 51.8439185,21.9694108 51.7630508,21.9694108 Z" id="Shape" fill="#000000" opacity="0.15"></path>
                            <path d="M30.239398,8.92537313 L48.8005006,8.92537313 C49.4187952,8.92537313 49.92,9.41586329 49.92,10.0208408 L49.92,15.7910448 L29.12,15.7910448 L29.12,10.0208408 C29.12,9.41586329 29.6212048,8.92537313 30.239398,8.92537313 Z" id="Shape" fill="#E8E8E8"></path>
                            <rect id="Rectangle-path" fill="#000000" opacity="0.15" x="33.6266667" y="8.92537313" width="1.73333333" height="6.86567164"></rect>
                            <rect id="Rectangle-path" fill="#000000" opacity="0.15" x="38.8266667" y="8.92537313" width="1.73333333" height="6.86567164"></rect>
                            <rect id="Rectangle-path" fill="#000000" opacity="0.15" x="44.0266667" y="8.92537313" width="1.73333333" height="6.86567164"></rect>
                            <path d="M30.8081195,14.889531 C30.5286248,14.889531 30.3019472,14.6676993 30.3019472,14.3941796 L30.3019472,9.11932707 C30.3019472,9.05305534 30.3089422,8.98847017 30.3204991,8.92537313 L30.2394994,8.92537313 C29.6212048,8.92537313 29.12,9.41586329 29.12,10.0208408 L29.12,15.7910448 L49.92,15.7910448 L49.92,14.889531 L30.8081195,14.889531 Z" id="Shape" fill="#000000" opacity="0.1"></path>
                            <path d="M46.0502703,1.29169078 L33.6213392,1.29169078 C30.5257989,1.29169078 27.4451723,0.869715365 24.4668104,0.0379725025 C23.6591414,-0.187574708 22.9605346,0.634161623 23.3265778,1.37914786 C25.5934483,5.99426005 30.3353713,8.92537313 35.5346453,8.92537313 L46.0502703,8.92537313 C48.187585,8.92537313 49.92,7.21645776 49.92,5.10858199 C49.92,3.00060616 48.1873821,1.29169078 46.0502703,1.29169078 Z" id="Shape" fill="#6DABE4"></path>
                            <path d="M34.5142251,5.60723006 C32.009785,5.60723006 29.5645561,4.93651734 27.4425004,3.66758043 C25.9810099,2.79364786 24.7204109,1.66416415 23.720524,0.343283582 C23.3084832,0.57102161 23.084537,1.07805368 23.3263583,1.55446225 C23.7252974,2.34030382 24.2023385,3.07449246 24.7436688,3.75295796 C25.3098821,4.21696208 25.9128612,4.64307447 26.550981,5.02470526 C28.9405535,6.45364025 31.694229,7.20895522 34.5141235,7.20895522 L49.3029037,7.20895522 C49.6299363,6.73942725 49.8467731,6.19440653 49.92,5.60723006 L34.5142251,5.60723006 Z" id="Shape" fill="#77E0C1"></path>
                            <ellipse id="Oval" fill="#000000" opacity="0.15" cx="39" cy="3.60447761" rx="1" ry="1"></ellipse>
                            <g id="Group" transform="translate(31.200000, 2.746269)" fill="#FFFFFF">
                                <ellipse id="Oval" cx="0.961060351" cy="0.972007463" rx="1" ry="1"></ellipse>
                                <ellipse id="Oval" cx="14.2960863" cy="1.4001393" rx="1" ry="1"></ellipse>
                            </g>
                            <path d="M46.7353593,8.28173189 L36.2132527,8.28173189 C31.0106725,8.28173189 26.2659283,5.33544144 23.9976606,0.69643208 C23.9403042,0.579051192 23.9117783,0.460161552 23.9030479,0.343283582 C23.3791252,0.51226378 23.0509248,1.11938549 23.32654,1.6833569 C25.5948078,6.32236626 30.3396535,9.26865672 35.5421322,9.26865672 L46.0641372,9.26865672 C47.6175311,9.26865672 48.9564222,8.36209807 49.5733333,7.05411087 C48.8661747,7.80888909 47.8567022,8.28173189 46.7353593,8.28173189 Z" id="Shape" fill="#000000" opacity="0.1"></path>
                        </g>
                        <g id="sun" transform="translate(3.000000, 11.000000)">
                            <polygon id="Shape" fill="#F5C525" points="21 10 18.7887 11.8486759 19.9619 14.4508958 17.1463 15.1756284 17.04725 18.017619 14.1882 17.481773 12.8362 20 10.5 18.3016325 8.1638 20 6.8118 17.481773 3.95275 18.017619 3.85365 15.1756284 1.0381 14.450847 2.2113 11.8487247 0 10 2.2113 8.15132411 1.0381 5.54910416 3.8537 4.82437164 3.95275 1.98238101 6.8118 2.51822697 8.1638 0 10.5 1.69836751 12.83615 0 14.1882 2.51822697 17.04725 1.98238101 17.14635 4.82437164 19.9619 5.54915299 18.7887 8.15127528"></polygon>
                            <ellipse id="Oval" fill="#F8A805" cx="10.85" cy="9.83050847" rx="7" ry="6.77966102"></ellipse>
                        </g>
                    </g>
                </g>
            </g>
        </g>
    </g>
</svg>