<?xml version="1.0" encoding="UTF-8"?>
<svg width="67px" height="60px" viewBox="0 0 67 60" version="1.1" xmlns="http://www.w3.org/2000/svg" xmlns:xlink="http://www.w3.org/1999/xlink">
    <!-- Generator: Sketch 51.2 (57519) - http://www.bohemiancoding.com/sketch -->
    <title>tooth-cleaning</title>
    <desc>Created with Sketch.</desc>
    <defs></defs>
    <g id="Screens" stroke="none" stroke-width="1" fill="none" fill-rule="evenodd">
        <g id="⟶-Questions" transform="translate(-81.000000, -240.000000)" fill-rule="nonzero">
            <g id="Group-4" transform="translate(57.000000, 222.000000)">
                <g id="1">
                    <g id="tooth-cleaning" transform="translate(24.000000, 18.000000)">
                        <path d="M66.9999913,16.416663 C67.0045714,14.1661391 65.202638,12.3392074 62.9743649,12.3344494 C61.6805585,12.3320704 60.4653985,12.9562908 59.7041896,14.0121656 C58.7096585,11.6391237 55.9985144,10.5285321 53.6478878,11.5329943 C52.7215344,11.9284352 51.9486791,12.6191351 51.4461791,13.500022 C51.4461791,13.500022 48.5179393,7.66674009 43.8974263,11.16663 L25.4152435,11.16663 L24.260148,13.500022 C24.260148,13.500022 23.1050525,10 19.639635,10 C17.6377486,10.0222039 15.9454754,11.5027283 15.6382176,13.500022 C13.3972512,11.2250474 9.75517357,11.2156636 7.50256062,13.4790076 C7.16638293,13.8173528 6.87181852,14.1965372 6.6281584,14.6071772 C6.00435185,14.2944723 5.31943399,14.1288682 4.62286964,14.1242424 C2.06993447,14.1229207 0.00117891151,16.2112769 1.17731014e-06,18.7885154 C-0.00117655689,20.4568478 0.881338938,21.9992259 2.31254771,22.833326 C1.64948336,24.7151066 2.62216095,26.7836378 4.48533645,27.4533233 C4.53152981,27.4697119 4.57654542,27.4847789 4.62273878,27.499978 L6.9330607,27.499978 L6.9330607,31 L58.9140608,31 L58.9140608,27.4416927 C59.1047229,27.4801531 59.2976096,27.499978 59.491674,27.499978 C61.0788672,27.5081723 62.371365,26.2166454 62.3794783,24.613603 C62.3828806,23.9415385 62.1554471,23.2894311 61.7360428,22.7679038 L65.8448958,19.2736971 C66.5864757,18.512024 67.001169,17.4852257 66.9999913,16.416663 Z" id="Shape" fill="#F2F2F2"></path>
                        <g id="Group" transform="translate(2.000000, 25.000000)" fill="#E6E6E6">
                            <path d="M29.4569812,1.5338216 C28.5308285,0.610084507 27.2755732,0.0914929577 25.9666757,0.0914929577 C23.2408054,0.0903098592 21.0314561,2.29389671 21.0302699,5.01278873 C21.0302699,5.01397183 21.0302699,5.01397183 21.0302699,5.01515493 C21.0302699,7.9033615 21.4968389,10.7718498 22.4124477,13.5115117 L23.3571841,16.3370141 L24.3472594,26.2143099 C24.4461088,27.1960188 25.2756527,27.9433427 26.265728,27.9409765 C27.2581757,27.9409765 28.0877197,27.1866854 28.1795837,26.2003756 L29.0009561,17.488169 C29.1021778,16.1850516 30.1911025,15.1790235 31.5011862,15.1766573 C32.8146967,15.1766573 33.9059937,16.1850516 34.0060293,17.4905352 L34.8274017,26.2027418 C34.9204519,27.1856338 35.746569,27.9387418 36.7366444,27.9409765 C37.7243473,27.9409765 38.5516506,27.1948357 38.6505,26.2143099 L39.6451883,16.3370141 L40.5899247,13.5115117 C41.5055335,10.7718498 41.9721025,7.9033615 41.9721025,5.01515493 C41.9732887,2.29639437 39.7639393,0.0928075117 37.0379372,0.0916244131 C37.036751,0.0916244131 37.036751,0.0916244131 37.0355649,0.0916244131 C35.7266674,0.0916244131 34.4714121,0.610347418 33.5452594,1.53395305 C32.4156088,2.65934272 30.5855774,2.65934272 29.4569812,1.5338216 Z" id="Shape"></path>
                            <path d="M8.51528033,1.5338216 C7.58912762,0.610084507 6.33387238,0.0914929577 5.0249749,0.0914929577 C2.2991046,0.0903098592 0.0885690377,2.29389671 0.0885690377,5.01278873 C0.0885690377,5.01397183 0.0885690377,5.01397183 0.0885690377,5.01515493 C0.0885690377,7.9033615 0.555138075,10.7718498 1.47074686,13.5115117 L2.41548326,16.3370141 L3.40555858,26.2143099 C3.50440795,27.1960188 4.33395188,27.9433427 5.3240272,27.9409765 C6.3164749,27.9409765 7.14601883,27.1866854 7.23788285,26.2003756 L8.05925523,17.488169 C8.16047699,16.1850516 9.24940167,15.1790235 10.5594854,15.1766573 C11.8729958,15.1766573 12.9642929,16.1850516 13.0643285,17.4905352 L13.8857008,26.2027418 C13.978751,27.1856338 14.8048682,27.9387418 15.7949435,27.9409765 C16.7826464,27.9409765 17.6099498,27.1948357 17.7087992,26.2143099 L18.7034874,16.3370141 L19.6482238,13.5115117 C20.5638326,10.7718498 21.0304017,7.9033615 21.0304017,5.01515493 C21.0315879,2.29639437 18.8222385,0.0928075117 16.0962364,0.0916244131 C16.0950502,0.0916244131 16.0950502,0.0916244131 16.093864,0.0916244131 C14.7849665,0.0916244131 13.5297113,0.610347418 12.6035586,1.53395305 C11.4739079,2.65934272 9.64387657,2.65934272 8.51528033,1.5338216 Z" id="Shape"></path>
                            <path d="M50.398682,1.5338216 C49.4725293,0.610084507 48.2172741,0.0914929577 46.9083766,0.0914929577 C44.1825063,0.0903098592 41.9731569,2.29389671 41.9719707,5.01278873 C41.9719707,5.01397183 41.9719707,5.01397183 41.9719707,5.01515493 C41.9719707,7.9033615 42.4385397,10.7718498 43.3541485,13.5115117 L44.2988849,16.3370141 L45.2889603,26.2143099 C45.3878096,27.1960188 46.2173536,27.9433427 47.2074289,27.9409765 C48.1998766,27.9409765 49.0294205,27.1866854 49.1212845,26.2003756 L49.9426569,17.488169 C50.0438787,16.1850516 51.1328033,15.1790235 52.442887,15.1766573 C53.7563975,15.1766573 54.8476946,16.1850516 54.9477301,17.4905352 L55.7691025,26.2027418 C55.8621527,27.1856338 56.6882699,27.9387418 57.6783452,27.9409765 C58.6660481,27.9409765 59.4933515,27.1948357 59.5922008,26.2143099 L60.5868891,16.3370141 L61.5316255,13.5115117 C62.4472343,10.7718498 62.9138033,7.9033615 62.9138033,5.01515493 C62.9149895,2.29639437 60.7056402,0.0928075117 57.9797699,0.0916244131 C57.9785837,0.0916244131 57.9785837,0.0916244131 57.9773975,0.0916244131 C56.6685,0.0916244131 55.4132448,0.610347418 54.4870921,1.53395305 C53.3573096,2.65934272 51.5272782,2.65934272 50.398682,1.5338216 Z" id="Shape"></path>
                        </g>
                        <g id="Group" transform="translate(20.000000, 5.000000)" fill="#A2DAEB">
                            <polygon id="Shape" points="0.0105981308 0.105196262 0.0105981308 11.6549346 4.63059813 13.9649346 4.63059813 0.105196262"></polygon>
                            <polygon id="Shape" points="9.25046729 0.105196262 9.25046729 11.6549346 13.8703364 13.9649346 13.8703364 0.105196262"></polygon>
                        </g>
                        <g id="Group" transform="translate(24.000000, 5.000000)" fill="#86C8DC">
                            <polygon id="Shape" points="0.0508079096 0.105196262 0.0508079096 13.9649346 4.63898305 11.6549346 4.63898305 0.105196262"></polygon>
                            <polygon id="Shape" points="18.4035085 0.105196262 18.4035085 13.9649346 22.9916836 11.6549346 22.9916836 0.105196262"></polygon>
                            <polygon id="Shape" points="9.22715819 0.105196262 9.22715819 13.9649346 13.8153333 11.6549346 13.8153333 0.105196262"></polygon>
                        </g>
                        <polygon id="Shape" fill="#A2DAEB" points="38 5 38 16.6666226 43 19 43 5"></polygon>
                        <rect id="Rectangle-path" fill="#4398D1" x="20" y="0" width="47" height="5"></rect>
                        <circle id="Oval" fill="#F2F2F2" cx="5.5" cy="3.5" r="3.5"></circle>
                        <g id="Group" transform="translate(10.000000, 17.000000)" fill="#FFFFFF">
                            <ellipse id="Oval" cx="2.38267898" cy="2.35555556" rx="2.32409931" ry="2.24190476"></ellipse>
                            <ellipse id="Oval" cx="53.511679" cy="4.59746032" rx="3.48608314" ry="3.36279365"></ellipse>
                        </g>
                        <g id="Group" transform="translate(23.000000, 5.000000)" fill="#7BBDD1">
                            <rect id="Rectangle-path" x="0.0716625" y="0.104018692" width="2.31721875" height="13.8596075"></rect>
                            <rect id="Rectangle-path" x="9.340275" y="0.104018692" width="2.31721875" height="13.8596075"></rect>
                            <rect id="Rectangle-path" x="18.6088875" y="0.104018692" width="2.31721875" height="13.8596075"></rect>
                        </g>
                        <g id="Group" transform="translate(5.000000, 29.000000)" fill="#F2F2F2">
                            <path d="M0.602267442,5.88548936 L0.263982558,4.89612766 C-0.374520349,2.99055319 0.508735465,0.915957447 2.34248547,0.0132765957 L3.37486919,2.03042553 C2.56656977,2.42821277 2.17857558,3.3432766 2.46152616,4.18276596 L2.79981105,5.1732766 L0.602267442,5.88548936 Z" id="Shape"></path>
                            <path d="M21.3874273,5.88548936 L21.0491424,4.89612766 C20.4106395,2.99055319 21.2938953,0.915957447 23.1276453,0.0132765957 L24.1600291,2.03042553 C23.3517297,2.42821277 22.9637355,3.3432766 23.246686,4.18276596 L23.5849709,5.1732766 L21.3874273,5.88548936 Z" id="Shape"></path>
                            <path d="M42.1725872,5.88548936 L41.8343023,4.89612766 C41.1922674,2.99055319 42.0721221,0.912638298 43.9070494,0.00765957447 L44.9394331,2.02480851 C44.1311337,2.42259574 43.7431395,3.33765957 44.0260901,4.17714894 L44.364375,5.16765957 L42.1725872,5.88548936 Z" id="Shape"></path>
                        </g>
                        <g id="Group" transform="translate(5.000000, 27.000000)" fill="#DEDEDE">
                            <path d="M16.7814783,0.00896551724 C14.1172174,9.02545813 5.09947826,13.1758522 0.0622173913,14.8275567 L1.02247826,24.2600493 C1.1283913,25.286601 2.06334783,26.0350936 3.10878261,25.9299409 C4.01152174,25.8395172 4.72421739,25.1362365 4.81056522,24.2487783 L5.62343478,15.7603547 C5.72595652,14.4160394 6.91878261,13.4075468 8.28769565,13.5082167 C9.51508696,13.5986404 10.4903478,14.5562857 10.5812609,15.7603547 L11.3941304,24.2487783 C11.4943043,25.2764828 12.4235217,26.0294581 13.4701304,25.9310936 C14.373913,25.8463054 15.0901304,25.1464828 15.1822174,24.2600493 L16.1620435,14.6364631 L17.097,11.8835369 C18.0031304,9.21424631 18.4648696,6.41943842 18.4648696,3.60541872 C18.4613478,2.22383251 17.8464783,0.911152709 16.7814783,0.00896551724 Z" id="Shape"></path>
                            <path d="M37.5063913,0.00896551724 C34.8421304,9.02545813 25.8243913,13.1758522 20.7871304,14.8275567 L21.7473913,24.2600493 C21.8533043,25.286601 22.7882609,26.0350936 23.8336957,25.9299409 C24.7364348,25.8395172 25.4491304,25.1362365 25.5354783,24.2487783 L26.3483478,15.7603547 C26.4508696,14.4160394 27.6436957,13.4075468 29.0126087,13.5082167 C30.24,13.5986404 31.2152609,14.5562857 31.3061739,15.7603547 L32.1190435,24.2487783 C32.2192174,25.2764828 33.1484348,26.0294581 34.1950435,25.9310936 C35.0988261,25.8463054 35.8150435,25.1464828 35.9071304,24.2600493 L36.8869565,14.6364631 L37.821913,11.8835369 C38.7280435,9.21424631 39.1897826,6.41943842 39.1897826,3.60541872 C39.1862609,2.22383251 38.5713913,0.911152709 37.5063913,0.00896551724 Z" id="Shape"></path>
                            <path d="M58.2313043,0.00896551724 C55.5670435,9.02545813 46.5493043,13.1758522 41.5120435,14.8275567 L42.4723043,24.2600493 C42.5782174,25.286601 43.5131739,26.0350936 44.5586087,25.9299409 C45.4613478,25.8395172 46.1740435,25.1362365 46.2603913,24.2487783 L47.0732609,15.7603547 C47.1757826,14.4160394 48.3686087,13.4075468 49.7375217,13.5082167 C50.964913,13.5986404 51.9401739,14.5562857 52.031087,15.7603547 L52.8439565,24.2487783 C52.9441304,25.2764828 53.8733478,26.0294581 54.9199565,25.9310936 C55.8237391,25.8463054 56.5399565,25.1464828 56.6320435,24.2600493 L57.6118696,14.6364631 L58.5468261,11.8835369 C59.4529565,9.21424631 59.9146957,6.41943842 59.9146957,3.60541872 C59.9111739,2.22383251 59.2963043,0.911152709 58.2313043,0.00896551724 Z" id="Shape"></path>
                        </g>
                        <path d="M62.3793239,41.8662123 C63.2260138,40.6138707 64.9460899,40.2727315 66.2225371,41.1034317 C66.5309835,41.303981 66.7954596,41.5635909 67,41.8662123 L67,60 L0,60 L0,41.8662123 C0.846689923,40.6138707 2.56676602,40.2727315 3.84321324,41.1034317 C4.15165963,41.303981 4.41613572,41.5635909 4.62067612,41.8662123 L9.16976964,42.1846259 C10.4589107,40.4143486 12.9667879,40.0040058 14.7711404,41.2677743 C15.2135915,41.578356 15.5878625,41.9727781 15.8697435,42.4294707 L16.0140864,42.664044 L20.7929771,42.9995339 C22.0682465,41.7471923 24.137206,41.7471923 25.4124754,42.9983783 C25.4124754,42.9983783 25.4124754,42.9983783 25.4136532,42.9995339 L29.6473646,42.948562 C30.9503772,40.6671536 33.8914142,39.8534012 36.216867,41.1318065 C36.8823103,41.4978539 37.4506526,42.013607 37.8733432,42.6357976 L38.1205453,42.9996623 L41.5860851,42.8047623 C42.8625323,41.5535762 44.930314,41.5535762 46.2067612,42.8047623 L49.672301,42.9996623 L50.5964624,41.8663407 C52.3454594,39.7220556 55.5348762,39.3741116 57.7216133,41.0899505 C57.9260228,41.2508265 58.1178694,41.426596 58.2945357,41.6170022 L58.7207597,42.0703565 L62.3793239,41.8662123 Z" id="Shape" fill="#F7A6A6"></path>
                        <path d="M0,60 L67,60 L67,47 C47.8403362,56.2158918 13.5894387,56.2420086 0,56.3454466 C3.62993484e-15,56.3454466 0,60 0,60 Z" id="Shape" fill="#F59A9A"></path>
                    </g>
                </g>
            </g>
        </g>
    </g>
</svg>