<?xml version="1.0" encoding="UTF-8"?>
<svg width="295px" height="94px" viewBox="0 0 295 94" version="1.1" xmlns="http://www.w3.org/2000/svg" xmlns:xlink="http://www.w3.org/1999/xlink">
    <!-- Generator: Sketch 50 (54983) - http://www.bohemiancoding.com/sketch -->
    <title>Group 3</title>
    <desc>Created with Sketch.</desc>
    <defs>
        <path d="M0,5.0040358 C0,2.24038314 2.24676836,0 4.99649982,0 L290.0035,0 C292.762991,0 295,2.23089406 295,5.0040358 L295,94 L0,94 L0,5.0040358 Z" id="path-1"></path>
        <polygon id="path-3" points="0 0 295 0 295 295 0 295"></polygon>
    </defs>
    <g id="Page-1" stroke="none" stroke-width="1" fill="none" fill-rule="evenodd">
        <g id="⟶-Menu" transform="translate(-40.000000, -234.000000)">
            <g id="Menu" transform="translate(35.000000, 84.000000)">
                <g id="2" transform="translate(0.000000, 145.000000)">
                    <g id="Group-3" transform="translate(5.000000, 5.000000)">
                        <mask id="mask-2" fill="white">
                            <use xlink:href="#path-1"></use>
                        </mask>
                        <use id="Mask-Copy-3" fill="#3FC9DD" xlink:href="#path-1"></use>
                        <g id="Bathroom" mask="url(#mask-2)">
                            <g transform="translate(0.000000, -101.000000)">
                                <mask id="mask-4" fill="white">
                                    <use xlink:href="#path-3"></use>
                                </mask>
                                <g id="Clip-2" stroke="none" fill="none"></g>
                                <polygon id="Fill-1" stroke="none" fill="#BEE0D5" fill-rule="evenodd" mask="url(#mask-4)" points="0 207 295 207 295 0 0 0"></polygon>
                                <polyline id="Fill-3" stroke="none" fill="#6A9893" fill-rule="evenodd" mask="url(#mask-4)" points="236.844951 207 237 0.00123704475 236.155049 0 236 206.998822 236.844951 207"></polyline>
                                <polyline id="Fill-4" stroke="none" fill="#6A9893" fill-rule="evenodd" mask="url(#mask-4)" points="265.844951 207 266 0.00123704475 265.155049 0 265 206.998822 265.844951 207"></polyline>
                                <polyline id="Fill-5" stroke="none" fill="#6A9893" fill-rule="evenodd" mask="url(#mask-4)" points="26.8451299 207 27 0.00123704475 26.1548701 0 26 206.998822 26.8451299 207"></polyline>
                                <polyline id="Fill-6" stroke="none" fill="#6A9893" fill-rule="evenodd" mask="url(#mask-4)" points="56.8451299 206 57 0.00123387773 56.1548701 0 56 205.998825 56.8451299 206"></polyline>
                                <polyline id="Fill-7" stroke="none" fill="#6A9893" fill-rule="evenodd" mask="url(#mask-4)" points="86.8449514 207 87 0.00123704475 86.1550486 0 86 206.998822 86.8449514 207"></polyline>
                                <polyline id="Fill-8" stroke="none" fill="#6A9893" fill-rule="evenodd" mask="url(#mask-4)" points="117.844951 205 118 0.00124098449 117.155049 0 117 204.998818 117.844951 205"></polyline>
                                <polyline id="Fill-9" stroke="none" fill="#6A9893" fill-rule="evenodd" mask="url(#mask-4)" points="145.844951 207 146 0.00123704475 145.155049 0 145 206.998822 145.844951 207"></polyline>
                                <polyline id="Fill-10" stroke="none" fill="#6A9893" fill-rule="evenodd" mask="url(#mask-4)" points="176.844951 207 177 0.00123704475 176.155049 0 176 206.998822 176.844951 207"></polyline>
                                <polygon id="Fill-14" stroke="none" fill="#6A9893" fill-rule="evenodd" mask="url(#mask-4)" points="0 115 295 115 295 114 0 114"></polygon>
                                <polygon id="Fill-15" stroke="none" fill="#6A9893" fill-rule="evenodd" mask="url(#mask-4)" points="0 144 295 144 295 143 0 143"></polygon>
                                <polygon id="Fill-16" stroke="none" fill="#6A9893" fill-rule="evenodd" mask="url(#mask-4)" points="0 173 295 173 295 172 0 172"></polygon>
                                <polyline id="Fill-18" stroke="none" fill="#6A9893" fill-rule="evenodd" mask="url(#mask-4)" points="206.844951 207 207 0.00123704475 206.155049 0 206 206.998822 206.844951 207"></polyline>
                                <path d="M56,195.999439 C56,194.342991 54.6066618,193 52.8879127,193 L27.1120873,193 C25.3933382,193 24,194.342991 24,195.999439 L24,196.000561 C24,197.657009 25.3933382,199 27.1120873,199 L52.8879127,199 C54.6066618,199 56,197.657009 56,196.000561 L56,195.999439" id="Fill-28" stroke="none" fill="#8B8695" fill-rule="evenodd" mask="url(#mask-4)"></path>
                                <path d="M20,195.565543 C20.2539543,194.160726 20.9620057,192.920873 21.9616796,192.012588 C23.0354056,192.982491 24.4424582,193.57035 25.9830616,193.57035 C27.5303302,193.57035 28.942764,192.977456 30.0182022,192 C31.0332858,192.917034 31.7503261,194.174572 32,195.60016 C29.6095393,196.450541 27.8925194,198.786806 27.8925194,201.536019 C27.8925194,201.918693 27.9259071,202.293185 27.9896249,202.656978 C27.3650428,202.879155 26.6947208,203 25.9968202,203 C25.3358541,203 24.6997146,202.891743 24.1036894,202.691595 C24.171382,202.317102 24.2071545,201.930652 24.2071545,201.536019 C24.2071545,198.748475 22.4422544,196.38565 20,195.565543" id="Fill-29" stroke="none" fill="#B0B5BF" fill-rule="evenodd" mask="url(#mask-4)"></path>
                                <path d="M47,195.565543 C47.253953,194.160726 47.962062,192.920873 48.9616696,192.012588 C50.0354513,192.982491 51.4424356,193.57035 52.9830922,193.57035 C54.5302918,193.57035 55.9427795,192.977456 57.0182123,192 C58.0332907,192.917034 58.7503274,194.174572 59,195.60016 C56.6095515,196.450541 54.8925403,198.786806 54.8925403,201.536019 C54.8925403,201.918693 54.9259278,202.293185 54.9895842,202.656978 C54.3650664,202.879155 53.6946866,203 52.9967897,203 C52.335888,203 51.6996907,202.891743 51.1036684,202.691595 C51.1713607,202.317102 51.2071331,201.930652 51.2071331,201.536019 C51.2071331,198.748475 49.4422419,196.38565 47,195.565543" id="Fill-31" stroke="none" fill="#B0B5BF" fill-rule="evenodd" mask="url(#mask-4)"></path>
                                <path d="M55.5492126,58.0104831 C69.2674375,57.6412824 69.9644675,67.1403507 70,68.144209 L67.8467281,68.1383178 C67.8467281,68.1100401 67.7904683,65.2746116 65.4873676,63.0383758 C63.3921322,61.0040899 60.0691292,60.0332223 55.6074859,60.1534025 C50.6368391,60.2871325 47.0463352,63.643931 44.9358209,70.1307173 C43.2201322,75.4039191 43.1818755,80.767256 43.1816979,80.8208658 L43.1548116,194 L41,194 L41.0267678,80.8149746 C41.0267678,80.8149746 41.0668012,58.4002441 55.5492126,58.0104831" id="Fill-36" stroke="none" fill="#B0B5BF" fill-rule="evenodd" mask="url(#mask-4)"></path>
                                <path d="M37.0257707,79.9290748 C37.0261689,79.6866101 37.0569458,73.9304284 38.8826809,68.0347705 C39.9928107,64.4501776 41.542976,61.5476637 43.490112,59.4078542 C46.0494293,56.5952052 49.2457884,55.1159942 52.9903858,55.0111812 C55.8639573,54.9307912 58.42208,55.2841893 60.5946667,56.0616652 C62.51808,56.7499236 64.1633067,57.7754549 65.4848356,59.1094814 C66.9269689,60.5660349 67.9907911,62.4174763 68.5613867,64.4637133 C68.9908978,66.0050117 69,67.1549534 69,67.2808937 L66.9281067,67.2750087 C66.8939733,66.2721937 66.2243911,56.7829976 53.0463644,57.1518146 C39.1342436,57.5411705 39.0957867,79.9326058 39.0957867,79.9326058 L39.0700729,193 L37,193 L37.0257707,79.9290748" id="Fill-37" stroke="none" fill="#8B8695" fill-rule="evenodd" mask="url(#mask-4)"></path>
                                <path d="M223.656603,156 C226.228836,168.892505 236.820734,178.590673 249.495825,178.590673 C262.171513,178.590673 272.762815,168.892505 275.335048,156 L288,156 C286.176834,172.272094 277.514259,185 249.5,185 C218.052916,185 212.82257,172.272094 211,156 L223.656603,156" id="Fill-69" stroke="none" fill="#E6E2D9" fill-rule="evenodd" mask="url(#mask-4)"></path>
                                <path d="M249,176 C236.246042,176 225.588238,167.414007 223,156 L275,156 C272.411762,167.414007 261.754558,176 249,176" id="Fill-70" stroke="none" fill="#D5D5CA" fill-rule="evenodd" mask="url(#mask-4)"></path>
                                <path d="M211,156.500297 C211,159.537603 228.236883,162 249.5,162 C270.76252,162 288,159.537603 288,156.500297 C288,153.462456 270.76252,151 249.5,151 C228.236883,151 211,153.462456 211,156.500297" id="Fill-71" stroke="none" fill="#FFFEFE" fill-rule="evenodd" mask="url(#mask-4)"></path>
                                <path d="M242.178453,203.446642 C244.746208,197.924121 247.76457,193.308612 251,192 L251,242 C242.058448,242 237,235.784408 237,235.784408 C242.198454,227.132041 242.886718,214.398122 242.178453,203.446642" id="Fill-72" stroke="none" fill="#E6E2D9" fill-rule="evenodd" mask="url(#mask-4)"></path>
                                <path d="M242.214568,204 C241.44183,191.925506 239,182.004796 239,182.004796 L251,182 L251,192.486041 C247.777816,193.802349 244.771811,198.445001 242.214568,204" id="Fill-73" stroke="none" fill="#D5D5CA" fill-rule="evenodd" mask="url(#mask-4)"></path>
                                <path d="M261.384867,197.680748 C260.033423,209.56422 259.790645,225.591346 266,235.840037 C266,235.840037 260.993954,242 252,242 L252,192.447496 C255.997313,190.846909 259.125798,193.760932 261.384867,197.680748" id="Fill-74" stroke="none" fill="#F0EEE7" fill-rule="evenodd" mask="url(#mask-4)"></path>
                                <path d="M252,192.620384 L252,182 L264,182.004857 C264,182.004857 262.350922,188.792441 261.336779,198 C259.088462,193.970555 255.979323,190.975032 252,192.620384" id="Fill-75" stroke="none" fill="#DADAD3" fill-rule="evenodd" mask="url(#mask-4)"></path>
                                <path d="M263,132.5 C263,131.119048 261.878899,130 260.495413,130 L239.504587,130 C238.121101,130 237,131.119048 237,132.5 C237,133.880952 238.121101,135 239.504587,135 L260.495413,135 C261.878899,135 263,133.880952 263,132.5" id="Fill-76" stroke="none" fill="#8B8695" fill-rule="evenodd" mask="url(#mask-4)"></path>
                                <path d="M236,130.26897 C236.211535,129.375026 236.801775,128.586193 237.634411,128.008085 C238.529416,128.625104 239.70218,128.99961 240.986176,128.99961 C242.275317,128.99961 243.452581,128.622122 244.348872,128 C245.194368,128.583666 245.792259,129.384122 246,130.2907 C244.008037,130.831917 242.576866,132.318623 242.576866,134.068611 C242.576866,134.312184 242.605157,134.550198 242.657815,134.781643 C242.137723,134.923138 241.578988,135 240.997107,135 C240.446731,135 239.916286,134.931223 239.419919,134.803878 C239.475857,134.565358 239.506076,134.319764 239.506076,134.068611 C239.506076,132.294367 238.034977,130.790985 236,130.26897" id="Fill-77" stroke="none" fill="#B0B5BF" fill-rule="evenodd" mask="url(#mask-4)"></path>
                                <path d="M239,132.999962 C239,134.104985 239.895073,135 241,135 C242.104927,135 243,134.104985 243,132.999962 C243,131.895767 242.104927,131 241,131 C239.895073,131 239,131.895767 239,132.999962" id="Fill-78" stroke="none" fill="#D8232A" fill-rule="evenodd" mask="url(#mask-4)"></path>
                                <path d="M257,130.26897 C257.211535,129.375026 257.801775,128.586193 258.634411,128.008085 C259.529416,128.625104 260.70218,128.99961 261.986176,128.99961 C263.275317,128.99961 264.452581,128.622122 265.348872,128 C266.194368,128.583666 266.792323,129.384122 267,130.2907 C265.008101,130.831917 263.577509,132.318623 263.577509,134.068611 C263.577509,134.312184 263.605092,134.550198 263.65788,134.781643 C263.137723,134.923138 262.578988,135 261.997107,135 C261.446731,135 260.916286,134.931223 260.419919,134.803878 C260.475792,134.565358 260.506076,134.319764 260.506076,134.068611 C260.506076,132.294367 259.034977,130.790985 257,130.26897" id="Fill-79" stroke="none" fill="#B0B5BF" fill-rule="evenodd" mask="url(#mask-4)"></path>
                                <path d="M259,132.999962 C259,134.104985 259.895825,135 261,135 C262.104927,135 263,134.104985 263,132.999962 C263,131.895767 262.104927,131 261,131 C259.895825,131 259,131.895767 259,132.999962" id="Fill-80" stroke="none" fill="#334A8D" fill-rule="evenodd" mask="url(#mask-4)"></path>
                                <path d="M267.354071,142.301125 C267.354071,142.301125 256.823989,142.318015 252.650911,142.301125 C248.166135,142.282984 249.075754,137.366115 249.075754,137.366115 L249.081319,134 L250.862096,134 L250.862096,137.376124 L250.854058,137.473148 L250.834271,137.586374 C250.789752,138.020447 250.79408,139.389788 251.379634,140.049124 C251.548437,140.239293 251.861928,140.50578 252.650911,140.50578 L267.354071,140.50578 L267.391789,140.492706 C267.647775,140.498273 268.99387,140.570837 270.346766,141.586803 C271.55621,142.494421 272.998145,144.341062 273,148 L271.224788,147.998686 C271.176558,141.893262 267.354071,142.301125 267.354071,142.301125" id="Fill-81" stroke="none" fill="#B0B5BF" fill-rule="evenodd" mask="url(#mask-4)"></path>
                                <path d="M248.003715,137.285395 L248.003715,134 L249.869928,134 L249.864366,137.366732 C249.864366,137.366732 248.955298,142.279558 253.437361,142.29764 C257.607914,142.314533 268.131625,142.300143 268.131625,142.300143 C268.131625,142.300143 271.9518,141.892206 272,147.998123 L270.209795,148 C270.209177,146.37138 269.827283,145.175724 269.105516,144.556936 C268.650704,144.167143 268.176735,144.073293 268.071684,144.073293 L253.437361,144.073293 C251.382054,144.073293 250.127613,143.177333 249.462698,142.41902 C247.853552,140.582678 248.003715,137.94554 248.003715,137.285395" id="Fill-82" stroke="none" fill="#8B8695" fill-rule="evenodd" mask="url(#mask-4)"></path>
                                <path d="M275,147.019535 C275,146.456744 274.724673,146 274.385421,146 L269.614579,146 C269.275327,146 269,146.456744 269,147.019535 L269,148.980558 C269,149.543256 269.275327,150 269.614579,150 L274.385421,150 C274.724673,150 275,149.543256 275,148.980558 L275,147.019535" id="Fill-83" stroke="none" fill="#8B8695" fill-rule="evenodd" mask="url(#mask-4)"></path>
                                <path d="M213.114343,64.7294218 C214.355938,58.3016114 216.591759,52.3982781 219.59228,47.3201686 C221.527812,44.0444734 223.781472,41.1124296 226.292015,38.6046535 C232.327544,32.5766189 239.846684,29 247.999703,29 C267.881866,29 284,50.2664943 284,76.5002066 C284,78.1196116 283.938158,79.7201314 283.818042,81.2982251 C283.483264,85.7031956 282.692401,89.9311175 281.508486,93.8981877 C280.197914,98.2884042 278.405689,102.359343 276.218092,105.997103 C272.317237,112.485346 267.158792,117.59674 261.228513,120.69037 C257.133272,122.826167 252.670548,124 247.999703,124 C229.372216,124 214.048512,105.33258 212.189093,81.4020936 C212.06422,79.7903607 212,78.1550213 212,76.5002066 C212,72.4369989 212.386512,68.4934762 213.114343,64.7294218" id="Fill-84" stroke="none" fill="#597D7A" fill-rule="evenodd" mask="url(#mask-4)"></path>
                                <path d="M246.197267,102.335931 L216.188451,80.6843066 C216.064002,79.0714489 216,77.4349683 216,75.7789988 C216,71.7128967 216.385199,67.7666811 217.11056,64 L280,105.296479 C276.112449,111.789249 270.971517,116.904211 265.061373,120 L228.490537,97.5038546 L246.197267,102.335931" id="Fill-87" stroke="none" fill="#BEDBD8" fill-rule="evenodd" mask="url(#mask-4)"></path>
                                <path d="M245.472826,102.332835 L228.082357,97.5719036 L264,119.736825 C259.991561,121.842643 255.623427,123 251.051582,123 C232.818916,123 217.820007,104.594597 216,81 L245.472826,102.332835" id="Fill-88" stroke="none" fill="#A8CDC8" fill-rule="evenodd" mask="url(#mask-4)"></path>
                                <path d="M222.440611,47 L284,93.8344704 C282.697038,98.2488587 280.91514,102.342211 278.740089,106 L216,64.5051059 C217.234441,58.0419049 219.45738,52.1060688 222.440611,47" id="Fill-89" stroke="none" fill="#A8CDC8" fill-rule="evenodd" mask="url(#mask-4)"></path>
                                <path d="M195.944089,157 C192.642974,157 176.035688,157 176.035688,157 L175.936952,157 C175.936952,157 159.329665,157 156.027955,157 C152.72684,157 152,154 152,154 L152,151 L153.486989,151 L153.486989,153.764918 C153.546468,153.955738 153.704089,154.309344 153.99316,154.646721 C154.498736,155.237377 155.152416,155.52459 156.027955,155.52459 L195.944089,155.52459 C196.820223,155.52459 197.517323,155.237377 198.0229,154.646721 C198.31197,154.309344 198.453532,153.955738 198.572491,153.764918 L198.572491,151 L200,151 L200,154 C200,154 199.245204,157 195.944089,157" id="Fill-90" stroke="none" fill="#8B8695" fill-rule="evenodd" mask="url(#mask-4)"></path>
                                <path d="M152.515152,151 L152.515152,155.013158 C152.515152,155.013158 153.227273,159.026316 156.461538,159.026316 C159.696387,159.026316 175.967366,159.026316 175.967366,159.026316 L176.064103,159.026316 C176.064103,159.026316 192.335082,159.026316 195.569347,159.026316 C198.803613,159.026316 199.543124,155.013158 199.543124,155.013158 L199.543124,151 L201,151 L201,155.257895 L200.956294,155.495461 C200.928904,155.640132 200.670746,156.951316 199.906177,158.251974 C199.168415,159.505921 197.817599,161 195.569347,161 L156.461538,161 C154.213869,161 152.862471,159.505921 152.125291,158.251974 C151.36014,156.951316 151.086247,155.640132 151.059441,155.495461 L151,155.257895 L151,151 L152.515152,151" id="Fill-91" stroke="none" fill="#B0B5BF" fill-rule="evenodd" mask="url(#mask-4)"></path>
                                <path d="M183.638275,184.56591 L182.178442,185.578218 L182.177912,185.578218 L182.176853,185.577624 L182.478669,183.947838 L183.828366,176.611726 L183.82413,176.611726 L183.82413,176.583821 L183.823071,176.582633 L183.826778,176.566603 L182.070953,177.499351 L183.715582,169.130744 L183.715053,169.130744 L183.700756,169.111151 L183.703404,169.084433 L183.690696,169.06959 L183.690696,169.066028 L182.166793,169.640163 L183.323752,161.569015 L183.322693,161.569609 L183.322693,161.567827 L183.316339,161.573171 L183.316868,161.570796 L183.321104,161.56664 L183.319516,161.567293 L183.317398,161.564265 L183.316868,161.570796 L182,162.665038 L183.165431,155 L188.184569,155 L187.036611,162.561195 L187.039259,162.560542 L187.038729,162.564104 L188.355068,161.467487 L187.191755,169.537448 L187.184342,169.539823 L187.190696,169.544573 L187.204463,169.539229 L187.202345,169.552885 L187.202874,169.552351 L187.202874,169.552885 L188.739486,168.978749 L187.508926,175.31621 L187.108623,177.36873 L187.107035,177.371105 L187.107035,177.324201 L187.10121,177.324201 L187.104917,177.350325 L187.105976,177.357449 L187.110741,177.334888 L187.108623,177.324201 L187.508396,177.144895 L188.850681,176.496543 L188.848563,176.501886 L187.538048,177.152613 L188.864448,176.471012 L187.212935,185.491533 L187.212935,185.492127 L188.678064,184.461414 L188.638351,184.78559 L187.655068,193.058012 L188.813616,191.976892 L187.903933,199.247634 L189,198.354666 L188.993116,202.975716 C188.939107,202.966751 188.886687,202.957845 188.831619,202.949592 C187.062557,202.67523 185.453933,202.736384 183.954387,203 L183.961271,198.460944 L182.866263,199.353912 L183.777005,192.082516 L182.620575,193.161915 L183.602269,184.868118 L183.638275,184.56591" id="Fill-92" stroke="none" fill="#E57C2C" fill-rule="evenodd" mask="url(#mask-4)"></path>
                                <path d="M188.952883,184.306455 L187.211583,185.313519 L187.210952,185.313519 L187.209689,185.312928 L187.569696,183.685678 L189.179625,176.381657 L189.226994,176.381657 L189.226994,176.371025 L189.199836,176.36689 L189.190993,176.350352 L187.090318,177.25228 L189.048254,168.901089 L189.046359,168.901089 L189.028043,168.906346 L189.041938,168.89217 L189.037517,168.883901 L187.209057,169.456835 L188.583402,161.428082 L188.578981,161.429263 L188.590981,161.427491 L188.595402,161.432807 L188.595402,161.430445 L188.587823,161.42631 L188.578981,161.42696 L188.573296,161.423947 L188.57077,161.430445 L187,162.519019 L188.369924,155 L191.735047,155 C191.735047,155 192.163267,155.049674 192.607276,155.541629 C193.051917,156.033644 192.916125,156.583542 192.916125,156.946794 C192.916125,173.280135 193.808564,190.940084 197,205 C196.404409,204.338468 194.587949,203.421833 189.337523,202.726575 L189.353313,198.129518 L189.353313,198.117705 L189.345734,198.117705 L188.035811,199.019043 L189.120255,191.797713 L189.119624,191.797713 L187.739595,192.865024 L188.910567,184.610641 L188.952883,184.306455" id="Fill-93" stroke="none" fill="#DFB550" fill-rule="evenodd" mask="url(#mask-4)"></path>
                                <path d="M171.348063,200.573212 L169.900345,201.525046 L171.153662,193.831501 L169.628317,194.969934 L171.02362,185.898969 L169.085589,187.012737 L171.326831,177.503175 L171.328822,177.501998 L171.326831,177.501409 L171.331476,177.481984 L171.319533,177.460204 L171.321523,177.427241 L171.302946,177.427241 L171.302946,177.465502 L169,178.443236 L171.149018,169.844361 L171.222001,169.564756 L171.222665,169.565934 L171.207404,169.570643 L171.196789,169.559458 L171.170249,169.552983 L171.170249,169.552395 L169.164544,170.178709 L170.752256,161.64223 L170.754246,161.643467 L170.756237,161.641701 L170.750929,161.646351 L170.751592,161.643996 L170.756237,161.641053 L170.754246,161.641701 L170.752919,161.638699 L170.751592,161.643996 L169.007962,162.814804 L170.539278,155 L177.627256,155 L176.67715,159.936347 L176.67715,159.938113 L176.671842,159.936347 L176.667197,159.939879 L177.659766,159.270594 L178.415472,158.763185 L176.831741,167.31438 L176.832404,167.31438 L176.832404,167.314968 L176.852309,167.308552 L176.846338,167.323798 L178.86664,166.715731 L178.86664,166.716379 L178.844082,166.723972 L176.847665,167.323798 L176.856953,167.327919 L178.846736,166.723972 L178.872611,166.701015 L176.654591,175.543588 L176.655918,175.558304 L176.66587,175.567133 L176.67715,175.575374 L177.040738,175.422916 L178.970807,174.634784 L178.967489,174.634784 L177.032113,175.422916 L176.669188,175.570665 L178.976115,174.606471 L176.728901,184.145406 L176.728238,184.137753 L176.728901,184.137753 L176.728901,184.149526 L177.928477,183.456695 L178.65698,183.042292 L177.249071,192.108548 L177.249735,192.10737 L177.278264,192.086768 L177.274283,192.117377 L178.79034,190.975413 L177.548301,198.648355 L177.5556,198.643646 L177.554273,198.650709 L179,197.697699 L178.946258,204.948643 C176.402468,205.850383 173.890525,206.7098 171.302946,207 L171.302946,206.998823 C171.302946,206.998823 171.298301,206.998823 171.298965,206.998823 L171.348063,200.573212" id="Fill-94" stroke="none" fill="#E57C2C" fill-rule="evenodd" mask="url(#mask-4)"></path>
                                <path d="M175.823963,198.687541 L176.980338,191.00099 L176.967435,191.011596 L176.969892,190.995687 L175.567127,192.145871 L176.858679,183.106439 L176.854378,183.106439 L176.854378,183.076977 L176.842704,183.078745 L176.844547,183.067609 L176.171736,183.487673 L175.063902,184.169416 L176.987711,175.32561 L177.140092,174.621476 L177.161598,174.621476 L177.161598,174.617352 L175.001229,175.593712 L175.12596,175.033351 L177.066359,166.721623 L177.084793,166.720444 L177.083564,166.725747 L177.082949,166.725747 L177.067588,166.711016 L177.063902,166.723979 L177.044854,166.728693 L177.051613,166.697464 L175.173272,167.321462 L176.629493,158.769327 L176.623963,158.768148 L176.62212,158.765202 L176.620891,158.765791 L176.621505,158.764613 L176.619662,158.765791 L176.620276,158.764024 L175,159.939014 L175.895238,155 L182.579724,155 L182.571736,155.028872 L182.568664,155.03064 L182.568664,155.031288 L182.582796,155.035413 L182.587711,155.058923 L182.585868,155.058923 L182.584639,155.04543 L182.631951,155 L184.073425,155 L182.722273,162.609951 L182.725346,162.609362 L182.724731,162.612897 L184.252227,161.524583 L182.902304,169.533445 L182.893702,169.535802 L182.901075,169.540575 L182.917051,169.535213 L182.914593,169.548765 L182.915207,169.548176 L182.915207,169.548765 L184.698925,168.978976 L183.270353,175.268455 L182.811367,177.305435 L182.814439,177.307792 L182.814439,177.273027 L182.797235,177.273027 L182.801536,177.293061 L182.802765,177.297186 L182.808295,177.27892 L182.805837,177.273027 L183.269739,177.089186 L184.827343,176.442797 L184.824885,176.446333 L183.304147,177.091543 L184.843318,176.415103 L183.305376,183.586664 L182.91275,185.345527 L182.875883,185.345527 L182.875883,185.367328 L184.601229,184.344419 L184.568049,184.672033 L183.436252,192.887716 L183.437481,192.887716 L184.783717,191.808829 L183.728725,199.021637 L185,198.133662 L184.992627,202.637174 C182.104762,203.070849 179.566513,204.057816 177.108141,205 L177.16467,197.738875 L177.161598,197.740643 L177.161598,197.737108 L175.823963,198.687541" id="Fill-95" stroke="none" fill="#DFB550" fill-rule="evenodd" mask="url(#mask-4)"></path>
                                <path d="M169.25235,155.009907 L167.841482,162.960153 L167.843929,162.958956 L167.843317,162.962547 L169.451805,161.769592 L167.98832,170.4489 L167.980978,170.451294 L167.987096,170.455484 L168.000556,170.451294 L167.998721,170.462068 L167.999333,170.462068 L167.998721,170.462667 L169.873352,169.826982 L167.859225,178.801387 L167.834752,178.952826 L167.835363,178.952826 L167.845765,178.901947 L167.82741,178.888778 L167.819456,178.870821 L167.89471,178.843886 L169.963902,177.928069 L167.905112,187.632134 L167.908171,187.632134 L167.897158,187.597417 L167.880639,187.566889 L169.678792,186.432594 L168.402525,195.653012 L168.403749,195.653012 L169.816453,194.49597 L168.664386,202.319319 L170,201.352025 L169.950442,207.884252 C169.605985,207.926152 169.257856,207.958475 168.906669,207.975833 C161.907392,208.315823 159,204.956033 159,204.956033 C159,204.956033 160.492853,179.716605 161.080817,156.380639 C161.08877,156.0616 161.056955,155.928118 161.425886,155.413944 C161.794204,154.89977 162.540019,155.009907 162.540019,155.009907 L169.25235,155.009907" id="Fill-96" stroke="none" fill="#DFB550" fill-rule="evenodd" mask="url(#mask-4)"></path>
                                <path d="M231.692388,136.229091 C231.521425,135.826909 231.281235,135.496 230.97904,135.234182 C230.208504,134.567273 229.298309,134.581818 228.987687,134.654545 L222.866141,134.654545 L222.866141,134 L221,134 L221,138 L222.866141,138 L222.866141,136.690909 L229.049089,136.690909 L229.115307,136.678545 L229.201992,136.649455 C229.254364,136.643636 229.604115,136.608727 229.829256,136.810909 C230.065233,137.022618 230.132655,137.463273 230.148306,137.797818 L232,137.6968 C231.974717,137.143273 231.871176,136.648727 231.692388,136.229091" id="Fill-97" stroke="none" fill="#8B8695" fill-rule="evenodd" mask="url(#mask-4)"></path>
                                <path d="M221,138 C218.692986,138.49937 217,140.080192 217,141.952906 L217,151.127744 C217,152.908824 218.542416,154.425928 220.67242,155 L220.67242,141.751434 C220.67242,141.751434 220.467499,139.79619 221,138" id="Fill-98" stroke="none" fill="#708580" fill-rule="evenodd" mask="url(#mask-4)"></path>
                                <path d="M222.540706,138 C222.105769,138 221.692105,138.055699 221.294397,138.160638 C220.86596,139.9145 221.031425,141.823667 221.031425,141.823667 L221.031425,154.760021 C221.504184,154.915267 222.010035,155 222.544252,155 C225.010278,155 227,153.19992 227,150.979017 L227,142.02039 C227,139.800139 225.007323,138 222.540706,138" id="Fill-99" stroke="none" fill="#61928D" fill-rule="evenodd" mask="url(#mask-4)"></path>
                            </g>
                        </g>
                        <g id="Group" mask="url(#mask-2)">
                            <g transform="translate(19.000000, 12.000000)">
                                <path d="M42,69 L61,64 C61,64.0005906 61,64.0005906 61,64.0005906 L42,69" id="Fill-460" fill="#D2A962"></path>
                                <polyline id="Fill-461" fill="#E8B86B" points="30 19 29 16 30 19"></polyline>
                                <polyline id="Fill-462" fill="#D2A962" points="31 25 30 20 31 25"></polyline>
                                <path d="M42.3258009,69 L29,16.7339052 C29.4256715,16.5727118 29.852514,16.4126949 30.2898958,16.270327 C30.4146111,16.2291462 30.541083,16.1909069 30.6663838,16.1520792 C31.0686346,16.0255953 31.4726419,15.9038178 31.8836754,15.7943945 C34.4207243,15.1178526 36.9683125,14.7948774 39.4749144,14.7948774 C40.8813283,14.7948774 42.2754463,14.8966529 43.6473147,15.094909 L38.5170072,16.4150481 C37.9800874,16.5538863 37.6557105,17.1033559 37.7938927,17.6428245 C37.9098252,18.0987549 38.3179312,18.401728 38.7652668,18.401728 C38.8478248,18.401728 38.9315539,18.3911387 39.0152829,18.36996 L50.3690597,15.4472991 L50.0827414,16.7950882 C50.6530358,17.0162879 51.2186461,17.2492537 51.773717,17.505163 C52.509713,17.8451988 53.231071,18.2146495 53.93662,18.613515 L39.9925122,22.2027167 C39.4555924,22.3409666 39.131801,22.8904362 39.2688122,23.4304931 C39.3853302,23.8858352 39.7934362,24.1888083 40.2407718,24.1888083 C40.3233298,24.1888083 40.4070589,24.1788072 40.4907879,24.1570403 L56.2868886,20.0913178 C57.6230404,21.0208275 58.8848314,22.0621137 60.0564526,23.2057636 L41.4680172,27.9903853 C40.9310974,28.1286352 40.607306,28.6781048 40.7449027,29.2175734 C40.8608352,29.6735038 41.2689412,29.9764769 41.7168623,29.9764769 C41.7988348,29.9764769 41.8831494,29.9658875 41.9662929,29.9447088 L61.643206,24.8800576 C62.363393,25.7013206 63.0402516,26.5655293 63.6696833,27.4703305 C63.8599766,27.7433004 64.0455858,28.0198002 64.2265108,28.2998297 L42.9435222,33.7774656 C42.4066023,33.9157154 42.082811,34.4651851 42.2204077,35.005242 C42.3363402,35.4605841 42.7444462,35.7635572 43.1923673,35.7635572 C43.2743398,35.7635572 43.3586544,35.7535561 43.4417979,35.7317891 L65.3044491,30.1047257 C65.9444202,31.2683777 66.511787,32.4861531 66.9989378,33.7533454 L44.4190272,39.5651342 C43.8821073,39.703384 43.558316,40.2528537 43.6959127,40.7923223 C43.8118452,41.2482527 44.2199511,41.5512258 44.6678723,41.5512258 C44.7504303,41.5512258 44.8341594,41.5406364 44.9173029,41.5194577 L67.660573,35.6653115 C67.7835317,36.0630005 67.8988788,36.4653958 68.0060285,36.8719092 C68.2384791,37.752002 68.4287724,38.6332713 68.578665,39.5139523 L45.8951177,45.3522145 C45.3576123,45.4904643 45.033821,46.0405223 45.1714177,46.5799909 C45.2879357,47.035333 45.6954561,47.3383061 46.1433773,47.3383061 C46.2259353,47.3383061 46.3096644,47.328305 46.3933934,47.306538 L68.8509308,41.5265173 C68.9434426,42.4477908 68.9926261,43.3667112 68.9990668,44.2803368 C69.0025799,44.7139119 68.9961392,45.1463104 68.9803302,45.5775323 L47.3706227,51.139883 C46.8331173,51.2781329 46.509326,51.8276026 46.6469227,52.3670712 C46.7634407,52.8230015 47.1715467,53.1259746 47.6188823,53.1259746 C47.7014403,53.1259746 47.7851694,53.1153853 47.8688984,53.0942066 L68.826339,47.6995206 C68.7402679,48.4931336 68.6219933,49.2796871 68.4732718,50.0585927 C68.349142,50.7080728 68.202177,51.3516701 68.0341334,51.9882077 L48.8461277,56.9269633 C48.3092079,57.0652132 47.984831,57.6152711 48.1224277,58.1547397 C48.2389457,58.6106701 48.6470517,58.9136432 49.0943873,58.9136432 C49.1769453,58.9136432 49.2606744,58.9030539 49.3444034,58.8812869 L67.3443934,54.2484458 C67.1939153,54.6849624 67.0358254,55.1185375 66.8642687,55.5462296 C65.6241419,58.6406733 63.8623187,61.5033278 61.6742384,64.0200636 L42.3258009,69 M58.5639676,15.1360898 L54.7434636,14.3212981 L58.9656328,13.2347131 C58.9627052,13.2494205 58.9597777,13.2635396 58.9568501,13.278247 L58.5639676,15.1360898 M47.0819624,14.2106982 L47.3917014,12.7534859 L41.640745,11.5268861 L52.1607443,8.81895371 C53.7849708,8.40067435 54.7645422,6.73873455 54.348239,5.10679791 L53.5560334,2 C54.7499043,2.59947492 55.7944681,3.42132622 56.6493242,4.40142947 C57.2945649,5.14209574 57.8314847,5.9721832 58.2425183,6.86580676 C58.3110239,7.01464597 58.3760164,7.16525007 58.4374957,7.31761906 C58.6834132,7.92650674 58.8713645,8.5612795 58.9966653,9.21428948 C59.0282832,9.37724782 59.0558026,9.54138276 59.0792233,9.7066943 C59.1442158,10.1638013 59.1787613,10.6279678 59.1805179,11.0968408 L47.0819624,14.2106982" id="Fill-463" fill="#DBDCD6"></path>
                                <path d="M38.9836211,18 C38.5450255,18 38.1448931,17.7096722 38.0312257,17.2727712 C37.8957433,16.7558186 38.2137825,16.2292824 38.7402121,16.096239 L43.7702838,14.8311992 C44.2174906,14.8943384 44.6624011,14.967625 45.1044412,15.051059 C45.6825377,15.1604252 46.2543195,15.2923411 46.8226567,15.4355319 L47.1378256,13.983893 L59,11 C59,11.0383345 59,11.0766691 59,11.1150036 C58.9954074,11.753161 58.926518,12.4003382 58.7893134,13.048643 L54.6496366,14.0898768 L52.6610303,13.6755255 L50.7711654,13.281469 L50.3606996,15.1688814 L39.2287525,17.9695579 C39.1466593,17.9898526 39.0645662,18 38.9836211,18" id="Fill-464" fill="#BEBFBB"></path>
                                <path d="M40.0004669,24 C39.5544299,24 39.1475088,23.6739475 39.031329,23.183919 C38.8947155,22.6027224 39.2175669,22.011396 39.7529281,21.8626148 L53.6565544,18 C54.459888,18.4900285 55.2422042,19.0212092 56,19.5903767 L40.2497572,23.965812 C40.1662712,23.9892371 40.0827852,24 40.0004669,24" id="Fill-465" fill="#BEBFBB"></path>
                                <path d="M41.0069712,30 C40.5575511,30 40.1480793,29.6867669 40.0317588,29.2153966 C39.8937017,28.6576592 40.2185766,28.0895821 40.7572933,27.9466504 L59.4079364,23 C59.9589902,23.5540881 60.4900697,24.1312886 61,24.7309931 L41.2572366,29.9671561 C41.1738148,29.989052 41.089218,30 41.0069712,30" id="Fill-466" fill="#BEBFBB"></path>
                                <path d="M42.9985895,35 C42.5529101,35 42.1468468,34.7158509 42.0314945,34.2887996 C41.8945865,33.7822968 42.2167573,33.2669662 42.7509898,33.1373059 L63.9274567,28 C64.0096015,28.1191771 64.0905812,28.2394577 64.1703956,28.3597383 C64.459359,28.7950658 64.7360879,29.239773 65,29.6927564 L43.2467717,34.9702057 C43.1640443,34.9906203 43.0801517,35 42.9985895,35" id="Fill-467" fill="#BEBFBB"></path>
                                <path d="M44.0037667,41 C43.5557768,41 43.1476081,40.6891739 43.0316578,40.2214259 C42.8940399,39.6679743 43.2178811,39.1042625 43.7548834,38.9624293 L66.3382632,33 C66.578948,33.6415692 66.7997221,34.2958129 67,34.961524 L44.2532357,40.9674085 C44.1700794,40.9891362 44.0863374,41 44.0037667,41" id="Fill-468" fill="#BEBFBB"></path>
                                <path d="M46.0158358,47 C45.5624583,47 45.1499737,46.6902256 45.0320363,46.2246617 C44.8927634,45.6730827 45.220499,45.1106767 45.764552,44.9693233 L68.7244176,39 C68.8399844,39.6869173 68.9312526,40.3732331 69,41.0577444 L46.2688974,46.9675188 C46.1841484,46.9897744 46.0993995,47 46.0158358,47" id="Fill-469" fill="#BEBFBB"></path>
                                <path d="M46.9872287,53 C46.5471948,53 46.1457502,52.6789027 46.0311341,52.1956979 C45.8957833,51.6239576 46.2142896,51.041618 46.7430214,50.8950978 L68,45 C67.9746577,45.7544229 67.9239732,46.5044813 67.8485224,47.2489284 L47.2331639,52.9663315 C47.1508015,52.9887772 47.0684392,53 46.9872287,53" id="Fill-470" fill="#BEBFBB"></path>
                                <path d="M49.0064266,59 C48.5578197,59 48.1485539,58.6937649 48.0317047,58.2329256 C47.8937169,57.6876487 48.2190157,57.1316684 48.7574615,56.99193 L68,52 C67.8314788,52.6439857 67.641819,53.2808359 67.4333695,53.9105505 C67.3922667,54.035423 67.3505768,54.1602956 67.3082997,54.2845736 L49.2571533,58.9672953 C49.1731863,58.9892966 49.0892193,59 49.0064266,59" id="Fill-471" fill="#BEBFBB"></path>
                                <path d="M41.0418264,12 L38,11.335071 L38.3970434,9.40799689 C39.3606143,4.73519299 43.1757864,1.43921917 47.5693381,1.0390417 L47.5699307,1.0390417 C47.7957121,1.0183008 48.0238639,1.00793035 48.2532009,1.00244011 L48.3817955,1 C48.4214998,1 48.4617968,1 48.5015011,1 C48.6946894,1 48.8884703,1.00427019 49.0828437,1.01586069 L49.0893624,1.01647072 C49.3139586,1.03050133 49.5391473,1.0549024 49.7649287,1.08418367 C49.8212259,1.09150399 49.8769305,1.09943434 49.9332277,1.10736469 C50.1631573,1.14152618 50.3924943,1.17995785 50.6230165,1.23059006 C51.5030306,1.42274845 52.3326735,1.72532165 53.1012783,2.12122893 L53.9030689,5.3427795 C54.324409,7.03499335 53.3329857,8.75831854 51.6891076,9.19204747 L41.0418264,12" id="Fill-472" fill="#BEBFBB"></path>
                                <path d="M20.012012,61.648 C20.0084084,61.648 20.0042042,61.648 20,61.648 C20.0042042,61.648 20.0084084,61.648 20.012012,61.648 M20.021021,61.648 C20.3687688,61.645 20.7207207,61.428 21,61 C20.7207207,61.428 20.3687688,61.645 20.021021,61.648" id="Fill-494" fill="#D2A962"></path>
                                <path d="M19.2414605,60 C19.237927,60 19.2343934,60 19.2308598,60 C19.2343934,60 19.237927,60 19.2414605,60 M19.245583,60 C19.5023557,59.9994356 19.7644287,59.9317079 20,59.7917372 C19.7644287,59.9317079 19.5023557,59.9994356 19.245583,60 M18.147232,59.4745457 C18.1460542,59.4728525 18.1448763,59.4711593 18.1436985,59.4694661 C18.1448763,59.4711593 18.1460542,59.4728525 18.147232,59.4745457 M18.130742,59.4519697 C18.1277974,59.448019 18.1248528,59.4440682 18.1224971,59.4401174 L15,55 L18.1224971,59.4401174 C18.1248528,59.4440682 18.1277974,59.448019 18.130742,59.4519697" id="Fill-501" fill="#00A49E"></path>
                                <path d="M18.4795827,59 C18.4754098,59 18.471237,59 18.466468,59 C18.471237,59 18.4754098,59 18.4795827,59 M18.4837556,59 C18.6554396,58.999407 18.8301043,58.9685709 19,58.9045266 C18.8301043,58.9685709 18.6554396,58.999407 18.4837556,59 M17.2229508,58.2196086 C17.2217586,58.2166436 17.2205663,58.2142716 17.2193741,58.2118996 C17.2205663,58.2142716 17.2217586,58.2166436 17.2229508,58.2196086 M17.2140089,58.1994465 C17.2110283,58.1929235 17.2080477,58.1864005 17.2056632,58.1798774 L15,53 L17.2056632,58.1798774 C17.2080477,58.1864005 17.2110283,58.1929235 17.2140089,58.1994465" id="Fill-509" fill="#DB7B30"></path>
                                <path d="M19,57.573 C19.0235208,57.567 19.0463065,57.561 19.0698273,57.555 L21,57 L19.0698273,57.555 C19.0463065,57.561 19.0235208,57.567 19,57.573" id="Fill-516" fill="#00AC99"></path>
                                <path d="M18.7302435,58 C18.819308,58 18.909654,57.9924277 19,57.977283 C18.909654,57.9924277 18.819308,58 18.7302435,58 M17.2622811,56.8830794 C17.2603588,56.874876 17.2584366,56.8660416 17.2565143,56.8572072 L16,51 L17.2565143,56.8572072 C17.2584366,56.8660416 17.2603588,56.874876 17.2622811,56.8830794" id="Fill-517" fill="#00A992"></path>
                                <path d="M19.0109529,55.043 C19.0073019,55.043 19.003651,55.043 19,55.043 C19.003651,55.043 19.0073019,55.043 19.0109529,55.043 M19.0116831,55.043 C19.0211756,55.043 19.0306681,55.043 19.0401606,55.043 L21,55 L19.0401606,55.043 C19.0306681,55.043 19.0211756,55.043 19.0116831,55.043" id="Fill-525" fill="#BD85AE"></path>
                                <polyline id="Fill-533" fill="#AF3D2B" points="21.4194866 36 6 18.3542387 8.58051342 16 24 33.6451651 21.4194866 36"></polyline>
                                <polyline id="Fill-534" fill="#AF3D2B" points="42.2937167 30 47 6.74198382 43.7068513 6 39 29.2580162 42.2937167 30"></polyline>
                                <path d="M63.0072168,34.9393252 C67.1826979,50.6835505 57.8045277,66.8311741 42.0608245,71.0072232 C26.3165366,75.1826877 10.1682642,65.8045548 5.99278317,50.0603294 C1.81730214,34.3161041 11.1954723,18.1684805 26.9391755,13.993016 C42.6834634,9.81696695 58.8317358,19.1950998 63.0072168,34.9393252" id="Fill-535" fill="#E05936"></path>
                                <path d="M27.6057025,14.0034778 C27.0624064,14.1476316 26.5279588,14.3089185 26,14.4814305 C41.3550466,11.3029562 56.6918064,20.6646856 60.7609232,36.0306593 C64.8294502,51.3960423 56.1414315,67.1395338 41.2317579,72 C41.7756439,71.8871583 42.3195299,71.7625006 42.8634159,71.617756 C58.7487809,67.3983018 68.2113358,51.0805581 63.9982838,35.1704626 C59.7852318,19.2603671 43.4916574,9.78343274 27.6057025,14.0034778" id="Fill-536" fill="#DE4D2A"></path>
                                <path d="M57.2089691,36.4770063 C60.5356512,49.0189981 53.0647176,61.8825496 40.5226436,65.2092098 C27.9811511,68.5352886 15.1169338,61.064404 11.7908332,48.5229937 C8.46473266,35.9810019 15.9350848,23.1174504 28.4771588,19.7907902 C41.0192328,16.4647114 53.8828686,23.935596 57.2089691,36.4770063" id="Fill-537" fill="#FDE7DA"></path>
                                <path d="M29.2066498,19.7990239 C26.142873,20.6127623 23.3824811,21.9952362 21,23.7966239 C22.4095368,23.0962801 23.9094437,22.5263694 25.4897445,22.1068682 C38.1462352,18.7461581 51.1278231,26.2942425 54.4850089,38.9668223 C57.0294517,48.5718729 53.3107861,58.3590598 45.8517424,64 C55.7319971,59.089368 61.139525,47.749909 58.2019141,36.6589781 C54.8453151,23.9869858 41.8631405,16.4383138 29.2066498,19.7990239" id="Fill-538" fill="#F1AE94"></path>
                                <path d="M30.58935,24.983414 C30.295158,25.0531941 29.9927733,24.8963552 29.9145703,24.6338494 L29.018588,21.6186879 C28.9403851,21.3561821 29.1161555,21.086366 29.4103475,21.016586 C29.7052844,20.9468059 30.0069243,21.1036448 30.0851272,21.3661506 L30.9811096,24.3813121 C31.0600573,24.6438179 30.8842869,24.913634 30.58935,24.983414" id="Fill-539" fill="#CC947D"></path>
                                <path d="M21.8629022,29.8654808 C21.6813593,30.0457722 21.3877605,30.0445245 21.2068436,29.8636092 L19.1347503,27.7880747 C18.9544594,27.6071594 18.9550854,27.3145758 19.1366283,27.1342844 C19.3181712,26.9546168 19.61177,26.9552407 19.7926869,27.1361559 L21.8647802,29.2116905 C22.0456971,29.3926057 22.0450711,29.6851894 21.8629022,29.8654808" id="Fill-540" fill="#CC947D"></path>
                                <path d="M16.9827099,38.5954564 C16.9115298,38.8870934 16.6407792,39.0598606 16.3780115,38.9808602 L13.3644977,38.0749396 C13.1017299,37.9966776 12.946065,37.6961807 13.0172451,37.4045436 C13.0884252,37.1129066 13.3591758,36.9401394 13.6219436,37.0191398 L16.6354573,37.924322 C16.8988903,38.0033224 17.05389,38.3038193 16.9827099,38.5954564" id="Fill-541" fill="#CC947D"></path>
                                <path d="M16.9833708,48.4102574 C17.0531501,48.7051295 16.8969774,49.0074478 16.6338097,49.0856336 L13.6193434,49.9814192 C13.3561757,50.059605 13.0863623,49.8838731 13.016583,49.5890011 C12.9468037,49.2948736 13.103641,48.9925553 13.3668087,48.9143695 L16.381275,48.0185839 C16.6444427,47.9403981 16.9135915,48.11613 16.9833708,48.4102574" id="Fill-542" fill="#CC947D"></path>
                                <path d="M21.8651809,56.1365494 C22.0454583,56.3180924 22.0448345,56.6123173 21.8639333,56.7926083 L19.7885589,58.8647026 C19.6076577,59.0456196 19.3144728,59.0449936 19.1348191,58.8634506 C18.9545417,58.6819076 18.9551655,58.3876827 19.1360667,58.2073917 L21.2120649,56.1352974 C21.3929661,55.9543804 21.6855272,55.9550064 21.8651809,56.1365494" id="Fill-543" fill="#CC947D"></path>
                                <path d="M30.5961522,61.0172451 C30.8877815,61.0884252 31.0598059,61.3591756 30.9808075,61.6219431 L30.0756494,64.6361199 C29.996651,64.8988874 29.6961622,65.053887 29.4045329,64.982707 C29.1129036,64.9115269 28.940141,64.6407765 29.0191393,64.378009 L29.9250358,61.3644974 C30.0040341,61.1017299 30.3037847,60.946065 30.5961522,61.0172451" id="Fill-544" fill="#CC947D"></path>
                                <path d="M40.4107982,61.016586 C40.7049628,60.9468059 41.0073193,61.1036448 41.085515,61.3661506 L41.9814137,64.3813121 C42.0596094,64.6438179 41.8838553,64.913634 41.5896907,64.983414 C41.2947814,65.0531941 40.9931696,64.8963552 40.914974,64.6338494 L40.0183305,61.6186879 C39.9408795,61.3561821 40.1158889,61.086366 40.4107982,61.016586" id="Fill-545" fill="#CC947D"></path>
                                <path d="M48.1368747,56.1345192 C48.3184317,55.9542278 48.6120533,55.9554755 48.7929843,56.1363908 L50.8652392,58.2119253 C51.0455442,58.3928406 51.0449181,58.6854242 50.863361,58.8657156 C50.681804,59.0453832 50.3881823,59.0447593 50.2072513,58.8638441 L48.1349965,56.7883095 C47.9540655,56.6073943 47.9553176,56.3148106 48.1368747,56.1345192" id="Fill-546" fill="#CC947D"></path>
                                <path d="M53.0172453,48.4045335 C53.0884262,48.1129038 53.3591799,47.9401409 53.6219506,48.0191393 L56.6354982,48.9250373 C56.8982689,49.0040357 57.0539356,49.3037868 56.9827547,49.5954165 C56.9115738,49.8877846 56.6408201,50.0598092 56.3780494,49.9808108 L53.3645018,49.0756511 C53.1017311,48.9966527 52.9460644,48.6961633 53.0172453,48.4045335" id="Fill-547" fill="#CC947D"></path>
                                <path d="M53.0166292,38.5897426 C52.9468499,38.2948705 53.1030226,37.9925522 53.3661903,37.9143664 L56.3806566,37.0185808 C56.6438243,36.940395 56.9136377,37.1161269 56.983417,37.4109989 C57.0531963,37.7051264 56.896359,38.0074447 56.6331913,38.0856305 L53.618725,38.9814161 C53.3555573,39.0596019 53.0864085,38.88387 53.0166292,38.5897426" id="Fill-548" fill="#CC947D"></path>
                                <path d="M48.1348191,29.8633752 C47.9545417,29.681837 47.9551655,29.3882458 48.1360667,29.2073336 L50.2114411,27.1352938 C50.3923423,26.9543816 50.6855272,26.9550076 50.8651809,27.1365458 C51.0454583,27.3187101 51.0448345,27.6123012 50.8639333,27.7925874 L48.7885589,29.8652532 C48.6070339,30.0455394 48.3144728,30.0449134 48.1348191,29.8633752" id="Fill-549" fill="#CC947D"></path>
                                <path d="M40.4038478,24.9827547 C40.1122185,24.9115738 39.9401941,24.6408201 40.0191925,24.3780494 L40.9243506,21.3645018 C41.003349,21.1017311 41.3038378,20.9460644 41.5954671,21.0172453 C41.8870964,21.0884262 42.059859,21.3591799 41.9808607,21.6219506 L41.0749642,24.6354982 C40.9959659,24.8982689 40.6962153,25.0539356 40.4038478,24.9827547" id="Fill-550" fill="#CC947D"></path>
                                <path d="M32.0427128,56.9778875 C31.9375901,57.0064708 31.8237071,57.0082573 31.7109922,56.9778875 C31.3646712,56.8843962 31.1573457,56.5223405 31.2490361,56.1686216 L34.6001155,43.2298955 L25.1016919,28.0176027 C24.9089668,27.7097363 24.9983212,27.3000418 25.3008411,27.1041268 C25.604529,26.9070208 26.0045794,26.9981302 26.1967204,27.3065921 L36,43.0071836 L32.5046689,56.5068578 C32.4427633,56.7450524 32.2611345,56.9189344 32.0427128,56.9778875" id="Fill-551" fill="#CC947D"></path>
                                <path d="M54.3693889,14 L34,9.81536446 L34.4009722,7.98570859 C35.5955104,2.54191766 41.1235408,-0.933791389 46.7479243,0.22168929 C52.3729063,1.37716997 55.9648992,6.72713239 54.7709595,12.1709233 L54.3693889,14" id="Fill-552" fill="#E05936"></path>
                                <path d="M46.992496,0.221043848 C45.9831892,0.00731335027 44.9773667,-0.0471329013 44,0.0391701996 C47.7799644,2.13129638 49.9211119,6.50553139 48.9768467,10.9423217 L48.5871776,12.7720633 L54.3880787,14 L54.7777478,12.1708376 C55.9363019,6.72679169 52.450767,1.37657866 46.992496,0.221043848" id="Fill-553" fill="#DE4B2A"></path>
                                <path d="M3.82727339,27 L19,13.725041 L17.7462149,12.3420774 C14.0140582,8.22645576 7.59213246,7.86164247 3.40214272,11.5275571 C-0.78784702,15.1934718 -1.15866841,21.5014148 2.5734883,25.6170364 L3.82727339,27" id="Fill-554" fill="#E05936"></path>
                                <path d="M3.28684278,11.7069799 C4.03550924,10.9930201 4.85808324,10.4252349 5.72409909,10 C3.5446729,13.8434228 3.84932994,18.9087919 6.788142,22.4411409 L8,23.8974497 L3.6975656,28 L2.48627178,26.5436913 C-1.11940069,22.2097987 -0.761146578,15.5673154 3.28684278,11.7069799" id="Fill-555" fill="#DE4B2A"></path>
                            </g>
                        </g>
                        <g id="Girl" mask="url(#mask-2)">
                            <g transform="translate(111.000000, 2.000000)">
                                <path d="M14.6797943,15.3309857 C14.7052943,15.3064857 14.7307943,15.2804857 14.7567943,15.2559857 C14.7157943,15.2354857 14.6707943,15.2189857 14.6322943,15.1954857 C14.6507943,15.2394857 14.6667943,15.2849857 14.6797943,15.3309857" id="Fill-76" fill="#FFFFFE"></path>
                                <path d="M20.0733401,11.6263866 C20.1153401,11.6078866 20.1573401,11.5883866 20.1988401,11.5698866 C20.1538401,11.5308866 20.1138401,11.4873866 20.0748401,11.4428866 C20.0798401,11.5028866 20.0748401,11.5648866 20.0733401,11.6263866" id="Fill-77" fill="#FFFFFE"></path>
                                <path d="M50.2948529,88.5988229 L49.4933468,89.08055 L49.5979955,88.1510638 L48.8918742,87.5386116 L49.807636,87.3512733 L50.1730487,86.490066 L50.6341891,87.3032378 L51.5657341,87.384555 L50.9347539,88.0745501 L51.1457668,88.9851653 L50.2948529,88.5988229 Z M48.493523,95.4987744 L47.642609,95.1127751 L46.841103,95.5945022 L46.9457516,94.6650159 L46.2396303,94.0522206 L47.1553921,93.8648823 L47.5208048,93.0036751 L47.9819452,93.81719 L48.9134902,93.898164 L48.28251,94.5885023 L48.493523,95.4987744 Z M41.3444733,84.2217627 L41.3129072,85.1557094 L40.5910027,84.5624714 L39.6920533,84.8211767 L40.0334482,83.9503623 L39.5095186,83.175962 L40.4424359,83.2315459 L41.0178322,82.4942015 L41.253549,83.3989838 L42.1322549,83.7180766 L41.3444733,84.2217627 Z M38.8785384,74.3031254 L37.948709,74.3995395 L38.4376415,73.6031801 L38.0585044,72.7481488 L38.9677471,72.9673964 L39.663232,72.3422491 L39.7359715,73.2741371 L40.5450259,73.7431691 L39.6807307,74.1003471 L39.4848146,75.0143934 L38.8785384,74.3031254 Z M38.234177,92.2941226 L37.8159253,93.1306259 L37.4062514,92.2893191 L36.4819118,92.1503593 L37.1544083,91.5015374 L37.0017242,90.5789134 L37.8269048,91.0184379 L38.656889,90.5878343 L38.4939116,91.5087428 L39.159889,92.1644269 L38.234177,92.2941226 Z M47.0833389,79.7074583 L47.1255415,78.7731685 L47.8409268,79.3753274 L48.7426211,79.1276017 L48.3909329,79.9939556 L48.9052555,80.774875 L47.9726813,80.7083116 L47.3890504,81.4384506 L47.1646561,80.5312666 L46.2893813,80.2018805 L47.0833389,79.7074583 Z M47.8203402,71.8155745 L48.1857529,70.9540242 L48.6468933,71.7675391 L49.5780951,71.8488563 L48.9474581,72.5388514 L49.1581279,73.4494666 L48.3075571,73.0627811 L47.506051,73.5448513 L47.6106997,72.615365 L46.9045784,72.0029129 L47.8203402,71.8155745 Z M33.7524681,78.6259742 L34.0492586,79.5125716 L33.165063,79.2089188 L32.413651,79.7651009 L32.429091,78.8308111 L31.6677289,78.2876672 L32.5618748,78.013522 L32.8425391,77.1214348 L33.379507,77.8869142 L34.314483,77.8786796 L33.7524681,78.6259742 Z M31.0895878,86.8808688 L30.8168149,87.7753578 L30.2729849,87.0146819 L29.3383519,87.0318374 L29.8931616,86.2797393 L29.5881364,85.3958867 L30.47542,85.6913048 L31.2216853,85.1279175 L31.2148231,86.0628935 L31.9809887,86.5984889 L31.0895878,86.8808688 Z M26.7351729,74.2379344 L26.1024772,74.926214 L25.9412152,74.0056486 L25.0906444,73.6169045 L25.9165113,73.1784093 L26.0235617,72.2496093 L26.6957151,72.8994605 L27.6121632,72.7141809 L27.2018031,73.5544584 L27.6608849,74.3690026 L26.7351729,74.2379344 Z M26.1573748,94.9298972 L25.7147623,95.7537054 L25.3301355,94.901419 L24.4105995,94.7350105 L25.101967,94.1064321 L24.9757024,93.1796907 L25.7878449,93.643233 L26.6298379,93.2369902 L26.440441,94.1524089 L27.0868611,94.8276503 L26.1573748,94.9298972 Z M22.9945826,82.35284 L23.3099011,81.4731048 L22.7636692,80.7141444 L23.6983021,80.7419364 L24.2510531,79.9877796 L24.5135326,80.8850135 L25.4015025,81.1780298 L24.6284746,81.7047044 L24.6243573,82.6396804 L23.8849542,82.0677152 L22.9945826,82.35284 Z M19.430008,88.3946722 L18.8388286,89.1189784 L18.6236984,88.2093925 L17.7518547,87.8714287 L18.5506158,87.3852412 L18.6027686,86.4516376 L19.3116348,87.0606587 L20.2157309,86.8221969 L19.8554649,87.6851197 L20.3615529,88.4711858 L19.430008,88.3946722 Z M20.5015419,70.4427896 L20.1464226,71.3077711 L19.6760182,70.4997459 L18.743787,70.4294083 L19.3668756,69.7322078 L19.1459125,68.8236513 L20.0012869,69.2007297 L20.79696,68.7097386 L20.7026047,69.6402542 L21.4152451,70.245158 L20.5015419,70.4427896 Z M18.7091329,78.3964333 L17.8414065,78.0485192 L17.0628889,78.5659298 L17.1256781,77.6336987 L16.3927941,77.0528127 L17.2996351,76.8243011 L17.6252469,75.947997 L18.1227571,76.7392097 L19.0567038,76.7783243 L18.4576329,77.4961114 L18.7091329,78.3964333 Z M11.1987879,81.8982187 L10.7266679,82.7048714 L10.3736072,81.8392037 L9.46024719,81.6395134 L10.1746032,81.0363252 L10.0823065,80.1058096 L10.8769503,80.5985162 L11.733354,80.2234965 L11.5103322,81.1313668 L12.1317053,81.8299397 L11.1987879,81.8982187 Z M11.9313288,91.4394344 L11.0316931,91.1851896 L10.3121905,91.7818587 L10.2761639,90.847912 L9.48598047,90.3480001 L10.3633139,90.02479 L10.5945704,89.1189784 L11.1730546,89.8535779 L12.105972,89.7938767 L11.5858165,90.5706788 L11.9313288,91.4394344 Z M53.3529965,76.8229287 L53.7184091,75.9617214 L54.1795496,76.7748932 L55.1107514,76.8562104 L54.4801143,77.5462055 L54.6907842,78.4568207 L53.8402133,78.0704783 L53.0387073,78.5522054 L53.143356,77.6227192 L52.4372346,77.010267 L53.3529965,76.8229287 Z M59.8703797,74.3398382 L60.7727603,74.5837898 L61.4860869,73.9781998 L61.5327499,74.9121465 L62.3284231,75.4031376 L61.4548639,75.7362978 L61.2345869,76.6445112 L60.647868,75.917117 L59.7152938,75.9877978 L60.2261853,75.2044766 L59.8703797,74.3398382 Z M67.6315384,70.71419 L67.8792642,69.8121525 L68.4447102,70.5567023 L69.3783138,70.5134703 L68.844777,71.2810084 L69.1751924,72.155597 L68.2803603,71.8855691 L67.5502213,72.4698862 L67.530664,71.5349102 L66.7490583,71.0216169 L67.6315384,70.71419 Z M51.0805759,79.4291958 C51.0805759,79.4291958 61.4504034,84.3257252 67.3223959,77.3420548 C71.9581614,71.8286127 69.4887954,64.0647092 68.577494,61.716118 C68.4721591,61.7809659 68.3424633,61.8447845 68.182917,61.905515 C66.6495563,62.4912046 65.7684486,62.5831582 65.2846629,62.4074856 C65.6281164,63.4402481 67.4225842,69.3812058 64.1053922,71.7229347 C59.9403743,74.6623621 50.2776974,70.7272282 47.1162775,65.8704995 C47.1162775,68.5529371 41.5692107,70.7272282 34.7262156,70.7272282 C27.9511563,70.7272282 22.4497232,68.5954828 22.3409571,65.9501012 C18.796626,67.7068267 7.5851485,74.4534078 6.14991743,90.0659633 C8.56953242,91.444238 11.1010014,92.6478695 13.7271689,93.6617609 C13.9172521,91.0935791 15.0254989,83.0346005 21.5013658,76.4005597 L21.8949135,76.8665037 C15.6204525,83.3742799 14.1104233,91.183474 13.7762337,93.680632 C20.0740263,96.1060799 26.9142765,97.4387209 34.0664141,97.4387209 C41.7483143,97.4387209 49.0702916,95.9022723 55.7461919,93.1247931 C55.9801933,88.9268365 51.0805759,79.4291958 51.0805759,79.4291958 Z" id="Fill-80" fill="#76B3C3"></path>
                                <path d="M34.7262156,70.7272282 C41.5692107,70.7272282 47.1162775,68.5529371 47.1162775,65.8704995 C47.1162775,65.0206149 46.5583799,64.22254 45.5798289,63.5277413 C45.1876536,63.7010121 44.7906748,63.8660482 44.3885494,64.0221635 C44.5096673,64.2664581 44.5748583,64.5183012 44.5748583,64.7763203 C44.5748583,65.6231169 43.890353,66.4064381 42.7292671,67.0483978 L42.7299534,67.0497702 C42.7299534,67.0497702 40.6438417,68.3707455 36.2221772,68.6538116 C36.05371,68.6647912 35.8842134,68.6743982 35.7133444,68.6822898 C35.6234494,68.686064 35.5342407,68.6901813 35.4422871,68.6932693 C35.1451534,68.7035626 34.8449318,68.7097386 34.5405928,68.7097386 C34.2925239,68.7097386 34.0468568,68.7052782 33.8029053,68.6980729 C33.708893,68.6956711 33.615567,68.6932693 33.5236134,68.6898382 C33.4899886,68.6884658 33.45705,68.6864071 33.4237682,68.6850347 C29.2429672,68.515195 27.1664627,67.4433179 27.1664627,67.4433179 C25.5157583,66.7420001 24.5063273,65.8056517 24.5063273,64.7763203 C24.5063273,64.6301552 24.5282863,64.4857057 24.5680872,64.3433149 C24.173167,64.2050413 23.7823642,64.0592194 23.396708,63.9044766 C22.7166631,64.5056061 22.3358105,65.1705542 22.3358105,65.8704995 C22.3358105,65.8972621 22.3399278,65.9233385 22.3409571,65.9501012 C22.4497232,68.5954828 27.9511563,70.7272282 34.7262156,70.7272282" id="Fill-81" fill="#8BC7DD"></path>
                                <path d="M41.849875,64.8782241 L42.7292671,67.0483978 C43.890353,66.4064381 44.5748583,65.6231169 44.5748583,64.7763203 C44.5748583,64.5183012 44.5096673,64.2664581 44.3885494,64.0221635 C43.5702309,64.3395406 42.7313258,64.6198619 41.874579,64.8620979 C41.8660012,64.8675876 41.8587959,64.8727343 41.849875,64.8782241" id="Fill-82" fill="#76B3C3"></path>
                                <path d="M27.4584497,65.1859942 C26.471664,64.9550808 25.5078667,64.6723578 24.5680872,64.3433149 C24.5282863,64.4857057 24.5063273,64.6301552 24.5063273,64.7763203 C24.5063273,65.8056517 25.5157583,66.7420001 27.1664627,67.4433179 L27.4584497,65.1859942" id="Fill-83" fill="#76B3C3"></path>
                                <path d="M36.2221772,68.6538116 C36.0550824,68.6693116 35.8869583,68.6843116 35.7133444,68.6953116 C35.8842134,68.6838116 36.05371,68.6698116 36.2221772,68.6538116" id="Fill-84" fill="#76B3C3"></path>
                                <path d="M34.5405928,68.7150729 C34.2866911,68.7150729 34.0437689,68.7075729 33.8029053,68.6980729 C34.0468568,68.7085729 34.2925239,68.7150729 34.5405928,68.7150729" id="Fill-85" fill="#76B3C3"></path>
                                <path d="M35.4422871,68.6932693 C35.149957,68.7072693 34.8514509,68.7172693 34.5405928,68.7172693 C34.8449318,68.7172693 35.1451534,68.7082693 35.4422871,68.6932693" id="Fill-86" fill="#76B3C3"></path>
                                <path d="M33.5692682,68.6920347 C33.5197682,68.6900347 33.4732682,68.6870347 33.4237682,68.6850347 C33.4722682,68.6870347 33.5202682,68.6900347 33.5692682,68.6920347" id="Fill-87" fill="#76B3C3"></path>
                                <path d="M34.0399946,65.943239 C31.7727207,65.943239 29.5723533,65.679387 27.4690861,65.1883959 C27.6869613,65.3177486 34.7389107,69.4405639 41.849875,64.8782241 C41.8587959,64.8727343 41.8660012,64.8675876 41.874579,64.8620979 C39.3952628,65.5630726 36.7656642,65.943239 34.0399946,65.943239" id="Fill-88" fill="#E8C0A1"></path>
                                <path d="M60.7755051,43.6208152 C60.4094063,46.8113995 59.3955148,49.8204782 57.8624973,52.5372269 C59.6175073,49.5065322 60.9000542,46.614454 61.7166571,43.8222211 C61.362224,43.8760894 61.0314655,43.8181038 60.7755051,43.6208152" id="Fill-89" fill="#E46B7D"></path>
                                <path d="M57.2986304,53.6083073 C57.3686304,53.4933073 57.4316304,53.3803073 57.5006304,53.2653073 C57.4306304,53.3803073 57.3596304,53.4943073 57.2881304,53.6083073 L57.2986304,53.6083073" id="Fill-90" fill="#E46B7D"></path>
                                <path d="M6.96823589,39.2588519 L9.71380582,42.8302887 C10.0349572,37.5323201 14.4497596,31.9934878 14.4497596,31.9934878 L12.9246335,36.9703051 C33.0212997,37.7711249 34.0327893,28.9953886 34.0475431,27.3577223 C34.364234,39.1816521 56.0306305,36.8903604 56.0306305,36.8903604 C55.6295344,35.6057548 53.7029691,31.1909525 53.7029691,31.1909525 C57.7166753,34.7229316 59.8034732,41.3885386 59.8034732,41.3885386 L61.4504034,39.1212646 C61.7959157,38.9840204 62.2299504,38.8996153 62.6701611,39.0399474 C63.4356406,31.739243 60.8612828,24.9792806 55.2009894,17.9194397 C54.8149901,17.4373695 54.4252167,16.9865223 54.0337276,16.5590067 C53.9911819,16.5840538 53.9462345,16.6073853 53.898199,16.625227 C53.4617625,16.7858027 52.9776336,16.5620947 52.8167148,16.1256582 C52.7402012,15.9177332 52.7528963,15.6998581 52.8324979,15.5104611 C52.7683362,15.5492326 52.7000572,15.5832005 52.6269747,15.6103063 C52.0169243,15.8350436 51.3403105,15.5228131 51.11523,14.9124196 C51.0723412,14.7954189 51.0544995,14.6763596 51.0493528,14.5579865 C50.9923965,14.5696522 50.9378419,14.5878371 50.8788269,14.5940131 C49.894443,14.7014066 49.0099042,13.9901387 48.9028537,13.0060978 C48.9018244,12.9985494 48.9031968,12.9913441 48.9025106,12.9841388 C48.8338885,13.0047254 48.7635509,13.0211947 48.6897821,13.0290862 C48.0437051,13.0994239 47.462476,12.6324505 47.3921384,11.9860304 C47.3835606,11.9084875 47.3839037,11.8323169 47.3900797,11.757862 C47.2559235,11.913291 47.0665265,12.0217139 46.8459065,12.0457316 C46.3837367,12.0958258 45.9682299,11.7619793 45.9177927,11.2998095 C45.9071563,11.1999644 45.9171065,11.1032072 45.9394087,11.0109105 C39.0634749,8.60090259 33.270741,11.4974411 33.270741,11.4974411 C32.8641551,11.0843361 27.6588262,8.8997518 21.5463133,10.9862065 C21.4951898,11.4476901 21.0803693,11.7808504 20.6185426,11.7307562 C20.4418407,11.7115421 20.284353,11.6381164 20.1594608,11.5300366 C20.1309826,11.5427317 20.1021614,11.556113 20.0733401,11.5688081 C20.0726539,11.6031192 20.0764281,11.6364009 20.0726539,11.671055 C20.0023162,12.3174751 19.4210871,12.7844485 18.774667,12.7141108 C18.7012413,12.7062193 18.6305606,12.68975 18.5619385,12.6691634 C18.5612523,12.6763687 18.5626247,12.683574 18.5619385,12.6911224 C18.4545449,13.6751632 17.5700061,14.3860881 16.5859653,14.2790377 C16.5266072,14.2728617 16.4723958,14.2546768 16.4150963,14.2430111 C16.4099496,14.3613842 16.392451,14.4804435 16.3492191,14.5974442 C16.1244817,15.2078377 15.4475248,15.5200682 14.8374744,15.2953309 C14.7949287,15.2795478 14.7571865,15.2569025 14.7177288,15.2370021 C14.6998871,15.2538145 14.6823885,15.2716562 14.6648898,15.2884686 C14.7125822,15.4545341 14.7122391,15.6360395 14.6480774,15.8106828 C14.4971088,16.2200136 14.0623878,16.4378887 13.6489397,16.3311813 C12.820328,17.2342481 12.0047544,18.2560311 11.2121692,19.4178031 C6.18628714,26.7809537 4.97647964,33.5367987 5.38683976,39.0636221 C5.98728307,38.8402571 6.58360906,39.050927 6.96823589,39.2588519" id="Fill-91" fill="#E46B7D"></path>
                                <path d="M6.13447746,43.6935547 C7.67401411,49.8314578 10.8368064,53.5830276 10.8368064,53.5830276 L10.8422961,53.5830276 C8.95107126,50.5893888 7.70695272,47.1998005 7.29865126,43.5775833 C6.98264653,43.7916843 6.5654242,43.8139864 6.13447746,43.6935547" id="Fill-92" fill="#E46B7D"></path>
                                <path d="M23.9487728,40.0209003 C24.7022434,40.0209003 25.3133231,40.6316369 25.3133231,41.3854506 C25.3133231,42.1389212 24.7022434,42.7500009 23.9487728,42.7500009 C23.1949591,42.7500009 22.5842225,42.1389212 22.5842225,41.3854506 C22.5842225,40.6316369 23.1949591,40.0209003 23.9487728,40.0209003 Z M44.5484388,40.0209003 C45.3019094,40.0209003 45.9129891,40.6316369 45.9129891,41.3854506 C45.9129891,42.1389212 45.3019094,42.7500009 44.5484388,42.7500009 C43.7946251,42.7500009 43.1835454,42.1389212 43.1835454,41.3854506 C43.1835454,40.6316369 43.7946251,40.0209003 44.5484388,40.0209003 Z M27.4584497,65.1859942 L27.1664627,67.4433179 C27.1664627,67.4433179 29.2429672,68.515195 33.4237682,68.6850347 C33.4577362,68.6864071 33.4896455,68.6884658 33.5236134,68.6898382 C33.615567,68.6932693 33.708893,68.6956711 33.8029053,68.6980729 C34.0437689,68.704592 34.2866911,68.7097386 34.5405928,68.7097386 C34.8514509,68.7097386 35.149957,68.7028764 35.4422871,68.6932693 C35.5342407,68.6901813 35.6234494,68.686064 35.7133444,68.6822898 C35.8869583,68.6747414 36.0550824,68.664448 36.2221772,68.6538116 C40.6438417,68.3707455 42.7299534,67.0497702 42.7299534,67.0497702 L42.7292671,67.0483978 L41.849875,64.8782241 C34.7389107,69.4405639 27.6869613,65.3177486 27.4690861,65.1883959 C29.5723533,65.679387 31.7727207,65.943239 34.0399946,65.943239 C36.7656642,65.943239 39.3952628,65.5630726 41.874579,64.8620979 C42.7313258,64.6198619 43.5702309,64.3395406 44.3885494,64.0221635 C44.7906748,63.8660482 45.1876536,63.7010121 45.5798289,63.5277413 C49.1152391,61.9635007 52.224163,59.703432 54.7041655,56.9376186 L45.5338521,56.9376186 C45.2597068,57.2000981 44.9200275,57.3918968 44.542606,57.4848798 C44.6060814,57.6989807 44.6349027,57.9268061 44.617404,58.1625229 C44.5412335,59.2090099 43.6309615,59.995419 42.5844745,59.9189054 C42.1576451,59.8876824 41.7757632,59.7164702 41.4765708,59.4553632 C41.147871,60.8343241 39.8625792,61.8128752 38.4029873,61.7061678 C37.3726266,61.6310266 36.5069589,61.0333282 36.0417011,60.1923645 C35.1911302,61.0563166 33.9830383,61.5572579 32.6792185,61.4622163 C31.4642644,61.3736938 30.4074842,60.7835438 29.689354,59.9117001 C29.0532271,60.5409647 28.1607968,60.9050049 27.198372,60.8346672 C25.8430856,60.7358514 24.7489064,59.8080807 24.3680538,58.5848919 C24.2225749,58.603763 24.0733219,58.6082234 23.9213239,58.5972439 C22.7012231,58.5080352 21.7851182,57.4471376 21.8739838,56.2273799 C21.9412334,55.3054421 22.564322,54.5574613 23.3912183,54.2853747 C23.3922476,54.2387117 23.3908752,54.1923918 23.3943063,54.1450425 C23.517826,52.4500768 24.9925148,51.1761077 26.6871374,51.2999706 C27.0566674,51.3270763 27.4042383,51.4214317 27.7236741,51.5648518 C28.4016604,50.5413533 29.5956848,49.9024816 30.907053,49.9982094 C32.1271538,50.0874182 33.1547696,50.7904515 33.7130104,51.7820408 C34.3587443,50.6134065 35.640605,49.8609653 37.0600529,49.9645846 C38.3477465,50.0585969 39.4199667,50.8333403 39.9589933,51.9093347 C40.3316112,51.3507509 40.9848935,51.0024938 41.7023375,51.0546466 C42.7632351,51.1321895 43.5609669,52.0551567 43.483424,53.1163973 C43.4806791,53.1555119 43.47416,53.1939403 43.4690133,53.2320256 C43.6944369,53.1740399 43.9322124,53.1489928 44.1771933,53.1671777 C44.9848753,53.2258496 45.6563425,53.7161544 45.9877872,54.3944838 L56.7010684,54.3944838 C56.9031604,54.1004382 57.0990765,53.8029614 57.2881304,53.5006811 C57.3371952,53.4224519 57.3859169,53.3442227 57.4339523,53.2653073 C57.5808036,53.0247869 57.7242238,52.7825509 57.8624973,52.5372269 C59.3955148,49.8204782 60.4094063,46.8113995 60.7755051,43.6208152 C61.0314655,43.8181038 61.362224,43.8760894 61.7166571,43.8222211 C63.0726297,43.6163548 64.7603901,41.7988987 63.8171794,40.100845 C63.4706378,39.4774133 63.0681693,39.1672414 62.6701611,39.0399474 C62.2299504,38.8996153 61.7959157,38.9840204 61.4504034,39.1212646 L59.8034732,41.3885386 C59.8034732,41.3885386 57.7166753,34.7229316 53.7029691,31.1909525 C53.7029691,31.1909525 55.6295344,35.6057548 56.0306305,36.8903604 C56.0306305,36.8903604 34.364234,39.1816521 34.0475431,27.3577223 C34.0327893,28.9953886 33.0212997,37.7711249 12.9246335,36.9703051 L14.4497596,31.9934878 C14.4497596,31.9934878 10.0349572,37.5323201 9.71380582,42.8302887 L6.96823589,39.2588519 C6.58360906,39.050927 5.98728307,38.8402571 5.38683976,39.0636221 C5.01079069,39.203268 4.63371229,39.5120674 4.3063849,40.100845 C3.42562034,41.6867016 4.83923546,43.3319162 6.13447746,43.6935547 C6.5654242,43.8139864 6.98264653,43.7916843 7.29865126,43.5775833 C7.70695272,47.1998005 8.95107126,50.5893888 10.8422961,53.5830276 C13.727512,58.1494848 18.1237864,61.7888574 23.396708,63.9044766 C23.7823642,64.0592194 24.173167,64.2050413 24.5680872,64.3433149 C25.5078667,64.6723578 26.471664,64.9550808 27.4584497,65.1859942 Z" id="Fill-93" fill="#E9CDB5"></path>
                                <path d="M23.9487728,42.7500009 C24.7022434,42.7500009 25.3133231,42.1389212 25.3133231,41.3854506 C25.3133231,40.6316369 24.7022434,40.0209003 23.9487728,40.0209003 C23.1949591,40.0209003 22.5842225,40.6316369 22.5842225,41.3854506 C22.5842225,42.1389212 23.1949591,42.7500009 23.9487728,42.7500009" id="Fill-94" fill="#2E2118"></path>
                                <path d="M44.5484388,42.7500009 C45.3019094,42.7500009 45.9129891,42.1389212 45.9129891,41.3854506 C45.9129891,40.6316369 45.3019094,40.0209003 44.5484388,40.0209003 C43.7946251,40.0209003 43.1835454,40.6316369 43.1835454,41.3854506 C43.1835454,42.1389212 43.7946251,42.7500009 44.5484388,42.7500009" id="Fill-95" fill="#2E2118"></path>
                                <path d="M43.1835454,59.3579198 C43.1835454,59.3579198 44.0155883,58.8882016 44.0574478,57.7127051 C44.0574478,57.7127051 44.2790971,58.8456559 43.1835454,59.3579198 Z M39.2391475,60.9362279 C39.2391475,60.9362279 38.2214819,61.4817736 37.4093394,60.5859122 C37.4093394,60.5859122 38.1031088,61.2422825 39.2391475,60.9362279 Z M22.5842225,56.5804406 C22.5842225,56.5804406 22.766071,57.4413048 23.7875109,57.8046587 C23.7875109,57.8046587 22.7303875,57.6852563 22.5842225,56.5804406 Z M25.5809492,52.3207242 C25.5809492,52.3207242 24.4136874,52.8528885 24.2212025,54.4212464 C24.2212025,54.4212464 24.0558232,52.8796511 25.5809492,52.3207242 Z M31.4399035,50.6648731 C31.4399035,50.6648731 30.2355858,50.2215744 28.9952415,51.2004685 C28.9952415,51.2004685 29.9624699,49.9886024 31.4399035,50.6648731 Z M28.9773997,56.3862401 C28.9773997,56.3862401 28.2987272,55.2975506 26.7187035,55.3095594 C26.7187035,55.3095594 28.2263309,54.9462055 28.9773997,56.3862401 Z M34.5196631,60.2699074 C34.5196631,60.2699074 33.0803147,61.5027033 31.4625488,60.352597 C31.4625488,60.352597 32.8065125,61.1606222 34.5196631,60.2699074 Z M38.7690862,51.7346915 C38.7690862,51.7346915 38.0900706,50.6456589 36.5100469,50.6580109 C36.5100469,50.6580109 38.0176743,50.2943138 38.7690862,51.7346915 Z M41.6484692,51.5154439 C41.6484692,51.5154439 41.0277824,51.4077072 40.5151753,51.9899657 C40.5151753,51.9899657 40.8754413,51.3191847 41.6484692,51.5154439 Z M41.9136936,56.9376186 C41.5383307,57.7041274 40.7882913,58.2798667 39.877333,58.4678913 C39.2611066,59.0058885 38.4571988,59.3339021 37.5750618,59.3339021 L34.1662593,59.3339021 C33.2841223,59.3339021 32.4802145,59.0058885 31.8639881,58.4678913 C30.549875,58.1971771 29.5672066,57.1187809 29.5672066,55.82697 C29.5672066,54.5358453 30.549875,53.4574492 31.8639881,53.186735 C32.4805576,52.6490809 33.2844654,52.3207242 34.1662593,52.3207242 L37.5750618,52.3207242 C38.4571988,52.3207242 39.2607635,52.6490809 39.877333,53.186735 C40.6551644,53.3469676 41.3149658,53.7909525 41.7253259,54.3944838 L45.5256174,54.3944838 C45.4329776,54.1920487 45.2586775,53.9463816 44.9262035,53.7607588 C44.9262035,53.7607588 45.4096461,53.9076101 45.5726236,54.3944838 L45.9877872,54.3944838 C45.6563425,53.7161544 44.9848753,53.2258496 44.1771933,53.1671777 C43.9322124,53.1489928 43.6944369,53.1740399 43.4690133,53.2320256 C43.47416,53.1939403 43.4806791,53.1555119 43.483424,53.1163973 C43.5609669,52.0551567 42.7632351,51.1321895 41.7023375,51.0546466 C40.9848935,51.0024938 40.3316112,51.3507509 39.9589933,51.9093347 C39.4199667,50.8333403 38.3477465,50.0585969 37.0600529,49.9645846 C35.640605,49.8609653 34.3587443,50.6134065 33.7130104,51.7820408 C33.1547696,50.7904515 32.1271538,50.0874182 30.907053,49.9982094 C29.5956848,49.9024816 28.4016604,50.5413533 27.7236741,51.5648518 C27.4042383,51.4214317 27.0566674,51.3270763 26.6871374,51.2999706 C24.9925148,51.1761077 23.517826,52.4500768 23.3943063,54.1450425 C23.3908752,54.1923918 23.3922476,54.2387117 23.3912183,54.2853747 C22.564322,54.5574613 21.9412334,55.3054421 21.8739838,56.2273799 C21.7851182,57.4471376 22.7012231,58.5080352 23.9213239,58.5972439 C24.0733219,58.6082234 24.2225749,58.603763 24.3680538,58.5848919 C24.7489064,59.8080807 25.8430856,60.7358514 27.198372,60.8346672 C28.1607968,60.9050049 29.0532271,60.5409647 29.689354,59.9117001 C30.4074842,60.7835438 31.4642644,61.3736938 32.6792185,61.4622163 C33.9830383,61.5572579 35.1911302,61.0563166 36.0417011,60.1923645 C36.5069589,61.0333282 37.3726266,61.6310266 38.4029873,61.7061678 C39.8625792,61.8128752 41.147871,60.8343241 41.4765708,59.4553632 C41.7757632,59.7164702 42.1576451,59.8876824 42.5844745,59.9189054 C43.6309615,59.995419 44.5412335,59.2090099 44.617404,58.1625229 C44.6349027,57.9268061 44.6060814,57.6989807 44.542606,57.4848798 C44.9200275,57.3918968 45.2597068,57.2000981 45.5338521,56.9376186 L41.9136936,56.9376186 Z" id="Fill-96" fill="#CDEAEF"></path>
                                <path d="M15.0701033,13.031488 C14.9983932,12.8026333 14.969915,12.5566231 14.9973639,12.3027214 C15.1047574,11.3183375 15.9892962,10.6074126 16.9736801,10.7148062 C17.2989489,10.7501465 17.5895634,10.8767543 17.8355736,11.0575735 C18.0139911,10.6664276 18.3934712,10.3977721 18.8312802,10.3716957 C18.883433,9.971972 18.9023041,9.57533631 18.9023041,9.20306145 C18.9029903,-1.8056378 0.07,1.0960474 0.07,1.0960474 C6.25010568,3.72495978 8.05795472,13.3107799 13.1514296,13.9678365 C13.4787569,14.0100391 13.7868701,14.0361155 14.078514,14.0477812 C14.0894936,13.9596018 14.1076784,13.8710793 14.1399308,13.7839293 C14.2933012,13.3667069 14.6594001,13.0939341 15.0701033,13.031488" id="Fill-97" fill="#E46B7D"></path>
                                <path d="M49.6288755,11.3722058 C49.8748857,11.1917297 50.1655002,11.0651219 50.490769,11.0297816 C51.4751529,10.922388 52.3600348,11.6333129 52.4670852,12.6176968 C52.4948772,12.8715985 52.4660559,13.1176087 52.3943458,13.3464634 C52.805049,13.4089095 53.1711479,13.6813392 53.3248614,14.0989047 C53.3553982,14.1815943 53.3742693,14.2653132 53.385592,14.3490322 C53.5811649,14.3346216 53.7815414,14.3160936 53.9922113,14.2889879 C59.085343,13.6319313 60.8935351,4.04645428 67.0736408,1.4175419 C67.0736408,1.4175419 48.2403074,-1.48414329 48.2413368,9.52421285 C48.2413368,9.9030068 48.2605509,10.3068478 48.3151055,10.7137768 C48.3552494,10.704856 48.3933347,10.6928471 48.4348511,10.6880435 C48.9529479,10.6317734 49.4240385,10.9230742 49.6288755,11.3722058" id="Fill-98" fill="#E46B7D"></path>
                                <path d="M20.0743694,11.4428866 C20.101132,11.4734234 20.1285809,11.503274 20.1594608,11.5300366 C20.284353,11.6381164 20.4418407,11.7115421 20.6185426,11.7307562 C21.0803693,11.7808504 21.4951898,11.4476901 21.5463133,10.9862065 C21.5463133,10.9858634 21.5466564,10.9851772 21.5466564,10.9848341 C21.5974368,10.5219781 21.2629041,10.1068144 20.8007343,10.0563772 C20.3385645,10.0059399 19.9227146,10.3397864 19.8726205,10.8022993 C19.8695325,10.8304344 19.8722773,10.8575401 19.8719342,10.8853321 C19.9827589,11.0489958 20.0568708,11.2380496 20.0743694,11.4428866" id="Fill-99" fill="#76B3C3"></path>
                                <path d="M17.8355736,11.0575735 C18.3282803,11.4195551 18.6247277,12.0182828 18.5619385,12.6691634 C18.6305606,12.68975 18.7012413,12.7062193 18.774667,12.7141108 C19.4210871,12.7844485 20.0023162,12.3174751 20.0726539,11.671055 C20.0764281,11.6364009 20.0726539,11.6031192 20.0733401,11.5688081 C20.0743694,11.5266055 20.0778005,11.4840598 20.0743694,11.4428866 C20.0568708,11.2380496 19.9827589,11.0489958 19.8719342,10.8853321 C19.6845959,10.6098144 19.386776,10.4121827 19.029598,10.3730681 C18.9623484,10.3658628 18.8964712,10.3675784 18.8312802,10.3716957 C18.3934712,10.3977721 18.0139911,10.6664276 17.8355736,11.0575735" id="Fill-100" fill="#8BC7DD"></path>
                                <path d="M14.6480774,15.8106828 C14.7122391,15.6360395 14.7125822,15.4545341 14.6648898,15.2884686 C14.655969,15.2569025 14.6449894,15.2256794 14.6322943,15.1954857 C14.4566218,15.0887784 14.3200638,14.9381529 14.2233067,14.7659114 C14.1982596,14.7535594 14.1752712,14.7391488 14.1488517,14.7295417 C13.7124152,14.5686229 13.2279432,14.7919878 13.0673675,15.2287674 C12.9064487,15.6652039 13.1301567,16.1489897 13.5665932,16.3102516 C13.593699,16.3202018 13.6211478,16.3243191 13.6489397,16.3311813 C14.0623878,16.4378887 14.4971088,16.2200136 14.6480774,15.8106828" id="Fill-101" fill="#76B3C3"></path>
                                <path d="M14.6322943,15.1954857 C14.6587138,15.2116119 14.6895938,15.2229345 14.7177288,15.2370021 C14.7571865,15.2569025 14.7949287,15.2795478 14.8374744,15.2953309 C15.4475248,15.5200682 16.1244817,15.2078377 16.3492191,14.5974442 C16.392451,14.4804435 16.4099496,14.3613842 16.4150963,14.2430111 C15.7673037,14.1078255 15.2601865,13.6374211 15.0701033,13.031488 C14.6594001,13.0939341 14.2933012,13.3667069 14.1399308,13.7839293 C14.1076784,13.8710793 14.0894936,13.9596018 14.078514,14.0477812 C14.047291,14.3009967 14.1021887,14.5507812 14.2233067,14.7659114 C14.3200638,14.9381529 14.4566218,15.0887784 14.6322943,15.1954857" id="Fill-102" fill="#8BC7DD"></path>
                                <path d="M17.8355736,11.0575735 C17.5895634,10.8767543 17.2989489,10.7501465 16.9736801,10.7148062 C15.9892962,10.6074126 15.1047574,11.3183375 14.9973639,12.3027214 C14.969915,12.5566231 14.9983932,12.8026333 15.0701033,13.031488 C15.2601865,13.6374211 15.7673037,14.1078255 16.4150963,14.2430111 C16.4723958,14.2546768 16.5266072,14.2728617 16.5859653,14.2790377 C17.5700061,14.3860881 18.4545449,13.6751632 18.5619385,12.6911224 C18.5626247,12.683574 18.5612523,12.6763687 18.5619385,12.6691634 C18.6247277,12.0182828 18.3282803,11.4195551 17.8355736,11.0575735" id="Fill-103" fill="#76B3C3"></path>
                                <path d="M45.9177927,11.2998095 C45.9682299,11.7619793 46.3837367,12.0958258 46.8459065,12.0457316 C47.0665265,12.0217139 47.2559235,11.913291 47.3900797,11.757862 C47.4075783,11.553025 47.4816902,11.363628 47.592858,11.1999644 C47.5925149,11.1725155 47.5952598,11.1454098 47.5921718,11.1172747 C47.5417345,10.6547618 47.1262278,10.3209153 46.6637148,10.3713526 C46.3013902,10.4108103 46.0207258,10.6756916 45.9394087,11.0109105 C45.9171065,11.1032072 45.9071563,11.1999644 45.9177927,11.2998095" id="Fill-104" fill="#76B3C3"></path>
                                <path d="M47.3900797,11.757862 C47.3839037,11.8323169 47.3835606,11.9084875 47.3921384,11.9860304 C47.462476,12.6324505 48.0437051,13.0994239 48.6897821,13.0290862 C48.7635509,13.0211947 48.8338885,13.0047254 48.9025106,12.9841388 C48.8397214,12.3332582 49.136512,11.7345305 49.6288755,11.3722058 C49.4240385,10.9230742 48.9529479,10.6317734 48.4348511,10.6880435 C48.3933347,10.6928471 48.3552494,10.704856 48.3151055,10.7137768 C48.0117959,10.7789678 47.7585803,10.956699 47.592858,11.1999644 C47.4816902,11.363628 47.4075783,11.553025 47.3900797,11.757862" id="Fill-105" fill="#8BC7DD"></path>
                                <path d="M52.8324979,15.5104611 C52.7528963,15.6998581 52.7402012,15.9177332 52.8167148,16.1256582 C52.9776336,16.5620947 53.4617625,16.7858027 53.898199,16.625227 C53.9462345,16.6073853 53.9911819,16.5840538 54.0337276,16.5590067 C54.3782105,16.3562284 54.5405018,15.9318008 54.3974247,15.5437428 C54.2365059,15.1069632 53.752377,14.8835983 53.3159405,15.0445171 C53.289521,15.0541242 53.2661895,15.0685348 53.2414856,15.0808868 C53.1443853,15.2531283 53.0078273,15.4034107 52.8324979,15.5104611" id="Fill-106" fill="#76B3C3"></path>
                                <path d="M52.3943458,13.3464634 C52.2046057,13.9523965 51.6971454,14.4228009 51.0493528,14.5579865 C51.0544995,14.6763596 51.0723412,14.7954189 51.11523,14.9124196 C51.3403105,15.5228131 52.0169243,15.8350436 52.6269747,15.6103063 C52.7000572,15.5832005 52.7683362,15.5492326 52.8324979,15.5104611 C53.0078273,15.4034107 53.1443853,15.2531283 53.2414856,15.0808868 C53.3646622,14.8616392 53.4205892,14.6067082 53.385592,14.3490322 C53.3742693,14.2653132 53.3553982,14.1815943 53.3248614,14.0989047 C53.1711479,13.6813392 52.805049,13.4089095 52.3943458,13.3464634" id="Fill-107" fill="#8BC7DD"></path>
                                <path d="M52.3943458,13.3464634 C52.4660559,13.1176087 52.4948772,12.8715985 52.4670852,12.6176968 C52.3600348,11.6333129 51.4751529,10.922388 50.490769,11.0297816 C50.1655002,11.0651219 49.8748857,11.1917297 49.6288755,11.3722058 C49.136512,11.7345305 48.8397214,12.3332582 48.9025106,12.9841388 C48.9031968,12.9913441 48.9018244,12.9985494 48.9028537,13.0060978 C49.0099042,13.9901387 49.894443,14.7014066 50.8788269,14.5940131 C50.9378419,14.5878371 50.9923965,14.5696522 51.0493528,14.5579865 C51.6971454,14.4228009 52.2046057,13.9523965 52.3943458,13.3464634" id="Fill-108" fill="#76B3C3"></path>
                                <path d="M63.4425028,57.6324173 C63.3755962,58.2640836 62.4591482,56.8322837 61.9842833,57.0865285 C61.5090753,57.3414596 62.3774879,58.92663 63.3354523,59.8159723 C63.9931951,60.4263658 64.5751104,61.1328302 64.9137604,61.5692668 C65.4198484,60.8871631 67.5395848,60.2534381 68.3712846,60.5241523 C68.4079974,60.2496639 68.6245001,58.5481791 68.6104326,56.9376186 L63.2702613,56.9376186 C63.3906931,57.1819132 63.4651481,57.417287 63.4425028,57.6324173" id="Fill-109" fill="#E9CDB5"></path>
                                <path d="M21.5013658,76.4005597 C15.0254989,83.0346005 13.9172521,91.0935791 13.7271689,93.6617609 C13.7436382,93.66828 13.7601075,93.674456 13.7762337,93.680632 C14.1104233,91.183474 15.6204525,83.3742799 21.8949135,76.8665037 L21.5013658,76.4005597" id="Fill-110" fill="#8BC7DD"></path>
                                <path d="M37.5750618,59.3339021 C38.4571988,59.3339021 39.2611066,59.0058885 39.877333,58.4678913 C39.669408,58.5107801 39.4539347,58.535484 39.2319422,58.535484 L32.5090357,58.535484 C32.2873864,58.535484 32.071913,58.5107801 31.8639881,58.4678913 C32.4802145,59.0058885 33.2841223,59.3339021 34.1662593,59.3339021 L37.5750618,59.3339021" id="Fill-111" fill="#FFFFFE"></path>
                                <path d="M37.5750618,52.3207242 L34.1662593,52.3207242 C33.2844654,52.3207242 32.4805576,52.6490809 31.8639881,53.186735 C32.071913,53.1438462 32.2873864,53.1191422 32.5090357,53.1191422 L39.2319422,53.1191422 C39.4539347,53.1191422 39.669408,53.1438462 39.877333,53.186735 C39.2607635,52.6490809 38.4571988,52.3207242 37.5750618,52.3207242" id="Fill-112" fill="#FFFFFE"></path>
                                <path d="M45.5726236,54.3944838 C45.6089933,54.5029067 45.6350697,54.6229954 45.6295799,54.7684742 C45.6295799,54.7684742 45.6220315,54.6044674 45.5256174,54.3944838 L41.7253259,54.3944838 C41.3149658,53.7909525 40.6551644,53.3469676 39.877333,53.186735 C39.669408,53.1438462 39.4539347,53.1191422 39.2319422,53.1191422 L32.5090357,53.1191422 C32.2873864,53.1191422 32.071913,53.1438462 31.8639881,53.186735 C30.549875,53.4574492 29.5672066,54.5358453 29.5672066,55.82697 C29.5672066,57.1187809 30.549875,58.1971771 31.8639881,58.4678913 C32.071913,58.5107801 32.2873864,58.535484 32.5090357,58.535484 L39.2319422,58.535484 C39.4539347,58.535484 39.669408,58.5107801 39.877333,58.4678913 C40.7882913,58.2798667 41.5383307,57.7041274 41.9136936,56.9376186 L71.3302692,56.9376186 C72.0326164,56.9376186 72.6018366,56.3683983 72.6018366,55.6660512 C72.6018366,54.9637041 72.0326164,54.3944838 71.3302692,54.3944838 L68.2086502,54.3944838 C68.2086502,54.3944838 68.1142949,56.1769427 65.1841315,56.2706118 C62.2539681,56.3639379 62.2392144,54.3944838 62.2392144,54.3944838 L45.5726236,54.3944838" id="Fill-113" fill="#E3A44A"></path>
                                <path d="M64.9137604,61.5692668 C64.8115135,61.7065109 64.7741145,61.8458138 64.8272966,61.9803131 C64.9020947,62.1703963 65.045858,62.3210218 65.2846629,62.4074856 C65.7684486,62.5831582 66.6495563,62.4912046 68.182917,61.905515 C68.3424633,61.8447845 68.4721591,61.7809659 68.577494,61.716118 C69.2939086,61.2738486 68.8533548,60.765702 68.4913733,60.572874 C68.4553467,60.5536598 68.4145165,60.5382198 68.3712846,60.5241523 C67.5395848,60.2534381 65.4198484,60.8871631 64.9137604,61.5692668" id="Fill-114" fill="#8BC7DD"></path>
                                <path d="M65.1841315,56.2706118 C68.1142949,56.1769427 68.2086502,54.3944838 68.2086502,54.3944838 C67.4061149,52.8583783 63.7835546,52.1965182 62.2392144,54.3944838 C62.2392144,54.3944838 62.2539681,56.3639379 65.1841315,56.2706118" id="Fill-115" fill="#E9CDB5"></path>
                                <polyline id="Fill-116" fill="#8BC7DD" points="20.79696 68.7097386 20.0012869 69.2007297 19.1459125 68.8236513 19.3668756 69.7322078 18.743787 70.4294083 19.6760182 70.4997459 20.1464226 71.3077711 20.5015419 70.4427896 21.4152451 70.245158 20.7026047 69.6402542 20.79696 68.7097386"></polyline>
                                <polyline id="Fill-117" fill="#8BC7DD" points="18.1227571 76.7392097 17.6252469 75.947997 17.2996351 76.8243011 16.3927941 77.0528127 17.1256781 77.6336987 17.0628889 78.5659298 17.8414065 78.0485192 18.7091329 78.3964333 18.4576329 77.4961114 19.0567038 76.7783243 18.1227571 76.7392097"></polyline>
                                <polyline id="Fill-118" fill="#8BC7DD" points="20.2157309 86.8221969 19.3116348 87.0606587 18.6027686 86.4516376 18.5506158 87.3852412 17.7518547 87.8714287 18.6236984 88.2093925 18.8388286 89.1189784 19.430008 88.3946722 20.3615529 88.4711858 19.8554649 87.6851197 20.2157309 86.8221969"></polyline>
                                <polyline id="Fill-120" fill="#8BC7DD" points="31.2216853 85.1279175 30.47542 85.6913048 29.5881364 85.3958867 29.8931616 86.2797393 29.3383519 87.0318374 30.2729849 87.0146819 30.8168149 87.7753578 31.0895878 86.8808688 31.9809887 86.5984889 31.2148231 86.0628935 31.2216853 85.1279175"></polyline>
                                <polyline id="Fill-121" fill="#8BC7DD" points="32.8425391 77.1214348 32.5618748 78.013522 31.6677289 78.2876672 32.429091 78.8308111 32.413651 79.7651009 33.165063 79.2089188 34.0492586 79.5125716 33.7524681 78.6259742 34.314483 77.8786796 33.379507 77.8869142 32.8425391 77.1214348"></polyline>
                                <polyline id="Fill-122" fill="#8BC7DD" points="40.5450259 73.7431691 39.7359715 73.2741371 39.663232 72.3422491 38.9677471 72.9673964 38.0585044 72.7481488 38.4376415 73.6031801 37.948709 74.3995395 38.8785384 74.3031254 39.4848146 75.0143934 39.6807307 74.1003471 40.5450259 73.7431691"></polyline>
                                <polyline id="Fill-123" fill="#8BC7DD" points="47.3890504 81.4384506 47.9726813 80.7083116 48.9052555 80.774875 48.3909329 79.9939556 48.7426211 79.1276017 47.8409268 79.3753274 47.1255415 78.7731685 47.0833389 79.7074583 46.2893813 80.2018805 47.1646561 80.5312666 47.3890504 81.4384506"></polyline>
                                <polyline id="Fill-124" fill="#8BC7DD" points="41.0178322 82.4942015 40.4424359 83.2315459 39.5095186 83.175962 40.0334482 83.9503623 39.6920533 84.8211767 40.5910027 84.5624714 41.3129072 85.1557094 41.3444733 84.2217627 42.1322549 83.7180766 41.253549 83.3989838 41.0178322 82.4942015"></polyline>
                                <polyline id="Fill-125" fill="#8BC7DD" points="38.656889 90.5878343 37.8269048 91.0184379 37.0017242 90.5789134 37.1544083 91.5015374 36.4819118 92.1503593 37.4062514 92.2893191 37.8159253 93.1306259 38.234177 92.2941226 39.159889 92.1644269 38.4939116 91.5087428 38.656889 90.5878343"></polyline>
                                <polyline id="Fill-127" fill="#8BC7DD" points="51.5657341 87.384555 50.6341891 87.3032378 50.1730487 86.490066 49.807636 87.3512733 48.8918742 87.5386116 49.5979955 88.1510638 49.4933468 89.08055 50.2948529 88.5988229 51.1457668 88.9851653 50.9347539 88.0745501 51.5657341 87.384555"></polyline>
                                <polyline id="Fill-128" fill="#8BC7DD" points="47.506051 73.5448513 48.3075571 73.0627811 49.1581279 73.4494666 48.9474581 72.5388514 49.5780951 71.8488563 48.6468933 71.7675391 48.1857529 70.9540242 47.8203402 71.8155745 46.9045784 72.0029129 47.6106997 72.615365 47.506051 73.5448513"></polyline>
                                <polyline id="Fill-129" fill="#8BC7DD" points="53.0387073 78.5522054 53.8402133 78.0704783 54.6907842 78.4568207 54.4801143 77.5462055 55.1107514 76.8562104 54.1795496 76.7748932 53.7184091 75.9617214 53.3529965 76.8229287 52.4372346 77.010267 53.143356 77.6227192 53.0387073 78.5522054"></polyline>
                                <polyline id="Fill-130" fill="#8BC7DD" points="60.647868 75.917117 61.2345869 76.6445112 61.4548639 75.7362978 62.3284231 75.4031376 61.5327499 74.9121465 61.4860869 73.9781998 60.7727603 74.5837898 59.8703797 74.3398382 60.2261853 75.2044766 59.7152938 75.9877978 60.647868 75.917117"></polyline>
                                <polyline id="Fill-131" fill="#8BC7DD" points="67.5502213 72.4698862 68.2803603 71.8855691 69.1751924 72.155597 68.844777 71.2810084 69.3783138 70.5134703 68.4447102 70.5567023 67.8792642 69.8121525 67.6315384 70.71419 66.7490583 71.0216169 67.530664 71.5349102 67.5502213 72.4698862"></polyline>
                                <polyline id="Fill-132" fill="#8BC7DD" points="27.6121632 72.7141809 26.6957151 72.8994605 26.0235617 72.2496093 25.9165113 73.1784093 25.0906444 73.6169045 25.9412152 74.0056486 26.1024772 74.926214 26.7351729 74.2379344 27.6608849 74.3690026 27.2018031 73.5544584 27.6121632 72.7141809"></polyline>
                                <polyline id="Fill-133" fill="#8BC7DD" points="24.6284746 81.7047044 25.4015025 81.1780298 24.5135326 80.8850135 24.2510531 79.9877796 23.6983021 80.7419364 22.7636692 80.7141444 23.3099011 81.4731048 22.9945826 82.35284 23.8849542 82.0677152 24.6243573 82.6396804 24.6284746 81.7047044"></polyline>
                                <polyline id="Fill-134" fill="#8BC7DD" points="11.733354 80.2234965 10.8769503 80.5985162 10.0823065 80.1058096 10.1746032 81.0363252 9.46024719 81.6395134 10.3736072 81.8392037 10.7266679 82.7048714 11.1987879 81.8982187 12.1317053 81.8299397 11.5103322 81.1313668 11.733354 80.2234965"></polyline>
                                <polyline id="Fill-135" fill="#8BC7DD" points="11.1730546 89.8535779 10.5945704 89.1189784 10.3633139 90.02479 9.48598047 90.3480001 10.2761639 90.847912 10.3121905 91.7818587 11.0316931 91.1851896 11.9313288 91.4394344 11.5858165 90.5706788 12.105972 89.7938767 11.1730546 89.8535779"></polyline>
                                <path d="M24.2212025,54.4212464 C24.4136874,52.8528885 25.5809492,52.3207242 25.5809492,52.3207242 C24.0558232,52.8796511 24.2212025,54.4212464 24.2212025,54.4212464" id="Fill-136" fill="#98B9C1"></path>
                                <path d="M28.9773997,56.3862401 C28.2263309,54.9462055 26.7187035,55.3095594 26.7187035,55.3095594 C28.2987272,55.2975506 28.9773997,56.3862401 28.9773997,56.3862401" id="Fill-137" fill="#98B9C1"></path>
                                <path d="M31.4399035,50.6648731 C29.9624699,49.9886024 28.9952415,51.2004685 28.9952415,51.2004685 C30.2355858,50.2215744 31.4399035,50.6648731 31.4399035,50.6648731" id="Fill-138" fill="#98B9C1"></path>
                                <path d="M38.7690862,51.7346915 C38.0176743,50.2943138 36.5100469,50.6580109 36.5100469,50.6580109 C38.0900706,50.6456589 38.7690862,51.7346915 38.7690862,51.7346915" id="Fill-139" fill="#98B9C1"></path>
                                <path d="M34.5196631,60.2699074 C32.8065125,61.1606222 31.4625488,60.352597 31.4625488,60.352597 C33.0803147,61.5027033 34.5196631,60.2699074 34.5196631,60.2699074" id="Fill-140" fill="#98B9C1"></path>
                                <path d="M43.1835454,59.3579198 C44.2790971,58.8456559 44.0574478,57.7127051 44.0574478,57.7127051 C44.0155883,58.8882016 43.1835454,59.3579198 43.1835454,59.3579198" id="Fill-141" fill="#98B9C1"></path>
                                <path d="M39.2391475,60.9362279 C38.1031088,61.2422825 37.4093394,60.5859122 37.4093394,60.5859122 C38.2214819,61.4817736 39.2391475,60.9362279 39.2391475,60.9362279" id="Fill-142" fill="#98B9C1"></path>
                                <path d="M41.6484692,51.5154439 C40.8754413,51.3191847 40.5151753,51.9899657 40.5151753,51.9899657 C41.0277824,51.4077072 41.6484692,51.5154439 41.6484692,51.5154439" id="Fill-143" fill="#98B9C1"></path>
                                <path d="M44.9262035,53.7607588 C45.2586775,53.9463816 45.4329776,54.1920487 45.5256174,54.3944838 C45.6220315,54.6044674 45.6295799,54.7684742 45.6295799,54.7684742 C45.6350697,54.6229954 45.6089933,54.5029067 45.5726236,54.3944838 C45.4096461,53.9076101 44.9262035,53.7607588 44.9262035,53.7607588" id="Fill-144" fill="#98B9C1"></path>
                                <path d="M22.5842225,56.5804406 C22.7303875,57.6852563 23.7875109,57.8046587 23.7875109,57.8046587 C22.766071,57.4413048 22.5842225,56.5804406 22.5842225,56.5804406" id="Fill-145" fill="#98B9C1"></path>
                            </g>
                        </g>
                    </g>
                </g>
            </g>
        </g>
    </g>
</svg>