<?xml version="1.0" encoding="UTF-8"?>
<svg width="140px" height="121px" viewBox="0 0 140 121" version="1.1" xmlns="http://www.w3.org/2000/svg" xmlns:xlink="http://www.w3.org/1999/xlink">
    <!-- Generator: Sketch 51.2 (57519) - http://www.bohemiancoding.com/sketch -->
    <title>Group 3</title>
    <desc>Created with Sketch.</desc>
    <defs></defs>
    <g id="Icons" stroke="none" stroke-width="1" fill="none" fill-rule="evenodd">
        <g id="Artboard" transform="translate(-423.000000, -463.000000)" fill-rule="nonzero">
            <g id="Group-3" transform="translate(423.000000, 463.000000)">
                <g id="day-and-night" transform="translate(107.000000, 48.500000) scale(-1, 1) translate(-107.000000, -48.500000) translate(74.000000, 0.000000)">
                    <path d="M49.6244224,58.2176358 C49.4182035,57.1836556 48.6375417,56.3628636 47.62096,56.1115938 C41.5747964,54.6155356 37.3522023,49.1855244 37.3522023,42.9058201 C37.3522023,38.5495706 39.3499271,34.5618955 42.8337107,31.9655545 C44.6390545,30.6197821 44.0460485,27.6752676 41.8718057,27.1373667 C40.391147,26.7708324 38.8706621,26.5851852 37.3522023,26.5851852 C26.9305523,26.5851852 18.4516129,35.1269975 18.4516129,45.6259259 C18.4516129,56.1248544 26.9305523,64.6666667 37.3522023,64.6666667 C41.4286544,64.6666667 45.3120505,63.3776765 48.5832025,60.9397817 C49.4249537,60.3121173 49.8306414,59.251616 49.6244224,58.2176358 Z" id="Shape" fill="#B8C5CD"></path>
                    <path d="M49.0117456,56.9454552 C46.2750828,58.435884 43.226768,59.2172011 40.0612882,59.2172011 C29.6352952,59.2172011 21.1528223,50.6608591 21.1528223,40.1440717 C21.1528223,38.1757929 21.450293,36.2763136 22.0013397,34.4888889 C19.7708161,37.6192662 18.4516129,41.4526247 18.4516129,45.5935373 C18.4516129,56.1103246 26.9340858,64.6666667 37.3600788,64.6666667 C41.4382297,64.6666667 45.3232441,63.3754839 48.5957593,60.9334422 C49.8528347,59.9947717 50.0442829,58.127308 49.0117456,56.9454552 Z" id="Shape" fill="#CCD6DD"></path>
                    <g id="Group" fill="#ECEDEF">
                        <path d="M50.238806,5.38888889 L49.9104478,5.38888889 C48.4597612,5.38888889 47.2835821,4.18245139 47.2835821,2.69444444 C47.2835821,1.2064375 48.4597612,0 49.9104478,0 L50.238806,0 C51.6894925,0 52.8656716,1.2064375 52.8656716,2.69444444 C52.8656716,4.18245139 51.6894925,5.38888889 50.238806,5.38888889 Z" id="Shape"></path>
                        <path d="M63.3731343,78.1388889 L63.0447761,78.1388889 C61.5940896,78.1388889 60.4179104,76.9324514 60.4179104,75.4444444 C60.4179104,73.9564375 61.5940896,72.75 63.0447761,72.75 L63.3731343,72.75 C64.8238209,72.75 66,73.9564375 66,75.4444444 C66,76.9324514 64.8238209,78.1388889 63.3731343,78.1388889 Z" id="Shape"></path>
                        <path d="M18.7164179,83.5277778 L18.3880597,83.5277778 C16.9373731,83.5277778 15.761194,82.3213403 15.761194,80.8333333 C15.761194,79.3453264 16.9373731,78.1388889 18.3880597,78.1388889 L18.7164179,78.1388889 C20.1671045,78.1388889 21.3432836,79.3453264 21.3432836,80.8333333 C21.3432836,82.3213403 20.1671045,83.5277778 18.7164179,83.5277778 Z" id="Shape"></path>
                        <path d="M55.4925373,43.1111111 L55.1641791,43.1111111 C53.7134925,43.1111111 52.5373134,41.9046736 52.5373134,40.4166667 C52.5373134,38.9286597 53.7134925,37.7222222 55.1641791,37.7222222 L55.4925373,37.7222222 C56.9432239,37.7222222 58.119403,38.9286597 58.119403,40.4166667 C58.119403,41.9046736 56.9432239,43.1111111 55.4925373,43.1111111 Z" id="Shape"></path>
                        <path d="M47.6119403,97 L47.2835821,97 C45.8328955,97 44.6567164,95.7935625 44.6567164,94.3055556 C44.6567164,92.8175486 45.8328955,91.6111111 47.2835821,91.6111111 L47.6119403,91.6111111 C49.0626269,91.6111111 50.238806,92.8175486 50.238806,94.3055556 C50.238806,95.7935625 49.0626269,97 47.6119403,97 Z" id="Shape"></path>
                        <path d="M18.7164179,18.8611111 L18.3880597,18.8611111 C16.9373731,18.8611111 15.761194,17.6546736 15.761194,16.1666667 C15.761194,14.6786597 16.9373731,13.4722222 18.3880597,13.4722222 L18.7164179,13.4722222 C20.1671045,13.4722222 21.3432836,14.6786597 21.3432836,16.1666667 C21.3432836,17.6546736 20.1671045,18.8611111 18.7164179,18.8611111 Z" id="Shape"></path>
                        <path d="M2.95522388,45.8055556 L2.62686567,45.8055556 C1.1761791,45.8055556 0,44.5991181 0,43.1111111 C0,41.6231042 1.1761791,40.4166667 2.62686567,40.4166667 L2.95522388,40.4166667 C4.40591045,40.4166667 5.58208955,41.6231042 5.58208955,43.1111111 C5.58208955,44.5991181 4.40591045,45.8055556 2.95522388,45.8055556 Z" id="Shape"></path>
                    </g>
                </g>
                <g id="toothbrush-(2)" transform="translate(0.000000, 73.000000)">
                    <path d="M62.06,37.2537313 L5.22278146,37.2537313 C2.33817598,37.2537313 0,39.4992084 0,42.2687568 C0,45.0385056 2.33817598,47.2835821 5.22278146,47.2835821 L62.06,47.2835821 L62.06,37.2537313 Z" id="Shape" fill="#FF6361"></path>
                    <path d="M62.06,37.2537313 L5.22278146,37.2537313 C2.33817598,37.2537313 0,39.4992084 0,42.2687568 C0,45.0385056 2.33817598,47.2835821 5.22278146,47.2835821 L62.06,47.2835821 L62.06,37.2537313 Z" id="Shape" fill="#000000" opacity="0.2"></path>
                    <path d="M7.05540588,45.3743936 C4.1708004,45.3743936 1.83262442,43.0513193 1.83262442,40.1853448 C1.83262442,39.6639948 1.91083475,39.1610868 2.05495031,38.6865672 C0.806087786,39.6347777 0,41.1289966 0,42.8109513 C0,45.6769257 2.33817598,48 5.22278146,48 L62.06,48 L62.06,45.3743936 L7.05540588,45.3743936 Z" id="Shape" fill="#000000" opacity="0.1"></path>
                    <path d="M104.009175,33.6716418 L59.3441582,33.6716418 C57.6923323,33.6716418 56.3533333,34.994893 56.3533333,36.6272921 L56.3533333,45.0443497 C56.3533333,46.6767488 57.6923323,48 59.3441582,48 L104.009175,48 C105.661001,48 107,46.6767488 107,45.0443497 L107,36.6272921 C107,34.994893 105.661001,33.6716418 104.009175,33.6716418 Z" id="Shape" fill="#FF6361"></path>
                    <path d="M106.512432,45.8492051 L61.7539797,45.8492051 C60.0986983,45.8492051 58.7568983,44.5219878 58.7568983,42.884696 L58.7568983,34.4424101 C58.7568983,34.1752816 58.7957459,33.9178109 58.8628463,33.6716418 C57.440235,33.9023997 56.3533333,35.1207108 56.3533333,36.5932049 L56.3533333,45.0354908 C56.3533333,46.6727827 57.6951334,48 59.3504148,48 L104.108867,48 C105.493877,48 106.656396,47.0691602 107,45.8064646 C106.84087,45.8323555 106.678832,45.8492051 106.512432,45.8492051 Z" id="Shape" fill="#000000" opacity="0.15"></path>
                    <path d="M62.2233766,18.6268657 L100.416415,18.6268657 C101.688675,18.6268657 102.72,19.6504973 102.72,20.9130591 L102.72,32.9552239 L59.92,32.9552239 L59.92,20.9130591 C59.92,19.6504973 60.9513253,18.6268657 62.2233766,18.6268657 Z" id="Shape" fill="#E8E8E8"></path>
                    <rect id="Rectangle-path" fill="#000000" opacity="0.15" x="69.1933333" y="18.6268657" width="3.56666667" height="14.3283582"></rect>
                    <rect id="Rectangle-path" fill="#000000" opacity="0.15" x="79.8933333" y="18.6268657" width="3.56666667" height="14.3283582"></rect>
                    <rect id="Rectangle-path" fill="#000000" opacity="0.15" x="90.5933333" y="18.6268657" width="3.56666667" height="14.3283582"></rect>
                    <path d="M63.3936304,31.0738039 C62.8185164,31.0738039 62.3520837,30.6108507 62.3520837,30.040027 L62.3520837,19.0316391 C62.3520837,18.8933329 62.3664772,18.7585464 62.3902577,18.6268657 L62.2235852,18.6268657 C60.9513253,18.6268657 59.92,19.6504973 59.92,20.9130591 L59.92,32.9552239 L102.72,32.9552239 L102.72,31.0738039 L63.3936304,31.0738039 Z" id="Shape" fill="#000000" opacity="0.1"></path>
                    <path d="M94.7572869,2.6957025 L69.1823711,2.6957025 C62.8127016,2.6957025 56.4737198,1.81505815 50.3451676,0.0792469618 C48.6832333,-0.39146026 47.2457155,1.32346774 47.9989198,2.87822162 C52.6634417,12.5097601 62.4208601,18.6268657 73.1193662,18.6268657 L94.7572869,18.6268657 C99.155223,18.6268657 102.72,15.0604336 102.72,10.6613885 C102.72,6.26213459 99.1548055,2.6957025 94.7572869,2.6957025 Z" id="Shape" fill="#6DABE4"></path>
                    <path d="M71.0196554,11.7020453 C65.8662883,11.7020453 60.8347596,10.3022971 56.4682219,7.65408089 C53.4609243,5.83022162 50.8669994,3.47303822 48.8095397,0.71641791 C47.9616866,1.19169727 47.5008741,2.24985116 47.998468,3.24409514 C48.819362,4.88411231 49.8009657,6.41633208 50.914857,7.83226009 C52.0799498,8.80061651 53.3206952,9.68989454 54.6337494,10.4863414 C59.5507543,13.4684666 65.2169712,15.0447761 71.0194464,15.0447761 L101.450206,15.0447761 C102.123138,14.0648916 102.569322,12.9274571 102.72,11.7020453 L71.0196554,11.7020453 Z" id="Shape" fill="#77E0C1"></path>
                    <ellipse id="Oval" fill="#000000" opacity="0.15" cx="80.25" cy="7.52238806" rx="1.78333333" ry="1.79104478"></ellipse>
                    <g id="Group" transform="translate(64.200000, 5.731343)" fill="#FFFFFF">
                        <ellipse id="Oval" cx="1.97756649" cy="2.02853731" rx="1.88381947" ry="1.90629851"></ellipse>
                        <ellipse id="Oval" cx="29.4169468" cy="2.92202985" rx="1.88381947" ry="1.90629851"></ellipse>
                    </g>
                    <path d="M96.1669893,17.2836144 L74.5157316,17.2836144 C63.8104223,17.2836144 54.0471987,11.1348343 49.3798016,1.45342347 C49.2617798,1.20845466 49.2030823,0.960337153 49.1851179,0.71641791 C48.1070461,1.06907224 47.4317107,2.33610885 47.998842,3.51309267 C52.666239,13.1945035 62.4296716,19.3432836 73.134772,19.3432836 L94.7858208,19.3432836 C97.9822274,19.3432836 100.737253,17.4513351 102.006667,14.7216227 C100.551552,16.296812 98.4743679,17.2836144 96.1669893,17.2836144 Z" id="Shape" fill="#000000" opacity="0.1"></path>
                </g>
                <g id="sun" transform="translate(6.000000, 23.000000)">
                    <polygon id="Shape" fill="#F5C525" points="43 21 38.4721 24.8822194 40.8743667 30.3468813 35.1090905 31.8688196 34.9062738 37.8369999 29.0520286 36.7117234 26.2836476 42 21.5 38.4334282 16.7163524 42 13.9479714 36.7117234 8.09372619 37.8369999 7.89080714 31.8688196 2.12563333 30.3467787 4.5279 24.8823219 0 21 4.5279 17.1177806 2.12563333 11.6531187 7.89090952 10.1311804 8.09372619 4.16300011 13.9479714 5.28827663 16.7163524 0 21.5 3.56657177 26.2835452 0 29.0520286 5.28827663 34.9062738 4.16300011 35.1091929 10.1311804 40.8743667 11.6532213 38.4721 17.1176781"></polygon>
                    <ellipse id="Oval" fill="#F8A805" cx="22.2166667" cy="20.6440678" rx="14.3333333" ry="14.2372881"></ellipse>
                </g>
            </g>
        </g>
    </g>
</svg>