<?xml version="1.0" encoding="UTF-8"?>
<svg width="93px" height="93px" viewBox="0 0 93 93" version="1.1" xmlns="http://www.w3.org/2000/svg" xmlns:xlink="http://www.w3.org/1999/xlink">
    <!-- Generator: Sketch 50 (54983) - http://www.bohemiancoding.com/sketch -->
    <title>Artboard</title>
    <desc>Created with Sketch.</desc>
    <defs></defs>
    <g id="Artboard" stroke="none" stroke-width="1" fill="none" fill-rule="evenodd">
        <g id="burger" transform="translate(23.000000, 24.000000)" fill-rule="nonzero">
            <path d="M23.5,26.0011762 C11.073052,26.0011762 1,25.7081843 1,34.3708276 C1,43.0296299 11.073143,45 23.5,45 C35.926857,45 46,43.0296299 46,34.3708276 C45.999909,25.7081843 35.926948,26.0011762 23.5,26.0011762" id="Shape" fill="#D99E82"></path>
            <path d="M45.9121921,27.3119017 C45.9121921,27.3119017 34.9775004,26.0537636 24.0001,26 C13.0226996,26.0536759 2.08800785,27.3119017 2.08800785,27.3119017 C1.00632918,35.5897398 9.9867352,39 24.0001,39 C38.0134648,39 46.9925019,35.5898275 45.9121921,27.3119017" id="Shape" fill="#662113"></path>
            <path d="M44.0406276,24 L1.84873538,24.8329267 C0.391752965,24.8329267 -0.828107537,27.7068688 0.717636605,28.4585192 C12.2513918,31.9512751 21.5228585,35.4840942 21.5228585,35.4840942 C22.7984109,36.1700339 23.2275016,36.1725986 24.5043259,35.4879856 C24.5043259,35.4879856 37.3070012,30.5007728 45.5307707,28.4056322 C46.6963021,28.1078552 45.49761,24 44.0406276,24" id="Shape" fill="#FFCC4D"></path>
            <path d="M45.9624594,23.4616156 C43.419692,21.1828326 43.5669339,22.3957793 41.6183662,21.8608973 C40.8783016,21.6578171 35.5841129,15 23.5140458,15 C23.5087216,15 23.5046826,15.001339 23.5006435,15.001339 C23.4953193,15.001339 23.4912803,15 23.4872412,15 C11.4159808,15 6.12170035,21.6579063 5.3816357,21.8608973 C3.43306805,22.3957793 3.58030989,21.1828326 1.03754248,23.4616156 C-0.129376627,24.5079027 -0.445248925,25.0518898 0.785927844,25.3226337 C2.6408629,25.7312043 2.47214064,26.8218565 3.80108085,27.2017727 C5.40963368,27.6612249 6.07084501,26.8217673 8.66575292,27.1653522 C10.8779606,27.4568057 11.0211633,30.2483328 13.2533827,30.2483328 C15.485602,30.2483328 15.4856938,29.2072232 17.7179131,29.2072232 C19.9488473,29.2072232 21.2684242,32 23.5006435,32 C25.7315777,32 27.0511547,29.2072232 29.281997,29.2072232 C31.5143081,29.2072232 31.5143081,30.2483328 33.7465275,30.2483328 C35.9788386,30.2483328 36.1233265,27.456895 38.3354424,27.1653522 C40.9290651,26.8218565 41.5914698,27.6612249 43.1987375,27.2017727 C44.5276777,26.8217673 44.3590472,25.7312043 46.2138905,25.3226337 C47.4452508,25.0518898 47.1294703,24.5079027 45.9624594,23.4616156" id="Shape" fill="#77B255"></path>
            <path d="M45,21.1701444 C45,25.1301133 35.3739955,27 23.5000459,27 C11.6260962,27 2,25.1302043 2,21.1701444 C2,14 3.29193092,14 23.4999541,14 C43.7079773,14 45,14 45,21.1701444" id="Shape" fill="#DD2E44"></path>
            <path d="M23.5,0 C11.073143,0 1,5.79855072 1,14.5815217 C1,22.669837 11.073143,23 23.5,23 C35.926857,23 46,22.669837 46,14.5815217 C45.999909,5.79855072 35.926948,0 23.5,0" id="Shape" fill="#D99E82"></path>
            <g id="Group" transform="translate(5.000000, 3.000000)" fill="#FFE8B6">
                <path d="M8.5876747,1.45458699 C7.92204877,1.03097588 7.03858162,1.2255117 6.6120676,1.88888889 C6.18839578,2.55089547 6.38221578,3.43274854 7.04784171,3.85517178 C7.71346764,4.28006213 9.40036178,4.59713085 9.82669244,3.93375365 C10.2518312,3.27028509 9.25339231,1.8781981 8.5876747,1.45458699" id="Shape"></path>
                <path d="M21.5978194,0.0762061404 C20.8466523,0.318622076 19.527411,1.41639254 19.7719323,2.16502193 C20.01517,2.91365132 21.7287442,3.02951389 22.480003,2.78581871 C23.2325453,2.54340278 23.6415477,1.73876096 23.3982184,0.990131579 C23.1536054,0.242781433 22.3463277,-0.167580409 21.5978194,0.0762061404" id="Shape"></path>
                <path d="M36.1790614,9.4474598 C35.5749554,8.94124635 34.0605189,9.7471674 33.5512142,10.3493238 C33.0432848,10.9527595 33.122133,11.8506031 33.7263307,12.3581871 C34.3304366,12.8644006 35.232699,12.7858187 35.7406284,12.182383 C36.2498414,11.5802266 36.7845426,9.95367325 36.1790614,9.4474598" id="Shape"></path>
                <path d="M31.3105486,2.78664108 C30.6449227,2.36302997 29.7614555,2.55756579 29.3349415,3.22094298 C28.9098944,3.88294956 29.1050897,4.76480263 29.7719992,5.18722588 C30.4376251,5.61211623 32.123144,5.92918494 32.5495664,5.26580775 C32.9747051,4.60233918 31.9762662,3.21034357 31.3105486,2.78664108" id="Shape"></path>
                <path d="M11.2609971,12.111568 C10.5953712,11.6879569 9.71190405,11.8824927 9.28539003,12.5458699 C8.86034295,13.2078765 9.05553821,14.0897295 9.72244772,14.5121528 C10.3880736,14.9370431 12.0735925,15.2541118 12.5000149,14.5894554 C12.9250619,13.9272661 11.9266231,12.5351791 11.2609971,12.111568" id="Shape"></path>
                <path d="M15.3323174,5.70732822 C14.8831574,6.35480629 14.5035856,8.02384868 15.1545421,8.47149123 C15.804215,8.91913377 17.2356775,7.97331871 17.6848374,7.32584064 C18.1339974,6.67836257 17.9707999,5.7912098 17.3199351,5.34365863 C16.6702622,4.89601608 15.7800104,5.05985015 15.3323174,5.70732822" id="Shape"></path>
                <path d="M25.9639954,12.111568 C25.2983695,11.6879569 24.4149024,11.8824927 23.9883883,12.5458699 C23.5633413,13.2078765 23.7585365,14.0897295 24.425446,14.5121528 C25.091072,14.9370431 26.7765908,15.2541118 27.2030132,14.5894554 C27.6281519,13.9272661 26.6297131,12.5351791 25.9639954,12.111568" id="Shape"></path>
                <path d="M0.787015562,6.93457602 C0.259007335,7.52074196 -0.326395084,9.12993421 0.263041431,9.65478801 C0.84981911,10.1796418 2.3896521,9.42169225 2.91628506,8.83552632 C3.44429329,8.24798977 3.39340866,7.34886696 2.80534741,6.82264254 C2.21728615,6.29778874 1.31374021,6.34841009 0.787015562,6.93457602" id="Shape"></path>
            </g>
        </g>
    </g>
</svg>