<?xml version="1.0" encoding="UTF-8"?>
<svg width="93px" height="93px" viewBox="0 0 93 93" version="1.1" xmlns="http://www.w3.org/2000/svg" xmlns:xlink="http://www.w3.org/1999/xlink">
    <!-- Generator: Sketch 50 (54983) - http://www.bohemiancoding.com/sketch -->
    <title>Artboard</title>
    <desc>Created with Sketch.</desc>
    <defs></defs>
    <g id="Artboard" stroke="none" stroke-width="1" fill="none" fill-rule="evenodd">
        <g id="candy" transform="translate(20.000000, 20.000000)" fill-rule="nonzero">
            <path d="M41.725,3.245 C41.248,3.394 40.8,2.946 40.948,2.468 L41.468,0.798 C41.636,0.259 41.051,-0.199 40.566,0.088 C39.129,0.939 37.007,2.356 36.555,3.532 L34.57,13.34 C29.653,11.226 22.727,13.019 17.559,18.187 C12.407,23.339 10.607,30.238 12.69,35.152 L3.769,36.474 C2.498,36.963 1.018,39.084 0.124,40.536 C-0.181,41.031 0.289,41.638 0.844,41.465 L2.446,40.966 C2.924,40.817 3.373,41.266 3.224,41.744 L2.6,43.752 C2.451,44.23 2.9,44.679 3.378,44.53 L5.383,43.906 C5.861,43.757 6.31,44.206 6.161,44.684 L5.537,46.689 C5.388,47.167 5.837,47.616 6.315,47.467 L8.32,46.843 C8.798,46.694 9.247,47.143 9.098,47.621 L8.474,49.626 C8.325,50.104 8.774,50.553 9.252,50.404 L11.257,49.78 C11.735,49.631 12.184,50.08 12.035,50.558 L11.536,52.16 C11.363,52.715 11.97,53.185 12.465,52.88 C13.917,51.985 16.039,50.506 16.527,49.235 L17.897,40.188 C22.791,42.086 29.524,40.261 34.577,35.208 C39.647,30.138 41.469,23.378 39.541,18.48 L49.469,16.449 C50.616,16.008 51.993,13.978 52.85,12.544 C53.162,12.021 52.664,11.392 52.083,11.573 L50.534,12.055 C50.057,12.204 49.609,11.756 49.757,11.278 L50.383,9.268 C50.532,8.791 50.084,8.343 49.606,8.491 L47.596,9.117 C47.119,9.266 46.671,8.818 46.819,8.34 L47.445,6.33 C47.594,5.853 47.146,5.405 46.668,5.553 L44.658,6.179 C44.181,6.328 43.733,5.88 43.881,5.402 L44.507,3.392 C44.656,2.915 44.208,2.467 43.73,2.615 L41.725,3.245 Z" id="Shape" fill="#D13834"></path>
            <path d="M31.811,20.747 C30.336,19.272 28.454,18.456 26.526,18.292 L22.661,14.427 C20.869,15.36 19.132,16.615 17.559,18.188 C15.858,19.889 14.531,21.782 13.579,23.73 L17.335,27.486 C17.5,29.412 18.316,31.294 19.79,32.768 C21.264,34.242 23.145,35.058 25.072,35.223 L29.035,39.186 C30.983,38.235 32.877,36.909 34.578,35.207 C36.15,33.635 37.409,31.899 38.341,30.108 L34.265,26.032 C34.102,24.104 33.286,22.222 31.811,20.747 Z" id="Shape" fill="#E3E82A"></path>
            <circle id="Oval" fill="#3DABEF" cx="25.8" cy="26.757" r="4.5"></circle>
            <path d="M37.335,16.949 C37.107,16.949 36.877,16.872 36.69,16.713 C36.268,16.357 36.215,15.726 36.572,15.304 C38.013,13.6 39.311,13.555 40.686,13.507 C41.122,13.492 41.573,13.477 42.087,13.412 C42.628,13.35 43.135,13.732 43.203,14.28 C43.271,14.828 42.883,15.328 42.335,15.396 C41.731,15.471 41.213,15.49 40.755,15.505 C39.491,15.549 38.968,15.567 38.099,16.594 C37.901,16.828 37.619,16.949 37.335,16.949 Z" id="Shape" fill="#F75B57"></path>
            <path d="M36.523,16.231 C36.172,16.231 35.833,16.046 35.649,15.719 C35.379,15.238 35.551,14.628 36.033,14.358 C38.045,13.232 39.32,10.443 38.998,7.87 C38.929,7.322 39.318,6.822 39.866,6.754 C40.41,6.691 40.914,7.073 40.982,7.622 C41.406,11.012 39.735,14.579 37.009,16.104 C36.856,16.19 36.688,16.231 36.523,16.231 Z" id="Shape" fill="#F75B57"></path>
            <path d="M9.52,40.29 C9.023,40.29 8.593,39.92 8.529,39.414 C8.46,38.866 8.849,38.366 9.397,38.298 C10.001,38.222 10.521,38.204 10.979,38.189 C12.242,38.145 12.765,38.126 13.633,37.1 C13.989,36.677 14.621,36.624 15.042,36.982 C15.464,37.338 15.517,37.969 15.16,38.391 C13.72,40.094 12.422,40.14 11.048,40.187 C10.611,40.203 10.16,40.218 9.646,40.283 C9.604,40.287 9.562,40.29 9.52,40.29 Z" id="Shape" fill="#F75B57"></path>
            <path d="M11.74,46.949 C11.243,46.949 10.812,46.579 10.749,46.073 C10.325,42.683 11.996,39.115 14.722,37.59 C15.203,37.321 15.813,37.494 16.083,37.975 C16.353,38.456 16.181,39.066 15.699,39.336 C13.687,40.462 12.412,43.251 12.734,45.825 C12.803,46.373 12.414,46.873 11.866,46.941 C11.824,46.946 11.782,46.949 11.74,46.949 Z" id="Shape" fill="#F75B57"></path>
        </g>
    </g>
</svg>