<?xml version="1.0" encoding="UTF-8"?>
<svg width="100px" height="100px" viewBox="0 0 100 100" version="1.1" xmlns="http://www.w3.org/2000/svg" xmlns:xlink="http://www.w3.org/1999/xlink">
    <!-- Generator: Sketch 51.2 (57519) - http://www.bohemiancoding.com/sketch -->
    <title>candy</title>
    <desc>Created with Sketch.</desc>
    <defs></defs>
    <g id="Icons" stroke="none" stroke-width="1" fill="none" fill-rule="evenodd">
        <g id="Artboard" transform="translate(-265.000000, -701.000000)" fill-rule="nonzero">
            <g id="candy" transform="translate(265.000000, 701.000000)">
                <path d="M78.7264151,6.12264151 C77.8264151,6.40377358 76.9811321,5.55849057 77.2603774,4.65660377 L78.2415094,1.50566038 C78.5584906,0.488679245 77.454717,-0.375471698 76.5396226,0.166037736 C73.8283019,1.77169811 69.8245283,4.44528302 68.9716981,6.66415094 L65.2264151,25.1698113 C55.9490566,21.1811321 42.8811321,24.5641509 33.1301887,34.3150943 C23.409434,44.0358491 20.0132075,57.0528302 23.9433962,66.3245283 L7.11132075,68.8188679 C4.71320755,69.7415094 1.92075472,73.7433962 0.233962264,76.4830189 C-0.341509434,77.4169811 0.545283019,78.5622642 1.59245283,78.2358491 L4.61509434,77.2943396 C5.51698113,77.0132075 6.36415094,77.8603774 6.08301887,78.7622642 L4.90566038,82.5509434 C4.6245283,83.4528302 5.47169811,84.3 6.37358491,84.0188679 L10.1566038,82.8415094 C11.0584906,82.5603774 11.9056604,83.4075472 11.6245283,84.309434 L10.4471698,88.0924528 C10.1660377,88.9943396 11.0132075,89.8415094 11.9150943,89.5603774 L15.6981132,88.3830189 C16.6,88.1018868 17.4471698,88.9490566 17.1660377,89.8509434 L15.9886792,93.6339623 C15.7075472,94.5358491 16.554717,95.3830189 17.4566038,95.1018868 L21.2396226,93.9245283 C22.1415094,93.6433962 22.9886792,94.490566 22.7075472,95.3924528 L21.7660377,98.4150943 C21.4396226,99.4622642 22.5849057,100.349057 23.5188679,99.7735849 C26.2584906,98.0849057 30.2622642,95.2943396 31.1830189,92.8962264 L33.7679245,75.8264151 C43.0018868,79.4075472 55.7056604,75.9641509 65.2396226,66.4301887 C74.8056604,56.8641509 78.2433962,44.109434 74.6056604,34.8679245 L93.3377358,31.0358491 C95.5018868,30.2037736 98.1,26.3735849 99.7169811,23.6679245 C100.30566,22.6811321 99.3660377,21.4943396 98.2698113,21.8358491 L95.3471698,22.745283 C94.4471698,23.0264151 93.6018868,22.1811321 93.8811321,21.2792453 L95.0622642,17.4867925 C95.3433962,16.5867925 94.4981132,15.7415094 93.5962264,16.0207547 L89.8037736,17.2018868 C88.9037736,17.4830189 88.0584906,16.6377358 88.3377358,15.7358491 L89.5188679,11.9433962 C89.8,11.0433962 88.954717,10.1981132 88.0528302,10.4773585 L84.2603774,11.6584906 C83.3603774,11.9396226 82.5150943,11.0943396 82.7943396,10.1924528 L83.9754717,6.4 C84.2566038,5.5 83.4113208,4.65471698 82.509434,4.93396226 L78.7264151,6.12264151 Z" id="Shape" fill="#D13834"></path>
                <path d="M60.0207547,39.145283 C57.2377358,36.3622642 53.6867925,34.8226415 50.0490566,34.5132075 L42.7566038,27.2207547 C39.3754717,28.9811321 36.0981132,31.3490566 33.1301887,34.3169811 C29.9207547,37.5264151 27.4169811,41.0981132 25.6207547,44.7735849 L32.7075472,51.8603774 C33.0188679,55.4943396 34.5584906,59.045283 37.3396226,61.8264151 C40.1207547,64.6075472 43.6698113,66.1471698 47.3056604,66.4584906 L54.7830189,73.9358491 C58.4584906,72.1415094 62.0320755,69.6396226 65.2415094,66.4283019 C68.2075472,63.4622642 70.5830189,60.1867925 72.3415094,56.8075472 L64.6509434,49.1169811 C64.3433962,45.4792453 62.8037736,41.9283019 60.0207547,39.145283 Z" id="Shape" fill="#E3E82A"></path>
                <circle id="Oval" fill="#3DABEF" cx="48.6792453" cy="50.4849057" r="8.49056604"></circle>
                <path d="M70.4433962,31.9792453 C70.0132075,31.9792453 69.5792453,31.8339623 69.2264151,31.5339623 C68.4301887,30.8622642 68.3301887,29.6716981 69.0037736,28.8754717 C71.7226415,25.6603774 74.1716981,25.5754717 76.7660377,25.4849057 C77.5886792,25.4566038 78.4396226,25.4283019 79.409434,25.3056604 C80.4301887,25.1886792 81.3867925,25.909434 81.5150943,26.9433962 C81.6433962,27.9773585 80.9113208,28.9207547 79.8773585,29.0490566 C78.7377358,29.190566 77.7603774,29.2264151 76.8962264,29.254717 C74.5113208,29.3377358 73.5245283,29.3716981 71.8849057,31.309434 C71.5113208,31.7509434 70.9792453,31.9792453 70.4433962,31.9792453 Z" id="Shape" fill="#F75B57"></path>
                <path d="M68.9113208,30.6245283 C68.2490566,30.6245283 67.609434,30.2754717 67.2622642,29.6584906 C66.7528302,28.7509434 67.0773585,27.6 67.9867925,27.090566 C71.7830189,24.9660377 74.1886792,19.7037736 73.5811321,14.8490566 C73.4509434,13.8150943 74.1849057,12.8716981 75.2188679,12.7433962 C76.245283,12.6245283 77.1962264,13.345283 77.3245283,14.3811321 C78.1245283,20.7773585 74.9716981,27.5075472 69.8283019,30.3849057 C69.5396226,30.5471698 69.2226415,30.6245283 68.9113208,30.6245283 Z" id="Shape" fill="#F75B57"></path>
                <path d="M17.9622642,76.0188679 C17.0245283,76.0188679 16.2132075,75.3207547 16.0924528,74.3660377 C15.9622642,73.3320755 16.6962264,72.3886792 17.7301887,72.2603774 C18.8698113,72.1169811 19.8509434,72.0830189 20.7150943,72.054717 C23.0981132,71.9716981 24.0849057,71.9358491 25.7226415,70 C26.3943396,69.2018868 27.5867925,69.1018868 28.3811321,69.7773585 C29.1773585,70.4490566 29.2773585,71.6396226 28.6037736,72.4358491 C25.8867925,75.6490566 23.4377358,75.7358491 20.845283,75.8245283 C20.0207547,75.854717 19.1698113,75.8830189 18.2,76.0056604 C18.1207547,76.0132075 18.0415094,76.0188679 17.9622642,76.0188679 Z" id="Shape" fill="#F75B57"></path>
                <path d="M22.1509434,88.5830189 C21.2132075,88.5830189 20.4,87.8849057 20.2811321,86.9301887 C19.4811321,80.5339623 22.6339623,73.8018868 27.7773585,70.9245283 C28.6849057,70.4169811 29.8358491,70.7433962 30.345283,71.6509434 C30.854717,72.5584906 30.5301887,73.709434 29.6207547,74.2188679 C25.8245283,76.3433962 23.4188679,81.6056604 24.0264151,86.4622642 C24.1566038,87.4962264 23.4226415,88.4396226 22.3886792,88.5679245 C22.309434,88.5773585 22.2301887,88.5830189 22.1509434,88.5830189 Z" id="Shape" fill="#F75B57"></path>
            </g>
        </g>
    </g>
</svg>