<?xml version="1.0" encoding="UTF-8"?>
<svg width="31px" height="36px" viewBox="0 0 31 36" version="1.1" xmlns="http://www.w3.org/2000/svg" xmlns:xlink="http://www.w3.org/1999/xlink">
    <!-- Generator: Sketch 50.2 (55047) - http://www.bohemiancoding.com/sketch -->
    <title>caries</title>
    <desc>Created with Sketch.</desc>
    <defs></defs>
    <g id="Page-1" stroke="none" stroke-width="1" fill="none" fill-rule="evenodd">
        <g id="⟶-Questions" transform="translate(-305.000000, -221.000000)" fill-rule="nonzero">
            <g id="caries" transform="translate(305.000000, 221.000000)">
                <path d="M30.4548606,6.53472918 C32.047595,12.8479622 29.7732482,20.3764958 28.4458647,26.588179 C27.8686321,29.2878213 27.3863474,32.0520863 26.0621079,34.4853252 C23.9663385,38.3369645 22.2962625,33.3076112 21.6379155,31.1803405 C20.8286581,28.5657626 20.5651935,25.1882423 18.0745417,23.6326839 C15.5933219,22.0830601 13.2913082,23.6669734 11.8538858,25.872055 C10.3975997,28.1061508 9.8455188,30.7022651 8.92182088,33.1869384 C8.49486996,34.3362976 8.0239035,35.4856568 6.86503674,36 C5.63511629,36 4.78121447,33.6439125 4.32974061,32.4998286 C1.86486937,26.2578124 1.10717298,19.1842747 0.15517934,12.5492475 C-0.514485933,7.88125329 0.928595571,2.33294095 5.55274432,0.61450715 C8.06540388,-0.31922357 11.5067917,0.541971571 14.0225952,1.31942109 C15.4681919,1.76650402 15.2015834,1.62077345 16.6415209,1.09653904 C16.7521886,1.05631476 16.8609699,1.00224279 16.9741528,0.952786711 C20.0558706,-0.383846176 23.7707837,-0.394396806 26.4827709,1.4348186 C28.3131893,2.66990168 29.9254163,4.43581331 30.4548606,6.53472918 Z" id="Shape" fill="#ECE3D2"></path>
                <path d="M29,4.3346204 C28.6261178,4.01755577 28.2368178,3.71847589 27.8327423,3.44937062 C25.0613886,1.6016032 21.2666769,1.61226083 18.118229,2.96244993 C18.0025953,3.01174149 17.8921009,3.06702797 17.7783945,3.1076602 C16.3072772,3.63654533 16.5790163,3.78375391 15.1027598,3.33280274 C12.5331226,2.54746828 9.01657416,1.67753885 6.44950663,2.62073952 C5.50388015,2.96844485 4.69380204,3.4760147 4,4.09548972 C6.80154692,7.06230879 11.4069791,9 16.6194881,9 C21.6893823,9 26.1798232,7.16422242 29,4.3346204 Z" id="Shape" fill="#F7EDDF"></path>
                <path d="M2.79148217,12 C2.46738672,12 2.18263619,11.7818133 2.13328832,11.4763518 C1.59979787,8.21092611 2.61676405,4.17662263 6.11045966,3.03590549 C6.45656159,2.92158793 6.83867413,3.08937661 6.96137694,3.40958869 C7.0847466,3.72980077 6.90269299,4.08074338 6.55592419,4.19383172 C3.7751052,5.10222608 2.99754286,8.51024144 3.45167661,11.2938125 C3.50635938,11.6293899 3.25561887,11.9422266 2.89151163,11.9932393 C2.85750161,11.9975416 2.82415846,12 2.79148217,12 Z" id="Shape" fill="#FFFFFF"></path>
                <path d="M17.8979534,23.5965083 C15.4003094,22.1052686 13.0830579,23.629506 11.6361207,25.7508738 C11.4000281,26.0967145 11.1943175,26.454612 11,26.816317 C11.056966,26.9527496 11.1120332,27.0847401 11.1746958,27.2338641 C11.8848724,28.9186477 13.8394402,32.6137493 16.1972009,31.9125494 C17.3896899,31.5578247 18.0175821,30.2004793 18.5144525,29.1769177 C18.9005556,28.3818014 19.6366833,27.1589848 20,26.0789465 C19.5366763,25.0788641 18.9005556,24.1949079 17.8979534,23.5965083 Z" id="Shape" fill="#DDD3C3"></path>
                <path d="M18.9983905,10.4323508 C19.0126501,6.29242723 19.0070703,4.48871485 15.5376498,2.03175876 C15.1526409,2.15928712 14.9145677,2.10841145 14.0366729,1.82486433 C13.1184792,1.52842871 12.0756691,1.22181796 11,1 L13.7316416,2.4150222 C17.7776456,4.91878392 17.7745457,5.97631968 17.7590461,10.4276024 L17.7565662,11.3216576 C17.7565662,11.696781 18.0343182,12 18.3765484,12 C18.7187786,12 18.9965306,11.696781 18.9965306,11.3216576 L18.9983905,10.4323508 Z" id="Shape" fill="#FFF6EB"></path>
                <circle id="Oval" fill="#B5A896" cx="7.5" cy="10.5" r="2.5"></circle>
                <circle id="Oval" fill="#B5A896" cx="25.5" cy="17.5" r="2.5"></circle>
                <path d="M7.5,10 C8.57184325,10 9.49709724,9.5955 10,9 C9.49709724,8.4045 8.57184325,8 7.5,8 C6.42815675,8 5.50290276,8.4045 5,9 C5.50290276,9.5955 6.42815675,10 7.5,10 Z" id="Shape" fill="#6B5B4B"></path>
                <path d="M25.5,17 C26.5718433,17 27.4970972,16.5955 28,16 C27.4970972,15.4045 26.5718433,15 25.5,15 C24.4281567,15 23.5029028,15.4045 23,16 C23.5029028,16.5955 24.4281567,17 25.5,17 Z" id="Shape" fill="#6B5B4B"></path>
            </g>
        </g>
    </g>
</svg>