<?xml version="1.0" encoding="UTF-8"?>
<svg width="100px" height="100px" viewBox="0 0 100 100" version="1.1" xmlns="http://www.w3.org/2000/svg" xmlns:xlink="http://www.w3.org/1999/xlink">
    <!-- Generator: Sketch 51.2 (57519) - http://www.bohemiancoding.com/sketch -->
    <title>Group 5</title>
    <desc>Created with Sketch.</desc>
    <defs></defs>
    <g id="Icons" stroke="none" stroke-width="1" fill="none" fill-rule="evenodd">
        <g id="Artboard" transform="translate(-223.000000, -49.000000)" fill-rule="nonzero">
            <g id="carrot" transform="translate(223.000000, 49.000000)">
                <g id="Group-5">
                    <path d="M96.352641,18.3969816 L85.8064749,18.3969816 L94.0530908,10.1503657 C95.3232891,8.88113468 95.3232891,6.82107667 94.0530908,5.55165225 C92.7828926,4.28145402 90.7245757,4.28145402 89.4543774,5.55165225 L81.2077615,13.7982682 L81.2077615,3.2521021 C81.2077615,1.45571758 79.7510767,0 77.9556594,0 C76.1602421,0 74.7035573,1.45571758 74.7035573,3.2521021 L74.7035573,21.6490837 C74.7035573,23.424382 76.15676,24.9011858 77.9556594,24.9011858 L96.352641,24.9011858 C98.1480582,24.9011858 99.6047431,23.4454682 99.6047431,21.6490837 C99.6047431,19.8526992 98.1480582,18.3969816 96.352641,18.3969816 Z" id="Shape" fill="#91DC5A"></path>
                    <path d="M96.352641,18.3969816 L85.8064749,18.3969816 L94.0530908,10.1503657 C95.3232891,8.88113468 95.3232891,6.82107667 94.0530908,5.55165225 C92.7828926,4.28145402 90.7245757,4.28145402 89.4543774,5.55165225 L81.2077615,13.7982682 L81.2077615,3.2521021 C81.2077615,1.45571758 79.7510767,0 77.9556594,0 C76.1602421,0 74.7035573,1.45571758 74.7035573,3.2521021 L74.7035573,21.6490837 C74.7035573,23.424382 76.15676,24.9011858 77.9556594,24.9011858 L96.352641,24.9011858 C98.1480582,24.9011858 99.6047431,23.4454682 99.6047431,21.6490837 C99.6047431,19.8526992 98.1480582,18.3969816 96.352641,18.3969816 Z" id="Shape" fill="#88CC2A"></path>
                    <path d="M80.4332696,19.1111639 C70.2537579,8.9282287 55.7309206,6.84840847 48.0924973,14.4894491 C47.1993463,15.3828835 45.5669554,17.262478 43.4261914,19.8967096 C42.2250238,21.3758527 40.8390462,23.1010985 39.3452143,25.0269588 C35.8645294,29.4943248 31.7221433,34.9943111 27.4717084,40.9099116 C26.2087431,42.666066 24.9302313,44.4682918 23.6523024,46.301815 C13.0720777,61.5213015 -6.08111413,89.7039446 1.89117191,97.6785651 C7.69723641,103.486471 23.7597682,95.0596907 36.6193159,87.0028415 C38.5750756,85.7859357 40.4540741,84.5530896 42.2250238,83.3978067 C49.3420537,78.730215 56.1563138,73.997307 64.0168588,68.1930942 C65.6908368,66.9654968 69.2838457,64.2490365 69.2838457,64.2490365 C72.5235586,61.7848996 82.1847862,54.3328098 85.0537131,51.462584 C92.9539019,43.559306 90.4437123,29.1245876 80.4332696,19.1111639 Z" id="Shape" fill="#FF9F19"></path>
                    <path d="M96.3289435,18.3882444 L85.7059295,18.3882444 L94.012637,10.1307963 C95.2899474,8.86202891 95.2915063,6.80546351 94.0190674,5.53359684 L75.4940711,23.9487386 C76.0854727,24.5337275 76.8978461,24.9011858 77.7979066,24.9011858 L96.3289435,24.9011858 C98.1372488,24.9009921 99.6047431,23.4435561 99.6047431,21.6448119 C99.6045482,19.8458741 98.1372488,18.3880507 96.3289435,18.3882444 Z" id="Shape" fill="#7FB335"></path>
                    <g id="Group" transform="translate(1.581028, 18.972332)" fill="#F28618">
                        <path d="M83.4267771,32.5146797 C80.5538832,35.3834449 70.8800234,42.8323253 67.6372431,45.2946255 C66.1073031,46.4563151 64.0798358,47.9801705 62.3636878,49.236676 C54.4849733,55.0441526 47.6610476,59.7748464 40.5446762,64.4336511 C38.7715179,65.5885404 36.8903707,66.8203705 34.9319774,68.0368513 C22.0563926,76.0896005 5.97382928,84.512093 0.160524043,78.7071422 L78.8007661,0.179917139 C88.8236927,10.1882452 91.3370128,24.6156179 83.4267771,32.5146797 Z" id="Shape"></path>
                        <path d="M48.7325699,12.5594209 C48.100397,13.1906853 47.2678123,13.4988371 46.4196616,13.5139921 C45.5868824,13.5139921 44.7542977,13.175336 44.1219302,12.5438773 L37.6612753,6.09250726 C39.1569702,4.16782132 40.5448708,2.4434535 41.7473418,0.964868803 L48.7323753,7.9398638 C50.0280475,9.20297538 50.012287,11.2815429 48.7325699,12.5594209 Z" id="Shape"></path>
                        <path d="M34.8549259,35.6556522 C34.222753,36.2869165 33.3901683,36.5950683 32.5420176,36.6102233 C31.7092384,36.6102233 30.8766537,36.2715672 30.2442862,35.6401086 L21.9485983,27.3563427 C23.2281208,25.5237526 24.5080325,23.7224439 25.7727674,21.9671832 L34.8547313,31.0360951 C36.1348376,32.3145559 36.134643,34.3777742 34.8549259,35.6556522 Z" id="Shape"></path>
                    </g>
                    <g id="Group" transform="translate(29.249012, 56.521739)" fill="#E67400">
                        <path d="M39.8463391,7.58388258 C39.8463391,7.58388258 36.9065294,9.82093603 34.5940213,11.5169482 L28.7118827,5.63295486 C27.4220097,4.37330379 27.4371254,2.29908613 28.696767,1.03943506 C29.9715242,-0.235724176 32.0295848,-0.235724176 33.3039545,1.03943506 L39.8463391,7.58388258 Z" id="Shape"></path>
                        <path d="M12.8630723,26.6792855 C11.0970548,27.8315425 9.22348325,29.0605649 7.27297671,30.2742731 L1.06856364,24.0679036 C-0.221309337,22.8082526 -0.206193638,20.7340349 1.06856364,19.4592634 C2.32781764,18.1996123 4.3858782,18.1996123 5.66063548,19.4743838 L12.8630723,26.6792855 Z" id="Shape"></path>
                    </g>
                </g>
            </g>
        </g>
    </g>
</svg>