<?xml version="1.0" encoding="UTF-8"?>
<svg width="93px" height="93px" viewBox="0 0 93 93" version="1.1" xmlns="http://www.w3.org/2000/svg" xmlns:xlink="http://www.w3.org/1999/xlink">
    <!-- Generator: Sketch 50 (54983) - http://www.bohemiancoding.com/sketch -->
    <title>Artboard</title>
    <desc>Created with Sketch.</desc>
    <defs></defs>
    <g id="Artboard" stroke="none" stroke-width="1" fill="none" fill-rule="evenodd">
        <g id="caries" transform="translate(26.000000, 23.000000)" fill-rule="nonzero">
            <path d="M40.2790091,8.70911011 C42.3855288,17.1230229 39.3775218,27.1566182 37.6219502,35.4351913 C36.8585135,39.0331189 36.220653,42.7171717 34.4692395,45.9600523 C31.6974155,51.0932948 29.4886053,44.3904629 28.6178883,41.5553593 C27.54758,38.0708007 27.1991269,33.5694364 23.9050391,31.4962778 C20.6234257,29.4310287 17.578827,31.541977 15.67772,34.4807825 C13.7516641,37.4582566 13.0214926,40.9182079 11.7998276,44.2296371 C11.2351506,45.7614368 10.6122595,47.2932365 9.07956472,47.9787234 C7.45289574,47.9787234 6.32354172,44.8386659 5.72643112,43.3138969 C2.46644013,34.9948977 1.46432555,25.5676947 0.205237192,16.7249131 C-0.680449137,10.5036798 1.22814253,3.10920912 7.34395216,0.818979682 C10.6671471,-0.42544276 15.21866,0.722308447 18.5460131,1.75844832 C20.4579312,2.35429466 20.10532,2.16007336 22.0097535,1.46140398 C22.1561204,1.40779539 22.2999925,1.33573137 22.4496859,1.26981917 C26.5255063,-0.511568042 31.4387785,-0.525629313 35.0256002,1.91224347 C37.4464761,3.55829095 39.5787764,5.9117961 40.2790091,8.70911011 Z" id="Shape" fill="#ECE3D2"></path>
            <path d="M39.2553191,5.81736718 C38.7595673,5.38272842 38.243372,4.97274355 37.7075851,4.60384848 C34.0328881,2.07089071 29.0012619,2.08550041 24.8265539,3.93636753 C24.6732285,4.00393742 24.5267177,4.07972527 24.3759478,4.13542478 C22.4253088,4.86043144 22.7856234,5.062228 20.82817,4.44405482 C17.4209405,3.36750211 12.7581468,2.17498486 9.35432454,3.46794384 C8.10046407,3.94458549 7.02633495,4.64037274 6.10638298,5.4895619 C9.82111498,9.55653879 15.9277221,12.212766 22.8392872,12.212766 C29.5617511,12.212766 35.5158847,9.69624411 39.2553191,5.81736718 Z" id="Shape" fill="#F7EDDF"></path>
            <path d="M3.72172831,14.8297872 C3.2693738,14.8297872 2.87193477,14.5548616 2.80305774,14.1699658 C2.05844128,10.055375 3.47786641,4.97196184 8.35417348,3.53460432 C8.83724342,3.39055879 9.37057496,3.60198045 9.54183675,4.00546282 C9.7140293,4.40894518 9.45992893,4.85114946 8.97592823,4.99364612 C5.09461491,6.13826595 4.00933641,10.4325264 4.64319118,13.9399576 C4.71951437,14.3628009 4.36954463,14.75699 3.86134389,14.8212684 C3.81387459,14.8266895 3.76733606,14.8297872 3.72172831,14.8297872 Z" id="Shape" fill="#FFFFFF"></path>
            <path d="M22.6491943,31.2835436 C19.5020448,29.4045111 16.5821982,31.3251222 14.7589889,33.9981459 C14.4615012,34.4339216 14.202296,34.8848894 13.9574468,35.3406547 C14.0292267,35.5125662 14.0986139,35.6788806 14.1775718,35.8667838 C15.0724278,37.9896908 17.5352757,42.6456936 20.5061657,41.7621485 C22.0087581,41.3151786 22.7999321,39.6048592 23.4260122,38.3151233 C23.9125204,37.3132391 24.8400761,35.7724324 25.2978723,34.4115331 C24.7140625,33.1513819 23.9125204,32.0375554 22.6491943,31.2835436 Z" id="Shape" fill="#DDD3C3"></path>
            <path d="M24.4234259,13.5886818 C24.4420848,8.00739223 24.4347835,5.57569487 19.8950099,2.26331887 C19.3912216,2.43524782 19.0797003,2.36665914 17.9309656,1.98439156 C16.7294994,1.58474819 15.3649713,1.17138707 13.9574468,0.872340426 L17.5318289,2.78002026 C22.8260681,6.15549785 22.8220119,7.58122789 22.8017305,13.5822802 L22.7984855,14.7876119 C22.7984855,15.2933391 23.161927,15.7021277 23.6097388,15.7021277 C24.0575507,15.7021277 24.4209922,15.2933391 24.4209922,14.7876119 L24.4234259,13.5886818 Z" id="Shape" fill="#FFF6EB"></path>
            <circle id="Oval" fill="#B5A896" cx="10.4680851" cy="13.9574468" r="3.4893617"></circle>
            <circle id="Oval" fill="#B5A896" cx="34.0212766" cy="23.5531915" r="3.4893617"></circle>
            <path d="M10.4680851,13.0851064 C11.9641046,13.0851064 13.255523,12.5558138 13.9574468,11.7765957 C13.255523,10.9973777 11.9641046,10.4680851 10.4680851,10.4680851 C8.97206559,10.4680851 7.68064725,10.9973777 6.9787234,11.7765957 C7.68064725,12.5558138 8.97206559,13.0851064 10.4680851,13.0851064 Z" id="Shape" fill="#6B5B4B"></path>
            <path d="M34.0212766,22.6808511 C35.5172961,22.6808511 36.8087144,22.1515585 37.5106383,21.3723404 C36.8087144,20.5931223 35.5172961,20.0638298 34.0212766,20.0638298 C32.5252571,20.0638298 31.2338387,20.5931223 30.5319149,21.3723404 C31.2338387,22.1515585 32.5252571,22.6808511 34.0212766,22.6808511 Z" id="Shape" fill="#6B5B4B"></path>
        </g>
    </g>
</svg>