<?xml version="1.0" encoding="UTF-8"?>
<svg width="149px" height="86px" viewBox="0 0 149 86" version="1.1" xmlns="http://www.w3.org/2000/svg" xmlns:xlink="http://www.w3.org/1999/xlink">
    <!-- Generator: Sketch 50.2 (55047) - http://www.bohemiancoding.com/sketch -->
    <title>Group 4</title>
    <desc>Created with Sketch.</desc>
    <defs>
        <path d="M0,4.99544665 C0,2.23653765 2.23656957,0 5.00010254,0 L143.999897,0 C146.761378,0 149,2.23413232 149,4.99544665 L149,86 L0,86 L0,4.99544665 Z" id="path-1"></path>
    </defs>
    <g id="Zilla-Slab/Lato" stroke="none" stroke-width="1" fill="none" fill-rule="evenodd">
        <g id="⟶-My-Courses" transform="translate(-201.000000, -167.000000)">
            <g id="Grid" transform="translate(20.000000, 162.000000)">
                <g id="2" transform="translate(176.000000, 0.000000)">
                    <g id="Group-4" transform="translate(5.000000, 5.000000)">
                        <mask id="mask-2" fill="white">
                            <use xlink:href="#path-1"></use>
                        </mask>
                        <use id="Mask-Copy-3" fill="#3FC9DD" xlink:href="#path-1"></use>
                        <g id="caries" mask="url(#mask-2)" fill-rule="nonzero">
                            <g transform="translate(55.000000, 21.000000)">
                                <path d="M38.3141794,7.98689122 C40.3179421,15.7030649 37.4566671,24.904606 35.7867331,32.4966632 C35.0605372,35.7962261 34.4537919,39.1747721 32.7878132,42.1487308 C30.1512001,46.8562899 28.0501367,40.7093026 27.2218937,38.1093051 C26.2037956,34.9137099 25.8723402,30.7856295 22.7389396,28.8843914 C19.6174049,26.9904068 16.7213232,28.9263008 14.9129531,31.6214006 C13.0808512,34.3519621 12.3862978,37.5249907 11.2242263,40.5618136 C10.6870945,41.9665859 10.0945883,43.3713583 8.63665912,44 C7.08933985,44 6.01507627,41.1203375 5.44709302,39.7220128 C2.34612598,32.0928818 1.39289504,23.4474468 0.195225622,15.3379691 C-0.647256496,9.63264291 1.16823314,2.85137227 6.9857106,0.751064294 C10.1467984,-0.390162141 14.4762863,0.662409698 17.6413295,1.61262578 C19.4599834,2.15906047 19.1245727,1.98094532 20.936107,1.34021438 C21.0753341,1.29105138 21.212188,1.22496341 21.3545793,1.16451709 C25.2315792,-0.469145327 29.9051795,-0.482040541 33.3170343,1.75366718 C35.6198188,3.26321316 37.6481044,5.4215496 38.3141794,7.98689122 Z" id="Shape" fill="#ECE3D2"></path>
                                <path d="M36,3.6681376 C35.5363861,3.30577802 35.053654,2.96397245 34.5526005,2.65642356 C31.1161219,0.544689369 26.4106794,0.556869523 22.506604,2.09994278 C22.3632182,2.15627599 22.2262052,2.21946054 22.0852092,2.26589738 C20.2610237,2.87033752 20.5979803,3.03857589 18.7674221,2.52320313 C15.5810721,1.62567803 11.220552,0.631472966 8.03738822,1.70941659 C6.86481139,2.10679412 5.86031452,2.68687395 5,3.3948454 C8.47391818,6.78549576 14.1846541,9 20.6481653,9 C26.934834,9 32.5029808,6.90196848 36,3.6681376 Z" id="Shape" fill="#F7EDDF"></path>
                                <path d="M3.9497786,16 C3.56086406,16 3.21916343,15.7090844 3.15994599,15.3018024 C2.51975744,10.9479015 3.74011686,5.56883017 7.93255159,4.04787399 C8.34787391,3.89545058 8.80640896,4.11916881 8.95365232,4.54611825 C9.10169592,4.9730677 8.88323158,5.44099118 8.46710903,5.59177563 C5.13012624,6.8029681 4.19705143,11.3469886 4.74201193,15.0584167 C4.80763126,15.5058531 4.50674264,15.9229688 4.06981396,15.9909857 C4.02900194,15.9967221 3.98899015,16 3.9497786,16 Z" id="Shape" fill="#FFFFFF"></path>
                                <path d="M22.430832,28.7290658 C19.378156,26.9064394 16.5459596,28.7693962 14.7774808,31.3621791 C14.4889233,31.7848733 14.2374991,32.2223036 14,32.6643874 C14.0696251,32.8311383 14.1369295,32.9924602 14.2135171,33.1747228 C15.0815107,35.2339027 17.4704269,39.7501381 20.3521345,38.8931159 C21.8096209,38.4595635 22.5770448,36.8005858 23.1843308,35.5495661 C23.6562346,34.5777573 24.5559463,33.0832037 25,31.7631569 C24.4337155,30.5408339 23.6562346,29.460443 22.430832,28.7290658 Z" id="Shape" fill="#DDD3C3"></path>
                                <path d="M22.9979882,11.1473236 C23.0158127,6.25468673 23.0088379,4.12302664 18.6720623,1.21935126 C18.1908011,1.3700666 17.8932096,1.3099408 16.7958411,0.974839665 C15.648099,0.62450666 14.3445864,0.262148495 13,0 L16.414552,1.67229896 C21.472057,4.63129008 21.4681821,5.88110508 21.4488076,11.1417119 L21.4457077,12.1983226 C21.4457077,12.6416502 21.7928978,13 22.2206855,13 C22.6484732,13 22.9956632,12.6416502 22.9956632,12.1983226 L22.9979882,11.1473236 Z" id="Shape" fill="#FFF6EB"></path>
                                <circle id="Oval" fill="#B5A896" cx="9" cy="12" r="3"></circle>
                                <circle id="Oval" fill="#B5A896" cx="32" cy="20" r="3"></circle>
                                <path d="M10,12 C11.2862119,12 12.3965167,11.39325 13,10.5 C12.3965167,9.60675 11.2862119,9 10,9 C8.7137881,9 7.60348331,9.60675 7,10.5 C7.60348331,11.39325 8.7137881,12 10,12 Z" id="Shape" fill="#6B5B4B"></path>
                                <path d="M32,20 C33.2862119,20 34.3965167,19.39325 35,18.5 C34.3965167,17.60675 33.2862119,17 32,17 C30.7137881,17 29.6034833,17.60675 29,18.5 C29.6034833,19.39325 30.7137881,20 32,20 Z" id="Shape" fill="#6B5B4B"></path>
                            </g>
                        </g>
                    </g>
                </g>
            </g>
        </g>
    </g>
</svg>