<?xml version="1.0" encoding="UTF-8"?>
<svg width="87px" height="113px" viewBox="0 0 87 113" version="1.1" xmlns="http://www.w3.org/2000/svg" xmlns:xlink="http://www.w3.org/1999/xlink">
    <!-- Generator: Sketch 51.2 (57519) - http://www.bohemiancoding.com/sketch -->
    <title>achieve_img_1</title>
    <desc>Created with Sketch.</desc>
    <defs></defs>
    <g id="Screens" stroke="none" stroke-width="1" fill="none" fill-rule="evenodd">
        <g id="⟶-Achievements" transform="translate(-263.000000, -194.000000)" fill-rule="nonzero">
            <g id="achieve_img_1" transform="translate(263.000000, 194.000000)">
                <path d="M7.19717091,0 L79.1635343,0 C83.1361029,0 86.360294,3.15510899 86.360294,7.0506534 L86.360294,105.75819 C86.360294,109.872078 83.1899697,112.808843 79.1635343,112.808843 C75.7954245,112.808843 50.2691733,97.1742952 46.778527,95.1826125 C43.284591,93.1909299 43.2307242,93.0745066 39.5817673,95.1826125 C35.9332215,97.3011924 10.6298386,112.808843 7.19675971,112.808843 C3.11974722,112.808843 0,109.978027 0,105.75819 L0,7.0506534 C0.000411196419,3.15510899 3.22460231,0 7.19717091,0 Z" id="Shape" fill="#FF6B7D"></path>
                <path d="M79.0469201,0 L42.5261194,0 L42.5261194,93.657596 C43.4684679,93.6503441 44.3703344,94.172486 46.1782412,95.1913879 C49.7059964,97.1764136 75.4277679,112.696035 78.9884928,112.808843 L79.1600185,112.808843 C83.1919176,112.752439 86.3507463,109.843996 86.3507463,105.768388 L86.3507463,7.05133329 C86.3511636,3.15541323 83.078819,0 79.0469201,0 Z" id="Shape" fill-opacity="0.1" fill="#000000"></path>
                <path d="M29.8656716,26.8776294 L23.4632049,26.414483 L20.1262398,19.6814436 L16.7515872,26.414483 L10.3880597,26.8776294 L14.6474705,32.0746932 L13.4304761,38.7280017 L20.1262398,35.6657111 L26.8220036,38.7280017 L25.5831753,32.0746932 C25.5830363,32.0748294 29.8656716,26.8776294 29.8656716,26.8776294 Z" id="Shape" fill="#EFC75E"></path>
                <path d="M51.9402986,14.1799239 L45.5378316,13.7167774 L42.2008668,6.98373802 L38.826214,13.7167774 L32.4626865,14.1799239 L36.7220974,19.3769878 L35.505103,26.0302963 L42.2008668,22.9680055 L48.8966305,26.0302963 L47.6578022,19.3769878 C47.6576632,19.3771238 51.9402986,14.1799239 51.9402986,14.1799239 Z" id="Shape" fill="#EFC75E"></path>
                <path d="M74.0149253,26.8776294 L67.6124586,26.414483 L64.2754935,19.6814436 L60.9008409,26.414483 L54.5373135,26.8776294 L58.7967242,32.0746932 L57.5797299,38.7280017 L64.2754935,35.6657111 L70.9712573,38.7280017 L69.7324291,32.0746932 C69.7322899,32.0748294 74.0149253,26.8776294 74.0149253,26.8776294 Z" id="Shape" fill="#EFC75E"></path>
                <g id="tooth" transform="translate(24.360000, 42.537313)">
                    <path d="M19.1600848,9.36312734 C16.656116,9.38496094 10.4687848,7.06760786 8.73293086,9.48675141 C6.83792813,12.1278201 7.15347305,17.8872062 8.46204141,19.8679828 C9.77060977,21.8489587 10.7632254,23.2060319 10.7632254,23.9398006 C10.7632254,24.6735692 10.5824625,36.6686928 10.6728949,37.5857044 C10.7630215,38.5028155 11.0788723,39.1631076 11.4850535,39.1631076 C11.8910309,39.1631076 13.2188684,36.998789 13.8505699,35.4213858 C14.4822715,33.844182 17.8314316,26.4544538 19.2751898,26.4544538 C22.1282461,26.4544538 26.5974632,39.1632073 26.8349121,39.1632073 C27.2408895,39.1632073 27.5569441,38.5029152 27.6470707,37.5858039 C27.7371973,36.6686928 27.5567402,24.6735692 27.5567402,23.9399003 C27.5567402,23.2063311 28.5494579,21.8489587 29.8579243,19.8680825 C31.1664925,17.8873058 31.4820375,12.1279198 29.5870348,9.4868511 C27.8511809,7.06770756 22.5214793,9.64177997 19.1598809,9.36322703 L19.1600848,9.36322703 L19.1600848,9.36312734 Z" id="Shape" fill="#EEF3F7"></path>
                    <g id="Group" transform="translate(7.313438, 8.354594)" fill="#FFFFFF">
                        <path d="M10.0914223,0.818710354 C7.58225391,0.5815316 4.10820118,0.754007112 2.77424648,1.51529209 C1.44059766,2.27647738 0.290770313,8.56086696 2.18597695,11.3851784 C4.08097968,14.2095896 4.62245273,15.0534235 4.21627148,17.5477384 C3.81029414,20.0419538 3.54073007,29.4325974 4.17181993,30.8082141 C3.76584257,30.8082141 3.4499918,30.1479221 3.35966132,29.230811 C3.26953477,28.3136998 3.4499918,16.3185763 3.4499918,15.5851067 C3.4499918,14.851338 2.45727421,13.4941651 1.14880781,11.5132888 C-0.159760547,9.53251225 -0.47530547,3.77312616 1.41969727,1.13205749 C2.82828164,-0.830873367 7.16740664,0.32471257 10.0917281,0.818610657 L10.0914223,0.818710354 Z" id="Shape"></path>
                        <path d="M19.5215766,30.8081144 C17.9409973,27.1651924 15.3483293,17.2784573 11.9148539,18.1018534 C14.1376359,18.1018534 18.4684007,30.9876685 19.5215766,30.8081144 Z" id="Shape"></path>
                    </g>
                    <g id="Group" transform="translate(14.857970, 9.351563)" fill="#D9DADA">
                        <path d="M12.765143,20.1823269 C12.7337414,17.4067672 12.6987715,14.9102589 12.6987715,14.5878393 C12.6987715,13.8540707 13.6914891,12.4968977 14.9999555,10.5160215 C15.7212738,9.42374301 16.140709,7.18295709 16.0544566,4.94934936 C15.9068285,8.60373659 12.2316223,13.105846 11.9496199,13.7268575 C11.6672098,14.3478691 12.7408781,17.9035564 12.7649391,20.1802332 L12.765143,20.1822272 L12.765143,20.1823269 Z" id="Shape"></path>
                        <path d="M4.46921718,0.763777402 C2.8107457,0.817214902 1.02880898,-0.103186217 0.075853125,0.428397272 C0.075853125,0.428397272 2.38723243,0.918307486 3.72822188,1.36594625 C6.12136757,2.16471723 8.48973868,-0.0811532183 10.0446258,0.241366022 C8.7145453,-0.428696362 6.07212421,0.712234142 4.46911523,0.763677705 L4.46911523,0.763877098 L4.46921718,0.763877098 L4.46921718,0.763777402 Z" id="Shape"></path>
                    </g>
                    <g id="Group" transform="translate(0.890391, 1.076727)" fill="#FEFEFE">
                        <path d="M10.0193414,7.62212162 C8.04073711,5.84532475 6.270525,5.84532475 4.41334688,7.62212162 C6.270525,5.84532475 6.270525,4.11428872 4.41334688,2.14039121 C6.270525,4.11428872 8.04073711,4.11428872 10.0193414,2.14039121 C8.04073711,4.11428872 8.04073711,5.84562384 10.0193414,7.62212162 Z" id="Shape"></path>
                        <path d="M23.1475395,0.0326008628 C24.2856421,1.05479244 25.30395,1.05479244 26.3724188,0.0326008628 C25.304052,1.05479244 25.304052,2.05026528 26.3724188,3.18581215 C25.304052,2.05016559 24.2856421,2.05016559 23.1475395,3.18581215 C24.2856421,2.05016559 24.2856421,1.05449335 23.1475395,0.0326008628 Z" id="Shape"></path>
                        <path d="M30.6303891,12.0545429 C31.3673063,12.7159317 32.0263313,12.7159317 32.7177773,12.0545429 C32.0260254,12.7159317 32.0260254,13.3606711 32.7177773,14.0957358 C32.0260254,13.3606711 31.3670004,13.3606711 30.6303891,14.0957358 C31.3673063,13.3605714 31.3673063,12.7161311 30.6303891,12.0545429 Z" id="Shape"></path>
                        <path d="M0.0926753907,15.7475128 C1.23077813,16.7697044 2.24908595,16.7697044 3.3175547,15.7475128 C2.24918789,16.7697044 2.24918789,17.7653767 3.3175547,18.9010232 C2.24918789,17.7653767 1.23077813,17.7653767 0.0926753907,18.9010232 C1.23077813,17.7653767 1.23077813,16.769505 0.0926753907,15.7475128 Z" id="Shape"></path>
                    </g>
                </g>
            </g>
        </g>
    </g>
</svg>