<?xml version="1.0" encoding="UTF-8"?>
<svg width="99px" height="100px" viewBox="0 0 99 100" version="1.1" xmlns="http://www.w3.org/2000/svg" xmlns:xlink="http://www.w3.org/1999/xlink">
    <!-- Generator: Sketch 51.2 (57519) - http://www.bohemiancoding.com/sketch -->
    <title>Group 7</title>
    <desc>Created with Sketch.</desc>
    <defs></defs>
    <g id="Icons" stroke="none" stroke-width="1" fill="none" fill-rule="evenodd">
        <g id="Artboard" transform="translate(-647.000000, -49.000000)" fill-rule="nonzero">
            <g id="cheese" transform="translate(647.000000, 49.000000)">
                <g id="Group-7">
                    <path d="M92.1596154,63.5692308 C92.9057692,62.7403846 93.9576923,62.2192308 95.2115385,62.1173077 C95.6288462,62.0826923 96.0692308,62.0961538 96.5288462,62.1576923 C96.9096154,62.2096154 97.2865385,62.3057692 97.6576923,62.4269231 C98,62.5307692 98.3346154,62.6711538 98.6673077,62.8230769 L98.6673077,58.5269231 C98.6673077,54.9211538 96.9923077,51.5192308 94.1346154,49.3192308 L60.6538462,17.6461538 C59.5980769,18.5134615 58.0711538,18.8096154 56.3519231,18.2788462 C53.1711538,17.2942308 50.5923077,13.9173077 50.5923077,10.7346154 C50.5923077,9.91538462 50.7673077,9.19423077 51.075,8.58461538 L45.3442308,3.16346154 C41.1673077,-0.0192307692 36.4807692,-0.711538462 33.2846154,0.686538462 L4.76730769,14.4423077 C2.18846154,15.5557692 0.590384615,18.1730769 0.590384615,21.0576923 C0.590384615,21.0807692 0.590384615,21.0807692 0.590384615,21.075 L0.590384615,51.3576923 C1.48076923,51.1942308 2.46730769,51.2307692 3.52692308,51.5596154 C7.21538462,52.7019231 10.2057692,56.6173077 10.2057692,60.3057692 C10.2057692,63.9942308 7.21538462,66.0596154 3.52692308,64.9173077 C2.46730769,64.5903846 1.48076923,64.0153846 0.590384615,63.3 L0.590384615,67.4596154 C0.590384615,70.7057692 2.8,73.5346154 5.94807692,74.3211538 L89.8788462,99.0461538 C94.3423077,100.161538 98.6673077,96.7865385 98.6673077,92.1846154 L98.6673077,76.1442308 L98.6653846,76.1442308 C96.8596154,75.8519231 95.1076923,74.8423077 93.7288462,73.4192308 C93.6980769,73.3884615 93.6730769,73.3519231 93.6442308,73.3192308 C93.3346154,72.9923077 93.0403846,72.6519231 92.7730769,72.2884615 C92.6846154,72.1692308 92.6173077,72.0365385 92.5346154,71.9134615 C92.3423077,71.625 92.1442308,71.3403846 91.9826923,71.0346154 C91.8538462,70.7942308 91.7615385,70.5384615 91.6538462,70.2884615 C91.5673077,70.0865385 91.4596154,69.8884615 91.3884615,69.6826923 C91.2269231,69.2173077 91.1038462,68.7423077 91.025,68.2615385 C90.9461538,67.7769231 90.9153846,67.3115385 90.9288462,66.8673077 C90.9557692,65.9788462 91.1634615,65.1769231 91.5192308,64.4961538 C91.6961538,64.1538462 91.9115385,63.8442308 92.1596154,63.5692308 Z" id="Shape" fill="#EEAF4B"></path>
                    <path d="M96.5307692,62.1576923 C97.2596154,62.2576923 97.975,62.5057692 98.6692308,62.8230769 L98.6692308,58.525 C98.6692308,55.1884615 96.3384615,52.3076923 93.0769231,51.6096154 L56.2173077,40.6326923 C56.2365385,40.8307692 56.275,41.0288462 56.275,41.225 C56.275,44.4076923 53.6961538,46.1884615 50.5153846,45.2019231 C47.3346154,44.2173077 44.7557692,40.8403846 44.7557692,37.6576923 C44.7557692,37.5076923 44.7884615,37.375 44.8,37.2307692 L4.31538462,25.175 C2.06346154,24.7423077 0.957692308,23.0288462 0.717307692,21.0865385 L0.592307692,21.0576923 L0.592307692,51.3557692 C1.48269231,51.1923077 2.46923077,51.2288462 3.52884615,51.5576923 C7.21730769,52.7 10.2076923,56.6153846 10.2076923,60.3038462 C10.2076923,63.9923077 7.21730769,66.0576923 3.52884615,64.9153846 C2.46923077,64.5884615 1.48269231,64.0134615 0.592307692,63.2980769 L0.592307692,67.4576923 C0.592307692,70.7038462 2.80192308,73.5326923 5.95,74.3192308 L89.8807692,99.0442308 C94.3442308,100.159615 98.6692308,96.7846154 98.6692308,92.1826923 L98.6692308,76.1423077 C95.0538462,75.5576923 91.6519231,72.075 91.025,68.2596154 C90.3884615,64.3884615 92.8538462,61.6557692 96.5307692,62.1576923 Z" id="Shape" fill="#FCDF76"></path>
                    <path d="M50.2384615,61.5519231 C50.2384615,65.8865385 46.725,68.3115385 42.3903846,66.9711538 C38.0557692,65.6288462 34.5423077,61.0288462 34.5423077,56.6942308 C34.5423077,52.3596154 38.0557692,49.9346154 42.3903846,51.275 C46.725,52.6153846 50.2384615,57.2173077 50.2384615,61.5519231 Z" id="Shape" fill="#F4C44E"></path>
                    <path d="M42.3903846,51.275 C39.175,50.2788462 36.4173077,51.3653846 35.2057692,53.7596154 C36.4173077,56.9038462 39.175,59.6961538 42.3903846,60.6923077 C45.6057692,61.6884615 48.3634615,60.6019231 49.575,58.2076923 C48.3634615,55.0634615 45.6057692,52.2692308 42.3903846,51.275 Z" id="Shape" fill="#EEAF4B"></path>
                    <path d="M82.7326923,72.1903846 C82.7326923,75.225 80.2730769,76.9230769 77.2384615,75.9826923 C74.2038462,75.0442308 71.7442308,71.8230769 71.7442308,68.7884615 C71.7442308,65.7538462 74.2038462,64.0557692 77.2384615,64.9961538 C80.2730769,65.9365385 82.7326923,69.1576923 82.7326923,72.1903846 Z" id="Shape" fill="#F4C44E"></path>
                    <path d="M28.8865385,68.3442308 C28.8865385,71.3788462 26.4269231,73.0769231 23.3923077,72.1365385 C20.3576923,71.1961538 17.8980769,67.9769231 17.8980769,64.9423077 C17.8980769,61.9076923 20.3576923,60.2096154 23.3923077,61.15 C26.4269231,62.0903846 28.8865385,65.3115385 28.8865385,68.3442308 Z" id="Shape" fill="#EEAF4B"></path>
                    <path d="M67.3480769,83.0096154 C67.3480769,84.9807692 65.75,86.0846154 63.7769231,85.475 C61.8057692,84.8653846 60.2057692,82.7711538 60.2057692,80.8 C60.2057692,78.8288462 61.8038462,77.725 63.7769231,78.3346154 C65.75,78.9442308 67.3480769,81.0365385 67.3480769,83.0096154 Z" id="Shape" fill="#EEAF4B"></path>
                    <path d="M65.9769231,60.1480769 C65.9769231,62.1192308 64.3788462,63.2230769 62.4057692,62.6134615 C60.4346154,62.0038462 58.8346154,59.9096154 58.8346154,57.9384615 C58.8346154,55.9673077 60.4326923,54.8634615 62.4057692,55.4730769 C64.3769231,56.0826923 65.9769231,58.175 65.9769231,60.1480769 Z" id="Shape" fill="#EEAF4B"></path>
                    <path d="M17.9,39.9519231 C17.9,42.1192308 16.1423077,43.3326923 13.9769231,42.6615385 C11.8096154,41.9903846 10.0538462,39.6903846 10.0538462,37.5230769 C10.0538462,35.3557692 11.8115385,34.1423077 13.9769231,34.8134615 C16.1423077,35.4846154 17.9,37.7846154 17.9,39.9519231 Z" id="Shape" fill="#F4C44E"></path>
                    <path d="M56.275,41.225 C56.275,44.4057692 53.6961538,46.1865385 50.5153846,45.2019231 C47.3346154,44.2173077 44.7557692,40.8403846 44.7557692,37.6576923 C44.7557692,34.4769231 47.3346154,32.6961538 50.5153846,33.6807692 C53.6942308,34.6653846 56.275,38.0423077 56.275,41.225 Z" id="Shape" fill="#F4C44E"></path>
                </g>
            </g>
        </g>
    </g>
</svg>