<svg height="496pt" viewBox="-59 0 495 496" width="496pt" xmlns="http://www.w3.org/2000/svg"><path d="m329.941406 304.320312-81.441406-16.320312s-16 24-48 24-48-24-48-24l-81.441406 16.320312c-22.398438 4.480469-38.558594 24.160157-38.558594 47.039063v80.640625h64v24h208v-24h64v-80.640625c0-22.878906-16.160156-42.558594-38.558594-47.039063zm0 0" fill="#b4dd7f"/><path d="m304.5 107.761719v76.238281c0-17.679688-14.320312-32-32-32v-40c-10 14.960938-26.800781 24-44.878906 24h-8.960938v-9.839844c-8.960937 6.320313-19.761718 9.839844-31.039062 9.839844h-8.960938v-9.839844c-8.960937 6.320313-19.761718 9.839844-31.039062 9.839844h-19.121094v16c-17.679688 0-32 14.320312-32 32v-82.238281c0-25.921875 10.480469-49.28125 27.441406-66.320313 17.039063-16.960937 40.398438-27.441406 66.320313-27.441406 31.4375 0 60.71875 15.679688 78.078125 41.761719l4.160156 6.238281c19.601562 9.839844 32 29.839844 32 51.761719zm0 0" fill="#fcd770"/><path d="m248.5 408v48c-17.679688 0-32 14.320312-32 32h-32c0-17.679688-14.320312-32-32-32v-48zm0 0" fill="#e6e9ed"/><path d="m240.5 384v24h-80v-24c0-11.441406 4.800781-21.601562 12.480469-28.960938.078125.082032.160156.242188.238281.242188 0 4.160156 1.519531 8.238281 4.640625 11.359375s7.199219 4.640625 11.359375 4.640625c2.882812 2.957031 6.882812 4.71875 11.28125 4.71875s8.398438-1.761719 11.28125-4.71875c4.160156 0 8.238281-1.519531 11.359375-4.640625s4.640625-7.199219 4.640625-11.359375c.078125 0 .160156-.160156.238281-.242188 7.679688 7.359376 12.480469 17.519532 12.480469 28.960938zm0 0" fill="#cf9e76"/><g fill="#f0d0b4"><path d="m352.5 432v56h-136c0-17.679688 14.320312-32 32-32h56v-24zm0 0"/><path d="m184.5 488h-136v-56h48v24h56c17.679688 0 32 14.320312 32 32zm0 0"/><path d="m248.5 256v32s-16 24-48 24-48-24-48-24v-32l1.199219-1.359375c12.5625 10.800781 28.960937 17.359375 46.800781 17.359375s34.238281-6.558594 46.800781-17.359375zm0 0"/><path d="m304.5 184c0 17.679688-14.320312 32-32 32l-1.679688-.398438c1.121094-5.042968 1.679688-10.242187 1.679688-15.601562v-48c17.679688 0 32 14.320312 32 32zm0 0"/><path d="m272.5 152v48c0 5.359375-.558594 10.558594-1.679688 15.601562-3.039062 13.597657-9.921874 25.839844-19.441406 35.277344-1.277344 1.28125-2.640625 2.5625-4.078125 3.761719-12.5625 10.800781-28.960937 17.359375-46.800781 17.359375s-34.238281-6.558594-46.800781-17.359375c-11.679688-9.921875-20.078125-23.519531-23.519531-39.039063-1.121094-5.042968-1.679688-10.242187-1.679688-15.601562v-64h19.121094c11.277344 0 22.078125-3.519531 31.039062-9.839844v9.839844h8.960938c11.277344 0 22.078125-3.519531 31.039062-9.839844v9.839844h8.960938c18.078125 0 34.878906-9.039062 44.878906-24zm0 0"/><path d="m128.5 200c0 5.359375.558594 10.558594 1.679688 15.601562l-1.679688.398438c-17.679688 0-32-14.320312-32-32s14.320312-32 32-32zm0 0"/></g><path d="m176.5 432h48v16h-48zm0 0"/><path d="m248.5 160c0 4.417969-3.582031 8-8 8s-8-3.582031-8-8 3.582031-8 8-8 8 3.582031 8 8zm0 0"/><path d="m168.5 160c0 4.417969-3.582031 8-8 8s-8-3.582031-8-8 3.582031-8 8-8 8 3.582031 8 8zm0 0"/><path d="m331.484375 296.441406-74.984375-15v-24.410156c9.359375-9.191406 16.488281-20.648438 20.457031-33.488281 19.933594-2.238281 35.542969-19.015625 35.542969-39.542969v-76.222656c0-24.394532-13.160156-46.386719-34.480469-57.921875l-3.015625-4.519531c-18.929687-28.390626-50.59375-45.335938-84.703125-45.335938-56.136719 0-101.800781 45.664062-101.800781 101.800781v82.199219c0 20.527344 15.609375 37.304688 35.542969 39.550781 3.960937 12.839844 11.089843 24.296875 20.457031 33.488281v24.410157l-74.984375 15c-26.078125 5.207031-45.015625 28.304687-45.015625 54.902343v88.648438h16v56h320v-56h16v-88.648438c0-26.597656-18.9375-49.695312-45.015625-54.910156zm-51.320313-89.808594c.183594-2.191406.335938-4.394531.335938-6.632812v-38.527344c9.289062 3.3125 16 12.113282 16 22.527344 0 10.535156-6.871094 19.414062-16.335938 22.632812zm-89.863281-190.632812c28.75 0 55.4375 14.28125 71.390625 38.207031l5.335938 8 1.898437.953125c17.007813 8.503906 27.574219 25.601563 27.574219 44.617188v44.421875c-4.671875-3.535157-10.054688-6.183594-16-7.390625v-32.808594h-8l-6.65625-4.441406c-8.222656 12.335937-21.808594 19.808594-36.550781 20.335937 3.695312-3.367187 7.015625-7.199219 9.863281-11.460937l-13.3125-8.875c-8.222656 12.335937-21.808594 19.808594-36.550781 20.335937 3.695312-3.367187 7.015625-7.199219 9.863281-11.460937l-13.3125-8.875c-8.527344 12.800781-22.808594 20.441406-38.183594 20.441406h-11.160156v-16h-16v32.808594c-5.945312 1.214844-11.328125 3.855468-16 7.390625v-50.398438c0-47.3125 38.488281-85.800781 85.800781-85.800781zm-85.800781 168c0-10.414062 6.710938-19.214844 16-22.527344v38.527344c0 2.238281.152344 4.441406.335938 6.632812-9.464844-3.21875-16.335938-12.097656-16.335938-22.632812zm32 16v-56h11.160156c10.230469 0 20.085938-2.527344 28.839844-7.144531v7.144531h11.160156c10.230469 0 20.085938-2.527344 28.839844-7.144531v7.144531h11.160156c13.503906 0 26.328125-4.433594 36.839844-12.238281v68.238281c0 35.289062-28.710938 64-64 64s-64-28.710938-64-64zm64 80c14.574219 0 28.214844-3.984375 40-10.824219v16.128907c-4.046875 4.925781-17.375 18.695312-40 18.695312-22.671875 0-35.929688-13.710938-40-18.6875v-16.128906c11.785156 6.832031 25.425781 10.816406 40 10.816406zm-144 160h32v24h64c10.414062 0 19.214844 6.710938 22.527344 16h-118.527344zm176-40h-64v-16c0-4.480469.929688-8.816406 2.6875-12.800781.328125.367187.671875.738281 1.023438 1.089843 3.761718 3.757813 8.554687 6.117188 13.746093 6.808594 8.3125 6.359375 20.765625 6.359375 29.078125 0 5.183594-.691406 9.984375-3.050781 13.753906-6.816406.351563-.351562.6875-.714844 1.015626-1.082031 1.765624 3.984375 2.695312 8.320312 2.695312 12.800781zm-72 16h80v32.808594c-15.648438 3.191406-28 15.542968-31.191406 31.191406h-17.617188c-3.191406-15.648438-15.542968-28-31.191406-31.191406zm184 64h-118.527344c3.3125-9.289062 12.113282-16 22.527344-16h64v-24h32zm16-56h-48v-72h-16v96h-40v-48h-8v-16c0-13.199219-5.320312-25.527344-14.984375-34.71875l-5.65625-5.378906-8.054687 7.96875v3.441406c0 2.136719-.832032 4.152344-2.335938 5.65625-1.511719 1.511719-3.527344 2.34375-5.664062 2.34375h-3.304688l-2.34375 2.34375c-3.015625 3.015625-8.289062 3.015625-11.304688 0l-2.351562-2.34375h-3.320312c-2.136719 0-4.152344-.832031-5.664063-2.335938-1.511719-1.511718-2.34375-3.519531-2.335937-5.65625v-3.449218l-8.054688-7.96875-5.65625 5.378906c-9.648438 9.183594-14.96875 21.511719-14.96875 34.71875v16h-8v48h-40v-96h-16v72h-48v-72.648438c0-19 13.519531-35.503906 32.160156-39.222656l76.640625-15.328125c6.816407 7.785157 23.785157 23.199219 51.199219 23.199219s44.382812-15.414062 51.207031-23.199219l76.640625 15.328125c18.632813 3.71875 32.152344 20.222656 32.152344 39.222656zm0 0"/><path d="m168.5 216c0 3.136719-3.390625 8.039062-5.65625 10.34375l11.3125 11.3125c.632812-.632812 4.175781-4.335938 6.945312-9.535156 4.796876 2.085937 11.191407 3.878906 19.398438 3.878906s14.601562-1.792969 19.398438-3.878906c2.769531 5.191406 6.3125 8.902344 6.945312 9.535156l11.335938-11.289062c-2.289063-2.328126-5.679688-7.230469-5.679688-10.367188s3.390625-8.039062 5.679688-10.367188l-5.679688-5.632812-5.65625-5.65625c-.917969.921875-7.984375 8.25-9.863281 17.335938-2.664063 1.703124-8.074219 4.320312-16.480469 4.320312-8.433594 0-13.855469-2.632812-16.472656-4.304688-1.878906-9.09375-8.953125-16.429687-9.871094-17.351562l-11.335938 11.289062c2.289063 2.328126 5.679688 7.230469 5.679688 10.367188zm0 0"/><path d="m304.5 240h16v16h-16zm0 0"/><path d="m56.5 232h16v16h-16zm0 0"/><path d="m360.5 176h16v16h-16zm0 0"/><path d="m.5 272h16v16h-16zm0 0"/></svg>