<?xml version="1.0" encoding="UTF-8"?>
<svg width="81px" height="100px" viewBox="0 0 81 100" version="1.1" xmlns="http://www.w3.org/2000/svg" xmlns:xlink="http://www.w3.org/1999/xlink">
    <!-- Generator: Sketch 51.2 (57519) - http://www.bohemiancoding.com/sketch -->
    <title>chips</title>
    <desc>Created with Sketch.</desc>
    <defs></defs>
    <g id="Icons" stroke="none" stroke-width="1" fill="none" fill-rule="evenodd">
        <g id="Artboard" transform="translate(-208.000000, -278.000000)" fill-rule="nonzero">
            <g id="chips" transform="translate(208.000000, 278.000000)">
                <path d="M78.0099315,87.0053785 C55.8678191,91.376494 25.2413032,91.376494 3.09919071,87.0053785 C-0.832577017,62.2358566 -0.832577017,37.674502 3.09919071,12.9049801 C25.2413032,8.53386454 55.8678191,8.53386454 78.0099315,12.9049801 C81.9416993,37.6747012 81.9416993,62.2358566 78.0099315,87.0053785 Z" id="Shape" fill="#FFD15C"></path>
                <g id="Group" transform="translate(0.792176, 0.000000)" fill="#F8B64C">
                    <polygon id="Shape" points="79.4940733 96.9964143 79.4940733 96.9964143 79.4940733 96.9964143 77.2177555 87.0053785 2.30701467 87.0053785 0.0306968215 96.9964143 0.0306968215 96.9964143 0.0306968215 96.9964143 0.0306968215 96.9964143 0.0306968215 96.9964143 2.92788264 99.9105578 5.82487042 96.9964143 5.82487042 96.9964143 8.51510024 99.9105578 11.4122861 96.9964143 11.4122861 96.9964143 14.3092738 99.9105578 16.9995037 96.9964143 16.9995037 96.9964143 19.8964914 99.9105578 22.7936773 96.9964143 22.7936773 96.9964143 25.690665 99.9105578 28.3808949 96.9964143 28.3808949 96.9964143 31.2780807 99.9105578 34.1750685 96.9964143 34.1750685 96.9964143 36.8652983 99.9105578 39.7624841 96.9964143 39.7624841 96.9964143 42.6594719 99.9105578 45.3497017 96.9964143 45.3497017 96.9964143 48.2466895 99.9105578 51.1438753 96.9964143 51.1438753 96.9964143 53.8341051 99.9105578 56.7310929 96.9964143 56.7310929 96.9964143 59.6282787 99.9105578 62.5252665 96.9964143 62.5252665 96.9964143 65.2154963 99.9105578 68.1126822 96.9964143 68.1126822 96.9964143 71.0096699 99.9105578 73.6998998 96.9964143 73.6998998 96.9964143 76.5968875 99.9105578"></polygon>
                    <polygon id="Shape" points="76.5968875 0 73.6998998 2.91414343 71.0096699 0 68.1126822 2.91414343 65.2154963 0 62.5252665 2.91414343 59.6282787 0 56.7310929 2.91414343 53.8341051 0 51.1438753 2.91414343 48.2466895 0 45.3497017 2.91414343 42.6594719 0 39.7624841 2.91414343 36.8652983 0 34.1750685 2.91414343 31.2780807 0 28.3808949 2.91414343 25.690665 0 22.7936773 2.91414343 19.8964914 0 16.9995037 2.91414343 14.3092738 0 11.4122861 2.91414343 8.51510024 0 5.82487042 2.91414343 2.92788264 0 0.0306968215 2.91414343 2.30701467 12.9051793 77.2177555 12.9051793 79.4940733 2.91414343"></polygon>
                </g>
                <ellipse id="Oval" fill="#FF7058" transform="translate(40.553653, 49.953733) rotate(-118.002719) translate(-40.553653, -49.953733) " cx="40.553653" cy="49.9537325" rx="19.8646309" ry="30.3877742"></ellipse>
                <g id="Group" transform="translate(5.743276, 17.729084)" fill="#F8B64C">
                    <path d="M60.8852641,54.9141434 C60.0574401,54.9141434 59.4367702,54.2896414 59.4367702,53.4571713 C59.4367702,48.4615538 63.5754939,44.2988048 68.5420416,44.2988048 C69.3698655,44.2988048 69.9905355,44.9233068 69.9905355,45.7557769 C69.9905355,46.588247 69.3696675,47.212749 68.5420416,47.212749 C65.2311418,47.212749 62.540912,49.9187251 62.540912,53.249004 C62.3337579,54.0816733 61.71289,54.9141434 60.8852641,54.9141434 Z" id="Shape"></path>
                    <path d="M59.2296161,10.7870518 C58.4017922,10.7870518 57.7811222,10.1625498 57.7811222,9.33007968 C57.7811222,4.33446215 61.919846,0.171513944 66.8863936,0.171513944 C67.7142176,0.171513944 68.3348875,0.796015936 68.3348875,1.62848606 C68.3348875,2.46115538 67.7140196,3.08545817 66.8863936,3.08545817 C63.5754939,3.08545817 60.8852641,5.79143426 60.8852641,9.12171315 C60.6783081,10.1625498 60.0574401,10.7870518 59.2296161,10.7870518 Z" id="Shape"></path>
                    <path d="M39.1568655,58.4527888 C39.1568655,57.6201195 39.7777335,56.9958167 40.6053594,56.9958167 C45.5719071,56.9958167 49.7104328,61.1587649 49.7104328,66.1543825 C49.7104328,66.9870518 49.0895648,67.6113546 48.2619389,67.6113546 C47.4341149,67.6113546 46.813445,66.9868526 46.813445,66.1543825 C46.813445,62.8241036 44.1232152,60.1181275 40.8123154,60.1181275 C39.7777335,60.1179283 39.1568655,59.285259 39.1568655,58.4527888 Z" id="Shape"></path>
                    <path d="M1.49463814,20.361753 C0.666814181,20.361753 0.0461442543,19.737251 0.0461442543,18.9047809 C0.0461442543,13.9091633 4.18486797,9.74621514 9.15141565,9.74621514 C9.97923961,9.74621514 10.5999095,10.3707171 10.5999095,11.2031873 C10.5999095,12.0356574 9.97904156,12.6601594 9.15141565,12.6601594 C5.84051589,12.6601594 3.15028606,15.3661355 3.15028606,18.6964143 C2.94313203,19.5292829 2.3224621,20.361753 1.49463814,20.361753 Z" id="Shape"></path>
                    <path d="M16.8077971,1.62868526 C16.8077971,0.796015936 17.428665,0.171713147 18.256291,0.171713147 C23.2228386,0.171713147 27.3615623,4.33466135 27.3615623,9.33027888 C27.3615623,10.1629482 26.7406944,10.787251 25.9130685,10.787251 C25.0852445,10.787251 24.4645746,10.162749 24.4645746,9.33027888 C24.4645746,6 21.7743447,3.2940239 18.463445,3.2940239 C17.428665,3.2938247 16.8077971,2.46115538 16.8077971,1.62868526 Z" id="Shape"></path>
                </g>
                <g id="Group" transform="translate(10.298289, 35.856574)" fill="#FFFFFF">
                    <path d="M10.597335,21.5920319 L13.7012787,21.8001992 C13.7012787,23.4653386 13.2873667,24.9223108 12.4597408,25.9631474 C11.6319169,27.0037849 10.597335,27.6282869 8.94188509,28.0446215 C7.07947922,28.4609562 5.21707335,28.2527888 3.76857946,27.4201195 C2.11312958,26.3794821 1.07834963,24.9223108 0.457679707,22.6326693 C-0.16299022,20.3430279 -0.163188264,18.2615538 0.871591687,16.5964143 C1.69941565,14.9312749 3.14790954,13.8904382 5.21727139,13.2661355 C6.87272127,12.8498008 8.52817115,12.8498008 9.97686308,13.6824701 C10.804687,14.0988048 11.425357,14.9312749 12.2531809,15.9721116 L9.35599511,17.2209163 C8.94208313,16.5964143 8.52817115,15.9721116 7.90750122,15.7639442 C7.28663325,15.5557769 6.45900733,15.3476096 5.83813936,15.5557769 C4.80355746,15.7639442 3.9757335,16.3884462 3.56182152,17.4290837 C3.14790954,18.4697211 3.14790954,19.7187251 3.56182152,21.3838645 C3.9757335,23.2571713 4.80335941,24.5059761 5.63118337,24.9223108 C6.45900733,25.5468127 7.49358924,25.7549801 8.52836919,25.3386454 C9.35619315,25.1304781 9.97686308,24.7141434 10.3907751,24.0898406 C10.390379,23.4653386 10.597335,22.6326693 10.597335,21.5920319 Z" id="Shape"></path>
                    <polygon id="Shape" points="17.2193325 25.3386454 13.4945208 10.976494 16.3917066 10.1438247 17.8402005 15.763745 23.4274181 14.3067729 21.9789242 8.68685259 24.87611 7.85418327 28.8078778 22.2163347 25.9106919 23.049004 24.2552421 16.8045817 18.6680244 18.2615538 20.3234743 24.5059761"></polygon>
                    <polygon id="Shape" points="31.7048655 21.3838645 27.7730978 7.02171315 30.6702836 6.18904382 34.6020513 20.5511952"></polygon>
                    <path d="M37.2920831,19.9268924 L33.3603154,5.56474104 L37.9129511,4.31593625 C39.568401,3.89960159 40.8101369,3.69143426 41.4308068,3.69143426 C42.2586308,3.69143426 43.0862567,3.89960159 43.9140807,4.52410359 C44.7419046,5.14860558 45.1556186,5.9810757 45.5695306,7.02191235 C45.7764866,7.85458167 45.7764866,8.68705179 45.7764866,9.31155378 C45.5695306,9.93605578 45.3625746,10.5603586 44.9486626,10.9766932 C44.5347506,11.3930279 44.1208386,11.8093625 43.7071247,12.0173307 C43.0862567,12.4336653 42.0516748,12.6418327 40.8099389,13.0579681 L38.947533,13.4743028 L40.3960269,18.8860558 L37.2920831,19.9268924 Z M36.8781711,7.22988048 L37.9127531,11.3928287 L39.5682029,10.976494 C40.6027848,10.7683267 41.4306088,10.351992 41.8445208,10.1438247 C42.2584328,9.93565737 42.4653888,9.51932271 42.4653888,9.10298805 C42.6723447,8.68665339 42.6723447,8.27031873 42.4653888,7.85418327 C42.2584328,7.22968127 42.0514768,7.02151394 41.6375648,6.60537849 C41.2236528,6.39721116 40.8097408,6.18904382 40.3960269,6.18904382 C39.9821149,6.18904382 39.361445,6.39721116 38.326665,6.60537849 L36.8781711,7.22988048 Z" id="Shape"></path>
                    <path d="M48.4667164,11.8091633 L51.1569462,10.7685259 C51.5708582,11.6011952 52.1917262,12.225498 52.8123961,12.6418327 C53.4332641,12.85 54.26089,13.0581673 55.0887139,12.6418327 C55.9165379,12.4336653 56.7441638,12.0173307 56.9511198,11.3930279 C57.3650318,10.7685259 57.3650318,10.3523904 57.3650318,9.72788845 C57.3650318,9.31155378 57.1580758,9.10338645 56.7441638,8.89521912 C56.5372078,8.89521912 56.3302518,8.89521912 55.7093839,8.89521912 C55.2954719,8.89521912 54.467846,8.89521912 53.22611,8.89521912 C51.5706601,8.89521912 50.3289242,8.68705179 49.5012983,8.27071713 C48.4667164,7.64621514 47.6388924,6.81374502 47.4319364,5.77290837 C47.2249804,4.94023904 47.2249804,4.31593625 47.4319364,3.48326693 C47.6388924,2.65059761 48.0528044,2.02629482 48.8804303,1.60996016 C49.5012983,0.985458167 50.5358802,0.569123506 51.5706601,0.361155378 C53.433066,-0.0551792829 54.8815599,-0.0551792829 55.9163399,0.361155378 C56.9509218,0.985657371 57.7787457,1.81812749 58.1926577,3.06713147 L55.2954719,3.8998008 C54.8815599,3.2752988 54.4676479,2.65099602 54.053934,2.44282869 C53.640022,2.23466135 52.8123961,2.23466135 52.1915281,2.44282869 C51.3637042,2.65099602 50.7430342,3.06733068 50.3291222,3.48346614 C50.1221663,3.69163347 49.9152103,4.10796813 50.1221663,4.52410359 C50.1221663,4.94043825 50.5360782,5.14860558 50.7430342,5.35677291 C51.1569462,5.56494024 52.1915281,5.56494024 53.64022,5.56494024 C55.088912,5.56494024 56.3304499,5.56494024 56.9511198,5.77310757 C57.7789438,5.9812749 58.3996137,6.18944223 59.0204817,6.81374502 C59.6413496,7.23007968 60.0550636,8.0625498 60.2620196,8.89521912 C60.4689756,9.72788845 60.4689756,10.5603586 60.2620196,11.3930279 C60.0550636,12.2256972 59.4341956,12.85 58.8135257,13.474502 C57.9857017,14.099004 57.1580758,14.5153386 55.9163399,14.9314741 C54.053934,15.3478088 52.6054401,15.3478088 51.3637042,14.7233068 C50.1221663,14.5149402 49.0873863,13.4743028 48.4667164,11.8091633 Z" id="Shape"></path>
                </g>
            </g>
        </g>
    </g>
</svg>