<?xml version="1.0" encoding="UTF-8"?>
<svg width="59px" height="100px" viewBox="0 0 59 100" version="1.1" xmlns="http://www.w3.org/2000/svg" xmlns:xlink="http://www.w3.org/1999/xlink">
    <!-- Generator: Sketch 51.2 (57519) - http://www.bohemiancoding.com/sketch -->
    <title>chocolate-bar</title>
    <desc>Created with Sketch.</desc>
    <defs></defs>
    <g id="Icons" stroke="none" stroke-width="1" fill="none" fill-rule="evenodd">
        <g id="Artboard" transform="translate(-99.000000, -278.000000)" fill-rule="nonzero">
            <g id="chocolate-bar" transform="translate(99.000000, 278.000000)">
                <rect id="Rectangle-path" fill="#BF7341" x="0.181884106" y="0" width="58.6362318" height="100"></rect>
                <path d="M0.181884106,62.2757812 L0.181884106,100 L58.8181159,100 L58.8181159,0 L55.0120298,0 C42.0515662,28.6414063 16.6587086,50.4 0.181884106,62.2757812 Z" id="Shape" fill="#B56D3E"></path>
                <g id="Group" transform="translate(5.274834, 5.078125)" fill="#965735">
                    <path d="M29.3989967,13.8873047 L19.0513344,13.8873047 C18.0993245,13.8873047 17.3266589,13.1148438 17.3266589,12.1630859 L17.3266589,1.81835938 C17.3266589,0.866601563 18.0993245,0.094140625 19.0513344,0.094140625 L29.3989967,0.094140625 C30.3510066,0.094140625 31.1236722,0.866601563 31.1236722,1.81835938 L31.1236722,12.1632813 C31.1234768,13.1150391 30.3510066,13.8873047 29.3989967,13.8873047 Z M20.7760099,10.4390625 L27.6743212,10.4390625 L27.6743212,3.54257812 L20.7760099,3.54257812 L20.7760099,10.4390625 Z" id="Shape"></path>
                    <path d="M12.1530232,13.8873047 L1.80536093,13.8873047 C0.853350993,13.8873047 0.0806854305,13.1148438 0.0806854305,12.1630859 L0.0806854305,1.81835938 C0.0806854305,0.866601563 0.853350993,0.094140625 1.80536093,0.094140625 L12.1530232,0.094140625 C13.1050331,0.094140625 13.8776987,0.866601563 13.8776987,1.81835938 L13.8776987,12.1632813 C13.8775033,13.1150391 13.1050331,13.8873047 12.1530232,13.8873047 Z M3.53003642,10.4390625 L10.4283477,10.4390625 L10.4283477,3.54257812 L3.53003642,3.54257812 L3.53003642,10.4390625 Z" id="Shape"></path>
                    <path d="M46.6449702,13.8873047 L36.2973079,13.8873047 C35.345298,13.8873047 34.5726325,13.1148438 34.5726325,12.1630859 L34.5726325,1.81835938 C34.5726325,0.866601563 35.345298,0.094140625 36.2973079,0.094140625 L46.6449702,0.094140625 C47.5969801,0.094140625 48.3696457,0.866601563 48.3696457,1.81835938 L48.3696457,12.1632813 C48.3694503,13.1150391 47.5967848,13.8873047 46.6449702,13.8873047 Z M38.0219834,10.4390625 L44.9202947,10.4390625 L44.9202947,3.54257812 L38.0219834,3.54257812 L38.0219834,10.4390625 Z" id="Shape"></path>
                    <path d="M29.3989967,31.1287109 L19.0513344,31.1287109 C18.0993245,31.1287109 17.3266589,30.35625 17.3266589,29.4044922 L17.3266589,19.0595703 C17.3266589,18.1078125 18.0993245,17.3353516 19.0513344,17.3353516 L29.3989967,17.3353516 C30.3510066,17.3353516 31.1236722,18.1078125 31.1236722,19.0595703 L31.1236722,29.4044922 C31.1234768,30.3564453 30.3510066,31.1287109 29.3989967,31.1287109 Z M20.7760099,27.6804687 L27.6743212,27.6804687 L27.6743212,20.7839844 L20.7760099,20.7839844 L20.7760099,27.6804687 Z" id="Shape"></path>
                    <path d="M12.1530232,31.1287109 L1.80536093,31.1287109 C0.853350993,31.1287109 0.0806854305,30.35625 0.0806854305,29.4044922 L0.0806854305,19.0595703 C0.0806854305,18.1078125 0.853350993,17.3353516 1.80536093,17.3353516 L12.1530232,17.3353516 C13.1050331,17.3353516 13.8776987,18.1078125 13.8776987,19.0595703 L13.8776987,29.4044922 C13.8775033,30.3564453 13.1050331,31.1287109 12.1530232,31.1287109 Z M3.53003642,27.6804687 L10.4283477,27.6804687 L10.4283477,20.7839844 L3.53003642,20.7839844 L3.53003642,27.6804687 Z" id="Shape"></path>
                    <path d="M46.6449702,31.1287109 L36.2973079,31.1287109 C35.345298,31.1287109 34.5726325,30.35625 34.5726325,29.4044922 L34.5726325,19.0595703 C34.5726325,18.1078125 35.345298,17.3353516 36.2973079,17.3353516 L46.6449702,17.3353516 C47.5969801,17.3353516 48.3696457,18.1078125 48.3696457,19.0595703 L48.3696457,29.4044922 C48.3694503,30.3564453 47.5967848,31.1287109 46.6449702,31.1287109 Z M38.0219834,27.6804687 L44.9202947,27.6804687 L44.9202947,20.7839844 L38.0219834,20.7839844 L38.0219834,27.6804687 Z" id="Shape"></path>
                    <path d="M29.3989967,48.3701172 L19.0513344,48.3701172 C18.0993245,48.3701172 17.3266589,47.5976562 17.3266589,46.6458984 L17.3266589,36.3009766 C17.3266589,35.3492187 18.0993245,34.5767578 19.0513344,34.5767578 L29.3989967,34.5767578 C30.3510066,34.5767578 31.1236722,35.3492187 31.1236722,36.3009766 L31.1236722,46.6458984 C31.1234768,47.5976562 30.3510066,48.3701172 29.3989967,48.3701172 Z M20.7760099,44.921875 L27.6743212,44.921875 L27.6743212,38.0253906 L20.7760099,38.0253906 L20.7760099,44.921875 Z" id="Shape"></path>
                    <path d="M12.1530232,48.3701172 L1.80536093,48.3701172 C0.853350993,48.3701172 0.0806854305,47.5976562 0.0806854305,46.6458984 L0.0806854305,36.3009766 C0.0806854305,35.3492187 0.853350993,34.5767578 1.80536093,34.5767578 L12.1530232,34.5767578 C13.1050331,34.5767578 13.8776987,35.3492187 13.8776987,36.3009766 L13.8776987,46.6458984 C13.8775033,47.5976562 13.1050331,48.3701172 12.1530232,48.3701172 Z M3.53003642,44.921875 L10.4283477,44.921875 L10.4283477,38.0253906 L3.53003642,38.0253906 L3.53003642,44.921875 Z" id="Shape"></path>
                    <path d="M12.1530232,65.6115234 L1.80536093,65.6115234 C0.853350993,65.6115234 0.0806854305,64.8390625 0.0806854305,63.8873047 L0.0806854305,53.5423828 C0.0806854305,52.590625 0.853350993,51.8181641 1.80536093,51.8181641 L12.1530232,51.8181641 C13.1050331,51.8181641 13.8776987,52.590625 13.8776987,53.5423828 L13.8776987,63.8873047 C13.8775033,64.8390625 13.1050331,65.6115234 12.1530232,65.6115234 Z M3.53003642,62.1632812 L10.4283477,62.1632812 L10.4283477,55.2667969 L3.53003642,55.2667969 L3.53003642,62.1632812 Z" id="Shape"></path>
                    <path d="M46.6449702,48.3701172 L36.2973079,48.3701172 C35.345298,48.3701172 34.5726325,47.5976562 34.5726325,46.6458984 L34.5726325,36.3009766 C34.5726325,35.3492187 35.345298,34.5767578 36.2973079,34.5767578 L46.6449702,34.5767578 C47.5969801,34.5767578 48.3696457,35.3492187 48.3696457,36.3009766 L48.3696457,46.6458984 C48.3694503,47.5976562 47.5967848,48.3701172 46.6449702,48.3701172 Z M38.0219834,44.921875 L44.9202947,44.921875 L44.9202947,38.0253906 L38.0219834,38.0253906 L38.0219834,44.921875 Z" id="Shape"></path>
                </g>
                <polygon id="Shape" fill="#F2B9B8" points="58.8181159 100 0.181884106 100 0.181884106 68.9654297 58.8181159 41.3792969"></polygon>
                <polygon id="Shape" fill="#F2AEAC" points="58.8181159 64.5328125 58.8181159 41.3792969 0.181884106 68.9654297 0.181884106 70.1154297 43.2968179 84.4828125"></polygon>
                <path d="M50.1951291,86.2068359 L8.80487086,86.2068359 C7.85286093,86.2068359 7.08019536,85.434375 7.08019536,84.4826172 L7.08019536,67.2412109 L10.529351,67.2412109 L10.529351,82.7583984 L48.4704536,82.7583984 L48.4704536,51.7242187 L51.9196093,51.7242187 L51.9196093,84.4828125 C51.9198046,85.4345703 51.1471391,86.2068359 50.1951291,86.2068359 Z" id="Shape" fill="#F28685"></path>
                <g id="Group" transform="translate(0.000000, 41.210938)" fill="#F0DBC2">
                    <polygon id="Shape" points="0.181884106 27.7544922 41.5721424 34.6511719 58.8181159 0.168359375"></polygon>
                    <rect id="Rectangle-path" x="0.181884106" y="51.8925781" width="58.6362318" height="6.89648437"></rect>
                </g>
            </g>
        </g>
    </g>
</svg>