<?xml version="1.0" encoding="UTF-8"?>
<svg width="93px" height="93px" viewBox="0 0 93 93" version="1.1" xmlns="http://www.w3.org/2000/svg" xmlns:xlink="http://www.w3.org/1999/xlink">
    <!-- Generator: Sketch 50 (54983) - http://www.bohemiancoding.com/sketch -->
    <title>Artboard</title>
    <desc>Created with Sketch.</desc>
    <defs></defs>
    <g id="Artboard" stroke="none" stroke-width="1" fill="none" fill-rule="evenodd">
        <g id="clock" transform="translate(22.000000, 22.000000)" fill-rule="nonzero">
            <circle id="Oval" fill="#6EB1E1" cx="24.5" cy="24.5" r="24.5"></circle>
            <circle id="Oval" fill="#FCFCFD" cx="25" cy="25" r="20"></circle>
            <g id="Group" transform="translate(11.000000, 9.000000)" fill="#4F5565">
                <path d="M13.1644,16.8995367 C12.1472,16.8995367 11.3334,16.1179209 11.3334,15.1409492 L11.3334,1.78874576 C11.3334,0.811774011 12.1472,0.0301581921 13.1644,0.0301581921 C14.1816,0.0301581921 14.9954,0.811774011 14.9954,1.78874576 L14.9954,15.1409492 C14.9954,16.1179209 14.1816,16.8995367 13.1644,16.8995367 Z" id="Shape"></path>
                <path d="M14.9954,15.0106158 L14.9954,15.3037458 C14.9954,16.2155989 14.2494,16.932096 13.3,16.932096 L1.7715,16.932096 C0.8221,16.932096 0.0761,16.2155989 0.0761,15.3037458 L0.0761,15.0106158 C0.0761,14.0987627 0.8221,13.3822655 1.7715,13.3822655 L13.3,13.3822655 C14.2494,13.3823616 14.9954,14.0987627 14.9954,15.0106158 Z" id="Shape"></path>
            </g>
            <g id="Group" transform="translate(6.000000, 6.000000)" fill="#646B79">
                <rect id="Rectangle-path" x="18.2348312" y="0.0598236776" width="1.59035264" height="2.17451889"></rect>
                <rect id="Rectangle-path" x="18.2348312" y="35.7931285" width="1.59035264" height="2.17451889"></rect>
                <rect id="Rectangle-path" x="35.7931285" y="18.2348312" width="2.17451889" height="1.59035264"></rect>
                <rect id="Rectangle-path" x="0.0598236776" y="18.2348312" width="2.17451889" height="1.59035264"></rect>
                <circle id="Oval" cx="19.0137834" cy="19.0137834" r="3.95956171"></circle>
            </g>
            <circle id="Oval" fill="#F0582F" cx="24.5" cy="24.5" r="1.5"></circle>
        </g>
    </g>
</svg>