<?xml version="1.0" encoding="UTF-8"?>
<svg width="134px" height="178px" viewBox="0 0 134 178" version="1.1" xmlns="http://www.w3.org/2000/svg" xmlns:xlink="http://www.w3.org/1999/xlink">
    <!-- Generator: Sketch 50.2 (55047) - http://www.bohemiancoding.com/sketch -->
    <title>bookmark</title>
    <desc>Created with Sketch.</desc>
    <defs></defs>
    <g id="Zilla-Slab/Lato" stroke="none" stroke-width="1" fill="none" fill-rule="evenodd">
        <g id="⟶-Congrats" transform="translate(-121.000000, -74.000000)" fill-rule="nonzero">
            <g id="bookmark" transform="translate(121.000000, 74.000000)">
                <path d="M11.0852977,0 L121.930042,0 C128.04871,0 133.014706,4.96957342 133.014706,11.1053976 L133.014706,166.578426 C133.014706,173.058161 128.131678,177.683824 121.930042,177.683824 C116.742378,177.683824 77.426083,153.058039 72.0496851,149.920964 C66.6682205,146.783889 66.5852534,146.600512 60.9650208,149.920964 C55.3454214,153.257913 16.3723951,177.683824 11.0846644,177.683824 C4.80512791,177.683824 0,173.22504 0,166.578426 L0,11.1053976 C0.000633337012,4.96957342 4.96662885,0 11.0852977,0 Z" id="Shape" fill="#FF6D7F"></path>
                <path d="M121.750429,0 L65.5,0 L65.5,147.518929 C66.9514332,147.507507 68.3405152,148.329926 71.1251071,149.934786 C76.5586611,153.061376 116.176102,177.50614 121.660437,177.683824 L121.924626,177.683824 C128.134678,177.594982 133,173.013929 133,166.594489 L133,11.1064685 C133.000643,4.97005263 127.96048,0 121.750429,0 Z" id="Shape" fill-opacity="0.1" fill="#000000"></path>
                <path d="M46,42.3346239 L36.1387292,41.6051276 L30.9990361,31 L25.8012952,41.6051276 L16,42.3346239 L22.5604718,50.5204555 L20.6860207,61 L30.9990361,56.1766235 L41.3120515,61 L39.4039712,50.5204555 C39.403757,50.5206698 46,42.3346239 46,42.3346239 Z" id="Shape" fill="#EFC75E"></path>
                <path d="M80,22.3346239 L70.1387292,21.6051276 L64.9990361,11 L59.8012952,21.6051276 L50,22.3346239 L56.5604718,30.5204555 L54.6860207,41 L64.9990361,36.1766235 L75.3120515,41 L73.4039712,30.5204555 C73.403757,30.5206698 80,22.3346239 80,22.3346239 Z" id="Shape" fill-opacity="0.3" fill="#000000"></path>
                <path d="M114,42.3346239 L104.138729,41.6051276 L98.9990361,31 L93.8012952,41.6051276 L84,42.3346239 L90.5604718,50.5204555 L88.6860207,61 L98.9990361,56.1766235 L109.312052,61 L107.403971,50.5204555 C107.403757,50.5206698 114,42.3346239 114,42.3346239 Z" id="Shape" fill-opacity="0.301036005" fill="#000000"></path>
                <g id="tooth" transform="translate(33.000000, 66.000000)">
                    <path d="M33.0346289,16.5086719 C28.7174414,16.547168 18.0496289,12.4613086 15.0567773,16.7266406 C11.7895312,21.3832617 12.3335742,31.5379688 14.5897266,35.0303906 C16.8458789,38.5231641 18.5572852,40.9158984 18.5572852,42.2096484 C18.5572852,43.5033984 18.245625,64.6526953 18.401543,66.2695313 C18.5569336,67.886543 19.1015039,69.0507422 19.8018164,69.0507422 C20.5017773,69.0507422 22.7911523,65.234707 23.880293,62.4534961 C24.9694336,59.6726367 30.7438477,46.6433789 33.2330859,46.6433789 C38.1521484,46.6433789 45.8576953,69.050918 46.2670898,69.050918 C46.9670508,69.050918 47.5119727,67.8867188 47.6673633,66.269707 C47.8227539,64.6526953 47.5116211,43.5033984 47.5116211,42.2098242 C47.5116211,40.9164258 49.2232031,38.5231641 51.4791797,35.0305664 C53.735332,31.5381445 54.279375,21.3834375 51.0121289,16.7268164 C48.0192773,12.4614844 38.8301367,16.9999805 33.0342773,16.5088477 L33.0346289,16.5088477 L33.0346289,16.5086719 Z" id="Shape" fill="#EEF3F7"></path>
                    <g id="Group" transform="translate(12.609375, 14.730469)" fill="#FFFFFF">
                        <path d="M17.3990039,1.44351563 C13.0728516,1.02533203 7.08310547,1.32943359 4.78318359,2.67169922 C2.48378906,4.01378906 0.501328125,15.0941602 3.76892578,20.0738672 C7.03617187,25.05375 7.96974609,26.5415625 7.26943359,30.9394336 C6.56947266,35.3371289 6.10470703,51.8943164 7.19279297,54.3197461 C6.49283203,54.3197461 5.94826172,53.1555469 5.79251953,51.5385352 C5.63712891,49.9215234 5.94826172,28.7722266 5.94826172,27.4790039 C5.94826172,26.1852539 4.23667969,23.7923438 1.98070312,20.2997461 C-0.275449219,16.8073242 -0.819492188,6.65261719 2.44775391,1.99599609 C4.87634766,-1.46496094 12.3575977,0.572519531 17.3995312,1.44333984 L17.3990039,1.44351563 Z" id="Shape"></path>
                        <path d="M33.6578906,54.3195703 C30.9327539,47.8965234 26.4626367,30.4646484 20.5428516,31.9164258 C24.3752344,31.9164258 31.8420703,54.6361523 33.6578906,54.3195703 Z" id="Shape"></path>
                    </g>
                    <g id="Group" transform="translate(25.617188, 16.488281)" fill="#D9DADA">
                        <path d="M22.0088672,35.5846289 C21.9547266,30.6908789 21.8944336,26.2891406 21.8944336,25.7206641 C21.8944336,24.4269141 23.6060156,22.0340039 25.8619922,18.5414063 C27.1056445,16.6155469 27.8288086,12.6646875 27.6800977,8.72648438 C27.4255664,15.1697461 21.0890039,23.1076758 20.602793,24.2026172 C20.1158789,25.2975586 21.9670313,31.5667969 22.0085156,35.5809375 L22.0088672,35.5844531 L22.0088672,35.5846289 Z" id="Shape"></path>
                        <path d="M7.70554687,1.34666016 C4.84611328,1.44087891 1.77380859,-0.181933594 0.13078125,0.755332031 C0.13078125,0.755332031 4.11591797,1.61912109 6.42796875,2.40837891 C10.554082,3.81673828 14.6374805,-0.143085938 17.3183203,0.425566406 C15.0250781,-0.755859375 10.4691797,1.25578125 7.70537109,1.34648437 L7.70537109,1.34683594 L7.70554687,1.34683594 L7.70554687,1.34666016 Z" id="Shape"></path>
                    </g>
                    <g id="Group" transform="translate(1.535156, 1.898438)" fill="#FEFEFE">
                        <path d="M17.2747266,13.4390039 C13.8633398,10.3062305 10.81125,10.3062305 7.60921875,13.4390039 C10.81125,10.3062305 10.81125,7.25414063 7.60921875,3.77384766 C10.81125,7.25414063 13.8633398,7.25414063 17.2747266,3.77384766 C13.8633398,7.25414063 13.8633398,10.3067578 17.2747266,13.4390039 Z" id="Shape"></path>
                        <path d="M39.9095508,0.0574804687 C41.8717969,1.85976563 43.6275,1.85976563 45.4696875,0.0574804687 C43.6276758,1.85976563 43.6276758,3.61494141 45.4696875,5.61708984 C43.6276758,3.61476563 41.8717969,3.61476563 39.9095508,5.61708984 C41.8717969,3.61476563 41.8717969,1.85923828 39.9095508,0.0574804687 Z" id="Shape"></path>
                        <path d="M52.8110156,21.2540625 C54.0815625,22.4201953 55.2178125,22.4201953 56.4099609,21.2540625 C55.2172852,22.4201953 55.2172852,23.5569727 56.4099609,24.8530078 C55.2172852,23.5569727 54.0810352,23.5569727 52.8110156,24.8530078 C54.0815625,23.5567969 54.0815625,22.4205469 52.8110156,21.2540625 Z" id="Shape"></path>
                        <path d="M0.159785156,27.7653516 C2.12203125,29.5676367 3.87773437,29.5676367 5.71992187,27.7653516 C3.87791016,29.5676367 3.87791016,31.3231641 5.71992187,33.3254883 C3.87791016,31.3231641 2.12203125,31.3231641 0.159785156,33.3254883 C2.12203125,31.3231641 2.12203125,29.5672852 0.159785156,27.7653516 Z" id="Shape"></path>
                    </g>
                </g>
            </g>
        </g>
    </g>
</svg>