<?xml version="1.0" encoding="UTF-8"?>
<svg width="100px" height="100px" viewBox="0 0 100 100" version="1.1" xmlns="http://www.w3.org/2000/svg" xmlns:xlink="http://www.w3.org/1999/xlink">
    <!-- Generator: Sketch 51.2 (57519) - http://www.bohemiancoding.com/sketch -->
    <title>cookies</title>
    <desc>Created with Sketch.</desc>
    <defs></defs>
    <g id="Icons" stroke="none" stroke-width="1" fill="none" fill-rule="evenodd">
        <g id="Artboard" transform="translate(-610.000000, -278.000000)" fill-rule="nonzero">
            <g id="cookies" transform="translate(610.000000, 278.000000)">
                <path d="M98.275,48.6793103 C95.5954741,49.6633621 92.6601293,50 89.6551724,50 C88.2471983,50 86.8734914,49.8665948 85.518319,49.674569 C85.3903017,49.824569 85.2734914,49.9836207 85.1107759,50.10625 L82.1913793,52.3101293 C81.2443966,53.025 79.9461207,53.0536638 78.968319,52.38125 L74.9568966,49.6224138 C73.8265086,48.8450431 73.5280172,47.7806034 74.137931,46.5517241 C74.280819,46.2637931 74.4017241,45.6795259 73.8232759,45.3209052 C65.6364224,40.2463362 60.3448276,31.0372845 60.3448276,20.6896552 C60.3448276,14.7538793 62.1273707,9.24482759 65.1646552,4.63275862 C65.7991379,3.66939655 65.2892241,2.38017241 64.1831897,2.05280172 C58.9491379,0.503448276 53.3612069,-0.220258621 47.5622845,0.0588362069 C22.2362069,1.27693966 1.50107759,21.8023707 0.0810344828,47.1181034 C-1.54159483,76.0396552 21.43125,100 50,100 C77.6142241,100 100,77.6142241 100,50 C100,49.3640086 99.5689655,48.2040948 98.275,48.6793103 Z" id="Shape" fill="#B97850"></path>
                <path d="M20.6896552,50 C20.6896552,25.9331897 37.6954741,5.84331897 60.3448276,1.07758621 C57.00625,0.375215517 53.5474138,0 50,0 C22.3857759,0 0,22.3855603 0,50 C0,77.6142241 22.3857759,100 50,100 C53.5474138,100 57.00625,99.6247845 60.3448276,98.9224138 C37.6954741,94.1564655 20.6896552,74.0668103 20.6896552,50 Z" id="Shape" fill="#A5694B"></path>
                <path d="M41.487069,48.3280172 L39.7704741,53.4778017 C39.2278017,55.105819 39.9648707,56.8851293 41.4997845,57.6523707 L46.9467672,60.3758621 C48.2743534,61.0396552 49.8775862,60.7795259 50.9271552,59.7299569 L54.1625,56.4946121 C55.28125,55.3758621 55.4952586,53.6390086 54.6810345,52.2821121 L51.8982759,47.644181 C51.275,46.6056034 50.1525862,45.9700431 48.9413793,45.9700431 L44.7584052,45.9700431 C43.2741379,45.9700431 41.9564655,46.9198276 41.487069,48.3280172 Z" id="Shape" fill="#734B46"></path>
                <path d="M22.4176724,25.9043103 L24.0491379,31.081681 C24.5648707,32.718319 26.2056034,33.7267241 27.8987069,33.4478448 L33.9075431,32.4575431 C35.3719828,32.2161638 36.5176724,31.0646552 36.7519397,29.5991379 L37.4737069,25.0810345 C37.7232759,23.5185345 36.8773707,21.9866379 35.4221983,21.3655172 L30.4476293,19.2424569 C29.3336207,18.7670259 28.0517241,18.9109914 27.0709052,19.6215517 L23.6836207,22.0756466 C22.4814655,22.9465517 21.9715517,24.4887931 22.4176724,25.9043103 Z" id="Shape" fill="#734B46"></path>
                <path d="M59.2105603,20.7838362 L54.8463362,24.0118534 C53.4665948,25.0323276 53.0471983,26.9118534 53.8622845,28.4219828 L56.7547414,33.7810345 C57.4596983,35.087069 58.9213362,35.7956897 60.3834052,35.5398707 L64.8905172,34.7515086 C66.4491379,34.4788793 67.6221983,33.1803879 67.7357759,31.6021552 L68.1237069,26.2075431 C68.2105603,24.9993534 67.6573276,23.8342672 66.6659483,23.1381466 L63.2426724,20.7342672 C62.0282328,19.88125 60.4038793,19.9012931 59.2105603,20.7838362 Z" id="Shape" fill="#734B46"></path>
                <path d="M13.5950431,54.7553879 L14.7325431,58.943319 C15.0922414,60.2672414 16.3704741,61.1252155 17.7318966,60.9564655 L22.5635776,60.3575431 C23.7411638,60.2116379 24.693319,59.3284483 24.9271552,58.1650862 L25.6482759,54.5788793 C25.8976293,53.3387931 25.2709052,52.087931 24.1284483,51.5452586 L20.2226293,49.6900862 C19.3478448,49.274569 18.3193966,49.3484914 17.5131466,49.8849138 L14.7288793,51.737069 C13.7407328,52.3948276 13.2840517,53.6103448 13.5950431,54.7553879 Z" id="Shape" fill="#734B46"></path>
                <path d="M74.2131466,65.0775862 L68.9239224,63.856681 C67.2519397,63.4706897 65.550431,64.3728448 64.9318966,65.9737069 L62.7366379,71.6540948 C62.2015086,73.0385776 62.6125,74.6101293 63.756681,75.5553879 L67.2840517,78.4696121 C68.5038793,79.4773707 70.2530172,79.5256466 71.5267241,78.5868534 L75.8801724,75.3773707 C76.8551724,74.6586207 77.3814655,73.4810345 77.2665948,72.2752155 L76.8702586,68.1109914 C76.7297414,66.6334052 75.6592672,65.4116379 74.2131466,65.0775862 Z" id="Shape" fill="#734B46"></path>
                <path d="M42.4168103,79.4659483 L39.5532328,76.2140086 C38.6480603,75.1859914 37.124569,74.9799569 35.9788793,75.730819 L31.912931,78.3950431 C30.9219828,79.0443966 30.4577586,80.2549569 30.7603448,81.400431 L31.693319,84.9314655 C32.0159483,86.1525862 33.1282328,86.9974138 34.3911638,86.9806034 L38.7079741,86.9230603 C39.6747845,86.9101293 40.5637931,86.3909483 41.0502155,85.5553879 L42.7297414,82.6696121 C43.3258621,81.6456897 43.199569,80.3551724 42.4168103,79.4659483 Z" id="Shape" fill="#734B46"></path>
                <path d="M27.7920259,31.081681 L26.1605603,25.9043103 C25.7144397,24.4887931 26.2243534,22.9463362 27.4262931,22.075431 L30.8135776,19.6213362 C30.8853448,19.569181 30.9685345,19.5426724 31.043319,19.4965517 L30.4471983,19.2420259 C29.3331897,18.7668103 28.0512931,18.9107759 27.0704741,19.6213362 L23.6831897,22.075431 C22.48125,22.9463362 21.9713362,24.4885776 22.4174569,25.9043103 L24.0489224,31.081681 C24.5646552,32.718319 26.2053879,33.7267241 27.8984914,33.4478448 L29.6325431,33.162069 C28.7803879,32.7655172 28.0924569,32.0355603 27.7920259,31.081681 Z" id="Shape" fill="#644141"></path>
                <path d="M60.4976293,33.78125 L57.6051724,28.4221983 C56.7900862,26.912069 57.2094828,25.0323276 58.5890086,24.0118534 L62.9532328,20.7840517 C63.0118534,20.7405172 63.0821121,20.7247845 63.1426724,20.6855603 C61.9392241,19.8980603 60.3730603,19.9241379 59.2101293,20.7840517 L54.8459052,24.0118534 C53.4663793,25.0323276 53.0467672,26.912069 53.862069,28.4221983 L56.7545259,33.78125 C57.4594828,35.0875 58.9211207,35.7959052 60.3831897,35.5400862 L62.0403017,35.2502155 C61.3993534,34.9420259 60.8523707,34.4381466 60.4976293,33.78125 Z" id="Shape" fill="#644141"></path>
                <path d="M71.0269397,78.4696121 L67.499569,75.5553879 C66.3553879,74.6099138 65.9443966,73.0385776 66.4795259,71.6540948 L68.6747845,65.9737069 C68.9844828,65.1726293 69.5653017,64.5467672 70.2778017,64.169181 L68.9239224,63.8568966 C67.2517241,63.4709052 65.550431,64.3730603 64.9318966,65.9737069 L62.7366379,71.6540948 C62.2015086,73.0385776 62.6125,74.6099138 63.756681,75.5553879 L67.2840517,78.4696121 C68.4568966,79.4387931 70.1101293,79.4965517 71.3685345,78.6665948 C71.2571121,78.5943966 71.13125,78.5556034 71.0269397,78.4696121 Z" id="Shape" fill="#644141"></path>
                <path d="M45.2426724,57.6521552 C43.7077586,56.8846983 42.9706897,55.1056034 43.5133621,53.4778017 L45.2299569,48.3278017 C45.6993534,46.9196121 47.0170259,45.9700431 48.5012931,45.9700431 L44.7584052,45.9700431 C43.2741379,45.9700431 41.9564655,46.9196121 41.487069,48.3278017 L39.7704741,53.4778017 C39.2278017,55.1056034 39.9646552,56.8849138 41.499569,57.6521552 L46.9463362,60.3758621 C48.037931,60.9215517 49.2993534,60.8116379 50.3028017,60.1827586 L45.2426724,57.6521552 Z" id="Shape" fill="#644141"></path>
                <path d="M18.475431,58.943319 L17.337931,54.7551724 C17.0269397,53.6101293 17.4834052,52.3946121 18.4715517,51.7372845 L20.9963362,50.0579741 L20.2226293,49.6905172 C19.3478448,49.275 18.3193966,49.3491379 17.5131466,49.8853448 L14.7288793,51.7372845 C13.7409483,52.3946121 13.2842672,53.6101293 13.5952586,54.7551724 L14.7327586,58.943319 C15.0922414,60.2674569 16.3706897,61.1252155 17.7321121,60.956681 L19.980819,60.6778017 C19.2706897,60.3435345 18.6939655,59.7482759 18.475431,58.943319 Z" id="Shape" fill="#644141"></path>
                <path d="M35.4362069,84.93125 L34.5032328,81.4002155 C34.2006466,80.2547414 34.6648707,79.044181 35.655819,78.3948276 L39.2950431,76.0103448 C38.3771552,75.1931034 37.0297414,75.0422414 35.9788793,75.730819 L31.912931,78.3948276 C30.9219828,79.0443966 30.4577586,80.2547414 30.7603448,81.4002155 L31.693319,84.93125 C32.0159483,86.1523707 33.1282328,86.9974138 34.3911638,86.9806034 L37.8383621,86.9344828 C36.7047414,86.8241379 35.7325431,86.0532328 35.4362069,84.93125 Z" id="Shape" fill="#644141"></path>
                <path d="M46.5517241,37.9310345 C45.599569,37.9310345 44.8275862,37.1590517 44.8275862,36.2068966 L44.8275862,32.7586207 C44.8275862,31.8064655 45.599569,31.0344828 46.5517241,31.0344828 C47.5038793,31.0344828 48.2758621,31.8064655 48.2758621,32.7586207 L48.2758621,36.2068966 C48.2758621,37.1590517 47.5038793,37.9310345 46.5517241,37.9310345 Z" id="Shape" fill="#C98850"></path>
                <path d="M31.7487069,45.5418103 C31.075431,46.2150862 29.9836207,46.2150862 29.3103448,45.5418103 L26.8719828,43.1034483 C26.1987069,42.4301724 26.1987069,41.3385776 26.8719828,40.6650862 C27.5452586,39.9918103 28.637069,39.9918103 29.3103448,40.6650862 L31.7487069,43.1034483 C32.4219828,43.7767241 32.4219828,44.8685345 31.7487069,45.5418103 Z" id="Shape" fill="#925F4A"></path>
                <path d="M31.4915948,68.7243534 C30.6060345,68.374569 30.1717672,67.3728448 30.5215517,66.4872845 L31.7885776,63.2801724 C32.1383621,62.3946121 33.1400862,61.9603448 34.0256466,62.3101293 C34.9112069,62.6599138 35.3454741,63.6616379 34.9956897,64.5471983 L33.7286638,67.7543103 C33.3788793,68.6398707 32.3771552,69.0741379 31.4915948,68.7243534 Z" id="Shape" fill="#C98850"></path>
                <path d="M51.8355603,73.7002155 C50.9094828,73.9221983 49.9790948,73.3512931 49.7571121,72.4252155 L48.9536638,69.0717672 C48.731681,68.1456897 49.3025862,67.2153017 50.2286638,66.993319 C51.1547414,66.7713362 52.0851293,67.3422414 52.3071121,68.268319 L53.1105603,71.6217672 C53.3325431,72.5476293 52.7616379,73.4782328 51.8355603,73.7002155 Z" id="Shape" fill="#925F4A"></path>
                <path d="M57.025,88.5823276 C56.6650862,87.7006466 57.087931,86.6943966 57.9696121,86.3344828 L61.162069,85.0310345 C62.04375,84.6711207 63.05,85.0939655 63.4099138,85.9756466 C63.7698276,86.8573276 63.3469828,87.8635776 62.4653017,88.2234914 L59.2728448,89.5269397 C58.3911638,89.8866379 57.3849138,89.4637931 57.025,88.5823276 Z" id="Shape" fill="#925F4A"></path>
                <path d="M46.95625,13.8411638 C47.1797414,12.9155172 48.1112069,12.3463362 49.0368534,12.5696121 L52.3887931,13.3786638 C53.3144397,13.6021552 53.8836207,14.5336207 53.6603448,15.4592672 C53.4368534,16.3849138 52.5053879,16.9540948 51.5797414,16.730819 L48.2278017,15.9217672 C47.3021552,15.6982759 46.7327586,14.7668103 46.95625,13.8411638 Z" id="Shape" fill="#925F4A"></path>
                <path d="M15.5025862,75.5616379 C14.605819,75.2415948 14.1381466,74.2551724 14.4581897,73.3584052 L15.6170259,70.1107759 C15.937069,69.2140086 16.9234914,68.7463362 17.8202586,69.0663793 C18.7170259,69.3864224 19.1846983,70.3728448 18.8646552,71.2696121 L17.705819,74.5172414 C17.3857759,75.4140086 16.3993534,75.881681 15.5025862,75.5616379 Z" id="Shape" fill="#925F4A"></path>
                <path d="M13.0269397,34.9851293 C13.9521552,34.7603448 14.8844828,35.3282328 15.1092672,36.2536638 L15.9230603,39.6045259 C16.1478448,40.5297414 15.5799569,41.462069 14.6545259,41.6868534 C13.7293103,41.9116379 12.7969828,41.34375 12.5721983,40.418319 L11.7584052,37.0674569 C11.5338362,36.1422414 12.1017241,35.2099138 13.0269397,34.9851293 Z" id="Shape" fill="#C98850"></path>
                <path d="M61.3547414,50.7142241 C60.6814655,50.0409483 60.6814655,48.9491379 61.3547414,48.2758621 L63.7931034,45.8375 C64.4663793,45.1642241 65.5581897,45.1642241 66.2314655,45.8375 C66.9047414,46.5107759 66.9047414,47.6023707 66.2314655,48.2758621 L63.7931034,50.7142241 C63.1198276,51.3875 62.0280172,51.3875 61.3547414,50.7142241 Z" id="Shape" fill="#925F4A"></path>
                <path d="M84.2734914,57.4015086 C84.9467672,56.7282328 86.0385776,56.7282328 86.7118534,57.4015086 L89.1502155,59.8398707 C89.8234914,60.5131466 89.8234914,61.6049569 89.1502155,62.2782328 C88.4769397,62.9515086 87.3851293,62.9515086 86.7118534,62.2782328 L84.2734914,59.8398707 C83.6002155,59.1665948 83.6002155,58.0747845 84.2734914,57.4015086 Z" id="Shape" fill="#925F4A"></path>
                <path d="M84.7252155,71.0775862 C85.6060345,71.4396552 86.0265086,72.4469828 85.6644397,73.3278017 L84.3536638,76.5172414 C83.9915948,77.3980603 82.9842672,77.8185345 82.1036638,77.4564655 C81.2228448,77.0943966 80.8023707,76.087069 81.1644397,75.20625 L82.4752155,72.0168103 C82.837069,71.1359914 83.8446121,70.7155172 84.7252155,71.0775862 Z" id="Shape" fill="#C98850"></path>
                <path d="M82.7922414,28.969181 L83.9625,34.8206897 C84.1450431,35.7331897 85.01875,36.3362069 85.9366379,36.1831897 L93.0021552,35.0056034 C93.9144397,34.8534483 94.544181,34.0088362 94.4295259,33.0911638 L93.256681,23.7086207 C93.0976293,22.4368534 91.655819,21.7769397 90.5894397,22.487931 L83.5265086,27.1965517 C82.9450431,27.5840517 82.6551724,28.2840517 82.7922414,28.969181 Z" id="Shape" fill="#B97850"></path>
                <path d="M77.4982759,21.6866379 L89.8948276,16.1769397 C90.7286638,15.8064655 91.1293103,14.850431 90.8090517,13.9961207 L86.7905172,3.27974138 C86.4648707,2.41142241 85.5107759,1.95625 84.6310345,2.24956897 L76.6206897,4.91961207 C76.1396552,5.0799569 75.7534483,5.44396552 75.5650862,5.91487069 L72.6698276,13.1528017 C72.5053879,13.5637931 72.5053879,14.0224138 72.6698276,14.4334052 L75.1969828,20.7512931 C75.5601293,21.6592672 76.6047414,22.0836207 77.4982759,21.6866379 Z" id="Shape" fill="#B97850"></path>
                <path d="M75.3806034,29.3103448 L77.2071121,29.3103448 C78.2950431,29.3103448 79.1112069,30.305819 78.8978448,31.3726293 L78.0911638,35.4064655 C77.850431,36.6099138 76.4653017,37.1836207 75.444181,36.5028017 L73.5096983,35.2131466 C72.8627155,34.7818966 72.5844828,33.9709052 72.8303879,33.2334052 L73.7450431,30.4892241 C73.9797414,29.7851293 74.6385776,29.3103448 75.3806034,29.3103448 Z" id="Shape" fill="#A5694B"></path>
                <path d="M81.0344828,43.1034483 L81.0344828,43.4142241 C81.0344828,44.2359914 81.6146552,44.94375 82.4204741,45.1049569 L87.5928879,46.1394397 C88.6596983,46.3528017 89.6551724,45.5368534 89.6551724,44.4487069 L89.6551724,43.1034483 C89.6551724,42.1512931 88.8831897,41.3793103 87.9310345,41.3793103 L82.7586207,41.3793103 C81.8064655,41.3793103 81.0344828,42.1512931 81.0344828,43.1034483 Z" id="Shape" fill="#A5694B"></path>
                <path d="M78.5125,19.6053879 L75.9853448,13.2875 C75.8209052,12.8765086 75.8209052,12.4178879 75.9853448,12.0068966 L78.8806034,4.76896552 C79.0461207,4.35517241 79.3803879,4.04913793 79.781681,3.86616379 L76.6206897,4.91982759 C76.1396552,5.08017241 75.7534483,5.44439655 75.5650862,5.91530172 L72.6698276,13.1532328 C72.5053879,13.5640086 72.5053879,14.0226293 72.6698276,14.4336207 L75.1969828,20.7517241 C75.5601293,21.6592672 76.6045259,22.0840517 77.4980603,21.6868534 L79.8579741,20.6381466 C79.2769397,20.5478448 78.7480603,20.19375 78.5125,19.6053879 Z" id="Shape" fill="#A5694B"></path>
                <path d="M86.9400862,34.4793103 L85.481681,27.1877155 C85.3786638,26.6730603 85.4883621,26.1625 85.7351293,25.7239224 L83.5262931,27.1963362 C82.9448276,27.5840517 82.6549569,28.2840517 82.7920259,28.969181 L83.9622845,34.8206897 C84.1448276,35.7329741 85.0185345,36.3359914 85.9364224,36.1831897 L87.8952586,35.8564655 C87.4202586,35.5525862 87.0592672,35.074569 86.9400862,34.4793103 Z" id="Shape" fill="#A5694B"></path>
            </g>
        </g>
    </g>
</svg>