<?xml version="1.0" encoding="UTF-8"?>
<svg width="93px" height="93px" viewBox="0 0 93 93" version="1.1" xmlns="http://www.w3.org/2000/svg" xmlns:xlink="http://www.w3.org/1999/xlink">
    <!-- Generator: Sketch 50 (54983) - http://www.bohemiancoding.com/sketch -->
    <title>Artboard</title>
    <desc>Created with Sketch.</desc>
    <defs></defs>
    <g id="Artboard" stroke="none" stroke-width="1" fill="none" fill-rule="evenodd">
        <g id="dentist" transform="translate(21.000000, 18.000000)" fill-rule="nonzero">
            <path d="M51,48.2893632 L51,56 L0,56 L0,48.2893632 C0,45.5769722 1.61400482,43.1163904 4.12915673,41.9971044 L15.5090213,36.9339819 L19.8563564,35 L31.1434197,35 L35.557921,36.9647708 L46.8707313,41.9971044 C49.3859952,43.1163904 51,45.5769722 51,48.2893632 Z" id="Shape" fill="#00DDC0"></path>
            <path d="M50,48.2893632 L50,56 L25,56 L25,35 L30.5627392,35 L34.884042,36.9647708 L45.9580176,41.9971044 C48.4200699,43.1163904 50,45.5769722 50,48.2893632 Z" id="Shape" fill="#00AC93"></path>
            <polygon id="Shape" fill="#FFC373" points="35 37.0498601 30.9435843 48 19.457423 48 15 37.0177379 19.3368193 35 30.5951736 35"></polygon>
            <polygon id="Shape" fill="#FFB74D" points="35 37.0498601 30.9593544 48 25 48 25 35 30.6122982 35"></polygon>
            <rect id="Rectangle-path" fill="#FFDAA7" x="18" y="45" width="15" height="12"></rect>
            <rect id="Rectangle-path" fill="#FFC373" x="25" y="45" width="7" height="12"></rect>
            <path d="M43,20.7966312 C43,22.1496597 42.471279,23.4274033 41.5082395,24.3946103 C40.944638,24.9605187 40.2684063,25.3839274 39.5304023,25.6437213 C39.294115,33.0475146 33.0906732,39 25.4988748,39 L25.4606188,39 C17.8868232,38.9801009 11.7068977,33.0353541 11.4695977,25.6437213 C10.7304685,25.3839274 10.055362,24.9606293 9.49176049,24.3946103 C8.52984614,23.4274033 8,22.1495491 8,20.7966312 C8,19.4437132 8.52984614,18.165859 9.49176049,17.198652 C10.0452354,16.6437987 10.7034643,16.224812 11.426841,15.9650181 C11.4380927,15.9594906 11.4515949,15.9550686 11.4628466,15.9506465 L11.4628466,9 L39.5361407,9 L39.5361407,15.9506465 C40.2741447,16.2104404 40.9458757,16.6337386 41.508352,17.198652 C42.4711665,18.1657485 43,19.4436026 43,20.7966312 Z" id="Shape" fill="#FFDAA7"></path>
            <path d="M42,20.7966312 C42,22.1496597 41.4875386,23.4274033 40.554115,24.3946103 C40.0078457,24.9605187 39.3524099,25.3839274 38.6371014,25.6437213 C38.4080805,33.0475146 32.3954106,39 25.0370796,39 L25,39 L25,9 L38.6425543,9 L38.6425543,15.9506465 C39.3578627,16.2104404 40.0089363,16.6337386 40.554115,17.198652 C41.4874295,18.1657485 42,19.4436026 42,20.7966312 Z" id="Shape" fill="#FFC373"></path>
            <path d="M40,8.64729655 L40,13 L12,13 L12,8.64729655 C12,3.87963295 15.8272687,0 20.5305822,0 L31.4246564,0 C36.1289795,0 40,3.87963295 40,8.64729655 Z" id="Shape" fill="#787780"></path>
            <path d="M25,13 L25,0 L30.4485277,0 C35.1398058,0 39,3.87963295 39,8.64729655 L39,13 L25,13 Z" id="Shape" fill="#57555C"></path>
            <path d="M31,10.4994497 C31,13.5370029 28.5378573,16 25.5,16 C25.4867905,16 25.4746818,16 25.4614723,15.9988993 C22.4412277,15.979087 20,13.5237948 20,10.4994497 C20,7.47510456 22.4412277,5.02091297 25.4614723,5.00110068 C25.4746818,5 25.4867905,5 25.5,5 C28.5378573,5 31,7.46189638 31,10.4994497 Z" id="Shape" fill="#C8E7F9"></path>
            <path d="M25.5,5 L25.4595918,5 C21.3418768,5.02047193 18,8.15343174 18,11.9994613 C18,15.846676 21.3419922,18.9795281 25.4595918,19 L25.5,19 C29.6361873,19 33,15.8594979 33,11.9994613 C33,8.14039435 29.6361873,5 25.5,5 Z M25.5,15.7680207 L25.4595918,15.7680207 C23.2523783,15.7475488 21.4631015,14.064756 21.4631015,11.9994613 C21.4631015,9.93524405 23.2523783,8.25245124 25.4595918,8.23197931 L25.5,8.23197931 C27.7256858,8.23197931 29.5368985,9.92231441 29.5368985,11.9994613 C29.5368985,14.0776856 27.7256858,15.7680207 25.5,15.7680207 Z" id="Shape" fill="#ADACB2"></path>
            <polygon id="Shape" fill="#00AC93" points="16.4241135 37 11.3976754 39.3844081 9 51.4476108 15.9466457 57 24 57"></polygon>
            <polygon id="Shape" fill="#008778" points="37.6025187 39.3844081 32.5759398 37 25 57 33.053411 57 40 51.4476108"></polygon>
            <path d="M19,12 C19,12 16.3069509,17.3145473 12,16.985311 C12.0116504,16.9790755 12.0233009,16.9740871 12.0349513,16.9690986 L12.0349513,12 L19,12 Z" id="Shape" fill="#FF633E"></path>
            <path d="M32,12 C32,12 34.6930491,17.3145473 39,16.985311 C38.9883496,16.9790755 38.9766991,16.9740871 38.9650487,16.9690986 L38.9650487,12 L32,12 Z" id="Shape" fill="#FF3100"></path>
            <rect id="Rectangle-path" fill="#ADACB2" x="12" y="10" width="7" height="4"></rect>
            <path d="M25.0347816,16 C25.0228565,16 25.0119251,16 25,15.9988993 L25,5.00110068 C25.0119251,5 25.0228565,5 25.0347816,5 C27.7772588,5 30,7.46189638 30,10.4994497 C30,13.5370029 27.7772588,16 25.0347816,16 Z" id="Shape" fill="#B5DFF6"></path>
            <path d="M39,10.9264088 L32.2212305,10.9264088 C31.6835649,7.5748303 28.6682302,5 25.0391558,5 L25,5 L25,8.23197931 L25.0391558,8.23197931 C27.1958591,8.23197931 28.9509353,9.92231441 28.9509353,11.9994613 C28.9509353,14.0776856 27.1958591,15.7680207 25.0391558,15.7680207 L25,15.7680207 L25,19 L25.0391558,19 C28.265037,19 31.0046028,16.9649822 31.9515027,14.1583881 L39,14.1583881 L39,10.9264088 Z" id="Shape" fill="#8A8791"></path>
        </g>
    </g>
</svg>