<?xml version="1.0" encoding="UTF-8"?>
<svg width="25px" height="100px" viewBox="0 0 25 100" version="1.1" xmlns="http://www.w3.org/2000/svg" xmlns:xlink="http://www.w3.org/1999/xlink">
    <!-- Generator: Sketch 51.2 (57519) - http://www.bohemiancoding.com/sketch -->
    <title>dental-floss</title>
    <desc>Created with Sketch.</desc>
    <defs></defs>
    <g id="Icons" stroke="none" stroke-width="1" fill="none" fill-rule="evenodd">
        <g id="Artboard" transform="translate(-955.000000, -484.000000)" fill-rule="nonzero">
            <g id="dental-floss" transform="translate(955.000000, 484.000000)">
                <path d="M23.3779891,29.8177112 C23.1820652,29.8177112 22.9970109,29.6991826 22.9209239,29.5051771 L11.6334239,0.717166213 C11.5342391,0.464305177 11.6581522,0.178474114 11.9108696,0.0792915531 C12.163587,-0.0207084469 12.4480978,0.104359673 12.5467391,0.357220708 L23.8345109,29.1452316 C23.9336957,29.3980926 23.8095109,29.6839237 23.557337,29.7833787 C23.4983696,29.8065395 23.4375,29.8177112 23.3779891,29.8177112 Z" id="Shape" fill="#B7B3B3"></path>
                <path d="M24.7535326,24.8283379 C24.3546196,23.8177112 23.213587,23.3223433 22.2059783,23.7220708 C22.2059783,23.7220708 18.0766304,25.3940054 16.5252717,25.9757493 C14.9736413,26.5572207 11.90625,26.1882834 10.0660326,25.3885559 C8.00163043,24.4915531 5.10652174,21.9953678 5.6638587,16.1953678 C5.76358696,15.1574932 5.98423913,14.1291553 6.36304348,13.1414169 C7.63858696,9.8133515 10.6040761,7.39073569 15.1771739,5.94087193 C16.2108696,5.61280654 16.7839674,4.50681199 16.4567935,3.47029973 C16.1296196,2.43351499 15.0269022,1.85831063 13.9932065,2.18692098 C4.33831522,5.24822888 0.140217391,12.3531335 2.17228261,22.1918256 C2.60081522,24.2675749 3.29157609,26.3959128 4.22527174,28.5179837 C4.62771739,29.4326975 4.72907609,31.3553134 4.79021739,34.1231608 C4.85163043,36.8912807 4.85163043,70.7850136 4.85163043,70.7850136 C4.85163043,71.9084469 4.31005435,73.3498638 3.30380435,74.8326975 C0.894565217,78.3833787 -2.69402174,83.5179837 3.44048913,91.4531335 C9.575,99.3885559 12.1644022,100.076567 12.4584239,99.8188011 C12.9491848,99.3882834 7.85733696,91.5760218 6.48559783,89.3049046 C2.63233696,82.9258856 4.15842391,80.5719346 6.54972826,77.047139 C7.84619565,75.1365123 9.18641304,73.1610354 9.18641304,70.8256131 C9.18641304,70.8256131 11.4154891,40.3356948 11.9059783,36.7678474 C12.3970109,33.2 15.5255435,30.8010899 18.7407609,29.3299728 C19.9459239,28.7784741 23.6502717,27.3825613 23.6502717,27.3825613 C24.6584239,26.9828338 25.1521739,25.8392371 24.7535326,24.8283379 Z" id="Shape" fill="#32BEA6"></path>
            </g>
        </g>
    </g>
</svg>