<?xml version="1.0" encoding="iso-8859-1"?>
<!-- Generator: Adobe Illustrator 19.0.0, SVG Export Plug-In . SVG Version: 6.00 Build 0)  -->
<svg version="1.1" id="Capa_1" xmlns="http://www.w3.org/2000/svg" xmlns:xlink="http://www.w3.org/1999/xlink" x="0px" y="0px"
	 viewBox="0 0 512 512" style="enable-background:new 0 0 512 512;" xml:space="preserve">
<path style="fill:#C4CAD9;" d="M364.718,306.299c-3.835,0-7.67-1.464-10.597-4.392c-5.854-5.854-5.854-15.34,0-21.194l84.776-84.776
	c5.854-5.854,15.34-5.854,21.194,0c5.854,5.854,5.854,15.34,0,21.194l-84.776,84.776
	C372.388,304.835,368.553,306.299,364.718,306.299z"/>
<path style="fill:#B8BFCC;" d="M393.149,241.684l-39.029,39.029c-5.854,5.854-5.854,15.34,0,21.194
	c2.928,2.928,6.763,4.392,10.597,4.392s7.67-1.464,10.597-4.392l39.029-39.029L393.149,241.684z"/>
<path style="fill:#7BCC29;" d="M490.154,147.768l-53.057-53.059c-22.182-22.482-53.059-33.273-84.533-30.276
	c-23.682,2.098-46.463,12.89-63.549,29.976C220.202,163.337,68.888,315.536,14.034,370.39
	c-42.978,42.969,22.736,105.762,63.25,63.849c125.33-125.33,20.632-20.907,147.882-148.881c5.695-5.695,15.589-5.695,21.282,0
	l53.059,52.758c28.178,28.477,77.639,28.477,105.817,0c5.994-5.695,5.994-15.288,0-20.983L384.04,295.85l-52.758-52.758
	c-43.138-43.138,21.8-105.599,65.947-61.451c53.299,53.843,7.145,7.145,50.66,50.66l21.284,21.282
	c2.697,2.999,7.494,3.297,10.491,4.497c3.897,0,7.794-1.499,10.791-4.497C519.232,224.206,519.232,176.844,490.154,147.768z"/>
<path style="fill:#6EB825;" d="M267.458,115.993C192.43,191.087,63.753,320.672,14.035,370.39
	c-42.977,42.968,22.735,105.762,63.25,63.849c125.329-125.331,20.631-20.907,147.882-148.881c5.695-5.695,15.589-5.695,21.282,0
	l53.059,52.758c28.178,28.477,77.639,28.477,105.817,0c5.994-5.695,5.994-15.288,0-20.983l-21.284-21.282l-52.758-52.758
	c-21.472-21.472-16.148-47.716,0.042-63.233L267.458,115.993z"/>
<g>
	<path style="fill:#63A621;" d="M87.175,297.026c23.492,23.492,40.733,40.662,63.244,63.172l21.283-21.283
		c-23.492-23.492-40.733-40.662-63.244-63.172L87.175,297.026z"/>
	<path style="fill:#63A621;" d="M130.343,381.18l-21.284,21.284c-53.055-53.055-21.291-21.887-63.549-63.549l21.284-21.284
		C99.792,350.632,102.14,352.981,130.343,381.18z"/>
</g>
<g>
</g>
<g>
</g>
<g>
</g>
<g>
</g>
<g>
</g>
<g>
</g>
<g>
</g>
<g>
</g>
<g>
</g>
<g>
</g>
<g>
</g>
<g>
</g>
<g>
</g>
<g>
</g>
<g>
</g>
</svg>
