<?xml version="1.0" encoding="iso-8859-1"?>
<!-- Generator: Adobe Illustrator 19.0.0, SVG Export Plug-In . SVG Version: 6.00 Build 0)  -->
<svg version="1.1" id="Layer_1" xmlns="http://www.w3.org/2000/svg" xmlns:xlink="http://www.w3.org/1999/xlink" x="0px" y="0px"
	 viewBox="0 0 512 512" style="enable-background:new 0 0 512 512;" xml:space="preserve">
<path style="fill:#00DDC0;" d="M483.793,441.818v70.122H28.207v-70.122c0-24.667,14.418-47.044,36.886-57.223L166.75,338.55
	l38.835-17.588h100.828l39.435,17.868l101.058,45.765C469.375,394.774,483.793,417.151,483.793,441.818z"/>
<path style="fill:#00AC93;" d="M483.793,441.818v70.122H255.65V320.962h50.764l39.435,17.868l101.058,45.765
	C469.375,394.774,483.793,417.151,483.793,441.818z"/>
<polygon style="fill:#FFC373;" points="345.549,338.83 309.224,434.279 206.366,434.279 166.45,338.55 205.286,320.962 
	306.104,320.962 "/>
<polygon style="fill:#FFB74D;" points="345.549,338.83 309.224,434.279 255.65,434.279 255.65,320.962 306.104,320.962 "/>
<rect x="192.207" y="402.393" style="fill:#FFDAA7;" width="127.585" height="109.607"/>
<rect x="255.65" y="402.393" style="fill:#FFC373;" width="64.142" height="109.607"/>
<path style="fill:#FFDAA7;" d="M411.532,191.048c0,12.239-4.699,23.797-13.258,32.546c-5.009,5.119-11.019,8.949-17.578,11.299
	c-2.1,66.972-57.233,120.816-124.705,120.816h-0.34c-67.312-0.18-122.236-53.954-124.345-120.816
	c-6.569-2.35-12.569-6.179-17.578-11.299c-8.549-8.749-13.258-20.308-13.258-32.546s4.709-23.797,13.258-32.546
	c4.919-5.019,10.769-8.809,17.198-11.159c0.1-0.05,0.22-0.09,0.32-0.13V84.34h249.501v62.873c6.559,2.35,12.529,6.179,17.528,11.289
	C406.832,167.25,411.532,178.809,411.532,191.048z"/>
<path style="fill:#FFC373;" d="M411.532,191.048c0,12.239-4.699,23.797-13.258,32.546c-5.009,5.119-11.019,8.949-17.578,11.299
	c-2.1,66.972-57.233,120.816-124.705,120.816h-0.34V84.34h125.095v62.873c6.559,2.35,12.529,6.179,17.528,11.289
	C406.832,167.25,411.532,178.809,411.532,191.048z"/>
<path style="fill:#787780;" d="M380.795,76.041v38.276H131.205V76.041C131.205,34.116,165.321,0,207.246,0h97.109
	C346.289,0,380.795,34.116,380.795,76.041z"/>
<path style="fill:#57555C;" d="M255.65,114.317V0h48.704c41.935,0,76.441,34.116,76.441,76.041v38.276H255.65z"/>
<path style="fill:#C8E7F9;" d="M305.964,102.328c0,27.597-22.367,49.974-49.964,49.974c-0.12,0-0.23,0-0.35-0.01
	c-27.437-0.18-49.614-22.487-49.614-49.964s22.177-49.774,49.614-49.954c0.12-0.01,0.23-0.01,0.35-0.01
	C283.597,52.364,305.964,74.731,305.964,102.328z"/>
<path style="fill:#ADACB2;" d="M256,37.366h-0.35c-35.666,0.19-64.612,29.267-64.612,64.962c0,35.706,28.947,64.782,64.612,64.972
	H256c35.826,0,64.962-29.147,64.962-64.972C320.962,66.512,291.826,37.366,256,37.366z M256,137.304h-0.35
	c-19.118-0.19-34.616-15.808-34.616-34.976c0-19.158,15.498-34.776,34.616-34.966H256c19.278,0,34.966,15.688,34.966,34.966
	C290.966,121.616,275.278,137.304,256,137.304z"/>
<polygon style="fill:#00AC93;" points="183.819,330.872 136.162,352.459 113.429,461.672 179.292,511.94 255.648,511.94 "/>
<polygon style="fill:#008778;" points="375.84,352.459 328.182,330.872 256.353,511.94 332.709,511.94 398.571,461.672 "/>
<path style="fill:#FF633E;" d="M196.959,107.367c0,0-25.427,42.615-66.092,39.975c0.11-0.05,0.22-0.09,0.33-0.13v-39.845H196.959z"
	/>
<path style="fill:#FF3100;" d="M315.041,107.367c0,0,25.427,42.615,66.092,39.975c-0.11-0.05-0.22-0.09-0.33-0.13v-39.845H315.041z"
	/>
<rect x="131.205" y="92.369" style="fill:#ADACB2;" width="69.072" height="29.996"/>
<path style="fill:#B5DFF6;" d="M256,152.302c-0.12,0-0.23,0-0.35-0.01V52.374c0.12-0.01,0.23-0.01,0.35-0.01
	c27.597,0,49.964,22.367,49.964,49.964S283.597,152.302,256,152.302z"/>
<path style="fill:#8A8791;" d="M380.791,92.369h-60.593C315.392,61.263,288.439,37.366,256,37.366h-0.35v29.996H256
	c19.278,0,34.966,15.688,34.966,34.966c0,19.288-15.688,34.976-34.966,34.976h-0.35V167.3H256c28.835,0,53.323-18.887,61.787-44.935
	h63.004L380.791,92.369L380.791,92.369z"/>
<g>
</g>
<g>
</g>
<g>
</g>
<g>
</g>
<g>
</g>
<g>
</g>
<g>
</g>
<g>
</g>
<g>
</g>
<g>
</g>
<g>
</g>
<g>
</g>
<g>
</g>
<g>
</g>
<g>
</g>
</svg>
