<?xml version="1.0" encoding="UTF-8"?>
<svg width="93px" height="93px" viewBox="0 0 93 93" version="1.1" xmlns="http://www.w3.org/2000/svg" xmlns:xlink="http://www.w3.org/1999/xlink">
    <!-- Generator: Sketch 50 (54983) - http://www.bohemiancoding.com/sketch -->
    <title>Artboard</title>
    <desc>Created with Sketch.</desc>
    <defs></defs>
    <g id="Artboard" stroke="none" stroke-width="1" fill="none" fill-rule="evenodd">
        <g id="donuts" transform="translate(19.000000, 24.000000)" fill-rule="nonzero">
            <path d="M55.8835173,28.1494274 C54.1920319,38.2604253 43.3969313,45 27.9979058,45 C12.5988804,45 1.80531103,38.2604253 0.115575584,28.1494274 C-0.283752795,25.7648713 0.36790387,15.0572163 1.81985792,12.983694 C5.95773555,7.0776506 7.43736149,29.6955446 27.9977965,29.6955446 C50.3903732,29.6955446 50.0556855,7.0776506 54.1919225,12.983694 C55.6458453,15.0573253 56.2814238,25.7647622 55.8835173,28.1494274" id="Shape" fill="#FFAC33"></path>
            <g id="Group" transform="translate(1.000000, 0.000000)" fill="#8A4B38">
                <path d="M27.198464,21.8160055 C22.0930673,21.8160055 17.9527183,20.6766239 17.9527183,19.2708963 C17.9527183,17.8651687 22.0929585,16.727434 27.198464,16.727434 C32.3023376,16.727434 36.4425777,17.8652785 36.4425777,19.2708963 C36.4426865,20.6765142 32.3022288,21.8160055 27.198464,21.8160055 M27.198464,0.108141339 C12.1894136,0.108141339 0.0227390074,7.54848501 0.0227390074,16.7273242 C0.0227390074,25.9061634 12.1895224,33.3482637 27.198464,33.3482637 C42.2058825,33.3482637 54.3741891,25.9061634 54.3741891,16.727434 C54.3741891,7.54870459 42.2058825,0.108141339 27.198464,0.108141339" id="Shape"></path>
                <path d="M0.86310309,14.1119506 C-0.187243214,15.8081777 -0.616673177,23.0293842 1.63350936,26.4104204 C5.06601149,31.5703542 6.74532527,28.9538828 9.26750551,29.7314025 C13.0233585,30.8919732 13.3016665,33.8866649 16.2725342,35.3863711 C19.6343169,37.0825982 21.5886748,36.5892102 26.3578824,35.3863711 C33.0830798,33.6902538 37.3551844,37.1523137 41.485959,35.3863711 C44.8735271,33.9369478 46.8117827,28.6715076 48.7017315,28.0368223 C54.6983015,26.0192452 55.9641788,16.471957 51.5022198,12.5553741 C50.1028461,15.5256928 43.239365,26.1977608 38.8271272,26.6929054 C34.4117341,27.1879402 21.1753471,28.3160136 15.5729561,25.4204606 C9.96893317,22.523151 4.29560522,18.918147 3.59439516,17.9297242 C2.89459948,16.9393252 0.86310309,14.1119506 0.86310309,14.1119506" id="Shape"></path>
            </g>
            <path d="M27.9999452,13 C21.92434,13 17,14.9884372 17,17.4415916 C17,18.3969834 17.7497299,19.2777882 19.0160013,20 C18.8119477,19.7894918 18.6921223,19.5725216 18.6921223,19.3459131 C18.6921223,17.9435474 22.8601606,16.8085336 27.9999452,16.8085336 C33.1380869,16.8085336 37.3061252,17.9436569 37.3061252,19.3459131 C37.3061252,19.5726311 37.1879428,19.7894918 36.9822463,20 C38.2501606,19.2777882 39,18.3969834 39,17.4415916 C38.9998905,14.9884372 34.0740171,13 27.9999452,13" id="Shape" fill="#F4900C"></path>
            <g id="Group" transform="translate(4.000000, 14.000000)" fill="#F4ABBA">
                <path d="M1.75811163,5.30825165 C1.14327716,5.30825165 0.549735657,4.98768209 0.241542114,4.42858143 C-0.201174194,3.62315174 0.11855304,2.62341481 0.95640918,2.19869486 L4.74056897,0.270363732 C5.57509808,-0.157667668 6.61290851,0.151899339 7.05562482,0.95893134 C7.49834113,1.76436103 7.17861389,2.76409796 6.34075775,3.18881791 L2.55659796,5.11565355 C2.30241315,5.24672281 2.02859888,5.30825165 1.75811163,5.30825165" id="Shape"></path>
                <path d="M21.2481648,17.6167982 C20.5758837,17.6167982 19.9382036,17.234593 19.6642784,16.5965517 L18.4510228,13.7759455 C18.0885988,12.9341967 18.5051425,11.9692834 19.3790414,11.6202994 C20.2544929,11.272811 21.2547079,11.6708257 21.6170211,12.5156723 L22.8302767,15.3362785 C23.1927008,16.1780273 22.7778206,17.1429407 21.9022582,17.4919246 C21.6892176,17.5773813 21.4663068,17.6167982 21.2481648,17.6167982" id="Shape"></path>
            </g>
            <path d="M44.619982,25 C44.3390481,25 44.0550697,24.9295755 43.797337,24.781228 C43.0259237,24.3422655 42.7698707,23.3820603 43.2261258,22.6390058 L44.9815426,19.7686245 C45.436328,19.0255699 46.4374436,18.7783242 47.202663,19.2172867 C47.9740763,19.6576679 48.2301293,20.6164545 47.7738742,21.3611303 L46.0168826,24.2299916 C45.7157921,24.7242805 45.174081,25 44.619982,25" id="Shape" fill="#55ACEE"></path>
            <g id="Group" transform="translate(29.000000, 3.000000)" fill="#F4ABBA">
                <path d="M18.1169418,10.9001793 C17.2103829,10.9001793 16.4608485,10.0954491 16.4284362,9.15029844 C16.3960239,8.18670417 17.1261767,7.34531302 18.0585777,7.31012305 L20.0303624,7.2231099 C20.9806121,7.21145534 21.7479952,7.93743242 21.7804075,8.90261081 C21.8128198,9.86620508 21.0826671,10.734413 20.150266,10.769603 L18.1784814,10.9000661 L18.1169418,10.9000661 L18.1169418,10.9001793 Z" id="Shape"></path>
                <path d="M1.76493725,4.00226549 C1.04617263,4.00226549 0.380735005,3.52544701 0.150892389,2.78113945 C-0.12921119,1.85929792 0.364528856,0.877373177 1.25499105,0.586348698 L2.59221736,0.149698828 C3.49067314,-0.143022917 4.43281981,0.368872396 4.7146754,1.28890352 C4.99795451,2.21074505 4.50257195,3.19266979 3.61386177,3.48369427 L2.27510244,3.92034414 C2.10482838,3.9754487 1.9332403,4.00226549 1.76493725,4.00226549" id="Shape"></path>
            </g>
            <g id="Group" transform="translate(18.000000, 5.000000)" fill="#88C9F9">
                <path d="M3.02543108,4.06267842 C2.76962891,4.06267842 2.51052037,4.00488799 2.26607003,3.88637965 L0.988712333,3.25805775 C0.147904576,2.84441702 -0.19430385,1.83780089 0.226155134,1.01073628 C0.646614118,0.183563239 1.66982282,-0.153095861 2.51052037,0.260544869 L3.78787807,0.888866765 C4.62868583,1.3025075 4.97089425,2.30749726 4.55043527,3.13618824 C4.25242188,3.722875 3.65110491,4.06267842 3.02543108,4.06267842" id="Shape"></path>
                <path d="M17.8562263,25.3492918 C17.6019671,25.3492918 17.3429688,25.2932362 17.0985184,25.1746194 L15.8211607,24.5478155 C14.97881,24.1341747 14.6366016,23.129185 15.0552972,22.3020119 C15.4739927,21.4716946 16.4956585,21.1366618 17.3396624,21.5485678 L18.6170201,22.1753717 C19.4578278,22.5872777 19.8000363,23.5923758 19.3828836,24.4211753 C19.0848703,25.0094884 18.4820103,25.3492918 17.8562263,25.3492918" id="Shape"></path>
            </g>
            <g id="Group" transform="translate(9.000000, 7.000000)" fill="#55ACEE">
                <path d="M4.86093264,20.3019678 C4.63992699,20.3019678 4.41729629,20.2589509 4.20105743,20.1615204 C3.35213572,19.7865471 2.95974235,18.7706777 3.32331832,17.8951441 L3.95112604,16.3854183 C4.31632704,15.5116723 5.3013189,15.0987101 6.15024061,15.4801639 C6.99916232,15.8568132 7.39318073,16.8710065 7.02797972,17.7465402 L6.400172,19.256266 C6.12781503,19.9104581 5.50964923,20.3019678 4.86093264,20.3019678" id="Shape"></path>
                <path d="M29.8327296,3.97409159 C29.187263,3.97409159 28.572239,3.58760985 28.2983653,2.9400099 C27.9282892,2.06626394 28.3143991,1.04860688 29.1600707,0.665365369 L30.2748492,0.16156479 C31.1253959,-0.221676724 32.1103878,0.178101158 32.4788389,1.05184712 C32.8504317,1.92559308 32.4644302,2.94325013 31.6171335,3.3249274 L30.502355,3.82872798 C30.2828661,3.92783446 30.0569853,3.97409159 29.8327296,3.97409159" id="Shape"></path>
                <path d="M2.63170063,3.90213605 C2.5067891,3.90213605 2.38025253,3.88727566 2.25534101,3.85755489 L1.34878449,3.64280556 C0.446994764,3.42805624 -0.115052942,2.50134921 0.0931690492,1.57296619 C0.299765999,0.642907193 1.19993068,0.0648046875 2.09847033,0.277989763 L3.00502685,0.492739089 C3.90681657,0.707488416 4.46886428,1.63419545 4.26237566,2.56257846 C4.0827544,3.36202249 3.39406179,3.90213605 2.63170063,3.90213605" id="Shape"></path>
            </g>
        </g>
    </g>
</svg>