<?xml version="1.0" encoding="UTF-8"?>
<svg width="234px" height="186px" viewBox="0 0 234 186" version="1.1" xmlns="http://www.w3.org/2000/svg" xmlns:xlink="http://www.w3.org/1999/xlink">
    <!-- Generator: Sketch 51.2 (57519) - http://www.bohemiancoding.com/sketch -->
    <title>Group 3</title>
    <desc>Created with Sketch.</desc>
    <defs>
        <path d="M0.620689655,5.62318702 C0.620689655,2.86038401 2.84974278,0.620689655 5.61695898,0.620689655 L228.383041,0.620689655 C231.142404,0.620689655 233.37931,2.86283844 233.37931,5.62318702 L233.37931,185.854996 L0.620689655,185.854996 L0.620689655,5.62318702 Z" id="path-1"></path>
    </defs>
    <g id="Screens" stroke="none" stroke-width="1" fill="none" fill-rule="evenodd">
        <g id="⟶-Questions" transform="translate(-71.000000, -273.000000)">
            <g id="Answers" transform="translate(63.000000, 265.000000)">
                <g id="1">
                    <g id="Group-3" transform="translate(8.000000, 8.000000)">
                        <mask id="mask-2" fill="white">
                            <use xlink:href="#path-1"></use>
                        </mask>
                        <use id="Mask-Copy-3" fill="#3FC9DD" xlink:href="#path-1"></use>
                        <g id="donuts" mask="url(#mask-2)">
                            <g transform="translate(52.000000, 46.000000)">
                                <path d="M124.924794,67.76714 C121.143563,92.1084313 97.0116585,108.333333 62.5879112,108.333333 C28.1641639,108.333333 4.03568207,92.1084313 0.25836341,67.76714 C-0.63431511,62.0265419 0.822430609,36.248854 4.0682009,31.257041 C13.3182184,17.0387885 16.6258478,71.489274 62.5876667,71.489274 C112.645146,71.489274 111.896969,17.0387885 121.143319,31.257041 C124.39349,36.2491166 125.814294,62.0262794 124.924794,67.76714" id="Shape" fill="#FFAC33" fill-rule="nonzero"></path>
                                <g id="Group" stroke-width="1" fill="none" fill-rule="evenodd" transform="translate(2.407407, 0.000000)">
                                    <path d="M60.7157632,52.5200132 C49.3188674,52.5200132 40.0762703,49.7770577 40.0762703,46.3928986 C40.0762703,43.0087395 49.3186245,40.2697485 60.7157632,40.2697485 C72.1092587,40.2697485 81.351613,43.0090038 81.351613,46.3928986 C81.3518558,49.7767933 72.1090158,52.5200132 60.7157632,52.5200132 M60.7157632,0.26034026 C27.2107111,0.26034026 0.0507608145,18.1722787 0.0507608145,40.2694842 C0.0507608145,62.3666897 27.210954,80.2828571 60.7157632,80.2828571 C94.2171721,80.2828571 121.380766,62.3666897 121.380766,40.2697485 C121.380766,18.1728073 94.2171721,0.26034026 60.7157632,0.26034026" id="Shape" fill="#8A4B38" fill-rule="nonzero"></path>
                                    <path d="M1.92672508,33.9732145 C-0.417987377,38.0567242 -1.37661386,55.4411102 3.64652091,63.5806418 C11.3089752,76.0027046 15.0577463,69.7037919 20.6880679,71.5755987 C29.0723457,74.3695651 29.6936192,81.579008 36.3255561,85.189412 C43.8301418,89.2729216 48.1929002,88.0851357 58.8393132,85.189412 C73.8521276,81.1061666 83.388846,89.4407552 92.6100702,85.189412 C100.172217,81.7000596 104.49903,69.0239998 108.718007,67.4960536 C122.104289,62.6389237 124.930137,39.6547112 114.969602,30.2259006 C111.845747,37.3766678 96.524239,63.0686834 86.674698,64.2606982 C76.8181136,65.4524486 47.2702192,68.1681808 34.7638717,61.1974051 C22.2538811,54.2224006 9.58917933,45.5436872 8.02385182,43.1641508 C6.46168168,40.7798569 1.92672508,33.9732145 1.92672508,33.9732145" id="Shape" fill="#8A4B38" fill-rule="nonzero"></path>
                                </g>
                                <path d="M62.5924727,31.2962963 C49.2956935,31.2962963 38.5185185,36.0832748 38.5185185,41.9890167 C38.5185185,44.289034 40.1593416,46.4094901 42.9306425,48.1481481 C42.4840606,47.6413692 42.2218166,47.1190335 42.2218166,46.5734946 C42.2218166,43.1974289 51.3437858,40.4649883 62.5924727,40.4649883 C73.837564,40.4649883 82.9595332,43.1976925 82.9595332,46.5734946 C82.9595332,47.1192971 82.7008849,47.6413692 82.2507073,48.1481481 C85.0256039,46.4094901 86.6666667,44.289034 86.6666667,41.9890167 C86.666427,36.0832748 75.885896,31.2962963 62.5924727,31.2962963" id="Shape" fill="#F4900C" fill-rule="nonzero"></path>
                                <g id="Group" stroke-width="1" fill="none" fill-rule="evenodd" transform="translate(9.629630, 33.703704)">
                                    <path d="M3.86444828,12.7791243 C2.51300052,12.7791243 1.20835615,12.0073828 0.530925903,10.6613997 C-0.442194485,8.72240234 0.260587599,6.31562826 2.10225206,5.2931543 L10.4200912,0.650875651 C12.2544426,-0.379570312 14.5356202,0.365683594 15.5087405,2.30853841 C16.4818609,4.24753581 15.7790788,6.6543099 13.9374144,7.67678385 L5.61957523,12.3154622 C5.06085982,12.6309993 4.45899753,12.7791243 3.86444828,12.7791243" id="Shape" fill="#F4ABBA" fill-rule="nonzero"></path>
                                    <path d="M46.7049033,42.4108105 C45.2271839,42.4108105 43.82552,41.4906868 43.223414,39.9546615 L40.5565961,33.1643132 C39.7599634,31.1378809 40.6755547,28.8149414 42.5964436,27.9747949 C44.5207453,27.1382487 46.7192856,28.0964323 47.5156744,30.1303223 L50.1824923,36.9206706 C50.979125,38.9471029 50.0671902,41.2700423 48.1426448,42.1101888 C47.6743672,42.315918 47.1843942,42.4108105 46.7049033,42.4108105" id="Shape" fill="#F4ABBA" fill-rule="nonzero"></path>
                                </g>
                                <path d="M100.196253,60.1851852 C99.5199306,60.1851852 98.836279,60.0156447 98.2158114,59.658512 C96.3587051,58.6017503 95.7422813,56.2901452 96.8406732,54.5013101 L101.066677,47.591133 C102.16153,45.802298 104.571623,45.2070767 106.413818,46.2638384 C108.270924,47.3240152 108.887348,49.6322052 107.788956,51.4249433 L103.559162,58.3314613 C102.834314,59.5214159 101.530195,60.1851852 100.196253,60.1851852" id="Shape" fill="#55ACEE" fill-rule="nonzero"></path>
                                <g id="Group" stroke-width="1" fill="none" fill-rule="evenodd" transform="translate(65.000000, 7.222222)">
                                    <path d="M39.6498726,26.2411724 C37.6658212,26.2411724 36.0254261,24.3038589 35.9544901,22.0284962 C35.8835541,19.7087323 37.4815314,17.683161 39.5221399,17.5984444 L43.8374935,17.3889683 C45.9171646,17.360911 47.5966225,19.1086336 47.6675585,21.4322112 C47.7384945,23.7519752 46.1405172,25.8421054 44.0999088,25.926822 L39.7845551,26.2409 L39.6498726,26.2409 L39.6498726,26.2411724 Z" id="Shape" fill="#F4ABBA" fill-rule="nonzero"></path>
                                    <path d="M3.86265728,9.6350836 C2.2896034,9.6350836 0.833258429,8.48718723 0.330235868,6.69533572 C-0.282785432,4.47608758 0.797790425,2.11219469 2.74661342,1.4115802 L5.67320298,0.360386068 C7.63952033,-0.344314429 9.70145749,0.888026138 10.3183132,3.10291587 C10.9382843,5.32216401 9.8541137,7.68605691 7.90912508,8.38667139 L4.97918043,9.43786552 C4.60652675,9.57052464 4.23099728,9.6350836 3.86265728,9.6350836" id="Shape" fill="#F4ABBA" fill-rule="nonzero"></path>
                                </g>
                                <g id="Group" stroke-width="1" fill="none" fill-rule="evenodd" transform="translate(40.925926, 12.037037)">
                                    <path d="M6.91927294,9.78052212 C6.33424389,9.78052212 5.74165306,9.641397 5.1825861,9.35609915 L2.26122172,7.84347236 C0.338263243,6.8476706 -0.444380102,4.42433547 0.517225167,2.433254 C1.47883044,0.441911501 3.81894664,-0.368564111 5.74165306,0.627237648 L8.66301744,2.13986443 C10.5859759,3.13566619 11.3686193,5.55508598 10.407014,7.5500828 C9.72544633,8.96247685 8.35021216,9.78052212 6.91927294,9.78052212" id="Shape" fill="#88C9F9" fill-rule="nonzero"></path>
                                    <path d="M40.8378509,61.0260729 C40.2563506,61.0260729 39.6640119,60.8911241 39.1049449,60.6055652 L36.1835805,59.0965928 C34.2570932,58.100791 33.4744499,55.6813712 34.4320222,53.6900287 C35.3895945,51.6911166 37.7261819,50.8845563 39.6564501,51.8761817 L42.5778145,53.3851542 C44.5007729,54.3767796 45.2834163,56.7964604 44.3293728,58.7917182 C43.6478051,60.2080276 42.2690421,61.0260729 40.8378509,61.0260729" id="Shape" fill="#88C9F9" fill-rule="nonzero"></path>
                                </g>
                                <g id="Group" stroke-width="1" fill="none" fill-rule="evenodd" transform="translate(19.259259, 16.851852)">
                                    <path d="M10.9930183,48.8751077 C10.4932131,48.8751077 9.98973292,48.7715485 9.50070788,48.5369936 C7.5808681,47.63428 6.69346896,45.1886686 7.51569743,43.0809024 L8.93548706,39.4463774 C9.76139057,37.3429149 11.9889535,36.3487464 13.9087933,37.2670611 C15.8286331,38.1738095 16.7197073,40.6153861 15.8938037,42.7231524 L14.4740141,46.3576773 C13.8580778,47.9325843 12.4600934,48.8751077 10.9930183,48.8751077" id="Shape" fill="#55ACEE" fill-rule="nonzero"></path>
                                    <path d="M67.4668351,9.56725754 C66.00711,9.56725754 64.6162307,8.63683852 63.9968643,7.07780161 C63.1599357,4.97433912 64.0331247,2.52442398 65.9456144,1.60180552 L68.4666904,0.388952272 C70.3902052,-0.533666188 72.6177681,0.428762048 73.4510217,2.53222454 C74.2913804,4.63568704 73.4184364,7.08560218 71.5022717,8.00445485 L68.9811957,9.21730809 C68.4848206,9.45589776 67.9739903,9.56725754 67.4668351,9.56725754" id="Shape" fill="#55ACEE" fill-rule="nonzero"></path>
                                    <path d="M5.95160132,9.39403122 C5.66911341,9.39403122 5.38295046,9.35825622 5.10046255,9.28670622 L3.05028143,8.7697171 C1.01088041,8.25272798 -0.260192681,6.02176661 0.210702171,3.78677046 C0.677921984,1.54773954 2.71364796,0.156011285 4.74569889,0.669234614 L6.79588001,1.18622373 C8.83528103,1.70321285 10.1063541,3.93417422 9.63937931,6.16917037 C9.23316512,8.09375786 7.67568408,9.39403122 5.95160132,9.39403122" id="Shape" fill="#55ACEE" fill-rule="nonzero"></path>
                                </g>
                            </g>
                        </g>
                    </g>
                </g>
            </g>
        </g>
    </g>
</svg>