<?xml version="1.0" encoding="iso-8859-1"?>
<!-- Generator: Adobe Illustrator 19.0.0, SVG Export Plug-In . SVG Version: 6.00 Build 0)  -->
<svg version="1.1" id="Capa_1" xmlns="http://www.w3.org/2000/svg" xmlns:xlink="http://www.w3.org/1999/xlink" x="0px" y="0px"
	 viewBox="0 0 512 512" style="enable-background:new 0 0 512 512;" xml:space="preserve">
<path style="fill:#FFAC33;" d="M510.935,308.504c-15.465,92.712-114.163,154.51-254.954,154.51S16.506,401.216,1.057,308.504
	c-3.651-21.865,2.307-120.048,15.582-139.061c37.832-54.155,51.36,153.238,239.341,153.238
	c204.732,0,201.672-207.393,239.489-153.238C508.762,188.457,514.573,286.638,510.935,308.504"/>
<g>
	<path style="fill:#8A4B38;" d="M255.988,246.71c-46.925,0-84.98-10.378-84.98-23.182c0-12.804,38.054-23.167,84.98-23.167
		c46.911,0,84.965,10.364,84.965,23.167C340.954,236.331,302.898,246.71,255.988,246.71 M255.988,48.985
		c-137.952,0-249.779,67.77-249.779,151.375s111.828,151.391,249.779,151.391c137.937,0,249.779-67.786,249.779-151.39
		S393.925,48.985,255.988,48.985"/>
	<path style="fill:#8A4B38;" d="M13.933,176.538c-9.654,15.45-13.601,81.224,7.081,112.02
		c31.549,46.999,46.984,23.167,70.166,30.249c34.521,10.571,37.079,37.848,64.385,51.508c30.899,15.45,48.862,10.956,92.697,0
		c61.813-15.449,101.079,16.085,139.046,0c31.136-13.202,48.951-61.162,66.322-66.943c55.116-18.377,66.751-105.338,25.74-141.012
		c-12.862,27.055-75.946,124.261-116.5,128.771c-40.583,4.509-162.242,14.784-213.735-11.59
		c-51.508-26.39-103.653-59.226-110.098-68.229C32.605,202.291,13.933,176.538,13.933,176.538"/>
</g>
<path style="fill:#F4900C;" d="M255.988,165.593c-55.47,0-100.429,18.155-100.429,40.553c0,8.723,6.845,16.765,18.406,23.359
	c-1.863-1.922-2.957-3.903-2.957-5.972c0-12.804,38.054-23.167,84.98-23.167c46.911,0,84.965,10.364,84.965,23.167
	c0,2.07-1.079,4.05-2.957,5.972c11.576-6.594,18.422-14.636,18.422-23.359C356.417,183.748,311.444,165.593,255.988,165.593"/>
<g>
	<path style="fill:#F4ABBA;" d="M53.853,228.693c-5.544,0-10.896-3.001-13.675-8.235c-3.992-7.54-1.109-16.899,6.446-20.875
		l34.122-18.052c7.525-4.007,16.883-1.109,20.875,6.446c3.992,7.54,1.109,16.899-6.446,20.875L61.053,226.89
		C58.761,228.117,56.292,228.693,53.853,228.693"/>
	<path style="fill:#F4ABBA;" d="M229.596,343.919c-6.062,0-11.812-3.578-14.282-9.551l-10.94-26.405
		c-3.268-7.88,0.488-16.913,8.368-20.18c7.894-3.253,16.913,0.473,20.18,8.382l10.94,26.405c3.268,7.88-0.473,16.913-8.368,20.18
		C233.573,343.55,231.563,343.919,229.596,343.919"/>
</g>
<path style="fill:#55ACEE;" d="M404.705,282.109c-2.676,0-5.381-0.695-7.836-2.159c-7.348-4.332-9.787-13.808-5.441-21.141
	l16.721-28.327c4.332-7.333,13.868-9.773,21.157-5.441c7.348,4.346,9.787,13.808,5.441,21.157l-16.736,28.312
	C415.143,279.388,409.983,282.109,404.705,282.109"/>
<g>
	<path style="fill:#F4ABBA;" d="M430.45,167.333c-8.279,0-15.124-7.112-15.42-15.465c-0.296-8.516,6.372-15.952,14.887-16.263
		l18.007-0.769c8.678-0.103,15.686,6.313,15.982,14.843c0.296,8.516-6.372,16.189-14.887,16.5l-18.007,1.153H430.45z"/>
	<path style="fill:#F4ABBA;" d="M281.118,106.371c-6.564,0-12.641-4.214-14.74-10.792c-2.558-8.147,1.951-16.825,10.083-19.397
		l12.212-3.859c8.205-2.587,16.809,1.937,19.383,10.068c2.587,8.147-1.937,16.825-10.053,19.397l-12.226,3.859
		C284.222,106.134,282.655,106.371,281.118,106.371"/>
</g>
<g>
	<path style="fill:#88C9F9;" d="M195.451,131.47c-2.321,0-4.672-0.533-6.89-1.626l-11.59-5.795
		c-7.629-3.815-10.734-13.099-6.919-20.727c3.815-7.629,13.099-10.734,20.727-6.919l11.59,5.795
		c7.629,3.815,10.734,13.084,6.919,20.727C206.584,128.336,201.128,131.47,195.451,131.47"/>
	<path style="fill:#88C9F9;" d="M330.017,327.796c-2.307,0-4.657-0.517-6.875-1.611l-11.59-5.781
		c-7.643-3.815-10.748-13.084-6.949-20.713c3.799-7.658,13.069-10.748,20.727-6.949l11.59,5.781
		c7.629,3.799,10.734,13.069,6.949,20.713C341.165,324.662,335.695,327.796,330.017,327.796"/>
</g>
<g>
	<path style="fill:#55ACEE;" d="M127.869,293.702c-2.04,0-4.095-0.385-6.091-1.257c-7.836-3.356-11.458-12.448-8.102-20.284
		l5.795-13.512c3.371-7.82,12.463-11.516,20.299-8.102c7.836,3.371,11.473,12.448,8.102,20.284l-5.795,13.512
		C139.563,290.198,133.857,293.702,127.869,293.702"/>
	<path style="fill:#55ACEE;" d="M358.372,147.568c-5.958,0-11.635-3.459-14.163-9.255c-3.416-7.82,0.148-16.928,7.954-20.358
		l10.29-4.509c7.851-3.43,16.943,0.148,20.344,7.968c3.43,7.82-0.133,16.928-7.954,20.344l-10.29,4.509
		C362.527,147.154,360.442,147.568,358.372,147.568"/>
	<path style="fill:#55ACEE;" d="M107.292,146.924c-1.153,0-2.321-0.133-3.474-0.399l-8.368-1.922
		c-8.324-1.922-13.512-10.216-11.59-18.525c1.907-8.324,10.216-13.498,18.51-11.59l8.368,1.922
		c8.324,1.922,13.512,10.216,11.606,18.525C120.686,142.09,114.329,146.924,107.292,146.924"/>
</g>
<g>
</g>
<g>
</g>
<g>
</g>
<g>
</g>
<g>
</g>
<g>
</g>
<g>
</g>
<g>
</g>
<g>
</g>
<g>
</g>
<g>
</g>
<g>
</g>
<g>
</g>
<g>
</g>
<g>
</g>
</svg>
