<?xml version="1.0" encoding="UTF-8"?>
<svg width="34px" height="30px" viewBox="0 0 34 30" version="1.1" xmlns="http://www.w3.org/2000/svg" xmlns:xlink="http://www.w3.org/1999/xlink">
    <!-- Generator: Sketch 50.2 (55047) - http://www.bohemiancoding.com/sketch -->
    <title>donuts</title>
    <desc>Created with Sketch.</desc>
    <defs></defs>
    <g id="Zilla-Slab/Lato" stroke="none" stroke-width="1" fill="none" fill-rule="evenodd">
        <g id="⟶-Questions-Copy" transform="translate(-36.000000, -222.000000)" fill-rule="nonzero">
            <g id="donuts" transform="translate(36.000000, 222.000000)">
                <path d="M33.9292784,18.4053948 C32.9023051,25.0164319 26.3481368,29.4230769 16.9987285,29.4230769 C7.64932024,29.4230769 1.0960817,25.0164319 0.0701708905,18.4053948 C-0.172278483,16.846262 0.223370207,9.84510296 1.10491374,8.48933835 C3.61719659,4.62769462 4.51554091,19.4163176 16.9986621,19.4163176 C30.5941552,19.4163176 30.3909519,4.62769462 32.9022387,8.48933835 C33.7849775,9.84517427 34.1708645,16.8461907 33.9292784,18.4053948" id="Shape" fill="#FFAC33"></path>
                <g id="Group" transform="translate(0.653846, 0.000000)" fill="#8A4B38">
                    <path d="M16.4902576,14.2643113 C13.3948876,14.2643113 10.8846201,13.519331 10.8846201,12.6002014 C10.8846201,11.6810719 13.3948217,10.9371684 16.4902576,10.9371684 C19.584704,10.9371684 22.0949055,11.6811436 22.0949055,12.6002014 C22.0949715,13.5192593 19.584638,14.2643113 16.4902576,14.2643113 M16.4902576,0.0707077983 C7.39036473,0.0707077983 0.0137865171,4.93554789 0.0137865171,10.9370966 C0.0137865171,16.9386453 7.39043069,21.804634 16.4902576,21.804634 C25.589161,21.804634 32.9667286,16.9386453 32.9667286,10.9371684 C32.9667286,4.93569146 25.589161,0.0707077983 16.4902576,0.0707077983" id="Shape"></path>
                    <path d="M0.523293971,9.22704465 C-0.113524382,10.3361162 -0.373885066,15.0576743 0.990386447,17.2683518 C3.07149088,20.6421547 4.08964826,18.9313849 5.61883026,19.4397632 C7.89598029,20.1985978 8.06471671,22.1566655 9.86593506,23.1372427 C11.9041628,24.2463142 13.0890776,23.9237144 15.9806182,23.1372427 C20.0580631,22.0282429 22.6482132,24.2918974 25.1526759,23.1372427 C27.2065371,22.1895428 28.3816892,18.746755 29.5275533,18.3317684 C33.163236,17.0125834 33.9307294,10.7701257 31.2254717,8.20928306 C30.3770402,10.1514145 26.2157549,17.1293051 23.5406428,17.4530535 C20.8636178,17.7767301 12.8384796,18.5143166 9.44178527,16.6210704 C6.04410144,14.7266757 2.60439841,12.3695576 2.17925916,11.7232812 C1.75497745,11.0757126 0.523293971,9.22704465 0.523293971,9.22704465" id="Shape"></path>
                </g>
                <path d="M16.9999674,8.5 C13.3885937,8.5 10.4615385,9.80013203 10.4615385,11.4041176 C10.4615385,12.0287968 10.9071821,12.6047077 11.6598609,13.0769231 C11.5385703,12.9392831 11.4673454,12.797418 11.4673454,12.6492509 C11.4673454,11.7323194 13.9448507,10.9901951 16.9999674,10.9901951 C20.0541076,10.9901951 22.5316129,11.7323911 22.5316129,12.6492509 C22.5316129,12.7974896 22.4613646,12.9392831 22.3390974,13.0769231 C23.0927528,12.6047077 23.5384615,12.0287968 23.5384615,11.4041176 C23.5383964,9.80013203 20.6104297,8.5 16.9999674,8.5" id="Shape" fill="#F4900C"></path>
                <g id="Group" transform="translate(2.615385, 9.153846)" fill="#F4ABBA">
                    <path d="M1.04957501,3.47077993 C0.682524994,3.47077993 0.328186671,3.26117675 0.144198219,2.89561094 C-0.120098976,2.36898383 0.0707749751,1.71530969 0.570966684,1.43760818 L2.83007211,0.176776286 C3.32827762,-0.103090398 3.94784003,0.0993187985 4.21213722,0.626993569 C4.47643442,1.15362067 4.28556047,1.80729482 3.78536876,2.08499632 L1.52626333,3.3448504 C1.37451755,3.43054953 1.21105318,3.47077993 1.04957501,3.47077993" id="Shape"></path>
                    <path d="M12.6849412,11.5186758 C12.2835961,11.5186758 11.9029075,11.2687723 11.7393769,10.8515915 L11.0150755,9.00734896 C10.798712,8.45697474 11.0473844,7.82606988 11.5690933,7.59788809 C12.0917291,7.37068411 12.6888474,7.63092451 12.9051447,8.18332421 L13.6294461,10.0275667 C13.8458097,10.577941 13.5981304,11.2088458 13.0754284,11.4370276 C12.9482453,11.4929032 12.8151698,11.5186758 12.6849412,11.5186758" id="Shape"></path>
                </g>
                <path d="M27.2130651,16.3461538 C27.0293776,16.3461538 26.8436994,16.3001071 26.6751819,16.2031106 C26.1707963,15.9160967 26.003377,15.2882702 26.3016976,14.8024268 L27.4494702,12.9256391 C27.7468298,12.4397957 28.4014054,12.278135 28.9017412,12.565149 C29.4061268,12.8530905 29.5735461,13.4799895 29.2752254,13.9668929 L28.1264233,15.8426868 C27.9295564,16.1658757 27.5753607,16.3461538 27.2130651,16.3461538" id="Shape" fill="#55ACEE"></path>
                <g id="Group" transform="translate(17.653846, 1.961538)" fill="#F4ABBA">
                    <path d="M10.7688116,7.12704031 C10.2299479,7.12704031 9.78442046,6.60087056 9.76515441,5.98288744 C9.74588836,5.35284503 10.1798952,4.80270467 10.7341196,4.77969584 L11.9061595,4.72280262 C12.4709932,4.71518234 12.92713,5.18985966 12.9463961,5.82093784 C12.9656621,6.45098024 12.5316553,7.01865467 11.9774308,7.0416635 L10.805391,7.12696633 L10.7688116,7.12696633 L10.7688116,7.12704031 Z" id="Shape"></path>
                    <path d="M1.04908857,2.6168659 C0.621850865,2.6168659 0.226311017,2.30509996 0.0896912802,1.81843733 C-0.0768038539,1.21569479 0.216677991,0.573667077 0.745973703,0.383381841 L1.5408285,0.097880003 C2.07487564,-0.093514984 2.63489289,0.241185797 2.80242944,0.842744606 C2.97081212,1.44548715 2.67635396,2.08751486 2.14809965,2.2778001 L1.35233362,2.56330194 C1.25112176,2.59933184 1.14912885,2.6168659 1.04908857,2.6168659" id="Shape"></path>
                </g>
                <g id="Group" transform="translate(11.115385, 3.269231)" fill="#88C9F9">
                    <path d="M1.87925815,2.65636666 C1.72036565,2.65636666 1.55941938,2.61858061 1.40757812,2.54109438 L0.614142468,2.13026853 C0.0918714962,1.85981113 -0.120692584,1.20163904 0.140477131,0.660866026 C0.401646847,0.120022118 1.03721687,-0.10010114 1.55941938,0.170356261 L2.35285503,0.581182116 C2.875126,0.851639516 3.08769008,1.50874821 2.82652037,2.05058462 C2.6414082,2.4341875 2.26789786,2.65636666 1.87925815,2.65636666" id="Shape"></path>
                    <path d="M11.0914636,16.574537 C10.9335295,16.574537 10.7726517,16.5378852 10.6208105,16.4603281 L9.82737483,16.0504947 C9.30414544,15.7800373 9.09158136,15.1229286 9.35165573,14.5820847 C9.61173011,14.0391849 10.2463417,13.8201251 10.770598,14.0894482 L11.5640336,14.4992815 C12.0863046,14.7686046 12.2988687,15.4257842 12.0397527,15.9676915 C11.8546406,16.3523578 11.4801718,16.574537 11.0914636,16.574537" id="Shape"></path>
                </g>
                <g id="Group" transform="translate(5.230769, 4.576923)" fill="#55ACEE">
                    <path d="M2.98567774,13.2743636 C2.84993184,13.2743636 2.71318782,13.2462371 2.58036977,13.1825326 C2.05894583,12.9373577 1.81793033,12.2731354 2.04124563,11.7006711 L2.42685714,10.7135427 C2.65117057,10.1422473 3.2561714,9.8722335 3.77759534,10.1216456 C4.29901928,10.3679163 4.54103292,11.0310427 4.31671948,11.6035071 L3.93110798,12.5906354 C3.76382112,13.0183765 3.38413187,13.2743636 2.98567774,13.2743636" id="Shape"></path>
                    <path d="M18.3238327,2.5984445 C17.9273749,2.5984445 17.5496153,2.3457449 17.3813969,1.92231417 C17.154089,1.35101873 17.3912451,0.685627577 17.9106728,0.435046587 L18.5953911,0.105638516 C19.1178131,-0.144942473 19.722814,0.116450757 19.9491237,0.687746192 C20.1773631,1.25904163 19.9402736,1.92443278 19.4198477,2.17399099 L18.7351295,2.50339906 C18.6003152,2.56819945 18.4615749,2.5984445 18.3238327,2.5984445" id="Shape"></path>
                    <path d="M1.61644083,2.55139664 C1.53971778,2.55139664 1.4619966,2.54168024 1.38527356,2.52224743 L0.828449216,2.38183441 C0.274552728,2.24142139 -0.0706677162,1.63549756 0.0572262109,1.02847789 C0.184122006,0.420362395 0.737020362,0.0423722957 1.28892059,0.181762537 L1.84574493,0.322175558 C2.39964141,0.46258858 2.74486186,1.06851241 2.61803261,1.67553207 C2.50770579,2.19824548 2.08469763,2.55139664 1.61644083,2.55139664" id="Shape"></path>
                </g>
            </g>
        </g>
    </g>
</svg>