<?xml version="1.0" encoding="UTF-8"?>
<svg width="29px" height="29px" viewBox="0 0 29 29" version="1.1" xmlns="http://www.w3.org/2000/svg" xmlns:xlink="http://www.w3.org/1999/xlink">
    <!-- Generator: Sketch 50.2 (55047) - http://www.bohemiancoding.com/sketch -->
    <title>Group 5</title>
    <desc>Created with Sketch.</desc>
    <defs>
        <rect id="path-1" x="0" y="0" width="25" height="25" rx="5"></rect>
        <filter x="-14.0%" y="-10.0%" width="128.0%" height="128.0%" filterUnits="objectBoundingBox" id="filter-2">
            <feOffset dx="0" dy="1" in="SourceAlpha" result="shadowOffsetOuter1"></feOffset>
            <feGaussianBlur stdDeviation="1" in="shadowOffsetOuter1" result="shadowBlurOuter1"></feGaussianBlur>
            <feColorMatrix values="0 0 0 0 0.121568627   0 0 0 0 0.192156863   0 0 0 0 0.290196078  0 0 0 0.13 0" type="matrix" in="shadowBlurOuter1"></feColorMatrix>
        </filter>
    </defs>
    <g id="Page-1" stroke="none" stroke-width="1" fill="none" fill-rule="evenodd">
        <g id="⟶-More" transform="translate(-18.000000, -444.000000)">
            <g id="Settings" transform="translate(20.000000, 408.000000)">
                <g id="login" transform="translate(0.000000, 37.000000)">
                    <g id="Group-5">
                        <g id="Rectangle-3">
                            <use fill="black" fill-opacity="1" filter="url(#filter-2)" xlink:href="#path-1"></use>
                            <use fill="#87DBA2" fill-rule="evenodd" xlink:href="#path-1"></use>
                        </g>
                        <path d="M19,10.1908141 C19,9.62504621 18.8887535,9.07675996 18.6710282,8.55866918 C18.4596599,8.05964923 18.1577052,7.61148481 17.7731102,7.22688982 C17.3885152,6.84229482 16.9403508,6.54034008 16.4413308,6.32897175 C15.9248293,6.10965725 15.3749538,6 14.8091859,6 C14.2434181,6 13.6951318,6.11124649 13.1770411,6.32897175 C12.678037,6.54034008 12.2298567,6.84229482 11.8452617,7.22688982 C11.4606667,7.61148481 11.158712,8.05964923 10.9473436,8.55866918 C10.7280291,9.07517073 10.6183719,9.62504621 10.6183719,10.1908141 C10.6183719,10.8980239 10.7963663,11.5909305 11.1348734,12.2075539 L6.1176569,17.2200027 C6.00164271,17.3360169 5.96509029,17.5124221 6.03660589,17.6792918 C6.05090901,17.714255 6.07474754,17.7460397 6.10176454,17.7730408 L7.22535405,18.8966303 C7.25237106,18.9236473 7.28415577,18.9459125 7.31911895,18.9618049 C7.48598868,19.0333205 7.66239382,18.9983573 7.77840801,18.880738 L8.47290394,18.1862421 L9.47253308,19.1858712 C9.49955008,19.2128882 9.53133479,19.2351375 9.56628208,19.2510298 C9.73315181,19.3225454 9.90957284,19.2875982 10.0255711,19.1699788 L11.1332683,18.0622817 C11.1602853,18.0352647 11.1825346,18.00348 11.198427,17.9685327 C11.2699426,17.8016629 11.2349794,17.6252419 11.1173759,17.5092436 L10.1336392,16.5255068 L12.7908409,13.8667158 C13.4058751,14.205223 14.100371,14.3832174 14.8075808,14.3832174 C15.3733487,14.3832174 15.9216349,14.2719709 16.4397098,14.0542456 C16.9387297,13.8428773 17.3869101,13.5409225 17.7715051,13.1563275 C18.1560842,12.7717484 18.4580389,12.323584 18.6694231,11.8245482 C18.8887535,11.3048682 19,10.7565819 19,10.1908141 Z M16.2776555,11.6608569 C15.8851143,12.0533981 15.3622399,12.2695341 14.8076126,12.2695341 C14.2529694,12.2695341 13.730095,12.0533981 13.3375697,11.6608569 C12.9450286,11.2683157 12.7273033,10.7454573 12.7273033,10.1908141 C12.7273033,9.63458163 12.9434393,9.11331238 13.3359805,8.72077121 C13.7285217,8.32823003 14.2513961,8.112094 14.8060234,8.112094 C15.3606666,8.112094 15.883525,8.32823003 16.2760662,8.72077121 C16.6686074,9.11331238 16.8847434,9.63617086 16.8847434,10.1908141 C16.887906,10.7454573 16.67177,11.2683157 16.2776555,11.6608569 Z" id="Shape" fill="#FFFFFF" fill-rule="nonzero"></path>
                    </g>
                </g>
            </g>
        </g>
    </g>
</svg>