<?xml version="1.0" encoding="UTF-8"?>
<svg width="103px" height="100px" viewBox="0 0 103 100" version="1.1" xmlns="http://www.w3.org/2000/svg" xmlns:xlink="http://www.w3.org/1999/xlink">
    <!-- Generator: Sketch 51.2 (57519) - http://www.bohemiancoding.com/sketch -->
    <title>Group 9</title>
    <desc>Created with Sketch.</desc>
    <defs></defs>
    <g id="Icons" stroke="none" stroke-width="1" fill="none" fill-rule="evenodd">
        <g id="Artboard" transform="translate(-916.000000, -49.000000)" fill-rule="nonzero">
            <g id="fried-egg" transform="translate(916.000000, 49.000000)">
                <g id="Group-9">
                    <path d="M88.3,75.9420408 C60.6504082,90.5706122 56.1493878,101.743061 33.6438776,99.5728571 C6.63714286,93.1426531 9.8522449,69.3510204 1.25204082,32.4581633 C-7.42877551,-4.51510204 30.5091837,-8.37326531 69.3312245,13.9714286 C101.401429,32.3777551 115.869184,61.3134694 88.3,75.9420408 Z" id="Shape" fill="#F2F2F2"></path>
                    <path d="M48.1920408,30.6897959 C58.8822449,30.6897959 67.482449,39.2902041 67.482449,49.9802041 C67.482449,60.6702041 58.8820408,69.2706122 48.1920408,69.2706122 C37.5020408,69.2706122 28.9016327,60.6702041 28.9016327,49.9802041 C28.9016327,39.3706122 37.5822449,30.6897959 48.1920408,30.6897959 Z" id="Shape" fill="#EFC75E"></path>
                    <path d="M53.0146939,40.335102 C55.6671429,40.335102 57.8373469,42.5053061 57.8373469,45.1577551 C57.8373469,47.8102041 55.6671429,49.9804082 53.0146939,49.9804082 C50.3622449,49.9804082 48.1920408,47.8102041 48.1920408,45.1577551 C48.1920408,42.5053061 50.3622449,40.335102 53.0146939,40.335102 Z" id="Shape" fill="#F4D88F"></path>
                    <path d="M51.4071429,66.0557143 C40.7169388,66.0557143 32.1167347,57.4553061 32.1167347,46.7653061 C32.1167347,42.2642857 33.6438776,38.0846939 36.2963265,34.8695918 C31.7953061,38.4061224 28.9016327,43.8718367 28.9016327,49.9804082 C28.9016327,60.6706122 37.5020408,69.2708163 48.1920408,69.2708163 C54.3006122,69.2708163 59.8467347,66.3773469 63.3028571,61.8761224 C60.0877551,64.5285714 55.9081633,66.0557143 51.4071429,66.0557143 Z" id="Shape" fill="#DCB757"></path>
                </g>
            </g>
        </g>
    </g>
</svg>