<?xml version="1.0" encoding="UTF-8"?>
<svg width="93px" height="93px" viewBox="0 0 93 93" version="1.1" xmlns="http://www.w3.org/2000/svg" xmlns:xlink="http://www.w3.org/1999/xlink">
    <!-- Generator: Sketch 50 (54983) - http://www.bohemiancoding.com/sketch -->
    <title>Artboard</title>
    <desc>Created with Sketch.</desc>
    <defs></defs>
    <g id="Artboard" stroke="none" stroke-width="1" fill="none" fill-rule="evenodd">
        <g id="dental-floss" transform="translate(17.000000, 24.000000)" fill-rule="nonzero">
            <path d="M42.0611345,27.9817563 C41.6200721,27.9817563 41.1790097,27.8133821 40.8423762,27.4766335 C40.1691092,26.8033665 40.1691092,25.712384 40.8423762,25.039117 L50.5924425,15.2890507 C51.2657096,14.6157836 52.356692,14.6157836 53.0299591,15.2890507 C53.7032261,15.9623177 53.7032261,17.0533002 53.0299591,17.7265673 L43.2798928,27.4766335 C42.9432593,27.8133821 42.5021969,27.9817563 42.0611345,27.9817563 Z" id="Shape" fill="#C4CAD9"></path>
            <path d="M45.3309766,20.5504016 L40.8422612,25.039117 C40.1689942,25.712384 40.1689942,26.8033665 40.8422612,27.4766335 C41.1790097,27.8133821 41.6200721,27.9817563 42.0610195,27.9817563 C42.5019669,27.9817563 42.9431442,27.8133821 43.2797778,27.4766335 L47.7684932,22.9879181 L45.3309766,20.5504016 Z" id="Shape" fill="#B8BFCC"></path>
            <path d="M56.4874971,9.7491462 L50.385425,3.64684405 C47.8342788,1.06119493 44.2831228,-0.179875244 40.663306,0.164808967 C37.9396452,0.406099415 35.3196082,1.6472846 33.3545517,3.61234113 C25.440386,11.5397329 8.03780117,29.0441014 1.72905653,35.352846 C-3.21383236,40.2946998 4.34391813,47.5165068 9.003423,42.6961033 C23.4175945,28.2819318 11.3763041,40.2915945 26.0112943,25.5733372 C26.6662749,24.9183567 27.8041813,24.9183567 28.4589318,25.5733372 L34.5612339,31.6410214 C37.8019786,34.916154 43.4904756,34.916154 46.7312203,31.6410214 C47.4205887,30.9860409 47.4205887,29.8827524 46.7312203,29.2277719 L44.2833528,26.7800195 L38.2156686,20.7123353 C33.2543782,15.7510448 40.7228811,8.56742105 45.8002164,13.6448713 C51.9301209,19.8373411 46.621961,14.466616 51.6266101,19.4712651 L54.0744776,21.9189025 C54.3846589,22.2638168 54.9363606,22.2980897 55.2810448,22.4361014 C55.7292378,22.4361014 56.1774308,22.2637018 56.522115,21.9189025 C59.8317505,18.5402612 59.8317505,13.0931696 56.4874971,9.7491462 Z" id="Shape" fill="#7BCC29"></path>
            <path d="M30.8752865,6.0947115 C22.2463353,14.7312534 7.44722612,29.6347914 1.72917154,35.352846 C-3.21360234,40.2945848 4.34391813,47.5165068 9.00353801,42.6961033 C23.4175945,28.2818168 11.3763041,40.2915945 26.0114094,25.5733372 C26.6663899,24.9183567 27.8042963,24.9183567 28.4590468,25.5733372 L34.5613489,31.6410214 C37.8020936,34.916154 43.4905906,34.916154 46.7313353,31.6410214 C47.4207037,30.9860409 47.4207037,29.8827524 46.7313353,29.2277719 L44.2834678,26.7801345 L38.2157836,20.7124503 C35.7462943,18.242961 36.3586062,15.2246452 38.220614,13.440039 L30.8752865,6.0947115 Z" id="Shape" fill="#6EB825"></path>
            <g id="Group" transform="translate(5.290448, 24.382066)" fill="#63A621">
                <path d="M4.85053606,2.53320468 C7.55234503,5.23501365 9.53522807,7.20973099 12.1242125,9.79860039 L14.5719649,7.35084795 C11.8701559,4.64903899 9.8872729,2.67432164 7.2982885,0.0854522417 L4.85053606,2.53320468 Z" id="Shape"></path>
                <path d="M9.8152768,12.2117349 L7.36740936,14.6596023 C1.26556725,8.55776023 4.91873684,12.142384 0.0586549708,7.35084795 L2.50652242,4.90298051 C6.30161404,8.69841715 6.57165692,8.96857505 9.8152768,12.2117349 Z" id="Shape"></path>
            </g>
        </g>
    </g>
</svg>