<?xml version="1.0" encoding="UTF-8"?>
<svg width="104px" height="100px" viewBox="0 0 104 100" version="1.1" xmlns="http://www.w3.org/2000/svg" xmlns:xlink="http://www.w3.org/1999/xlink">
    <!-- Generator: Sketch 51.2 (57519) - http://www.bohemiancoding.com/sketch -->
    <title>grapes</title>
    <desc>Created with Sketch.</desc>
    <defs></defs>
    <g id="Icons" stroke="none" stroke-width="1" fill="none" fill-rule="evenodd">
        <g id="Artboard" transform="translate(-785.000000, -701.000000)" fill-rule="nonzero">
            <g id="grapes" transform="translate(785.000000, 701.000000)">
                <ellipse id="Oval" fill="#9777A8" cx="11.1428571" cy="88.8888889" rx="11.1428571" ry="11.1111111"></ellipse>
                <ellipse id="Oval" fill="#583E68" cx="18.5714286" cy="50" rx="11.1428571" ry="11.1111111"></ellipse>
                <path d="M29.7142857,74.0740741 C24.9265714,74.0740741 20.8575714,77.0888889 19.2808571,81.3148148 C21.1398571,83.3 22.2857143,85.9574074 22.2857143,88.8888889 C22.2857143,90.2518519 22.0275714,91.5518519 21.5762857,92.7592593 C23.6117143,94.9296296 26.4995714,96.2962963 29.7142857,96.2962963 C35.8688571,96.2962963 40.8571429,91.3222222 40.8571429,85.1851852 C40.8571429,79.0481481 35.8688571,74.0740741 29.7142857,74.0740741 Z" id="Shape" fill="#583E68"></path>
                <path d="M19.2808571,81.3148148 C20.384,78.3592593 22.7221429,76.0222222 25.6582857,74.8685185 C25.8662857,74.0185185 26,73.137037 26,72.2222222 C26,66.0851852 21.0117143,61.1111111 14.8571429,61.1111111 C8.70257143,61.1111111 3.71428571,66.0851852 3.71428571,72.2222222 C3.71428571,74.7833333 4.59085714,77.1351852 6.05057143,79.012963 C7.579,78.2277778 9.30614286,77.7777778 11.1428571,77.7777778 C14.7271429,77.7777778 17.9084286,79.4722222 19.9457143,82.0944444 C19.7358571,81.8259259 19.513,81.5648148 19.2808571,81.3148148 Z" id="Shape" fill="#6F58A8"></path>
                <path d="M48.2857143,68.5185185 C42.978,68.5185185 38.5468571,72.2222222 37.4251429,77.1759259 C39.5367143,79.1962963 40.8571429,82.0351852 40.8571429,85.1851852 C40.8571429,86.0296296 40.755,86.8481481 40.5748571,87.6388889 C42.5768571,89.5555556 45.2901429,90.7407407 48.2857143,90.7407407 C54.4402857,90.7407407 59.4285714,85.7666667 59.4285714,79.6296296 C59.4285714,73.4925926 54.4402857,68.5185185 48.2857143,68.5185185 Z" id="Shape" fill="#6F58A8"></path>
                <path d="M43.4032857,69.6814815 C44.1294286,68.2074074 44.5714286,66.5685185 44.5714286,64.8148148 C44.5714286,58.6777778 39.5831429,53.7037037 33.4285714,53.7037037 C31.6977143,53.7037037 30.0652857,54.1055556 28.6055714,54.8092593 C27.5098571,57.0777778 25.6694286,58.912963 23.3944286,60.0055556 C22.8057143,61.2277778 22.4324286,62.5740741 22.3265714,63.9962963 C24.5774286,66.0277778 26,68.9555556 26,72.2222222 C26,72.4962963 25.9665714,72.7611111 25.9442857,73.0296296 C26.4661429,73.5018519 27.0362857,73.9185185 27.6398571,74.287037 C28.314,74.1592593 29.003,74.0740741 29.7142857,74.0740741 C31.85,74.0740741 33.8371429,74.6833333 35.5327143,75.7222222 C36.5225714,75.5333333 37.4455714,75.1796296 38.324,74.7481481 C39.4104286,72.5444444 41.1932857,70.762963 43.4032857,69.6814815 Z" id="Shape" fill="#9777A8"></path>
                <path d="M52,50 C50.5625714,50 49.2031429,50.3 47.944,50.7944444 C47.1677143,53.9444444 45.0635714,56.5703704 42.2351429,58.0240741 C42.2351429,58.0222222 42.2332857,58.0222222 42.2332857,58.0222222 C43.6948571,59.8981481 44.5714286,62.2518519 44.5714286,64.8148148 C44.5714286,66.1740741 44.3002857,67.462963 43.8415714,68.6611111 C44.0235714,68.8555556 44.2185714,69.0351852 44.4135714,69.2166667 C45.6207143,68.7703704 46.9225714,68.5185185 48.2857143,68.5185185 C51.2255714,68.5185185 53.8905714,69.6611111 55.8814286,71.5148148 C60.1194286,69.9425926 63.1428571,65.8851852 63.1428571,61.1111111 C63.1428571,54.9740741 58.1545714,50 52,50 Z" id="Shape" fill="#583E68"></path>
                <path d="M66.8571429,61.1111111 C65.533,61.1111111 64.2682857,61.3518519 63.0908571,61.7759259 C62.8215714,66.2555556 59.9188571,70.0185185 55.8814286,71.5166667 C55.8572857,71.4925926 55.8294286,71.4740741 55.8034286,71.45 C58.0245714,73.4814815 59.4285714,76.387037 59.4285714,79.6296296 C59.4285714,79.9055556 59.4062857,80.1777778 59.3877143,80.45 C61.3637143,82.2351852 63.9785714,83.3333333 66.8571429,83.3333333 C73.0117143,83.3333333 78,78.3592593 78,72.2222222 C78,66.0851852 73.0117143,61.1111111 66.8571429,61.1111111 Z" id="Shape" fill="#9777A8"></path>
                <path d="M70.5714286,42.5925926 C69.8694286,42.5925926 69.1841429,42.6648148 68.5174286,42.7888889 C67.6761429,47.2814815 64.1308571,50.8166667 59.6254286,51.6555556 C59.5492857,52.0574074 59.5028571,52.4685185 59.4694286,52.8833333 C61.7202857,54.9166667 63.1428571,57.8444444 63.1428571,61.1111111 C63.1428571,61.3796296 63.1001429,61.637037 63.0797143,61.9018519 C63.1261429,61.8462963 65.5441429,61.1111111 66.8571429,61.1111111 C69.797,61.1111111 72.462,62.2537037 74.4528571,64.1074074 C78.6908571,62.5351852 81.7142857,58.4777778 81.7142857,53.7037037 C81.7142857,47.5666667 76.726,42.5925926 70.5714286,42.5925926 Z" id="Shape" fill="#583E68"></path>
                <path d="M46.4285714,18.5185185 C41.8562857,18.5185185 37.9321429,21.2666667 36.2142857,25.1944444 C36.8085714,26.5537037 37.1428571,28.0518519 37.1428571,29.6296296 C37.1428571,31.2074074 36.8085714,32.7055556 36.2142857,34.0648148 C36.7045714,35.187037 37.3935714,36.1981481 38.2088571,37.0907407 C41.0354286,37.3592593 43.5462857,38.6851852 45.3588571,40.6611111 C45.7135714,40.6944444 46.0645714,40.7407407 46.4285714,40.7407407 C46.4285714,34.6037037 51.4168571,29.6296296 57.5714286,29.6296296 C57.5714286,23.4925926 52.5831429,18.5185185 46.4285714,18.5185185 Z" id="Shape" fill="#9777A8"></path>
                <path d="M26,18.5185185 C19.8454286,18.5185185 14.8571429,23.4925926 14.8571429,29.6296296 C14.8571429,33.5685185 16.9185714,37.0203704 20.0181429,38.9925926 C21.6728571,39.2074074 23.2105714,39.7814815 24.5551429,40.637037 C25.0287143,40.6981481 25.5097143,40.7407407 26,40.7407407 C32.1545714,40.7407407 37.1428571,35.7666667 37.1428571,29.6296296 C37.1428571,23.4925926 32.1545714,18.5185185 26,18.5185185 Z" id="Shape" fill="#6F58A8"></path>
                <path d="M46.5325714,42.1851852 C46.527,42.1777778 46.5232857,42.1685185 46.5195714,42.1611111 C44.538,39.0814815 41.0837143,37.037037 37.1428571,37.037037 C35.9728571,37.037037 34.8511429,37.2314815 33.7925714,37.5648148 C32.565,38.7648148 31.0607143,39.6833333 29.3818571,40.2166667 C28.535,41.0425926 27.8032857,41.9851852 27.2517143,43.0425926 C28.7894286,44.9481481 29.7142857,47.3648148 29.7142857,50 C29.7142857,51.7537037 29.289,53.4037037 28.5628571,54.8796296 C28.5758571,54.8555556 28.5925714,54.8333333 28.6037143,54.8092593 C30.0652857,54.1055556 31.6977143,53.7037037 33.4285714,53.7037037 C37.0147143,53.7037037 40.196,55.4 42.2351429,58.0240741 C45.825,56.1796296 48.2857143,52.4537037 48.2857143,48.1481481 C48.2857143,47.6555556 48.2411429,47.1759259 48.178,46.7018519 C47.3218571,45.362963 46.748,43.8314815 46.5325714,42.1851852 Z" id="Shape" fill="#6F58A8"></path>
                <path d="M57.5714286,29.6296296 C51.4168571,29.6296296 46.4285714,34.6037037 46.4285714,40.7407407 C46.4285714,44.6259259 48.4324286,48.0407407 51.4632857,50.0277778 C51.6415714,50.0185185 51.818,50 52,50 C54.2582857,50 56.355,50.6740741 58.11,51.8240741 C64.012,51.5425926 68.7142857,46.6962963 68.7142857,40.7407407 C68.7142857,34.6037037 63.726,29.6296296 57.5714286,29.6296296 Z" id="Shape" fill="#6F58A8"></path>
                <path d="M104,46.2962963 C91.6815714,46.2962963 81.7142857,36.3574074 81.7142857,24.0740741 C94.0327143,24.0740741 104,34.012963 104,46.2962963 Z" id="Shape" fill="#88C057"></path>
                <path d="M63.1428571,33.3333333 L63.1428571,29.6296296 C76.4548571,29.6296296 87.2857143,16.337037 87.2857143,0 L91,0 C91,18.3796296 78.5032857,33.3333333 63.1428571,33.3333333 Z" id="Shape" fill="#7A3726"></path>
            </g>
        </g>
    </g>
</svg>