<?xml version="1.0"?>
<svg xmlns="http://www.w3.org/2000/svg" viewBox="0 0 64 64" width="512" height="512"><path d="m47.948 19.814-4.187-14.227a3 3 0 0 0 -3.414-2.1l-8.347 1.513-8.509-1.547a3 3 0 0 0 -3.356 1.926l-4.058 14.429z" fill="#d6b676"/><path d="m17.673 15.128-4.322-1.621a1 1 0 0 0 -1.351.936v6.557l6-1z" fill="#f9a419"/><path d="m17.673 15.128-.932-.35a3.97 3.97 0 0 0 -.741 2.306v1.334a3.932 3.932 0 0 0 .472 1.837l1.528-.255z" fill="#f09e18"/><path d="m47.948 19.814-1.129-3.872a75.264 75.264 0 0 0 -7.819-1.942 35.882 35.882 0 0 0 -11 0l1 4-1-4-.608-2.43a1 1 0 0 0 -1.621-.517l-4.064 3.484a2.994 2.994 0 0 1 1.293 2.463v1a3.025 3.025 0 0 1 -.055.55 73.508 73.508 0 0 1 9.055-.55 66.792 66.792 0 0 1 15.948 1.814z" fill="#f9a419"/><path d="m22.945 18.55a3.025 3.025 0 0 0 .055-.55v-1a3 3 0 0 0 -6 0v1a2.963 2.963 0 0 0 .413 1.494" fill="#f9a419"/><path d="m47.948 19.814a66.792 66.792 0 0 0 -15.948-1.814 73.508 73.508 0 0 0 -9.055.55c-11.58 1.443-19.945 5.575-19.945 10.45 0 3.933 5.448 9.473 13.632 12.894l2.368-10.894v-3h26v3l2.368 10.894c8.184-3.421 13.632-8.961 13.632-12.894 0-3.84-5.19-7.218-13.052-9.186z" fill="#d6b676"/><path d="m22.945 18.55c.345-.043.7-.076 1.053-.114v-.018-1.334a3.979 3.979 0 0 0 -1.576-3.162l-.717.615a2.994 2.994 0 0 1 1.295 2.463v1a3.025 3.025 0 0 1 -.055.55z" fill="#f09e18"/><path d="m28 14 1 4h1z" fill="#f09e18"/><path d="m45 31v3.177a14 14 0 0 1 -6 11.485v8.338h11z" fill="#bf792c"/><path d="m14 54h11v-8.338a14 14 0 0 1 -6-11.485v-3.177z" fill="#bf792c"/><g fill="#fff2d9"><path d="m47 61h14a7 7 0 0 0 -7-7h-7z"/><path d="m39 54v-8.338c-.217.151-.436.3-.663.438l-3.192 1.965a6 6 0 0 1 -6.29 0l-3.192-1.965c-.227-.139-.446-.287-.663-.438v8.338h-4v7h22v-7z"/><path d="m10 54a7 7 0 0 0 -7 7h14v-7z"/></g><path d="m39 43v.129a7.468 7.468 0 0 1 -6.847 7.442l-1.56.13a7.468 7.468 0 0 0 -5.593 3.299v-11z" fill="#f5e8d0"/><path d="m17 54h4v7h-4z" fill="#f9a419"/><path d="m43 54h4v7h-4z" fill="#f9a419"/><path d="m19 28v6.177a14 14 0 0 0 6 11.485c.217.151.436.3.663.438l3.192 1.965a6 6 0 0 0 6.29 0l3.192-1.965c.227-.139.446-.287.663-.438a14 14 0 0 0 6-11.485v-6.177l-13-4z" fill="#fff2d9"/><path d="m41.967 34.05a.989.989 0 0 0 -.394-1.439 7.848 7.848 0 0 0 -6.292-.2l-.743.3a.98.98 0 0 0 -.545 1.274l.014.037a.981.981 0 0 0 1.274.545l.742-.3a5.842 5.842 0 0 1 4.7.156.966.966 0 0 0 1.218-.343z" fill="#73674f"/><path d="m32 42.581-1.846-.369a.98.98 0 0 0 -1.154.768v.039a.981.981 0 0 0 .769 1.154l1.846.369a3.928 3.928 0 0 0 3.537-1.065.972.972 0 0 0 -.282-1.544.992.992 0 0 0 -1.133.131 1.938 1.938 0 0 1 -1.737.517z" fill="#fcbcad"/><path d="m32 24-13 4v6.177a14 14 0 0 0 6 11.485l-1.73-7.206a8 8 0 0 1 7.446-9.856l14.284-.6z" fill="#f5e8d0"/><path d="m30.007 33.982a.979.979 0 0 0 -.545-1.274l-.743-.3a7.861 7.861 0 0 0 -6.292.2.99.99 0 0 0 -.394 1.439l.021.032a.965.965 0 0 0 1.217.342 5.854 5.854 0 0 1 4.7-.157l.743.3a.981.981 0 0 0 1.274-.545z" fill="#73674f"/></svg>
