<?xml version="1.0" encoding="UTF-8"?>
<svg width="60px" height="100px" viewBox="0 0 60 100" version="1.1" xmlns="http://www.w3.org/2000/svg" xmlns:xlink="http://www.w3.org/1999/xlink">
    <!-- Generator: Sketch 51.2 (57519) - http://www.bohemiancoding.com/sketch -->
    <title>ice-cream</title>
    <desc>Created with Sketch.</desc>
    <defs></defs>
    <g id="Icons" stroke="none" stroke-width="1" fill="none" fill-rule="evenodd">
        <g id="Artboard" transform="translate(-346.000000, -278.000000)" fill-rule="nonzero">
            <g id="ice-cream" transform="translate(345.000000, 278.000000)">
                <path d="M30.6975152,0 C5.94636364,0 1.17424242,21.1528302 1.17424242,28.245283 C1.17424242,33.9773585 3.81769697,38.6226415 7.07927273,38.6226415 C10.3408485,38.6226415 12.984303,36.8075472 12.984303,31.0754717 C12.984303,36.8075472 15.6277576,38.6226415 18.8893333,38.6226415 C22.1509091,38.6226415 24.7943636,36.8075472 24.7943636,31.0754717 C24.7943636,36.8075472 27.4378182,38.6226415 30.6993939,38.6226415 C33.9609697,38.6226415 36.6044242,36.8075472 36.6044242,31.0754717 C36.6044242,36.8075472 39.2478788,38.6226415 42.5094545,38.6226415 C45.7710303,38.6226415 48.4144848,36.8075472 48.4144848,31.0754717 C48.4144848,36.8075472 51.0579394,38.6226415 54.3195152,38.6226415 C57.5810909,38.6226415 60.2245455,33.9773585 60.2245455,28.245283 C60.2207879,20.1150943 55.4975152,0 30.6975152,0 Z" id="Shape" fill="#F2ECD3"></path>
                <path d="M48.6850303,32.2716981 L48.1401818,32.2716981 C47.4130909,35.8679245 45.1810909,37.1283019 42.5075758,37.1283019 C39.8340606,37.1283019 37.6020606,35.8679245 36.8749697,32.2716981 L36.3301212,32.2716981 C35.6030303,35.8679245 33.3710303,37.1283019 30.6975152,37.1283019 C28.024,37.1283019 25.792,35.8679245 25.0649091,32.2716981 L24.5200606,32.2716981 C23.7929697,35.8679245 21.5609697,37.1283019 18.8874545,37.1283019 C16.2552727,37.1283019 14.0533333,35.9056604 13.2905455,32.4377358 C13.055697,32.5037736 12.8302424,32.590566 12.6198182,32.7 C12.2421818,34.2188679 11.5733333,35.2792453 10.7034545,35.9754717 C10.7166061,36.3566038 10.7823636,36.745283 10.9307879,37.1301887 L20.3829697,65.4320755 L31.7026667,99.3943396 L43.0223636,65.4320755 L52.4745455,37.1301887 C52.5046061,37.0490566 52.5177576,36.9698113 52.5346667,36.8886792 C50.6821818,36.4 49.2411515,35.0245283 48.6850303,32.2716981 Z" id="Shape" fill="#FBD490"></path>
                <g id="Group" transform="translate(13.151515, 37.735849)" fill="#EEAF4B">
                    <rect id="Rectangle-path" transform="translate(31.177521, 5.727431) rotate(-45.000000) translate(-31.177521, -5.727431) " x="29.2987515" y="3.84065621" width="3.75753972" height="3.77354872"></rect>
                    <rect id="Rectangle-path" transform="translate(17.893007, 3.061215) rotate(45.000000) translate(-17.893007, -3.061215) " x="16.0142368" y="1.17444017" width="3.75753972" height="3.77354872"></rect>
                    <rect id="Rectangle-path" transform="translate(23.208463, 8.401706) rotate(135.000000) translate(-23.208463, -8.401706) " x="21.3296931" y="6.51493168" width="3.75753972" height="3.77354872"></rect>
                    <rect id="Rectangle-path" transform="translate(28.526091, 13.735932) rotate(-134.991897) translate(-28.526091, -13.735932) " x="26.6473208" y="11.8491573" width="3.75753976" height="3.77354875"></rect>
                    <rect id="Rectangle-path" transform="translate(9.923268, 5.730122) rotate(45.000000) translate(-9.923268, -5.730122) " x="8.04449829" y="3.84334809" width="3.75753972" height="3.77354872"></rect>
                    <rect id="Rectangle-path" transform="translate(15.237867, 11.069886) rotate(135.000000) translate(-15.237867, -11.069886) " x="13.359097" y="9.18311149" width="3.75753972" height="3.77354872"></rect>
                    <rect id="Rectangle-path" transform="translate(20.553249, 16.402429) rotate(45.000000) translate(-20.553249, -16.402429) " x="18.6744789" y="14.5156543" width="3.75753972" height="3.77354872"></rect>
                    <rect id="Rectangle-path" transform="translate(25.868205, 21.740657) rotate(-135.000000) translate(-25.868205, -21.740657) " x="23.9894347" y="19.8538824" width="3.75753972" height="3.77354872"></rect>
                    <rect id="Rectangle-path" transform="translate(7.263347, 13.732711) rotate(45.000000) translate(-7.263347, -13.732711) " x="5.38457673" y="11.8459362" width="3.75753972" height="3.77354872"></rect>
                    <rect id="Rectangle-path" transform="translate(12.580004, 19.068161) rotate(-45.000000) translate(-12.580004, -19.068161) " x="10.7012338" y="17.1813864" width="3.75753972" height="3.77354872"></rect>
                    <rect id="Rectangle-path" transform="translate(17.894092, 24.406728) rotate(45.000000) translate(-17.894092, -24.406728) " x="16.0153222" y="22.5199539" width="3.75753972" height="3.77354872"></rect>
                    <rect id="Rectangle-path" transform="translate(23.207962, 29.745023) rotate(-135.000000) translate(-23.207962, -29.745023) " x="21.3291926" y="27.8582487" width="3.75753972" height="3.77354872"></rect>
                    <rect id="Rectangle-path" transform="translate(9.924354, 27.075636) rotate(45.000000) translate(-9.924354, -27.075636) " x="8.04558367" y="25.1888619" width="3.75753972" height="3.77354872"></rect>
                    <rect id="Rectangle-path" transform="translate(15.236872, 32.416812) rotate(135.000000) translate(-15.236872, -32.416812) " x="13.3581023" y="30.5300372" width="3.75753972" height="3.77354872"></rect>
                    <rect id="Rectangle-path" transform="translate(20.554860, 37.749955) rotate(-135.000000) translate(-20.554860, -37.749955) " x="18.67609" y="35.8631809" width="3.75753972" height="3.77354872"></rect>
                    <rect id="Rectangle-path" transform="translate(17.898000, 45.756990) rotate(-135.000000) translate(-17.898000, -45.756990) " x="16.0192297" y="43.8702155" width="3.75753972" height="3.77354872"></rect>
                    <polygon id="Shape" points="1.53872727 10.6528302 1.95206061 11.0660377 4.60866667 8.39811321 1.95206061 5.73018868 0.411454545 7.2754717"></polygon>
                    <polygon id="Shape" points="12.5803636 37.7490566 11.0829697 39.2528302 12.249697 42.7566038 12.5803636 43.0867925 15.2369697 40.4188679"></polygon>
                </g>
                <path d="M21.0048485,15.7207547 C20.6497576,15.7207547 20.2890303,15.6188679 19.9696364,15.4075472 C19.1053939,14.8320755 18.8667879,13.6622642 19.4398182,12.7924528 L22.8610909,7.59811321 C23.4341212,6.72830189 24.5970909,6.48867925 25.4650909,7.06603774 C26.3293333,7.64150943 26.5679394,8.81132075 25.9949091,9.68113208 L22.5736364,14.8754717 C22.2110303,15.4245283 21.6135758,15.7207547 21.0048485,15.7207547 Z" id="Shape" fill="#9777A8"></path>
                <path d="M47.1256364,26.4150943 C46.6446667,26.4150943 46.163697,26.2301887 45.7973333,25.8622642 L40.5461212,20.5867925 C39.8115152,19.8490566 39.8115152,18.6566038 40.5461212,17.9188679 C41.2807273,17.1811321 42.4681212,17.1811321 43.2027273,17.9188679 L48.4539394,23.1943396 C49.1885455,23.9320755 49.1885455,25.1245283 48.4539394,25.8622642 C48.085697,26.2320755 47.6066061,26.4150943 47.1256364,26.4150943 Z" id="Shape" fill="#00D7EC"></path>
                <path d="M28.0409091,26.2396226 C27.2480606,26.2396226 26.5134545,25.7320755 26.2541818,24.9358491 C25.9347879,23.9471698 26.474,22.8811321 27.4603636,22.5584906 L32.6495758,20.8660377 C33.639697,20.545283 34.6974545,21.0886792 35.0168485,22.0792453 C35.3362424,23.0698113 34.7970303,24.1339623 33.8106667,24.4566038 L28.6214545,26.1490566 C28.4298182,26.209434 28.2325455,26.2396226 28.0409091,26.2396226 Z" id="Shape" fill="#E22F37"></path>
                <path d="M21.0687273,22.6924528 C20.7831515,22.6924528 20.4938182,22.6283019 20.2213939,22.4886792 L16.7362424,20.7150943 C15.81,20.245283 15.4417576,19.109434 15.9095758,18.1792453 C16.3792727,17.2509434 17.5065455,16.8735849 18.4346667,17.3509434 L21.9198182,19.1245283 C22.8460606,19.5943396 23.214303,20.7301887 22.7464848,21.6603774 C22.4139394,22.3150943 21.7544848,22.6924528 21.0687273,22.6924528 Z" id="Shape" fill="#F1B501"></path>
                <path d="M34.8872121,15.8509434 C34.2014545,15.8509434 33.5401212,15.4735849 33.2094545,14.8169811 L31.4433939,11.3169811 C30.973697,10.3867925 31.3438182,9.2509434 32.2700606,8.78113208 C33.196303,8.30377358 34.3273333,8.68113208 34.7951515,9.60943396 L36.5612121,13.109434 C37.0309091,14.0396226 36.6607879,15.1754717 35.7345455,15.645283 C35.4621212,15.7867925 35.1727879,15.8509434 34.8872121,15.8509434 Z" id="Shape" fill="#79E09B"></path>
            </g>
        </g>
    </g>
</svg>