<?xml version="1.0" encoding="UTF-8"?>
<svg width="93px" height="93px" viewBox="0 0 93 93" version="1.1" xmlns="http://www.w3.org/2000/svg" xmlns:xlink="http://www.w3.org/1999/xlink">
    <!-- Generator: Sketch 50 (54983) - http://www.bohemiancoding.com/sketch -->
    <title>Artboard</title>
    <desc>Created with Sketch.</desc>
    <defs></defs>
    <g id="Artboard" stroke="none" stroke-width="1" fill="none" fill-rule="evenodd">
        <g id="ice-cream" transform="translate(30.000000, 20.000000)" fill-rule="nonzero">
            <path d="M16.339,0 C3.165,0 0.625,11.211 0.625,14.97 C0.625,18.008 2.032,20.47 3.768,20.47 C5.504,20.47 6.911,19.508 6.911,16.47 C6.911,19.508 8.318,20.47 10.054,20.47 C11.79,20.47 13.197,19.508 13.197,16.47 C13.197,19.508 14.604,20.47 16.34,20.47 C18.076,20.47 19.483,19.508 19.483,16.47 C19.483,19.508 20.89,20.47 22.626,20.47 C24.362,20.47 25.769,19.508 25.769,16.47 C25.769,19.508 27.176,20.47 28.912,20.47 C30.648,20.47 32.055,18.008 32.055,14.97 C32.053,10.661 29.539,0 16.339,0 Z" id="Shape" fill="#F2ECD3"></path>
            <path d="M25.913,17.104 L25.623,17.104 C25.236,19.01 24.048,19.678 22.625,19.678 C21.202,19.678 20.014,19.01 19.627,17.104 L19.337,17.104 C18.95,19.01 17.762,19.678 16.339,19.678 C14.916,19.678 13.728,19.01 13.341,17.104 L13.051,17.104 C12.664,19.01 11.476,19.678 10.053,19.678 C8.652,19.678 7.48,19.03 7.074,17.192 C6.949,17.227 6.829,17.273 6.717,17.331 C6.516,18.136 6.16,18.698 5.697,19.067 C5.704,19.269 5.739,19.475 5.818,19.679 L10.849,34.679 L16.874,52.679 L22.899,34.679 L27.93,19.679 C27.946,19.636 27.953,19.594 27.962,19.551 C26.976,19.292 26.209,18.563 25.913,17.104 Z" id="Shape" fill="#FBD490"></path>
            <g id="Group" transform="translate(7.000000, 20.000000)" fill="#EEAF4B">
                <rect id="Rectangle-path" transform="translate(16.594487, 3.035538) rotate(-45.000000) translate(-16.594487, -3.035538) " x="15.5944968" y="2.03554779" width="1.99998082" height="1.99998082"></rect>
                <rect id="Rectangle-path" transform="translate(9.523697, 1.622444) rotate(45.000000) translate(-9.523697, -1.622444) " x="8.52370669" y="0.62245329" width="1.99998082" height="1.99998082"></rect>
                <rect id="Rectangle-path" transform="translate(12.352892, 4.452904) rotate(135.000000) translate(-12.352892, -4.452904) " x="11.3529012" y="3.45291379" width="1.99998082" height="1.99998082"></rect>
                <rect id="Rectangle-path" transform="translate(15.183242, 7.280044) rotate(-134.991897) translate(-15.183242, -7.280044) " x="14.1832514" y="6.28005338" width="1.99998084" height="1.99998084"></rect>
                <rect id="Rectangle-path" transform="translate(5.281739, 3.036965) rotate(45.000000) translate(-5.281739, -3.036965) " x="4.28174909" y="2.03697449" width="1.99998082" height="1.99998082"></rect>
                <rect id="Rectangle-path" transform="translate(8.110478, 5.867040) rotate(135.000000) translate(-8.110478, -5.867040) " x="7.11048709" y="4.86704909" width="1.99998082" height="1.99998082"></rect>
                <rect id="Rectangle-path" transform="translate(10.939632, 8.693287) rotate(45.000000) translate(-10.939632, -8.693287) " x="9.93964199" y="7.69329679" width="1.99998082" height="1.99998082"></rect>
                <rect id="Rectangle-path" transform="translate(13.768560, 11.522548) rotate(-135.000000) translate(-13.768560, -11.522548) " x="12.7685701" y="10.5225577" width="1.99998082" height="1.99998082"></rect>
                <rect id="Rectangle-path" transform="translate(3.865975, 7.278337) rotate(45.000000) translate(-3.865975, -7.278337) " x="2.86598439" y="6.27834619" width="1.99998082" height="1.99998082"></rect>
                <rect id="Rectangle-path" transform="translate(6.695808, 10.106125) rotate(-45.000000) translate(-6.695808, -10.106125) " x="5.69581799" y="9.10613479" width="1.99998082" height="1.99998082"></rect>
                <rect id="Rectangle-path" transform="translate(9.524275, 12.935566) rotate(45.000000) translate(-9.524275, -12.935566) " x="8.52428439" y="11.9355756" width="1.99998082" height="1.99998082"></rect>
                <rect id="Rectangle-path" transform="translate(12.352625, 15.764862) rotate(-135.000000) translate(-12.352625, -15.764862) " x="11.3526348" y="14.7648718" width="1.99998082" height="1.99998082"></rect>
                <rect id="Rectangle-path" transform="translate(5.282317, 14.350087) rotate(45.000000) translate(-5.282317, -14.350087) " x="4.28232679" y="13.3500968" width="1.99998082" height="1.99998082"></rect>
                <rect id="Rectangle-path" transform="translate(8.109948, 17.180910) rotate(135.000000) translate(-8.109948, -17.180910) " x="7.10995769" y="16.1809197" width="1.99998082" height="1.99998082"></rect>
                <rect id="Rectangle-path" transform="translate(10.940490, 20.007476) rotate(-135.000000) translate(-10.940490, -20.007476) " x="9.94049949" y="19.0074859" width="1.99998082" height="1.99998082"></rect>
                <rect id="Rectangle-path" transform="translate(9.526355, 24.251205) rotate(-135.000000) translate(-9.526355, -24.251205) " x="8.52636419" y="23.2512142" width="1.99998082" height="1.99998082"></rect>
                <polygon id="Shape" points="0.819 5.646 1.039 5.865 2.453 4.451 1.039 3.037 0.219 3.856"></polygon>
                <polygon id="Shape" points="6.696 20.007 5.899 20.804 6.52 22.661 6.696 22.836 8.11 21.422"></polygon>
            </g>
            <path d="M11.18,8.332 C10.991,8.332 10.799,8.278 10.629,8.166 C10.169,7.861 10.042,7.241 10.347,6.78 L12.168,4.027 C12.473,3.566 13.092,3.439 13.554,3.745 C14.014,4.05 14.141,4.67 13.836,5.131 L12.015,7.884 C11.822,8.175 11.504,8.332 11.18,8.332 Z" id="Shape" fill="#9777A8"></path>
            <path d="M25.083,14 C24.827,14 24.571,13.902 24.376,13.707 L21.581,10.911 C21.19,10.52 21.19,9.888 21.581,9.497 C21.972,9.106 22.604,9.106 22.995,9.497 L25.79,12.293 C26.181,12.684 26.181,13.316 25.79,13.707 C25.594,13.903 25.339,14 25.083,14 Z" id="Shape" fill="#00D7EC"></path>
            <path d="M14.925,13.907 C14.503,13.907 14.112,13.638 13.974,13.216 C13.804,12.692 14.091,12.127 14.616,11.956 L17.378,11.059 C17.905,10.889 18.468,11.177 18.638,11.702 C18.808,12.227 18.521,12.791 17.996,12.962 L15.234,13.859 C15.132,13.891 15.027,13.907 14.925,13.907 Z" id="Shape" fill="#E22F37"></path>
            <path d="M11.214,12.027 C11.062,12.027 10.908,11.993 10.763,11.919 L8.908,10.979 C8.415,10.73 8.219,10.128 8.468,9.635 C8.718,9.143 9.318,8.943 9.812,9.196 L11.667,10.136 C12.16,10.385 12.356,10.987 12.107,11.48 C11.93,11.827 11.579,12.027 11.214,12.027 Z" id="Shape" fill="#F1B501"></path>
            <path d="M18.569,8.401 C18.204,8.401 17.852,8.201 17.676,7.853 L16.736,5.998 C16.486,5.505 16.683,4.903 17.176,4.654 C17.669,4.401 18.271,4.601 18.52,5.093 L19.46,6.948 C19.71,7.441 19.513,8.043 19.02,8.292 C18.875,8.367 18.721,8.401 18.569,8.401 Z" id="Shape" fill="#79E09B"></path>
        </g>
    </g>
</svg>