<svg height="512pt" viewBox="0 -12 512.00062 512" width="512pt" xmlns="http://www.w3.org/2000/svg"><path d="m384.519531 17.625 111.351563 39.886719-112.429688 313.882812-111.351562-39.882812zm0 0" fill="#73da8c"/><path d="m384.527344 17.632812-35.691406 99.640626c7.359374 11.421874 21.675781 27.617187 48.601562 41.527343 25.257812 13.050781 38.53125 31.921875 45.425781 46.730469l53.019531-148.011719zm0 0" fill="#29ce69"/><g fill="#3d4751"><path d="m104.054688 363.785156 60.046874 21.507813-27.542968 26.175781c-9.855469 9.367188-26.175782 3.523438-27.84375-9.972656zm0 0"/><path d="m171.058594 387.785156 60.046875 21.507813-27.542969 26.175781c-9.855469 9.367188-26.179688 3.523438-27.847656-9.972656zm0 0"/><path d="m238.0625 411.785156 60.046875 21.511719-27.542969 26.171875c-9.855468 9.367188-26.179687 3.523438-27.847656-9.972656zm0 0"/><path d="m305.0625 435.785156 60.050781 21.511719-27.542969 26.175781c-9.859374 9.367188-26.179687 3.519532-27.847656-9.976562zm0 0"/></g><path d="m341.6875 378.96875c-.003906 0-.003906 0-.007812 0-10.914063-.003906-22.480469-2.800781-34.378907-8.316406-39.171875-18.160156-66.832031-40.660156-91.234375-60.507813-4.039062-3.285156-18.289062-14.828125-28.566406-23.089843-13.691406.929687-28.660156.628906-44.855469-1.441407-37.753906-4.832031-65.425781 35.140625-46.609375 68.226563 6.746094 11.859375 16.976563 23.207031 32.207032 32.558594 63.867187 39.214843 119.039062 14.992187 184.886718 66.226562 60.96875 47.4375 126.863282-59.445312 110.277344-139.625-13.453125 23.800781-42.320312 65.96875-81.71875 65.96875zm0 0" fill="#6b7d8e"/><path d="m341.6875 378.96875c-.003906 0-.003906 0-.007812 0-7.46875-.003906-15.246094-1.316406-23.226563-3.910156-4.863281 1.703125-9.964844 3.363281-15.484375 4.933594-24.542969 6.980468-52.765625 14.683593-64.40625 38.605468 23.984375 5.246094 48.433594 13.695313 74.566406 34.027344 60.96875 47.4375 126.863282-59.445312 110.277344-139.625-13.453125 23.800781-42.320312 65.96875-81.71875 65.96875zm0 0" fill="#546370"/><path d="m425.414062 326.457031c-.4375-4.628906-1.109374-9.199219-2.046874-13.691406-4.101563-19.621094-21.925782-24.316406-22.125-24.386719-14.496094-5.167968-30.558594.199219-39.265626 12.890625-10.636718 15.511719-27.476562 31.105469-47.359374 17.425781-17.996094-12.386718-13.875-27.523437-5.902344-39.105468 6.757812-9.820313 2.617187-23.339844-8.621094-27.308594 0 0-8.835938-3.296875-16.558594 2.210938-15.300781 10.917968-54.90625 34.199218-115.316406 33.019531 35.980469 21.210937 70.300781 62.601562 134.75 92.480469 82.171875 38.09375 122.445312-53.535157 122.445312-53.535157zm0 0" fill="#f9ee80"/><path d="m425.414062 326.457031c-.4375-4.628906-1.117187-9.203125-2.054687-13.695312-4.101563-19.621094-21.925781-24.316407-22.125-24.386719-10.574219-3.769531-21.96875-1.929688-30.746094 4.261719 5.703125 22.234375 10.03125 59.945312-21.660156 71.144531-14.925781 5.273438-28.261719 11.203125-45.859375 16.210938 82.171875 38.09375 122.445312-53.535157 122.445312-53.535157zm0 0" fill="#eedb00"/><path d="m468.929688 128.898438-108.902344-39.007813c-13.601563-4.875-20.675782-19.847656-15.804688-33.449219l8.082032-22.5625c4.871093-13.601562 19.847656-20.679687 33.449218-15.804687l108.902344 39.007812c13.601562 4.871094 20.675781 19.847657 15.804688 33.449219l-8.082032 22.5625c-4.871094 13.601562-19.847656 20.675781-33.449218 15.804688zm0 0" fill="#b9ecc2"/><path d="m237.898438 70.84375c2.277343 4.730469 4.230468 9.53125 5.871093 14.378906l-3.996093 26.851563 10.042968 24.320312c-3.042968 33.429688-19.210937 65.3125-46.480468 86.523438l-28.5625 5.199219-21.132813 18.929687c-33.894531 7.953125-69.101563 1.195313-97.34375-17.378906l-11.511719-21.875-25.191406-15.421875c-2.605469-4.101563-5-8.398438-7.160156-12.882813-14.050782-29.164062-15.785156-61.074219-7.257813-89.84375l20.363281-16.996093 2.113282-25.953126c11.304687-14.070312 25.847656-25.902343 43.191406-34.261718 17.253906-8.3125 35.46875-12.3125 53.425781-12.42968775l23.738281 11.28906275 24.378907-2.011719c27.714843 11.28125 51.5 32.484375 65.511719 61.5625zm0 0" fill="#6b7d8e"/><path d="m35.855469 139.136719-16.261719 53.234375c9.683594 15.257812 22.277344 27.8125 36.695312 37.292968l53.484376-13.238281 14.113281-28.40625-5.550781-18.800781-34.9375-36.527344-28.285157-6.625zm0 0" fill="#76e7e7"/><path d="m243.769531 85.222656-52.03125-21.199218-22.058593 6.765624-12.601563 26.402344 6.796875 50.089844 11.25 16.054688 31.007812 6.660156 43.683594-33.601563c1.542969-16.929687-.351562-34.328125-6.046875-51.171875zm0 0" fill="#76e7e7"/><path d="m118.335938 169.21875-8.5625 47.207031 43.863281 30.621094c8.753906-2.050781 17.414062-5.085937 25.847656-9.148437 8.671875-4.179688 16.636719-9.222657 23.851563-14.984376l2.796874-52.921874-42.261718-22.714844zm0 0" fill="#b0f0ef"/><path d="m5.175781 89.644531 30.679688 49.492188 47.542969-6.445313 23.941406-44.515625.449218-26.683593-21.273437-16.535157-58.863281 1.738281c-10.273438 12.78125-17.871094 27.40625-22.476563 42.949219zm0 0" fill="#b0f0ef"/><path d="m124.273438.00390625-37.757813 44.95312475 20.824219 43.21875 49.738281 9.011719 34.660156-33.164062-19.359375-54.75c-15.179687-6.175782-31.527344-9.378907-48.105468-9.26953175zm0 0" fill="#2eddda"/></svg>