<?xml version="1.0" encoding="UTF-8"?>
<svg width="154px" height="154px" viewBox="0 0 154 154" version="1.1" xmlns="http://www.w3.org/2000/svg" xmlns:xlink="http://www.w3.org/1999/xlink">
    <!-- Generator: Sketch 49.3 (51167) - http://www.bohemiancoding.com/sketch -->
    <title>Image</title>
    <desc>Created with Sketch.</desc>
    <defs>
        <rect id="path-1" x="0" y="0" width="130" height="130" rx="65"></rect>
        <filter x="-18.5%" y="-9.2%" width="136.9%" height="136.9%" filterUnits="objectBoundingBox" id="filter-3">
            <feOffset dx="0" dy="12" in="SourceAlpha" result="shadowOffsetOuter1"></feOffset>
            <feGaussianBlur stdDeviation="6" in="shadowOffsetOuter1" result="shadowBlurOuter1"></feGaussianBlur>
            <feColorMatrix values="0 0 0 0 0.202815094   0 0 0 0 0.330833559   0 0 0 0 0.478821216  0 0 0 0.0561594203 0" type="matrix" in="shadowBlurOuter1"></feColorMatrix>
        </filter>
        <rect id="path-4" x="8" y="8" width="114" height="114" rx="57"></rect>
        <path d="M17.5465404,35.2965676 C11.3151842,33.3117032 5.55366235,30.2906655 0.469264383,26.4385618 L0.469264383,0.00612 L17.5465404,0.00612 L17.5465404,35.2965676 L17.5465404,35.2965676 Z" id="path-6"></path>
        <path d="M0.5643,35.3856635 C6.7887437,33.4387072 12.5496074,30.4595025 17.6417042,26.6510828 L17.6417042,0.006 L0.5643,0.006 L0.5643,35.3856635 L0.5643,35.3856635 Z" id="path-8"></path>
    </defs>
    <g id="Zilla-Slab/Lato" stroke="none" stroke-width="1" fill="none" fill-rule="evenodd">
        <g id="⟶-Log-In" transform="translate(-111.000000, -130.000000)">
            <g id="Image" transform="translate(123.000000, 130.000000)">
                <mask id="mask-2" fill="white">
                    <use xlink:href="#path-1"></use>
                </mask>
                <g id="Mask" opacity="0.100000001">
                    <use fill="black" fill-opacity="1" filter="url(#filter-3)" xlink:href="#path-1"></use>
                    <use fill="#FFFFFF" fill-rule="evenodd" xlink:href="#path-1"></use>
                </g>
                <mask id="mask-5" fill="white">
                    <use xlink:href="#path-4"></use>
                </mask>
                <g id="Mask-Copy"></g>
                <g id="Page-1" mask="url(#mask-5)">
                    <g transform="translate(8.000000, 8.000000)">
                        <g id="Group-3" stroke-width="1" fill="none" transform="translate(0.000000, 0.010200)">
                            <path d="M113.595543,56.78994 C113.595543,87.82854 88.1656596,112.99014 56.7974681,112.99014 C25.4292766,112.99014 0,87.82854 0,56.78994 C0,25.75194 25.4292766,0.58974 56.7974681,0.58974 C88.1656596,0.58974 113.595543,25.75194 113.595543,56.78994" id="Fill-1" fill="#FFEBAE"></path>
                        </g>
                        <g id="Group-6" stroke-width="1" fill="none" transform="translate(21.829787, 75.010200)">
                            <mask id="mask-7" fill="white">
                                <use xlink:href="#path-6"></use>
                            </mask>
                            <g id="Clip-5"></g>
                            <path d="M12.4219979,37.04532 C13.2545617,37.55472 14.0416468,38.00292 14.7917426,38.40012 L17.5465404,38.40012 L17.5465404,0.00612 C12.643934,2.85072 -14.9859064,20.27472 12.4219979,37.04532" id="Fill-4" fill="#E9351E" mask="url(#mask-7)"></path>
                        </g>
                        <g id="Group-9" stroke-width="1" fill="none" transform="translate(73.372340, 75.010200)">
                            <mask id="mask-9" fill="white">
                                <use xlink:href="#path-8"></use>
                            </mask>
                            <g id="Clip-8"></g>
                            <path d="M3.31970426,38.4 C4.06919362,38.0028 4.85627872,37.5546 5.68884255,37.0452 C33.0967468,20.2746 5.46751277,2.8506 0.5643,0.006 L0.5643,38.4 L3.31970426,38.4 Z" id="Fill-7" fill="#E9351E" mask="url(#mask-9)"></path>
                        </g>
                        <polygon id="Fill-10" fill="#FEB913" points="19.7529255 58.8162 32.7598404 58.8162 32.7598404 54.5262 19.7529255 54.5262"></polygon>
                        <path d="M22.9057532,56.67126 C22.9057532,59.79486 20.346817,62.32686 17.1899872,62.32686 C14.0337638,62.32686 11.4742213,59.79486 11.4742213,56.67126 C11.4742213,53.54706 14.0337638,51.01566 17.1899872,51.01566 C20.346817,51.01566 22.9057532,53.54706 22.9057532,56.67126" id="Fill-12" fill="#E9351E"></path>
                        <polygon id="Fill-13" fill="#FEB913" points="80.2590319 58.8162 93.2671596 58.8162 93.2671596 54.5262 80.2590319 54.5262"></polygon>
                        <path d="M90.1142106,56.67126 C90.1142106,59.79486 92.6731468,62.32686 95.8293702,62.32686 C98.9862,62.32686 101.545136,59.79486 101.545136,56.67126 C101.545136,53.54706 98.9862,51.01566 95.8293702,51.01566 C92.6731468,51.01566 90.1142106,53.54706 90.1142106,56.67126" id="Fill-14" fill="#E9351E"></path>
                        <path d="M86.3687043,64.08186 C86.3687043,70.54386 81.0755872,75.78246 74.5436298,75.78246 L38.2788957,75.78246 C31.7481511,75.78246 26.4532149,70.54386 26.4532149,64.08186 L26.4532149,48.87006 C26.4532149,42.40806 31.7481511,37.16946 38.2788957,37.16946 L74.5436298,37.16946 C81.0755872,37.16946 86.3687043,42.40806 86.3687043,48.87006 L86.3687043,64.08186 Z" id="Fill-15" fill="#FEB913"></path>
                        <polygon id="Fill-16" fill="#F58B22" points="26.4534574 60.9612 86.3689468 60.9612 86.3689468 50.8206 26.4534574 50.8206"></polygon>
                        <path d="M45.9820819,55.33854 C46.1209436,59.64474 42.7064011,63.24654 38.3531777,63.38334 C34.0023798,63.52134 30.36105,60.14214 30.2234011,55.83594 C30.0833266,51.52974 33.4984755,47.92794 37.8510926,47.79054 C42.2031032,47.65314 45.8432202,51.03234 45.9820819,55.33854" id="Fill-17" fill="#FFFFFF"></path>
                        <path d="M43.223767,55.42524 C43.3141181,58.22424 41.0947564,60.56544 38.2653734,60.65484 C35.4372032,60.74424 33.0704904,58.54824 32.9807457,55.74864 C32.8903947,52.95024 35.1103628,50.60904 37.938533,50.51964 C40.7673096,50.42964 43.1340223,52.62684 43.223767,55.42524" id="Fill-18" fill="#221E1D"></path>
                        <path d="M41.0451543,55.10412 C41.0651649,55.75032 40.5527713,56.29032 39.9003032,56.31132 C39.2478351,56.33112 38.7020904,55.82412 38.6814734,55.17852 C38.66025,54.53232 39.1720372,53.99232 39.8251117,53.97192 C40.4775798,53.95152 41.0239309,54.45792 41.0451543,55.10412" id="Fill-19" fill="#FFFFFF"></path>
                        <path d="M83.2207277,55.33824 C83.3595894,59.64444 79.9444404,63.24624 75.5924298,63.38364 C71.2410255,63.52104 67.5996957,60.14184 67.4620468,55.83624 C67.321366,51.53004 70.7371213,47.92824 75.0897383,47.79024 C79.4417489,47.65284 83.081866,51.03264 83.2207277,55.33824" id="Fill-20" fill="#FFFFFF"></path>
                        <path d="M80.4624128,55.42524 C80.5527638,58.22424 78.3327957,60.56544 75.5046255,60.65484 C72.6752426,60.74424 70.3091362,58.54824 70.2187851,55.74864 C70.1296468,52.95024 72.3490085,50.60844 75.1771787,50.51904 C78.0053489,50.42964 80.3726681,52.62684 80.4624128,55.42524" id="Fill-21" fill="#221E1D"></path>
                        <path d="M78.2831936,55.10412 C78.3038106,55.75032 77.791417,56.29032 77.1383426,56.31132 C76.4864809,56.33112 75.9401298,55.82412 75.9195128,55.17852 C75.8982894,54.53232 76.410683,53.99172 77.0631511,53.97192 C77.7156191,53.95152 78.2619702,54.45792 78.2831936,55.10412" id="Fill-22" fill="#FFFFFF"></path>
                        <polygon id="Fill-23" fill="#E9351E" points="57.017767 51.19944 53.4692138 60.95004 61.3527989 60.95004"></polygon>
                        <path d="M72.508366,64.85592 C72.2937064,64.36152 71.7140043,64.13112 71.2137383,64.34412 C55.3531851,71.06892 43.4517064,64.47072 43.3201213,64.39692 C42.8495681,64.12632 42.2474298,64.28472 41.9745574,64.75092 C41.7010787,65.21652 41.8611638,65.81352 42.331717,66.08352 C42.673717,66.27972 48.1796745,69.35892 56.7339191,69.35892 C61.1150362,69.35892 66.295366,68.55132 71.9899085,66.13632 C72.4907809,65.92452 72.7224191,65.35152 72.508366,64.85592" id="Fill-24" fill="#221E1D"></path>
                        <path d="M48.6592628,41.84994 C48.6592628,43.14234 47.6011245,44.18994 46.2943691,44.18994 C44.9882202,44.18994 43.9294755,43.14234 43.9294755,41.84994 C43.9294755,40.55754 44.9882202,39.50994 46.2943691,39.50994 C47.6011245,39.50994 48.6592628,40.55754 48.6592628,41.84994" id="Fill-25" fill="#FDDA0E"></path>
                        <path d="M55.4917436,41.84994 C55.4917436,43.14234 54.4323926,44.18994 53.12685,44.18994 C51.8200947,44.18994 50.76135,43.14234 50.76135,41.84994 C50.76135,40.55754 51.8200947,39.50994 53.12685,39.50994 C54.4323926,39.50994 55.4917436,40.55754 55.4917436,41.84994" id="Fill-26" fill="#FDDA0E"></path>
                        <path d="M62.3242245,41.84994 C62.3242245,43.14234 61.2654798,44.18994 59.9593309,44.18994 C58.6519691,44.18994 57.5938309,43.14234 57.5938309,41.84994 C57.5938309,40.55754 58.6519691,39.50994 59.9593309,39.50994 C61.2654798,39.50994 62.3242245,40.55754 62.3242245,41.84994" id="Fill-27" fill="#FDDA0E"></path>
                        <path d="M69.1567053,41.84994 C69.1567053,43.14234 68.098567,44.18994 66.7918117,44.18994 C65.4850564,44.18994 64.4269181,43.14234 64.4269181,41.84994 C64.4269181,40.55754 65.4850564,39.50994 66.7918117,39.50994 C68.098567,39.50994 69.1567053,40.55754 69.1567053,41.84994" id="Fill-28" fill="#FDDA0E"></path>
                        <path d="M79.4539372,113.4102 C85.4395436,98.6268 73.9916394,75.7824 73.9916394,75.7824 L39.69765,75.7824 C39.69765,75.7824 27.8883415,98.6268 33.207533,113.4102 L79.4539372,113.4102 Z" id="Fill-29" fill="#FEB913"></path>
                        <path d="M80.1094979,93.72414 C78.0999447,83.97534 73.9917,75.78234 73.9917,75.78234 L39.6977106,75.78234 C39.6977106,75.78234 35.4621255,83.97534 33.2051681,93.72414 L80.1094979,93.72414 Z" id="Fill-30" fill="#F58B22"></path>
                        <path d="M65.0428819,83.16174 L48.188467,83.16174 C42.4199457,83.16174 37.7265415,87.80574 37.7265415,93.51354 C37.7265415,99.22194 42.4199457,103.86474 48.188467,103.86474 L65.0428819,103.86474 C70.8107968,103.86474 75.5048074,99.22194 75.5048074,93.51354 C75.5048074,87.80574 70.8107968,83.16174 65.0428819,83.16174" id="Fill-31" fill="#F58B22"></path>
                        <path d="M73.1384585,93.51354 C73.1384585,97.93854 69.5141074,101.52474 65.0426394,101.52474 L48.1882245,101.52474 C43.71615,101.52474 40.0924053,97.93854 40.0924053,93.51354 C40.0924053,89.08914 43.71615,85.50234 48.1882245,85.50234 L65.0426394,85.50234 C69.5141074,85.50234 73.1384585,89.08914 73.1384585,93.51354" id="Fill-32" fill="#FDDA0E"></path>
                        <path d="M45.4295457,101.03694 C54.2469606,97.05294 63.4191096,93.77994 72.7925777,91.19394 C72.2850351,89.54334 71.2529713,88.11894 69.8898223,87.10674 C65.2285564,87.62934 60.5927585,88.34634 56.0012266,89.29674 C50.6250351,90.41034 45.2961415,91.79154 40.0927691,93.53634 C40.103684,96.99054 42.3260777,99.92214 45.4295457,101.03694" id="Fill-33" fill="#FFF0AA"></path>
                        <path d="M70.8443904,37.2597 L70.8443904,36.8325 C70.8443904,29.7513 65.0437309,24.0111 57.8865926,24.0111 L54.4320287,24.0111 C47.2754968,24.0111 41.4736245,29.7513 41.4736245,36.8325 L41.4736245,37.2597 L70.8443904,37.2597 Z" id="Fill-34" fill="#E9351E"></path>
                    </g>
                </g>
            </g>
        </g>
    </g>
</svg>