<svg xmlns="http://www.w3.org/2000/svg" xmlns:xlink="http://www.w3.org/1999/xlink" viewBox="0 0 162.91 199.89"><defs><style>.cls-1,.cls-2{fill:none;}.cls-1{clip-rule:evenodd;}.cls-3{clip-path:url(#clip-path);}.cls-4{isolation:isolate;}.cls-5{clip-path:url(#clip-path-2);}.cls-6{clip-path:url(#clip-path-3);}.cls-7{fill:#eeaf7a;}.cls-8{clip-path:url(#clip-path-5);}.cls-9{clip-path:url(#clip-path-6);}.cls-10{clip-path:url(#clip-path-7);}.cls-11{clip-path:url(#clip-path-8);}.cls-12{fill:#f0ba80;}.cls-13{clip-path:url(#clip-path-9);}.cls-14{clip-path:url(#clip-path-10);}.cls-15{clip-path:url(#clip-path-11);}.cls-16{clip-path:url(#clip-path-12);}.cls-17{clip-path:url(#clip-path-13);}.cls-18{clip-path:url(#clip-path-14);}.cls-19{clip-path:url(#clip-path-15);}.cls-20{fill:#f4c492;}.cls-21{clip-path:url(#clip-path-17);}.cls-22{clip-path:url(#clip-path-18);}.cls-23{clip-path:url(#clip-path-19);}.cls-24{clip-path:url(#clip-path-20);}.cls-25{fill:#b48943;}.cls-26{clip-path:url(#clip-path-21);}.cls-27{clip-path:url(#clip-path-22);}.cls-28{clip-path:url(#clip-path-23);}.cls-29{clip-path:url(#clip-path-24);}.cls-30{clip-path:url(#clip-path-25);}.cls-31{clip-path:url(#clip-path-26);}.cls-32{clip-path:url(#clip-path-27);}.cls-33{clip-path:url(#clip-path-28);}.cls-34{fill:#373532;}.cls-35{clip-path:url(#clip-path-29);}.cls-36{clip-path:url(#clip-path-30);}.cls-37{clip-path:url(#clip-path-31);}.cls-38{clip-path:url(#clip-path-33);}.cls-39{clip-path:url(#clip-path-34);}.cls-40{clip-path:url(#clip-path-35);}.cls-41{clip-path:url(#clip-path-37);}.cls-42{clip-path:url(#clip-path-38);}.cls-43{clip-path:url(#clip-path-39);}.cls-44{fill:#c87957;}.cls-45{clip-path:url(#clip-path-41);}.cls-46{clip-path:url(#clip-path-42);}.cls-47{clip-path:url(#clip-path-43);}.cls-48{fill:#dca978;}.cls-49{clip-path:url(#clip-path-45);}.cls-50{clip-path:url(#clip-path-46);}.cls-51{clip-path:url(#clip-path-47);}.cls-52{clip-path:url(#clip-path-48);}.cls-53{clip-path:url(#clip-path-49);}.cls-54{clip-path:url(#clip-path-50);}.cls-55{clip-path:url(#clip-path-51);}.cls-56{clip-path:url(#clip-path-52);}.cls-57{clip-path:url(#clip-path-53);}.cls-58{clip-path:url(#clip-path-54);}.cls-59{clip-path:url(#clip-path-55);}.cls-60{fill:#fffffe;}.cls-61{clip-path:url(#clip-path-57);}.cls-62{clip-path:url(#clip-path-58);}.cls-63{clip-path:url(#clip-path-59);}.cls-64{clip-path:url(#clip-path-60);}.cls-65{clip-path:url(#clip-path-61);}.cls-66{clip-path:url(#clip-path-62);}.cls-67{clip-path:url(#clip-path-63);}.cls-68{clip-path:url(#clip-path-64);}.cls-69{clip-path:url(#clip-path-65);}.cls-70{clip-path:url(#clip-path-66);}.cls-71{clip-path:url(#clip-path-67);}.cls-72{fill:#f4f4f2;}.cls-73{clip-path:url(#clip-path-69);}.cls-74{clip-path:url(#clip-path-70);}.cls-75{clip-path:url(#clip-path-71);}.cls-76{clip-path:url(#clip-path-73);}.cls-77{clip-path:url(#clip-path-74);}.cls-78{clip-path:url(#clip-path-75);}.cls-79{fill:#5ebcb0;}.cls-80{clip-path:url(#clip-path-77);}.cls-81{clip-path:url(#clip-path-78);}.cls-82{clip-path:url(#clip-path-79);}.cls-83{fill:#36b19d;}.cls-84{clip-path:url(#clip-path-81);}.cls-85{clip-path:url(#clip-path-82);}.cls-86{clip-path:url(#clip-path-83);}.cls-87{clip-path:url(#clip-path-85);}.cls-88{clip-path:url(#clip-path-86);}.cls-89{clip-path:url(#clip-path-87);}.cls-90{fill:#797c7b;}.cls-91{clip-path:url(#clip-path-89);}.cls-92{fill:#36a1b1;}.cls-93{clip-path:url(#clip-path-90);}.cls-94{clip-path:url(#clip-path-91);}.cls-95{clip-path:url(#clip-path-92);}.cls-96{fill:#4abc96;}.cls-97{clip-path:url(#clip-path-94);}.cls-98{fill:#f1edcd;}.cls-99{clip-path:url(#clip-path-95);}.cls-100{fill:#f7cfc0;}.cls-101{clip-path:url(#clip-path-96);}.cls-102{fill:#a17a46;}.cls-103{clip-path:url(#clip-path-97);}.cls-104{fill:#0a0b09;}.cls-105{clip-path:url(#clip-path-98);}.cls-106{fill:#ec957a;}.cls-107{clip-path:url(#clip-path-99);}.cls-108{clip-path:url(#clip-path-100);}.cls-109{clip-path:url(#clip-path-101);}.cls-110{fill:#d33e41;}.cls-111{clip-path:url(#clip-path-102);}.cls-112{fill:#e98b91;}.cls-113{clip-path:url(#clip-path-103);}.cls-114{fill:#b14646;}.cls-115{clip-path:url(#clip-path-104);}.cls-116{fill:#f2b8a5;}.cls-117{clip-path:url(#clip-path-105);}.cls-118{clip-path:url(#clip-path-106);}.cls-119{fill:#c89148;}.cls-120{clip-path:url(#clip-path-107);}.cls-121{clip-path:url(#clip-path-108);}.cls-122{clip-path:url(#clip-path-109);}.cls-123{clip-path:url(#clip-path-110);}.cls-124{fill:#f0f8fa;}.cls-125{clip-path:url(#clip-path-111);}.cls-126{fill:#b3d6db;}.cls-127{clip-path:url(#clip-path-112);}.cls-128{fill:#b32c2e;}.cls-129{clip-path:url(#clip-path-113);}.cls-130{clip-path:url(#clip-path-114);}.cls-131{clip-path:url(#clip-path-115);}.cls-132{clip-path:url(#clip-path-116);}.cls-133{clip-path:url(#clip-path-117);}.cls-134{clip-path:url(#clip-path-118);}.cls-135{fill:#d4abc5;}.cls-136{clip-path:url(#clip-path-119);}.cls-137{fill:#704973;}.cls-138{clip-path:url(#clip-path-120);}.cls-139{fill:#a26454;}.cls-140{clip-path:url(#clip-path-121);}.cls-141{clip-path:url(#clip-path-122);}.cls-142{clip-path:url(#clip-path-123);}.cls-143{clip-path:url(#clip-path-124);}.cls-144{fill:#834a3e;}.cls-145{clip-path:url(#clip-path-125);}.cls-146{clip-path:url(#clip-path-126);}.cls-147{clip-path:url(#clip-path-127);}.cls-148{clip-path:url(#clip-path-128);}.cls-149{clip-path:url(#clip-path-129);}.cls-150{fill:#8f4f3f;}.cls-151{clip-path:url(#clip-path-130);}.cls-152{clip-path:url(#clip-path-131);}.cls-153{clip-path:url(#clip-path-132);}.cls-154{clip-path:url(#clip-path-133);}.cls-155{clip-path:url(#clip-path-134);}.cls-156{clip-path:url(#clip-path-135);}.cls-157{clip-path:url(#clip-path-136);}.cls-158{fill:#fff;}.cls-159{clip-path:url(#clip-path-137);}.cls-160{fill:#2a606a;}.cls-161{clip-path:url(#clip-path-138);}.cls-162{clip-path:url(#clip-path-139);}.cls-163{clip-path:url(#clip-path-140);}.cls-164{clip-path:url(#clip-path-141);}.cls-165{clip-path:url(#clip-path-142);}.cls-166{clip-path:url(#clip-path-143);}.cls-167{clip-path:url(#clip-path-144);}.cls-168{clip-path:url(#clip-path-145);}.cls-169{clip-path:url(#clip-path-146);}.cls-170{clip-path:url(#clip-path-147);}.cls-171{clip-path:url(#clip-path-148);}.cls-172{clip-path:url(#clip-path-149);}.cls-173{clip-path:url(#clip-path-150);}.cls-174{clip-path:url(#clip-path-151);}.cls-175{clip-path:url(#clip-path-152);}.cls-176{clip-path:url(#clip-path-153);}.cls-177{clip-path:url(#clip-path-154);}.cls-178{clip-path:url(#clip-path-155);}.cls-179{clip-path:url(#clip-path-156);}.cls-180{clip-path:url(#clip-path-157);}.cls-181{clip-path:url(#clip-path-158);}.cls-182{clip-path:url(#clip-path-159);}.cls-183{clip-path:url(#clip-path-160);}.cls-184{fill:#9d352f;}</style><clipPath id="clip-path"><path class="cls-1" d="M81.85,65.19h5.42v3.38c0,2.1.35,1.66,2.34,2.75a16.1,16.1,0,0,0,2.5,1.73c-2.41,7.66-4,15.65-8.67,22.55H80.65C75.94,88.7,74,80.71,71.59,73.05a16.1,16.1,0,0,0,2.5-1.73c2-1.09,2.34-.65,2.34-2.75V65.19Z"/></clipPath><clipPath id="clip-path-2"><rect class="cls-2" x="70.82" y="65.01" width="22" height="31"/></clipPath><clipPath id="clip-path-3"><rect class="cls-2" x="71.59" y="65.18" width="20.52" height="30.43"/></clipPath><clipPath id="clip-path-5"><path class="cls-1" d="M96.23,40.76a7.44,7.44,0,0,1,8.59-6,7.28,7.28,0,0,1,5.81,8.59c-.77,4-4.62,6.21-8.59,5.49A6.81,6.81,0,0,1,96.23,40.76Z"/></clipPath><clipPath id="clip-path-6"><rect class="cls-2" x="95.82" y="34.01" width="15" height="15"/></clipPath><clipPath id="clip-path-7"><rect class="cls-2" x="96.09" y="34.66" width="14.68" height="14.35"/></clipPath><clipPath id="clip-path-8"><rect class="cls-2" x="94.82" y="34.01" width="17" height="16"/></clipPath><clipPath id="clip-path-9"><path class="cls-1" d="M68.52,40.76a6.8,6.8,0,0,1-5.8,8.1c-4,.72-7.82-1.46-8.59-5.49a7.28,7.28,0,0,1,5.8-8.59A7.44,7.44,0,0,1,68.52,40.76Z"/></clipPath><clipPath id="clip-path-10"><rect class="cls-2" x="53.82" y="34.01" width="15" height="15"/></clipPath><clipPath id="clip-path-11"><rect class="cls-2" x="53.99" y="34.66" width="14.68" height="14.35"/></clipPath><clipPath id="clip-path-12"><rect class="cls-2" x="52.82" y="34.01" width="17" height="16"/></clipPath><clipPath id="clip-path-13"><path class="cls-1" d="M101.92,15.44c3.88,5.28,4.4,11.93,4.09,18.3C105.23,50,104,68.8,82.16,68.62S59,50.11,58.17,33.74c-.3-6.37.21-13,4.09-18.3a21.68,21.68,0,0,1,16.35-9l.33,0V6.18l3.16.13,3.17-.13v.25l.33,0A21.66,21.66,0,0,1,101.92,15.44Z"/></clipPath><clipPath id="clip-path-14"><rect class="cls-2" x="57.82" y="6.01" width="49" height="63"/></clipPath><clipPath id="clip-path-15"><rect class="cls-2" x="58.09" y="6.18" width="48" height="62.45"/></clipPath><clipPath id="clip-path-17"><path class="cls-1" d="M66.09,21.86c-5.26,0-5.34,10.85-5.63,16.85,0,.83-.65,6.19-1.45,6.27S51.07,13.8,71.53,7.08c7.4-2.42,21.14-3.4,27.56.89,2.72,1.81,3.6,4.49,4.92,6.7,3.75,6.3,3.86,13,3.86,17.27,0,9.52-2.33,13.43-2.91,13.19s.78-3.33.72-10.08c-.08-7.83-1.12-19.75-5.33-19.75C82.09,15.3,66.23,21.86,66.09,21.86Z"/></clipPath><clipPath id="clip-path-18"><rect class="cls-2" x="56.82" y="4.01" width="52" height="42"/></clipPath><clipPath id="clip-path-19"><rect class="cls-2" x="57.22" y="5" width="50.67" height="40.15"/></clipPath><clipPath id="clip-path-20"><rect class="cls-2" x="51.82" y="5.01" width="57" height="41"/></clipPath><clipPath id="clip-path-21"><path class="cls-1" d="M84.65,11.69c2.56-.13,15.1,3.23,15.1,3.23C90.39,24.2,75.19,30.43,62,28c0,0,6-3.83,5.58-3.45a22.66,22.66,0,0,1-7.37,1.28c-1.77-.22-1.68-.86-1.68-.86C68.76,15.51,68.5,15.6,84.65,11.69Z"/></clipPath><clipPath id="clip-path-22"><rect class="cls-2" x="57.82" y="11.01" width="42" height="18"/></clipPath><clipPath id="clip-path-23"><rect class="cls-2" x="58.5" y="11.68" width="41.26" height="16.84"/></clipPath><clipPath id="clip-path-24"><rect class="cls-2" x="57.82" y="11.01" width="42" height="20"/></clipPath><clipPath id="clip-path-25"><path class="cls-1" d="M79,36.32a8.47,8.47,0,0,0,2.83.17,8.35,8.35,0,0,0,2.82-.17A4.29,4.29,0,0,1,86.41,35c4.35-1.55,16.36-.91,19.55-.12.41.11.46.09.5.37a8.64,8.64,0,0,1-.07,2.16c-.13.25-.77.35-1.32,1.17-1,1.46-.94,6.79-3.33,9.31s-11.86,2.7-14.4-.77a28.29,28.29,0,0,1-3.41-7.31,2.12,2.12,0,0,0-1.44-.66,4.06,4.06,0,0,0-1.27,0,2.12,2.12,0,0,0-1.44.66,28.59,28.59,0,0,1-3.4,7.31c-2.55,3.47-11.93,3.38-14.41.77s-2.32-7.85-3.32-9.31c-.56-.82-1.19-.92-1.33-1.17a9.14,9.14,0,0,1-.07-2.16c0-.28.09-.26.5-.37C61,34.11,73,33.47,77.3,35A4.29,4.29,0,0,1,79,36.32Zm22.57-.57c-3-1-11.47-.68-14.42.86-3.44,1.8-.63,8.12,1,10.25,2.13,2.76,10.72,3.14,13.31-.07a11.71,11.71,0,0,0,1.67-4.48c.25-1.34.46-4.08,0-5.27A2,2,0,0,0,101.6,35.75Zm-39.48,0A2,2,0,0,0,60.54,37c-.47,1.19-.26,3.93,0,5.27a11.87,11.87,0,0,0,1.67,4.48c2.6,3.21,11.18,2.83,13.32.07,1.64-2.13,4.45-8.45,1-10.25C73.59,35.07,65.12,34.76,62.12,35.75Z"/></clipPath><clipPath id="clip-path-26"><rect class="cls-2" x="56.82" y="34.01" width="50" height="16"/></clipPath><clipPath id="clip-path-27"><rect class="cls-2" x="57.21" y="34.06" width="49.29" height="15.76"/></clipPath><clipPath id="clip-path-28"><rect class="cls-2" x="56.82" y="33.01" width="50" height="18"/></clipPath><clipPath id="clip-path-29"><path class="cls-1" d="M69.94,44a1.9,1.9,0,1,1,1.86-1.9A1.89,1.89,0,0,1,69.94,44Z"/></clipPath><clipPath id="clip-path-30"><rect class="cls-2" x="67.82" y="40.01" width="4" height="5"/></clipPath><clipPath id="clip-path-31"><rect class="cls-2" x="68.07" y="40.22" width="3.74" height="3.82"/></clipPath><clipPath id="clip-path-33"><path class="cls-1" d="M94.26,44a1.9,1.9,0,1,1,1.87-1.9A1.88,1.88,0,0,1,94.26,44Z"/></clipPath><clipPath id="clip-path-34"><rect class="cls-2" x="91.82" y="40.01" width="5" height="5"/></clipPath><clipPath id="clip-path-35"><rect class="cls-2" x="92.39" y="40.22" width="3.76" height="3.82"/></clipPath><clipPath id="clip-path-37"><path class="cls-1" d="M91.22,55.8a11.56,11.56,0,0,1-17,0,14.55,14.55,0,0,0,8.4,3.08A15.16,15.16,0,0,0,91.22,55.8Z"/></clipPath><clipPath id="clip-path-38"><rect class="cls-2" x="73.82" y="55.01" width="18" height="5"/></clipPath><clipPath id="clip-path-39"><rect class="cls-2" x="74.23" y="55.78" width="16.99" height="3.74"/></clipPath><clipPath id="clip-path-41"><path class="cls-1" d="M78.07,53.27s0,0,0-.05a.38.38,0,0,1,.15-.27,39.85,39.85,0,0,0,2.88-10.36c.73,0-.73,7.94-1.36,9.82A13.57,13.57,0,0,1,82,52.24c2.17,0,3.92.44,3.92,1s-1.75,1-3.92,1S78.18,53.79,78.07,53.27Z"/></clipPath><clipPath id="clip-path-42"><rect class="cls-2" x="77.82" y="42.01" width="9" height="13"/></clipPath><clipPath id="clip-path-43"><rect class="cls-2" x="78.04" y="42.58" width="7.88" height="11.63"/></clipPath><clipPath id="clip-path-45"><path class="cls-1" d="M63.45,32.59c-.6-1,2.62-1.48,5.87-1.45,5.47,0,8.39,2.65,5.76,2.54C73.12,33.59,63.63,32.89,63.45,32.59Z"/></clipPath><clipPath id="clip-path-46"><rect class="cls-2" x="62.82" y="31.01" width="14" height="3"/></clipPath><clipPath id="clip-path-47"><rect class="cls-2" x="63.38" y="31.12" width="12.69" height="2.57"/></clipPath><clipPath id="clip-path-48"><rect class="cls-2" x="62.82" y="31.01" width="15" height="3"/></clipPath><clipPath id="clip-path-49"><path class="cls-1" d="M100.43,32.59c-.18.3-9.67,1-11.64,1.09-2.62.11.3-2.5,5.76-2.54C97.81,31.11,101,31.59,100.43,32.59Z"/></clipPath><clipPath id="clip-path-50"><rect class="cls-2" x="86.82" y="31.01" width="14" height="3"/></clipPath><clipPath id="clip-path-51"><rect class="cls-2" x="87.81" y="31.12" width="12.69" height="2.57"/></clipPath><clipPath id="clip-path-52"><rect class="cls-2" x="85.82" y="31.01" width="16" height="3"/></clipPath><clipPath id="clip-path-53"><path class="cls-1" d="M101.5,108H63.64c.1-15,.3-34.59.3-34.59L71,71.51h3.28l8.08,3.27,8.12-3.27h3.27l7.5,1.92S101.43,93.43,101.5,108Z"/></clipPath><clipPath id="clip-path-54"><rect class="cls-2" x="62.82" y="71.01" width="39" height="37"/></clipPath><clipPath id="clip-path-55"><rect class="cls-2" x="63.63" y="71.51" width="37.88" height="36.47"/></clipPath><clipPath id="clip-path-57"><path class="cls-1" d="M112.58,108h-10.2c-.62-3.41-2.42-11.79-2.42-11.79V73.35s2.75-.52,5,2.82S111.83,103.15,112.58,108Z"/></clipPath><clipPath id="clip-path-58"><rect class="cls-2" x="99.82" y="73.01" width="13" height="35"/></clipPath><clipPath id="clip-path-59"><rect class="cls-2" x="99.95" y="73.31" width="12.64" height="34.67"/></clipPath><clipPath id="clip-path-60"><rect class="cls-2" x="99.82" y="72.01" width="13" height="36"/></clipPath><clipPath id="clip-path-61"><path class="cls-1" d="M63,108H52.82c.75-4.82,5.29-28.48,7.57-31.8s5-2.82,5-2.82L66,94.72S63.74,104.31,63,108Z"/></clipPath><clipPath id="clip-path-62"><rect class="cls-2" x="51.82" y="73.01" width="15" height="35"/></clipPath><clipPath id="clip-path-63"><rect class="cls-2" x="52.81" y="73.31" width="13.15" height="34.67"/></clipPath><clipPath id="clip-path-64"><rect class="cls-2" x="52.82" y="72.01" width="14" height="36"/></clipPath><clipPath id="clip-path-65"><polygon class="cls-1" points="70.68 80.41 72.27 77.6 69.56 74.41 70.36 71.36 74.98 70.47 81.41 107.97 80.42 107.97 70.68 80.41"/></clipPath><clipPath id="clip-path-66"><rect class="cls-2" x="68.82" y="70.01" width="13" height="38"/></clipPath><clipPath id="clip-path-67"><rect class="cls-2" x="69.56" y="70.47" width="11.85" height="37.51"/></clipPath><clipPath id="clip-path-69"><polygon class="cls-1" points="84.46 107.97 83.47 107.97 89.91 70.47 94.43 71.36 95.32 74.41 92.61 77.6 94.2 80.41 84.46 107.97"/></clipPath><clipPath id="clip-path-70"><rect class="cls-2" x="82.82" y="70.01" width="13" height="38"/></clipPath><clipPath id="clip-path-71"><rect class="cls-2" x="83.47" y="70.47" width="11.85" height="37.51"/></clipPath><clipPath id="clip-path-73"><polygon class="cls-1" points="83.42 107.97 81.55 107.97 75.11 70.6 82.49 73.96 89.85 70.6 83.42 107.97"/></clipPath><clipPath id="clip-path-74"><rect class="cls-2" x="74.82" y="70.01" width="16" height="38"/></clipPath><clipPath id="clip-path-75"><rect class="cls-2" x="75.11" y="70.6" width="14.75" height="37.38"/></clipPath><clipPath id="clip-path-77"><polygon class="cls-1" points="79.57 77.3 76.02 75.81 75.11 70.6 82.61 73.99 79.57 77.3"/></clipPath><clipPath id="clip-path-78"><rect class="cls-2" x="74.82" y="70.01" width="8" height="8"/></clipPath><clipPath id="clip-path-79"><rect class="cls-2" x="75.11" y="70.6" width="7.51" height="6.71"/></clipPath><clipPath id="clip-path-81"><path class="cls-1" d="M82.35,74l8-3.45a11,11,0,0,0-.51,1.61c0,.33-.36,1.55-.9,3.66L85.38,77.3Z"/></clipPath><clipPath id="clip-path-82"><rect class="cls-2" x="81.82" y="70.01" width="9" height="8"/></clipPath><clipPath id="clip-path-83"><rect class="cls-2" x="82.34" y="70.53" width="8.02" height="6.77"/></clipPath><clipPath id="clip-path-85"><polygon class="cls-1" points="81.56 108.05 79.81 97.35 81.03 79.07 80.24 76.57 82.46 74 84.67 76.57 83.85 79.07 85.09 97.35 83.34 108.05 81.56 108.05"/></clipPath><clipPath id="clip-path-86"><rect class="cls-2" x="78.82" y="73.01" width="7" height="36"/></clipPath><clipPath id="clip-path-87"><rect class="cls-2" x="79.81" y="73.99" width="5.3" height="34.07"/></clipPath><clipPath id="clip-path-89"><path class="cls-1" d="M104.6,86a4.86,4.86,0,1,1-4.86-5A4.94,4.94,0,0,1,104.6,86Z"/></clipPath><clipPath id="clip-path-90"><rect class="cls-2" x="95.63" y="81.79" width="8.2" height="8.45"/></clipPath><clipPath id="clip-path-91"><rect class="cls-2" x="95.21" y="81.63" width="9.74" height="9.74"/></clipPath><clipPath id="clip-path-92"><path class="cls-1" d="M103.83,86a4.1,4.1,0,1,1-4.1-4.23A4.16,4.16,0,0,1,103.83,86Z"/></clipPath><clipPath id="clip-path-94"><path class="cls-1" d="M101.2,83.67c-.52-.29-1,.17-1.33.17s-.82-.46-1.34-.17-1.07.76-.19,2c0,0,.07,2.51.59,3,0,0,.27,0,.27-.63,0,0-.22-1.79.67-1.84s.66,1.84.66,1.84c0,.67.27.63.27.63.52-.51.59-3,.59-3C102.27,84.43,101.73,84,101.2,83.67Z"/></clipPath><clipPath id="clip-path-95"><path class="cls-1" d="M33.32,46.41A19.56,19.56,0,0,1,45.9,50.55c3,2.55,4.69,6.74,5.59,10.34v2.85a61.11,61.11,0,0,0-1.06,7.19c4.69-.3,6,3.9,2,6.44-1.66,1-3.42,0-3.77.54-2.21,3.15-3.47,4.23-5.05,5.13a19.64,19.64,0,0,1-8,2.13,20.88,20.88,0,0,0,0,3.81,23.09,23.09,0,0,1,2.57.73c-.66,1-.41,2-4.41,2.66H33a5.83,5.83,0,0,1-4.52-2.66A23.09,23.09,0,0,1,31,89a20.12,20.12,0,0,0,0-3.81,18.18,18.18,0,0,1-7.47-2.11A15.38,15.38,0,0,1,18,77.91c-.35-.5-2.11.51-3.77-.54-4.08-2.54-2.72-6.74,2-6.44a59.06,59.06,0,0,0-1-7.19V60.89c.9-3.6,2.56-7.79,5.59-10.34a19.21,19.21,0,0,1,10.71-4.09l1.87-.05"/></clipPath><clipPath id="clip-path-96"><path class="cls-1" d="M27.77,61.16c.52-.24,1.43-.69,1.3-1.13s-.71-.17-.95-.12a2.09,2.09,0,0,0-1.38.64c-.19.23-.47.7-.15.91s.58,0,.85-.14a3.52,3.52,0,0,1,.33-.16"/></clipPath><clipPath id="clip-path-97"><path class="cls-1" d="M28.45,69.66c.81-.15.68-1.28.47-1.81a1.26,1.26,0,0,0-.65-.76.73.73,0,0,0-.87.46c-.21.67,0,2.32,1.05,2.11"/></clipPath><clipPath id="clip-path-98"><path class="cls-1" d="M32.88,74.43l.12,0,.13,0h.19a2.57,2.57,0,0,0,1.08-.36,3,3,0,0,0,1.11-1.06c.12-.23.11-.42,0-.54s-.51-.38-.76-.6a5,5,0,0,1-.69-.77c-.1-.14-.2-.27-.28-.41l-.21-.44a3.71,3.71,0,0,1-.27-.88,5.84,5.84,0,0,1-.06-.81,5.62,5.62,0,0,1,.1-.67,2.16,2.16,0,0,1,.16-.49l.17-.42s0,.17-.07.44a2.28,2.28,0,0,0-.06.5c0,.19,0,.41,0,.64a7.3,7.3,0,0,0,.15.73,4.05,4.05,0,0,0,.31.76l.21.39.27.36a4.29,4.29,0,0,0,.61.67c.23.22.5.38.77.62a.65.65,0,0,1,.2.26.67.67,0,0,1,.08.33,1.15,1.15,0,0,1-.16.55,2.65,2.65,0,0,1-.67.7,3.36,3.36,0,0,1-.73.41,2.46,2.46,0,0,1-1.23.19.82.82,0,0,1-.33-.12l-.1-.06"/></clipPath><clipPath id="clip-path-99"><path class="cls-1" d="M38.29,61.16c-.53-.24-1.43-.69-1.3-1.13s.71-.17.94-.12a2.07,2.07,0,0,1,1.38.64c.19.23.48.7.15.91s-.57,0-.85-.14a2.28,2.28,0,0,0-.32-.16"/></clipPath><clipPath id="clip-path-100"><path class="cls-1" d="M37.61,69.66c-.81-.15-.69-1.28-.47-1.81a1.23,1.23,0,0,1,.65-.76.73.73,0,0,1,.87.46c.2.67,0,2.32-1,2.11"/></clipPath><clipPath id="clip-path-101"><path class="cls-1" d="M44.5,99.56a11.7,11.7,0,0,0-1.25-5.33A9.45,9.45,0,0,0,38.14,90C37,92,34.29,92.65,33.3,92.65A6.44,6.44,0,0,1,28.45,90a9.45,9.45,0,0,0-5.11,4.19,11.7,11.7,0,0,0-1.25,5.33,28.33,28.33,0,0,0,.13,4.29c0,.3,2.16.08,4.62.08,1.53,0,5.31,0,6.65,0h6.26c2.46,0,4.72.11,4.75-.19a27.54,27.54,0,0,0,0-4.18"/></clipPath><clipPath id="clip-path-102"><path class="cls-1" d="M28.49,78.92a10.18,10.18,0,0,0,4.46.94,10.53,10.53,0,0,0,4-.7c-2-2.81-6.23-2.21-8.49-.24"/></clipPath><clipPath id="clip-path-103"><path class="cls-1" d="M40.49,76.37a51.47,51.47,0,0,1-14,0,6.42,6.42,0,0,0,2.63,2.37,6.7,6.7,0,0,1,8.36.25,6,6,0,0,0,3.05-2.62"/></clipPath><clipPath id="clip-path-104"><path class="cls-1" d="M16.48,75.55c-.17-1.28-1.2-2.89-2.25-2.22-.3.18-.34.69-.36,1a2.45,2.45,0,0,0,1.36,2.54c1.05.31,1.36-.43,1.25-1.33"/></clipPath><clipPath id="clip-path-105"><path class="cls-1" d="M49.87,75.55c.16-1.28,1.2-2.89,2.25-2.22.3.18.34.69.35,1a2.43,2.43,0,0,1-1.35,2.54c-1,.31-1.37-.43-1.25-1.33"/></clipPath><clipPath id="clip-path-106"><path class="cls-1" d="M40.53,51.55c.4,3.22-4.25,5.71-6.25,7.57.66-1.74,1.33-3.35,1.86-5.09-2.13,3.35-6.23,4.33-10.49,5.44,1.6-1.42,2.17-3.78,3.16-5.6A26.63,26.63,0,0,1,24.35,59c-1.57,1.48-3.3,2.08-5.09,3.13a8.42,8.42,0,0,0-.12-2.61A12.74,12.74,0,0,1,18.66,63a45.74,45.74,0,0,0-1,4.81,25.73,25.73,0,0,1-.82,4.77c-1.55-3.17-3.29-6.59-3.56-10.17,0-.46-.29-3.69.15-3.86a2.53,2.53,0,0,0-1.1,1,5.66,5.66,0,0,1,.52-3,13,13,0,0,0-1,1c-.36-3.56,2.9-7.84,5.53-10a15.1,15.1,0,0,1,8.25-3.1c-2.4-.63-4.93,0-7.32,0,5.19-3,15.7-4.6,20.76-.38,0-1.49-.26-2.85.8-4.09-.13,1.61.53,3.22.8,4.84.53-1.74,2.13-4.1,4-4.47,0,1.45-1.1,2.43-1.51,3.72-.49,1.52.76,1.49,1.93,1.87a14.62,14.62,0,0,1,4.49,2.18c1.6,1.22,3.79,4.08,3.92,6.14a16.14,16.14,0,0,0-2.08-1.46c1.24.63,1.8,3.74,2,4.94a19.28,19.28,0,0,1,.15,5.52,27.27,27.27,0,0,1-1.43,5.55c-.37,1-.65,2.39-1.75,2.78-.12,0-1.92-8.15-2-8.76-.08-.86-.86-4.39-.36-5-1.2,1.42-.91,3-1.56,2.82-2-.7-2.83-6.67-3.37-8.28-.26,1.24-.4,2.6-.53,3.84a2.44,2.44,0,0,1-.53-.74l-1.47-4"/></clipPath><clipPath id="clip-path-107"><path class="cls-1" d="M39.13,90a9.93,9.93,0,0,1-5.52,1.54A9.93,9.93,0,0,1,28.12,90c-.79.37-6.68,13.88-3.46,13.32l19.5-.06c1.57,0-4.25-12.9-5-13.27"/></clipPath><clipPath id="clip-path-108"><rect class="cls-2" x="28.82" y="89.01" width="9" height="15"/></clipPath><clipPath id="clip-path-109"><polyline class="cls-1" points="37.44 103.31 29.51 103.3 29.56 89.6 37.45 89.48 37.44 103.31"/></clipPath><clipPath id="clip-path-110"><rect class="cls-2" x="20.82" y="89.01" width="25" height="15"/></clipPath><clipPath id="clip-path-111"><path class="cls-1" d="M33.24,93a12.32,12.32,0,0,1-4.16-.65l.18-.47a11.75,11.75,0,0,0,4,.62,14.1,14.1,0,0,0,4.13-.66l.19.47a14.12,14.12,0,0,1-4.32.69"/></clipPath><clipPath id="clip-path-112"><path class="cls-1" d="M38.15,97a.58.58,0,0,1,.58-.59.59.59,0,1,1,0,1.17.58.58,0,0,1-.58-.58"/></clipPath><clipPath id="clip-path-113"><path class="cls-1" d="M27.91,96.59c0-.08.26-.15.58-.15s.59.07.59.15-.26.15-.59.15-.58-.07-.58-.15"/></clipPath><clipPath id="clip-path-114"><path class="cls-1" d="M38.15,102a.58.58,0,0,1,.58-.58.58.58,0,1,1,0,1.16.58.58,0,0,1-.58-.58"/></clipPath><clipPath id="clip-path-115"><path class="cls-1" d="M27.91,102.12c0-.08.26-.15.58-.15s.59.07.59.15-.26.15-.59.15-.58-.07-.58-.15"/></clipPath><clipPath id="clip-path-116"><path class="cls-1" d="M31.42,86.85a7.06,7.06,0,0,0-3.28,1A41.73,41.73,0,0,0,26.45,93c-.11,1.41,1.75-2,2.1-2.75.46,2,.57,4.16,1,6.17a33.9,33.9,0,0,1,.24-5.74,2.49,2.49,0,0,1,1.53-1.27l.11-2.58"/></clipPath><clipPath id="clip-path-117"><path class="cls-1" d="M35.51,86.85a7.31,7.31,0,0,1,3.32,1,41.92,41.92,0,0,1,1.65,5.23c.1,1.42-1.56-2-1.91-2.76-.44,2-1,4.14-1.36,6.15a42.3,42.3,0,0,0-.14-5.8,2.32,2.32,0,0,0-1.46-1.2l-.1-2.59"/></clipPath><clipPath id="clip-path-118"><path class="cls-1" d="M125.35,90.07s8.78-.23,9.44,0-.51,1-.51,1-5.95,1.34-7.77.16l-1.16-1.18"/></clipPath><clipPath id="clip-path-119"><path class="cls-1" d="M130.06,96.07c.64-.86,1-2.61,1.8-3.53s2.25-.58,3.18-1.1a9.37,9.37,0,0,1,5.12,4.08,11.13,11.13,0,0,1,1.26,5.21l-4.77.89V105h-6.29c-1.34,0-5.13,0-6.67,0v-3.48l-4.77-.79a11.25,11.25,0,0,1,1.26-5.21,9.4,9.4,0,0,1,5.13-4.08c.55.37,2-.06,2.77,1.1s1.72,3.36,2,3.53"/></clipPath><clipPath id="clip-path-120"><path class="cls-1" d="M130.47,46.91A19.29,19.29,0,0,1,143,51.13c3,2.59,4.67,6.87,5.58,10.53v2.91a61.34,61.34,0,0,0-1.06,7.33c4.68-.31,6,4,2,6.56a3.8,3.8,0,0,1-2.68.45c-.53-.06-.93-.12-1.08.1-2.21,3.21-3.47,4.31-5,5.23a19.39,19.39,0,0,1-8,2.17,20.87,20.87,0,0,0,0,3.88,22.93,22.93,0,0,1,2.57.74c-3.29-.54-5,4.83-5,4.83-2.6-6.13-3.32-4.21-4.73-4.83a22.93,22.93,0,0,1,2.57-.74,20.87,20.87,0,0,0,0-3.88,18,18,0,0,1-7.46-2.15A15.43,15.43,0,0,1,115.17,79c-.15-.22-.54-.16-1.08-.1a3.8,3.8,0,0,1-2.68-.45c-4.08-2.59-2.72-6.87,2-6.56a61.34,61.34,0,0,0-1.06-7.33V61.66c.91-3.66,2.57-7.94,5.59-10.53A18.89,18.89,0,0,1,128.6,47l1.87-.05"/></clipPath><clipPath id="clip-path-121"><path class="cls-1" d="M124.87,61.37c.4-.13,1.77-.51,1.64-1.1s-1.13-.4-1.5-.33A2.89,2.89,0,0,0,123.39,61c-.36.76.47.77,1.12.51l.36-.13"/></clipPath><clipPath id="clip-path-122"><path class="cls-1" d="M135.76,61.37c-.39-.13-1.76-.51-1.63-1.1s1.13-.4,1.5-.33A2.89,2.89,0,0,1,137.25,61c.35.76-.47.77-1.12.51l-.37-.13"/></clipPath><clipPath id="clip-path-123"><path class="cls-1" d="M125.41,70.19c.67-.16.57-1.3.39-1.84a1.23,1.23,0,0,0-.54-.77.59.59,0,0,0-.72.46c-.17.68,0,2.36.87,2.15"/></clipPath><clipPath id="clip-path-124"><path class="cls-1" d="M127.69,74.84l.12.08a2.9,2.9,0,0,0,.35.21,3.38,3.38,0,0,0,.58.22,4.43,4.43,0,0,0,.79.11,3.28,3.28,0,0,0,.92-.08,2.51,2.51,0,0,0,.9-.4,1.68,1.68,0,0,0,.62-.77,1.91,1.91,0,0,0,.11-1,2.25,2.25,0,0,0-.12-.51,3.49,3.49,0,0,0-.23-.48c-.19-.29-.43-.6-.65-.9a9.52,9.52,0,0,1-.61-.9,5.4,5.4,0,0,1-.41-.89,4,4,0,0,1-.18-.81c0-.24,0-.45,0-.62,0-.35.06-.54.06-.54s0,.2,0,.53c0,.17.07.37.11.6a2.91,2.91,0,0,0,.12.35,2.3,2.3,0,0,0,.15.38,6.07,6.07,0,0,0,.47.79c.19.27.41.54.64.83a10.54,10.54,0,0,1,.72.92,5.07,5.07,0,0,1,.29.57,2.23,2.23,0,0,1,.15.62,2.53,2.53,0,0,1-.16,1.27,2.16,2.16,0,0,1-.83,1,2.81,2.81,0,0,1-1.11.4,3.55,3.55,0,0,1-1,0,3.41,3.41,0,0,1-.83-.24,3.62,3.62,0,0,1-.57-.32,1.88,1.88,0,0,1-.31-.26l-.1-.11"/></clipPath><clipPath id="clip-path-125"><path class="cls-1" d="M119,100.58a25.56,25.56,0,0,0,.14,4.27c0,.3,2.23.08,4.79.08v-3.54l-4.93-.81"/></clipPath><clipPath id="clip-path-126"><path class="cls-1" d="M134.16,70.19c-.8-.16-.68-1.3-.46-1.84a1.23,1.23,0,0,1,.64-.77.72.72,0,0,1,.87.46c.21.68,0,2.36-1.05,2.15"/></clipPath><clipPath id="clip-path-127"><path class="cls-1" d="M141.35,100.58a29.47,29.47,0,0,1,0,4.22c0,.3-2.22.19-4.6.19V101.5l4.6-.92"/></clipPath><clipPath id="clip-path-128"><path class="cls-1" d="M122.72,76.69a3.55,3.55,0,0,0,.45.49,5.39,5.39,0,0,0,.58.5l.39.27c.13.09.28.18.44.27a7.47,7.47,0,0,0,1.06.5,8.86,8.86,0,0,0,1.26.39c.22.06.45.1.68.14s.47.08.71.1a14.11,14.11,0,0,0,1.45.09c.5,0,1,0,1.48-.08.24,0,.47,0,.71-.09a5.12,5.12,0,0,0,.68-.14,8.08,8.08,0,0,0,2.32-.88c.16-.09.31-.18.44-.27a2.88,2.88,0,0,0,.38-.28,4.31,4.31,0,0,0,.57-.5,3.2,3.2,0,0,0,.43-.51,2.65,2.65,0,0,1-.35.57,4.8,4.8,0,0,1-.51.58,4.9,4.9,0,0,1-.79.65,7.94,7.94,0,0,1-2.36,1.07c-.23.07-.47.12-.72.17a6,6,0,0,1-.74.11c-.52.07-1,.08-1.52.1a13,13,0,0,1-1.54-.11,6,6,0,0,1-.74-.12c-.24,0-.48-.1-.71-.17a7.52,7.52,0,0,1-1.29-.49,6.36,6.36,0,0,1-1.07-.6,5.45,5.45,0,0,1-.79-.63c-.22-.21-.39-.41-.53-.57a3.05,3.05,0,0,1-.37-.56"/></clipPath><clipPath id="clip-path-129"><path class="cls-1" d="M112.25,77.28a1.53,1.53,0,0,1-.44-.07,2.49,2.49,0,0,1-1.36-2.57c0-.33.06-.84.36-1a.92.92,0,0,1,.5-.16c.86,0,1.61,1.32,1.75,2.41.09.77-.12,1.42-.81,1.42"/></clipPath><clipPath id="clip-path-130"><path class="cls-1" d="M147.8,77.28c-.69,0-.9-.65-.8-1.42.13-1.09.89-2.41,1.74-2.41a.93.93,0,0,1,.51.16c.29.19.33.7.35,1a2.49,2.49,0,0,1-1.36,2.57,1.48,1.48,0,0,1-.44.07"/></clipPath><clipPath id="clip-path-131"><path class="cls-1" d="M129.73,96.16,128,91.67s-1.44-.61-3-1.41l-2.36,1.91,3.41,2.6,1.74-2,1.86,3.39"/></clipPath><clipPath id="clip-path-132"><path class="cls-1" d="M130.32,96.16,132,91.67s1.45-.61,3-1.41l2.36,1.91-3.41,2.6-1.74-2-1.86,3.39"/></clipPath><clipPath id="clip-path-133"><polyline class="cls-1" points="123.82 100.88 118.92 100.07 119 99.7 123.89 100.51 123.82 100.88"/></clipPath><clipPath id="clip-path-134"><polyline class="cls-1" points="136.81 100.88 136.75 100.51 141.36 99.7 141.42 100.07 136.81 100.88"/></clipPath><clipPath id="clip-path-135"><path class="cls-1" d="M149.67,62c2.91-1.47,2.81-4.33-.9-5.26,2.51-1.14,3.41-3.66-.1-4.53,2.1-.93,2.51-4.86-1-4.53,1.41-3.53-3.41-3.39-5.82-3.06-.33-3.33-3.36-2.87-5.61-1.53.27-2.35-4.69-2.69-6.22-1.09-1.45-1.6-5.9-1.25-5.62,1.09-2.25-1.34-5.28-1.8-5.61,1.53-2.41-.33-7.23-.47-5.82,3.06-3.51-.33-3.11,3.6-1,4.53-3.49.86-2.62,3.37-.14,4.51v0c-3.66.95-3.75,3.79-.85,5.25-2.81.73-5,4.46-.8,5-.91.8-1.21,1.66-.41,2.6a3.9,3.9,0,0,0,2.46,1.08s1.13,1.87,1.22,1.52a11.79,11.79,0,0,0,.32-6.12c1.14-.07,1.92-1.52,2.22-2.48.53-1.47-.08-2.55-1-3.71,2.53.92,4.91-2.72,3.3-4.81,1.53,1.63,5.37-.69,4.83-2.79.77,2.87,6.83.24,7.9-1.31-.3,2.4,4.45,2.4,5.72,1-.71,1.11,2.76,2.51,4.48,2.19-1.47,1.61,1.7,4,3.3,4.33-2.45.62-1.46,6.59,1.54,5.66-1.69.61-1.31,6.5-.16,7.9s1.21,0,1.48-1.11a.94.94,0,0,0,.2-.08c1.3-.33,2.4-.26,3.3-1.26s.51-1.8-.4-2.6c4.22-.53,2-4.26-.8-5"/></clipPath><clipPath id="clip-path-136"><path class="cls-1" d="M65.8,181.46c-19.09-.66-27.47-5.31-46.39-6.78-1.84-.14-6.13-.48-8.9-4.17a11.63,11.63,0,0,1-2.06-7v-.14c0-7.6-.23-15.38-.45-22.9-.17-5.78-.34-11.75-.42-17.65,0-4.54.37-10.25,4.2-14.12,3.66-3.71,8.58-4,12.89-4,1,0,2.11,0,3.27,0s2.38,0,3.68,0l111.47.27c1.72,0,6.27,0,9.28,3.65a11.45,11.45,0,0,1,2.35,7.4l.66,33.08c.12,6,.26,12.88-1.94,19.56-.48,1.46-1.94,5.91-6.21,8.26a15,15,0,0,1-7.31,1.57c-5.84.08-15.88-.38-21.72-.38,0,0-37.1,3.81-52.4,3.28"/></clipPath><clipPath id="clip-path-137"><path class="cls-1" d="M65.8,179c-10.49-.43-20.48-2.72-30.74-4.66-5.2-1-10.4-1.5-15.65-2.13s-8.28-3.22-8.49-8.71c-.47-11.93-.55-23.92-.79-35.85-.1-5.14-.8-11.31,2.24-15.81,3.27-4.82,9.23-4.76,14.43-4.68,17.45.26,34.9.15,52.35.19l62,.15c3.64,0,7.63,0,9.87,3.47,2.06,3.24,1.34,9.08,1.41,12.75.22,10.92.91,22,.52,32.88-.19,5.05-.69,11.23-3.82,15.48-3.64,5-10.28,4.07-15.7,4-6.5-.14-12.93-.54-19.4.09-15.94,1.52-32.17,3.35-48.2,2.87-3.18-.1-3.18,4.84,0,4.93,15.74.47,31.66-1.3,47.31-2.79a147.27,147.27,0,0,1,17.83-.23c9.15.23,19.17,1,23.76-8.67,3.51-7.37,3.29-16,3.13-24q-.17-8.64-.34-17.27c-.1-4.91-.12-9.84-.3-14.75-.3-8.12-5.37-13.39-13.56-13.68-19.4-.68-38.93-.1-58.33-.14-20.21-.06-40.42-.3-60.63-.23-10,0-17.81,4.51-19.24,15-.86,6.31-.19,12.93,0,19.27.18,6.67.4,13.33.5,20,.07,4.45-.55,9.43,1.46,13.56a12.84,12.84,0,0,0,9.78,6.85c5.5.9,11.09,1.16,16.59,2.2,5,1,10,2.14,15.09,3a128.71,128.71,0,0,0,17,1.81c3.18.13,3.17-4.8,0-4.93"/></clipPath><clipPath id="clip-path-138"><path class="cls-1" d="M21,121.05c.19,0,.79,0,1.79,0s1.89,0,2.66,0,1.23-.17,1.38-.38a2.75,2.75,0,0,0,.44-1.56,6.87,6.87,0,0,0-.21-1.72c-.13-.54-.26-1.08-.37-1.61a2.6,2.6,0,0,1,0-1.42,1.61,1.61,0,0,1,.94-.94,4.42,4.42,0,0,1,1.4-.35,1.86,1.86,0,0,1,1.14.3,6.62,6.62,0,0,1,.92.74,3.34,3.34,0,0,1,.75,1.19c.22.52.41,1,.57,1.42a12.72,12.72,0,0,1,.44,1.7c.13.71.24,1.31.33,1.78s.16,1.11.23,1.9.13,1.37.17,1.78.09,1,.13,1.67c.08,1,.14,1.69.19,2.07a3.38,3.38,0,0,0,.06.53c.1,1.1.18,1.94.22,2.5s.07,1.3.09,2.2a6.86,6.86,0,0,1-.19,2.08,8.85,8.85,0,0,1-.62,1.52,2.54,2.54,0,0,1-1.21,1.17,5.12,5.12,0,0,1-1.92.44,1.7,1.7,0,0,1-1.16-.28,2.25,2.25,0,0,1-.79-1c-.18-.42-.32-.79-.42-1.09a7.45,7.45,0,0,1-.23-1.08,9.27,9.27,0,0,1,.45-2.42,16.37,16.37,0,0,0,.58-3.15,1.58,1.58,0,0,0-.74-1.51,3.76,3.76,0,0,0-2-.61,13.88,13.88,0,0,0-2.41.08,7,7,0,0,0-2.08.53c-.59.26-.89.51-.91.76a13.32,13.32,0,0,0,0,3c.13,1.08.27,2,.44,2.75a18.8,18.8,0,0,1,.36,2.19,2.8,2.8,0,0,1-.25,1.68,1.93,1.93,0,0,1-1.33.84,6.79,6.79,0,0,1-2.95.13,1.7,1.7,0,0,1-1.26-1.22,8,8,0,0,1-.22-2.46c0-1,.09-2.21.18-3.61a33.71,33.71,0,0,0,0-4.69q0-.2,0-.66-1-12.66,1.41-13.88a3.9,3.9,0,0,1,1.72-.55,1.5,1.5,0,0,1,1.14.41,3.15,3.15,0,0,1,.69,1.14,5.75,5.75,0,0,1,.33,1.67c0,.64.08,1.31.11,2s0,1.44,0,2.19v1.78Z"/></clipPath><clipPath id="clip-path-139"><path class="cls-1" d="M39.07,137.69a2.35,2.35,0,0,1-.76-.54,2.11,2.11,0,0,1-.43-.75,4.35,4.35,0,0,1-.22-.76c0-.22-.09-.53-.13-.93l-.09-.9a38,38,0,0,1-.31-7.51,38.52,38.52,0,0,1,.78-7.5,5.9,5.9,0,0,1,1.74-3.3A8.1,8.1,0,0,1,43.51,114a13.15,13.15,0,0,1,4.32-.09,16.64,16.64,0,0,1,2.45.56,15.75,15.75,0,0,1,2.39,1,8.52,8.52,0,0,1,2,1.35,4.16,4.16,0,0,1,1.13,1.7,2.79,2.79,0,0,1-.14,2,1.67,1.67,0,0,1-1.05,1.06,2.64,2.64,0,0,1-1.61-.07,14.64,14.64,0,0,1-2-.83q-1-.54-2.22-1.08a19.09,19.09,0,0,0-2.29-.91,5.53,5.53,0,0,0-2.24-.25,3.6,3.6,0,0,0-2,.83,2.45,2.45,0,0,0-.6,1.33,11.3,11.3,0,0,0-.24,1.86l0,.84a1.47,1.47,0,0,0,1,.57,9.24,9.24,0,0,0,1.61.21c.53,0,1.14,0,1.85,0h1.19c.4,0,.88,0,1.46,0s1,0,1.23,0,.61.07,1.07.14a11,11,0,0,1,1.53.36,1.46,1.46,0,0,1,1,1.05,3.46,3.46,0,0,1,.2,1.58,1.85,1.85,0,0,1-1.28,1.48,6.47,6.47,0,0,1-2.69.45c-1,0-2.09-.06-3.18-.14s-2-.16-2.73-.26a2.3,2.3,0,0,0-1.36,0,3.42,3.42,0,0,0-.42,1.37,7.5,7.5,0,0,0-.08,2.21q.12,1.08.72,1.08l7.39.19c1.32,0,2.17-.05,2.55,0a2.25,2.25,0,0,1,.93.24,3.68,3.68,0,0,1,1.44,1.32,1.45,1.45,0,0,1,.11,1.3,3.39,3.39,0,0,1-.74,1,4.42,4.42,0,0,1-1.1.77,11.38,11.38,0,0,1-4.69,1,22.93,22.93,0,0,1-5.34-.44,15.57,15.57,0,0,1-4-1.29"/></clipPath><clipPath id="clip-path-140"><path class="cls-1" d="M75.72,127.9a31.6,31.6,0,0,1,.34,4.91,3.09,3.09,0,0,1-1,2.19,3.87,3.87,0,0,1-2.81.52c-.43,0-.81-.4-1.11-1.09a9.5,9.5,0,0,1-.64-2.32q-.19-1.28-.45-2.67a6.86,6.86,0,0,0-.58-2c-.15-.28-.58-.45-1.29-.52a8.91,8.91,0,0,0-2.88.19c-1,.22-1.53.56-1.6,1s0,1.25,0,2.05,0,1.56,0,2.3a5.23,5.23,0,0,1-.39,2,1.7,1.7,0,0,1-1.13,1.07,5.62,5.62,0,0,1-.78.11,2.85,2.85,0,0,1-1.12-.15,1.6,1.6,0,0,1-.8-.69,6.84,6.84,0,0,1-.5-1,6.59,6.59,0,0,1-.31-1.42c-.08-.65-.14-1.19-.17-1.61s-.08-1.07-.14-2c0-.73-.08-1.28-.1-1.64a49.43,49.43,0,0,1,.82-8.81,7.12,7.12,0,0,1,.83-2.48,5.88,5.88,0,0,1,1.33-1.68,6.49,6.49,0,0,1,1.64-1,9.1,9.1,0,0,1,1.58-.49,9.88,9.88,0,0,1,1.32-.15,10.09,10.09,0,0,1,3,.31,6.89,6.89,0,0,1,3.85,2.46,10,10,0,0,1,1.13,1.66c.26.5.51,1.06.77,1.69a9.35,9.35,0,0,1,.45,1.6c.11.62.2,1.2.25,1.76s.13,1.4.23,2.54S75.59,126.91,75.72,127.9Zm-11.46-4.42a1,1,0,0,0,.67.54,3,3,0,0,0,1.08.16h1.13a7.4,7.4,0,0,0,1.92-.39c.56-.2.82-.44.8-.71a3.52,3.52,0,0,1,0-.49,2.16,2.16,0,0,0-.16-.92,3.8,3.8,0,0,0-.67-1.2A3.36,3.36,0,0,0,67,119a2,2,0,0,0-1.89.88,4.61,4.61,0,0,0-1,2.06,3,3,0,0,0,0,.86,3.49,3.49,0,0,0,.11.51Z"/></clipPath><clipPath id="clip-path-141"><path class="cls-1" d="M84.77,112.45a3,3,0,0,1,.38,1.35,6.12,6.12,0,0,1-.06,1.5c-.09.45-.19,1-.3,1.61s-.19,1.06-.24,1.36c-.06.7-.24,2.16-.54,4.37s-.49,3.59-.55,4.13c0,.06,0,.32-.1.77s-.09.75-.11.92,0,.48-.06.92a5.75,5.75,0,0,0,0,1c0,.25.07.55.11.93a2.66,2.66,0,0,0,.25.91c.13.22.28.46.46.71a1.94,1.94,0,0,0,.67.6,4,4,0,0,0,.94.34,3.7,3.7,0,0,0,1.52-.08c.61-.13,1-.21,1.2-.23h.19a4.63,4.63,0,0,1,1.61-.06,15.21,15.21,0,0,1,1.85.29,2.06,2.06,0,0,1,1.38,1.11,3.59,3.59,0,0,1,.2,2.38q-.37,1.84-5.6,1.53a12.86,12.86,0,0,0-1.75.07l-2,.18a12.43,12.43,0,0,1-1.86.07,4.74,4.74,0,0,1-1.65-.32,2.28,2.28,0,0,1-.78-.58,2,2,0,0,1-.45-.89c-.1-.35-.16-.65-.21-.89a9.15,9.15,0,0,1-.09-1,1,1,0,0,1,0-.22,53.13,53.13,0,0,1-.25-7.23c0-.41.12-1.87.25-4.37s.25-4.2.38-5.07c0-.27.06-.73.14-1.38s.13-1.15.17-1.53a8.06,8.06,0,0,1,.28-1.34,7.86,7.86,0,0,1,.5-1.38,2.71,2.71,0,0,1,2-1.42,2,2,0,0,1,2.11.79Z"/></clipPath><clipPath id="clip-path-142"><path class="cls-1" d="M109.76,113.7l0,.06c.69,1.44.53,2.56-.47,3.35a4,4,0,0,1-1.55.8,16,16,0,0,1-2,.36,10,10,0,0,0-1.88.34.93.93,0,0,0-.64.73,4.93,4.93,0,0,0,0,1.57c.07.66.11,1,.11,1.11-.08,2.44-.13,3.79-.13,4.06s0,1.64.1,4.1q0,.31,0,1.08c0,.51,0,.93,0,1.25v1.28a9.5,9.5,0,0,1-.08,1.32c0,.34-.12.73-.2,1.15a3,3,0,0,1-.36,1,4.44,4.44,0,0,1-.55.74,1.47,1.47,0,0,1-.78.45,2.42,2.42,0,0,1-1.07,0,2.23,2.23,0,0,1-1.28-.6,2.17,2.17,0,0,1-.6-1.23,8.09,8.09,0,0,1-.11-1.42c0-.44,0-1,.1-1.65s.08-1.14.08-1.45,0-.45,0-.78c0-1.94,0-3.69.12-5.26q0-.93.06-1.59c.13-2.48,0-4.11-.46-4.88-.07-.17-.26-.24-.6-.22a5,5,0,0,0-1,.17l-1.1.3a3.59,3.59,0,0,1-.87.16,2,2,0,0,1-1.68-.85,3.29,3.29,0,0,1-.62-1.9,3.75,3.75,0,0,1,.57-2,2.59,2.59,0,0,1,1.7-1.24c.77-.19,2.44-.5,5-.94s4.24-.67,5-.72l.15,0c.53,0,1.1,0,1.72,0a4.74,4.74,0,0,1,1.93.31,2.16,2.16,0,0,1,1.33,1.14"/></clipPath><clipPath id="clip-path-143"><path class="cls-1" d="M117.33,121.05c.19,0,.78,0,1.78,0s1.89,0,2.67,0,1.23-.17,1.38-.38a2.82,2.82,0,0,0,.43-1.56,7.37,7.37,0,0,0-.2-1.72c-.14-.54-.26-1.08-.38-1.61a2.59,2.59,0,0,1,0-1.42,1.61,1.61,0,0,1,.94-.94,4.36,4.36,0,0,1,1.39-.35,1.85,1.85,0,0,1,1.14.3,6.17,6.17,0,0,1,.93.74,3.48,3.48,0,0,1,.75,1.19c.22.52.41,1,.56,1.42a10.25,10.25,0,0,1,.44,1.7c.14.71.25,1.31.33,1.78s.16,1.11.24,1.9.13,1.37.17,1.78.08,1,.12,1.67c.09,1,.15,1.69.19,2.07a3.38,3.38,0,0,0,.06.53c.11,1.1.18,1.94.22,2.5s.08,1.3.1,2.2a7.2,7.2,0,0,1-.19,2.08,10.82,10.82,0,0,1-.62,1.52,2.59,2.59,0,0,1-1.21,1.17,5.18,5.18,0,0,1-1.93.44,1.71,1.71,0,0,1-1.16-.28,2.31,2.31,0,0,1-.78-1,9,9,0,0,1-.42-1.09,6.25,6.25,0,0,1-.24-1.08,9.49,9.49,0,0,1,.46-2.42,17.19,17.19,0,0,0,.58-3.15,1.6,1.6,0,0,0-.74-1.51,3.76,3.76,0,0,0-2-.61A14,14,0,0,0,120,127a7.11,7.11,0,0,0-2.08.53c-.58.26-.89.51-.9.76a12.77,12.77,0,0,0,0,3,25.71,25.71,0,0,0,.44,2.75c.16.77.28,1.49.36,2.19a2.72,2.72,0,0,1-.26,1.68,1.91,1.91,0,0,1-1.33.84,6.74,6.74,0,0,1-2.94.13,1.71,1.71,0,0,1-1.27-1.22,8.66,8.66,0,0,1-.22-2.46c0-1,.1-2.21.19-3.61a32.33,32.33,0,0,0,0-4.69q0-.2,0-.66-1-12.66,1.41-13.88a3.94,3.94,0,0,1,1.72-.55,1.53,1.53,0,0,1,1.15.41,3.15,3.15,0,0,1,.69,1.14,6.12,6.12,0,0,1,.32,1.67c0,.64.08,1.31.11,2s0,1.44,0,2.19v1.78Z"/></clipPath><clipPath id="clip-path-144"><path class="cls-1" d="M145.67,136.47a9.22,9.22,0,0,1-1.87,2.78,5,5,0,0,1-2.39,1.39,4.68,4.68,0,0,1-2.59-.14,6,6,0,0,1-2.56-1.92,12.88,12.88,0,0,1-2.18-3.87.93.93,0,0,1,0-.81,1.7,1.7,0,0,1,.64-.72,3.32,3.32,0,0,1,.92-.42,1.51,1.51,0,0,1,.94,0,1.19,1.19,0,0,1,.67.67,4.58,4.58,0,0,0,2.13,2.54c1,.41,1.79-.17,2.29-1.75a20.24,20.24,0,0,0,.44-6.7,1.73,1.73,0,0,1-.27.3,3.82,3.82,0,0,1-.77.52,3.59,3.59,0,0,1-1.26.45,4.28,4.28,0,0,1-1.73-.17,6.74,6.74,0,0,1-2.17-1.1,7,7,0,0,1-1.19-1.12,5.74,5.74,0,0,1-.88-1.39c-.23-.51-.42-1-.58-1.47a8.71,8.71,0,0,1-.34-1.72c-.07-.68-.13-1.26-.16-1.72s0-1.1,0-1.88.06-1.39.08-1.83.06-1.07.12-1.91a2.12,2.12,0,0,0,0-.37,1.39,1.39,0,0,1,.86-1.18,2.78,2.78,0,0,1,1.77-.2,2.39,2.39,0,0,1,1.5.91,3.52,3.52,0,0,1,.44,1.86c0,.91,0,1.85,0,2.83s0,1.93,0,2.86a4.32,4.32,0,0,0,.56,2.16,1.3,1.3,0,0,0,1.54.51,1.37,1.37,0,0,0,.76-.65A4.18,4.18,0,0,0,141,122a13.42,13.42,0,0,0,.3-1.67c.08-.65.14-1.21.16-1.7s0-1,.06-1.6,0-.94.06-1.11a4.08,4.08,0,0,1,.91-2.5,2.7,2.7,0,0,1,2.57-.53c.77.14,1.32,1.35,1.64,3.61a41.21,41.21,0,0,1,.33,7.55c-.1,2.77-.29,5.39-.55,7.85a20,20,0,0,1-.79,4.57"/></clipPath><clipPath id="clip-path-145"><path class="cls-1" d="M69.77,147a.77.77,0,1,0-.06,1.54.77.77,0,0,0,.06-1.54m.09.94a.3.3,0,1,1,.31-.28.29.29,0,0,1-.31.28"/></clipPath><clipPath id="clip-path-146"><path class="cls-1" d="M64.34,171.64c.1.79.23,1.54-.74,1.54-.51,0-1-.52-1.09-1.31s.23-1.48.74-1.54,1,.52,1.09,1.31"/></clipPath><clipPath id="clip-path-147"><path class="cls-1" d="M65.77,169.31c-.08.46-.13.91-.6.76-.25-.08-.41-.45-.33-.92s.35-.8.61-.76.4.46.32.92"/></clipPath><clipPath id="clip-path-148"><path class="cls-1" d="M72,172c.11.13.23.25,0,.4a.29.29,0,0,1-.39-.07A.25.25,0,1,1,72,172"/></clipPath><clipPath id="clip-path-149"><path class="cls-1" d="M73.79,171.57c0,.26.07.5-.32.5a.43.43,0,0,1-.41-.43.42.42,0,0,1,.32-.5.42.42,0,0,1,.41.43"/></clipPath><clipPath id="clip-path-150"><path class="cls-1" d="M75.18,172.76c0,.41.09.8-.52.8a.7.7,0,0,1-.66-.69.68.68,0,0,1,.52-.8.69.69,0,0,1,.66.69"/></clipPath><clipPath id="clip-path-151"><path class="cls-1" d="M77.61,150.53a.76.76,0,0,0,.8-.73.77.77,0,0,0-.74-.81h0a7.8,7.8,0,0,0-15.57-.71.77.77,0,0,0-.07,1.54L61.25,164,61,167.17s-.28,2,1.25,2.09,2-.94,2-2.4,1.33-1.22,1.61-.44a7,7,0,0,1,0,3.89,1.53,1.53,0,0,0,1.37,2.09c.77,0,2.22.29,2.12-3.28s-.25-4.54.32-4.45.15,4,.15,4-.21,1.84,1.51,1.91,1.87-2,1.62-3.62.94-1.11.65-.17.32,2.95,1.48,2.62,1.62-.36,1.69-5h0l.76-13.89h0m-6.93-6.61a3.07,3.07,0,1,1-3.21,2.94,3.07,3.07,0,0,1,3.21-2.94m-4,6.13a5.11,5.11,0,0,0,2.86,1.84,4.85,4.85,0,0,0,4.17-1.44,1.71,1.71,0,0,1,2-.3,4.19,4.19,0,0,0-.18,1.28c0,.13,0,.25,0,.37l-.91-.25-.43.93-1.4-.23-1,1.26-1-.79-.11.2c-.2.38-.43.8-.55,1a5.53,5.53,0,0,1-.55-.59l-.1-.12-1.69.83v-2l-.93.72-.29-.92-1.37.82.46-1.63-.94.17.27-.86-.47-.1a3,3,0,0,0,.23-.84,2,2,0,0,1,1.92.59M64,152.66a2,2,0,0,1-.49-1.08,2.31,2.31,0,0,0,.92-.92l.16,0-.33,1.06,1-.17-.54,1.92c-.22-.27-.43-.55-.68-.84m11.72.71c-2.47,2.15-3.77,2.44-6.22,2.31l-.47-.06c-2.76-.54-3.62-1.26-4.32-2.09l1.73-1.05.31,1,.75-.57v1.79l2-1c.58.68.74.68.81.68a.28.28,0,0,0,.17-.09c.07-.1.38-.66.55-1l.91.73L73,152.67l1.47.23.42-.9.75.21a2.23,2.23,0,0,0,.32.88,2.47,2.47,0,0,1-.28.28"/></clipPath><clipPath id="clip-path-152"><path class="cls-1" d="M30.8,147.38a12.25,12.25,0,0,0-4-.73,9.86,9.86,0,0,0-4.14.76,3.51,3.51,0,0,0-2.25,2.35,3.4,3.4,0,0,0,.15,2.16,3.9,3.9,0,0,0,1.38,1.63,13.14,13.14,0,0,0,2.25,1.24c.86.38,1.79.75,2.79,1.09s2,.7,3,1.06a21,21,0,0,1,2.81,1.26,11.94,11.94,0,0,1,2.3,1.59,5.43,5.43,0,0,1,1.45,2.15,5.65,5.65,0,0,1-2.1,6.5,11.16,11.16,0,0,1-4.74,2.14,21.74,21.74,0,0,1-5.36.44,8,8,0,0,1-4.5-1.48A4.2,4.2,0,0,1,17.93,166a2.36,2.36,0,0,1,.32-1.34,1.44,1.44,0,0,1,.85-.78,1.7,1.7,0,0,1,1.11,0,7.2,7.2,0,0,1,1.55.82,11.11,11.11,0,0,0,1,.62q2.93,1.65,5.24.54a2.9,2.9,0,0,0,1.64-1.71,2.36,2.36,0,0,0-.63-2.22,6.38,6.38,0,0,0-2-1.54,11.68,11.68,0,0,0-2.39-.94c-.76-.2-1.6-.48-2.52-.82a10.67,10.67,0,0,1-2.25-1.13,19.93,19.93,0,0,1-4.07-3.84,7.59,7.59,0,0,1-1.09-8.09,6.17,6.17,0,0,1,2.12-2.52,11.94,11.94,0,0,1,3.09-1.47,14.46,14.46,0,0,1,3.65-.66,26.56,26.56,0,0,1,3.69,0,19.59,19.59,0,0,1,3.33.56,11.35,11.35,0,0,1,4,1.92,8.12,8.12,0,0,1,2.57,3.34,6.24,6.24,0,0,1,.47,2,2.2,2.2,0,0,1-.59,1.62,2.6,2.6,0,0,1-1.93.71,1.45,1.45,0,0,1-1.1-.49,5,5,0,0,1-.82-1.26,3.63,3.63,0,0,0-.67-1,4.21,4.21,0,0,0-1.68-1"/></clipPath><clipPath id="clip-path-153"><path class="cls-1" d="M58.15,144.42l0,.07q1.11,2.31-.51,3.59a4.18,4.18,0,0,1-1.66.86,16.36,16.36,0,0,1-2.2.38,11.17,11.17,0,0,0-2,.37,1,1,0,0,0-.69.79,5,5,0,0,0,0,1.68c.08.7.12,1.1.12,1.19-.09,2.62-.14,4.07-.14,4.36s0,1.76.1,4.4c0,.22,0,.61,0,1.16s0,1,0,1.34V166a10.75,10.75,0,0,1-.08,1.41c-.06.36-.13.78-.22,1.24a3.35,3.35,0,0,1-.39,1.1,5,5,0,0,1-.58.79,1.62,1.62,0,0,1-.85.49A2.6,2.6,0,0,1,48,171a2.46,2.46,0,0,1-1.38-.63A2.34,2.34,0,0,1,46,169a8.4,8.4,0,0,1-.12-1.53c0-.47,0-1,.1-1.76s.08-1.22.08-1.56,0-.48,0-.84c0-2.08.05-4,.14-5.64,0-.67.05-1.24.07-1.71.13-2.66,0-4.41-.51-5.23-.06-.18-.28-.26-.63-.24a5.08,5.08,0,0,0-1.08.18c-.36.11-.75.21-1.18.32a3.73,3.73,0,0,1-.94.17,2.1,2.1,0,0,1-1.8-.91,3.51,3.51,0,0,1-.67-2,4.13,4.13,0,0,1,.62-2.2,2.8,2.8,0,0,1,1.82-1.33c.83-.2,2.62-.53,5.39-1s4.56-.73,5.36-.78l.17,0c.56,0,1.18,0,1.85,0a5.29,5.29,0,0,1,2.07.34,2.28,2.28,0,0,1,1.42,1.22"/></clipPath><clipPath id="clip-path-154"><path class="cls-1" d="M98.38,149.52a4.25,4.25,0,0,1-.14,2.22,8.25,8.25,0,0,1-1.11,2.31,6.27,6.27,0,0,1-1.49,1.57,9.69,9.69,0,0,1-1.67.92,6.16,6.16,0,0,1-1.66.45c-.53.06-1,.09-1.43.1s-.76,0-1,0L89.5,157q7.47,6,8.47,7.21a6,6,0,0,1,.84,1.21,4.7,4.7,0,0,1,.47,1.33,1.71,1.71,0,0,1-.23,1.27,2.43,2.43,0,0,1-1.25.93,3,3,0,0,1-2.47-.36,12.21,12.21,0,0,1-2.82-2.06c-.91-.87-1.77-1.75-2.59-2.63s-1.49-1.58-2-2.09-.83-.64-.87-.42a11.67,11.67,0,0,0,0,4.18,10.43,10.43,0,0,1-.12,4.15,2.35,2.35,0,0,1-1.43,1.64,2.12,2.12,0,0,1-2-.32,3.36,3.36,0,0,1-1.34-2q-.57-1.89.07-12.52c.06-1.19.15-2.19.25-3s.27-1.81.5-2.94a12.75,12.75,0,0,1,1-3.07,8.36,8.36,0,0,1,1.69-2.35,4.43,4.43,0,0,1,2.1-1,7.35,7.35,0,0,1,2.41-.13,11.77,11.77,0,0,1,2.32.5,12.7,12.7,0,0,1,3.79,2,5.18,5.18,0,0,1,2.09,3.05m-9.31,2.76a.65.65,0,0,0,.5.4,12.69,12.69,0,0,0,1.45.1,2.61,2.61,0,0,0,1.88-.66A1.21,1.21,0,0,0,93,150.4a2.18,2.18,0,0,0-1-.83,3.09,3.09,0,0,0-1.31-.31,1.36,1.36,0,0,0-1.11.41,3.06,3.06,0,0,0-.51,1.3,2.73,2.73,0,0,0-.06,1.31"/></clipPath><clipPath id="clip-path-155"><path class="cls-1" d="M119.36,144.42l0,.07q1.11,2.31-.5,3.59a4.22,4.22,0,0,1-1.67.86,16.08,16.08,0,0,1-2.2.38,10.87,10.87,0,0,0-2,.37,1,1,0,0,0-.69.79,5,5,0,0,0,0,1.68c.08.7.12,1.1.12,1.19-.09,2.62-.13,4.07-.13,4.36s0,1.76.1,4.4c0,.22,0,.61,0,1.16s0,1,0,1.34V166a9.25,9.25,0,0,1-.08,1.41c-.06.36-.13.78-.22,1.24a3.35,3.35,0,0,1-.39,1.1,4.46,4.46,0,0,1-.58.79,1.64,1.64,0,0,1-.84.49,2.64,2.64,0,0,1-1.15,0,2.4,2.4,0,0,1-1.37-.63,2.35,2.35,0,0,1-.64-1.33,8.4,8.4,0,0,1-.12-1.53c0-.47,0-1,.1-1.76s.08-1.22.08-1.56a6.16,6.16,0,0,0,0-.84c0-2.08,0-4,.13-5.64,0-.67,0-1.24.07-1.71.13-2.66,0-4.41-.5-5.23-.07-.18-.28-.26-.64-.24a5.08,5.08,0,0,0-1.08.18c-.36.11-.75.21-1.17.32a3.81,3.81,0,0,1-.94.17,2.07,2.07,0,0,1-1.8-.91,3.52,3.52,0,0,1-.68-2,4.05,4.05,0,0,1,.63-2.2,2.78,2.78,0,0,1,1.81-1.33q1.25-.3,5.4-1t5.36-.78l.16,0c.56,0,1.18,0,1.85,0a5.29,5.29,0,0,1,2.07.34,2.32,2.32,0,0,1,1.43,1.22"/></clipPath><clipPath id="clip-path-156"><path class="cls-1" d="M138.19,147.38a12.21,12.21,0,0,0-4-.73,9.81,9.81,0,0,0-4.13.76,3.46,3.46,0,0,0-2.25,2.35,3.4,3.4,0,0,0,.15,2.16,3.9,3.9,0,0,0,1.38,1.63,12.42,12.42,0,0,0,2.25,1.24c.86.38,1.79.75,2.79,1.09l3,1.06a21,21,0,0,1,2.81,1.26,12.26,12.26,0,0,1,2.3,1.59,5.3,5.3,0,0,1,1.44,2.15,5.59,5.59,0,0,1,.24,2.85,5.7,5.7,0,0,1-2.34,3.65,11.06,11.06,0,0,1-4.73,2.14,21.82,21.82,0,0,1-5.37.44,8,8,0,0,1-4.5-1.48,4.22,4.22,0,0,1-1.85-3.57,2.53,2.53,0,0,1,.32-1.34,1.46,1.46,0,0,1,.86-.78,1.71,1.71,0,0,1,1.11,0,7,7,0,0,1,1.54.82c.63.42,1,.62,1,.62q2.93,1.65,5.24.54a2.85,2.85,0,0,0,1.63-1.71,2.35,2.35,0,0,0-.62-2.22,6.43,6.43,0,0,0-2-1.54,11.61,11.61,0,0,0-2.38-.94c-.77-.2-1.6-.48-2.52-.82a11,11,0,0,1-2.26-1.13,19.87,19.87,0,0,1-4.06-3.84,7.59,7.59,0,0,1-1.09-8.09,6.22,6.22,0,0,1,2.11-2.52,12.26,12.26,0,0,1,3.09-1.47,14.54,14.54,0,0,1,3.65-.66,26.68,26.68,0,0,1,3.7,0,19.59,19.59,0,0,1,3.33.56,11.22,11.22,0,0,1,4,1.92,8.12,8.12,0,0,1,2.57,3.34,6,6,0,0,1,.47,2,2.15,2.15,0,0,1-.58,1.62,2.61,2.61,0,0,1-1.94.71,1.42,1.42,0,0,1-1.09-.49,4.74,4.74,0,0,1-.82-1.26,3.41,3.41,0,0,0-.68-1,4.21,4.21,0,0,0-1.68-1"/></clipPath><clipPath id="clip-path-157"><path class="cls-1" d="M55.32,193.89a2.36,2.36,0,0,0,1.18.32c14.33,1.16,26.28.61,40.68,0,1.69-.07,3.54-.2,4.74-1.13,1.44-1.13,1.35-2.94,1.16-4.52-.39-3.15-.77-6.29-1.16-9.44,0-.25-.06-.06-.27-.25a1.81,1.81,0,0,0-1.16-.26l-37.68-.33c-2.73,0-4.48.08-7,.19-1.06.05-1.87.76-1.81,1.59.25,3.15.79,9.92.87,12.69A1.29,1.29,0,0,0,55.32,193.89Z"/></clipPath><clipPath id="clip-path-158"><rect class="cls-2" x="58.82" y="176.28" width="45.92" height="20.45"/></clipPath><clipPath id="clip-path-159"><rect class="cls-2" x="56.82" y="179.01" width="45" height="18"/></clipPath><clipPath id="clip-path-160"><rect class="cls-2" x="57.82" y="176.01" width="47" height="21"/></clipPath></defs><title>Asset 4</title><g id="Layer_2" data-name="Layer 2"><g id="Layer_9" data-name="Layer 9"><g class="cls-3"><g class="cls-4"><g class="cls-5"><g class="cls-6"><g class="cls-5"><rect class="cls-7" x="66.59" y="60.18" width="30.52" height="40.43"/></g></g></g></g></g><g class="cls-8"><g class="cls-4"><g class="cls-9"><g class="cls-10"><g class="cls-11"><rect class="cls-12" x="91.09" y="29.66" width="24.68" height="24.35"/></g></g></g></g></g><g class="cls-13"><g class="cls-4"><g class="cls-14"><g class="cls-15"><g class="cls-16"><rect class="cls-12" x="48.99" y="29.66" width="24.68" height="24.35"/></g></g></g></g></g><g class="cls-17"><g class="cls-4"><g class="cls-18"><g class="cls-19"><g class="cls-18"><rect class="cls-20" x="53.09" y="1.18" width="58" height="72.45"/></g></g></g></g></g><g class="cls-21"><g class="cls-4"><g class="cls-22"><g class="cls-23"><g class="cls-24"><rect class="cls-25" x="52.22" width="60.67" height="50.15"/></g></g></g></g></g><g class="cls-26"><g class="cls-4"><g class="cls-27"><g class="cls-28"><g class="cls-29"><rect class="cls-25" x="53.5" y="6.68" width="51.26" height="26.84"/></g></g></g></g></g><g class="cls-30"><g class="cls-4"><g class="cls-31"><g class="cls-32"><g class="cls-33"><rect class="cls-34" x="52.21" y="29.06" width="59.29" height="25.76"/></g></g></g></g></g><g class="cls-35"><g class="cls-4"><g class="cls-36"><g class="cls-37"><g class="cls-36"><rect class="cls-34" x="63.07" y="35.22" width="13.74" height="13.82"/></g></g></g></g></g><g class="cls-38"><g class="cls-4"><g class="cls-39"><g class="cls-40"><g class="cls-39"><rect class="cls-34" x="87.39" y="35.22" width="13.76" height="13.82"/></g></g></g></g></g><g class="cls-41"><g class="cls-4"><g class="cls-42"><g class="cls-43"><g class="cls-42"><rect class="cls-44" x="69.23" y="50.78" width="26.99" height="13.74"/></g></g></g></g></g><g class="cls-45"><g class="cls-4"><g class="cls-46"><g class="cls-47"><g class="cls-46"><rect class="cls-48" x="73.04" y="37.58" width="17.88" height="21.63"/></g></g></g></g></g><g class="cls-49"><g class="cls-4"><g class="cls-50"><g class="cls-51"><g class="cls-52"><rect class="cls-25" x="58.38" y="26.12" width="22.69" height="12.57"/></g></g></g></g></g><g class="cls-53"><g class="cls-4"><g class="cls-54"><g class="cls-55"><g class="cls-56"><rect class="cls-25" x="82.81" y="26.12" width="22.69" height="12.57"/></g></g></g></g></g><g class="cls-57"><g class="cls-4"><g class="cls-58"><g class="cls-59"><g class="cls-58"><rect class="cls-60" x="58.63" y="66.51" width="47.88" height="46.47"/></g></g></g></g></g><g class="cls-61"><g class="cls-4"><g class="cls-62"><g class="cls-63"><g class="cls-64"><rect class="cls-60" x="94.95" y="68.31" width="22.64" height="44.67"/></g></g></g></g></g><g class="cls-65"><g class="cls-4"><g class="cls-66"><g class="cls-67"><g class="cls-68"><rect class="cls-60" x="47.81" y="68.31" width="23.15" height="44.67"/></g></g></g></g></g><g class="cls-69"><g class="cls-4"><g class="cls-70"><g class="cls-71"><g class="cls-70"><rect class="cls-72" x="64.56" y="65.47" width="21.85" height="47.51"/></g></g></g></g></g><g class="cls-73"><g class="cls-4"><g class="cls-74"><g class="cls-75"><g class="cls-74"><rect class="cls-72" x="78.47" y="65.47" width="21.85" height="47.51"/></g></g></g></g></g><g class="cls-76"><g class="cls-4"><g class="cls-77"><g class="cls-78"><g class="cls-77"><rect class="cls-79" x="70.11" y="65.6" width="24.75" height="47.38"/></g></g></g></g></g><g class="cls-80"><g class="cls-4"><g class="cls-81"><g class="cls-82"><g class="cls-81"><rect class="cls-83" x="70.11" y="65.6" width="17.51" height="16.71"/></g></g></g></g></g><g class="cls-84"><g class="cls-4"><g class="cls-85"><g class="cls-86"><g class="cls-85"><rect class="cls-83" x="77.34" y="65.53" width="18.02" height="16.77"/></g></g></g></g></g><g class="cls-87"><g class="cls-4"><g class="cls-88"><g class="cls-89"><g class="cls-88"><rect class="cls-90" x="74.81" y="68.99" width="15.3" height="44.07"/></g></g></g></g></g><g class="cls-91"><rect class="cls-92" x="85.15" y="71.26" width="29.19" height="29.5"/></g><g class="cls-93"><g class="cls-4"><g class="cls-94"><g class="cls-95"><g class="cls-94"><rect class="cls-96" x="85.89" y="72.06" width="27.67" height="27.92"/></g></g></g></g></g><g class="cls-97"><rect class="cls-98" x="88.14" y="73.84" width="23.46" height="24.62"/></g><g class="cls-99"><rect class="cls-100" x="6.82" y="41.41" width="53" height="55.96"/></g><g class="cls-101"><rect class="cls-102" x="21.45" y="54.79" width="12.63" height="11.75"/></g><g class="cls-103"><rect class="cls-104" x="22.32" y="62.06" width="11.76" height="12.62"/></g><g class="cls-105"><rect class="cls-106" x="27.88" y="62.06" width="13.22" height="17.56"/></g><g class="cls-107"><rect class="cls-102" x="31.98" y="54.79" width="12.63" height="11.75"/></g><g class="cls-108"><rect class="cls-104" x="31.98" y="62.06" width="11.76" height="12.62"/></g><g class="cls-109"><rect class="cls-110" x="17.06" y="85.04" width="32.52" height="23.96"/></g><g class="cls-111"><rect class="cls-112" x="23.49" y="72.24" width="18.48" height="12.62"/></g><g class="cls-113"><rect class="cls-114" x="21.45" y="71.37" width="24.04" height="12.62"/></g><g class="cls-115"><rect class="cls-116" x="8.87" y="68.17" width="12.63" height="13.78"/></g><g class="cls-117"><rect class="cls-116" x="44.85" y="68.17" width="12.63" height="13.78"/></g><g class="cls-118"><rect class="cls-119" x="6.82" y="35.01" width="51.83" height="42.58"/></g><g class="cls-120"><g class="cls-4"><g class="cls-121"><g class="cls-122"><g class="cls-123"><rect class="cls-124" x="24.51" y="84.48" width="17.94" height="23.82"/></g></g></g></g></g><g class="cls-125"><rect class="cls-126" x="24.08" y="86.79" width="18.48" height="11.16"/></g><g class="cls-127"><rect class="cls-128" x="33.15" y="91.44" width="11.17" height="11.16"/></g><g class="cls-129"><rect class="cls-128" x="22.91" y="91.44" width="11.17" height="10.3"/></g><g class="cls-130"><rect class="cls-128" x="33.15" y="96.39" width="11.17" height="11.16"/></g><g class="cls-131"><rect class="cls-128" x="22.91" y="96.97" width="11.17" height="10.3"/></g><g class="cls-132"><rect class="cls-128" x="21.45" y="81.84" width="14.97" height="19.6"/></g><g class="cls-133"><rect class="cls-128" x="30.51" y="81.84" width="14.97" height="19.6"/></g><g class="cls-134"><rect class="cls-135" x="120.35" y="84.97" width="19.64" height="11.77"/></g><g class="cls-136"><rect class="cls-137" x="113.92" y="86.44" width="32.5" height="23.57"/></g><g class="cls-138"><rect class="cls-139" x="103.99" y="41.91" width="52.95" height="58.96"/></g><g class="cls-140"><rect class="cls-104" x="118.31" y="54.88" width="13.21" height="11.77"/></g><g class="cls-141"><rect class="cls-104" x="129.12" y="54.88" width="13.21" height="11.77"/></g><g class="cls-142"><rect class="cls-104" x="119.48" y="62.55" width="11.46" height="12.65"/></g><g class="cls-143"><rect class="cls-144" x="122.69" y="62.55" width="14.97" height="18.26"/></g><g class="cls-145"><rect class="cls-139" x="113.92" y="95.58" width="14.97" height="14.42"/></g><g class="cls-146"><rect class="cls-104" x="128.53" y="62.55" width="11.75" height="12.65"/></g><g class="cls-147"><rect class="cls-139" x="131.75" y="95.58" width="14.68" height="14.42"/></g><g class="cls-148"><rect class="cls-144" x="117.72" y="71.69" width="24.03" height="13.24"/></g><g class="cls-149"><rect class="cls-150" x="105.45" y="68.45" width="12.63" height="13.83"/></g><g class="cls-151"><rect class="cls-150" x="141.98" y="68.45" width="12.63" height="13.83"/></g><g class="cls-152"><rect class="cls-135" x="117.72" y="85.26" width="17.01" height="15.9"/></g><g class="cls-153"><rect class="cls-135" x="125.32" y="85.26" width="17.01" height="15.9"/></g><g class="cls-154"><rect class="cls-135" x="113.92" y="94.7" width="14.97" height="11.18"/></g><g class="cls-155"><rect class="cls-135" x="131.75" y="94.7" width="14.68" height="11.18"/></g><g class="cls-156"><rect class="cls-104" x="102.82" y="36.01" width="55" height="41.56"/></g><g class="cls-157"><rect class="cls-158" x="2.58" y="99.67" width="157.86" height="86.84"/></g><g class="cls-159"><rect class="cls-160" y="97.19" width="162.91" height="91.81"/></g><g class="cls-161"><rect class="cls-160" x="10.32" y="106.84" width="29.01" height="37.18"/></g><g class="cls-162"><rect class="cls-160" x="32.09" y="108.81" width="28.82" height="35.62"/></g><g class="cls-163"><rect class="cls-160" x="53.19" y="107.69" width="27.89" height="33"/></g><g class="cls-164"><rect class="cls-160" x="73.87" y="106.47" width="24.8" height="37.69"/></g><g class="cls-165"><rect class="cls-160" x="87.33" y="107.24" width="27.88" height="36.29"/></g><g class="cls-166"><rect class="cls-160" x="106.63" y="106.84" width="29.01" height="37.18"/></g><g class="cls-167"><rect class="cls-160" x="127.79" y="107.7" width="24.26" height="38.06"/></g><g class="cls-168"><rect class="cls-160" x="63.97" y="141.96" width="11.55" height="11.54"/></g><g class="cls-169"><rect class="cls-160" x="57.49" y="165.33" width="11.91" height="12.86"/></g><g class="cls-170"><rect class="cls-160" x="59.82" y="163.39" width="10.97" height="11.71"/></g><g class="cls-171"><rect class="cls-160" x="66.53" y="166.91" width="10.6" height="10.56"/></g><g class="cls-172"><rect class="cls-160" x="68.05" y="166.14" width="10.76" height="10.93"/></g><g class="cls-173"><rect class="cls-160" x="68.99" y="167.07" width="11.21" height="11.49"/></g><g class="cls-174"><rect class="cls-160" x="56" y="136.11" width="27.41" height="41.31"/></g><g class="cls-175"><rect class="cls-160" x="8.96" y="135.89" width="33.63" height="40.15"/></g><g class="cls-176"><rect class="cls-160" x="34.45" y="137.86" width="29.19" height="38.22"/></g><g class="cls-177"><rect class="cls-160" x="76.84" y="138.94" width="27.48" height="37.55"/></g><g class="cls-178"><rect class="cls-160" x="95.65" y="137.86" width="29.19" height="38.22"/></g><g class="cls-179"><rect class="cls-160" x="116.35" y="135.89" width="33.63" height="40.15"/></g><g class="cls-180"><rect class="cls-158" x="49.27" y="173.28" width="58.7" height="26.61"/></g><g class="cls-181"><g class="cls-4"><g class="cls-182"><g class="cls-183"><path class="cls-184" d="M60.4,188.26a1,1,0,0,1,1.12.38,1.37,1.37,0,0,1,.25,1.08.82.82,0,0,1-.78.68h0a1.14,1.14,0,0,1-.65-.15,1,1,0,0,1-.45-.45,1.61,1.61,0,0,1-.18-.59.9.9,0,0,1,.16-.58A1.07,1.07,0,0,1,60.4,188.26Z"/><path class="cls-184" d="M68.93,181.74v0a.86.86,0,0,1-.16,1.15,1.56,1.56,0,0,1-.53.27,5.31,5.31,0,0,1-.7.12,3.67,3.67,0,0,0-.64.12.32.32,0,0,0-.22.25,1.79,1.79,0,0,0,0,.53c0,.23,0,.35,0,.38,0,.83,0,1.3,0,1.39s0,.56,0,1.4c0,.07,0,.19,0,.37s0,.31,0,.42v.44a2.81,2.81,0,0,1,0,.45,3.24,3.24,0,0,1-.07.39,1,1,0,0,1-.12.36,1.1,1.1,0,0,1-.19.25.46.46,0,0,1-.26.15.77.77,0,0,1-.37,0,.73.73,0,0,1-.43-.21.7.7,0,0,1-.21-.42,2.69,2.69,0,0,1,0-.48c0-.15,0-.34,0-.56s0-.39,0-.5a1.65,1.65,0,0,0,0-.27c0-.66,0-1.26,0-1.79,0-.21,0-.4,0-.55a3.6,3.6,0,0,0-.16-1.66c0-.06-.09-.08-.2-.08a1.86,1.86,0,0,0-.34.06l-.38.1a1.11,1.11,0,0,1-.3.06.68.68,0,0,1-.57-.29A1.07,1.07,0,0,1,63,183a1.21,1.21,0,0,1,.2-.7.84.84,0,0,1,.57-.42c.27-.07.84-.17,1.72-.32s1.44-.23,1.7-.25h.64a1.56,1.56,0,0,1,.66.1A.74.74,0,0,1,68.93,181.74Z"/><path class="cls-184" d="M76.92,185.6a5.46,5.46,0,0,1,.11,1.27,4.07,4.07,0,0,1-.27,1.27,3.1,3.1,0,0,1-.7,1.08,3.88,3.88,0,0,1-1.32.85,3.67,3.67,0,0,1-1.48.23,4.56,4.56,0,0,1-1.45-.33,4.06,4.06,0,0,1-1.27-.8,4,4,0,0,1-.89-1.23,4.66,4.66,0,0,1-.43-1.4,4.32,4.32,0,0,1,0-1.48,4.18,4.18,0,0,1,.45-1.33,3,3,0,0,1,1-1,3.06,3.06,0,0,1,1.41-.5,4.36,4.36,0,0,1,3.11.79A4.3,4.3,0,0,1,76.92,185.6Zm-2,1.82a2.08,2.08,0,0,0,.32-.91,1.75,1.75,0,0,0-.1-.86,2.52,2.52,0,0,0-.46-.72,2,2,0,0,0-.73-.5,2.73,2.73,0,0,0-1-.19,2,2,0,0,0-2,1,2.4,2.4,0,0,0-.21.88,2.07,2.07,0,0,0,.15.8,2.57,2.57,0,0,0,1.07,1.16,2.66,2.66,0,0,0,.75.26,2.28,2.28,0,0,0,.78,0,2,2,0,0,0,.75-.29,2.19,2.19,0,0,0,.62-.63A.78.78,0,0,0,74.87,187.42Z"/><path class="cls-184" d="M78.69,189.46l0-.17-.15-1.14s0-.06,0-.08c0-.22-.07-1.2-.19-2.94a34.51,34.51,0,0,1-.15-3.48.74.74,0,0,1,.25-.51,1.2,1.2,0,0,1,.55-.24,2.88,2.88,0,0,1,.66,0,3.38,3.38,0,0,1,.6.11A7.15,7.15,0,0,1,83,182.61a4.94,4.94,0,0,1,1.1,1.89,6.56,6.56,0,0,1,.4,2.17,4.2,4.2,0,0,1-.55,2.1,2.9,2.9,0,0,1-1.57,1.28,5.83,5.83,0,0,1-1.18.3,5.67,5.67,0,0,1-1.15,0,2,2,0,0,1-.91-.28A.83.83,0,0,1,78.69,189.46Zm1.24-6.5.2,5.67a1.09,1.09,0,0,1,.33,0,2.53,2.53,0,0,0,.73-.06,1.55,1.55,0,0,0,.71-.28,1.9,1.9,0,0,0,.61-1.06,3.86,3.86,0,0,0,.07-1.4,3.9,3.9,0,0,0-.48-1.39,2.43,2.43,0,0,0-.92-1,3.24,3.24,0,0,0-.52-.24l-.51-.2Z"/><path class="cls-184" d="M91.32,187.31a14.91,14.91,0,0,1,.12,1.92,1.31,1.31,0,0,1-.34.85,1.15,1.15,0,0,1-.95.2c-.15,0-.28-.15-.38-.42a3.57,3.57,0,0,1-.22-.91c0-.33-.1-.67-.16-1a3.26,3.26,0,0,0-.19-.76c0-.1-.2-.17-.44-.2a2.77,2.77,0,0,0-1,.08c-.34.08-.53.21-.55.39s0,.49,0,.8,0,.61,0,.89a2.36,2.36,0,0,1-.14.78.58.58,0,0,1-.38.41,1.28,1.28,0,0,1-.27,0,1.12,1.12,0,0,1-.38-.06.59.59,0,0,1-.27-.27,2.92,2.92,0,0,1-.17-.37,3,3,0,0,1-.11-.56c0-.25,0-.46-.06-.62s0-.42,0-.76,0-.5,0-.64a22.66,22.66,0,0,1,.28-3.43,3.37,3.37,0,0,1,.28-1,2,2,0,0,1,1-1,2.35,2.35,0,0,1,.54-.19,3.47,3.47,0,0,1,.45-.06,3.19,3.19,0,0,1,1,.12,2.41,2.41,0,0,1,.77.38,2.56,2.56,0,0,1,.55.58,3.81,3.81,0,0,1,.38.64,7,7,0,0,1,.26.66,3.21,3.21,0,0,1,.16.63,5.46,5.46,0,0,1,.08.68c0,.22,0,.54.08,1S91.28,186.93,91.32,187.31Zm-3.91-1.71a.38.38,0,0,0,.23.2.94.94,0,0,0,.37.07h.39a2.07,2.07,0,0,0,.65-.15q.28-.12.27-.27a1.91,1.91,0,0,1,0-.2,1.09,1.09,0,0,0,0-.35,1.86,1.86,0,0,0-.23-.47,1.18,1.18,0,0,0-.73-.58.68.68,0,0,0-.64.35,1.8,1.8,0,0,0-.33.8,1.32,1.32,0,0,0,0,.33c0,.09,0,.16,0,.2Z"/><path class="cls-184" d="M96.56,189.51a2.78,2.78,0,0,1-.64,1,1.72,1.72,0,0,1-.81.48,1.56,1.56,0,0,1-.88-.05,2.06,2.06,0,0,1-.88-.66,4.37,4.37,0,0,1-.74-1.31.31.31,0,0,1,0-.28.56.56,0,0,1,.21-.25,1.3,1.3,0,0,1,.32-.14.5.5,0,0,1,.32,0,.43.43,0,0,1,.23.23,1.53,1.53,0,0,0,.73.86c.34.15.6,0,.77-.59a6.81,6.81,0,0,0,.15-2.29l-.09.1a1.31,1.31,0,0,1-.26.18,1.11,1.11,0,0,1-.43.15,1.29,1.29,0,0,1-.59-.06,2.14,2.14,0,0,1-.74-.37,2.93,2.93,0,0,1-.41-.38,1.81,1.81,0,0,1-.29-.48,4,4,0,0,1-.2-.5,2.78,2.78,0,0,1-.12-.59c0-.23,0-.42,0-.58s0-.38,0-.64,0-.48,0-.63,0-.37,0-.65c0-.06,0-.1,0-.13a.46.46,0,0,1,.29-.4.93.93,0,0,1,.6-.07.82.82,0,0,1,.52.31,1.35,1.35,0,0,1,.15.64q0,.47,0,1a8,8,0,0,0,0,1,1.39,1.39,0,0,0,.19.74.44.44,0,0,0,.52.17.45.45,0,0,0,.26-.22,1.32,1.32,0,0,0,.17-.42,5.28,5.28,0,0,0,.11-.57c0-.23,0-.42.05-.59s0-.35,0-.54,0-.32,0-.38a1.35,1.35,0,0,1,.31-.85.91.91,0,0,1,.88-.19c.26,0,.45.46.56,1.24a15.06,15.06,0,0,1,.11,2.58c0,.94-.1,1.84-.19,2.68A6.86,6.86,0,0,1,96.56,189.51Z"/></g></g></g></g><path class="cls-184" d="M54,193.09c.3,3.4,3.73,3,6.6,3.2,5.88.4,11.77.5,17.67.41,5.73-.09,11.46-.34,17.18-.61,3.22-.15,7-.2,8.38-3.55.74-1.83.32-3.88.11-5.77-.29-2.54-.12-5.7-.92-8.13s-3.54-1.95-5.82-2c-12.12-.11-24.3-.58-36.42-.3-3.84.09-7.65-.17-7.55,4.31.08,4.14.63,8.27.77,12.41.06,1.79,3,1.8,2.93,0-.11-3.3-.36-6.6-.6-9.9-.16-2.32-.48-3.47,2.31-3.95a38.36,38.36,0,0,1,6.78-.08c11.08.11,22.18,0,33.26.32,2.4.06,1.5,0,1.77,2.29s.62,4.58.77,6.87c.12,1.75.45,3.35-1.72,4.27a10.55,10.55,0,0,1-3.32.36q-3.88.19-7.77.34c-4.94.2-9.88.35-14.82.33-1.61,0-16.58,0-16.66-.85-.16-1.78-3.09-1.79-2.93,0"/></g></g></svg>