<?xml version="1.0" encoding="UTF-8"?>
<svg width="149px" height="86px" viewBox="0 0 149 86" version="1.1" xmlns="http://www.w3.org/2000/svg" xmlns:xlink="http://www.w3.org/1999/xlink">
    <!-- Generator: Sketch 50.2 (55047) - http://www.bohemiancoding.com/sketch -->
    <title>Group 4</title>
    <desc>Created with Sketch.</desc>
    <defs>
        <path d="M0,4.99544665 C0,2.23653765 2.23656957,0 5.00010254,0 L143.999897,0 C146.761378,0 149,2.23413232 149,4.99544665 L149,86 L0,86 L0,4.99544665 Z" id="path-1"></path>
    </defs>
    <g id="Zilla-Slab/Lato" stroke="none" stroke-width="1" fill="none" fill-rule="evenodd">
        <g id="⟶-My-Courses" transform="translate(-201.000000, -167.000000)">
            <g id="Grid" transform="translate(20.000000, 162.000000)">
                <g id="2" transform="translate(176.000000, 0.000000)">
                    <g id="Group-4" transform="translate(5.000000, 5.000000)">
                        <mask id="mask-2" fill="white">
                            <use xlink:href="#path-1"></use>
                        </mask>
                        <use id="Mask-Copy-3" fill="#cbcbcb" xlink:href="#path-1"></use>
                        <g id="toothbrush-(1)" mask="url(#mask-2)">
                            <g transform="translate(57.000000, 16.000000)">
                                <path d="M33.8255156,13.6760273 L32.2237617,27.9708398 L28.0796836,27.9708398 C28.4335313,22.9793203 27.4464492,19.1052422 26.2172109,18.8724727 C24.9879727,18.6397031 22.2127734,22.4857266 20.7786094,27.9708398 L16.5134531,27.9708398 L20.9835352,11.2081641 L33.8255156,13.6760273 Z" id="Shape" fill="#b6b6b6" fill-rule="nonzero"></path>
                                <polygon id="Shape" fill="#cacaca" fill-rule="nonzero" points="33.8255156 13.6760273 21.0113789 11.2546758 25.8818203 5.53679297 31.3762148 6.57977344"></polygon>
                                <g id="Group" stroke-width="1" fill="none" fill-rule="evenodd" transform="translate(20.777344, 0.105469)">
                                    <path d="M11.4649805,1.89253125 L10.636207,6.44635547 L5.1418125,5.403375 L5.97997266,0.858832031 C6.07405078,0.353109375 6.56015625,0.0188789062 7.06577344,0.112851563 C7.06672266,0.112851563 7.06851562,0.113800781 7.06946484,0.113800781 L10.7293359,0.802933594 C11.2330547,0.900703125 11.5618008,1.38870703 11.4649805,1.89253125 Z" id="Shape" fill="#959595" fill-rule="nonzero"></path>
                                    <path d="M7.30223437,27.8653711 L0.00116015625,27.8653711 C1.43532422,22.3802578 4.08005859,18.5527969 5.430375,18.7670039 C6.78069141,18.9811055 7.65608203,22.8738516 7.30223437,27.8653711 Z" id="Shape" fill="#959595" fill-rule="nonzero"></path>
                                </g>
                                <path d="M11.5124414,11.3478047 L6.03660938,12.4653516 L3.79223438,1.52307422 L9.25867969,0.396246094 C10.271918,0.217476563 11.2375898,0.894480469 11.4163594,1.90676953 C11.5885898,2.88457031 10.9628438,3.82608984 9.99432422,4.04683594 C11.0019727,3.84106641 11.9863125,4.49201953 12.192082,5.4995625 C12.3978516,6.50721094 11.7468984,7.49155078 10.7393555,7.69732031 C11.7470039,7.48870313 12.7331367,8.13775781 12.9417539,9.14540625 C13.1503711,10.1530547 12.5013164,11.1391875 11.493668,11.3478047 L11.5124414,11.3478047 Z" id="Shape" fill="#d6d6d6" fill-rule="nonzero"></path>
                                <path d="M12.0712148,27.9708398 L8.27170313,27.9708398 L7.34041406,23.6032734 L3.47572266,18.6582656 L0.141855469,2.26810547 C-0.0816328125,1.26425391 0.550652344,0.268734375 1.55460938,0.045140625 C1.57412109,0.0405 1.59373828,0.0368085937 1.61325,0.0330117187 C2.62364063,-0.158835937 3.59869922,0.504246094 3.79054688,1.51463672 C3.79149609,1.51737891 3.79149609,1.52022656 3.79244531,1.52296875 L6.03682031,12.4652461 L6.78185156,16.1158359 L10.646543,21.0328945 L12.0712148,27.9708398 Z" id="Shape" fill="#5a5a5a" fill-rule="nonzero"></path>
                                <path d="M35.6600391,31.7516836 L33.3691523,53.1705937 C33.3170508,53.6445703 32.9146875,54.0022148 32.4378633,53.9993672 L8.03893359,53.9993672 C7.56210938,54.0021094 7.15985156,53.6445703 7.10764453,53.1705937 L4.81675781,31.7516836 L5.33830078,31.6957852 L35.1386016,31.6957852 L35.6600391,31.7516836 Z" id="Shape" fill="#7c7c7c" fill-rule="nonzero"></path>
                                <path d="M35.0360859,27.9708398 C35.5501406,27.9679922 35.9701172,28.3824844 35.9729648,28.8965391 C35.9729648,28.9328203 35.9710664,28.969207 35.967375,29.0045391 L35.6693203,31.7983008 L35.1384961,31.6958906 L5.33819531,31.6958906 L4.81665234,31.7517891 L4.51859766,28.9580273 C4.46175,28.4467148 4.83057422,27.9867656 5.34178125,27.929918 C5.3780625,27.9262266 5.4135,27.9243281 5.44978125,27.9243281 L35.0360859,27.9708398 Z" id="Shape" fill="#656565" fill-rule="nonzero"></path>
                            </g>
                        </g>
                    </g>
                </g>
            </g>
        </g>
    </g>
</svg>