<?xml version="1.0" encoding="UTF-8"?>
<svg width="149px" height="86px" viewBox="0 0 149 86" version="1.1" xmlns="http://www.w3.org/2000/svg" xmlns:xlink="http://www.w3.org/1999/xlink">
    <!-- Generator: Sketch 50.2 (55047) - http://www.bohemiancoding.com/sketch -->
    <title>Group 4</title>
    <desc>Created with Sketch.</desc>
    <defs>
        <path d="M0,4.99544665 C0,2.23653765 2.23656957,0 5.00010254,0 L143.999897,0 C146.761378,0 149,2.23413232 149,4.99544665 L149,86 L0,86 L0,4.99544665 Z" id="path-1"></path>
    </defs>
    <g id="Zilla-Slab/Lato" stroke="none" stroke-width="1" fill="none" fill-rule="evenodd">
        <g id="⟶-My-Courses" transform="translate(-201.000000, -167.000000)">
            <g id="Grid" transform="translate(20.000000, 162.000000)">
                <g id="2" transform="translate(176.000000, 0.000000)">
                    <g id="Group-4" transform="translate(5.000000, 5.000000)">
                        <mask id="mask-2" fill="white">
                            <use xlink:href="#path-1"></use>
                        </mask>
                        <use id="Mask-Copy-3" fill="#87DBA2" xlink:href="#path-1"></use>
                        <g id="brain" mask="url(#mask-2)">
                            <g transform="translate(49.000000, 13.000000)">
                                <path d="M29.2164827,0 L25.2569231,0 C13.2295132,0 3.4793451,9.67992672 3.4793451,21.6206897 L4.46923501,29.4827586 L0.334464862,35.6407241 C-0.273451278,36.5430194 -0.0296908878,37.7637284 0.879151784,38.3672651 C1.14357613,38.5428103 1.44672991,38.6526336 1.762876,38.6872759 L7.43890473,39.3103448 L8.03283867,46.9483448 C8.24244786,49.654125 10.6216483,51.6789763 13.3471864,51.471 C13.4256352,51.4649806 13.5040839,51.4571185 13.5821615,51.4474138 L17.3437431,51.1034483 L17.3437431,57 L43.0808807,57 L43.0808807,51.8120172 C43.0808807,48.7606746 43.7965711,45.751222 45.1715282,43.0222241 L49.9556661,33.5228793 C50.6426497,32.1588103 51,28.5 51,29.1279828 L51,21.6206897 C51,9.67992672 41.2498319,0 29.222422,0 C29.2204423,0 29.2184625,0 29.2164827,0 Z" id="Shape" fill="#FDC9A6" fill-rule="nonzero"></path>
                                <path d="M17,23 L34,23 L34,29 L20.8857143,29 C18.7397071,29 17,27.209125 17,25 L17,23 Z" id="Shape" fill="#DC4D41" fill-rule="nonzero"></path>
                                <path d="M25,28 L31.373,37.1422903 C32.015375,38.063103 33.264625,38.2758544 34.163125,37.6176187 C34.68825,37.2328474 35,36.612141 35,35.950575 L35,28 L25,28 Z" id="Shape" fill="#C7463B" fill-rule="nonzero"></path>
                                <path d="M37,32 L34,32 C32.343125,32 31,30.656875 31,29 L31,23 L45,23 L45,24 C45,28.41825 41.41825,32 37,32 Z" id="Shape" fill="#DC4D41" fill-rule="nonzero"></path>
                                <path d="M20.6666667,8 L32.3333333,8 C38.7766146,8 44,13.372625 44,20 L44,24 L10.9444444,24 C9.87050347,24 9,23.104625 9,22 L9,20 C9,13.372625 14.2232639,8 20.6666667,8 Z" id="Shape" fill="#EA6B65" fill-rule="nonzero"></path>
                                <g id="Group" stroke-width="1" fill="none" fill-rule="evenodd" transform="translate(10.000000, 8.000000)">
                                    <path d="M3.98891829,10.6666667 L3.98891829,11.6363636 C3.98891829,12.1718788 4.43492607,12.6060606 4.98502724,12.6060606 C5.5351284,12.6060606 5.98113619,12.1718788 5.98113619,11.6363636 L5.98113619,10.6666667 C5.97789883,7.99030303 3.74985214,5.82133333 1.00059144,5.81818182 C0.840964981,5.82121212 0.684700389,5.86254545 0.54536965,5.93842424 C0.359097276,6.26036364 0.189758755,6.592 0.0343657588,6.93236364 C0.101976654,7.40242424 0.512996109,7.75345455 1.00059144,7.75757576 C2.65089494,7.75757576 3.98891829,9.06 3.98891829,10.6666667 Z" id="Shape" fill="#DC4D41" fill-rule="nonzero"></path>
                                    <path d="M10.9616809,13.5757576 C10.4115798,13.5757576 9.96557198,13.1415758 9.96557198,12.6060606 C9.96557198,10.4638788 11.7494786,8.72727273 13.9500078,8.72727273 C14.5001089,8.72727273 14.9461167,9.16145455 14.9461167,9.6969697 C14.9461167,10.2324848 14.5001089,10.6666667 13.9500078,10.6666667 C12.8496809,10.6666667 11.9577899,11.5349091 11.9577899,12.6060606 C11.9577899,13.1415758 11.5117821,13.5757576 10.9616809,13.5757576 Z" id="Shape" fill="#DC4D41" fill-rule="nonzero"></path>
                                    <path d="M12.9538988,1.93939394 C12.9538988,2.47490909 12.5078911,2.90909091 11.9577899,2.90909091 L10.9616809,2.90909091 C10.4115798,2.90909091 9.96557198,3.34327273 9.96557198,3.87878788 C9.96557198,4.41430303 10.4115798,4.84848485 10.9616809,4.84848485 L11.9577899,4.84848485 C12.5567004,4.8489697 13.1417899,4.67321212 13.6362335,4.34424242 C14.5156732,5.84969697 16.155393,6.78181818 17.9344436,6.78787879 L18.9305525,6.78787879 C19.4806537,6.78787879 19.9266615,6.35369697 19.9266615,5.81818182 C19.9266615,5.28266667 19.4806537,4.84848485 18.9305525,4.84848485 L17.9344436,4.84848485 C16.2840156,4.84848485 14.9461167,3.54606061 14.9461167,1.93939394 L14.9461167,0 L12.9538988,0 L12.9538988,1.93939394 Z" id="Shape" fill="#DC4D41" fill-rule="nonzero"></path>
                                    <path d="M12.9538988,10.6666667 L11.9577899,10.6666667 C9.7572607,10.6666667 7.97335409,8.93006061 7.97335409,6.78787879 C7.97335409,6.25236364 8.41936187,5.81818182 8.96946304,5.81818182 C9.5195642,5.81818182 9.96557198,6.25236364 9.96557198,6.78787879 C9.96557198,7.8590303 10.857463,8.72727273 11.9577899,8.72727273 L12.9538988,8.72727273 C13.504,8.72727273 13.9500078,9.16145455 13.9500078,9.6969697 C13.9500078,10.2324848 13.504,10.6666667 12.9538988,10.6666667 Z" id="Shape" fill="#DC4D41" fill-rule="nonzero"></path>
                                    <path d="M20.8859144,12.7166061 C19.9653852,12.7433939 19.0620389,12.4704242 18.3189416,11.9408485 C17.357572,11.1460606 16.8444514,9.95175758 16.9383346,8.72727273 C16.9383346,8.19175758 17.3843424,7.75757576 17.9344436,7.75757576 C18.4845447,7.75757576 18.9305525,8.19175758 18.9305525,8.72727273 C18.8575875,9.35175758 19.0843268,9.97418182 19.5451518,10.4145455 C20.1952374,10.7626667 20.9550195,10.8629091 21.6768249,10.6957576 C22.2113619,10.5693333 22.7500078,10.8887273 22.88,11.4090909 C23.0086226,11.9242424 22.6883735,12.4444848 22.1609339,12.5769697 C21.7428171,12.6710303 21.3149883,12.7179394 20.8859144,12.7166061 Z" id="Shape" fill="#DC4D41" fill-rule="nonzero"></path>
                                    <path d="M27.8955331,10.6666667 C27.3454319,10.6666667 26.8994241,11.1008485 26.8994241,11.6363636 C26.8994241,12.1718788 27.3454319,12.6060606 27.8955331,12.6060606 C28.9958599,12.6060606 29.887751,13.474303 29.887751,14.5454545 L29.887751,15.5151515 L29.9146459,15.9195152 L31.8799689,15.9195152 L31.8799689,14.5454545 C31.8799689,12.4032727 30.0960623,10.6666667 27.8955331,10.6666667 Z" id="Shape" fill="#DC4D41" fill-rule="nonzero"></path>
                                    <path d="M25.9033152,9.6969697 C25.353214,9.6969697 24.9072062,9.26278788 24.9072062,8.72727273 L24.9072062,7.75757576 C24.9072062,6.68642424 24.0153152,5.81818182 22.9149883,5.81818182 C22.3648872,5.81818182 21.9188794,5.384 21.9188794,4.84848485 C21.9188794,4.3129697 22.3648872,3.87878788 22.9149883,3.87878788 C25.1155175,3.87878788 26.8994241,5.61539394 26.8994241,7.75757576 L26.8994241,8.72727273 C26.8994241,9.26278788 26.4534163,9.6969697 25.9033152,9.6969697 Z" id="Shape" fill="#DC4D41" fill-rule="nonzero"></path>
                                    <path d="M27.8955331,9.6969697 C28.4456342,9.6969697 28.891642,9.26278788 28.891642,8.72727273 C28.891642,8.19175758 28.4456342,7.75757576 27.8955331,7.75757576 C23.4964669,7.76242424 19.931642,11.2327273 19.9266615,15.5151515 L19.9266615,15.798303 L21.9188794,15.798303 L21.9188794,15.5151515 C21.9226148,12.3033939 24.5962957,9.70072727 27.8955331,9.6969697 Z" id="Shape" fill="#DC4D41" fill-rule="nonzero"></path>
                                </g>
                            </g>
                        </g>
                    </g>
                </g>
            </g>
        </g>
    </g>
</svg>