<?xml version="1.0" encoding="UTF-8"?>
<svg width="75px" height="100px" viewBox="0 0 75 100" version="1.1" xmlns="http://www.w3.org/2000/svg" xmlns:xlink="http://www.w3.org/1999/xlink">
    <!-- Generator: Sketch 51.2 (57519) - http://www.bohemiancoding.com/sketch -->
    <title>Group 6</title>
    <desc>Created with Sketch.</desc>
    <defs></defs>
    <g id="Icons" stroke="none" stroke-width="1" fill="none" fill-rule="evenodd">
        <g id="Artboard" transform="translate(-522.000000, -49.000000)" fill-rule="nonzero">
            <g id="milk" transform="translate(522.000000, 49.000000)">
                <g id="Group-6">
                    <path d="M55.4513672,0 L24.7025391,0 C22.4552734,0 20.6164063,1.38144531 20.6164063,3.06972656 L20.6164063,9.25957031 C20.6164063,10.9478516 22.4552734,12.3292969 24.7025391,12.3292969 L55.4515625,12.3292969 C57.6988281,12.3292969 59.5376953,10.9478516 59.5376953,9.25957031 L59.5376953,3.06972656 C59.5373047,1.38144531 57.6988281,0 55.4513672,0 Z" id="Shape" fill="#5AAAE7"></path>
                    <path d="M20.8882813,8.32753906 C20.8882813,8.32753906 18.4292969,8.25058594 17.0107422,10.0621094 L0.62421875,30.6296875 L32.1419922,38.2328125 L56.8863281,34.5119141 L59.5375,8.32851563 L20.8882813,8.32753906 Z" id="Shape" fill="#96C8EF"></path>
                    <g id="Group" transform="translate(11.132812, 12.890625)" fill="#5AAAE7">
                        <path d="M8.63886719,5.0609375 C8.30429687,5.0609375 7.96777344,4.95195312 7.6859375,4.72753906 C7.025,4.20078125 6.91601562,3.23769531 7.44257812,2.5765625 L9.01269531,0.605664062 C9.53984375,-0.05546875 10.5027344,-0.1640625 11.1636719,0.362304687 C11.8246094,0.8890625 11.9335937,1.85214844 11.4070312,2.51328125 L9.83691406,4.48417969 C9.53476562,4.86347656 9.08886719,5.0609375 8.63886719,5.0609375 Z" id="Shape"></path>
                        <path d="M1.63476563,13.8523438 C1.30019531,13.8523438 0.963867188,13.7433594 0.681835938,13.5189453 C0.0208984375,12.9921875 -0.0880859375,12.0291016 0.438476563,11.3679688 L4.72539063,5.98691406 C5.25253906,5.32597656 6.21503906,5.21738281 6.87636719,5.74355469 C7.53730469,6.2703125 7.64628906,7.23339844 7.11972656,7.89453125 L2.83261719,13.2755859 C2.53046875,13.6548828 2.08476563,13.8523438 1.63476563,13.8523438 Z" id="Shape"></path>
                    </g>
                    <path d="M2.38515625,29.7701172 L51.8505859,29.7701172 C53.0853516,29.7701172 54.0955078,30.7802734 54.0955078,32.0150391 L54.0955078,97.7550781 C54.0955078,98.9898437 53.0853516,100 51.8505859,100 L2.38515625,100 C1.15039062,100 0.140234375,98.9898437 0.140234375,97.7550781 L0.140234375,32.0150391 C0.140234375,30.7804687 1.15039062,29.7701172 2.38515625,29.7701172 Z" id="Shape" fill="#D1E7F8"></path>
                    <rect id="Rectangle-path" fill="#96C8EF" x="0.140234375" y="72.3673828" width="74.3265625" height="4.90605469"></rect>
                    <path d="M73.9738281,29.8207031 L61.0748047,9.29511719 C60.6890625,8.68164062 60.1285156,8.32871094 59.5384766,8.328125 C59.5380859,8.328125 59.5376953,8.328125 59.5373047,8.328125 C58.9476563,8.328125 58.3871094,8.67988281 58.0013672,9.29257812 L45.1023438,29.7701172 C44.7828125,30.2773438 44.6070313,30.9255859 44.6070313,31.5962891 L44.6070313,97.209375 C44.6070313,98.7505859 45.5166016,100 46.6382813,100 L72.4361328,100 C73.5580078,100 74.4673828,98.7503906 74.4673828,97.209375 L74.4673828,31.6443359 C74.4675781,30.9746094 74.2923828,30.3273437 73.9738281,29.8207031 Z" id="Shape" fill="#5AAAE7"></path>
                    <path d="M59.5373047,8.328125 C58.9476563,8.328125 58.3871094,8.67988281 58.0013672,9.29257812 L45.1023438,29.7701172 C44.7828125,30.2773438 44.6070313,30.9255859 44.6070313,31.5962891 L44.6070313,97.209375 C44.6070313,98.7505859 45.5166016,100 46.6382813,100 L59.5373047,100 L59.5373047,8.328125 Z" id="Shape" fill="#3D9AE2"></path>
                    <path d="M45.1023437,29.7701172 C44.7828125,30.2773438 44.6070312,30.9255859 44.6070312,31.5962891 L44.6070312,97.209375 C44.6070312,98.7505859 45.5166016,100 46.6382812,100 L72.4361328,100 C73.5580078,100 74.4673828,98.7503906 74.4673828,97.209375 L74.4673828,31.6443359 C74.4673828,30.9748047 74.2921875,30.3273438 73.9736328,29.8207031 L45.1023437,29.7701172 Z" id="Shape" fill="#96C8EF"></path>
                    <rect id="Rectangle-path" fill="#5AAAE7" x="44.6080078" y="72.3673828" width="29.8611328" height="4.90605469"></rect>
                    <rect id="Rectangle-path" fill="#006DF0" x="0.140234375" y="48.2755859" width="74.3265625" height="24.0917969"></rect>
                    <rect id="Rectangle-path" fill="#00479B" x="44.6080078" y="48.2755859" width="29.8611328" height="24.0917969"></rect>
                    <g id="Group" transform="translate(4.882812, 52.539062)" fill="#FFFFFF">
                        <path d="M9.63183594,14.5640625 C8.78632812,14.5640625 8.10117188,13.8789063 8.10117188,13.0333984 L8.10117188,7.23203125 L6.9890625,9.1171875 C6.71640625,9.57949219 6.22167969,9.86503906 5.68515625,9.87011719 C5.68027344,9.87011719 5.67539063,9.87011719 5.67070313,9.87011719 C5.13945313,9.87011719 4.64609375,9.59453125 4.3671875,9.14199219 L3.0671875,7.03046875 L3.0671875,13.0333984 C3.0671875,13.8789063 2.38203125,14.5640625 1.53652344,14.5640625 C0.691015625,14.5640625 0.005859375,13.8789063 0.005859375,13.0333984 L0.005859375,1.625 C0.005859375,0.940234375 0.460742187,0.338867188 1.11953125,0.15234375 C1.77773437,-0.034765625 2.48105469,0.239453125 2.83984375,0.822460938 L5.64238281,5.37441406 L8.31328125,0.847070313 C8.66386719,0.252734375 9.36894531,-0.0341796875 10.0347656,0.148046875 C10.7007812,0.329882813 11.1623047,0.934570313 11.1623047,1.62460938 L11.1623047,13.0330078 C11.1625,13.8787109 10.4773438,14.5640625 9.63183594,14.5640625 Z" id="Shape"></path>
                        <path d="M14.3861328,14.5640625 C13.540625,14.5640625 12.8554688,13.8789063 12.8554688,13.0333984 L12.8554688,1.625 C12.8554688,0.779492187 13.540625,0.0943359375 14.3861328,0.0943359375 C15.2316406,0.0943359375 15.9167969,0.779492187 15.9167969,1.625 L15.9167969,13.0333984 C15.9167969,13.8787109 15.2314453,14.5640625 14.3861328,14.5640625 Z" id="Shape"></path>
                        <path d="M23.8496094,14.5640625 L19.0195313,14.5640625 C18.1740234,14.5640625 17.4888672,13.8789063 17.4888672,13.0333984 L17.4888672,1.625 C17.4888672,0.779492187 18.1740234,0.0943359375 19.0195313,0.0943359375 C19.8650391,0.0943359375 20.5501953,0.779492187 20.5501953,1.625 L20.5501953,11.5027344 L23.8496094,11.5027344 C24.6951172,11.5027344 25.3802734,12.1878906 25.3802734,13.0333984 C25.3802734,13.8789063 24.6951172,14.5640625 23.8496094,14.5640625 Z" id="Shape"></path>
                        <path d="M35.8246094,12.2169922 L32.1765625,6.43203125 L35.1347656,2.553125 C35.6474609,1.88085938 35.5179688,0.920507813 34.8457031,0.4078125 C34.1734375,-0.104882812 33.2128906,0.024609375 32.7003906,0.696875 L29.3939453,5.0328125 L29.3939453,1.625 C29.3939453,0.779492187 28.7087891,0.0943359375 27.8632813,0.0943359375 C27.0177734,0.0943359375 26.3326172,0.779492187 26.3326172,1.625 L26.3326172,13.0333984 C26.3326172,13.8789063 27.0177734,14.5640625 27.8632813,14.5640625 C28.7087891,14.5640625 29.3939453,13.8789063 29.3939453,13.0333984 L29.3939453,10.0808594 L30.1957031,9.02949219 L33.2351563,13.8496094 C33.5261719,14.3113281 34.6150391,14.8359375 35.3460938,14.3279297 C36.0404297,13.8457031 36.2755859,12.9320312 35.8246094,12.2169922 Z" id="Shape"></path>
                    </g>
                </g>
            </g>
        </g>
    </g>
</svg>