<?xml version="1.0" encoding="UTF-8"?>
<svg width="93px" height="93px" viewBox="0 0 93 93" version="1.1" xmlns="http://www.w3.org/2000/svg" xmlns:xlink="http://www.w3.org/1999/xlink">
    <!-- Generator: Sketch 50 (54983) - http://www.bohemiancoding.com/sketch -->
    <title>Artboard</title>
    <desc>Created with Sketch.</desc>
    <defs></defs>
    <g id="Artboard" stroke="none" stroke-width="1" fill="none" fill-rule="evenodd">
        <g id="milk" transform="translate(30.000000, 18.000000)" fill-rule="nonzero">
            <polygon id="Shape" fill="#C6C6C6" points="14 57 0 51 0 18 14 23"></polygon>
            <polygon id="Shape" fill="#E6E6E6" points="33 52 14 57 14 23 33 18"></polygon>
            <polygon id="Shape" fill="#E2E2E2" points="26 4 7 8 7 4 26 0"></polygon>
            <polygon id="Shape" fill="#D1D1D1" points="14 23 0 18 7 8 7 8"></polygon>
            <polygon id="Shape" fill="#EAEAEA" points="33 18 14 23 7 8 26 4"></polygon>
            <polygon id="Shape" fill="#3DABEF" points="33 37 14 52 14 37 33 21"></polygon>
            <polygon id="Shape" fill="#2B9DD6" points="0 46 14 52 14 37 0 31"></polygon>
            <path d="M22.215,16.875 C19.998,17.455 19.259,15.452 18.91,14.122 C18.562,12.792 18.226,10.683 20.443,10.103 C22.66,9.523 23.399,11.526 23.747,12.856 C24.095,14.186 24.432,16.295 22.215,16.875 Z" id="Shape" fill="#FFFFFF"></path>
            <polygon id="Shape" fill="#EDEDED" points="22 4.842 24 4.421 24 0.421 22 0.842"></polygon>
            <polygon id="Shape" fill="#EDEDED" points="18 5.684 20 5.263 20 1.263 18 1.684"></polygon>
            <polygon id="Shape" fill="#EDEDED" points="14 6.526 16 6.105 16 2.105 14 2.526"></polygon>
            <polygon id="Shape" fill="#EDEDED" points="10 7.368 12 6.947 12 2.947 10 3.368"></polygon>
        </g>
    </g>
</svg>