<?xml version="1.0" encoding="UTF-8"?>
<svg width="312px" height="158px" viewBox="0 0 312 158" version="1.1" xmlns="http://www.w3.org/2000/svg" xmlns:xlink="http://www.w3.org/1999/xlink">
    <!-- Generator: Sketch 50.2 (55047) - http://www.bohemiancoding.com/sketch -->
    <title>mouth</title>
    <desc>Created with Sketch.</desc>
    <defs></defs>
    <g id="Zilla-Slab/Lato" stroke="none" stroke-width="1" fill="none" fill-rule="evenodd">
        <g id="⟶-Questions-Copy" transform="translate(-32.000000, -323.000000)">
            <g id="mouth" transform="translate(32.000000, 323.000000)">
                <path d="M29.0462894,98.1273811 C26.5972894,64.9493811 122.005289,105.001381 153.327289,106.017381 C178.254289,106.856381 253.339289,101.059381 260.273289,98.4883811 C312.817289,78.9373811 257.402289,153.778381 151.773289,157.788381 C103.353289,159.638381 30.4852894,118.211381 29.0462894,98.1273811" id="Fill-18" fill="#368371"></path>
                <path d="M307.115,25.504 C307.115,25.504 306.465,27.067 305.205,29.134 C305.205,29.134 305.205,29.134 305.205,29.637 C303.905,32.213 302.035,35.34 298.875,38.922 C298.875,39.474 298.265,40.485 297.005,41.545 C294.435,44.619 291.925,48.254 289.415,51.831 C284.985,58.037 279.295,64.238 272.309,70.947 C249.528,92.134 216.071,112.813 169.288,111.749 C163.562,111.749 157.878,111.25 152.194,110.19 C148.373,110.742 144.601,111.25 140.822,111.25 C94.607,112.257 61.147,92.134 38.369,70.947 C31.424,64.238 25.698,57.529 20.661,51.328 C18.101,47.697 15.587,44.116 13.069,40.988 C11.807,39.982 11.202,38.922 11.202,38.413 C8.032,34.783 6.081,31.704 4.862,29.134 C4.862,28.631 4.862,28.631 4.862,28.631 C3.605,26.559 3,25 3,25 C3.605,25 3.605,25 4.215,25.504 C4.215,25.504 4.215,25.504 4.862,25.504 C9.293,26.559 19.404,28.631 33.899,31.206 C34.593,31.206 34.593,31.206 35.203,31.206 C41.493,32.213 49.089,33.776 56.682,34.783 C71.262,37.407 86.405,39.982 100.946,41.545 C115.526,43.612 129.412,45.122 139.565,45.122 C145.203,45.122 151.539,45.122 157.878,44.619 L157.878,45.122 C162.305,45.631 166.728,45.631 170.507,45.631 C181.917,45.122 197.716,43.612 214.117,41.545 C227.439,39.982 240.678,37.407 253.345,35.34 C260.942,34.279 268.496,32.716 274.87,31.704 C275.479,31.704 275.479,31.704 276.089,31.704 C290.665,29.134 300.775,27.067 305.205,26.007 C305.855,26.007 305.855,26.007 305.855,26.007 C306.465,25.504 306.465,25.504 307.115,25.504" id="Fill-19" fill="#471F1F"></path>
                <path d="M272.94,71.0701696 C250.159,92.2571696 216.702,112.93617 169.919,111.87217 C164.193,111.87217 158.509,111.37317 152.825,110.31317 C149.004,110.86517 145.232,111.37317 141.453,111.37317 C95.238,112.38017 61.778,92.2571696 39,71.0701696 C56.703,57.1531696 77.577,46.3061696 101.577,41.6681696 C104.785,41.1111696 107.346,40.6081696 110.427,40.1051696 C126.874,36.9731696 140.196,36.4691696 152.17,36.9731696 L152.17,36.4691696 C165.493,35.4631696 180.598,35.9661696 200.907,39.0451696 C205.288,39.5971696 210.367,40.6081696 214.748,41.6681696 C236.928,46.8141696 256.54,57.6521696 272.94,71.0701696" id="Fill-20" fill="#9F3B3B"></path>
                <path d="M275.798,31.115 C275.193,31.115 275.193,31.115 274.588,31.115 C253.105,32.176 218.951,33.69 188.576,33.69 C177.208,33.69 166.618,33.187 157.458,32.732 L157.458,32.127 L153.64,32.127 C144.139,32.63 132.771,33.133 120.751,33.133 C90.457,33.133 56.307,31.624 34.782,30.563 C34.134,30.563 34.134,30.563 33.525,30.563 C20.248,29.556 12,29 12,29 C14.561,30.563 17.032,31.624 19.593,32.127 C40.382,40.6 101.089,63.903 151.95,63.649 C203.762,65.721 268.206,41.455 289.769,32.679 C292.289,32.176 294.809,31.115 297.319,29.556 C297.319,29.556 289.119,30.109 275.798,31.115" id="Fill-21" fill="#FFFFFE"></path>
                <path d="M306.808,22.3575722 C294.788,22.3575722 258.77,3.13257217 205,0.561572172 C199.173,0.380572172 192.916,3.31057217 186.453,7.07557217 C167.572,18.0795722 144.237,17.5755722 125.245,6.76357217 C118.386,2.85757217 111.745,-0.193427828 105.582,0.00957217213 C51.812,2.58057217 15.795,21.8015722 3.822,21.8015722 C1.867,21.8015722 0.61,21.8015722 0,21.2935722 C0,21.2935722 0,21.8015722 0.61,22.3045722 C1.258,22.8085722 2.561,23.8635722 3.166,24.8795722 C3.822,24.8795722 3.822,24.8795722 4.427,25.3785722 C4.427,25.3785722 4.427,25.3785722 5.032,25.3785722 C6.945,27.4505722 9.46,29.0135722 12.629,29.5175722 C15.19,31.0805722 17.661,32.1415722 20.222,32.6445722 C31.636,35.2195722 44.265,35.2195722 56.936,34.7115722 C75.897,34.7115722 94.21,33.1475722 106.276,37.2865722 C117.601,41.0195722 135.657,42.7885722 152.579,42.9885722 C170.85,42.9885722 191.765,41.9725722 204.391,37.8435722 C216.41,33.7045722 234.727,35.2685722 253.734,35.2685722 C266.363,35.7715722 278.988,35.7715722 290.398,33.1965722 C292.918,32.6935722 295.438,31.6325722 297.948,30.0735722 C301.118,29.5655722 303.678,28.0025722 305.548,25.9355722 C306.198,25.9355722 306.198,25.9355722 306.198,25.9355722 C306.808,25.4325722 306.808,25.4325722 307.498,25.4325722 C308.108,24.4255722 309.368,23.3645722 309.968,22.8565722 C310.578,22.3575722 310.578,21.8505722 310.578,21.8505722 C309.968,22.3575722 308.718,22.3575722 306.808,22.3575722" id="Fill-22" fill="#C96C6B"></path>
                <path d="M290,33.346 C290,33.346 304.92,30.557 310.18,22 L290,33.346" id="Fill-23" fill="#C96C6B"></path>
                <path d="M310.766486,21.5994632 C310.766486,21.5994632 310.766486,22.1064632 310.156486,22.6054632 L310.146486,22.6634632 L307.776486,25.1814632 C307.596486,26.2284632 293.196486,46.9354632 293.196486,46.9354632 L293.196486,46.9334632 C292.116486,48.4384632 291.036486,49.9754632 289.936486,51.5084632 C266.551486,78.3934632 190.739486,105.024463 152.767486,104.726463 C117.654486,104.484463 51.1264859,80.2854632 24.7054859,54.7374632 C23.1664859,52.8294632 4.52748591,29.6144632 4.38548591,24.6774632 L0.18848591,21.0424632 L0.36248591,21.5344632 C0.20648591,21.2554632 0.18848591,21.0424632 0.18848591,21.0424632 C-2.98051409,18.4224632 33.4764859,137.910463 134.891486,139.317463 C145.217486,139.477463 165.913486,141.137463 176.158486,139.877463 C292.366486,125.405463 313.936486,18.9754632 310.766486,21.5994632" id="Fill-24" fill="#B45D64"></path>
            </g>
        </g>
    </g>
</svg>