<?xml version="1.0" encoding="UTF-8"?>
<svg width="29px" height="29px" viewBox="0 0 29 29" version="1.1" xmlns="http://www.w3.org/2000/svg" xmlns:xlink="http://www.w3.org/1999/xlink">
    <!-- Generator: Sketch 50.2 (55047) - http://www.bohemiancoding.com/sketch -->
    <title>Group 8</title>
    <desc>Created with Sketch.</desc>
    <defs>
        <rect id="path-1" x="0" y="0" width="25" height="25" rx="5"></rect>
        <filter x="-14.0%" y="-10.0%" width="128.0%" height="128.0%" filterUnits="objectBoundingBox" id="filter-2">
            <feOffset dx="0" dy="1" in="SourceAlpha" result="shadowOffsetOuter1"></feOffset>
            <feGaussianBlur stdDeviation="1" in="shadowOffsetOuter1" result="shadowBlurOuter1"></feGaussianBlur>
            <feColorMatrix values="0 0 0 0 0.121568627   0 0 0 0 0.192156863   0 0 0 0 0.290196078  0 0 0 0.13 0" type="matrix" in="shadowBlurOuter1"></feColorMatrix>
        </filter>
    </defs>
    <g id="Page-1" stroke="none" stroke-width="1" fill="none" fill-rule="evenodd">
        <g id="⟶-More" transform="translate(-18.000000, -283.000000)">
            <g id="General" transform="translate(20.000000, 200.000000)">
                <g id="my-friends" transform="translate(0.000000, 84.000000)">
                    <g id="Group-8">
                        <g id="Rectangle-3">
                            <use fill="black" fill-opacity="1" filter="url(#filter-2)" xlink:href="#path-1"></use>
                            <use fill="#278AB5" fill-rule="evenodd" xlink:href="#path-1"></use>
                        </g>
                        <path d="M15.25,14.1666667 L9.75,14.1666667 C8.23154167,14.1666667 7,15.3982083 7,16.9166667 L7,18.75 C7,19.0034583 7.20533333,19.2083333 7.45833333,19.2083333 L17.5416667,19.2083333 C17.7946667,19.2083333 18,19.0034583 18,18.75 L18,16.9166667 C18,15.3982083 16.7684583,14.1666667 15.25,14.1666667 Z M12.0416667,13.25 L12.5,13.25 C14.0184583,13.25 15.25,12.1677361 15.25,10.8333333 L15.25,8.41666667 C15.25,7.08226389 14.0184583,6 12.5,6 L12.0416667,6 C10.52275,6 9.29166667,7.08226389 9.29166667,8.41666667 L9.29166667,10.8333333 C9.29166667,12.1677361 10.52275,13.25 12.0416667,13.25 Z" id="Shape" fill="#FFFFFF" fill-rule="nonzero"></path>
                    </g>
                </g>
            </g>
        </g>
    </g>
</svg>