<?xml version="1.0" encoding="UTF-8"?>
<svg width="100px" height="100px" viewBox="0 0 100 100" version="1.1" xmlns="http://www.w3.org/2000/svg" xmlns:xlink="http://www.w3.org/1999/xlink">
    <!-- Generator: Sketch 51.2 (57519) - http://www.bohemiancoding.com/sketch -->
    <title>toothbrush (3)</title>
    <desc>Created with Sketch.</desc>
    <defs></defs>
    <g id="Icons" stroke="none" stroke-width="1" fill="none" fill-rule="evenodd">
        <g id="Artboard" transform="translate(-601.000000, -484.000000)">
            <g id="toothbrush-(3)" transform="translate(601.000000, 484.000000)">
                <circle id="Oval" fill="#32BEA6" fill-rule="nonzero" cx="50" cy="50" r="50"></circle>
                <path d="M98,61.9131185 L75.2159665,39 L57.6217682,39 C55.066813,39 52.9273042,40.7758549 52.3248257,43.1571937 L52.3144801,43.1571937 C52.2625493,43.376498 52.2106185,43.5958024 52.1793789,43.8257149 C52.1690333,43.8987483 52.1586877,43.9613775 52.1586877,44.0242108 C52.1379965,44.1912901 52.1274481,44.3583694 52.1274481,44.5254486 L52.8128942,45.2149822 L52.1274481,45.2149822 L52.1274481,55.5241209 L52.0028953,55.5241209 L50.8188323,55.4927043 L50.424077,55.1377373 L44.8674805,50.1347429 L44.1716889,49.5078386 L43.8288644,49.1942844 L43.6418323,49.0378134 C43.4756943,48.8915425 43.2990079,48.7558798 43.1121787,48.6408215 C42.3644562,48.1497839 41.471084,47.8886588 40.5882602,47.8782546 L39.6535057,47.8574461 L35.9248331,47.7634003 L21,47.3976211 L21,54.5942706 L64.1611957,98 C80.8760189,92.8588949 93.8479696,79.1220808 98,61.9131185 Z" id="Shape" fill="#000000" fill-rule="nonzero" opacity="0.1"></path>
                <g id="Group" transform="translate(52.000000, 45.000000)" fill="#EBF0F3" fill-rule="nonzero">
                    <rect id="Rectangle-path" x="0.0812" y="0.0111724138" width="1.024" height="11.7964138"></rect>
                    <rect id="Rectangle-path" x="1.7504" y="0.0111724138" width="1.024" height="11.7964138"></rect>
                    <rect id="Rectangle-path" x="3.4236" y="0.0111724138" width="1.024" height="11.7964138"></rect>
                    <rect id="Rectangle-path" x="5.0988" y="0.0111724138" width="1.024" height="11.7964138"></rect>
                    <rect id="Rectangle-path" x="6.768" y="0.0111724138" width="1.024" height="11.7964138"></rect>
                    <rect id="Rectangle-path" x="8.4372" y="0.0111724138" width="1.024" height="11.7964138"></rect>
                    <rect id="Rectangle-path" x="10.1164" y="0.0111724138" width="1.024" height="11.7964138"></rect>
                    <rect id="Rectangle-path" x="11.7876" y="0.0111724138" width="1.024" height="11.7964138"></rect>
                    <rect id="Rectangle-path" x="13.4548" y="0.0111724138" width="1.024" height="11.7964138"></rect>
                    <rect id="Rectangle-path" x="15.134" y="0.0111724138" width="1.024" height="11.7964138"></rect>
                    <rect id="Rectangle-path" x="16.8052" y="0.0111724138" width="1.024" height="11.7964138"></rect>
                    <rect id="Rectangle-path" x="18.4826" y="0.0111724138" width="1.024" height="11.7964138"></rect>
                    <rect id="Rectangle-path" x="20.1516" y="0.0111724138" width="1.024" height="11.7964138"></rect>
                    <rect id="Rectangle-path" x="21.8208" y="0.0111724138" width="1.024" height="11.7964138"></rect>
                </g>
                <path d="M75.8853804,55.8979537 L63.1088029,55.5770965 L55.6632043,55.3902076 L51.940405,55.296659 L50.7536514,55.26624 L50.3650165,54.9064216 L44.8148231,49.7941662 L44.1211501,49.1551604 L43.7742124,48.8357616 L43.5942664,48.6703326 C43.4266675,48.5217799 43.2485432,48.3855198 43.0623222,48.2621772 C42.3180457,47.7685989 41.4310674,47.496912 40.5444938,47.4906615 L39.6139964,47.4675348 L35.8911971,47.3739862 L21,47 L21,54.3451298 L35.8911971,53.9711437 L39.6139964,53.8775951 L40.0959443,53.8655108 L40.1712423,53.9282238 L40.8944677,54.5316021 L46.6800686,59.3590446 L47.4680665,60.0159685 C48.1267219,60.55205 48.9327346,60.8879083 49.7634419,60.9758315 C49.8672803,60.9877074 49.9715235,60.9939579 50.0755644,60.9985416 L50.3117816,61 L50.5445577,60.9941662 L51.0099076,60.9824987 L51.9406075,60.9591636 L55.6634067,60.865615 L63.1090053,60.6787261 L75.8855828,60.3578689 C77.0616084,60.3282834 78,59.338418 78,58.127703 C77.9997976,56.9174046 77.061406,55.9275393 75.8853804,55.8979537 Z" id="Shape" fill="#3A556A" fill-rule="nonzero"></path>
                <path d="M58.4765657,39 C55.4521212,39 53,41.6863656 53,45 L70.5234343,45 C73.5478788,45 76,42.3136344 76,39 L58.4765657,39 Z" id="Shape" fill="#E56353" fill-rule="nonzero"></path>
                <path d="M74.9070707,39 C74.3006061,41.5899886 72.1737374,43.5128924 69.620404,43.5128924 L53.189899,43.5128924 C53.0779798,43.9909624 53,44.4834188 53,45 L70.5236364,45 C73.5480808,45 76,42.3137334 76,39 L74.9070707,39 Z" id="Shape" fill="#D15241" fill-rule="nonzero"></path>
                <circle id="Oval-2" stroke="#E73835" stroke-width="7" cx="50.5" cy="50" r="38"></circle>
                <rect id="Rectangle" fill="#E73835" transform="translate(52.000000, 50.759145) rotate(135.000000) translate(-52.000000, -50.759145) " x="48.5" y="10.759145" width="7" height="80"></rect>
            </g>
        </g>
    </g>
</svg>