<?xml version="1.0" encoding="UTF-8"?>
<svg width="101px" height="100px" viewBox="0 0 101 100" version="1.1" xmlns="http://www.w3.org/2000/svg" xmlns:xlink="http://www.w3.org/1999/xlink">
    <!-- Generator: Sketch 51.2 (57519) - http://www.bohemiancoding.com/sketch -->
    <title>orange-juice</title>
    <desc>Created with Sketch.</desc>
    <defs></defs>
    <g id="Icons" stroke="none" stroke-width="1" fill="none" fill-rule="evenodd">
        <g id="Artboard" transform="translate(-766.000000, -278.000000)" fill-rule="nonzero">
            <g id="orange-juice" transform="translate(766.000000, 278.000000)">
                <polygon id="Shape" fill="#EBEBEC" points="11.3637797 89.8698039 5.7361306 13.3903922 59.7126569 13.3903922 54.0854016 89.8698039"></polygon>
                <polygon id="Shape" fill="#CACACD" points="32.7243938 89.8698039 32.7243938 13.3903922 59.7126569 13.3903922 54.0854016 89.8698039"></polygon>
                <polygon id="Shape" fill="#64DDE0" points="25.8770663 42.737451 16.1111735 7.26078431 1.56362963 11.2282353 0 5.54176471 20.2555205 0.0178431373 31.5862242 41.1786275"></polygon>
                <polygon id="Shape" fill="#F7BA35" points="54.0854016 89.8698039 11.3637797 89.8698039 7.62146394 39.0101961 57.8271267 39.0101961"></polygon>
                <polygon id="Shape" fill="#FD9702" points="54.0854016 89.8698039 32.7243938 89.8698039 32.7241969 39.0101961 57.8271267 39.0101961"></polygon>
                <path d="M35.5478655,65.522549 L35.5478655,67.4876471 C35.5478655,85.4052941 50.1845965,99.9823529 68.1755906,99.9823529 C86.1665848,99.9823529 100.803316,85.4052941 100.803316,67.4876471 L100.803316,65.522549 L35.5478655,65.522549 Z" id="Shape" fill="#FBDA35"></path>
                <g id="Group" transform="translate(44.888889, 65.490196)" fill="#F7BA35">
                    <path d="M23.2865049,34.4921569 C41.277499,34.4921569 55.91423,19.915098 55.91423,1.99745098 L55.91423,0.0323529412 L23.2865049,0.0323529412 C23.2865049,0.0323529412 23.2865049,24.3735294 23.2865049,34.4921569 Z" id="Shape"></path>
                    <path d="M5.5435809,16.8892157 C2.53011891,13.3335294 0.572530214,8.86372549 0.156323587,3.96294118 L18.52277,3.96294118 L5.5435809,16.8892157 Z" id="Shape"></path>
                    <path d="M21.3133626,6.74196078 L21.3133626,25.0335294 C16.3923197,24.6190196 11.9044152,22.6694118 8.33417349,19.6684314 L21.3133626,6.74196078 Z" id="Shape"></path>
                </g>
                <g id="Group" transform="translate(70.089669, 69.411765)" fill="#FD9702">
                    <path d="M0.0590643275,2.82039216 L13.0384503,15.7466667 C9.46820858,18.7478431 4.98010721,20.697451 0.0590643275,21.1119608 L0.0590643275,2.82039216 Z" id="Shape"></path>
                    <path d="M15.828846,12.9676471 L2.84965692,0.041372549 L21.2161033,0.041372549 C20.8000936,4.94215686 18.8425049,9.41176471 15.828846,12.9676471 Z" id="Shape"></path>
                </g>
            </g>
        </g>
    </g>
</svg>