<?xml version="1.0" encoding="UTF-8"?>
<svg width="77px" height="95px" viewBox="0 0 77 95" version="1.1" xmlns="http://www.w3.org/2000/svg" xmlns:xlink="http://www.w3.org/1999/xlink">
    <!-- Generator: Sketch 51.2 (57519) - http://www.bohemiancoding.com/sketch -->
    <title>peanut</title>
    <desc>Created with Sketch.</desc>
    <defs></defs>
    <g id="Icons" stroke="none" stroke-width="1" fill="none" fill-rule="evenodd">
        <g id="Artboard" transform="translate(-385.000000, -58.000000)" fill-rule="nonzero">
            <g id="peanut" transform="translate(376.000000, 49.000000)">
                <g transform="translate(47.516660, 56.301270) rotate(30.000000) translate(-47.516660, -56.301270) translate(21.516660, 6.301270)">
                    <path d="M51.8720703,74.1046875 L51.8720703,74.1964844 C51.8679687,75.2505859 51.8007812,76.2882812 51.6742188,77.3097656 C51.1849609,81.2875 49.7902344,84.9839844 47.7066406,88.1931641 C47.0888672,89.1433594 46.4119141,90.0505859 45.6779297,90.9089844 C42.1548828,95.0355469 37.359375,98.0429688 31.8974609,99.3212891 C31.0023437,99.5292969 30.0869141,99.6943359 29.1552734,99.8064453 C28.1970703,99.9246094 27.2224609,99.9878906 26.2335937,99.9980469 C25.3080078,100.00625 24.3904297,99.9673828 23.4873047,99.8798828 C16.5939453,99.2111328 10.4509766,95.8021484 6.18769531,90.7560547 C5.46191406,89.8957031 4.79101562,88.9882812 4.17949219,88.0382812 C2.10390625,84.8128906 0.723632812,81.1021484 0.256835937,77.1203125 C0.152929687,76.2333984 0.09375,75.334375 0.08359375,74.4228516 C0.081640625,74.2822266 0.081640625,74.1394531 0.08359375,73.9988281 C0.1,69.409375 1.31308594,65.1013672 3.42519531,61.3681641 C4.153125,60.0796875 4.9890625,58.8603516 5.92070312,57.7226562 C5.99414062,57.6289062 6.07148437,57.5390625 6.14707031,57.4474609 C9.00761719,54.0466797 9.65996094,49.3818359 7.98203125,45.4734375 C7.55800781,44.4804687 6.98105469,43.5386719 6.253125,42.6761719 C6.24707031,42.6679687 6.23886719,42.6597656 6.2328125,42.6517578 C3.66582031,39.6302734 1.78007812,36.0113281 0.815625,32.0314453 C0.570898437,31.0384766 0.3875,30.0232422 0.2671875,28.9894531 C0.144921875,27.9740234 0.081640625,26.9423828 0.081640625,25.8945312 C0.081640625,22.7017578 0.660742187,19.6414062 1.71875,16.8175781 C2.17539062,15.5962891 2.71972656,14.4199219 3.34785156,13.2964844 C7.44589844,5.95058594 15.0181641,0.806640625 23.8402344,0.0869140625 C24.4621094,0.0359375 25.0880859,0.007421875 25.7220703,0.0013671875 C26.8759766,-0.0087890625 28.0136719,0.0564453125 29.1310547,0.19296875 C29.9058594,0.28671875 30.6703125,0.4171875 31.4226562,0.580273437 C38.8337891,2.18691406 45.109375,6.99863281 48.6833984,13.4861328 C49.3052734,14.6177734 49.8455078,15.7982422 50.2960937,17.0214844 C51.2808594,19.6964844 51.8333984,22.5773437 51.8701172,25.5763672 C51.884375,26.8017578 51.8150391,28.0066406 51.6621094,29.1892578 C51.5357422,30.2126953 51.3460937,31.2199219 51.0994141,32.2027344 C50.1310547,36.0705078 48.2939453,39.5935547 45.8066406,42.5519531 C45.7353516,42.6375 45.6638672,42.7232422 45.5966797,42.8109375 C44.9035156,43.6835937 44.3509766,44.6316406 43.9412109,45.6246094 C42.346875,49.4882812 42.9035156,54.0287109 45.7210938,57.3478516 C45.878125,57.5333984 46.0330078,57.7189453 46.1818359,57.9085937 C47.1054688,59.0564453 47.93125,60.2837891 48.646875,61.5804687 C50.7017578,65.2908203 51.8720703,69.5621094 51.8720703,74.1046875 Z" id="Shape" fill="#AA6100"></path>
                    <path d="M51.8720703,74.1046875 L51.8720703,74.1964844 C51.8679687,75.2505859 51.8007812,76.2882812 51.6742187,77.3097656 C51.1849609,81.2875 49.7902344,84.9839844 47.7066406,88.1931641 C47.0888672,89.1433594 46.4119141,90.0505859 45.6779297,90.9089844 C42.1548828,95.0355469 37.359375,98.0429688 31.8974609,99.3212891 C31.0023437,99.5292969 30.0869141,99.6943359 29.1552734,99.8064453 C22.5269531,98.9929687 16.6367187,95.6431641 12.5082031,90.7560547 C11.7824219,89.8957031 11.1115234,88.9882812 10.5,88.0382812 C8.42441406,84.8128906 7.04414062,81.1021484 6.57734375,77.1203125 C6.4734375,76.2333984 6.41425781,75.334375 6.40410156,74.4228516 C6.40214844,74.2822266 6.40214844,74.1394531 6.40410156,73.9988281 C6.42050781,69.409375 7.63359375,65.1013672 9.74570312,61.3681641 C10.4736328,60.0796875 11.3095703,58.8603516 12.2412109,57.7226562 C12.3146484,57.6289062 12.3919922,57.5390625 12.4675781,57.4474609 C15.328125,54.0466797 15.9804687,49.3818359 14.3025391,45.4734375 C13.8785156,44.4804687 13.3015625,43.5386719 12.5736328,42.6761719 C12.5675781,42.6679687 12.559375,42.6597656 12.5533203,42.6517578 C9.98632812,39.6302734 8.10058594,36.0113281 7.13613281,32.0314453 C6.89140625,31.0384766 6.70800781,30.0232422 6.58769531,28.9894531 C6.46542969,27.9740234 6.40214844,26.9423828 6.40214844,25.8945312 C6.40214844,22.7017578 6.98125,19.6414062 8.03925781,16.8175781 C8.49589844,15.5962891 9.04023437,14.4199219 9.66835937,13.2964844 C13.6052734,6.23808594 20.7515625,1.21230469 29.1310547,0.192773437 C29.9058594,0.286523437 30.6703125,0.416992187 31.4226562,0.580078125 C38.8337891,2.18671875 45.109375,6.9984375 48.6833984,13.4859375 C49.3052734,14.6175781 49.8455078,15.7980469 50.2960937,17.0212891 C51.2808594,19.6962891 51.8333984,22.5771484 51.8701172,25.5761719 C51.884375,26.8015625 51.8150391,28.0064453 51.6621094,29.1890625 C51.5357422,30.2125 51.3460937,31.2197266 51.0994141,32.2025391 C50.1310547,36.0703125 48.2939453,39.5933594 45.8066406,42.5517578 C45.7353516,42.6373047 45.6638672,42.7230469 45.5966797,42.8107422 C44.9035156,43.6833984 44.3509766,44.6314453 43.9412109,45.6244141 C42.346875,49.4880859 42.9035156,54.0285156 45.7210938,57.3476562 C45.878125,57.5332031 46.0330078,57.71875 46.1818359,57.9083984 C47.1054687,59.05625 47.93125,60.2835937 48.646875,61.5802734 C50.7017578,65.2908203 51.8720703,69.5621094 51.8720703,74.1046875 Z" id="Shape" fill="#CC7400"></path>
                    <path d="M51.6742188,77.3097656 C51.8005859,76.2882813 51.8679688,75.2505859 51.8720703,74.1964844 C49.2816406,73.5271484 46.6728516,72.9589844 44.0515625,72.4904297 C43.5978516,72.409375 43.2529297,72.0355469 43.2181641,71.5759766 C42.9550781,68.1107422 42.16875,64.7480469 40.9101562,61.6693359 C40.609375,60.9339844 41.2193359,60.1484375 42.0035156,60.2755859 C44.1726563,60.6279297 46.3892578,61.0595703 48.6464844,61.5802734 C47.9308594,60.2835938 47.1050781,59.05625 46.1814453,57.9083984 C43.9345703,57.4585938 41.6757812,57.0820312 39.4115234,56.7808594 C38.6230469,56.6759766 37.9402344,56.1794922 37.5898438,55.4654297 C36.2804688,52.7974609 36.0169922,49.5111328 36.8048828,46.6419922 C37.1212891,45.4898438 38.2416016,44.7449219 39.4253906,44.90625 C40.9070313,45.1082031 42.4123047,45.346875 43.9408203,45.6246094 C44.3505859,44.6316406 44.903125,43.6835938 45.5962891,42.8109375 C44.1677734,42.534375 42.7357422,42.2863281 41.3005859,42.0685547 C40.3427734,41.9232422 39.7841797,40.8982422 40.2007813,40.0236328 C41.3931641,37.5210938 42.2544922,34.7873047 42.7648437,31.8882813 C42.9044922,31.0945313 43.6736328,30.5742188 44.4654297,30.7238281 C46.6865234,31.1431641 48.8996094,31.6353516 51.0992187,32.2027344 C51.3458984,31.2199219 51.5355469,30.2128906 51.6619141,29.1892578 C42.6265625,26.8824219 43.290625,28.1875 43.3189453,25.9617187 C43.3625,22.6509766 42.9316406,19.4308594 42.0595703,16.3853516 C41.9119141,15.8699219 42.3492187,15.3791016 42.8777344,15.4697266 C45.2955078,15.8837891 47.7724609,16.3957031 50.2958984,17.0214844 C49.8453125,15.7982422 49.3050781,14.6177734 48.6832031,13.4861328 C46.1351562,12.9126953 43.5710937,12.4330078 40.9974609,12.0503906 C40.6416016,11.9976562 40.3390625,11.7703125 40.1835938,11.4460937 C38.7572266,8.47597656 36.8630859,5.74648437 34.5357422,3.359375 C33.5550781,2.35214844 32.5111328,1.42460937 31.4224609,0.58046875 C28.9144531,0.03828125 26.3488281,-0.118554688 23.8400391,0.087109375 C19.4582031,2.75839844 15.6724609,6.84257812 13.0832031,11.3677734 C12.8259766,11.8173828 12.7089844,11.6621094 9.74335938,12.1162109 C7.46601563,12.4648437 5.32929688,12.8664062 3.34746094,13.2966797 C2.71953125,14.4201172 2.17519531,15.5964844 1.71835938,16.8177734 C6.43046875,15.6667969 10.3587891,15.1167969 10.3380859,15.1201172 C10.7671875,15.0548828 11.1054688,15.4759766 10.9513672,15.8816406 C8.83417969,21.4578125 9.03574219,25.9744141 9.03769531,25.9541016 C9.03789063,26.6695313 8.52070313,27.2802734 7.81523438,27.4009766 C5.06347656,27.8716797 2.5390625,28.4183594 0.266601563,28.9896484 C0.386914063,30.0234375 0.5703125,31.0386719 0.815039063,32.0316406 C2.93789063,31.4927734 5.29199219,30.9726562 7.85253906,30.51875 C8.63515625,30.3800781 9.39765625,30.9103516 9.53183594,31.6939453 C10.0242188,34.5683594 10.8818359,37.3289062 12.075,39.8626953 C12.4902344,40.7443359 11.9173828,41.7703125 10.9521484,41.9058594 C10.5488281,41.9625 10.1457031,42.0214844 9.74277344,42.0830078 C8.53789063,42.2664062 7.37363281,42.4664062 6.25234375,42.6763672 C6.98027344,43.5388672 7.55722656,44.4806641 7.98125,45.4736328 C8.74589844,45.3371094 9.52871094,45.2085937 10.3279297,45.0882813 C11.1515625,44.9632813 12.0056641,44.8449219 12.8882813,44.7351563 C14.0587891,44.5896484 15.1619141,45.315625 15.4939453,46.4476563 C16.3285156,49.2929688 16.1146484,52.5779297 14.8558594,55.2720703 C14.5087891,56.0148437 13.8005859,56.5271484 12.9865234,56.6251953 C10.6001953,56.9123047 8.25410156,57.2763672 5.91992188,57.7230469 C4.98808594,58.8607422 4.15234375,60.0798828 3.42441406,61.3685547 C5.54472656,60.8914063 7.85488281,60.4470703 10.3279297,60.071875 L10.3464844,60.0689453 C11.1355469,59.9488281 11.7492188,60.7470703 11.4240234,61.4761719 C10.1701172,64.2873047 9.17890625,67.6292969 8.99648438,71.3572266 C8.97324219,71.83125 8.62402344,72.2273437 8.15605469,72.3060547 C5.19570313,72.8044922 2.49335938,73.3898437 0.082421875,73.9990234 C0.08046875,74.1396484 0.08046875,74.2824219 0.082421875,74.4230469 C0.092578125,75.334375 0.151757813,76.2335937 0.255664063,77.1205078 C2.57578125,76.515625 5.18417969,75.9298828 8.04472656,75.4287109 C8.61464844,75.3287109 9.1515625,75.7212891 9.23261719,76.2939453 C9.6625,79.3386719 10.5875,82.4294922 11.9382813,85.4105469 C12.2177734,86.0277344 11.8164063,86.7386719 11.1451172,86.8310547 C10.6773438,86.8955078 10.2099609,86.9630859 9.74238281,87.0351562 C7.77890625,87.3349609 5.92167969,87.6753906 4.17832031,88.0382813 C4.79003906,88.9884766 5.46074219,89.8957031 6.18652344,90.7560547 C7.50761719,90.4970703 8.89003906,90.2564453 10.3273438,90.0384766 C11.3361328,89.8863281 12.390625,89.7425781 13.4876953,89.6125 C13.8771484,89.5662109 14.2550781,89.7527344 14.4650391,90.0837891 C15.4554688,91.6451172 16.5644531,93.1460938 17.78125,94.5605469 C19.5671875,96.6339844 21.4919922,98.4220703 23.4859375,99.8798828 C26.2185547,100.145117 29.0873047,99.9755859 31.8960938,99.3212891 C32.19375,99.0521484 32.4894531,98.7748047 32.7808594,98.4894531 C35.1728516,96.1472656 37.2355469,93.3966797 38.8847656,90.4291016 C39.0865234,90.0658203 39.4941406,89.8660156 39.9056641,89.9240234 C41.7923828,90.1908203 43.7175781,90.5167969 45.6765625,90.9087891 C46.4105469,90.0503906 47.0875,89.1431641 47.7052734,88.1929688 C45.7640625,87.7732422 43.8146484,87.4099609 41.8589844,87.1023438 C41.2210938,87.0019531 40.846875,86.3355469 41.0783203,85.7324219 C42.2238281,82.7449219 42.9597656,79.6460938 43.2152344,76.5941406 C43.265625,75.9929688 43.8195313,75.5675781 44.4126953,75.6785156 C46.7849609,76.121875 49.2074219,76.6603516 51.6742188,77.3097656 Z M28.7912109,4.84550781 C28.8300781,3.84199219 30.0144531,3.33847656 30.7701172,3.99980469 C32.5775391,5.58105469 34.2435547,7.45820312 35.6662109,9.64140625 C36.1570312,10.3945312 35.5648437,11.3832031 34.6693359,11.3060547 C32.9974609,11.1621094 31.3675781,11.0578125 29.6398438,10.9914062 C29.0451172,10.9685547 28.5794922,10.4716797 28.6011719,9.87695312 C28.6708984,7.978125 28.7351562,6.28789062 28.7912109,4.84550781 Z M27.9513672,30.4396484 C27.9730469,29.6332031 28.6482422,28.9982422 29.4544922,29.028125 C29.8839844,29.0439453 30.3126953,29.0626953 30.7396484,29.0847656 C31.5775391,29.1275391 32.3013672,28.4771484 32.3441406,27.6351563 C32.3869141,26.7910156 31.7365234,26.0734375 30.8945312,26.0306641 C30.1986328,25.9958984 29.5007812,25.9675781 28.8011719,25.9462891 C28.4013672,25.9339844 28.0861328,25.6015625 28.0978516,25.2015625 C28.2074219,21.4347656 28.3210937,17.9136719 28.4291016,14.7564453 C28.4427734,14.3572266 28.7765625,14.0429688 29.1759766,14.0574219 C31.9525391,14.1564453 34.8552734,14.3722656 37.8636719,14.7365234 C38.1322266,14.7691406 38.3638672,14.9486328 38.4574219,15.2021484 C39.7451172,18.6898438 40.3351562,22.4126953 40.2580078,26.1158203 C40.2490234,26.5480469 39.8630859,26.8730469 39.4347656,26.8154297 C38.6511719,26.7097656 37.8664063,26.6126953 37.0806641,26.5259766 C36.2427734,26.4341797 35.4841797,27.0398438 35.3925781,27.8796875 C35.3007813,28.7175781 35.9064453,29.4740234 36.7462891,29.5658203 C37.3228516,29.6294922 37.8988281,29.6984375 38.4746094,29.7720703 C39.3021484,29.8783203 39.8705078,30.6583984 39.7203125,31.4789063 C39.1097656,34.8126953 37.9931641,37.9228516 36.4332031,40.5978516 C36.1496094,41.0841797 35.6068359,41.359375 35.0462891,41.3066406 C33.4769531,41.1587891 31.3113281,41.0148438 29.1316406,40.9421875 C28.3382813,40.915625 27.7154297,40.2539063 27.7328125,39.4603516 C27.7992188,36.3810547 27.8728516,33.3578125 27.9513672,30.4396484 Z M25.7423828,4.56953125 C25.6833984,6.07792969 25.6154297,7.86523437 25.5414063,9.88515625 C25.5203125,10.4603516 25.05,10.9146484 24.4744141,10.9207031 C22.6453125,10.9402344 20.8169922,11.0085938 18.9914063,11.1242188 C18.0640625,11.1830078 17.4988281,10.1222656 18.0707031,9.39023438 C19.8328125,7.13339844 21.875,5.18496094 24.0429688,3.65390625 C24.7726563,3.13808594 25.7771484,3.67617187 25.7423828,4.56953125 Z M14.6597656,14.9101563 C14.7679688,14.6820312 14.9882812,14.5279297 15.2394531,14.5025391 C18.1232422,14.2115234 21.2697266,14.0210938 24.6412109,13.9929688 C25.0525391,13.9894531 25.3837891,14.3314453 25.3699219,14.7423828 C25.2619141,17.9072266 25.1482422,21.4333984 25.0386719,25.2033203 C25.0275391,25.5921875 24.7099609,25.9015625 24.3212891,25.90625 C20.2521484,25.9542969 16.4347656,26.2328125 12.9097656,26.6589844 C12.4810547,26.7107422 12.096875,26.38125 12.0966797,25.9492188 C12.0941406,22.0955078 13.0355469,18.3375 14.6597656,14.9101563 Z M13.8302734,29.6402344 C16.8259766,29.2908203 20.028125,29.0535156 23.4080078,28.9800781 C24.2363281,28.9621094 24.9125,29.6412109 24.8904297,30.4695313 C24.8130859,33.3896484 24.7400391,36.4113281 24.6732422,39.4908203 C24.6564453,40.2654297 24.0339844,40.8921875 23.2595703,40.9089844 C21.2509766,40.9533203 19.24375,41.0556641 17.2404297,41.215625 C16.6826172,41.2603516 16.1460938,40.9863281 15.8652344,40.5023438 C14.2753906,37.765625 13.1578125,34.6412109 12.5724609,31.3378906 C12.4265625,30.5160156 13.0007813,29.7371094 13.8302734,29.6402344 Z M17.096875,59.2837891 C18.7054687,59.1519531 20.3886719,59.0523438 22.1388672,58.9957031 C23.3621094,58.9560547 24.3751953,59.9425781 24.3693359,61.1666016 C24.3570313,63.6662109 24.3541016,66.2314453 24.3644531,68.740625 C24.3693359,69.9113281 23.4388672,70.8671875 22.26875,70.9041016 C19.3152344,70.9972656 16.3664063,71.2158203 13.4314453,71.5580078 C12.6972656,71.6435547 12.0685547,71.0246094 12.1451172,70.2896484 C12.5498047,66.4085938 13.9158203,63.0246094 15.3896484,60.3816406 C15.7402344,59.7533203 16.3796875,59.3423828 17.096875,59.2837891 Z M14.2451172,74.5419922 C16.7337891,74.2669922 19.4316406,74.0626953 22.3107422,73.9742188 C23.4576172,73.9388672 24.4132813,74.8513672 24.4310547,75.9986328 C24.4742188,78.7802734 24.5353516,81.3664062 24.6144531,83.7554687 C24.6521484,84.8958984 23.7550781,85.8447266 22.6142578,85.8769531 C20.7894531,85.9285156 18.9664063,86.0267578 17.1472656,86.1732422 C16.3019531,86.2414062 15.5087891,85.7724609 15.1373047,85.0101562 C13.8775391,82.4255859 12.9417969,79.6964844 12.4386719,76.9507813 C12.2240234,75.7767578 13.059375,74.6730469 14.2451172,74.5419922 Z M18.9056641,89.1185547 C20.5650391,89.0121094 22.2962891,88.9421875 24.0916016,88.9179688 C24.5029297,88.9125 24.8455078,89.2345703 24.8681641,89.6453125 C25.0189453,92.3759766 25.2009766,94.7498047 25.4160156,96.7580078 C25.4511719,97.0847656 25.0779297,97.2949219 24.8171875,97.0949219 C22.4462891,95.2753906 20.2339844,92.9623047 18.3375,90.3435547 C17.9810547,89.8509766 18.2988281,89.1574219 18.9056641,89.1185547 Z M25.9808594,51.9873047 C25.1287109,51.975 24.4457031,52.6539063 24.4353516,53.4980469 C24.4171875,54.9253906 23.3414063,55.8845703 22.1310547,55.9242188 C21.8177734,55.934375 21.5044922,55.9462891 21.1914062,55.959375 C19.653125,56.0234375 18.4535156,54.6259766 18.7539062,53.1158203 C19.1609375,51.0714844 19.1634766,48.9378906 18.7603516,46.909375 C18.4751953,45.4742188 19.5339844,44.1189453 20.9957031,44.0552734 C21.3523437,44.0398438 21.7119141,44.0259766 22.0742187,44.0138672 C23.4388672,43.9689453 24.5607422,45.0818359 24.5371094,46.4470703 C24.5318359,46.7542969 24.5265625,47.0617188 24.5210937,47.3697266 C24.5087891,48.2138672 25.1816406,48.9089844 26.0257812,48.9232422 L26.0523438,48.9232422 C26.8841797,48.9232422 27.5652344,48.2544922 27.5794922,47.4185547 C27.5847656,47.0832031 27.5902344,46.7478516 27.5960938,46.4125 C27.6191406,45.0660156 28.7472656,44.0011719 30.0925781,44.0615234 C30.5136719,44.0804688 30.9375,44.1021484 31.3642578,44.1263672 C32.8109375,44.2091797 33.8646484,45.5396484 33.5873047,46.9619141 C33.1921875,48.9878906 33.2003906,51.1164063 33.6111328,53.1548828 C33.9205078,54.6896484 32.69375,56.0935547 31.1298828,56.0117188 C30.6794922,55.9880859 30.2291016,55.9673828 29.7785156,55.9498047 C28.4935547,55.8990234 27.4785156,54.8443359 27.4917969,53.5583984 C27.4917969,53.5503906 27.4919922,53.5425781 27.4919922,53.5347656 C27.5017578,52.6908203 26.8269531,51.9974609 25.9808594,51.9873047 Z M27.4273438,61.1763672 C27.4332031,59.9515625 28.4539062,58.9773438 29.6775391,59.0271484 C31.5039063,59.1017578 33.3837891,59.2269531 35.3113281,59.4111328 C36.0335937,59.4800781 36.6816406,59.8988281 37.0189453,60.5412109 C38.3705078,63.1160156 39.321875,65.990625 39.8294922,69.0099609 C40.0681641,70.4298828 38.8861328,71.6847656 37.4556641,71.5210938 C34.8488281,71.2228516 32.2712891,71.0244141 29.5082031,70.9230469 C28.3480469,70.8806641 27.4275391,69.9351562 27.4226563,68.7742188 C27.4121094,66.2609375 27.4152344,63.6912109 27.4273438,61.1763672 Z M30.6416016,96.3015625 C30.1402344,96.7935547 29.6289062,96.9220703 29.1126953,97.1992188 C28.8833984,97.3222656 28.6017578,97.1748047 28.5693359,96.9164063 C28.3158203,94.8994141 28.1068359,92.7384766 27.9371094,89.7734375 C27.9113281,89.3238281 28.2759766,88.9457031 28.7261719,88.9597656 C30.6537109,89.0201172 32.6425781,89.1371094 34.6869141,89.3212891 C35.2564453,89.3726563 35.5800781,90.0056641 35.2773438,90.490625 C33.9457031,92.6234375 32.3849609,94.5966797 30.6416016,96.3015625 Z M38.0335938,85.0546875 C37.6914062,85.9087891 36.8279297,86.4339844 35.9125,86.3419922 C33.9203125,86.1417969 31.8058594,85.9945313 29.659375,85.9125 C28.5808594,85.8712891 27.7158203,85.0097656 27.6791016,83.9308594 C27.5972656,81.5275391 27.5347656,78.9160156 27.490625,76.0984375 C27.4720703,74.9173828 28.4486328,73.9609375 29.6287109,74.0083984 C32.4035156,74.1205078 35.3013672,74.35 38.3039062,74.7269531 C39.4228516,74.8673828 40.2265625,75.8742187 40.1021484,76.9949219 C39.8050781,79.6720703 39.0919922,82.4115234 38.0335938,85.0546875 Z" id="Shape" fill="#FFA733"></path>
                    <g id="Group" transform="translate(0.000000, 11.914062)" fill="#FF9811">
                        <path d="M6.44667969,60.6960938 C4.14882813,61.1201172 2.0203125,61.5953125 0.0833984375,62.0845703 C0.07109375,62.9320312 0.124609375,64.0798828 0.256640625,65.2060547 C2.13847656,64.7146484 4.20996094,64.2376953 6.45058594,63.8054688 C6.38789062,62.7816406 6.38632813,61.740625 6.44667969,60.6960938 Z" id="Shape"></path>
                        <path d="M6.8484375,18.7878906 C6.74238281,18.2230469 6.6546875,17.6523438 6.5875,17.0751953 C6.53457031,16.6287109 6.49160156,16.1800781 6.46113281,15.7275391 C4.23066406,16.1414062 2.16113281,16.6001953 0.2671875,17.0751953 C0.3875,18.1089844 0.570898438,19.1242188 0.815625,20.1171875 C2.65644531,19.6501953 4.67285156,19.1976563 6.8484375,18.7878906 Z" id="Shape"></path>
                        <path d="M10.4326172,0.0998046875 C8.5,0.3734375 5.87265625,0.833984375 3.34765625,1.38222656 C2.71972656,2.50566406 2.17539062,3.68203125 1.71855469,4.90332031 C3.81855469,4.39160156 6.1265625,3.90234375 8.62011719,3.48027344 C9.1203125,2.35214844 9.71425781,1.22949219 10.4326172,0.0998046875 Z" id="Shape"></path>
                        <path d="M11.6886719,29.6650391 C11.1363281,30.128125 11.1171875,29.8509766 6.253125,30.7619141 C6.98105469,31.6244141 7.55800781,32.5662109 7.98203125,33.5591797 C8.74667969,33.4226562 9.52949219,33.2941406 10.3287109,33.1738281 C11.1523438,33.0494141 12.0066406,32.93125 12.8894531,32.8210937 C13.2830078,32.7720703 13.6683594,32.8210937 14.0189453,32.9537109 C13.2503906,31.4078125 12.6552734,30.9279297 11.6886719,29.6650391 Z" id="Shape"></path>
                        <path d="M5.92070312,45.8085938 C4.98886719,46.9462891 4.153125,48.1654297 3.42519531,49.4541016 C5.48691406,48.9902344 10.0875,48.1160156 10.5386719,48.1451172 C11.7496094,46.2699219 12.440625,45.6558594 13.1095703,44.6933594 C12.8730469,44.740625 10.0560547,45.0169922 5.92070312,45.8085938 Z" id="Shape"></path>
                        <path d="M9.87597656,75.1005859 C8.98007813,75.2226562 6.46328125,75.6486328 4.17949219,76.1240234 C4.79121094,77.0742188 5.46191406,77.9814453 6.18769531,78.8417969 C8.13828125,78.4595703 10.2103516,78.1253906 11.7638672,77.9181641 C11.1111328,77.0714844 10.4494141,76.0949219 9.87597656,75.1005859 Z" id="Shape"></path>
                    </g>
                </g>
            </g>
        </g>
    </g>
</svg>