<?xml version="1.0" encoding="UTF-8"?>
<svg width="34px" height="34px" viewBox="0 0 34 34" version="1.1" xmlns="http://www.w3.org/2000/svg" xmlns:xlink="http://www.w3.org/1999/xlink">
    <!-- Generator: Sketch 50.2 (55047) - http://www.bohemiancoding.com/sketch -->
    <title>popcorn</title>
    <desc>Created with Sketch.</desc>
    <defs></defs>
    <g id="Page-1" stroke="none" stroke-width="1" fill="none" fill-rule="evenodd">
        <g id="⟶-Questions" transform="translate(-172.000000, -221.000000)" fill-rule="nonzero">
            <g id="popcorn" transform="translate(172.000000, 221.000000)">
                <path d="M34,9.000163 C33.9972499,8.03429049 33.2593621,7.24293349 32.3279561,7.20686045 C32.2700599,7.08146726 32.2121636,6.95247427 32.1502146,6.83008092 C32.9221888,6.24676262 33.0916801,5.12534855 32.5287114,4.32536702 C31.965815,3.52538549 30.8836616,3.34974504 30.1116874,3.93313834 C30.0750681,3.96081183 30.0395342,3.98991025 30.0051583,4.02050859 C29.9246825,3.9449127 29.8471015,3.86631697 29.7643099,3.79372091 C29.8837209,3.54758429 29.9463213,3.27602404 29.9472621,3.00056401 C29.9494332,2.00851792 29.1750708,1.20246172 28.2177562,1.20021184 C27.6563072,1.19893691 27.1290894,1.47942167 26.8029164,1.95302093 C26.5006979,1.8302526 26.1918938,1.7216585 25.8765763,1.62723863 C25.7902385,0.643067112 24.9503809,-0.0820684862 24.00081,0.00747664816 C23.3169105,0.0719731436 22.734836,0.550297152 22.5185935,1.22578545 C22.263271,1.2377848 22.0091064,1.25338395 21.7589946,1.28578219 C21.4831913,0.336483771 20.5170475,-0.201461999 19.6009116,0.0843474712 C18.8699714,0.312335083 18.3691688,1.0094222 18.3680109,1.80055422 C18.3703267,1.96944504 18.3958011,2.13713593 18.4438549,2.29852716 L18.4189596,2.31112647 C17.7301389,1.61928907 16.6305442,1.6369881 15.962928,2.35079932 C15.6495645,2.68580611 15.4739941,3.13390676 15.473198,3.60045641 C15.473198,3.63945429 15.4818825,3.67605231 15.4841983,3.71445022 C15.2955289,3.64087922 15.0957868,3.60233131 14.8942355,3.60045641 C13.9381512,3.5970816 13.1605321,4.3975131 13.1572754,5.38828427 C13.1564794,5.62189657 13.1998292,5.85348399 13.2847196,6.06992223 C12.3635178,6.32228352 11.8141547,7.30083034 12.0577532,8.25545347 C12.1792629,8.7316026 12.4848828,9.13478069 12.9026043,9.36974292 C12.6906316,10.2293462 12.5817143,11.1127982 12.5783852,12 L33.4210374,12 C33.4169847,11.4764534 33.376385,10.9539568 33.2994553,10.436485 C33.7392497,10.0996033 33.9991316,9.56683221 34,9.000163 Z" id="Shape" fill="#FFD884"></path>
                <polygon id="Shape" fill="#E3472C" points="31.4613158 34 14.5386842 34 12 12 34 12"></polygon>
                <polygon id="Shape" fill="#F6F6E7" points="21 34 20.4444444 12 16 12 17.6666667 34"></polygon>
                <g id="Group" transform="translate(12.000000, 12.000000)" fill="#DD1C4B">
                    <path d="M9.386171,17.1118885 L9.51702602,21.928518 L13.0857993,21.928518 L13.150632,19.5447279 C11.820223,18.8496 10.5599257,18.0350951 9.386171,17.1118885 Z" id="Shape"></path>
                    <path d="M1.10126394,4.40699672 L0.00029739777,0.000649180328 L2.60847584,21.928518 L5.94825279,21.928518 L5.21189591,12.8786557 C3.26840149,10.3516852 1.87026022,7.47033443 1.10126394,4.40699672 Z" id="Shape"></path>
                    <path d="M16.7241636,21.0716 L16.6545725,21.928518 L19.9943494,21.928518 C18.8850558,21.7170295 17.792342,21.4306689 16.7241636,21.0716 Z" id="Shape"></path>
                </g>
                <path d="M17,25 L17.6841669,34 L21,34 L20.8784195,29.2099088 C19.4216634,27.9799624 18.1187483,26.5656603 17,25 Z" id="Shape" fill="#FFD884"></path>
                <path d="M30,12 L25.5010685,12 L25,31.4782692 C26.0842425,32.0778892 27.2141773,32.5867863 28.3786976,33 L30,12 Z" id="Shape" fill="#F6F6E7"></path>
                <path d="M25.0712768,31 L25,34 L28.9234919,34 L29,32.9215686 C27.6459049,32.3996914 26.3321072,31.7570806 25.0712768,31 Z" id="Shape" fill="#FFD884"></path>
                <polyline id="Shape" fill="#E3472C" points="13 16 11.6152 34 2.3848 34 1 16"></polyline>
                <polygon id="Shape" fill="#DD1C4B" points="1 16 2.53866667 34 5 34 5 16"></polygon>
                <polygon id="Shape" fill="#F6F6E7" points="6.88586656e-16 14 13 14 13 17 0 17"></polygon>
                <polygon id="Shape" fill="#FFD884" points="2.07841556e-16 14 3 14 3 17 0 17"></polygon>
                <path d="M9.67612449,23.1240953 C8.82470719,22.868445 7.88777769,23.0130319 7.17925877,23.5094785 L5.41004069,24.7484827 C4.33406879,25.5025555 2.80180496,25.4101617 1.84680523,24.5337147 L1,23.7651287 L1.33206862,27.6505763 L4.40597163,27.9749087 C5.32906494,28.0955794 6.25540938,27.7756759 6.85263389,27.1300092 C7.57151105,26.3524291 8.75159463,26.0603255 9.81040361,26.3979446 L11.7163202,27.0051821 L12,23.6800937 L9.67612449,23.1240953 Z" id="Shape" fill="#F6F6E7"></path>
                <polygon id="Shape" fill="#2BB3CE" points="8 14 6.15384615 6 0 6 0 8.46153846 4.30769231 8.46153846 5.53846154 14"></polygon>
                <polygon id="Shape" fill="#88D0EF" points="4.92307692 7.23076923 6.48492308 14 8 14 6.15384615 6 0 6 0 7.23076923"></polygon>
                <path d="M4,24.768237 C3.1955229,24.8738581 2.392299,24.5605018 1.82563397,23.9200052 L1,23 L1.32376646,27.65092 L4,28 L4,24.768237 Z" id="Shape" fill="#FFD884"></path>
            </g>
        </g>
    </g>
</svg>