<?xml version="1.0" encoding="UTF-8"?>
<svg width="93px" height="93px" viewBox="0 0 93 93" version="1.1" xmlns="http://www.w3.org/2000/svg" xmlns:xlink="http://www.w3.org/1999/xlink">
    <!-- Generator: Sketch 50 (54983) - http://www.bohemiancoding.com/sketch -->
    <title>Artboard</title>
    <desc>Created with Sketch.</desc>
    <defs></defs>
    <g id="Artboard" stroke="none" stroke-width="1" fill="none" fill-rule="evenodd">
        <g id="popcorn" transform="translate(20.000000, 20.000000)" fill-rule="nonzero">
            <path d="M53,14.2502581 C52.9957499,12.7209599 51.8553779,11.467978 50.4159322,11.4108624 C50.3264562,11.2123232 50.2369801,11.0080843 50.1412408,10.8142948 C51.3342918,9.89070748 51.5962329,8.11513521 50.7261903,6.84849779 C49.8562596,5.58186036 48.1838407,5.30376297 46.9907897,6.22746903 C46.9341961,6.2712854 46.8792802,6.3173579 46.8261538,6.36580527 C46.7017821,6.24611177 46.5818842,6.12166853 46.4539335,6.00672478 C46.6384778,5.61700845 46.7352238,5.18703807 46.7366777,4.75089302 C46.7400331,3.18015337 45.5432912,1.90389772 44.063805,1.90033541 C43.1961112,1.89831677 42.38132,2.34241764 41.8772344,3.09228314 C41.4101696,2.89789995 40.9329268,2.7259593 40.4456179,2.57646117 C40.3121868,1.01818959 39.0142251,-0.12994177 37.5467063,0.0118380263 C36.4897707,0.113957477 35.590201,0.871303825 35.2560081,1.94082696 C34.8614188,1.95982593 34.468619,1.98452458 34.0820825,2.0358218 C33.6558411,0.53276597 32.1627098,-0.318981498 30.7468634,0.133550163 C29.6172285,0.494530548 28.8432608,1.59825182 28.8414713,2.85087751 C28.8450504,3.11828798 28.8844198,3.38379855 28.9586849,3.63933467 L28.9202102,3.65928358 C27.8556691,2.56387435 26.1562956,2.59189783 25.1245251,3.72209892 C24.6402361,4.25252635 24.3689,4.96201904 24.3676697,5.70072265 C24.3676697,5.7624693 24.3810911,5.82041615 24.3846702,5.88121285 C24.0930901,5.76472543 23.7843978,5.70369124 23.4729094,5.70072265 C21.9953246,5.69537919 20.7935496,6.96272908 20.7885166,8.53145009 C20.7872863,8.90133624 20.8542815,9.26801632 20.9854757,9.61071019 C19.5618002,10.0102822 18.7127845,11.559648 19.0892549,13.0711347 C19.2770427,13.8250374 19.7493643,14.4634028 20.3949339,14.8354263 C20.0673398,16.1964648 19.899013,17.5952638 19.8938681,19 L52.1052397,19 C52.0989764,18.1710513 52.0362313,17.343765 51.91734,16.5244345 C52.5970223,15.9910385 52.9986579,15.1474843 53,14.2502581 Z" id="Shape" fill="#FFD884"></path>
            <polygon id="Shape" fill="#E3472C" points="49.0765789 53 22.9234211 53 19 19 53 19"></polygon>
            <polygon id="Shape" fill="#F6F6E7" points="33 53 32.1111111 19 25 19 27.6666667 53"></polygon>
            <g id="Group" transform="translate(19.000000, 19.000000)" fill="#DD1C4B">
                <path d="M14.5485651,26.1118299 L14.7513903,33.4617498 L20.2829888,33.4617498 L20.3834796,29.8242131 C18.3213457,28.763485 16.3678848,27.5205939 14.5485651,26.1118299 Z" id="Shape"></path>
                <path d="M1.70695911,6.72484212 L0.000460966543,0.000990614582 L4.04313755,33.4617498 L9.21979182,33.4617498 L8.07843866,19.6521423 C5.0660223,15.79612 2.89890335,11.3993322 1.70695911,6.72484212 Z" id="Shape"></path>
                <path d="M25.9224535,32.1541386 L25.8145874,33.4617498 L30.9912416,33.4617498 C29.2718364,33.1390296 27.5781301,32.7020585 25.9224535,32.1541386 Z" id="Shape"></path>
            </g>
            <path d="M27,39 L28.1972921,53 L34,53 L33.787234,45.5487471 C31.237911,43.635497 28.9578095,41.4354715 27,39 Z" id="Shape" fill="#FFD884"></path>
            <path d="M47,19 L39.8017096,19 L39,48.6811721 C40.734788,49.5948788 42.5426836,50.370341 44.4059161,51 L47,19 Z" id="Shape" fill="#F6F6E7"></path>
            <path d="M39.1247343,47 L39,51 L45.8661108,51 L46,49.5620915 C43.6303335,48.8662551 41.3311877,48.0094408 39.1247343,47 Z" id="Shape" fill="#FFD884"></path>
            <polyline id="Shape" fill="#E3472C" points="20 24 17.8074 52 3.1926 52 1 24"></polyline>
            <polygon id="Shape" fill="#DD1C4B" points="1 24 3.69266667 52 8 52 8 24"></polygon>
            <polygon id="Shape" fill="#F6F6E7" points="1.05936409e-15 22 20 22 20 26 0 26"></polygon>
            <polygon id="Shape" fill="#FFD884" points="2.77122075e-16 22 4 22 4 26 0 26"></polygon>
            <path d="M15.1972946,35.1985524 C13.8040663,34.7895121 12.2709089,35.020851 11.1115144,35.8151656 L8.21643022,37.7975724 C6.45574893,39.0040889 3.94840812,38.8562587 2.38568129,37.4539436 L1,36.2242059 L1.54338502,42.440922 L6.57340812,42.9598539 C8.08392445,43.152927 9.59976081,42.6410815 10.5770373,41.6080147 C11.7533817,40.3638865 13.6844276,39.8965208 15.4170241,40.4367114 L18.5357968,41.4082913 L19,36.0881499 L15.1972946,35.1985524 Z" id="Shape" fill="#F6F6E7"></path>
            <polygon id="Shape" fill="#2BB3CE" points="12 21 9.23076923 9 0 9 0 12.6923077 6.46153846 12.6923077 8.30769231 21"></polygon>
            <polygon id="Shape" fill="#88D0EF" points="7.38461538 10.8461538 9.72738462 21 12 21 9.23076923 9 0 9 0 10.8461538"></polygon>
            <path d="M5,37.8291792 C3.92736387,37.998173 2.85639866,37.4968028 2.10084529,36.4720084 L1,35 L1.43168862,42.441472 L5,43 L5,37.8291792 Z" id="Shape" fill="#FFD884"></path>
        </g>
    </g>
</svg>