<?xml version="1.0" encoding="UTF-8"?>
<svg width="149px" height="86px" viewBox="0 0 149 86" version="1.1" xmlns="http://www.w3.org/2000/svg" xmlns:xlink="http://www.w3.org/1999/xlink">
    <!-- Generator: Sketch 50.2 (55047) - http://www.bohemiancoding.com/sketch -->
    <title>Group 4</title>
    <desc>Created with Sketch.</desc>
    <defs>
        <path d="M0,4.99544665 C0,2.23653765 2.23656957,0 5.00010254,0 L143.999897,0 C146.761378,0 149,2.23413232 149,4.99544665 L149,86 L0,86 L0,4.99544665 Z" id="path-1"></path>
    </defs>
    <g id="Zilla-Slab/Lato" stroke="none" stroke-width="1" fill="none" fill-rule="evenodd">
        <g id="⟶-My-Courses" transform="translate(-201.000000, -167.000000)">
            <g id="Grid" transform="translate(20.000000, 162.000000)">
                <g id="2" transform="translate(176.000000, 0.000000)">
                    <g id="Group-4" transform="translate(5.000000, 5.000000)">
                        <mask id="mask-2" fill="white">
                            <use xlink:href="#path-1"></use>
                        </mask>
                        <use id="Mask-Copy-3" fill="#FFFD91" xlink:href="#path-1"></use>
                        <g id="feeding-bottle" mask="url(#mask-2)">
                            <g transform="translate(74.500000, 43.500000) scale(-1, 1) translate(-74.500000, -43.500000) translate(66.000000, 19.000000)">
                                <path d="M15.3419052,15 L1.65835543,15 C0.742722242,15 0,15.7126168 0,16.5918193 L0,47.4714633 C0,48.3504157 4.68866218,49 8.37686447,49 C12.0648062,49 17,48.3504157 17,47.4714633 L17,16.5918193 C17,15.7126168 16.2575384,15 15.3419052,15 Z" id="SVGCleanerId_0" fill="#BAD6D8" fill-rule="nonzero"></path>
                                <path d="M2,25 L2,47.5905815 C2,48.401077 6.1371531,49 9.39140594,49 C12.6454039,49 17,48.401077 17,47.5905815 L17,25 L2,25 Z" id="Shape" fill="#FFFFFF" fill-rule="nonzero"></path>
                                <g id="Group" opacity="0.4" stroke-width="1" fill="none" fill-rule="evenodd" transform="translate(0.000000, 15.000000)">
                                    <g fill="#BAD6D8" fill-rule="nonzero" id="SVGCleanerId_0_1_">
                                        <path d="M15.2724394,0.0565421245 L1.74790909,0.0565421245 C0.842916667,0.0565421245 0.108825758,0.76618315 0.108825758,1.64171429 L0.108825758,32.3924103 C0.108825758,33.2676923 4.743,33.9145641 8.38834091,33.9145641 C12.0334242,33.9145641 16.9112652,33.2676923 16.9112652,32.3924103 L16.9112652,1.64171429 C16.9112652,0.76618315 16.1774318,0.0565421245 15.2724394,0.0565421245 Z"></path>
                                    </g>
                                </g>
                                <g id="Group" opacity="0.5" stroke-width="1" fill="none" fill-rule="evenodd" transform="translate(0.000000, 15.000000)">
                                    <path d="M1.85072727,0.0565421245 C0.8925,0.0565421245 0.115227273,0.76618315 0.115227273,1.64171429 L0.115227273,32.3924103 C0.115227273,33.2676923 5.022,33.9145641 8.88177273,33.9145641 L8.88177273,0.0565421245 L1.85072727,0.0565421245 Z" id="Shape" fill="#D3E5E5" fill-rule="nonzero"></path>
                                </g>
                                <g id="Group" stroke-width="1" fill="none" fill-rule="evenodd" transform="translate(2.000000, 0.000000)">
                                    <path d="M9.015375,4.94946429 C8.71125,1.06741071 4.194,1.18620536 3.93075,5.11620536 C3.702875,8.52160714 0.03425,8.67964286 0.03425,14.0405357 C0.03425,14.0405357 0.599875,14.8830804 1.29775,14.8830804 L11.72225,14.8830804 C12.42,14.8830804 12.985375,14.0405357 12.985375,14.0405357 C12.9855,8.71794643 9.28725,8.41714286 9.015375,4.94946429 Z" id="Shape" fill="#D8DBBA" fill-rule="nonzero"></path>
                                    <path d="M6.39175,0.0332142857 C4.6675,0.0332142857 3.26975,1.15473214 3.26975,3.21910714 C3.26975,4.40852679 4.6675,6.9571875 6.39175,6.9571875 C8.11575,6.9571875 9.5135,4.48808036 9.5135,3.21910714 C9.513375,1.15459821 8.11575,0.0332142857 6.39175,0.0332142857 Z" id="Shape" fill="#D8DBBA" fill-rule="nonzero"></path>
                                </g>
                                <path d="M9.9207651,1.37941151 C9.51955142,1.12910058 9.0365514,1 8.51682845,1 C7.12670958,1 6,1.92220531 6,3.6196943 C6,3.94917966 6.12784562,4.40558899 6.35042398,4.86607947 C6.7891075,5.77223223 10.5921102,1.79841023 9.9207651,1.37941151 Z" id="Shape" fill="#F4F4EF" fill-rule="nonzero"></path>
                                <path d="M15.5166353,12.6240254 C14.6560026,12.4594814 11.6376066,12 8.46043667,12 C5.24942967,12 2.22335523,12.4594814 1.48336472,12.6240254 C0.370385681,12.8712648 0,16 0,16 C0,16 4.2932724,15.2738049 8.5,15.2736638 C12.7067276,15.2736638 17,16 17,16 C17,16 16.8742823,12.883401 15.5166353,12.6240254 Z" id="Shape" fill="#FCFCFC" fill-rule="nonzero"></path>
                                <g id="Group" stroke-width="1" fill="none" fill-rule="evenodd" transform="translate(5.000000, 18.000000)">
                                    <path d="M3.47378182,0.0992712975 C3.20243636,0.0992712975 2.98250909,0.329268676 2.98250909,0.612865007 L2.98250909,26.7409699 C2.98250909,27.024692 3.20256364,27.2546894 3.47378182,27.2546894 C3.745,27.2546894 3.9648,27.0248178 3.9648,26.7409699 L3.9648,0.612865007 C3.9648,0.329268676 3.74512727,0.0992712975 3.47378182,0.0992712975 Z" id="Shape" fill="#8DB4B5" fill-rule="nonzero"></path>
                                    <path d="M6.45183636,26.8696828 L0.495345455,26.8696828 C0.223872727,26.869557 0.00381818182,26.9851848 0.0042,27.1278637 C0.0042,27.2706684 0.224254545,27.3862962 0.495345455,27.3862962 L6.45183636,27.3862962 C6.72305455,27.3862962 6.94310909,27.2706684 6.94310909,27.1279895 C6.94323636,26.9853106 6.72305455,26.8696828 6.45183636,26.8696828 Z" id="Shape" fill="#8DB4B5" fill-rule="nonzero"></path>
                                    <path d="M6.45183636,22.8662438 L0.495345455,22.8662438 C0.223872727,22.866118 0.00381818182,22.9818716 0.0042,23.1244246 C0.0042,23.2672294 0.224254545,23.3828571 0.495345455,23.3828571 L6.45183636,23.3828571 C6.72305455,23.3826055 6.94310909,23.2671035 6.94310909,23.1244246 C6.94323636,22.9819974 6.72305455,22.8662438 6.45183636,22.8662438 Z" id="Shape" fill="#8DB4B5" fill-rule="nonzero"></path>
                                    <path d="M6.45183636,18.8626789 L0.495345455,18.8626789 C0.223872727,18.8625531 0.00381818182,18.9781809 0.0042,19.1209856 C0.0042,19.2636645 0.224254545,19.3794181 0.495345455,19.3794181 L6.45183636,19.3794181 C6.72305455,19.3792923 6.94310909,19.2637903 6.94310909,19.1209856 C6.94323636,18.9783067 6.72305455,18.8626789 6.45183636,18.8626789 Z" id="Shape" fill="#8DB4B5" fill-rule="nonzero"></path>
                                    <path d="M6.45183636,14.8592398 L0.495345455,14.8592398 C0.223872727,14.859114 0.00381818182,14.9748676 0.0042,15.1175465 C0.0042,15.2603512 0.224254545,15.3758532 0.495345455,15.3758532 L6.45183636,15.3758532 C6.72305455,15.3758532 6.94310909,15.2600996 6.94310909,15.1175465 C6.94310909,14.9749934 6.72305455,14.8592398 6.45183636,14.8592398 Z" id="Shape" fill="#8DB4B5" fill-rule="nonzero"></path>
                                    <path d="M6.45183636,10.846616 L0.495345455,10.846616 C0.223872727,10.8464902 0.00381818182,10.962118 0.0042,11.1047969 C0.0042,11.2477274 0.224254545,11.3632294 0.495345455,11.3632294 L6.45183636,11.3632294 C6.72305455,11.3632294 6.94310909,11.2476016 6.94310909,11.1047969 C6.94323636,10.9623696 6.72305455,10.846616 6.45183636,10.846616 Z" id="Shape" fill="#8DB4B5" fill-rule="nonzero"></path>
                                    <path d="M6.45183636,6.84305111 L0.495345455,6.84305111 C0.223872727,6.84292529 0.00381818182,6.9586789 0.0042,7.10148362 C0.0042,7.2440367 0.224254545,7.3597903 0.495345455,7.3597903 L6.45183636,7.3597903 C6.72305455,7.35966448 6.94310909,7.24416252 6.94310909,7.10148362 C6.94323636,6.95880472 6.72305455,6.84305111 6.45183636,6.84305111 Z" id="Shape" fill="#8DB4B5" fill-rule="nonzero"></path>
                                    <path d="M6.45183636,2.83948624 L0.495345455,2.83948624 C0.223872727,2.83936042 0.00381818182,2.95511402 0.0042,3.09779292 C0.0042,3.24047182 0.224254545,3.35609961 0.495345455,3.35609961 L6.45183636,3.35609961 C6.72305455,3.35609961 6.94310909,3.240346 6.94310909,3.09779292 C6.94323636,2.95536566 6.72305455,2.83948624 6.45183636,2.83948624 Z" id="Shape" fill="#8DB4B5" fill-rule="nonzero"></path>
                                </g>
                            </g>
                        </g>
                    </g>
                </g>
            </g>
        </g>
    </g>
</svg>