<?xml version="1.0" encoding="UTF-8"?>
<svg width="16px" height="16px" viewBox="0 0 16 16" version="1.1" xmlns="http://www.w3.org/2000/svg" xmlns:xlink="http://www.w3.org/1999/xlink">
    <!-- Generator: Sketch 51.2 (57519) - http://www.bohemiancoding.com/sketch -->
    <title></title>
    <desc>Created with Sketch.</desc>
    <defs></defs>
    <g id="Screens" stroke="none" stroke-width="1" fill="none" fill-rule="evenodd">
        <g id="⟶-Questions-Copy" transform="translate(-126.000000, -450.000000)" fill="#FFFFFF">
            <g id="Answers">
                <g id="Group-3" transform="translate(63.000000, 176.000000)">
                    <g id="Group-2" transform="translate(42.000000, 265.000000)">
                        <path d="M35.9609026,9.87503129 C36.0585584,9.87503129 36.1415664,9.90921105 36.2099254,9.97757011 C36.2782845,10.0459292 36.3124642,10.1289371 36.3124642,10.226593 L36.3124642,16.085954 C36.3124642,16.1836099 36.2782845,16.2666178 36.2099254,16.3349768 C36.1415664,16.4033359 36.0585584,16.4375156 35.9609026,16.4375156 L30.1015415,16.4375156 C30.0038857,16.4375156 29.9208778,16.4033359 29.8525187,16.3349768 C29.7841596,16.2666178 29.7499799,16.1836099 29.7499799,16.085954 L29.7499799,14.7090041 C29.7499799,14.6113483 29.7841596,14.5283404 29.8525187,14.4599813 C29.9208778,14.3916222 30.0136511,14.3574425 30.1308384,14.3574425 L33.0898157,14.5039265 C32.6210668,13.8008032 32.0107168,13.2441639 31.2587653,12.8340086 C30.5068139,12.4238533 29.6913863,12.2187757 28.8124821,12.2187757 C27.8749844,12.2187757 27.0107286,12.4482672 26.2197149,12.9072506 C25.4287011,13.3662341 24.8037028,13.9912324 24.3447193,14.7822462 C23.8857359,15.5732599 23.6562444,16.4375156 23.6562444,17.3750134 C23.6562444,18.3125112 23.8857359,19.1767669 24.3447193,19.9677807 C24.8037028,20.7587944 25.4287011,21.3837928 26.2197149,21.8427762 C27.0107286,22.3017596 27.8749844,22.5312511 28.8124821,22.5312511 C29.4570118,22.5312511 30.0722447,22.4189468 30.6581808,22.1943379 C31.2441169,21.9697289 31.761694,21.652347 32.2109115,21.2421917 C32.2890365,21.1835981 32.3720439,21.1543013 32.4599344,21.1543013 C32.5478248,21.1543013 32.6308322,21.1933635 32.7089572,21.2714885 L33.7050486,22.2675799 C33.7636422,22.3261735 33.792939,22.4091809 33.792939,22.5166027 C33.792939,22.6240245 33.7538767,22.7070319 33.6757518,22.7656256 C33.0312221,23.3515617 32.2890365,23.8105451 31.4491946,24.1425754 C30.6093527,24.4746057 29.7304485,24.6406211 28.8124821,24.6406211 C27.5038913,24.6406211 26.2929569,24.3134733 25.1796783,23.6591781 C24.0663997,23.0048829 23.1826126,22.1259788 22.5283174,21.0224657 C21.8740222,19.9189525 21.5468744,18.708018 21.5468744,17.3896618 C21.5468744,16.0713056 21.8740222,14.8554882 22.5283174,13.7422096 C23.1826126,12.628931 24.0663997,11.7451439 25.1796783,11.0908487 C26.2929569,10.4365535 27.5038913,10.1094057 28.8124821,10.1094057 C29.9062294,10.1094057 30.9316175,10.3340147 31.8886467,10.7832323 C32.8456758,11.2324498 33.6659863,11.8574486 34.3495783,12.6582278 L34.2323911,10.2558898 C34.2323911,10.1387025 34.2665708,10.0459292 34.3349299,9.97757011 C34.403289,9.90921105 34.4862969,9.87503129 34.5839527,9.87503129 L35.9609026,9.87503129 Z" id=""></path>
                    </g>
                </g>
            </g>
        </g>
    </g>
</svg>