<?xml version="1.0" encoding="UTF-8"?>
<svg width="23px" height="30px" viewBox="0 0 23 30" version="1.1" xmlns="http://www.w3.org/2000/svg" xmlns:xlink="http://www.w3.org/1999/xlink">
    <!-- Generator: Sketch 49.3 (51167) - http://www.bohemiancoding.com/sketch -->
    <title>share</title>
    <desc>Created with Sketch.</desc>
    <defs></defs>
    <g id="Zilla-Slab/Lato" stroke="none" stroke-width="1" fill="none" fill-rule="evenodd" opacity="0.700000048">
        <g id="⟶-Congrats" transform="translate(-25.000000, -612.000000)" fill="#FFFFFF" fill-rule="nonzero">
            <path d="M46.4404144,623.312732 L41.7497249,623.312732 C41.1403075,623.312732 40.6416932,623.81602 40.6416932,624.431149 C40.6416932,625.046279 41.1403075,625.549566 41.7497249,625.549566 L45.313872,625.549566 L45.313872,638.784193 L27.2160635,638.784193 L27.2160635,625.549566 L31.1495762,625.549566 C31.7589937,625.549566 32.257608,625.046279 32.257608,624.431149 C32.257608,623.81602 31.7589937,623.312732 31.1495762,623.312732 L26.0895863,623.312732 C25.4801688,623.312732 25,623.87194 25,624.48707 L25,639.995768 C25,640.610898 25.4801688,641.020962 26.0895863,641.020962 L46.4404144,641.020962 C47.0498319,641.020962 47.5300007,640.610898 47.5300007,639.995768 L47.5300007,624.48707 C47.5300007,623.87194 47.0498319,623.312732 46.4404144,623.312732 Z M36.0803175,631.700862 C36.6897349,631.700862 37.1883492,631.197574 37.1883492,630.582444 L37.1883492,615.42789 L41.9159297,619.677876 C42.1190906,619.864257 42.3960985,619.95748 42.6545958,619.95748 C42.9685598,619.95748 43.2640133,619.82702 43.4856197,619.584652 C43.8918762,619.118667 43.8549852,618.410314 43.3932619,618.00025 L37.0220794,612.277703 C36.6158227,611.923559 36.0248508,611.904875 35.6000835,612.2404 C35.3969227,612.333624 35.2307179,612.501386 35.1199147,612.687767 L29.5982014,618.037552 C29.1549887,618.466301 29.1365432,619.174588 29.5612453,619.621955 C29.9860125,620.069322 30.6877225,620.08794 31.1309352,619.659257 L34.9720902,615.931178 L34.9720902,630.582444 C34.9722858,631.197574 35.4709001,631.700862 36.0803175,631.700862 Z" id="share"></path>
        </g>
    </g>
</svg>