<?xml version="1.0" encoding="iso-8859-1"?>
<!-- Generator: Adobe Illustrator 19.0.0, SVG Export Plug-In . SVG Version: 6.00 Build 0)  -->
<svg version="1.1" id="Capa_1" xmlns="http://www.w3.org/2000/svg" xmlns:xlink="http://www.w3.org/1999/xlink" x="0px" y="0px"
	 viewBox="0 0 512 512" style="enable-background:new 0 0 512 512;" xml:space="preserve">
<circle style="fill:#48AEF9;" cx="256" cy="256" r="256"/>
<path style="fill:#EFEFEF;" d="M165.391,44.042c-40.53,23.4-54.416,75.225-31.016,115.754
	c14.244,24.671,39.023,39.445,65.372,41.972c0.047-0.812,0.468-1.596,1.243-2.043l80.876-46.694
	c0.922-0.532,1.972-0.571,2.873-0.224c11.056-24.112,10.678-53.027-3.595-77.748C257.745,34.528,205.921,20.642,165.391,44.042z"/>
<path style="fill:#DDDDDD;" d="M151.035,105.57c-1.39-26.999,10.033-51.677,28.924-68.185c-4.967,1.731-9.846,3.931-14.569,6.657
	c-40.529,23.4-54.416,75.225-31.016,115.754c14.244,24.671,39.022,39.445,65.372,41.971c0.047-0.812,0.468-1.595,1.244-2.043
	l24.855-14.35C185.482,180.714,153.193,147.498,151.035,105.57z"/>
<path style="fill:#EFEFEF;" d="M352.79,414.031l14.935,25.868c6.243,10.813,20.198,14.553,31.012,8.31l0,0
	c10.813-6.243,14.553-20.199,8.31-31.012l-14.935-25.868L352.79,414.031z"/>
<g>
	<path style="fill:#DDDDDD;" d="M387.433,428.676l-15.002-25.984l-19.641,11.34l14.935,25.868
		c6.243,10.813,20.198,14.553,31.012,8.31c3.39-1.957,6.084-4.673,7.994-7.812C398.99,440.015,391.576,435.85,387.433,428.676z"/>
	<path style="fill:#DDDDDD;" d="M153.757,182.745l137.571-79.427c-1.634-9.687-4.983-19.253-10.183-28.26
		s-11.81-16.69-19.383-22.949l-137.571,79.427C127.48,151.033,137.711,169.482,153.757,182.745z"/>
</g>
<path style="fill:#CECCCA;" d="M181.764,166.575c-15.312-12.625-26.153-30.56-29.63-51.172l-27.942,16.132c0,0,0,0.001,0,0.002
	c3.223,19.169,13.485,38.014,29.569,51.205L181.764,166.575z"/>
<path style="fill:#7D92A8;" d="M229.025,235.867l70.674-40.804l-13.145-40.084c-0.662-2.018-3.012-2.916-4.851-1.855l-80.876,46.694
	c-1.387,0.801-1.687,2.676-0.618,3.869L229.025,235.867z"/>
<g>
	<path style="fill:#647892;" d="M226.281,187.757c-0.586-0.655-0.766-1.505-0.602-2.286l-24.851,14.348
		c-1.388,0.801-1.687,2.676-0.618,3.869l28.816,32.18l26.589-15.351L226.281,187.757z"/>
	<path style="fill:#647892;" d="M405.641,378.559l-11.475-19.875l-94.467-163.621l-70.675,40.804l5.156,8.931l10.587,18.337
		l78.721,136.348l11.649,20.177c2.196,3.804,7.06,5.107,10.863,2.911l56.604-32.681
		C406.573,387.599,407.931,382.526,405.641,378.559z"/>
</g>
<path style="fill:#516B87;" d="M353.378,389.547l-84.789-146.858l-11.403-19.751l-1.442-2.498l-26.719,15.426l5.156,8.931
	l10.587,18.337l78.721,136.348l11.649,20.177c2.196,3.804,7.06,5.107,10.863,2.911l19.833-11.45L353.378,389.547z"/>
<path style="fill:#FAC149;" d="M355.702,60.313l79.58-26.112V1.792c0-1.219-1.191-2.081-2.349-1.701l-75.76,24.858
	c-0.878,0.288-1.472,1.107-1.472,2.031v33.333H355.702z"/>
<g>
	<path style="fill:#F8A748;" d="M383.035,17.748c0-0.5,0.126-0.977,0.35-1.399l-26.211,8.6c-0.878,0.288-1.472,1.107-1.472,2.032
		v33.333l27.333-8.969L383.035,17.748L383.035,17.748z"/>
	<path style="fill:#F8A748;" d="M363.202,129.197c-4.143,0-7.5-3.357-7.5-7.5V53.632c0-4.143,3.357-7.5,7.5-7.5s7.5,3.357,7.5,7.5
		v68.064C370.702,125.839,367.345,129.197,363.202,129.197z"/>
</g>
<path style="fill:#FAC149;" d="M427.782,102.04c-4.143,0-7.5-3.357-7.5-7.5V26.476c0-4.143,3.357-7.5,7.5-7.5s7.5,3.357,7.5,7.5
	V94.54C435.282,98.683,431.925,102.04,427.782,102.04z"/>
<circle style="fill:#F8A748;" cx="353.78" cy="121.7" r="16.922"/>
<circle style="fill:#FAC149;" cx="418.36" cy="94.54" r="16.922"/>
<path style="fill:#F38D1A;" d="M353.781,121.697c-3.13-5.421-2.905-11.847,0.008-16.909c-2.879-0.004-5.796,0.711-8.469,2.254
	c-8.094,4.673-10.866,15.022-6.194,23.115c4.673,8.094,15.022,10.867,23.115,6.194c2.673-1.543,4.751-3.712,6.186-6.207
	C362.588,130.136,356.91,127.118,353.781,121.697z"/>
<path style="fill:#F8A748;" d="M418.361,94.541c-3.13-5.421-2.905-11.847,0.008-16.909c-12.903-0.018-21.214,14.022-14.662,25.369
	c4.673,8.094,15.022,10.867,23.116,6.194c2.672-1.543,4.75-3.712,6.186-6.207C427.168,102.98,421.491,99.962,418.361,94.541z"/>
<path style="fill:#EFEFEF;" d="M407.976,175.245h-6.108v-6.108c0-4.143-3.357-7.5-7.5-7.5c-4.142,0-7.5,3.357-7.5,7.5v6.108h-6.108
	c-4.142,0-7.5,3.357-7.5,7.5s3.358,7.5,7.5,7.5h6.108v6.108c0,4.143,3.358,7.5,7.5,7.5c4.143,0,7.5-3.357,7.5-7.5v-6.108h6.108
	c4.143,0,7.5-3.357,7.5-7.5C415.476,178.602,412.118,175.245,407.976,175.245z"/>
<path style="fill:#CECCCA;" d="M284.896,81.553l-146.771,84.738c-3.588,2.071-8.174,0.842-10.245-2.745
	c-2.071-3.588-0.842-8.174,2.745-10.245l146.771-84.738c3.587-2.071,8.174-0.842,10.245,2.745
	C289.712,74.896,288.483,79.482,284.896,81.553z"/>
<path style="fill:#BAB9B9;" d="M157.018,146.82c-1.712-2.964-1.361-6.55,0.602-9.105l-26.996,15.586
	c-3.587,2.071-4.816,6.658-2.745,10.245c2.071,3.588,6.658,4.816,10.245,2.745l26.681-15.404
	C161.74,151.141,158.658,149.661,157.018,146.82z"/>
<path style="fill:#EDB87E;" d="M345.644,227.011l-0.259-0.448c-5.394-9.343-17.341-12.544-26.685-7.15l-3.878,2.239l-9.861,5.939
	l-63.411,37.446c-6.618,3.914-14.426-2.806-11.541-9.933l4.173-10.305l-5.605-9.709l-22.42-25.037l-10.351,25.445
	c-7.827,19.24-16.454,38.145-25.857,56.666c-7.217,14.214-18.339,26.076-32.059,34.192l-15.494,9.128l67.381,116.707l24.873-14.676
	c2.821-1.669,6.079-2.447,9.349-2.234c22.371,1.455,44.664-3.867,63.958-15.281c5.94-3.429,49.04-28.313,86.219-49.778
	c0.036-0.021,0.074-0.035,0.11-0.056l23.589-13.619c9.343-5.394,12.544-17.341,7.15-26.684l-0.259-0.448
	c-5.394-9.343-17.341-12.544-26.684-7.15c9.343-5.394,12.544-17.341,7.15-26.684l-0.259-0.449
	c-5.394-9.343-17.341-12.544-26.684-7.15c9.343-5.394,12.544-17.341,7.15-26.684l-0.259-0.448
	c-5.394-9.343-17.341-12.544-26.684-7.15C347.837,248.301,351.038,236.354,345.644,227.011z"/>
<path style="fill:#E4A970;" d="M168.037,313.224c0-7.075,0.605-14.008,1.749-20.758c-7.221,14.078-18.277,25.83-31.898,33.888
	l-15.494,9.128l67.381,116.707l24.873-14.676c2.821-1.669,6.079-2.447,9.349-2.234c11.676,0.759,23.326-0.344,34.543-3.18
	C206.365,417.74,168.037,369.962,168.037,313.224z"/>
<path style="fill:#FAC149;" d="M120.177,325.644c-0.997-1.726-3.204-2.318-4.93-1.321l-86.365,49.882
	c26.979,51.731,71.108,93.085,124.852,116.532l43.252-24.837c1.727-0.997,2.318-3.204,1.321-4.93L120.177,325.644z"/>
<g>
	<path style="fill:#F8A748;" d="M146.604,371.416l-26.427-45.772c-0.997-1.726-3.204-2.318-4.93-1.321l-86.365,49.882
		c8.787,16.848,19.402,32.586,31.567,46.972L146.604,371.416z"/>
	<path style="fill:#F8A748;" d="M115.248,324.323l-32.49,18.758l81.74,141.577l32.49-18.758c1.726-0.997,2.318-3.204,1.321-4.93
		l-78.131-135.327C119.181,323.918,116.974,323.326,115.248,324.323z"/>
</g>
<path style="fill:#F38D1A;" d="M115.247,324.323l-0.085,0.049L82.76,343.086l28.231,48.898l35.612-20.569l-23.252-40.274
	l-3.174-5.498C119.181,323.918,116.974,323.326,115.247,324.323z"/>
<g>
</g>
<g>
</g>
<g>
</g>
<g>
</g>
<g>
</g>
<g>
</g>
<g>
</g>
<g>
</g>
<g>
</g>
<g>
</g>
<g>
</g>
<g>
</g>
<g>
</g>
<g>
</g>
<g>
</g>
</svg>
