<?xml version="1.0" encoding="iso-8859-1"?>
<!-- Generator: Adobe Illustrator 19.0.0, SVG Export Plug-In . SVG Version: 6.00 Build 0)  -->
<svg version="1.1" id="Layer_1" xmlns="http://www.w3.org/2000/svg" xmlns:xlink="http://www.w3.org/1999/xlink" x="0px" y="0px"
	 viewBox="0 0 512 512" style="enable-background:new 0 0 512 512;" xml:space="preserve">
<path style="fill:#F4C064;" d="M378.435,233.739c0,24.588-19.933,44.522-44.522,44.522s-44.522-19.934-44.522-44.522
	s19.933-44.522,44.522-44.522S378.435,209.151,378.435,233.739z"/>
<path style="fill:#F4AB53;" d="M289.391,233.739h89.043c0,24.588-19.933,44.522-44.522,44.522S289.391,258.327,289.391,233.739z"/>
<path style="fill:#C1C1C1;" d="M512,503.652c0,4.61-3.738,8.348-8.348,8.348H8.348C3.738,512,0,508.262,0,503.652
	s3.738-8.348,8.348-8.348h495.304C508.262,495.304,512,499.042,512,503.652z"/>
<path style="fill:#CEA05D;" d="M100.174,411.826h66.783v77.913c0,12.295-9.966,22.261-22.261,22.261h-22.261
	c-12.295,0-22.261-9.966-22.261-22.261V411.826z M367.304,411.826v77.913c0,12.295,9.966,22.261,22.261,22.261h22.261
	c12.295,0,22.261-9.966,22.261-22.261v-77.913H367.304z"/>
<path style="fill:#99774F;" d="M100.174,422.957h66.783v55.652h-66.783V422.957z M367.304,422.957v55.652h66.783v-55.652H367.304z"
	/>
<path style="fill:#B5E1F4;" d="M467.478,333.913h22.261c12.295,0,22.261,9.966,22.261,22.261v66.783
	c0,12.295-9.966,22.261-22.261,22.261H44.522c-12.295,0-22.261-9.966-22.261-22.261v-66.783c0-12.295,9.966-22.261,22.261-22.261
	h278.261v-55.652c0-24.588,19.934-44.522,44.522-44.522h100.174c24.588,0,44.522,19.933,44.522,44.522v11.13
	C512,313.98,492.066,333.913,467.478,333.913z"/>
<path style="fill:#D7F3FF;" d="M512,356.174v22.261H22.261v-22.261c0-12.295,9.966-22.261,22.261-22.261h278.261v-44.522H512
	c0,24.588-19.933,44.522-44.522,44.522h22.261C502.034,333.913,512,343.879,512,356.174z"/>
<path style="fill:#A2CCDB;" d="M512,278.261v11.13c0,24.588-19.933,44.522-44.522,44.522H322.783v-55.652
	c0-24.588,19.934-44.522,44.522-44.522h100.174C492.066,233.739,512,253.673,512,278.261z"/>
<path style="fill:#90B5BF;" d="M322.783,289.391H512c0,24.588-19.933,44.522-44.522,44.522H322.783V289.391z"/>
<path style="fill:#8E5B8E;" d="M345.043,289.391v77.913c0,12.295-9.966,22.261-22.261,22.261H22.261
	C9.966,389.565,0,379.599,0,367.304v-77.913c0-12.295,9.966-22.261,22.261-22.261h300.522
	C335.077,267.13,345.043,277.097,345.043,289.391z"/>
<path style="fill:#AF7AAE;" d="M345.043,289.391v77.913c0,12.295-9.966,22.261-22.261,22.261H244.87V267.13h77.913
	C335.077,267.13,345.043,277.097,345.043,289.391z"/>
<path style="fill:#90B5BF;" d="M217.043,166.957h-44.522c-46.103,0-83.478-37.375-83.478-83.478l0,0
	C89.043,37.375,126.418,0,172.522,0h44.522c46.103,0,83.478,37.375,83.478,83.478l0,0
	C300.522,129.582,263.147,166.957,217.043,166.957z"/>
<path style="fill:#B5E1F4;" d="M300.522,150.261c0,15.368-12.458,27.826-27.826,27.826s-27.826-12.458-27.826-27.826
	s12.458-27.826,27.826-27.826S300.522,134.893,300.522,150.261z"/>
<path style="fill:#FFE77C;" d="M211.478,125.125c-7.959,5.328-17.528,8.44-27.826,8.44c-27.662,0-50.087-22.424-50.087-50.087
	s22.424-50.087,50.087-50.087c10.298,0,19.867,3.111,27.826,8.44c-13.422,8.986-22.261,24.282-22.261,41.647
	S198.056,116.139,211.478,125.125z"/>
<g>
</g>
<g>
</g>
<g>
</g>
<g>
</g>
<g>
</g>
<g>
</g>
<g>
</g>
<g>
</g>
<g>
</g>
<g>
</g>
<g>
</g>
<g>
</g>
<g>
</g>
<g>
</g>
<g>
</g>
</svg>
