<?xml version="1.0" encoding="UTF-8"?>
<svg width="65px" height="100px" viewBox="0 0 65 100" version="1.1" xmlns="http://www.w3.org/2000/svg" xmlns:xlink="http://www.w3.org/1999/xlink">
    <!-- Generator: Sketch 51.2 (57519) - http://www.bohemiancoding.com/sketch -->
    <title>cola</title>
    <desc>Created with Sketch.</desc>
    <defs></defs>
    <g id="Icons" stroke="none" stroke-width="1" fill="none" fill-rule="evenodd">
        <g id="Artboard" transform="translate(-490.000000, -278.000000)" fill-rule="nonzero">
            <g id="cola" transform="translate(490.000000, 278.000000)">
                <polygon id="Shape" fill="#E73835" points="5.25501506 28.6539063 8.66066265 57.5320313 12.0663102 60.9294922 15.4719578 100 49.5280422 100 52.9336898 60.9294922 56.3393373 57.5320313 59.7449849 28.6539063"></polygon>
                <rect id="Rectangle-path" fill="#7A0E1E" x="0.146641566" y="20.1603516" width="64.7067169" height="8.49355469"></rect>
                <path d="M34.2027259,20.1603516 L30.7970712,20.1603516 L30.7970783,8.26933594 C30.7953163,7.66113281 31.1207078,7.09882812 31.6485392,6.79492188 L43.5682078,0 L45.2709337,2.94902344 L34.2027259,9.2546875 L34.2027259,20.1603516 Z" id="Shape" fill="#4F5052"></path>
                <path d="M34.2027259,100 L39.7657078,91.6763672 C44.6869127,84.3125 44.915,74.7792969 40.3497289,67.1894531 C35.5937651,59.2802734 36.056988,49.2986328 41.5230572,41.8615234 L51.2307681,28.6541016 L34.2027259,28.6541016 L28.4795934,40.8847656 C24.6056325,49.1677734 25.108012,58.8283203 29.821491,66.6662109 C34.6728012,74.7283203 35.0577108,84.7048828 30.8430873,93.1152344 L27.3916265,100 L34.2027259,100 Z" id="Shape" fill="#F5F5F7"></path>
            </g>
        </g>
    </g>
</svg>