<?xml version="1.0" encoding="UTF-8"?>
<svg width="41px" height="100px" viewBox="0 0 41 100" version="1.1" xmlns="http://www.w3.org/2000/svg" xmlns:xlink="http://www.w3.org/1999/xlink">
    <!-- Generator: Sketch 51.2 (57519) - http://www.bohemiancoding.com/sketch -->
    <title>beverage</title>
    <desc>Created with Sketch.</desc>
    <defs></defs>
    <g id="Icons" stroke="none" stroke-width="1" fill="none" fill-rule="evenodd">
        <g id="Artboard" transform="translate(-947.000000, -278.000000)" fill-rule="nonzero">
            <g id="beverage" transform="translate(947.000000, 278.000000)">
                <path d="M26.9162264,8.19672131 L14.0837736,8.19672131 C13.5515778,8.19672131 13.12,7.73984016 13.12,7.17644183 L13.12,1.02027948 C13.12,0.456881153 13.5515778,0 14.0837736,0 L26.9162264,0 C27.4484222,0 27.88,0.456881153 27.88,1.02027948 L27.88,7.17644183 C27.88,7.74004421 27.4484222,8.19672131 26.9162264,8.19672131 Z" id="Shape" fill="#DD4733"></path>
                <path d="M25.9581625,8.19672131 L21.32,8.19672131 L21.32,0 L25.9581625,0 C27.0195934,0 27.88,0.913558249 27.88,2.04055897 L27.88,6.15616235 C27.88,7.28316306 27.0195934,8.19672131 25.9581625,8.19672131 Z" id="Shape" fill="#D13D2A"></path>
                <g id="Group" transform="translate(0.000000, 8.196721)" fill="#E2E8ED">
                    <rect id="Rectangle-path" x="15.5052238" y="0.0330647402" width="9.99033333" height="7.01361489"></rect>
                    <path d="M20.499219,5.78535704 C9.21465238,5.78535704 0.0669666667,14.8985829 0.0669666667,26.1402056 L0.0669666667,85.8903306 C0.0669666667,89.155571 2.7239619,91.8025007 6.00161905,91.8025007 C7.99539048,91.8025007 9.758,90.8220339 10.8341524,89.3199222 C11.9103048,90.8220339 13.6731095,91.8025007 15.6666857,91.8025007 C17.6604571,91.8025007 19.4230667,90.8220339 20.499219,89.3199222 C21.5753714,90.8220339 23.3381762,91.8025007 25.3317524,91.8025007 C27.3253286,91.8025007 29.0881333,90.8220339 30.1642857,89.3199222 C31.2404381,90.8220339 33.0032429,91.8025007 34.996819,91.8025007 C38.2744762,91.8025007 40.9314714,89.155571 40.9314714,85.8903306 L40.9314714,26.1402056 C40.9316667,14.8983884 31.7835905,5.78535704 20.499219,5.78535704 Z" id="Shape"></path>
                </g>
                <path d="M41,33.5223865 L41,94.0134881 C41,97.319243 38.3332155,99.9998031 35.0448864,99.9998031 C33.0462672,99.9998031 31.2758545,99.0053986 30.1978969,97.4854366 C29.1179804,99.0055955 27.3495265,100 25.3489484,100 C23.3483703,100 21.5799165,99.0055955 20.5,97.4856335 C19.4198876,99.0055955 17.6516297,100 15.6508557,100 C13.6502776,100 11.8820196,99.0055955 10.8019073,97.4856335 C9.72414551,99.0055955 7.95373281,100 5.95511357,100 C4.30987167,100 2.82212168,99.330303 1.74416405,98.2466975 C0.666206415,97.163092 0,95.665381 0,94.013685 L0,33.5223865 C0,31.5621298 0.272476661,29.6646879 0.781191175,27.8688525 L40.2188088,27.8688525 C40.7273275,29.6646879 41,31.5621298 41,33.5223865 Z" id="SVGCleanerId_0" fill="#7C5032"></path>
                <path d="M25.4692568,14.5649393 L25.4692568,8.19672131 L21.32,8.19672131 L21.32,13.9715062 L21.32,15.9086275 C21.32,16.2600177 21.5040317,16.5884489 21.8096382,16.7666734 C23.1318382,17.5383309 24.3583888,18.4535799 25.4692568,19.4916014 C29.4486231,23.2031848 31.9321671,28.4705358 31.9321671,34.3136142 L31.9321671,94.0847784 C31.9321671,95.5526011 31.3918564,96.8959002 30.4950701,97.930614 C31.6224361,99.2332483 33.3119139,100.046933 35.1899406,99.9979014 C38.4453572,99.9126805 41,97.1850285 41,93.9588928 L41,34.3136142 C40.9998036,24.7832734 34.3909642,16.7847682 25.4692568,14.5649393 Z" id="Shape" fill="#CFDDE8"></path>
                <path d="M41,33.5223865 L41,94.0134881 C41,97.319243 38.3332155,99.9998031 35.0448864,99.9998031 C33.0462672,99.9998031 31.2758545,99.0053986 30.1978969,97.4854366 C29.1179804,99.0055955 27.3495265,100 25.3489484,100 C23.3483703,100 21.5799165,99.0055955 20.5,97.4856335 C19.4198876,99.0055955 17.6516297,100 15.6508557,100 C13.6502776,100 11.8820196,99.0055955 10.8019073,97.4856335 C9.72414551,99.0055955 7.95373281,100 5.95511357,100 C4.30987167,100 2.82212168,99.330303 1.74416405,98.2466975 C0.666206415,97.163092 0,95.665381 0,94.013685 L0,33.5223865 C0,31.5621298 0.272476661,29.6646879 0.781191175,27.8688525 L40.2188088,27.8688525 C40.7273275,29.6646879 41,31.5621298 41,33.5223865 Z" id="SVGCleanerId_0_1_" fill="#7C5032"></path>
                <path d="M41,33.522402 L41,94.0136687 C41,97.3194326 38.4953865,100 35.4070254,100 C33.7082152,100 32.1858355,99.1861614 31.16,97.9058375 C32.0000224,96.8586578 32.5061332,95.4991752 32.5061332,94.0136687 L32.5061332,33.522402 C32.5061332,31.5621399 32.2502262,29.6646928 31.7724474,27.8688525 L40.2663142,27.8688525 C40.7439091,29.6646928 41,31.5621399 41,33.522402 Z" id="Shape" fill="#6D4429"></path>
                <rect id="Rectangle-path" fill="#DD4733" x="0" y="37.704918" width="41" height="26.2295082"></rect>
                <rect id="Rectangle-path" fill="#D13D2A" x="31.16" y="37.704918" width="8.2" height="26.2295082"></rect>
                <g id="Group" transform="translate(4.920000, 37.704918)" fill="#E2E8ED">
                    <path d="M3.07061395,0.156033972 C3.07061395,0.156033972 -1.84252093,5.70768319 0.908865116,15.4779775 C0.908865116,15.4779775 4.05327907,24.1870433 3.07061395,27.4655343 L15.2544791,27.4655343 C15.2544791,27.4655343 17.8100186,23.8913688 13.7435814,15.4813352 C11.375307,10.583251 11.6552512,4.73059451 14.9936047,0.481927711 C15.0786558,0.373691487 15.165614,0.265257752 15.2544791,0.156231483 L3.07061395,0.156033972 Z" id="Shape"></path>
                    <ellipse id="Oval" cx="13.8000279" cy="43.0574758" rx="1.47390233" ry="1.52656528"></ellipse>
                    <ellipse id="Oval" cx="16.1055628" cy="36.0260715" rx="1.47390233" ry="1.52656528"></ellipse>
                    <ellipse id="Oval" cx="23.0317023" cy="40.1066561" rx="1.47390233" ry="1.52656528"></ellipse>
                    <ellipse id="Oval" cx="23.0317023" cy="32.8816907" rx="1.47390233" ry="1.52656528"></ellipse>
                    <ellipse id="Oval" cx="5.72417209" cy="34.4084535" rx="1.47390233" ry="1.52656528"></ellipse>
                    <ellipse id="Oval" cx="5.72417209" cy="44.5842386" rx="1.47390233" ry="1.52656528"></ellipse>
                    <ellipse id="Oval" cx="19.0539395" cy="47.6377642" rx="1.47390233" ry="1.52656528"></ellipse>
                </g>
            </g>
        </g>
    </g>
</svg>