<?xml version="1.0" encoding="UTF-8"?>
<svg width="149px" height="86px" viewBox="0 0 149 86" version="1.1" xmlns="http://www.w3.org/2000/svg" xmlns:xlink="http://www.w3.org/1999/xlink">
    <!-- Generator: Sketch 50.2 (55047) - http://www.bohemiancoding.com/sketch -->
    <title>Group 4</title>
    <desc>Created with Sketch.</desc>
    <defs>
        <path d="M0,4.99544665 C0,2.23653765 2.23656957,0 5.00010254,0 L143.999897,0 C146.761378,0 149,2.23413232 149,4.99544665 L149,86 L0,86 L0,4.99544665 Z" id="path-1"></path>
    </defs>
    <g id="Zilla-Slab/Lato" stroke="none" stroke-width="1" fill="none" fill-rule="evenodd">
        <g id="⟶-My-Courses" transform="translate(-201.000000, -167.000000)">
            <g id="Grid" transform="translate(20.000000, 162.000000)">
                <g id="2" transform="translate(176.000000, 0.000000)">
                    <g id="Group-4" transform="translate(5.000000, 5.000000)">
                        <mask id="mask-2" fill="white">
                            <use xlink:href="#path-1"></use>
                        </mask>
                        <use id="Mask-Copy-3" fill="#cccccc" xlink:href="#path-1"></use>
                        <g id="toffee" mask="url(#mask-2)" fill-rule="nonzero">
                            <g transform="translate(46.000000, 14.000000)" id="Shape">
                                <path d="M54.589,18.43 C54.61,18.415 57.233,17.634 57.07,15.734 C56.998,14.899 56.473,13.799 55.575,13.928 C54.833,14.034 53.966,13.167 54.072,12.425 L54.175,11.706 C54.281,10.964 53.414,10.097 52.672,10.203 L51.954,10.306 C51.212,10.412 50.345,9.545 50.451,8.803 L50.554,8.085 C50.66,7.343 49.793,6.476 49.051,6.582 L48.332,6.685 C47.59,6.791 46.723,5.924 46.829,5.182 L46.932,4.464 C47.038,3.722 46.171,2.855 45.429,2.961 L44.71,3.062 C43.968,3.168 43.101,2.301 43.207,1.559 L43.225,1.433 C43.347,0.578 42.301,0.08 41.505,0.009 C39.368,-0.18 38.706,2.515 38.705,2.545 C38.705,2.545 35.252,8.325 34.358,17.866 L39.59,23.098 C39.59,23.099 48.174,23.039 54.589,18.43 Z" fill="#cbcbcb"></path>
                                <path d="M2.502,38.661 C2.481,38.676 -0.142,39.457 0.021,41.357 C0.093,42.192 0.618,43.292 1.516,43.163 C2.258,43.057 3.125,43.924 3.019,44.666 L2.916,45.385 C2.81,46.127 3.677,46.994 4.419,46.888 L5.137,46.785 C5.879,46.679 6.746,47.546 6.64,48.288 L6.537,49.006 C6.431,49.748 7.298,50.615 8.04,50.509 L8.759,50.406 C9.501,50.3 10.368,51.167 10.262,51.909 L10.159,52.627 C10.053,53.369 10.92,54.236 11.662,54.13 L12.381,54.027 C13.123,53.921 13.99,54.788 13.884,55.53 L13.866,55.656 C13.744,56.511 14.79,57.009 15.586,57.08 C17.723,57.269 18.385,54.574 18.386,54.544 C18.386,54.544 21.839,48.764 22.733,39.223 L17.501,33.991 C17.501,33.992 8.917,34.052 2.502,38.661 Z" fill="#cbcbcb"></path>
                                <path d="M42.138,31.304 L31.304,42.138 C29.748,43.694 27.203,43.694 25.647,42.138 L14.813,31.304 C13.257,29.748 13.257,27.203 14.813,25.647 L25.647,14.813 C27.203,13.257 29.748,13.257 31.304,14.813 L42.138,25.647 C43.694,27.203 43.694,29.749 42.138,31.304 Z" fill="#dbdbdb"></path>
                                <polygon fill="#7f7f7f" points="39.47 33.973 32.141 41.302 18.093 22.368 25.422 15.039"></polygon>
                                <path d="M38.488,21.088 C38.26,21.088 38.031,21.011 37.843,20.852 C37.421,20.496 37.368,19.865 37.725,19.443 C39.572,17.258 41.173,17.203 43.028,17.139 C43.625,17.118 44.243,17.097 44.954,17.008 C45.494,16.946 46.002,17.328 46.07,17.876 C46.138,18.424 45.75,18.924 45.202,18.992 C44.402,19.093 43.709,19.116 43.097,19.138 C41.386,19.197 40.527,19.226 39.253,20.734 C39.055,20.968 38.773,21.088 38.488,21.088 Z" fill="#7f7f7f"></path>
                                <path d="M37.39,20.119 C37.04,20.119 36.7,19.934 36.516,19.607 C36.246,19.126 36.418,18.516 36.9,18.246 C39.737,16.658 41.536,12.737 41.085,9.125 C41.017,8.577 41.405,8.077 41.953,8.009 C42.493,7.946 43.001,8.328 43.069,8.877 C43.625,13.322 41.441,17.996 37.877,19.992 C37.723,20.078 37.556,20.119 37.39,20.119 Z" fill="#7f7f7f"></path>
                                <path d="M12.076,40.088 C11.579,40.088 11.148,39.718 11.085,39.212 C11.017,38.664 11.405,38.164 11.953,38.096 C12.753,37.996 13.446,37.972 14.057,37.95 C15.768,37.891 16.628,37.861 17.902,36.354 C18.258,35.932 18.89,35.878 19.311,36.236 C19.733,36.592 19.786,37.223 19.429,37.645 C17.582,39.83 15.98,39.884 14.126,39.949 C13.529,39.97 12.912,39.991 12.201,40.08 C12.16,40.085 12.118,40.088 12.076,40.088 Z" fill="#7f7f7f"></path>
                                <path d="M15.076,49.088 C14.579,49.088 14.148,48.718 14.085,48.212 C13.529,43.766 15.713,39.092 19.277,37.097 C19.759,36.828 20.369,37 20.638,37.482 C20.908,37.964 20.736,38.573 20.254,38.843 C17.417,40.43 15.618,44.352 16.069,47.964 C16.137,48.512 15.749,49.012 15.201,49.08 C15.16,49.085 15.118,49.088 15.076,49.088 Z" fill="#7f7f7f"></path>
                            </g>
                        </g>
                    </g>
                </g>
            </g>
        </g>
    </g>
</svg>