<?xml version="1.0" encoding="UTF-8"?>
<svg width="87px" height="60px" viewBox="0 0 87 60" version="1.1" xmlns="http://www.w3.org/2000/svg" xmlns:xlink="http://www.w3.org/1999/xlink">
    <!-- Generator: Sketch 58 (84663) - https://sketch.com -->
    <title>Group 4</title>
    <desc>Created with Sketch.</desc>
    <defs>
        <rect id="path-1" x="0" y="0" width="96" height="82"></rect>
    </defs>
    <g id="Screens" stroke="none" stroke-width="1" fill="none" fill-rule="evenodd">
        <g id="⟶-Questions" transform="translate(-214.000000, -256.000000)">
            <g id="Group-4" transform="translate(214.000000, 234.000000)">
                <mask id="mask-2" fill="white">
                    <use xlink:href="#path-1"></use>
                </mask>
                <g id="Rectangle"></g>
                <g id="toothpaste-baby" mask="url(#mask-2)">
                    <g transform="translate(-51.000000, 22.000000)">
                        <polygon id="Path" fill="#E5E5E5" fill-rule="nonzero" points="75.8563955 23.8305998 111.740257 3.80124949 129.947515 36.4213174 94.0636538 56.4506676"></polygon>
                        <path d="M134.436544,43.7485646 L98.2447977,63.9481448 C92.8184526,66.9765583 86.5388558,67.7110695 80.560839,66.0161244 L75.0893096,64.4640891 C72.68087,63.7810672 70.1515876,64.0773936 67.9669689,65.2963247 L10.602599,97.3142826 C7.25264032,99.1836605 3.02105781,97.9836441 1.15062901,94.6336852 C-0.718749041,91.2826754 0.481267499,87.0521436 3.83122675,85.1817148 L61.1955962,53.1648078 C66.6219414,50.1363943 72.9025891,49.4018834 78.8795548,51.0978788 L84.3510844,52.6488635 C86.759524,53.3318851 89.2888064,53.0366096 91.4734251,51.8166279 L127.665171,31.6159968 C131.016181,29.7466188 135.246713,30.9466356 137.117141,34.2965945 C138.98652,37.6476043 137.786503,41.8791869 134.436544,43.7485646 L134.436544,43.7485646 Z" id="Path" fill="#4297D0" fill-rule="nonzero"></path>
                        <path d="M137.118192,34.2976454 C138.98652,37.6465536 137.787554,41.878136 134.435493,43.7496155 L98.2437471,63.9491954 C92.8195035,66.9765583 86.5399065,67.7110695 80.5597883,66.0161244 L75.0903605,64.4651397 C72.6829712,63.7821181 70.1536892,64.0773936 67.9669689,65.2973754 L10.602599,97.3142826 C7.25369104,99.1836605 3.02210855,97.9836441 1.15273048,94.6347358 C0.587398771,93.6217622 0.2994787,92.5257748 0.27741191,91.4371432 C2.3685094,92.8052884 5.1300186,92.9923312 7.46280084,91.6893358 L64.8271703,59.6724288 C67.0138911,58.4524468 69.5431729,58.157171 71.9505618,58.8401931 L77.4199899,60.3911778 C83.4001081,62.0871735 89.6807557,61.3516112 95.1039482,58.3242488 L131.295695,38.1246686 C133.631629,36.8206226 134.923065,34.3680491 134.853713,31.8702909 C135.765809,32.462944 136.550759,33.281519 137.118192,34.2976454 Z" id="Path" fill="#1876A9" fill-rule="nonzero"></path>
                        <g id="Group" stroke-width="1" fill="none" fill-rule="evenodd" transform="translate(82.853691, 7.758573)">
                            <polygon id="Path" fill="#CBCBCB" fill-rule="nonzero" points="18.074857 2.07743686 21.7568697 0.0220667893 37.3760009 28.0049427 33.6939884 30.0603128"></polygon>
                            <polygon id="Path" fill="#CBCBCB" fill-rule="nonzero" points="9.10415452 7.08451188 12.7851164 5.03019256 28.4052985 33.0130681 24.7232857 35.0684382"></polygon>
                            <polygon id="Path" fill="#CBCBCB" fill-rule="nonzero" points="0.133452009 12.0926374 3.8144139 10.0372673 19.4345958 38.021194 15.7525832 40.0755129"></polygon>
                        </g>
                        <g id="Group-3" stroke-width="1" fill="none" fill-rule="evenodd" transform="translate(85.171875, 0.000000)">
                            <path d="M14.1117386,-5.68434189e-14 L15.5488164,2.57446661 C17.6474796,6.33423879 15.7253513,11.4066735 11.2543959,13.9021198 L2.28684563,18.9073033 L0.849767818,16.3328366 C-1.24931562,12.5718036 0.674493954,7.4997891 5.14418829,5.00518345 L14.1117386,-5.68434189e-14 Z" id="Path" fill="#5BB0B7" fill-rule="nonzero"></path>
                            <path d="M14.1117386,-9.9475983e-14 L15.5488164,2.57446661 C17.6474796,6.33423879 15.7253513,11.4066735 11.2543959,13.9021198 L6.18700486,16.7304604 L4.75034748,14.1559938 C2.65126403,10.3949607 4.57339232,5.32378678 9.04476794,2.82834054 L14.1117386,-9.9475983e-14 Z" id="Path" fill="#87CDD8" fill-rule="nonzero"></path>
                        </g>
                    </g>
                </g>
            </g>
        </g>
    </g>
</svg>