<?xml version="1.0" encoding="UTF-8"?>
<svg width="511px" height="365px" viewBox="0 0 511 365" version="1.1" xmlns="http://www.w3.org/2000/svg" xmlns:xlink="http://www.w3.org/1999/xlink">
    <!-- Generator: Sketch 56.2 (81672) - https://sketch.com -->
    <title>toothbrush</title>
    <desc>Created with Sketch.</desc>
    <g id="Page-1" stroke="none" stroke-width="1" fill="none" fill-rule="evenodd">
        <g id="toothbrush" transform="translate(-1.000000, 0.000000)" fill-rule="nonzero">
            <polygon id="Path" fill="#E5E5E5" points="281.438221 88.4149789 414.572546 14.1031865 482.124113 135.128366 348.989788 209.440158"></polygon>
            <path d="M498.779061,162.313515 L364.502438,237.256885 C344.369911,248.492738 321.071697,251.217881 298.892388,244.929389 L278.592221,239.171113 C269.656561,236.637003 260.272557,237.736417 252.167305,242.258828 L39.337179,361.050092 C26.9083467,367.985755 11.2085623,363.53352 4.2690004,351.104687 C-2.66666311,338.671955 1.78557217,322.976069 14.2144065,316.036507 L227.044531,197.249142 C247.177058,186.013289 270.479171,183.288147 292.65458,189.580536 L312.954748,195.334914 C321.890408,197.869023 331.274412,196.773508 339.379664,192.247199 L473.656288,117.29993 C486.08902,110.364267 501.784906,114.816503 508.724467,127.245336 C515.660131,139.678068 511.207895,155.377853 498.779061,162.313515 L498.779061,162.313515 Z" id="Path" fill="#4297D0"></path>
            <path d="M508.728366,127.249235 C515.660131,139.67417 511.211794,155.373954 498.775163,162.317414 L364.49854,237.260783 C344.37381,248.492738 321.075595,251.217881 298.88849,244.929389 L278.59612,239.175011 C269.664357,236.640902 260.280354,237.736417 252.167305,242.262726 L39.337179,361.050092 C26.912245,367.985755 11.2124607,363.53352 4.27679716,351.108585 C2.17933457,347.350306 1.11110938,343.284034 1.02923839,339.245053 C8.78751314,344.32107 19.0331125,345.015026 27.6880727,340.180724 L240.518197,221.393359 C248.631248,216.867049 258.01525,215.771533 266.947012,218.305644 L287.239383,224.060022 C309.426488,230.352412 332.728601,227.623369 352.849431,216.391416 L487.126056,141.448046 C495.792711,136.609846 500.584127,127.510443 500.326818,118.243398 C503.710828,120.442227 506.623105,123.479259 508.728366,127.249235 Z" id="Path" fill="#1876A9"></path>
            <g id="Group" transform="translate(307.399200, 28.785429)" fill="#CBCBCB">
                <polygon id="Path" points="67.0603391 7.70759181 80.7211396 0.0818709863 138.67038 103.902396 125.00958 111.528117"></polygon>
                <polygon id="Path" points="33.7777327 26.2845658 47.4346348 18.6627434 105.387774 122.483267 91.7269731 130.108988"></polygon>
                <polygon id="Path" points="0.495126295 44.8654372 14.1520284 37.2397164 72.1051672 141.06414 58.4443667 148.685961"></polygon>
            </g>
            <g id="Group-3" transform="translate(316.000000, 0.000000)">
                <path d="M52.3565955,-5.68434189e-14 L57.6883624,9.55164422 C65.4747068,23.5009439 58.3433323,42.3204118 41.7554397,51.5788794 L8.4845287,70.1488354 L3.15276176,60.5971908 C-4.635142,46.6432135 2.50247032,27.8253045 19.0856841,18.569956 L52.3565955,-5.68434189e-14 Z" id="Path" fill="#5BB0B7"></path>
                <path d="M52.3565955,-9.9475983e-14 L57.6883624,9.55164422 C65.4747068,23.5009439 58.3433323,42.3204118 41.7554397,51.5788794 L22.9546847,62.0724327 L17.6244776,52.5207885 C9.8365738,38.5668108 16.9679483,19.7520205 33.5573999,10.4935533 L52.3565955,-9.9475983e-14 Z" id="Path" fill="#87CDD8"></path>
            </g>
        </g>
    </g>
</svg>