<?xml version="1.0" encoding="UTF-8"?>
<svg width="30px" height="33px" viewBox="0 0 30 33" version="1.1" xmlns="http://www.w3.org/2000/svg" xmlns:xlink="http://www.w3.org/1999/xlink">
    <!-- Generator: Sketch 50.2 (55047) - http://www.bohemiancoding.com/sketch -->
    <title>premolar</title>
    <desc>Created with Sketch.</desc>
    <defs></defs>
    <g id="Page-1" stroke="none" stroke-width="1" fill="none" fill-rule="evenodd">
        <g id="⟶-Questions" transform="translate(-106.000000, -221.000000)" fill-rule="nonzero">
            <g id="premolar" transform="translate(106.000000, 221.000000)">
                <path d="M29.4724457,5.99016842 C31.0138016,11.7772987 28.8128209,18.6784545 27.5282562,24.3724974 C26.969644,26.8471696 26.5029168,29.3810791 25.2213947,31.6115481 C23.1932309,35.1422174 21.5770282,30.5319769 20.9399183,28.5819788 C20.1567659,26.1852824 19.9018002,23.0892221 17.491492,21.6632935 C15.0903115,20.2428051 12.8625563,21.6947256 11.4715024,23.7160504 C10.0621932,25.7639716 9.52792142,28.143743 8.6340202,30.4213602 C8.2208419,31.4749395 7.7650679,32.5285187 6.64358394,33 C5.45333835,33 4.62698174,30.8402532 4.19007155,29.7915096 C1.80471229,24.0696614 1.07145772,17.5855851 0.150173555,11.5034768 C-0.497889612,7.22448218 0.898640875,2.1385292 5.37362353,0.56329822 C7.80522956,-0.292621606 11.1356049,0.496807274 13.5702535,1.20946933 C14.969218,1.61929535 14.7112097,1.48570899 16.1046977,1.00516079 C16.2117954,0.968288534 16.3170677,0.918722555 16.4265995,0.873387819 C19.4089071,-0.351858995 23.0039842,-0.361530405 25.6284879,1.31525038 C27.3998606,2.44740987 28.9600803,4.0661622 29.4724457,5.99016842 Z" id="Shape" fill="#ECE3D2"></path>
                <path d="M27,3.15421881 C26.6476177,2.86498609 26.2807042,2.59215943 25.8998649,2.3466762 C23.2878767,0.661105692 19.7113781,0.6708278 16.7439803,1.90249738 C16.634996,1.94746213 16.5308556,1.99789557 16.4236878,2.0349611 C15.9374971,2.20449037 15.6541381,2.32966251 15.430115,2.40440122 C15.0299008,2.13643561 14.574589,1.85753263 14.0381445,1.55310912 C13.7899027,1.41213855 13.6900005,1.12351346 13.7656839,0.859801278 C13.9594337,0.915095768 14.151367,0.970390258 14.3360347,1.02446949 C11.9141633,0.308071638 8.59983233,-0.485495442 6.18038284,0.374911132 C3.10400075,1.4686483 1.49103442,4.24795598 1,7.28003847 C2.23636533,11.797173 5.29761073,15 8.88682409,15 C12.4566625,15 15.5076149,11.8342385 16.7560896,7.35538481 C20.9447161,7.05946814 24.609613,5.47537214 27,3.15421881 Z" id="Shape" fill="#F7EDDF"></path>
                <path d="M17.9984676,8.63741733 C18.0118169,5.03175954 18.0062547,3.46643966 14.8975332,1.33828826 C14.5498948,1.45085456 14.3374182,1.40724249 13.5470276,1.15971449 C13.37738,1.10667278 13.2010578,1.05363107 13.0225108,1 C12.9535393,1.25577893 13.0447596,1.5357213 13.2728104,1.67245105 C16.9027114,3.84775064 16.8999303,4.76655098 16.8854685,8.63270251 L16.8843561,9.41064763 C16.8843561,9.73655949 17.132987,10 17.4405775,10 C17.7481679,10 17.9967989,9.73655949 17.9967989,9.41064763 L17.9984676,8.63741733 Z" id="Shape" fill="#FFF6EB"></path>
            </g>
        </g>
    </g>
</svg>