<?xml version="1.0" encoding="UTF-8"?>
<svg width="511px" height="387px" viewBox="0 0 511 387" version="1.1" xmlns="http://www.w3.org/2000/svg" xmlns:xlink="http://www.w3.org/1999/xlink">
    <!-- Generator: Sketch 56.2 (81672) - https://sketch.com -->
    <title>toothbrush</title>
    <desc>Created with Sketch.</desc>
    <g id="Page-1" stroke="none" stroke-width="1" fill="none" fill-rule="evenodd">
        <g id="toothbrush" transform="translate(-1.000000, -9.000000)" fill-rule="nonzero">
            <polygon id="Path" fill="#E5E5E5" points="281.438221 119.414979 414.572546 45.1031865 482.124113 166.128366 348.989788 240.440158"></polygon>
            <path d="M498.779061,193.313515 L364.502438,268.256885 C344.369911,279.492738 321.071697,282.217881 298.892388,275.929389 L278.592221,270.171113 C269.656561,267.637003 260.272557,268.736417 252.167305,273.258828 L39.337179,392.050092 C26.9083467,398.985755 11.2085623,394.53352 4.2690004,382.104687 C-2.66666311,369.671955 1.78557217,353.976069 14.2144065,347.036507 L227.044531,228.249142 C247.177058,217.013289 270.479171,214.288147 292.65458,220.580536 L312.954748,226.334914 C321.890408,228.869023 331.274412,227.773508 339.379664,223.247199 L473.656288,148.29993 C486.08902,141.364267 501.784906,145.816503 508.724467,158.245336 C515.660131,170.678068 511.207895,186.377853 498.779061,193.313515 L498.779061,193.313515 Z" id="Path" fill="#4297D0"></path>
            <path d="M508.728366,158.249235 C515.660131,170.67417 511.211794,186.373954 498.775163,193.317414 L364.49854,268.260783 C344.37381,279.492738 321.075595,282.217881 298.88849,275.929389 L278.59612,270.175011 C269.664357,267.640902 260.280354,268.736417 252.167305,273.262726 L39.337179,392.050092 C26.912245,398.985755 11.2124607,394.53352 4.27679716,382.108585 C2.17933457,378.350306 1.11110938,374.284034 1.02923839,370.245053 C8.78751314,375.32107 19.0331125,376.015026 27.6880727,371.180724 L240.518197,252.393359 C248.631248,247.867049 258.01525,246.771533 266.947012,249.305644 L287.239383,255.060022 C309.426488,261.352412 332.728601,258.623369 352.849431,247.391416 L487.126056,172.448046 C495.792711,167.609846 500.584127,158.510443 500.326818,149.243398 C503.710828,151.442227 506.623105,154.479259 508.728366,158.249235 Z" id="Path" fill="#1876A9"></path>
            <g id="Group" transform="translate(307.399200, 59.785429)" fill="#CBCBCB">
                <polygon id="Path" points="67.0603391 7.70759181 80.7211396 0.0818709863 138.67038 103.902396 125.00958 111.528117"></polygon>
                <polygon id="Path" points="33.7777327 26.2845658 47.4346348 18.6627434 105.387774 122.483267 91.7269731 130.108988"></polygon>
                <polygon id="Path" points="0.495126295 44.8654372 14.1520284 37.2397164 72.1051672 141.06414 58.4443667 148.685961"></polygon>
            </g>
            <g id="Group-2" transform="translate(354.500000, 60.000000) rotate(6.000000) translate(-354.500000, -60.000000) translate(307.000000, 5.000000)">
                <path d="M81.2120587,0.500975325 L89.4496667,15.3426931 C101.47961,37.0176597 90.4615987,66.2600839 64.8332172,80.6462525 L13.4294846,109.500975 L5.19187659,94.6592569 C-6.84047572,72.977022 4.18717289,43.7370201 29.8083255,29.3556982 L81.2120587,0.500975325 Z" id="Path" fill="#5BB0B7"></path>
                <path d="M81.1466831,1.50097532 L89.4253734,16.2733599 C101.515312,37.8470715 90.442352,66.9528894 64.6861576,81.2718528 L35.4940288,97.5009753 L27.2177603,82.7285908 C15.1254007,61.1476442 26.1983605,32.0490606 51.9569755,17.7300979 L81.1466831,1.50097532 Z" id="Path" fill="#87CDD8"></path>
            </g>
        </g>
    </g>
</svg>