<?xml version="1.0" encoding="UTF-8"?>
<svg width="93px" height="93px" viewBox="0 0 93 93" version="1.1" xmlns="http://www.w3.org/2000/svg" xmlns:xlink="http://www.w3.org/1999/xlink">
    <!-- Generator: Sketch 50 (54983) - http://www.bohemiancoding.com/sketch -->
    <title>Artboard</title>
    <desc>Created with Sketch.</desc>
    <defs></defs>
    <g id="Artboard" stroke="none" stroke-width="1" fill="none" fill-rule="evenodd">
        <g id="226507" transform="translate(22.000000, 16.000000)" fill-rule="nonzero">
            <polygon id="Shape" fill="#FFE9BF" points="29.9502908 16.0182786 32.3851066 20.4074337 36.767989 22.8460383 40.0135381 19.5957561 37.5787224 15.206482 33.19584 12.7679964"></polygon>
            <rect id="Rectangle-path" fill="#FFD37D" transform="translate(31.734931, 21.057649) rotate(45.000000) translate(-31.734931, -21.057649) " x="26.9141511" y="18.759625" width="9.64155922" height="4.59604885"></rect>
            <polygon id="Shape" fill="#FFE9BF" points="36.4413891 9.51771415 38.8763238 13.9068692 43.2590873 16.3454739 46.5047553 13.0949535 39.6869383 6.26743191"></polygon>
            <rect id="Rectangle-path" fill="#FFD37D" transform="translate(38.228340, 14.556538) rotate(45.000000) translate(-38.228340, -14.556538) " x="33.4075607" y="12.2585136" width="9.64155922" height="4.59604885"></rect>
            <path d="M45.5306626,12.1196783 L0.810614479,56.9050622 C-0.116039855,57.8330679 -0.116277642,59.3379517 0.810614479,60.2660764 C1.73726881,61.1940821 3.23996116,61.1940821 4.16673439,60.2660764 L48.8867825,15.4808116 C49.8134368,14.5528059 49.8134368,13.0479221 48.8867825,12.1197974 C47.9601281,11.1915535 46.4574358,11.1915535 45.5306626,12.1196783 Z" id="Shape" fill="#3D7A94"></path>
            <path d="M39.126832,1.44916056 C41.0573024,3.38244625 41.0573024,6.51663847 39.126832,8.44992416 C37.1711562,10.4082138 30.9109486,16.677908 28.9553917,18.6361977 C27.64816,19.9453359 27.2277533,21.8048002 27.6910805,23.4695905 C26.0992181,23.82048 24.3680129,23.3764804 23.1298581,22.136639 C21.1993877,20.2033534 21.1993877,17.0691611 23.1298581,15.1358755 C25.0852961,13.1773476 31.3458603,6.90801065 33.3012983,4.9496019 C34.6085301,3.64046375 35.0289368,1.7809994 34.5656096,0.11620908 C36.1575908,-0.234799493 37.8886772,0.209200157 39.126832,1.44916056 Z" id="Shape" fill="#FC7576"></path>
        </g>
    </g>
</svg>