<?xml version="1.0" encoding="UTF-8"?>
<svg width="511px" height="446px" viewBox="0 0 511 446" version="1.1" xmlns="http://www.w3.org/2000/svg" xmlns:xlink="http://www.w3.org/1999/xlink">
    <!-- Generator: Sketch 56.2 (81672) - https://sketch.com -->
    <title>toothbrush</title>
    <desc>Created with Sketch.</desc>
    <g id="Page-1" stroke="none" stroke-width="1" fill="none" fill-rule="evenodd">
        <g id="toothbrush" transform="translate(-1.000000, 0.000000)" fill-rule="nonzero">
            <polygon id="Path" fill="#E5E5E5" points="281.438221 169.414979 414.572546 95.1031865 482.124113 216.128366 348.989788 290.440158"></polygon>
            <path d="M498.779061,243.313515 L364.502438,318.256885 C344.369911,329.492738 321.071697,332.217881 298.892388,325.929389 L278.592221,320.171113 C269.656561,317.637003 260.272557,318.736417 252.167305,323.258828 L39.337179,442.050092 C26.9083467,448.985755 11.2085623,444.53352 4.2690004,432.104687 C-2.66666311,419.671955 1.78557217,403.976069 14.2144065,397.036507 L227.044531,278.249142 C247.177058,267.013289 270.479171,264.288147 292.65458,270.580536 L312.954748,276.334914 C321.890408,278.869023 331.274412,277.773508 339.379664,273.247199 L473.656288,198.29993 C486.08902,191.364267 501.784906,195.816503 508.724467,208.245336 C515.660131,220.678068 511.207895,236.377853 498.779061,243.313515 L498.779061,243.313515 Z" id="Path" fill="#4297D0"></path>
            <path d="M508.728366,208.249235 C515.660131,220.67417 511.211794,236.373954 498.775163,243.317414 L364.49854,318.260783 C344.37381,329.492738 321.075595,332.217881 298.88849,325.929389 L278.59612,320.175011 C269.664357,317.640902 260.280354,318.736417 252.167305,323.262726 L39.337179,442.050092 C26.912245,448.985755 11.2124607,444.53352 4.27679716,432.108585 C2.17933457,428.350306 1.11110938,424.284034 1.02923839,420.245053 C8.78751314,425.32107 19.0331125,426.015026 27.6880727,421.180724 L240.518197,302.393359 C248.631248,297.867049 258.01525,296.771533 266.947012,299.305644 L287.239383,305.060022 C309.426488,311.352412 332.728601,308.623369 352.849431,297.391416 L487.126056,222.448046 C495.792711,217.609846 500.584127,208.510443 500.326818,199.243398 C503.710828,201.442227 506.623105,204.479259 508.728366,208.249235 Z" id="Path" fill="#1876A9"></path>
            <g id="Group" transform="translate(307.399200, 109.785429)" fill="#CBCBCB">
                <polygon id="Path" points="67.0603391 7.70759181 80.7211396 0.0818709863 138.67038 103.902396 125.00958 111.528117"></polygon>
                <polygon id="Path" points="33.7777327 26.2845658 47.4346348 18.6627434 105.387774 122.483267 91.7269731 130.108988"></polygon>
                <polygon id="Path" points="0.495126295 44.8654372 14.1520284 37.2397164 72.1051672 141.06414 58.4443667 148.685961"></polygon>
            </g>
            <path d="M379.570644,0.499024675 L392.900061,24.3781349 C412.365922,59.2513834 394.537486,106.300053 353.067755,129.446221 L269.890478,175.871111 L256.561061,151.991999 C237.091302,117.107057 254.935333,70.0622849 296.393366,46.923914 L379.570644,0.499024675 Z" id="Path" fill="#5BB0B7"></path>
            <path d="M379.570644,0.499024675 L392.900061,24.3781349 C412.365922,59.2513834 394.537486,106.300053 353.067755,129.446221 L306.065868,155.680104 L292.74035,131.800994 C273.270591,96.9160503 291.099027,49.8790753 332.572655,26.7329076 L379.570644,0.499024675 Z" id="Path" fill="#87CDD8"></path>
        </g>
    </g>
</svg>