<?xml version="1.0" encoding="UTF-8"?>
<svg width="93px" height="93px" viewBox="0 0 93 93" version="1.1" xmlns="http://www.w3.org/2000/svg" xmlns:xlink="http://www.w3.org/1999/xlink">
    <!-- Generator: Sketch 50 (54983) - http://www.bohemiancoding.com/sketch -->
    <title>Artboard</title>
    <desc>Created with Sketch.</desc>
    <defs></defs>
    <g id="Artboard" stroke="none" stroke-width="1" fill="none" fill-rule="evenodd">
        <g id="premolar" transform="translate(27.000000, 24.000000)" fill-rule="nonzero">
            <path d="M40.2790091,8.34993174 C42.3855288,16.4168406 39.3775218,26.0366335 37.6219502,33.9737843 C36.8585135,37.4233273 36.220653,40.9554436 34.4692395,44.0645822 C31.6974155,48.9861212 29.4886053,42.5597254 28.6178883,39.8415462 C27.54758,36.5006967 27.1991269,32.1849763 23.9050391,30.1973183 C20.6234257,28.2172435 17.578827,30.2411327 15.67772,33.0587369 C13.7516641,35.9134149 13.0214926,39.2306721 11.7998276,42.4055324 C11.2351506,43.874158 10.6122595,45.3427837 9.07956472,46 C7.45289574,46 6.32354172,42.9894438 5.72643112,41.5275588 C2.46644013,33.5516492 1.46432555,24.5132398 0.205237192,16.0351495 C-0.680449137,10.0704903 1.22814253,2.9809801 7.34395216,0.78520358 C10.6671471,-0.407896784 15.21866,0.69251923 18.5460131,1.68592695 C20.4579312,2.25719958 20.10532,2.07098829 22.0097535,1.40113322 C22.1561204,1.34973553 22.2999925,1.28064356 22.4496859,1.21744969 C26.5255063,-0.490470114 31.4387785,-0.503951474 35.0256002,1.83337932 C37.4464761,3.41154103 39.5787764,5.66798367 40.2790091,8.34993174 Z" id="Shape" fill="#ECE3D2"></path>
            <path d="M36,4.41590633 C35.5256392,4.01098053 35.0317172,3.6290232 34.5190489,3.28534668 C31.0029109,0.925547968 26.1883936,0.93915892 22.1938196,2.66349633 C22.0471101,2.72644698 21.906921,2.79705379 21.7626566,2.84894555 C21.1081692,3.08628651 20.7267244,3.26152751 20.4251549,3.3661617 C19.8864049,2.99100985 19.2734852,2.60054568 18.5513483,2.17435276 C18.2171767,1.97699397 18.0826929,1.57291885 18.1845745,1.20372179 C18.4453915,1.28113408 18.7037632,1.35854636 18.9523543,1.43425728 C15.6921429,0.431300294 11.2305435,-0.679693619 7.97359229,0.524875585 C3.8323087,2.05610762 1.66100787,5.94713837 1,10.1920539 C2.66433794,16.5160422 6.78524521,21 11.6168786,21 C16.4224303,21 20.5294816,16.5679339 22.2101206,10.2975387 C27.8486563,9.8832554 32.7821713,7.66552099 36,4.41590633 Z" id="Shape" fill="#F7EDDF"></path>
            <path d="M24.9978546,12.031825 C25.0165436,6.82365268 25.0087565,4.56263506 20.6565464,1.4886386 C20.1698527,1.65123437 19.8723855,1.58823915 18.7658386,1.23069871 C18.5283321,1.1540829 18.281481,1.07746709 18.0315151,1 C17.934955,1.36945845 18.0626635,1.77381966 18.3819346,1.97131818 C23.4637959,5.11341759 23.4599024,6.44057364 23.4396559,12.0250147 L23.4380985,13.1487132 C23.4380985,13.6194748 23.7861819,14 24.2168085,14 C24.6474351,14 24.9955185,13.6194748 24.9955185,13.1487132 L24.9978546,12.031825 Z" id="Shape" fill="#FFF6EB"></path>
        </g>
    </g>
</svg>