<?xml version="1.0" encoding="UTF-8"?>
<svg width="87px" height="67px" viewBox="0 0 87 67" version="1.1" xmlns="http://www.w3.org/2000/svg" xmlns:xlink="http://www.w3.org/1999/xlink">
    <!-- Generator: Sketch 58 (84663) - https://sketch.com -->
    <title>Group 4</title>
    <desc>Created with Sketch.</desc>
    <defs>
        <rect id="path-1" x="0" y="0" width="96" height="82"></rect>
    </defs>
    <g id="Screens" stroke="none" stroke-width="1" fill="none" fill-rule="evenodd">
        <g id="⟶-Questions" transform="translate(-214.000000, -249.000000)">
            <g id="Group-4" transform="translate(214.000000, 234.000000)">
                <mask id="mask-2" fill="white">
                    <use xlink:href="#path-1"></use>
                </mask>
                <g id="Rectangle"></g>
                <g id="toothpaste-child" mask="url(#mask-2)">
                    <g transform="translate(-51.000000, 13.000000)">
                        <polygon id="Path" fill="#E5E5E5" fill-rule="nonzero" points="76 32.1627217 111.823413 12 130 44.8372784 94.1765872 65"></polygon>
                        <path d="M134.430609,52.9252717 L98.1679506,72.9865449 C92.7309734,75.9942228 86.4390728,76.7237048 80.4493429,75.040365 L74.967093,73.4989565 C72.5539344,72.8206114 70.0196964,73.1149088 67.8307973,74.3254939 L10.3540311,106.124224 C6.99750871,107.980802 2.75763509,106.789002 0.883541495,103.461981 C-0.989499305,100.133915 0.212868474,95.9323502 3.56939143,94.0747282 L61.0461572,62.2770417 C66.4831344,59.2693638 72.7760879,58.5398821 78.7647646,60.224265 L84.2470148,61.7646301 C86.6601734,62.442975 89.1944114,62.1497212 91.3833105,60.9380928 L127.645969,40.8757758 C131.003544,39.0191975 135.242365,40.2109977 137.116458,43.5380194 C138.989499,46.8660848 137.787131,51.0686937 134.430609,52.9252717 L134.430609,52.9252717 Z" id="Path" fill="#4297D0" fill-rule="nonzero"></path>
                        <path d="M137.116943,43.4154296 C138.989041,46.7478856 137.787655,50.9586795 134.42883,52.8209649 L98.164044,72.9213101 C92.7288535,75.9338004 86.4365835,76.6647032 80.4443967,74.9780848 L74.9639308,73.4347197 C72.5516831,72.7550536 70.0172966,73.0488785 67.8261633,74.2628668 L10.3460247,106.122484 C6.99035816,107.982678 2.75023579,106.788557 0.877085081,103.456101 C0.310612455,102.448104 0.0221113239,101.357501 0,100.274218 C2.0953176,101.635641 4.86239988,101.821765 7.19988998,100.525171 L64.6800282,68.665554 C66.871162,67.4515654 69.4055482,67.1577403 71.8177956,67.8374069 L77.2982618,69.380772 C83.2904486,71.0684358 89.5837714,70.3364871 95.0179085,67.3239973 L131.282695,47.2236518 C133.623343,45.9260121 134.917386,43.4854875 134.847893,41 C135.76183,41.5897416 136.548364,42.4042952 137.116943,43.4154296 Z" id="Path" fill="#1876A9" fill-rule="nonzero"></path>
                        <g id="Group" stroke-width="1" fill="none" fill-rule="evenodd" transform="translate(83.000000, 15.000000)">
                            <polygon id="Path" fill="#CBCBCB" fill-rule="nonzero" points="18.3330423 2.12088097 22.0676497 0.022528258 37.9098881 28.5905922 34.1752809 30.6889449"></polygon>
                            <polygon id="Path" fill="#CBCBCB" fill-rule="nonzero" points="9.23420031 7.23266576 12.9677419 5.13538577 28.8110461 33.7034493 25.0764387 35.8018021"></polygon>
                            <polygon id="Path" fill="#CBCBCB" fill-rule="nonzero" points="0.135358268 12.345523 3.86889985 10.2471703 19.712204 38.816307 15.9775967 40.9135866"></polygon>
                        </g>
                        <g id="Group-2" stroke-width="1" fill="none" fill-rule="evenodd" transform="translate(95.535520, 16.366121) rotate(6.000000) translate(-95.535520, -16.366121) translate(82.535520, 1.366121)">
                            <path d="M21.9665346,0.135364545 L24.194673,4.14562667 C27.448576,10.0022464 24.4683841,17.9036085 17.5363257,21.7907803 L3.63245611,29.5873847 L1.40431777,25.5771224 C-1.85023689,19.7185388 1.13256184,11.8178312 8.0626649,7.93196896 L21.9665346,0.135364545 Z" id="Path" fill="#5BB0B7" fill-rule="nonzero"></path>
                            <path d="M21.9488516,0.405566564 L24.188102,4.39709472 C27.4582329,10.2263552 24.4631781,18.090806 17.4965485,21.9598188 L9.60055472,26.3449605 L7.36195935,22.3534324 C4.0911737,16.522217 7.08622836,8.65972092 14.0535128,4.79070827 L21.9488516,0.405566564 Z" id="Path" fill="#87CDD8" fill-rule="nonzero"></path>
                        </g>
                    </g>
                </g>
            </g>
        </g>
    </g>
</svg>