<?xml version="1.0" encoding="UTF-8"?>
<svg width="87px" height="82px" viewBox="0 0 87 82" version="1.1" xmlns="http://www.w3.org/2000/svg" xmlns:xlink="http://www.w3.org/1999/xlink">
    <!-- Generator: Sketch 58 (84663) - https://sketch.com -->
    <title>Group 4</title>
    <desc>Created with Sketch.</desc>
    <defs>
        <rect id="path-1" x="0" y="0" width="96" height="82"></rect>
    </defs>
    <g id="Screens" stroke="none" stroke-width="1" fill="none" fill-rule="evenodd">
        <g id="⟶-Questions" transform="translate(-214.000000, -234.000000)">
            <g id="Group-4" transform="translate(214.000000, 234.000000)">
                <mask id="mask-2" fill="white">
                    <use xlink:href="#path-1"></use>
                </mask>
                <g id="Rectangle"></g>
                <g id="toothpaste-adult" mask="url(#mask-2)">
                    <g transform="translate(-51.000000, 0.000000)">
                        <polygon id="Path" fill="#E5E5E5" fill-rule="nonzero" points="75.8563955 45.6626311 111.740257 25.6332807 129.947515 58.2533486 94.0636538 78.2826988"></polygon>
                        <path d="M134.436544,65.5805958 L98.2447977,85.780176 C92.8184526,88.8085895 86.5388558,89.5431007 80.560839,87.8481556 L75.0893096,86.2961203 C72.68087,85.6130985 70.1515876,85.9094249 67.9669689,87.128356 L10.602599,119.146314 C7.25264032,121.015692 3.02105781,119.815675 1.15062901,116.465716 C-0.718749041,113.114707 0.481267499,108.884175 3.83122675,107.013746 L61.1955962,74.9968391 C66.6219414,71.9684256 72.9025891,71.2339146 78.8795548,72.9299101 L84.3510844,74.4808948 C86.759524,75.1639164 89.2888064,74.8686408 91.4734251,73.6486591 L127.665171,53.448028 C131.016181,51.5786501 135.246713,52.7786668 137.117141,56.1286257 C138.98652,59.4796355 137.786503,63.7112182 134.436544,65.5805958 L134.436544,65.5805958 Z" id="Path" fill="#4297D0" fill-rule="nonzero"></path>
                        <path d="M137.118192,56.1296766 C138.98652,59.4785849 137.787554,63.7101673 134.435493,65.5816467 L98.2437471,85.7812267 C92.8195035,88.8085895 86.5399065,89.5431007 80.5597883,87.8481556 L75.0903605,86.2971709 C72.6829712,85.6141494 70.1536892,85.9094249 67.9669689,87.1294066 L10.602599,119.146314 C7.25369104,121.015692 3.02210855,119.815675 1.15273048,116.466767 C0.587398771,115.453793 0.2994787,114.357806 0.27741191,113.269174 C2.3685094,114.63732 5.1300186,114.824362 7.46280084,113.521367 L64.8271703,81.50446 C67.0138911,80.2844781 69.5431729,79.9892023 71.9505618,80.6722244 L77.4199899,82.2232091 C83.4001081,83.9192048 89.6807557,83.1836424 95.1039482,80.1562801 L131.295695,59.9566999 C133.631629,58.6526538 134.923065,56.2000803 134.853713,53.7023221 C135.765809,54.2949752 136.550759,55.1135503 137.118192,56.1296766 Z" id="Path" fill="#1876A9" fill-rule="nonzero"></path>
                        <g id="Group" stroke-width="1" fill="none" fill-rule="evenodd" transform="translate(82.853691, 29.590604)">
                            <polygon id="Path" fill="#CBCBCB" fill-rule="nonzero" points="18.074857 2.07743686 21.7568697 0.0220667893 37.3760009 28.0049427 33.6939884 30.0603128"></polygon>
                            <polygon id="Path" fill="#CBCBCB" fill-rule="nonzero" points="9.10415452 7.08451188 12.7851164 5.03019256 28.4052985 33.0130681 24.7232857 35.0684382"></polygon>
                            <polygon id="Path" fill="#CBCBCB" fill-rule="nonzero" points="0.133452009 12.0926374 3.8144139 10.0372673 19.4345958 38.021194 15.7525832 40.0755129"></polygon>
                        </g>
                        <path d="M102.30615,0.134502744 L105.898845,6.57066917 C111.145502,15.9700994 106.340182,28.6511862 95.1627933,34.8898018 L72.7439179,47.4027604 L69.1512235,40.9665935 C63.903515,31.5640115 68.713039,18.8839752 79.8872744,12.6474612 L102.30615,0.134502744 Z" id="Path" fill="#5BB0B7" fill-rule="nonzero"></path>
                        <path d="M102.30615,0.134502744 L105.898845,6.57066917 C111.145502,15.9700994 106.340182,28.6511862 95.1627933,34.8898018 L82.494316,41.960653 L78.9026725,35.5244867 C73.654964,26.1219042 78.4602846,13.4439695 89.6387234,7.205354 L102.30615,0.134502744 Z" id="Path" fill="#87CDD8" fill-rule="nonzero"></path>
                    </g>
                </g>
            </g>
        </g>
    </g>
</svg>