<?xml version="1.0" encoding="UTF-8"?>
<svg width="37px" height="100px" viewBox="0 0 37 100" version="1.1" xmlns="http://www.w3.org/2000/svg" xmlns:xlink="http://www.w3.org/1999/xlink">
    <!-- Generator: Sketch 51.2 (57519) - http://www.bohemiancoding.com/sketch -->
    <title>toothpaste</title>
    <desc>Created with Sketch.</desc>
    <defs></defs>
    <g id="Icons" stroke="none" stroke-width="1" fill="none" fill-rule="evenodd">
        <g id="Artboard" transform="translate(-471.000000, -701.000000)" fill-rule="nonzero">
            <g id="toothpaste" transform="translate(471.000000, 701.000000)">
                <path d="M28.5194844,17.2084795 C28.5194844,18.9418129 27.1305391,20.3464912 25.4172656,20.3464912 L11.6284063,20.3464912 C9.91513281,20.3464912 8.5261875,18.9415205 8.5261875,17.2084795 L8.5261875,3.78391813 C8.5261875,2.0505848 10.4652188,0.181871345 18.1739375,0.181871345 C25.8826563,0.181871345 28.5194844,2.05087719 28.5194844,3.78391813 L28.5194844,17.2084795 Z" id="Shape" fill="#F7F6F2"></path>
                <path d="M28.5194844,19.4081871 C28.5194844,21.1415205 27.1305391,22.5461988 25.4172656,22.5461988 L11.6284063,22.5461988 C9.91513281,22.5461988 8.5261875,21.1412281 8.5261875,19.4081871 L8.5261875,5.98362573 C8.5261875,4.2502924 10.4652188,2.38157895 18.1739375,2.38157895 C25.8826563,2.38157895 28.5194844,4.2505848 28.5194844,5.98362573 L28.5194844,19.4081871 Z" id="Shape" fill="#CCCCCA"></path>
                <path d="M28.5194844,20.3245614 C28.5194844,22.0578947 27.1305391,23.4628655 25.4172656,23.4628655 L11.6284063,23.4628655 C9.91513281,23.4628655 8.5261875,22.0576023 8.5261875,20.3245614 L8.5261875,6.9 C8.5261875,5.16666667 10.4652188,3.29795322 18.1739375,3.29795322 C25.8826563,3.29795322 28.5194844,5.16695906 28.5194844,6.9 L28.5194844,20.3245614 Z" id="Shape" fill="#F7F6F2"></path>
                <path d="M36.5149531,91.9517544 L31.5072344,14.0678363 C31.4583828,13.3070175 29.5190625,11.4122807 26.2624844,10.755848 C24.1740078,10.3347953 21.5438281,10.05 18.5228359,10.05 C15.5018437,10.05 12.8716641,10.3347953 10.7831875,10.755848 C7.52689844,11.4122807 5.58757812,13.3073099 5.5384375,14.0678363 L0.53071875,91.9517544 L36.5149531,91.9517544 Z" id="Shape" fill="#DBDBD9"></path>
                <path d="M36.5149531,91.9517544 L31.5072344,14.0678363 C31.426875,12.8190058 5.61908594,12.8190058 5.53872656,14.0678363 L0.531007812,91.9517544 L36.5149531,91.9517544 Z" id="Shape" fill="#A3D5E0"></path>
                <polygon id="Shape" fill="#E5E5E3" points="36.8849531 99.8643275 36.5149531 91.9464912 0.53071875 91.9464912 0.16071875 99.8643275"></polygon>
                <path d="M5.13953125,70.9119883 C5.48091406,71.7134503 5.89629688,72.3637427 6.34376563,72.8482456 C6.78776563,73.3359649 7.2589375,73.6371345 7.72085938,73.794152 C8.64210156,74.1046784 9.57317188,73.9567251 10.5620547,73.6567251 C10.6233359,73.6385965 10.6854844,73.6178363 10.7470547,73.5959064 L10.8395547,73.5652047 L10.8514063,73.5616959 C10.8635469,73.5602339 10.8412891,73.5614035 10.8459141,73.5599415 L10.8534297,73.5573099 L10.882625,73.5473684 L10.9401484,73.527193 C11.0158828,73.5002924 11.1002891,73.4733918 11.1676406,73.4464912 L11.3699844,73.3657895 L12.2085547,73.0435673 L13.8512969,72.3847953 C14.9399063,71.9409357 16.0178203,71.4605263 17.2356406,71.005848 C18.4447891,70.5561404 19.8398047,70.1230994 21.3481328,70.0327485 C22.0985391,69.9900585 22.8639766,70.0280702 23.6112031,70.1666667 C23.9849609,70.2307018 24.3540938,70.325731 24.7162891,70.4327485 C24.8070547,70.4581871 24.8966641,70.4906433 24.9865625,70.519883 L25.0206719,70.5315789 L25.0293438,70.5345029 C25.0140234,70.5324561 25.0591172,70.5403509 25.0568047,70.5403509 L25.0712578,70.5459064 L25.1293594,70.5672515 L25.2446953,70.6111111 L25.5216172,70.7102339 C25.6196094,70.7444444 25.7028594,70.7830409 25.7933359,70.8192982 C27.2166797,71.4090643 28.5885703,72.3584795 29.7242969,73.6669591 C30.2914375,74.3192982 30.7944063,75.0675439 31.2066094,75.8827485 C31.6133203,76.6973684 31.9515234,77.5868421 32.0746641,78.5438596 C31.4294766,78.1388889 30.8137734,77.8733918 30.2145469,77.6497076 C29.6147422,77.4324561 29.0293906,77.2871345 28.4602266,77.1815789 C27.3204531,76.9751462 26.2358906,76.948538 25.1643359,77.0210526 L24.7755469,77.0549708 L24.6561641,77.0611111 L24.5963281,77.0646199 L24.5812969,77.0654971 C24.5746484,77.0652047 24.6148281,77.0716374 24.5948828,77.0692982 L24.5885234,77.069883 L24.563375,77.0733918 L24.3633438,77.098538 C24.0974063,77.1289474 23.83725,77.174269 23.5811406,77.2166667 C23.0692109,77.3116959 22.5749141,77.4207602 22.0762813,77.5643275 C21.0839297,77.8365497 20.0404141,78.2309942 18.8272188,78.6324561 C17.6229844,79.0345029 16.2710391,79.3929825 14.8861406,79.522807 C14.1935469,79.5915205 13.4940156,79.6040936 12.7985312,79.5564327 C12.4502109,79.5359649 12.103625,79.4944444 11.7576172,79.4459064 L11.4896563,79.4035088 C11.3997578,79.3885965 11.3274922,79.3710526 11.2453984,79.3549708 C11.0708047,79.3219298 10.8696172,79.3038012 10.6802812,79.2637427 C9.91513281,79.1277778 9.13177344,78.8681287 8.37269531,78.4409357 C7.61564062,78.0099415 6.88257812,77.3853801 6.30127344,76.5681287 C5.71852344,75.752924 5.30978906,74.7652047 5.12016406,73.7766082 C4.93574219,72.7868421 4.92735938,71.7932749 5.13953125,70.9119883 Z" id="Shape" fill="#F7F6F2"></path>
                <g id="Group" transform="translate(3.179688, 2.923977)" fill="#CCCCCA">
                    <path d="M18.4233984,95.9017544 C18.1343359,95.9017544 17.894125,95.7154971 17.8805391,95.477193 L17.6088203,90.6546784 C17.5949453,90.4090643 17.8267734,90.2005848 18.1268203,90.1891813 C18.4387188,90.1807018 18.6809531,90.3678363 18.6951172,90.6134503 L18.9668359,95.4359649 C18.9807109,95.6815789 18.7485938,95.8900585 18.4488359,95.901462 C18.4401641,95.9017544 18.4317813,95.9017544 18.4233984,95.9017544 Z" id="Shape"></path>
                    <path d="M12.2628984,95.9017544 C12.2545156,95.9017544 12.2461328,95.9017544 12.2374609,95.901462 C11.9377031,95.8900585 11.7055859,95.6815789 11.7194609,95.4359649 L11.9911797,90.6134503 C12.0050547,90.3678363 12.2496016,90.1807018 12.5594766,90.1891813 C12.8592344,90.2005848 13.0910625,90.4090643 13.0774766,90.6546784 L12.8057578,95.477193 C12.7921719,95.7157895 12.5519609,95.9017544 12.2628984,95.9017544 Z" id="Shape"></path>
                    <path d="M6.40446875,95.9017544 C6.38857031,95.9017544 6.37267187,95.9011696 6.35648438,95.9 C6.05730469,95.878655 5.83617187,95.6625731 5.8621875,95.4181287 L6.3755625,90.595614 C6.40157813,90.3505848 6.66867188,90.1710526 6.96438281,90.1906433 C7.2635625,90.2119883 7.48469531,90.4280702 7.45839063,90.6725146 L6.94501563,95.4953216 C6.92073438,95.727193 6.68341406,95.9017544 6.40446875,95.9017544 Z" id="Shape"></path>
                    <path d="M0.726703125,95.9017544 C0.709070313,95.9017544 0.691148438,95.9011696 0.673226563,95.8997076 C0.374335938,95.875731 0.155804688,95.6581871 0.185,95.4134503 L0.758789063,90.5909357 C0.787984375,90.3459064 1.05363281,90.1681287 1.3528125,90.1909357 C1.65170313,90.2149123 1.87023438,90.4324561 1.84103906,90.677193 L1.26725,95.4997076 C1.2395,95.7298246 1.00304688,95.9017544 0.726703125,95.9017544 Z" id="Shape"></path>
                    <path d="M24.2818281,95.9017544 C24.0028828,95.9017544 23.7655625,95.7269006 23.7409922,95.4953216 L23.2276172,90.6725146 C23.2013125,90.4277778 23.4227344,90.2119883 23.721625,90.1906433 C24.0193594,90.1690058 24.2844297,90.3502924 24.3104453,90.595614 L24.8238203,95.4181287 C24.8498359,95.6628655 24.6287031,95.878655 24.3295234,95.9 C24.313625,95.9011696 24.2977266,95.9017544 24.2818281,95.9017544 Z" id="Shape"></path>
                    <path d="M29.9595937,95.9017544 C29.6829609,95.9017544 29.4465078,95.7298246 29.4190469,95.4997076 L28.8452578,90.677193 C28.8160625,90.4324561 29.0345937,90.2149123 29.3334844,90.1909357 C29.6283281,90.1681287 29.8980234,90.3459064 29.9275078,90.5909357 L30.5012969,95.4134503 C30.5304922,95.6581871 30.3119609,95.875731 30.0130703,95.8997076 C29.9951484,95.9011696 29.9772266,95.9017544 29.9595937,95.9017544 Z" id="Shape"></path>
                    <path d="M18.5141641,0.160818713 C18.5141641,1.60350877 17.0942891,2.77280702 15.3431484,2.77280702 C13.5920078,2.77280702 12.1721328,1.60350877 12.1721328,0.160818713 L18.5141641,0.160818713 Z" id="Shape"></path>
                </g>
            </g>
        </g>
    </g>
</svg>