<?xml version="1.0" encoding="UTF-8"?>
<svg width="47px" height="47px" viewBox="0 0 47 47" version="1.1" xmlns="http://www.w3.org/2000/svg" xmlns:xlink="http://www.w3.org/1999/xlink">
    <!-- Generator: Sketch 49.3 (51167) - http://www.bohemiancoding.com/sketch -->
    <title>Page 1</title>
    <desc>Created with Sketch.</desc>
    <defs>
        <path d="M7.2341,14.5520937 C4.66503208,13.7337724 2.28966781,12.4882568 0.193468649,10.9001088 L0.193468649,0.00252315789 L7.2341,0.00252315789 L7.2341,14.5520937 L7.2341,14.5520937 Z" id="path-1"></path>
        <path d="M0.23265,14.5888262 C2.79886802,13.7861337 5.17396094,12.5578651 7.27333419,10.9877271 L7.27333419,0.00247368421 L0.23265,0.00247368421 L0.23265,14.5888262 L0.23265,14.5888262 Z" id="path-3"></path>
    </defs>
    <g id="Zilla-Slab/Lato" stroke="none" stroke-width="1" fill="none" fill-rule="evenodd">
        <g id="⟶-Ongoing-Course-Discussion" transform="translate(-37.000000, -257.000000)">
            <g id="Review-1" transform="translate(20.000000, 240.000000)">
                <g id="Rectangle-Copy">
                    <g id="Page-1" transform="translate(17.000000, 17.000000)">
                        <g id="Group-3" transform="translate(0.000000, 0.004205)" fill="#FFEBAE">
                            <path d="M46.83325,23.4133963 C46.83325,36.2100121 36.349,46.5836542 23.4165,46.5836542 C10.484,46.5836542 0,36.2100121 0,23.4133963 C0,10.6170279 10.484,0.243138421 23.4165,0.243138421 C36.349,0.243138421 46.83325,10.6170279 46.83325,23.4133963" id="Fill-1"></path>
                        </g>
                        <g id="Group-6" transform="translate(9.000000, 30.925258)">
                            <mask id="mask-2" fill="white">
                                <use xlink:href="#path-1"></use>
                            </mask>
                            <g id="Clip-5"></g>
                            <path d="M5.12135,15.2730705 C5.4646,15.4830863 5.7891,15.6678705 6.09835,15.8316284 L7.2341,15.8316284 L7.2341,0.00252315789 C5.21285,1.17529684 -6.1784,8.35887579 5.12135,15.2730705" id="Fill-4" fill="#E9351E" mask="url(#mask-2)"></path>
                        </g>
                        <g id="Group-9" transform="translate(30.250000, 30.925258)">
                            <mask id="mask-4" fill="white">
                                <use xlink:href="#path-3"></use>
                            </mask>
                            <g id="Clip-8"></g>
                            <path d="M1.36865,15.8315789 C1.67765,15.6678211 2.00215,15.4830368 2.3454,15.2730211 C13.64515,8.35882632 2.25415,1.17524737 0.23265,0.00247368421 L0.23265,15.8315789 L1.36865,15.8315789 Z" id="Fill-7" fill="#E9351E" mask="url(#mask-4)"></path>
                        </g>
                        <polygon id="Fill-10" fill="#FEB913" points="8.14375 24.2487842 13.50625 24.2487842 13.50625 22.4801 8.14375 22.4801"></polygon>
                        <path d="M9.4436,23.3644668 C9.4436,24.6522668 8.3886,25.6961616 7.0871,25.6961616 C5.78585,25.6961616 4.7306,24.6522668 4.7306,23.3644668 C4.7306,22.0764195 5.78585,21.0327721 7.0871,21.0327721 C8.3886,21.0327721 9.4436,22.0764195 9.4436,23.3644668" id="Fill-12" fill="#E9351E"></path>
                        <polygon id="Fill-13" fill="#FEB913" points="33.08925 24.2487842 38.45225 24.2487842 38.45225 22.4801 33.08925 22.4801"></polygon>
                        <path d="M37.15235,23.3644668 C37.15235,24.6522668 38.20735,25.6961616 39.5086,25.6961616 C40.8101,25.6961616 41.8651,24.6522668 41.8651,23.3644668 C41.8651,22.0764195 40.8101,21.0327721 39.5086,21.0327721 C38.20735,21.0327721 37.15235,22.0764195 37.15235,23.3644668" id="Fill-14" fill="#E9351E"></path>
                        <path d="M35.60815,26.4197142 C35.60815,29.0838721 33.4259,31.2436458 30.7329,31.2436458 L15.78165,31.2436458 C13.08915,31.2436458 10.90615,29.0838721 10.90615,26.4197142 L10.90615,20.1481826 C10.90615,17.4840247 13.08915,15.3242511 15.78165,15.3242511 L30.7329,15.3242511 C33.4259,15.3242511 35.60815,17.4840247 35.60815,20.1481826 L35.60815,26.4197142 Z" id="Fill-15" fill="#FEB913"></path>
                        <polygon id="Fill-16" fill="#F58B22" points="10.90625 25.1331263 35.60825 25.1331263 35.60825 20.9523526 10.90625 20.9523526"></polygon>
                        <path d="M18.957525,22.8150121 C19.014775,24.5903753 17.607025,26.0753279 15.812275,26.1317279 C14.018525,26.1886226 12.517275,24.7954437 12.460525,23.0200805 C12.402775,21.2447174 13.810775,19.7597647 15.605275,19.7031174 C17.399525,19.64647 18.900275,21.0396489 18.957525,22.8150121" id="Fill-17" fill="#FFFFFF"></path>
                        <path d="M17.820325,22.8507568 C17.857575,24.0047305 16.942575,24.9699621 15.776075,25.00682 C14.610075,25.0436779 13.634325,24.1383095 13.597325,22.9840884 C13.560075,21.8303621 14.475325,20.8651305 15.641325,20.8282726 C16.807575,20.7911674 17.783325,21.6970305 17.820325,22.8507568" id="Fill-18" fill="#221E1D"></path>
                        <path d="M16.922125,22.7183653 C16.930375,22.9847811 16.719125,23.2074126 16.450125,23.2160705 C16.181125,23.2242337 15.956125,23.0152074 15.947625,22.7490389 C15.938875,22.4826232 16.149875,22.2599916 16.419125,22.2515811 C16.688125,22.2431705 16.913375,22.4519495 16.922125,22.7183653" id="Fill-19" fill="#FFFFFF"></path>
                        <path d="M34.3103,22.8148884 C34.36755,24.5902516 32.95955,26.0752042 31.1653,26.1318516 C29.3713,26.1884989 27.87005,24.79532 27.8133,23.0202042 C27.7553,21.2448411 29.16355,19.7598884 30.95805,19.7029937 C32.7523,19.6463463 34.25305,21.0397726 34.3103,22.8148884" id="Fill-20" fill="#FFFFFF"></path>
                        <path d="M33.1731,22.8507568 C33.21035,24.0047305 32.2951,24.9699621 31.1291,25.00682 C29.9626,25.0436779 28.9871,24.1383095 28.94985,22.9840884 C28.9131,21.8303621 29.8281,20.8648832 30.9941,20.8280253 C32.1601,20.7911674 33.1361,21.6970305 33.1731,22.8507568" id="Fill-21" fill="#221E1D"></path>
                        <path d="M32.27465,22.7183653 C32.28315,22.9847811 32.0719,23.2074126 31.80265,23.2160705 C31.5339,23.2242337 31.30865,23.0152074 31.30015,22.7490389 C31.2914,22.4826232 31.50265,22.2597442 31.77165,22.2515811 C32.04065,22.2431705 32.2659,22.4519495 32.27465,22.7183653" id="Fill-22" fill="#FFFFFF"></path>
                        <polygon id="Fill-23" fill="#E9351E" points="23.507325 21.1085411 22.044325 25.1285253 25.294575 25.1285253"></polygon>
                        <path d="M29.8938,26.7388442 C29.8053,26.5350126 29.5663,26.4400232 29.36005,26.5278389 C22.82105,29.3003442 17.9143,26.5800337 17.86005,26.5496074 C17.66605,26.4380442 17.4178,26.5033495 17.3053,26.6955547 C17.19255,26.8875126 17.25855,27.1336442 17.45255,27.24496 C17.59355,27.3258495 19.86355,28.5953442 23.3903,28.5953442 C25.19655,28.5953442 27.3323,28.2623863 29.68005,27.2667284 C29.88655,27.1794074 29.98205,26.9431705 29.8938,26.7388442" id="Fill-24" fill="#221E1D"></path>
                        <path d="M20.061275,17.2539226 C20.061275,17.7867542 19.625025,18.2186595 19.086275,18.2186595 C18.547775,18.2186595 18.111275,17.7867542 18.111275,17.2539226 C18.111275,16.7210911 18.547775,16.2891858 19.086275,16.2891858 C19.625025,16.2891858 20.061275,16.7210911 20.061275,17.2539226" id="Fill-25" fill="#FDDA0E"></path>
                        <path d="M22.878175,17.2539226 C22.878175,17.7867542 22.441425,18.2186595 21.903175,18.2186595 C21.364425,18.2186595 20.927925,17.7867542 20.927925,17.2539226 C20.927925,16.7210911 21.364425,16.2891858 21.903175,16.2891858 C22.441425,16.2891858 22.878175,16.7210911 22.878175,17.2539226" id="Fill-26" fill="#FDDA0E"></path>
                        <path d="M25.695075,17.2539226 C25.695075,17.7867542 25.258575,18.2186595 24.720075,18.2186595 C24.181075,18.2186595 23.744825,17.7867542 23.744825,17.2539226 C23.744825,16.7210911 24.181075,16.2891858 24.720075,16.2891858 C25.258575,16.2891858 25.695075,16.7210911 25.695075,17.2539226" id="Fill-27" fill="#FDDA0E"></path>
                        <path d="M28.511975,17.2539226 C28.511975,17.7867542 28.075725,18.2186595 27.536975,18.2186595 C26.998225,18.2186595 26.561975,17.7867542 26.561975,17.2539226 C26.561975,16.7210911 26.998225,16.2891858 27.536975,16.2891858 C28.075725,16.2891858 28.511975,16.7210911 28.511975,17.2539226" id="Fill-28" fill="#FDDA0E"></path>
                        <path d="M32.757325,46.7568368 C35.225075,40.6619263 30.505325,31.2436211 30.505325,31.2436211 L16.366575,31.2436211 C16.366575,31.2436211 11.497825,40.6619263 13.690825,46.7568368 L32.757325,46.7568368 Z" id="Fill-29" fill="#FEB913"></path>
                        <path d="M33.0276,38.6406542 C32.1991,34.6214121 30.50535,31.2435963 30.50535,31.2435963 L16.3666,31.2435963 C16.3666,31.2435963 14.62035,34.6214121 13.68985,38.6406542 L33.0276,38.6406542 Z" id="Fill-30" fill="#F58B22"></path>
                        <path d="M26.815925,34.2859805 L19.867175,34.2859805 C17.488925,34.2859805 15.553925,36.2006121 15.553925,38.5538279 C15.553925,40.9072911 17.488925,42.8214279 19.867175,42.8214279 L26.815925,42.8214279 C29.193925,42.8214279 31.129175,40.9072911 31.129175,38.5538279 C31.129175,36.2006121 29.193925,34.2859805 26.815925,34.2859805" id="Fill-31" fill="#F58B22"></path>
                        <path d="M30.153575,38.5538279 C30.153575,40.37817 28.659325,41.8566911 26.815825,41.8566911 L19.867075,41.8566911 C18.023325,41.8566911 16.529325,40.37817 16.529325,38.5538279 C16.529325,36.7297332 18.023325,35.2509647 19.867075,35.2509647 L26.815825,35.2509647 C28.659325,35.2509647 30.153575,36.7297332 30.153575,38.5538279" id="Fill-32" fill="#FDDA0E"></path>
                        <path d="M18.729725,41.6555805 C22.364975,40.0130542 26.146475,38.6636595 30.010975,37.5975016 C29.801725,36.9169911 29.376225,36.3297384 28.814225,35.9124279 C26.892475,36.1278858 24.981225,36.4234911 23.088225,36.8153226 C20.871725,37.2744384 18.674725,37.8438805 16.529475,38.5632279 C16.533975,39.9873279 17.450225,41.19597 18.729725,41.6555805" id="Fill-33" fill="#FFF0AA"></path>
                        <path d="M29.207775,15.3614553 L29.207775,15.1853289 C29.207775,12.2658868 26.816275,9.89931316 23.865525,9.89931316 L22.441275,9.89931316 C19.490775,9.89931316 17.098775,12.2658868 17.098775,15.1853289 L17.098775,15.3614553 L29.207775,15.3614553 Z" id="Fill-34" fill="#E9351E"></path>
                    </g>
                </g>
            </g>
        </g>
    </g>
</svg>