<?xml version="1.0" encoding="UTF-8"?>
<svg width="26px" height="27px" viewBox="0 0 26 27" version="1.1" xmlns="http://www.w3.org/2000/svg" xmlns:xlink="http://www.w3.org/1999/xlink">
    <!-- Generator: Sketch 50 (54983) - http://www.bohemiancoding.com/sketch -->
    <title></title>
    <desc>Created with Sketch.</desc>
    <defs></defs>
    <g id="Zilla-Slab/Lato" stroke="none" stroke-width="1" fill="none" fill-rule="evenodd" opacity="0.7">
        <g id="⟶-Congrats" transform="translate(-25.000000, -615.000000)" fill="#FFFFFF">
            <path d="M45.2616704,629.925801 C46.8866666,630.128925 48.2492933,630.839861 49.3495513,632.058608 C50.4498094,633.277355 50.999938,634.716153 50.999938,636.375004 L50.999938,637.796875 C50.999938,638.74479 50.6613969,639.557288 49.9843154,640.23437 C49.307234,640.911451 48.5116627,641.249992 47.5976024,641.249992 L28.4531168,641.249992 C27.5052021,641.249992 26.692704,640.911451 26.0156226,640.23437 C25.3385411,639.557288 25,638.74479 25,637.796875 L25,636.375004 C25,634.716153 25.5501286,633.277355 26.6503867,632.058608 C27.7506447,630.839861 29.1132714,630.128925 30.7382676,629.925801 C29.4856661,628.300804 28.8593658,626.455757 28.8593658,624.390657 C28.8593658,622.731807 29.2656148,621.19991 30.0781129,619.794965 C30.890611,618.39002 31.999332,617.281299 33.4042768,616.468801 C34.8092217,615.656303 36.3411185,615.250054 37.999969,615.250054 C39.6588195,615.250054 41.1907163,615.656303 42.5956612,616.468801 C44.000606,617.281299 45.1093271,618.39002 45.9218251,619.794965 C46.7343232,621.19991 47.1405722,622.731807 47.1405722,624.390657 C47.1405722,626.455757 46.5142719,628.300804 45.2616704,629.925801 Z M37.999969,617.687548 C36.7812219,617.687548 35.6640371,617.992235 34.6484145,618.601609 C33.6327919,619.210982 32.8202939,620.02348 32.2109203,621.039103 C31.6015468,622.054726 31.29686,623.17191 31.29686,624.390657 C31.29686,625.609405 31.6015468,626.726589 32.2109203,627.742212 C32.8202939,628.757835 33.6327919,629.570333 34.6484145,630.179706 C35.6640371,630.78908 36.7812219,631.093766 37.999969,631.093766 C39.2187161,631.093766 40.3359009,630.78908 41.3515235,630.179706 C42.3671461,629.570333 43.1796442,628.757835 43.7890177,627.742212 C44.3983913,626.726589 44.703078,625.609405 44.703078,624.390657 C44.703078,623.17191 44.3983913,622.054726 43.7890177,621.039103 C43.1796442,620.02348 42.3671461,619.210982 41.3515235,618.601609 C40.3359009,617.992235 39.2187161,617.687548 37.999969,617.687548 Z M48.5624438,637.796875 L48.5624438,636.375004 C48.5624438,635.257819 48.1646586,634.301441 47.3690873,633.50587 C46.573516,632.710299 45.6171383,632.312514 44.4999535,632.312514 L42.5702706,632.312514 C41.148399,633.125012 39.6249651,633.531261 37.999969,633.531261 C36.3749729,633.531261 34.851539,633.125012 33.4296674,632.312514 L31.4999845,632.312514 C30.3827997,632.312514 29.426422,632.710299 28.6308507,633.50587 C27.8352794,634.301441 27.4374942,635.257819 27.4374942,636.375004 L27.4374942,637.847657 C27.4374942,638.118489 27.5305927,638.347004 27.7167904,638.533202 C27.9029881,638.7194 28.14843,638.812498 28.4531168,638.812498 L47.5976024,638.812498 C47.8684348,638.812498 48.0969499,638.7194 48.2831476,638.533202 C48.4693453,638.347004 48.5624438,638.101562 48.5624438,637.796875 Z" id=""></path>
        </g>
    </g>
</svg>