<?xml version="1.0" encoding="UTF-8"?>
<svg width="70px" height="100px" viewBox="0 0 70 100" version="1.1" xmlns="http://www.w3.org/2000/svg" xmlns:xlink="http://www.w3.org/1999/xlink">
    <!-- Generator: Sketch 51.2 (57519) - http://www.bohemiancoding.com/sketch -->
    <title>Group 8</title>
    <desc>Created with Sketch.</desc>
    <defs></defs>
    <g id="Icons" stroke="none" stroke-width="1" fill="none" fill-rule="evenodd">
        <g id="Artboard" transform="translate(-797.000000, -49.000000)" fill-rule="nonzero">
            <g id="water" transform="translate(797.000000, 49.000000)">
                <g id="Group-8">
                    <g id="XMLID_1811_">
                        <g id="XMLID_1276_">
                            <g id="XMLID_924_">
                                <path d="M67.7245384,0 C68.6572389,0 69.3921409,0.799609375 69.3193495,1.73515625 L68.4522583,12.8910156 L65.7979926,47.0429687 L61.79893,98.5158203 C61.733903,99.3535156 61.0391819,100 60.2041189,100 L9.28546539,100 C8.45020831,100 7.75568128,99.3535156 7.69065429,98.5158203 L1.54764227,19.4511719 L0.17217593,1.73496094 C0.099384528,0.799414062 0.834286526,0 1.76698703,0 L67.7245384,0 Z" id="XMLID_1780_" fill="#CAEDFF"></path>
                                <path d="M67.7239561,0.0005859375 C68.6566566,0.0005859375 69.3915586,0.8 69.3187672,1.73554687 L68.4530348,12.890625 L65.7985749,47.0429687 L61.7991241,98.5148437 C61.7340971,99.3525391 61.039376,99.9990234 60.204313,99.9990234 L57.9947543,99.9990234 L62.1073715,47.0429687 L64.7620254,12.890625 L65.7646056,0.0005859375 L67.7239561,0.0005859375 Z" id="XMLID_1827_" fill="#76C2E0"></path>
                                <path d="M59.6507102,20.403125 C60.7078354,20.1441406 61.7098333,20.9955078 61.6286952,22.0871094 L60.5164426,37.0607422 L59.2133794,54.6091797 L56.4771991,91.4619141 C56.4148897,92.3019531 55.719198,92.9515625 54.8818057,92.9515625 L14.7102689,92.9515625 C13.8730707,92.9515625 13.177379,92.3019531 13.1148755,91.4617187 L8.30792539,26.7035156 C8.25240981,25.9548828 8.71711012,25.2638672 9.4310482,25.0455078 C14.7409384,23.4222656 22.9211391,21.9972656 30.4611637,25.0998047 C39.9762617,29.0144531 48.05009,23.6433594 57.9815548,20.8441406 C58.5314696,20.6888672 59.08779,20.5410156 59.6507102,20.403125 Z" id="XMLID_1783_" fill="#50B8FF"></path>
                                <path d="M59.6446927,20.4046875 C60.7045356,20.1453125 61.7100275,20.9919922 61.6288893,22.0863281 L60.5174131,37.0595703 L59.212603,54.6080078 L56.4771991,91.4623047 C56.4148897,92.3025391 55.719198,92.9521484 54.8818057,92.9521484 L52.960695,92.9521484 L55.8067418,54.6080078 L57.1115519,37.0595703 L58.3228009,20.7490234 C58.7587728,20.6289062 59.1995976,20.5136719 59.6446927,20.4046875 Z" id="XMLID_1226_" fill="#2195F2"></path>
                            </g>
                            <path d="M52.5903324,34.2443359 C51.7618691,34.2443359 51.0906354,33.56875 51.0906354,32.7353516 L51.0906354,32.3755859 C51.0906354,31.5421875 51.7620633,30.8666016 52.5903324,30.8666016 C53.4186015,30.8666016 54.0900294,31.5421875 54.0900294,32.3755859 L54.0900294,32.7353516 C54.0902235,33.56875 53.4187956,34.2443359 52.5903324,34.2443359 Z" id="XMLID_1087_" fill="#CAEDFF"></path>
                            <path d="M45.6454502,40.8193359 C44.816987,40.8193359 44.1457532,40.14375 44.1457532,39.3103516 L44.1457532,38.9505859 C44.1457532,38.1171875 44.8171811,37.4416016 45.6454502,37.4416016 C46.4737193,37.4416016 47.1451472,38.1171875 47.1451472,38.9505859 L47.1451472,39.3103516 C47.1451472,40.14375 46.4737193,40.8193359 45.6454502,40.8193359 Z" id="XMLID_1089_" fill="#CAEDFF"></path>
                            <path d="M52.5903324,57.0019531 C51.7618691,57.0019531 51.0906354,56.3263672 51.0906354,55.4929687 L51.0906354,55.1332031 C51.0906354,54.2998047 51.7620633,53.6242187 52.5903324,53.6242187 C53.4186015,53.6242187 54.0900294,54.2998047 54.0900294,55.1332031 L54.0900294,55.4929687 C54.0902235,56.3263672 53.4187956,57.0019531 52.5903324,57.0019531 Z" id="XMLID_1092_" fill="#CAEDFF"></path>
                            <path d="M27.0250213,51.2451172 C26.1967522,51.2451172 25.5253243,50.5695312 25.5253243,49.7361328 L25.5253243,49.3763672 C25.5253243,48.5429687 26.1967522,47.8673828 27.0250213,47.8673828 C27.8532904,47.8673828 28.5247183,48.5429687 28.5247183,49.3763672 L28.5247183,49.7361328 C28.5247183,50.5695312 27.8532904,51.2451172 27.0250213,51.2451172 Z" id="XMLID_1093_" fill="#CAEDFF"></path>
                            <path d="M18.1324354,38.1876953 C17.3041663,38.1876953 16.6327384,37.5121094 16.6327384,36.6787109 L16.6327384,36.3189453 C16.6327384,35.4855469 17.3041663,34.8099609 18.1324354,34.8099609 C18.9607045,34.8099609 19.6321324,35.4855469 19.6321324,36.3189453 L19.6321324,36.6787109 C19.6321324,37.5121094 18.9607045,38.1876953 18.1324354,38.1876953 Z" id="XMLID_1088_" fill="#CAEDFF"></path>
                            <path d="M29.6503645,34.0644531 C28.8220954,34.0644531 28.1506676,33.3888672 28.1506676,32.5554687 L28.1506676,32.1957031 C28.1506676,31.3623047 28.8220954,30.6867188 29.6503645,30.6867188 C30.4786337,30.6867188 31.1500615,31.3623047 31.1500615,32.1957031 L31.1500615,32.5554687 C31.1502557,33.3888672 30.4786337,34.0644531 29.6503645,34.0644531 Z" id="XMLID_1235_" fill="#CAEDFF"></path>
                        </g>
                    </g>
                    <g id="XMLID_1970_" transform="translate(25.423729, 66.101695)" fill="#CAEDFF">
                        <path d="M11.7390858,13.507961 L1.7758603,13.507961 C0.840677966,13.507961 0.0827940421,12.7498716 0.0827940421,11.8148947 L0.0827940421,1.85166923 C0.0827940421,0.916486903 0.84088341,0.158602979 1.7758603,0.158602979 L11.7390858,0.158602979 C12.6742681,0.158602979 13.432152,0.916692347 13.432152,1.85166923 L13.432152,11.8148947 C13.432152,12.7498716 12.6740627,13.507961 11.7390858,13.507961 Z" id="XMLID_1967_"></path>
                    </g>
                    <g id="XMLID_1976_" transform="translate(32.203390, 42.372881)" fill="#CAEDFF">
                        <path d="M10.0784166,15.14823 L1.22806265,12.0890796 C0.397382536,11.8019524 -0.0432525209,10.8957734 0.243874705,10.0650933 L3.3030251,1.21473933 C3.59015233,0.384059215 4.49633126,-0.0565758421 5.32701137,0.230551384 L14.1773654,3.28970178 C15.0080455,3.57682901 15.4486805,4.48300794 15.1615533,5.31368805 L12.1024029,14.1640421 C11.8152757,14.9947222 10.9090968,15.4353572 10.0784166,15.14823 Z" id="XMLID_1993_"></path>
                    </g>
                </g>
            </g>
        </g>
    </g>
</svg>