<?xml version="1.0" encoding="UTF-8"?>
<svg width="93px" height="93px" viewBox="0 0 93 93" version="1.1" xmlns="http://www.w3.org/2000/svg" xmlns:xlink="http://www.w3.org/1999/xlink">
    <!-- Generator: Sketch 50 (54983) - http://www.bohemiancoding.com/sketch -->
    <title>Artboard</title>
    <desc>Created with Sketch.</desc>
    <defs></defs>
    <g id="Artboard" stroke="none" stroke-width="1" fill="none" fill-rule="evenodd">
        <g id="water" transform="translate(26.000000, 17.000000)" fill-rule="nonzero">
            <g id="XMLID_1811_">
                <g id="XMLID_1276_">
                    <g id="XMLID_924_">
                        <path d="M39.9574777,0 C40.5077709,0 40.9413631,0.471769531 40.8984162,1.02374219 L40.3868324,7.60569922 L38.8208156,27.7553516 L36.4613687,58.124334 C36.4230028,58.6185742 36.0131173,59 35.5204302,59 L5.47842458,59 C4.98562291,59 4.57585196,58.6185742 4.53748603,58.124334 L0.913108939,11.4761914 L0.101583799,1.02362695 C0.0586368715,0.471654297 0.49222905,0 1.04252235,0 L39.9574777,0 Z" id="XMLID_1780_" fill="#CAEDFF"></path>
                        <path d="M39.9571341,0.000345703125 C40.5074274,0.000345703125 40.9410196,0.472 40.8980726,1.02397266 L40.3872905,7.60546875 L38.8211592,27.7553516 L36.4614832,58.1237578 C36.4231173,58.617998 36.0132318,58.9994238 35.5205447,58.9994238 L34.216905,58.9994238 L36.6433492,27.7553516 L38.209595,7.60546875 L38.8011173,0.000345703125 L39.9571341,0.000345703125 Z" id="XMLID_1827_" fill="#76C2E0"></path>
                        <path d="M35.193919,12.0378437 C35.8176229,11.885043 36.4088017,12.3873496 36.3609302,13.0313945 L35.7047011,21.8658379 L34.9358939,32.219416 L33.3215475,53.9625293 C33.2847849,54.4581523 32.8743268,54.8414219 32.3802654,54.8414219 L8.67905866,54.8414219 C8.18511173,54.8414219 7.77465363,54.4581523 7.73777654,53.9624141 L4.90167598,15.7550742 C4.86892179,15.3133809 5.14309497,14.9056816 5.56431844,14.7768496 C8.69715363,13.8191367 13.5234721,12.9783867 17.9720866,14.8088848 C23.5859944,17.1185273 28.3495531,13.949582 34.2091173,12.298043 C34.533567,12.2064316 34.8617961,12.1191992 35.193919,12.0378437 Z" id="XMLID_1783_" fill="#50B8FF"></path>
                        <path d="M35.1903687,12.0387656 C35.815676,11.8857344 36.4089162,12.3852754 36.3610447,13.0309336 L35.7052737,21.8651465 L34.9354358,32.2187246 L33.3215475,53.9627598 C33.2847849,54.458498 32.8743268,54.8417676 32.3802654,54.8417676 L31.2468101,54.8417676 L32.9259777,32.2187246 L33.6958156,21.8651465 L34.4104525,12.2419238 C34.667676,12.1710547 34.9277626,12.1030664 35.1903687,12.0387656 Z" id="XMLID_1226_" fill="#2195F2"></path>
                    </g>
                    <path d="M31.0282961,20.2041582 C30.5395028,20.2041582 30.1434749,19.8055625 30.1434749,19.3138574 L30.1434749,19.1015957 C30.1434749,18.6098906 30.5396173,18.2112949 31.0282961,18.2112949 C31.5169749,18.2112949 31.9131173,18.6098906 31.9131173,19.1015957 L31.9131173,19.3138574 C31.9132318,19.8055625 31.5170894,20.2041582 31.0282961,20.2041582 Z" id="XMLID_1087_" fill="#CAEDFF"></path>
                    <path d="M26.9308156,24.0834082 C26.4420223,24.0834082 26.0459944,23.6848125 26.0459944,23.1931074 L26.0459944,22.9808457 C26.0459944,22.4891406 26.4421369,22.0905449 26.9308156,22.0905449 C27.4194944,22.0905449 27.8156369,22.4891406 27.8156369,22.9808457 L27.8156369,23.1931074 C27.8156369,23.6848125 27.4194944,24.0834082 26.9308156,24.0834082 Z" id="XMLID_1089_" fill="#CAEDFF"></path>
                    <path d="M31.0282961,33.6311523 C30.5395028,33.6311523 30.1434749,33.2325566 30.1434749,32.7408516 L30.1434749,32.5285898 C30.1434749,32.0368848 30.5396173,31.6382891 31.0282961,31.6382891 C31.5169749,31.6382891 31.9131173,32.0368848 31.9131173,32.5285898 L31.9131173,32.7408516 C31.9132318,33.2325566 31.5170894,33.6311523 31.0282961,33.6311523 Z" id="XMLID_1092_" fill="#CAEDFF"></path>
                    <path d="M15.9447626,30.2346191 C15.4560838,30.2346191 15.0599413,29.8360234 15.0599413,29.3443184 L15.0599413,29.1320566 C15.0599413,28.6403516 15.4560838,28.2417559 15.9447626,28.2417559 C16.4334413,28.2417559 16.8295838,28.6403516 16.8295838,29.1320566 L16.8295838,29.3443184 C16.8295838,29.8360234 16.4334413,30.2346191 15.9447626,30.2346191 Z" id="XMLID_1093_" fill="#CAEDFF"></path>
                    <path d="M10.6981369,22.5307402 C10.2094581,22.5307402 9.81331564,22.1321445 9.81331564,21.6404395 L9.81331564,21.4281777 C9.81331564,20.9364727 10.2094581,20.537877 10.6981369,20.537877 C11.1868156,20.537877 11.5829581,20.9364727 11.5829581,21.4281777 L11.5829581,21.6404395 C11.5829581,22.1321445 11.1868156,22.5307402 10.6981369,22.5307402 Z" id="XMLID_1088_" fill="#CAEDFF"></path>
                    <path d="M17.4937151,20.0980273 C17.0050363,20.0980273 16.6088939,19.6994316 16.6088939,19.2077266 L16.6088939,18.9954648 C16.6088939,18.5037598 17.0050363,18.1051641 17.4937151,18.1051641 C17.9823939,18.1051641 18.3785363,18.5037598 18.3785363,18.9954648 L18.3785363,19.2077266 C18.3786508,19.6994316 17.9823939,20.0980273 17.4937151,20.0980273 Z" id="XMLID_1235_" fill="#CAEDFF"></path>
                </g>
            </g>
            <g id="XMLID_1970_" transform="translate(15.000000, 39.000000)" fill="#CAEDFF">
                <path d="M6.92606061,7.96969697 L1.04775758,7.96969697 C0.496,7.96969697 0.0488484848,7.52242424 0.0488484848,6.97078788 L0.0488484848,1.09248485 C0.0488484848,0.540727273 0.496121212,0.0935757576 1.04775758,0.0935757576 L6.92606061,0.0935757576 C7.47781818,0.0935757576 7.9249697,0.540848485 7.9249697,1.09248485 L7.9249697,6.97078788 C7.9249697,7.52242424 7.47769697,7.96969697 6.92606061,7.96969697 Z" id="XMLID_1967_"></path>
            </g>
            <g id="XMLID_1976_" transform="translate(19.000000, 25.000000)" fill="#CAEDFF">
                <path d="M5.94626582,8.9374557 L0.724556962,7.13255696 C0.234455696,6.9631519 -0.0255189873,6.42850633 0.143886076,5.93840506 L1.94878481,0.716696203 C2.11818987,0.226594937 2.65283544,-0.0333797468 3.14293671,0.136025316 L8.36464557,1.94092405 C8.85474684,2.11032911 9.11472152,2.64497468 8.94531646,3.13507595 L7.14041772,8.35678481 C6.97101266,8.84688608 6.43636709,9.10686076 5.94626582,8.9374557 Z" id="XMLID_1993_"></path>
            </g>
        </g>
    </g>
</svg>