<?xml version="1.0" encoding="iso-8859-1"?>
<!-- Generator: Adobe Illustrator 19.0.0, SVG Export Plug-In . SVG Version: 6.00 Build 0)  -->
<svg xmlns="http://www.w3.org/2000/svg" xmlns:xlink="http://www.w3.org/1999/xlink" version="1.1" id="Layer_1" x="0px" y="0px" viewBox="0 0 512 512" style="enable-background:new 0 0 512 512;" xml:space="preserve" width="512" height="512">
<g id="XMLID_2145_">
	<g id="XMLID_1811_">
		<g id="XMLID_1276_">
			<g id="XMLID_924_">
				<path id="XMLID_1780_" style="fill:#CAEDFF;" d="M425.897,0c4.805,0,8.591,4.094,8.216,8.884l-4.467,57.118L415.972,240.86      L395.37,504.401c-0.335,4.289-3.914,7.599-8.216,7.599H124.836c-4.303,0-7.881-3.31-8.216-7.599L84.973,99.59L77.887,8.883      C77.512,4.093,81.298,0,86.103,0H425.897z"/>
				<path id="XMLID_1827_" style="fill:#76C2E0;" d="M425.894,0.003c4.805,0,8.591,4.093,8.216,8.883L429.65,66L415.975,240.86      l-20.604,263.536c-0.335,4.289-3.914,7.599-8.216,7.599h-11.383l21.187-271.135L410.635,66L415.8,0.003H425.894z"/>
				<path id="XMLID_1783_" style="fill:#50B8FF;" d="M384.303,104.464c5.446-1.326,10.608,3.033,10.19,8.622l-5.73,76.665      l-6.713,89.848l-14.096,188.686c-0.321,4.301-3.905,7.627-8.219,7.627H152.783c-4.313,0-7.897-3.326-8.219-7.628L119.8,136.722      c-0.286-3.833,2.108-7.371,5.786-8.489c27.355-8.311,69.497-15.607,108.341,0.278c49.019,20.043,90.613-7.457,141.777-21.789      C378.537,105.927,381.403,105.17,384.303,104.464z"/>
				<path id="XMLID_1226_" style="fill:#2195F2;" d="M384.272,104.472c5.46-1.328,10.64,3.007,10.222,8.61l-5.726,76.663      l-6.722,89.848l-14.092,188.694c-0.321,4.302-3.905,7.628-8.219,7.628h-9.897l14.662-196.322l6.722-89.848l6.24-83.51      C379.708,105.62,381.979,105.03,384.272,104.472z"/>
			</g>
			<path id="XMLID_1087_" style="fill:#CAEDFF;" d="M347.93,175.331c-4.268,0-7.726-3.459-7.726-7.726v-1.842     c0-4.267,3.459-7.726,7.726-7.726s7.726,3.459,7.726,7.726v1.842C355.657,171.872,352.198,175.331,347.93,175.331z"/>
			<path id="XMLID_1089_" style="fill:#CAEDFF;" d="M312.152,208.995c-4.268,0-7.726-3.459-7.726-7.726v-1.842     c0-4.267,3.459-7.726,7.726-7.726s7.726,3.459,7.726,7.726v1.842C319.878,205.536,316.419,208.995,312.152,208.995z"/>
			<path id="XMLID_1092_" style="fill:#CAEDFF;" d="M347.93,291.85c-4.268,0-7.726-3.459-7.726-7.726v-1.842     c0-4.267,3.459-7.726,7.726-7.726s7.726,3.459,7.726,7.726v1.842C355.657,288.391,352.198,291.85,347.93,291.85z"/>
			<path id="XMLID_1093_" style="fill:#CAEDFF;" d="M216.225,262.375c-4.267,0-7.726-3.459-7.726-7.726v-1.842     c0-4.267,3.459-7.726,7.726-7.726c4.267,0,7.726,3.459,7.726,7.726v1.842C223.951,258.916,220.492,262.375,216.225,262.375z"/>
			<path id="XMLID_1088_" style="fill:#CAEDFF;" d="M170.413,195.521c-4.267,0-7.726-3.459-7.726-7.726v-1.842     c0-4.267,3.459-7.726,7.726-7.726s7.726,3.459,7.726,7.726v1.842C178.139,192.062,174.68,195.521,170.413,195.521z"/>
			<path id="XMLID_1235_" style="fill:#CAEDFF;" d="M229.75,174.41c-4.267,0-7.726-3.459-7.726-7.726v-1.842     c0-4.267,3.459-7.726,7.726-7.726s7.726,3.459,7.726,7.726v1.842C237.477,170.951,234.017,174.41,229.75,174.41z"/>
		</g>
	</g>
	<g id="XMLID_1970_">
		<path id="XMLID_1967_" style="fill:#CAEDFF;" d="M261.14,402.75h-48.496c-4.552,0-8.241-3.69-8.241-8.241v-48.496    c0-4.552,3.69-8.241,8.241-8.241h48.496c4.552,0,8.241,3.69,8.241,8.241v48.496C269.381,399.06,265.691,402.75,261.14,402.75z"/>
	</g>
	<g id="XMLID_1976_">
		<path id="XMLID_1993_" style="fill:#CAEDFF;" d="M295.195,299.451l-45.835-15.843c-4.302-1.487-6.584-6.18-5.097-10.482    l15.843-45.835c1.487-4.302,6.18-6.584,10.482-5.097l45.835,15.843c4.302,1.487,6.584,6.18,5.097,10.482l-15.843,45.835    C304.19,298.656,299.497,300.938,295.195,299.451z"/>
	</g>
</g>















</svg>
